<?xml version="1.0" encoding="utf-8"?>
<!-- Generator: Adobe Illustrator 25.2.0, SVG Export Plug-In . SVG Version: 6.00 Build 0)  -->
<svg version="1.1" id="Layer_1" xmlns="http://www.w3.org/2000/svg" xmlns:xlink="http://www.w3.org/1999/xlink" x="0px" y="0px"
	 viewBox="0 0 84 110" style="enable-background:new 0 0 84 110;" xml:space="preserve">
<style type="text/css">
	.st0{fill:url(#SVGID_1_);}
	.st1{fill:url(#SVGID_2_);}
	.st2{fill:url(#SVGID_3_);}
</style>
<linearGradient id="SVGID_1_" gradientUnits="userSpaceOnUse" x1="-13.9474" y1="-905.7686" x2="60.1144" y2="-890.6107" gradientTransform="matrix(1 0 0 -1 0 -856)">
	<stop  offset="0" style="stop-color:#6F983F"/>
	<stop  offset="1" style="stop-color:#2E2E2E"/>
</linearGradient>
<path class="st0" d="M69.8,38.4c0-7.5-3-14.6-8.3-19.9S49,10.2,41.6,10.2c-7.5,0-14.6,3-19.9,8.3S13.4,31,13.4,38.4s3,14.6,8.3,19.9
	s12.5,8.3,19.9,8.3c7.5,0,14.6-3,19.9-8.3C66.9,53,69.8,45.8,69.8,38.4z M15.9,38.4c0-6.8,2.7-13.4,7.5-18.2s11.4-7.6,18.2-7.6
	s13.4,2.7,18.2,7.5s7.5,11.4,7.5,18.2s-2.7,13.4-7.5,18.2S48.4,64,41.6,64s-13.4-2.7-18.2-7.6C18.6,51.7,15.9,45.2,15.9,38.4
	L15.9,38.4z"/>
<linearGradient id="SVGID_2_" gradientUnits="userSpaceOnUse" x1="-13.7675" y1="-906.6479" x2="60.2944" y2="-891.4901" gradientTransform="matrix(1 0 0 -1 0 -856)">
	<stop  offset="0" style="stop-color:#6F983F"/>
	<stop  offset="1" style="stop-color:#2E2E2E"/>
</linearGradient>
<path class="st1" d="M51.7,57c0.7,0.4,1.6,0.3,2.3-0.2s1-1.3,0.9-2.1L53,43.6l8.1-7.9c0.6-0.6,0.8-1.4,0.6-2.2
	c-0.3-0.8-0.9-1.4-1.8-1.5l-11.2-1.6l-5-10.1c-0.4-0.7-1.1-1.2-2-1.2c-0.8,0-1.6,0.5-2,1.2l-5,10.1L23.5,32l0,0
	c-0.8,0.1-1.5,0.7-1.8,1.5s0,1.7,0.6,2.2l8.1,7.9l-1.9,11.1c-0.1,0.8,0.2,1.6,0.9,2.1c0.7,0.5,1.6,0.5,2.3,0.2l10-5.3L51.7,57z
	 M40.6,49.6l-9.7,5.1l1.9-10.8c0.1-0.7-0.1-1.4-0.6-1.9l-7.9-7.6l10.8-1.6c0.7-0.1,1.3-0.5,1.6-1.2l4.8-9.8l4.8,9.8
	c0.3,0.6,0.9,1.1,1.6,1.2L59,34.3l-7.8,7.6c-0.5,0.5-0.7,1.2-0.6,1.9l1.9,10.8l-9.7-5.1l0,0C42,49.2,41.3,49.2,40.6,49.6L40.6,49.6z
	"/>
<linearGradient id="SVGID_3_" gradientUnits="userSpaceOnUse" x1="-10.3372" y1="-923.4079" x2="63.7246" y2="-908.2501" gradientTransform="matrix(1 0 0 -1 0 -856)">
	<stop  offset="0" style="stop-color:#6F983F"/>
	<stop  offset="1" style="stop-color:#2E2E2E"/>
</linearGradient>
<path class="st2" d="M83.1,96.1L65.8,68.2C74.8,60.9,80,50,80,38.4C80,17.2,62.8,0,41.7,0C20.5,0,3.3,17.2,3.3,38.4
	C3.3,50,8.5,61,17.6,68.2L0.2,96.1c-0.3,0.4-0.2,0.9,0,1.3C0.5,97.8,1,98,1.5,97.9l14.4-3.2l3.5,14.4c0.1,0.5,0.5,0.8,1,0.9
	c0.1,0,0.1,0,0.2,0c0.4,0,0.8-0.2,1-0.6l20-32.1l20,32.1c0.2,0.4,0.6,0.6,1,0.6c0.1,0,0.1,0,0.2,0c0.5-0.1,0.9-0.4,1-0.9l3.5-14.4
	l14.4,3.2c0.5,0.1,1-0.1,1.2-0.5C83.4,97,83.4,96.5,83.1,96.1L83.1,96.1z M5.7,38.4c0-19.8,16.1-36,36-36c19.8,0,36,16.1,36,36
	c0,19.8-16.1,36-36,36C21.8,74.3,5.7,58.2,5.7,38.4z M21.1,105.7L18,93c-0.2-0.6-0.8-1-1.4-0.9L3.8,94.9l15.7-25.2
	c5.8,4.1,12.6,6.5,19.7,7L21.1,105.7z M66.8,92.1c-0.6-0.1-1.3,0.3-1.4,0.9l-3.1,12.7l-18.2-29c7.1-0.4,13.9-2.9,19.7-7l15.7,25.2
	L66.8,92.1z"/>
</svg>
