<?xml version="1.0" encoding="utf-8"?>
<!-- Generator: Adobe Illustrator 25.2.0, SVG Export Plug-In . SVG Version: 6.00 Build 0)  -->
<svg version="1.1" id="Layer_1" xmlns="http://www.w3.org/2000/svg" xmlns:xlink="http://www.w3.org/1999/xlink" x="0px" y="0px"
	 viewBox="0 0 126 110" style="enable-background:new 0 0 126 110;" xml:space="preserve">
<style type="text/css">
	.st0{fill:url(#SVGID_1_);}
	.st1{fill:url(#SVGID_2_);}
	.st2{fill:url(#SVGID_3_);}
	.st3{fill:url(#SVGID_4_);}
	.st4{fill:url(#SVGID_5_);}
</style>
<linearGradient id="SVGID_1_" gradientUnits="userSpaceOnUse" x1="-8.3502" y1="1058.9364" x2="98.1388" y2="1025.978" gradientTransform="matrix(1 0 0 1 0 -968)">
	<stop  offset="0" style="stop-color:#6F983F"/>
	<stop  offset="1" style="stop-color:#2E2E2E"/>
</linearGradient>
<path class="st0" d="M125.2,75.9c-1.9-4.1-6.6-6.1-10.8-4.6V38.7c0-3.4-2.8-6.1-6.2-6.1h-69c-3.4,0-6.2,2.8-6.2,6.1v26.6
	c-0.4-0.1-0.9-0.1-1.3-0.2V64c0-4-3.2-7.2-7.2-7.2H7.2C3.2,56.8,0,60,0,64v35c0,4,3.2,7.2,7.2,7.2h17.3c3.4,0,6.3-2.4,7-5.6l17,6.4
	c5.3,2,10.8,3,16.4,3c7.2,0,14.5-1.7,20.9-5l35.4-17.8c3-1.5,4.8-4.5,4.8-7.8C126,78.2,125.7,77,125.2,75.9L125.2,75.9z M36.4,38.7
	c0-1.6,1.3-2.8,2.8-2.8h69.1c1.6,0,2.8,1.3,2.8,2.8v34l-10.3,4.6c0.1-0.3,0.3-0.5,0.3-0.8c0-1.6,1.3-2.8,2.8-2.8
	c0.9,0,1.7-0.7,1.7-1.7V47.7c0-0.9-0.7-1.7-1.7-1.7c-1.6,0-2.8-1.3-2.8-2.8c0-0.9-0.7-1.7-1.7-1.7H48.3c-0.9,0-1.7,0.7-1.7,1.7
	c0,1.6-1.3,2.8-2.8,2.8c-0.9,0-1.7,0.7-1.7,1.7v20.1c-1.8-0.8-3.7-1.4-5.6-1.9L36.4,38.7L36.4,38.7z M84.4,78.1h14.4l-13.6,6.1
	c0.2-0.7,0.2-1.4,0.2-2.1C85.4,80.7,85,79.4,84.4,78.1z M81.4,74.8c-1.4-0.9-3.1-1.5-4.9-1.5H59.9c-2.6,0-5.1-0.3-7.6-1
	c-2.4-0.6-4.7-1.6-7-2.8V49.2c2-0.6,3.7-2.2,4.3-4.2h48.2c0.6,2,2.2,3.7,4.3,4.2v21.5c-2,0.6-3.7,2.2-4.3,4.2L81.4,74.8z M28.4,99
	c0,2.1-1.7,3.8-3.9,3.8H7.2c-2.1,0-3.9-1.7-3.9-3.8V64c0-2.1,1.7-3.8,3.9-3.8h17.3c2.1,0,3.9,1.7,3.9,3.8V99z M119.7,84.2L84.3,102
	c-10.7,5.4-23.5,6-34.7,1.8l-18-6.8V68.4c4.1,0.4,8.2,1.7,11.8,3.8c2.5,1.4,5.2,2.5,7.9,3.3c2.8,0.7,5.6,1.1,8.5,1.1h16.6
	c3,0,5.5,2.5,5.5,5.5c0,1.5-0.6,2.9-1.6,3.9c-0.2,0.2-0.4,0.4-0.7,0.6c-0.9,0.6-2,1-3.1,1H51.9c-0.9,0-1.7,0.7-1.7,1.7
	c0,0.9,0.7,1.7,1.7,1.7h24.6c1.7,0,3.4-0.5,4.8-1.5l33.8-15c2.7-1.2,5.8,0,7,2.7c0.3,0.7,0.5,1.4,0.5,2.2
	C122.6,81.5,121.5,83.3,119.7,84.2L119.7,84.2z"/>
<linearGradient id="SVGID_2_" gradientUnits="userSpaceOnUse" x1="-12.2567" y1="1046.3145" x2="94.2323" y2="1013.3561" gradientTransform="matrix(1 0 0 1 0 -968)">
	<stop  offset="0" style="stop-color:#6F983F"/>
	<stop  offset="1" style="stop-color:#2E2E2E"/>
</linearGradient>
<path class="st1" d="M15.9,63.8c-3.2,0-5.8,2.6-5.8,5.8s2.6,5.8,5.8,5.8s5.8-2.6,5.8-5.8C21.7,66.4,19.1,63.8,15.9,63.8z M15.9,72.1
	c-1.4,0-2.5-1.1-2.5-2.5s1.1-2.5,2.5-2.5s2.5,1.1,2.5,2.5C18.3,71,17.2,72.1,15.9,72.1z"/>
<linearGradient id="SVGID_3_" gradientUnits="userSpaceOnUse" x1="-9.9609" y1="1053.7322" x2="96.5281" y2="1020.7737" gradientTransform="matrix(1 0 0 1 0 -968)">
	<stop  offset="0" style="stop-color:#6F983F"/>
	<stop  offset="1" style="stop-color:#2E2E2E"/>
</linearGradient>
<path class="st2" d="M73.7,53.8c1.4,0,2.6,1,2.6,2.2c0,0.9,0.7,1.7,1.7,1.7s1.7-0.7,1.7-1.7c0-2.5-1.8-4.6-4.3-5.3v-1.1
	c0-0.9-0.7-1.7-1.7-1.7S72,48.7,72,49.6v1.1c-2.4,0.7-4.3,2.8-4.3,5.3c0,3,2.7,5.5,5.9,5.5c1.4,0,2.6,1,2.6,2.2
	c0,1.2-1.2,2.2-2.6,2.2s-2.6-1-2.6-2.2c0-0.9-0.7-1.7-1.7-1.7c-0.9,0-1.7,0.7-1.7,1.7c0,2.5,1.8,4.6,4.3,5.3v1.1
	c0,0.9,0.7,1.7,1.7,1.7s1.7-0.7,1.7-1.7V69c2.5-0.7,4.3-2.8,4.3-5.3c0-3-2.7-5.5-5.9-5.5c-1.4,0-2.6-1-2.6-2.2
	C71.1,54.8,72.3,53.8,73.7,53.8z"/>
<linearGradient id="SVGID_4_" gradientUnits="userSpaceOnUse" x1="-22.7826" y1="1012.305" x2="83.7064" y2="979.3466" gradientTransform="matrix(1 0 0 1 0 -968)">
	<stop  offset="0" style="stop-color:#6F983F"/>
	<stop  offset="1" style="stop-color:#2E2E2E"/>
</linearGradient>
<path class="st3" d="M15.5,52.4l12.9,4c0.2,0.1,0.3,0.1,0.5,0.1c0.7,0,1.4-0.5,1.6-1.2c0.3-0.9-0.2-1.8-1.1-2.1l-12.9-4
	c-1.5-0.5-2.3-2-1.9-3.5L27.1,5.3c0.5-1.5,2-2.3,3.5-1.8l66,20.3c0.7,0.2,1.3,0.7,1.7,1.4c0.4,0.7,0.4,1.4,0.2,2.1
	c-0.3,0.9,0.2,1.8,1.1,2.1c0.9,0.3,1.8-0.2,2.1-1.1c0.5-1.6,0.3-3.2-0.4-4.7c-0.8-1.5-2.1-2.5-3.6-3l-66-20.3
	c-3.2-1-6.7,0.8-7.7,4.1L11.5,44.7C10.5,47.9,12.3,51.3,15.5,52.4L15.5,52.4z"/>
<linearGradient id="SVGID_5_" gradientUnits="userSpaceOnUse" x1="-22.1012" y1="1014.5069" x2="84.3878" y2="981.5485" gradientTransform="matrix(1 0 0 1 0 -968)">
	<stop  offset="0" style="stop-color:#6F983F"/>
	<stop  offset="1" style="stop-color:#2E2E2E"/>
</linearGradient>
<path class="st4" d="M35.7,17.2c0.9-0.5,1.7-1.2,2.3-2.1l47.5,14.6c0.9,0.3,1.8-0.2,2.1-1.1c0.3-0.9-0.2-1.8-1.1-2.1l-48.8-15
	c-0.4-0.1-0.9-0.1-1.3,0.1c-0.4,0.2-0.7,0.6-0.8,1c-0.2,0.7-0.7,1.3-1.4,1.7s-1.4,0.4-2.1,0.2c-0.9-0.3-1.8,0.2-2.1,1.1l-7.2,23.2
	c-0.1,0.4-0.1,0.9,0.1,1.3c0.2,0.4,0.6,0.7,1,0.8c0.7,0.2,1.3,0.7,1.7,1.4c0.4,0.6,0.4,1.4,0.2,2.1c-0.3,0.9,0.2,1.8,1.1,2.1
	l1.7,0.5c0.2,0.1,0.3,0.1,0.5,0.1c0.7,0,1.4-0.5,1.6-1.2c0.3-0.9-0.2-1.8-1.1-2.1l-0.3-0.1c0-1-0.2-2.1-0.7-3s-1.2-1.7-2.1-2.3
	l6.3-20.5C33.7,17.9,34.7,17.7,35.7,17.2L35.7,17.2z"/>
</svg>
