<?xml version="1.0" encoding="utf-8"?>
<!-- Generator: Adobe Illustrator 25.2.0, SVG Export Plug-In . SVG Version: 6.00 Build 0)  -->
<svg version="1.1" id="Layer_1" xmlns="http://www.w3.org/2000/svg" xmlns:xlink="http://www.w3.org/1999/xlink" x="0px" y="0px"
	 viewBox="0 0 106 110" style="enable-background:new 0 0 106 110;" xml:space="preserve">
<style type="text/css">
	.st0{fill:url(#SVGID_1_);}
	.st1{fill:url(#SVGID_2_);}
	.st2{fill:url(#SVGID_3_);}
	.st3{fill:url(#SVGID_4_);}
</style>
<linearGradient id="SVGID_1_" gradientUnits="userSpaceOnUse" x1="-21.3878" y1="1003.7732" x2="70.5471" y2="979.8358" gradientTransform="matrix(1 0 0 1 0 -968)">
	<stop  offset="0" style="stop-color:#6F983F"/>
	<stop  offset="1" style="stop-color:#2E2E2E"/>
</linearGradient>
<path class="st0" d="M65.8,28.3c-0.3,0.3-0.8,0.5-1.3,0.5s-0.9-0.2-1.3-0.5c-0.7-0.7-1.9-0.7-2.6,0c-0.7,0.7-0.7,1.9,0,2.6
	c1,1,2.4,1.6,3.8,1.6c1.4,0,2.8-0.6,3.8-1.6l0.2-0.2c0.9-0.9,1.4-2.1,1.5-3.4s-0.3-2.6-1-3.6c-5.7-9-15.4-18.5-23-22.7l0,0
	c-1.1-0.7-2.3-1-3.6-0.9c-1.2,0-2.3,0.5-3.3,1.4l-0.3,0.3c-1,1-1.5,2.3-1.5,3.7s0.6,2.7,1.5,3.7c0.7,0.7,1.9,0.7,2.6,0
	c0.7-0.7,0.7-1.9,0-2.6c-0.3-0.3-0.5-0.8-0.5-1.2s0.2-0.9,0.5-1.2L41.6,4c0.8-0.8,2.2-0.2,2.6,0c7,3.9,16.4,13.2,21.8,21.5l0,0
	c0.6,0.7,0.6,1.8,0,2.5L65.8,28.3z"/>
<linearGradient id="SVGID_2_" gradientUnits="userSpaceOnUse" x1="-15.2001" y1="1027.538" x2="76.7349" y2="1003.6006" gradientTransform="matrix(1 0 0 1 0 -968)">
	<stop  offset="0" style="stop-color:#6F983F"/>
	<stop  offset="1" style="stop-color:#2E2E2E"/>
</linearGradient>
<path class="st1" d="M26.4,66c1,0.6,2.2,1,3.4,1c1.4,0,2.7-0.5,3.7-1.5l0.2-0.2c1-1,1.6-2.4,1.6-3.8c0-1.4-0.6-2.8-1.6-3.8
	c-0.7-0.7-1.9-0.7-2.6,0s-0.7,1.9,0,2.6c0.3,0.3,0.5,0.8,0.5,1.2c0,0.5-0.2,0.9-0.5,1.2l-0.2,0.2l0,0c-0.7,0.6-1.8,0.6-2.6,0
	c-8.5-5.3-17.9-14.5-21.8-21.5c-0.2-0.4-0.9-1.7,0-2.6l0.3-0.3C7.1,38.2,7.6,38,8,38c0.5,0,0.9,0.2,1.2,0.5c0.7,0.7,1.9,0.7,2.6,0
	s0.7-1.9,0-2.6c-1-1-2.4-1.6-3.8-1.6s-2.8,0.6-3.8,1.6L4,36.3c-0.9,0.9-1.4,2.1-1.5,3.3c-0.1,1.3,0.2,2.5,0.9,3.6
	C7.7,50.7,17.4,60.3,26.4,66L26.4,66z"/>
<linearGradient id="SVGID_3_" gradientUnits="userSpaceOnUse" x1="-10.9921" y1="1043.6995" x2="80.9428" y2="1019.762" gradientTransform="matrix(1 0 0 1 0 -968)">
	<stop  offset="0" style="stop-color:#6F983F"/>
	<stop  offset="1" style="stop-color:#2E2E2E"/>
</linearGradient>
<path class="st2" d="M54.3,41.5l7-7l0,0c0.3-0.3,0.5-0.8,0.5-1.3s-0.2-0.9-0.5-1.3L38.1,9.1c-0.3-0.3-0.8-0.5-1.3-0.5
	s-0.9,0.2-1.3,0.5L11.7,32.9c-0.7,0.7-0.7,1.9,0,2.6l23.2,22.8c0.3,0.3,0.8,0.5,1.3,0.5s0.9-0.2,1.3-0.5l7-7l43,47.7
	c1.9,2.1,4.7,3.3,7.5,3.4h0.2c2.3,0,4.5-0.7,6.3-2.1c0.1-0.1,0.2-0.2,0.3-0.3l0.2-0.1c0.3-0.2,0.5-0.4,0.8-0.7
	c0.3-0.2,0.5-0.5,0.7-0.7l0.1-0.1c0.1-0.1,0.3-0.2,0.4-0.4c1.6-2.1,2.3-4.6,2-7.2s-1.5-5-3.4-6.7L54.3,41.5z M36.1,54.4L15.5,34.2
	L36.9,13l20.7,20.3L36.1,54.4z M101.2,95.5c-0.2,0.2-0.4,0.4-0.5,0.6l-0.1,0.1c-0.3,0.1-0.5,0.4-0.6,0.6L99.8,97
	c-0.2,0.2-0.4,0.3-0.6,0.5c-1.2,0.8-2.6,1.3-4.1,1.2c-1.9,0-3.6-0.8-4.9-2.2L47,48.7l4.7-4.6l48.5,42.6c1.2,1.1,2,2.6,2.2,4.2
	C102.5,92.5,102.1,94.2,101.2,95.5L101.2,95.5z"/>
<linearGradient id="SVGID_4_" gradientUnits="userSpaceOnUse" x1="-2.1913" y1="1077.5002" x2="89.7436" y2="1053.5629" gradientTransform="matrix(1 0 0 1 0 -968)">
	<stop  offset="0" style="stop-color:#6F983F"/>
	<stop  offset="1" style="stop-color:#2E2E2E"/>
</linearGradient>
<path class="st3" d="M63.4,94.8c-0.3-0.3-0.8-0.5-1.3-0.5h-0.7v-1.4l0,0c0-0.4-0.2-0.9-0.5-1.2l-2.7-3l0,0c-0.4-0.4-0.8-0.6-1.4-0.6
	H10.4c-0.5,0-1,0.2-1.4,0.6l-2.7,3l0,0C6,92,5.9,92.4,5.9,92.9v1.4H5.2c-0.5,0-1,0.2-1.3,0.5l-3.4,3.3C0.2,98.4,0,98.9,0,99.4v8.8
	c0,0.5,0.2,0.9,0.5,1.3c0.3,0.3,0.8,0.5,1.3,0.5h63.7c0.5,0,0.9-0.2,1.3-0.5c0.3-0.3,0.5-0.8,0.5-1.3v-8.8c0-0.5-0.2-0.9-0.5-1.3
	L63.4,94.8z M63.7,106.4h-60v-6.3L6,97.8h0.6C6.9,97.9,7.2,98,7.5,98H36c1,0,1.8-0.8,1.8-1.8S37,94.4,36,94.4H9.5v-0.9l1.7-1.9h44.9
	l1.7,1.9V96c0,0.5,0.2,0.9,0.5,1.3c0.3,0.3,0.8,0.5,1.3,0.5h1.8l2.3,2.3V106.4z"/>
</svg>
