<?xml version="1.0" encoding="utf-8"?>
<!-- Generator: Adobe Illustrator 25.2.0, SVG Export Plug-In . SVG Version: 6.00 Build 0)  -->
<svg version="1.1" id="Layer_1" xmlns="http://www.w3.org/2000/svg" xmlns:xlink="http://www.w3.org/1999/xlink" x="0px" y="0px"
	 viewBox="0 0 700 554" style="enable-background:new 0 0 700 554;" xml:space="preserve">
<style type="text/css">
	.st0{clip-path:url(#SVGID_2_);}
	.st1{fill:#F6F8FB;}
	.st2{fill:#2E2E2E;}
	.st3{fill:#FFFFFF;stroke:#000000;stroke-width:0.5;stroke-miterlimit:10;}
	.st4{fill:#FFFFFF;}
	.st5{fill:#FF725E;}
	.st6{fill:#DDD0FA;}
	.st7{fill:#F7911D;}
	.st8{fill:#FAFAFA;}
	.st9{fill:#FFFFFF;stroke:#000000;stroke-width:0.25;stroke-miterlimit:10;}
	.st10{fill:none;stroke:#000000;stroke-width:0.25;stroke-miterlimit:10;}
	.st11{fill:#E0E0E0;}
	.st12{fill:#EBEBEB;}
</style>
<g>
	<defs>
		<rect id="SVGID_1_" width="700" height="554"/>
	</defs>
	<clipPath id="SVGID_2_">
		<use xlink:href="#SVGID_1_"  style="overflow:visible;"/>
	</clipPath>
	<g class="st0">
		<g>
			<path class="st1" d="M615.7,162.4l-2.9-6.1c-23.2-48.2-71.1-80.2-124.6-81.6c-6.1-0.2-12.2,0.1-18.4,0.7
				c-48.8,5.1-94,36.4-116,80.3c-12.9,25.8-19,56.4-40.4,75.7c-27.9,25.1-70.4,21.6-107.6,16.6c-37.2-5-79.8-8.4-107.6,16.8
				c-17.4,15.8-24.9,40.1-26.1,63.5c-3.1,62.1,34.8,121.9,87.4,155.1s120.9,42.6,179-0.4c70.1-51.9,173.3-9.1,229.4-75.9
				C624.1,340.5,646.5,243.9,615.7,162.4z"/>
		</g>
		<path class="st2" d="M580.8,526.2c0,0.2-98.3,0.3-219.4,0.3c-121.2,0-219.5-0.1-219.5-0.3s98.2-0.3,219.5-0.3
			C482.5,526,580.8,526.1,580.8,526.2z"/>
		<path class="st3" d="M387.9,50.5h-21.6v33.7h21.6V50.5z"/>
		<path class="st2" d="M399.5,60.6H355V24.3c15.6-3.8,30.4-4.1,44.5,0V60.6z"/>
		<path class="st2" d="M400,24.4c0,0-0.6,0.3-1.6,0.8c-1.1,0.5-2.7,1.1-4.7,1.7c-2,0.6-4.5,1.2-7.2,1.7c-2.8,0.4-5.8,0.7-9,0.8
			c-3.2,0-6.3-0.3-9.1-0.7c-2.8-0.4-5.2-1-7.2-1.6c-2-0.6-3.6-1.2-4.7-1.7c-1.1-0.5-1.7-0.7-1.6-0.8c0.1-0.1,2.5,0.9,6.5,2
			c2,0.6,4.5,1.1,7.2,1.5c2.7,0.4,5.8,0.6,9,0.6c3.2,0,6.2-0.3,8.9-0.7c2.7-0.4,5.2-1,7.2-1.5C397.6,25.3,400,24.3,400,24.4z"/>
		<path class="st4" d="M369.7,60.5c-0.2,0-0.4-7-0.4-15.6c0-8.6,0.2-15.6,0.4-15.6c0.2,0,0.4,7,0.4,15.6
			C370.1,53.5,369.9,60.5,369.7,60.5z"/>
		<path class="st4" d="M378.2,60.7c-0.2,0-0.4-7-0.4-15.6c0-8.6,0.2-15.6,0.4-15.6s0.4,7,0.4,15.6C378.5,53.7,378.4,60.7,378.2,60.7
			z"/>
		<path class="st4" d="M386.6,60.5c-0.2,0-0.4-7-0.4-15.6c0-8.6,0.2-15.6,0.4-15.6s0.4,7,0.4,15.6C387,53.5,386.8,60.5,386.6,60.5z"
			/>
		<path class="st4" d="M393.7,60.5c-0.2,0-0.4-7.6-0.4-16.9c0-9.3,0.2-16.9,0.4-16.9c0.2,0,0.4,7.6,0.4,16.9
			C394.1,53,393.9,60.5,393.7,60.5z"/>
		<path class="st4" d="M361.7,60.3c-0.2,0-0.4-7.6-0.4-16.9c0-9.3,0.2-16.9,0.4-16.9c0.2,0,0.4,7.6,0.4,16.9
			C362.1,52.7,361.9,60.3,361.7,60.3z"/>
		<path class="st3" d="M510.9,105.1l-10.8-11.3l-17.6,16.8l10.8,11.3L510.9,105.1z"/>
		<path class="st2" d="M511.4,116.1l-22.2-23.2l19-18.1c9.8,6.2,17.3,13.9,22.2,23.2L511.4,116.1z"/>
		<path class="st4" d="M492.9,96.8c-0.1-0.1,4.2-4.5,9.6-9.7c5.4-5.2,9.9-9.4,10.1-9.3c0.1,0.1-4.2,4.5-9.6,9.7
			C497.5,92.8,493,96.9,492.9,96.8z"/>
		<path class="st4" d="M497.1,101.2c-0.1-0.1,1.1-1.2,2.9-2.9c1.8-1.7,4.4-4.1,7.3-6.7c2.8-2.5,5.3-4.8,7.3-6.6
			c0.8-0.8,1.6-1.4,2.2-2c0.5-0.5,0.8-0.7,0.8-0.7c0.2,0.2-4.3,4.6-10,9.8c-2.9,2.6-5.5,4.9-7.4,6.6
			C498.4,100.3,497.1,101.3,497.1,101.2z"/>
		<path class="st4" d="M502.7,107.1c-0.1-0.1,1.1-1.2,2.9-2.9c1.9-1.8,4.5-4.1,7.4-6.8c2.9-2.5,5.4-4.8,7.5-6.7
			c0.9-0.8,1.6-1.4,2.3-2c0.6-0.5,0.8-0.7,0.9-0.7c0.1,0.1-1,1.3-2.8,3c-1.8,1.8-4.4,4.2-7.3,6.8c-2.9,2.6-5.6,5-7.5,6.6
			C504,106.2,502.8,107.2,502.7,107.1z"/>
		<path class="st4" d="M508,112.5c-0.1-0.1,4.2-4.5,9.7-9.7c5.5-5.2,10.1-9.3,10.2-9.2c0.1,0.1-4.2,4.5-9.7,9.7
			C512.7,108.5,508.1,112.6,508,112.5z"/>
		<path class="st3" d="M238.8,103.4l-11.7,10.3l16.1,18.3l11.7-10.3L238.8,103.4z"/>
		<path class="st2" d="M249.9,103.3l-24.1,21.3l-17.4-19.7c6.6-9.5,14.6-16.8,24.1-21.3L249.9,103.3z"/>
		<path class="st4" d="M229.8,121c-0.1,0.1-4.3-4.4-9.4-10c-5-5.6-9-10.3-8.9-10.4c0.1-0.1,4.3,4.4,9.4,10
			C226,116.3,230,120.9,229.8,121z"/>
		<path class="st4" d="M234.4,117c-0.1,0.1-1.1-1.1-2.8-3c-1.7-1.9-3.9-4.6-6.4-7.5c-2.4-2.9-4.6-5.5-6.3-7.6
			c-0.7-0.9-1.4-1.7-1.9-2.3c-0.5-0.6-0.7-0.8-0.7-0.9c0.2-0.2,4.5,4.4,9.4,10.3c2.5,3,4.7,5.7,6.3,7.6
			C233.6,115.7,234.5,116.9,234.4,117z"/>
		<path class="st4" d="M240.6,111.6c-0.1,0.1-1.1-1.1-2.8-3c-1.7-1.9-4-4.6-6.5-7.6c-2.4-2.9-4.6-5.6-6.4-7.7
			c-0.7-0.9-1.4-1.7-1.9-2.4c-0.5-0.6-0.6-0.8-0.7-0.9c0.1-0.1,1.2,1,2.9,3c1.7,1.9,4,4.6,6.5,7.6c2.5,3,4.7,5.7,6.3,7.8
			C239.7,110.3,240.6,111.5,240.6,111.6z"/>
		<path class="st4" d="M246.1,106.6c-0.1,0.1-4.3-4.4-9.3-10.1c-5-5.7-8.9-10.4-8.8-10.5c0.1-0.1,4.3,4.4,9.3,10.1
			C242.3,101.7,246.3,106.4,246.1,106.6z"/>
		<path class="st2" d="M498.8,372.2c69.5-69.4,69.5-182,0-251.5c-69.5-69.4-182.2-69.4-251.7,0c-69.5,69.4-69.5,182,0,251.5
			C316.6,441.6,429.3,441.6,498.8,372.2z"/>
		<path class="st4" d="M488.5,361.9c63.8-63.8,63.8-167.2,0-231c-63.8-63.8-167.4-63.8-231.2,0c-63.8,63.8-63.8,167.2,0,231
			C321.2,425.7,424.7,425.7,488.5,361.9z"/>
		<path class="st2" d="M372.9,410.3c-90.5,0-164.1-73.5-164.1-163.9S282.5,82.5,372.9,82.5C463.4,82.5,537,156,537,246.4
			S463.4,410.3,372.9,410.3z M372.9,83.6c-89.8,0-162.9,73-162.9,162.8s73.1,162.8,162.9,162.8c89.8,0,162.9-73,162.9-162.8
			S462.8,83.6,372.9,83.6z"/>
		<path class="st5" d="M270.3,181.2c6.8-21.1,20.8-35.4,39.3-47.7c18.5-12.3,43.7-16.9,65.8-15v131.7L270.3,181.2z"/>
		<path class="st6" d="M270.3,181.2c6.8-21.1,20.8-35.4,39.3-47.7c18.5-12.3,43.7-16.9,65.8-15v131.7L270.3,181.2z"/>
		<path class="st7" d="M361.3,249.4l-73.5-57.1l86.1,39.7l2.5,15.1L361.3,249.4z"/>
		<g>
			<path class="st2" d="M287.8,192.3l76.8,45.1l9.3-5.4L287.8,192.3z"/>
		</g>
		<path class="st8" d="M382.3,261.4c7.8-3.2,11.6-12.1,8.3-19.9c-3.2-7.8-12.1-11.5-20-8.3c-7.8,3.2-11.6,12.1-8.3,19.9
			C365.5,260.9,374.4,264.6,382.3,261.4z"/>
		<path class="st2" d="M376.4,232c0,0.1-1.4,0-3.7,0.6c-2.3,0.6-5.7,2.1-8.2,5.6c-1.3,1.7-2.3,3.9-2.8,6.3c-0.4,2.5-0.3,5.2,0.7,7.9
			c0.5,1.3,1.2,2.6,2,3.8c0.9,1.2,1.9,2.3,3.2,3.1c2.4,1.8,5.6,2.9,8.8,2.9c3.2,0,6.4-1.1,8.8-2.9c1.2-0.9,2.3-2,3.2-3.1
			c0.9-1.2,1.6-2.4,2-3.8c1-2.6,1.1-5.4,0.7-7.9c-0.4-2.5-1.5-4.6-2.8-6.3c-2.6-3.4-6-5-8.2-5.6C377.8,232,376.4,232.1,376.4,232
			c0,0,1.4-0.2,3.8,0.3c2.4,0.5,5.9,2,8.6,5.5c1.3,1.7,2.5,4,3,6.5c0.5,2.6,0.4,5.4-0.6,8.2c-0.5,1.4-1.2,2.7-2.1,4
			c-0.9,1.3-2,2.4-3.3,3.3c-2.6,1.9-5.9,3-9.3,3.1c-3.4,0-6.7-1.1-9.3-3.1c-1.3-0.9-2.4-2.1-3.3-3.3c-0.9-1.2-1.6-2.6-2.1-4
			c-1-2.8-1.1-5.7-0.6-8.2c0.5-2.6,1.6-4.8,3-6.5c2.8-3.5,6.2-5,8.6-5.5C375.1,231.8,376.4,232,376.4,232z"/>
		<path class="st2" d="M376.4,235.9c6.3,0,11.4,5.1,11.4,11.4c0,6.3-5.1,11.4-11.4,11.4c-6.3,0-11.4-5.1-11.4-11.4
			C365.1,241,370.2,235.9,376.4,235.9z"/>
		<path class="st2" d="M375.7,242.8c0,0-3.1-98.5,1.4-119.2C377.1,123.6,384.7,183.3,375.7,242.8z"/>
		<path class="st2" d="M366.8,397.5l-0.2,0l0.4-12.3l0.3,0L366.8,397.5z M428.1,387.5l-4.6-11.4l0.3-0.1l4.4,11.5L428.1,387.5z
			 M306.4,381.6l-0.2-0.1l5.5-11l0.3,0.2L306.4,381.6z M480.2,353.4l-8.8-8.6l0.2-0.2l8.7,8.7L480.2,353.4z M257.8,342.7l-0.2-0.2
			l9.5-7.8l0.2,0.2L257.8,342.7z M514.1,301l-11.5-4.3l0.1-0.3l11.5,4.4L514.1,301z M229.2,287.3l-0.1-0.3l11.9-3.1l0.1,0.2
			L229.2,287.3z M511.3,240.1l0-0.2l12.3-0.7l0,0.3L511.3,240.1z M511.3,239.9l0-0.3l12.3-0.7l0,0.3L511.3,239.9z M237.8,227
			l-12.2-1.8l0-0.3l12.1,1.9L237.8,227z M496.3,184.7l-0.1-0.2l10.9-5.6l0.1,0.3L496.3,184.7z M258,173.5l-10.3-6.6l0.1-0.2
			l10.4,6.6L258,173.5z M460,140.5l-0.2-0.2l7.7-9.6l0.2,0.2L460,140.5z M298.2,132.8l-6.7-10.3l0.2-0.1l6.8,10.2L298.2,132.8z
			 M408.9,114.7l-0.2-0.1l3.1-11.9l0.3,0.1L408.9,114.7z M351.5,112l-2-12.1l0.3,0l2,12.1L351.5,112z"/>
		<path class="st2" d="M572.3,391.9c0,0.2-15.2,0.3-33.9,0.3c-18.7,0-33.9-0.1-33.9-0.3c0-0.2,15.2-0.3,33.9-0.3
			C557.2,391.6,572.3,391.7,572.3,391.9z"/>
		<path class="st2" d="M593.6,384.3c0,0.2-15.2,0.3-33.9,0.3c-18.7,0-33.9-0.1-33.9-0.3c0-0.2,15.2-0.3,33.9-0.3
			C578.5,384,593.6,384.1,593.6,384.3z"/>
		<path class="st2" d="M186.1,341.7c0,0.2-14.1,0.3-31.4,0.3c-17.3,0-31.4-0.1-31.4-0.3s14.1-0.3,31.4-0.3
			C172,341.4,186.1,341.6,186.1,341.7z"/>
		<path class="st2" d="M205.8,334.2c0,0.2-14.1,0.3-31.4,0.3c-17.3,0-31.4-0.1-31.4-0.3c0-0.2,14.1-0.3,31.4-0.3
			C191.7,333.9,205.8,334,205.8,334.2z"/>
		<path class="st2" d="M446.1,191c1.6-1.4,4.1-1.6,5.9-0.5c3-0.9,6.5,0.6,7.9,3.3c2.1-0.3,4.4,0.5,5.7,2.1c1.4,1.6,1.8,4,1.1,6
			c2.1,0.5,3.8,2.4,4,4.5c0.2,2.2-1.1,4.4-3,5.3c1.9,1.6,2.3,4.6,1,6.6c-1.4,2-4.3,2.8-6.5,1.6l-17.5-23.3
			C444,194.9,444.5,192.4,446.1,191z"/>
		<path class="st9" d="M462.8,221c3.2-10.6-2.2-21.8-12.5-25.8l-1-0.4c-11.3-3.7-20.7,3.8-24.1,15.2l-12.8,37.3l-0.3,5.2l11.4,17.2
			l9.7-4.5l5.6-10.4c0,0,11.2,2.5,15.5-8C456.4,241.6,459.8,230.8,462.8,221z"/>
		<path class="st2" d="M438.9,254.7c0,0-6.9-2.2-12.3-9.5c0,0-0.4,9.4,10.5,12.6L438.9,254.7z"/>
		<path class="st2" d="M455.8,229.6c-0.3,0.8-1.2,1.2-2.1,0.9c-0.8-0.3-1.3-1.2-1-2c0.3-0.8,1.2-1.2,2.1-0.9
			C455.7,227.9,456.1,228.8,455.8,229.6z"/>
		<path class="st2" d="M458.4,225.8c-0.3,0.1-1.1-1.2-2.7-1.8c-1.6-0.7-3.1-0.3-3.2-0.6c-0.1-0.1,0.3-0.4,1-0.6
			c0.7-0.2,1.7-0.2,2.7,0.2c1,0.4,1.7,1.1,2.1,1.7C458.5,225.4,458.5,225.8,458.4,225.8z"/>
		<path class="st2" d="M441.6,224.8c-0.3,0.8-1.2,1.2-2.1,0.9c-0.8-0.3-1.3-1.2-1-2c0.3-0.8,1.2-1.2,2.1-0.9
			C441.5,223.1,441.9,224,441.6,224.8z"/>
		<path class="st2" d="M442.9,219.5c-0.3,0.1-1.1-1.2-2.7-1.8c-1.6-0.7-3.1-0.3-3.2-0.6c-0.1-0.1,0.3-0.4,1-0.6
			c0.7-0.2,1.7-0.2,2.7,0.2c1,0.4,1.7,1.1,2.1,1.7C443,219,443,219.4,442.9,219.5z"/>
		<path class="st2" d="M443.5,233.6c0-0.1,1.1,0.1,2.8,0.6c0.4,0.1,0.9,0.2,1-0.1c0.2-0.3,0.2-0.8,0.2-1.3c0-1.2,0-2.4,0-3.6
			c0.1-5.2,0.3-9.3,0.5-9.3c0.2,0,0.3,4.2,0.3,9.4c0,1.3,0,2.5-0.1,3.6c0,0.5,0,1.2-0.4,1.7c-0.2,0.3-0.6,0.4-0.9,0.3
			c-0.3,0-0.5-0.1-0.7-0.2C444.5,234.1,443.5,233.7,443.5,233.6z"/>
		<path class="st2" d="M444.2,214.7c-0.3,0.4-1.7-0.4-3.4-0.8c-1.8-0.5-3.3-0.4-3.4-0.9c0-0.2,0.4-0.5,1.1-0.8
			c0.7-0.2,1.7-0.3,2.8,0c1.1,0.3,1.9,0.8,2.4,1.3C444.2,214,444.3,214.5,444.2,214.7z"/>
		<path class="st2" d="M454.6,217.9c0.4-0.3,1.4,0.5,2.8,1c1.4,0.5,2.6,0.6,2.8,1.1c0.1,0.2-0.3,0.5-0.9,0.7
			c-0.6,0.2-1.6,0.2-2.5-0.1c-0.9-0.3-1.6-0.9-2-1.5C454.4,218.5,454.4,218,454.6,217.9z"/>
		<path class="st2" d="M463.7,215.7c0,0-0.2-7.7-2.8-10.5c-3.1-3.4-6.5,0.2-9.7-2.3c-3.3-2.5-6.3-5.7-11.2-4.4
			c-5.4,1.5-4.3,4.4-6.4,9c-8.5,18.6-14.1,22.6-11.6,13.3c0.3-1-2.1-2.9-0.9-7.2c1.6-5.6,4-12.2,6.7-15.5c2.3-2.8,5-4.3,9.2-5.5
			c6.7-1.8,13.9,0.9,18.5,3.3C460.2,198.4,467.4,207.6,463.7,215.7z"/>
		<path class="st9" d="M422.8,220.9c0.6-1.7-0.3-3.5-2-4c-2-0.6-4.7-0.3-6.2,3.8c-2.6,7.3,5.3,8.4,5.4,8.2
			C420.1,228.8,421.7,223.9,422.8,220.9z"/>
		<path class="st2" d="M419.4,225.6c0,0-0.2,0-0.4,0.1c-0.2,0-0.6,0-1-0.3c-0.7-0.6-0.9-2-0.4-3.3c0.2-0.7,0.6-1.3,1-1.7
			c0.4-0.5,0.9-0.7,1.3-0.6c0.4,0,0.6,0.4,0.6,0.6c0,0.2-0.1,0.4,0,0.4c0,0,0.2-0.1,0.2-0.4c0-0.2,0-0.4-0.1-0.6
			c-0.1-0.2-0.4-0.4-0.6-0.4c-0.6-0.2-1.3,0.2-1.7,0.7c-0.5,0.5-0.9,1.1-1.2,1.9c-0.5,1.5-0.2,3.1,0.7,3.8c0.5,0.3,0.9,0.3,1.2,0.2
			C419.3,225.7,419.4,225.6,419.4,225.6z"/>
		<path class="st2" d="M428.5,206.9c0.7,1,1.4,2.1,2.5,2.6c1.1,0.6,2.6,0.4,3.3-0.6c0.3-0.5,0.4-1.1,0.9-1.4
			c0.6-0.3,1.3,0.1,1.8,0.4c2,1.1,4.8,0.4,6.1-1.4c0.2,1,1.5,1.5,2.5,1.3c1-0.2,1.9-0.9,2.8-1.3c0.9-0.5,2.1-0.8,3-0.3
			c0.5,0.3,0.9,0.8,1.4,1c1,0.3,1.9-0.6,2.4-1.5c0.5-0.9,1.1-1.9,2.1-2.1c0.9-0.2,1.8,0.5,2.6,0.9c0.8,0.5,2,0.7,2.6-0.1
			c0.3-0.4,0.3-0.9,0.2-1.4c-0.4-2.2-2.6-4-4.8-3.9c0.2-2.7-1.3-5.4-3.6-6.6c-2.4-1.2-5.5-0.9-7.5,0.8c-1-2-3-3.4-5.2-3.8
			c-2.2-0.3-4.5,0.5-6.1,2.1c-1.6-1.2-3.9-1.3-5.5-0.3c-1.7,1-2.7,3-2.4,5c-1.6,0.2-3.2,1.1-3.8,2.6c-0.6,1.5,0.3,3.6,1.9,3.7
			c-1,0.9-1.2,2.7-0.3,3.8c0.9,1.1,2.6,1.3,3.8,0.5"/>
		<path class="st4" d="M424.9,202.3c0,0-0.4,0.6-0.1,1.6c0.1,0.5,0.5,1.1,1.1,1.4c0.6,0.4,1.5,0.5,2.3,0.2l-0.3-0.2
			c0.1,0.8,0.3,1.6,0.7,2.4c0.3,0.5,0.6,1,1,1.3c0.4,0.4,0.9,0.6,1.4,0.7c1,0.3,2,0.1,2.6-0.4c0.6-0.4,1-0.9,1.2-1.3
			c0.2-0.3,0.3-0.5,0.3-0.6c0,0-0.2,0.2-0.4,0.5c-0.3,0.3-0.6,0.7-1.2,1.1c-1.1,0.8-3.5,0.4-4.4-1.6c-0.4-0.7-0.6-1.5-0.7-2.2l0-0.3
			l-0.2,0.1c-0.7,0.3-1.4,0.2-2-0.1c-0.5-0.3-0.9-0.8-1-1.2C424.8,202.9,425,202.3,424.9,202.3z"/>
		<path class="st4" d="M445.1,191.1c0,0,0.2,0.1,0.4,0.4c0.3,0.3,0.6,0.7,0.7,1.4l0,0.2l0.2-0.1c1-0.6,2.6-1.4,4.6-1.5
			c1,0,2.1,0.1,3.1,0.5c1,0.4,2,1.1,2.7,2.1c0.6,0.7,0.9,1.6,1.1,2.4c0.2,0.9,0.2,1.7-0.1,2.5l-0.1,0.2l0.2,0
			c1.2,0.1,2.2,0.8,2.9,1.6c0.6,0.8,0.9,1.7,1,2.4c0.1,1.5-0.5,2.3-0.4,2.3c0,0,0.2-0.2,0.3-0.6c0.2-0.4,0.3-1,0.3-1.8
			c0-0.8-0.3-1.8-0.9-2.6c-0.7-0.8-1.8-1.6-3.1-1.7l0.2,0.3c0.2-0.8,0.3-1.8,0.1-2.7c-0.2-0.9-0.6-1.8-1.2-2.6
			c-0.8-1-1.8-1.8-2.9-2.2c-1.1-0.4-2.2-0.5-3.3-0.5c-2.1,0.1-3.7,0.9-4.7,1.6l0.2,0.1c-0.2-0.7-0.6-1.2-0.9-1.4
			C445.3,191.2,445.1,191.1,445.1,191.1z"/>
		<path class="st2" d="M443.3,239.8c-0.2,0.1-0.8-1.3-2.2-2.4c-1.4-1.2-2.8-1.6-2.8-1.7c0-0.1,1.6,0,3.1,1.3
			C443,238.2,443.4,239.8,443.3,239.8z"/>
		<path class="st9" d="M520.8,294.5c1.2-0.3,13.3,1.6,13.3,1.6s0.5,2.6-2.3,2.6c-2.8-0.1-12-0.8-12-0.8l-5.9,2.6l-1.9-0.8
			L520.8,294.5z"/>
		<path class="st9" d="M496,296.8l17.2,1.6l2.7,0.3c0,0,6.3-2.3,7.5-2.5c1.2-0.2,11.8,5.6,11.8,5.6s0.4,2.5-2.6,1.8
			c-3-0.6-6.6-2.5-6.6-2.5s-9.6,4.5-11.6,5.4c-1.9,0.9-13.4,0.8-13.4,0.8l-4.1,2.7L496,296.8z"/>
		<path class="st9" d="M502.7,323.2l7-4.4l24.1-8.6c0,0,2.1-1.9,1-2.7c-1.1-0.8-26.8,3.1-26.8,3.1l-5.4,3L502.7,323.2L502.7,323.2z"
			/>
		<path class="st7" d="M434.7,306.1c0,1.3-21,35.9-26.9,44.5c-8.8,12.8-17.7,14.4-17.7,14.4l-11.8-9.8l48.4-52.4l14.4-10.5
			L434.7,306.1z"/>
		<path class="st7" d="M425.2,322.4c4.8,2.1,18.7,8.1,24.5,9.1c8.3,1.4,53.8-1.8,53.8-1.8l-0.9-18.1l-66.5-1.5l-7.9-2.1l-2.9,9"/>
		<path class="st10" d="M425.2,322.4c4.8,2.1,18.7,8.1,24.5,9.1c8.3,1.4,53.8-1.8,53.8-1.8l-0.9-18.1l-66.5-1.5l-7.9-2.1l-2.9,9"/>
		<g>
			<path class="st2" d="M430,307.5c-1.4,0.6-2.2,4.2-3.2,5.3c-11,11.6-19.1,24.6-30.5,35.1c-4.9,4.5-10.5,8.4-17.1,8l6.8,5.8
				c5.7-0.1,9.4-2.8,13.7-6.5c4.3-3.7,6.1-9.1,9.4-13.7c7.5-10.5,14.9-22.2,22.4-32.7C431.1,307.4,431.4,306.8,430,307.5z"/>
		</g>
		<path class="st9" d="M380.3,355.8c0,0,10.7,0.7,14.4-1.6c4.4-2.7,43.7-54.2,43.7-54.2l0.3-40.2l-23.4-21.7l-1.3,3.8l-46.9,54
			L337,324.6l35.9,20L380.3,355.8z"/>
		<path class="st7" d="M429.6,298.9c-1.2,1.4,0.7,21.7-25.7,24.5c-22.3,2.4-68.7-0.1-82.7-0.9c-3.6-0.2-6.5-3.2-6.2-6.7
			c0.1-1.4,0.7-2.9,2.2-4.1c5-4,10.1-2.8,13.2-11.1c3.1-8.3,1.7-11.4,7.1-14.6c7.6-4.6,26.3,3.9,26.3,3.9
			c4.7-7.1,7.2-13.4,13.8-21.8c5.3-6.9,12.6-16.2,18.4-19.6c1.4-0.8,9.2-4,10.8-4.3l3.6-0.6l2.4-3.2c3.6,3.6,16.9,15.9,19.2,20.1
			l2.7,15.6L429.6,298.9z"/>
		<g>
			<path class="st2" d="M491.6,314.7c-17.5-1.2-35.7-2.4-57.3-7l-1.3,2.9c12.5,7.8,21.1,8.1,30.5,8.7c9.5,0.7,18.2-0.8,27.4-0.8
				C490.9,318.6,492,316.8,491.6,314.7z"/>
		</g>
		<g>
			<path class="st2" d="M395,273.8l-7.1,0.4c2.9,9.6,7.7,12.9,15.8,18.8c8.1,6,9.4,7.7,18.6,11.8c0.9,0.4,7.8,4.7,8,3.8
				C414.6,299,405.5,289,395,273.8z"/>
		</g>
		<path class="st7" d="M388,267.5c-2.6,7.2,2.1,10.5,2.1,10.5s38,34.5,53.3,36.2c15.3,1.7,55.6-0.4,55.6-0.4v-18.7l-49-5.3
			c0,0-19.7-23.2-30.6-34.9"/>
		<path class="st2" d="M419.4,255c0,0,0.2,0.2,0.6,0.6c0.4,0.4,1,1,1.7,1.8c1.5,1.6,3.6,3.9,6.3,6.9c5.4,6,13,14.7,22.3,25.5
			l-0.1-0.1c13.9,1.5,30.7,3.3,49,5.2l0.3,0v0.3c0,6,0,12.3,0,18.7v0.3l-0.3,0c-2.8,0.1-5.8,0.3-8.8,0.4
			c-12.4,0.5-24.5,0.8-35.8,0.6c-1.4,0-2.8-0.1-4.2-0.1c-1.4-0.1-2.8-0.1-4.1-0.2c-1.4-0.1-2.7-0.2-4.1-0.5c-0.7-0.2-1.3-0.3-2-0.5
			c-0.6-0.2-1.3-0.4-1.9-0.7c-4.9-2-9.3-4.7-13.3-7.3c-8.1-5.3-14.9-10.8-20.7-15.5c-5.8-4.8-10.5-8.9-14.1-12.1l0,0
			c-1.5-1.2-2.2-2.8-2.6-4.2c-0.3-1.4-0.3-2.6-0.2-3.6c0.1-1,0.3-1.7,0.5-2.1c0.2-0.5,0.2-0.7,0.2-0.7s-0.1,0.2-0.2,0.7
			c-0.1,0.5-0.3,1.2-0.4,2.1c-0.1,0.9-0.1,2.2,0.2,3.5c0.4,1.3,1.1,2.9,2.6,4l0,0c3.6,3.2,8.3,7.3,14.2,12
			c5.8,4.7,12.7,10.1,20.8,15.4c4,2.6,8.4,5.3,13.3,7.2c0.6,0.3,1.2,0.4,1.9,0.7c0.6,0.2,1.3,0.4,1.9,0.5c1.3,0.3,2.6,0.3,4,0.5
			c1.4,0.1,2.7,0.2,4.1,0.2c1.4,0,2.8,0.1,4.2,0.1c11.3,0.2,23.3-0.1,35.7-0.6c3-0.1,6-0.3,8.8-0.4l-0.3,0.3c0-6.4,0-12.7,0-18.7
			l0.3,0.3c-18.3-2-35.1-3.8-49-5.3l-0.1,0l-0.1-0.1c-9.2-10.8-16.8-19.6-22.1-25.6c-2.7-3-4.7-5.3-6.2-6.9
			c-0.7-0.8-1.2-1.4-1.6-1.8C419.6,255.2,419.4,255,419.4,255z"/>
		<path class="st2" d="M433.1,310.4c0,0-0.3,0.6-1,1.7c-0.7,1.2-1.7,2.7-3,4.5c-2.5,3.8-5.8,9.2-9.5,15.1c-3.7,5.9-7,11.2-9.5,15.1
			c-1.2,1.9-2.2,3.5-3,4.5c-0.7,1-1.1,1.6-1.2,1.6c0,0,0.3-0.6,1-1.7c0.7-1.2,1.7-2.7,2.8-4.6c2.4-4,5.7-9.3,9.3-15.2
			c3.7-5.9,7.1-11.2,9.6-15c1.3-1.9,2.3-3.4,3.1-4.4C432.7,310.9,433.1,310.3,433.1,310.4z"/>
		<path class="st11" d="M546.9,305.8l-46,7c-0.9,0.1-1.7-0.5-1.8-1.4l-0.1-0.5c-0.1-0.9,0.5-1.7,1.4-1.8l48.7-7.2l-0.6,2.3
			C548.3,305.1,547.7,305.7,546.9,305.8z"/>
		<path class="st2" d="M546.9,305.8c0,0,0.5,0,1-0.6c0.3-0.3,0.5-0.7,0.6-1.3c0.1-0.6,0.3-1.2,0.5-2l0.1,0.1
			c-8.1,1.3-26.4,4.1-47.7,7.2c-0.4,0.1-1,0.1-1.3,0.2c-0.3,0.1-0.6,0.4-0.7,0.8c-0.1,0.2-0.1,0.4-0.1,0.5c0,0.2,0.1,0.4,0.1,0.6
			c0.1,0.4,0.3,0.7,0.6,0.9c0.3,0.2,0.7,0.2,1.1,0.1l1.3-0.2c0.9-0.1,1.7-0.3,2.6-0.4c3.4-0.5,6.7-1,9.8-1.5
			c6.3-0.9,11.9-1.8,16.7-2.5c4.7-0.7,8.5-1.2,11.2-1.6c1.3-0.2,2.3-0.3,3.1-0.4c0.3,0,0.6-0.1,0.8-0.1
			C546.8,305.8,546.9,305.8,546.9,305.8c0,0-0.1,0-0.3,0.1c-0.2,0-0.5,0.1-0.8,0.1c-0.7,0.1-1.8,0.3-3,0.5c-2.7,0.4-6.5,1-11.2,1.8
			c-4.8,0.7-10.4,1.6-16.7,2.6c-3.1,0.5-6.4,1-9.8,1.5c-0.8,0.1-1.7,0.3-2.6,0.4l-1.3,0.2c-0.4,0.1-1,0.1-1.5-0.2
			c-0.4-0.3-0.8-0.7-0.9-1.3c0-0.3-0.1-0.4-0.1-0.7c0-0.3,0-0.5,0.1-0.8c0.2-0.5,0.6-0.9,1.1-1.1c0.5-0.2,0.9-0.2,1.4-0.3
			c21.3-3.1,39.6-5.8,47.8-6.9l0.2,0l0,0.2c-0.2,0.7-0.4,1.4-0.5,2c-0.1,0.6-0.4,1.1-0.7,1.3c-0.3,0.3-0.6,0.4-0.8,0.5
			C547,305.8,546.9,305.8,546.9,305.8z"/>
		<path class="st11" d="M545.6,302.4l13.8-46.3c0.3-0.9,1.2-1.4,2-1.1l0.4,0.1c0.9,0.3,1.4,1.2,1.1,2l-14.5,47.5L545.6,302.4z"/>
		<path class="st2" d="M545.6,302.4c0,0,0.1,0,0.2,0.1c0.1,0.1,0.3,0.2,0.5,0.4c0.5,0.4,1.2,0.9,2.1,1.6l-0.2,0.1
			c2.1-7.2,7.8-26,14.4-47.8c0-0.4-0.1-0.8-0.4-1c-0.2-0.3-0.6-0.4-1.1-0.5c-0.7-0.2-1.5,0.3-1.7,1.1c-0.5,1.7-1,3.4-1.5,5.1
			c-1,3.3-2,6.5-2.9,9.6c-1.8,6.1-3.5,11.6-4.9,16.3c-1.4,4.6-2.6,8.4-3.4,11c-0.4,1.3-0.7,2.3-0.9,3c-0.1,0.3-0.2,0.6-0.3,0.8
			C545.7,302.3,545.6,302.4,545.6,302.4s0-0.1,0.1-0.3c0.1-0.2,0.1-0.5,0.2-0.8c0.2-0.7,0.5-1.7,0.8-3c0.8-2.6,1.8-6.4,3.2-11
			c1.4-4.7,3-10.2,4.8-16.4c0.9-3.1,1.9-6.3,2.8-9.7c0.5-1.7,1-3.4,1.5-5.1c0.1-0.4,0.4-1,0.8-1.3c0.4-0.3,1-0.4,1.5-0.3
			c0.3,0.1,0.4,0.1,0.7,0.2c0.2,0.1,0.5,0.3,0.7,0.5c0.4,0.4,0.6,0.9,0.5,1.5c-0.1,0.4-0.2,0.7-0.3,1.1l-0.3,1
			c-0.2,0.7-0.4,1.4-0.6,2c-0.4,1.3-0.8,2.7-1.2,4c-0.8,2.6-1.6,5.2-2.3,7.6c-1.5,4.9-3,9.5-4.2,13.7c-2.6,8.2-4.6,14.6-5.7,18.3
			l0,0.1l-0.1-0.1c-0.9-0.7-1.6-1.3-2.1-1.7C545.8,302.6,545.6,302.4,545.6,302.4z"/>
		<path class="st2" d="M429.1,263.4c-0.1,0-0.9-1.2-2.4-3.2c-1.5-2-3.7-4.6-6.3-7.3c-2.6-2.7-5.1-5.1-6.9-6.8
			c-1.8-1.7-3-2.7-2.9-2.8c0,0,0.3,0.2,0.9,0.6c0.5,0.4,1.3,1.1,2.3,1.9c1.9,1.6,4.4,3.9,7.1,6.7c2.6,2.8,4.8,5.5,6.2,7.5
			c0.7,1,1.3,1.9,1.6,2.5C429,263,429.2,263.3,429.1,263.4z"/>
		<g>
			<path class="st2" d="M412.7,321.5c-3.3,0.9-29-0.9-41.9-5c-9.3-3-18.2-6.8-24.4-11.4c-8.2-6.1-12.1-12.7-12.1-12.7
				c-1.5-0.8-2.5,3.6-3.1,5.5c-0.6,1.8-1.8,6.7-5.2,8.9c-4.2,2.7-10.6,3.6-11.2,9.2c-0.4,3.5,2.8,6.4,6.3,6.5c11,0.5,41.4,2,49.5,2
				C380.6,324.4,401.9,324.9,412.7,321.5z"/>
		</g>
		<path class="st2" d="M416.8,319.5c0,0-0.2,0.2-0.7,0.6c-0.5,0.3-1.4,0.8-2.5,1.1c-2.3,0.6-5.7,0.9-9.9,0.6
			c-4.2-0.2-9.2-0.8-14.7-1.6c-5.5-0.8-11.5-1.8-17.8-3.5c-6.2-1.7-12-3.9-16.9-6.5c-4.9-2.6-9-5.6-12.1-8.5
			c-3.1-2.9-5.2-5.6-6.5-7.5c-0.7-1-1.2-1.7-1.4-2.3c-0.3-0.5-0.5-0.8-0.4-0.8c0,0,0.2,0.3,0.5,0.8c0.3,0.5,0.8,1.3,1.5,2.2
			c1.4,1.9,3.5,4.5,6.6,7.3c3.1,2.8,7.2,5.8,12,8.3c4.9,2.6,10.6,4.7,16.8,6.4c6.2,1.6,12.2,2.7,17.7,3.5c5.5,0.8,10.4,1.5,14.6,1.7
			c4.2,0.3,7.6,0.1,9.9-0.4c1.1-0.3,2-0.7,2.5-1C416.5,319.7,416.8,319.5,416.8,319.5z"/>
		<path class="st2" d="M422,313.2c-0.1,0.1-0.9-0.5-1.7-1.4c-0.8-0.9-1.4-1.7-1.3-1.8c0.1-0.1,0.9,0.5,1.7,1.4
			C421.5,312.3,422.1,313.1,422,313.2z"/>
		<path class="st2" d="M414.6,253.8c0,0.1-1.6-0.6-4.3-1c-2.6-0.4-6.5-0.5-10.3,0.9c-3.9,1.4-6.8,3.9-8.5,5.9
			c-1.8,2-2.5,3.6-2.6,3.5c0,0,0.1-0.4,0.5-1.1c0.4-0.7,0.9-1.6,1.8-2.7c1.7-2.1,4.7-4.8,8.7-6.2c4-1.5,7.9-1.4,10.6-0.8
			c1.4,0.3,2.4,0.6,3.1,0.9C414.2,253.6,414.6,253.8,414.6,253.8z"/>
		<path class="st2" d="M404.1,305.6c0,0-0.1,0.1-0.4,0.2c-0.3,0.1-0.7,0.3-1.3,0.4c-1.1,0.3-2.8,0.6-4.8,0.5c-2.1,0-4.5-0.4-7.1-1.3
			c-2.6-0.8-5.3-2.1-8-3.7c-2.7-1.6-5.1-3.3-7.3-4.8c-2.2-1.5-4.2-2.9-5.9-4s-3.2-1.9-4.2-2.4c-1-0.5-1.6-0.8-1.6-0.8
			c0,0,0.2,0,0.4,0.1c0.3,0.1,0.7,0.3,1.2,0.5c1,0.4,2.5,1.2,4.3,2.2c3.6,2,8.1,5.4,13.4,8.6c2.7,1.6,5.3,2.8,7.9,3.7
			c2.5,0.8,4.9,1.3,6.9,1.4C401.7,306.5,404.1,305.5,404.1,305.6z"/>
		<path class="st2" d="M414.6,319.6c0,0-0.3,0-0.9,0c-0.6,0-1.4-0.1-2.4-0.1c-1.1-0.1-2.3-0.1-3.8-0.3c-1.5-0.2-3.2-0.3-5.1-0.5
			c-1.9-0.2-3.9-0.5-6.1-0.9c-2.2-0.3-4.5-0.8-7-1.3c-4.9-1.1-10.2-2.5-15.7-4.4c-5.5-1.9-10.5-4.2-15-6.4c-2.2-1.2-4.3-2.3-6.2-3.5
			c-0.9-0.6-1.9-1.1-2.7-1.7c-0.8-0.6-1.7-1.1-2.4-1.7c-1.6-1-2.9-2.2-4.1-3.1c-0.6-0.5-1.2-0.9-1.6-1.3c-0.5-0.4-0.9-0.8-1.3-1.2
			c-0.8-0.7-1.4-1.2-1.8-1.6c-0.4-0.4-0.6-0.6-0.6-0.6c0,0,0.2,0.2,0.7,0.5c0.5,0.4,1.1,0.9,1.9,1.5c0.4,0.3,0.9,0.7,1.4,1.1
			c0.5,0.4,1.1,0.8,1.7,1.3c1.2,0.9,2.5,2,4.1,3c0.8,0.5,1.6,1.1,2.5,1.7c0.9,0.6,1.8,1.1,2.7,1.7c1.9,1.2,4,2.3,6.2,3.5
			c4.5,2.3,9.5,4.5,14.9,6.4c5.4,1.9,10.8,3.3,15.6,4.4c2.4,0.5,4.8,1,7,1.4c2.2,0.4,4.2,0.7,6.1,0.9c1.9,0.3,3.6,0.4,5.1,0.6
			c1.5,0.2,2.8,0.3,3.8,0.4c1,0.1,1.8,0.2,2.4,0.2C414.3,319.5,414.6,319.6,414.6,319.6z"/>
		<path class="st7" d="M401,496.4l-1.8,30.3l45.9,0.3c-0.2-4.4-23.9-13.3-23.9-13.3l0.7-16.4L401,496.4z"/>
		<path class="st11" d="M407,511.6c-0.9,0.2-1.5,1.2-1.3,2.1c0.2,0.9,1.2,1.5,2.1,1.3c0.9-0.2,1.7-1.4,1.4-2.3
			c-0.3-0.9-1.5-1.6-2.3-1.1"/>
		<path class="st2" d="M399.2,526.7l0-3.9l44.1,2c0,0,2,0.9,1.8,2.3L399.2,526.7z"/>
		<path class="st11" d="M421.9,513.5c0,0.2-1.1,0.3-2.2,1c-1.1,0.7-1.7,1.7-1.9,1.6c-0.2,0,0.1-1.4,1.5-2.2
			C420.6,513,421.9,513.2,421.9,513.5z"/>
		<path class="st11" d="M426.7,515.5c0,0.2-0.9,0.6-1.7,1.5c-0.8,0.9-1,1.9-1.2,1.9c-0.2,0-0.4-1.3,0.6-2.4
			C425.4,515.3,426.7,515.3,426.7,515.5z"/>
		<path class="st11" d="M429.4,521.2c-0.2,0-0.5-1.1,0.1-2.3c0.6-1.2,1.6-1.7,1.7-1.5c0.1,0.2-0.6,0.8-1,1.8
			C429.7,520.3,429.6,521.2,429.4,521.2z"/>
		<path class="st11" d="M421.5,508c-0.1,0.2-1.1-0.1-2.4,0c-1.3,0.1-2.3,0.5-2.4,0.3c-0.1-0.2,0.8-1,2.3-1
			C420.6,507.2,421.6,507.9,421.5,508z"/>
		<path class="st11" d="M420.5,502.6c0,0.1-0.9,0.2-2.3,0c-0.7-0.1-1.5-0.4-2.4-0.8c-0.4-0.2-0.9-0.4-1.3-0.7
			c-0.2-0.1-0.5-0.3-0.7-0.5c-0.2-0.2-0.4-0.8-0.1-1.2c0.2-0.3,0.6-0.5,1-0.5c0.3,0,0.6,0.1,0.9,0.1c0.5,0.1,1,0.3,1.4,0.5
			c0.9,0.4,1.6,0.9,2.1,1.4c1.1,1,1.4,1.8,1.3,1.9c-0.1,0.1-0.6-0.6-1.7-1.5c-0.5-0.4-1.2-0.8-2-1.2c-0.4-0.2-0.8-0.3-1.3-0.4
			c-0.5-0.1-0.9-0.1-1,0.1c0,0.1-0.1,0.1,0,0.3c0.1,0.1,0.3,0.3,0.5,0.4c0.4,0.3,0.8,0.5,1.2,0.7c0.8,0.4,1.6,0.7,2.2,0.9
			C419.6,502.4,420.5,502.5,420.5,502.6z"/>
		<path class="st11" d="M420.2,502.9c-0.1,0-0.5-0.8-0.6-2.2c0-0.7,0-1.6,0.3-2.5c0.1-0.5,0.3-0.9,0.6-1.4c0.3-0.4,0.6-1.1,1.5-1.2
			c0.5,0,0.8,0.3,1,0.6c0.1,0.3,0.2,0.6,0.2,0.8c0.1,0.5,0.1,1.1,0,1.5c-0.2,1-0.6,1.8-1,2.4c-0.9,1.2-1.8,1.4-1.9,1.4
			c-0.1-0.1,0.7-0.5,1.4-1.7c0.3-0.6,0.6-1.3,0.7-2.2c0-0.4,0-0.9,0-1.3c-0.1-0.5-0.2-0.9-0.4-0.8c-0.2,0-0.6,0.4-0.8,0.7
			c-0.2,0.4-0.4,0.8-0.6,1.2c-0.3,0.8-0.4,1.6-0.5,2.3C420.1,502,420.3,502.9,420.2,502.9z"/>
		<path class="st7" d="M245.1,424.1l-29.6-6.7l-7.8,45.2c4.4,0.5,17.1-21.4,17.1-21.4l16.1,3.4L245.1,424.1z"/>
		<path class="st11" d="M229.2,427.6c-0.1-0.9-1-1.7-1.9-1.6c-0.9,0.1-1.7,0.9-1.6,1.9c0.1,0.9,1.1,1.9,2,1.7
			c0.9-0.2,1.8-1.3,1.5-2.1"/>
		<path class="st2" d="M215.6,417.4l3.8,0.6l-9.1,43.2c0,0-1.2,1.9-2.6,1.4L215.6,417.4z"/>
		<path class="st11" d="M224.9,442c-0.2,0-0.1-1.2-0.6-2.4c-0.5-1.2-1.4-1.9-1.2-2.1c0.1-0.2,1.3,0.4,1.9,1.8
			C225.6,440.8,225.1,442.1,224.9,442z"/>
		<path class="st11" d="M222.2,446.4c-0.2,0-0.4-1-1.2-1.9c-0.8-0.9-1.8-1.3-1.7-1.5c0-0.2,1.3-0.1,2.3,1
			C222.5,445.1,222.4,446.4,222.2,446.4z"/>
		<path class="st11" d="M216,448.1c0-0.2,1.1-0.3,2.3,0.4c1.1,0.8,1.4,1.9,1.2,2c-0.2,0.1-0.7-0.7-1.7-1.3
			C216.9,448.5,216,448.3,216,448.1z"/>
		<path class="st11" d="M230.3,442.5c-0.2-0.1,0.3-1.1,0.4-2.3c0.2-1.3-0.1-2.3,0.1-2.4c0.2-0.1,0.8,1,0.7,2.5
			C231.4,441.7,230.5,442.6,230.3,442.5z"/>
		<path class="st11" d="M235.9,442.3c-0.1,0-0.1-0.9,0.4-2.3c0.2-0.7,0.6-1.5,1.1-2.2c0.3-0.4,0.6-0.8,0.9-1.2
			c0.2-0.2,0.3-0.4,0.6-0.6c0.3-0.2,0.9-0.2,1.2,0.1c0.3,0.3,0.4,0.7,0.3,1.1c0,0.3-0.2,0.6-0.3,0.8c-0.2,0.5-0.5,0.9-0.7,1.3
			c-0.5,0.8-1.2,1.4-1.7,1.9c-1.2,0.9-2,1.1-2.1,1c-0.1-0.1,0.7-0.5,1.7-1.4c0.5-0.5,1-1.1,1.5-1.8c0.2-0.4,0.4-0.8,0.6-1.2
			c0.2-0.5,0.3-0.9,0.1-1c-0.1-0.1-0.1-0.1-0.3,0c-0.1,0.1-0.3,0.3-0.5,0.4c-0.3,0.4-0.6,0.7-0.9,1.1c-0.5,0.7-0.9,1.4-1.2,2
			C236.2,441.5,236,442.4,235.9,442.3z"/>
		<path class="st11" d="M235.6,442c0-0.1,0.8-0.4,2.3-0.2c0.7,0.1,1.6,0.3,2.4,0.7c0.4,0.2,0.9,0.5,1.3,0.8c0.4,0.3,0.9,0.8,0.9,1.6
			c-0.1,0.4-0.5,0.8-0.8,0.8c-0.3,0.1-0.6,0.1-0.9,0.1c-0.5,0-1.1-0.1-1.5-0.3c-0.9-0.3-1.7-0.8-2.2-1.4c-1-1.1-1.1-2.1-1.1-2.1
			c0.1-0.1,0.4,0.8,1.4,1.7c0.5,0.4,1.2,0.8,2,1.1c0.4,0.1,0.9,0.2,1.3,0.2c0.5,0,0.9-0.1,0.9-0.3c0-0.2-0.3-0.7-0.6-0.9
			c-0.4-0.3-0.7-0.6-1.1-0.8c-0.8-0.4-1.5-0.7-2.2-0.8C236.5,442,235.6,442.1,235.6,442z"/>
		<path class="st7" d="M332.5,328.4c-1.6,2.6-18.6,11.5-18.2,38.1l-11.1,58.1l-66.2-6.2l-6.1,26.6l84,13.8c0,0,11.9,2.9,18.8-11
			c7-13.9,25.5-64.5,26-65.7c0.4-1.2,11.9-31.1,11.9-31.1L332.5,328.4z"/>
		<path class="st7" d="M333.1,378.3c17.4,12.5,68.1,44.8,68.1,44.8l1.3,5.3l-4.5,78.8l28.7,0.6c0,0,8.4-77.4,8.6-85.4
			c0.3-8-0.6-19-10.9-27.8c-10.1-8.8-53.7-46.4-53.7-46.4"/>
		<path class="st10" d="M333.1,378.3c17.4,12.5,68.1,44.8,68.1,44.8l1.3,5.3l-4.5,78.8l28.7,0.6c0,0,8.4-77.4,8.6-85.4
			c0.3-8-0.6-19-10.9-27.8c-10.1-8.8-53.7-46.4-53.7-46.4"/>
		<path class="st7" d="M332.5,328.4l3.9-5.1c0,0,16.8,6.8,27.7,14.7c6.9,5,17.1,11.6,16.2,18.7"/>
		<path class="st10" d="M332.5,328.4l3.9-5.1c0,0,16.8,6.8,27.7,14.7c6.9,5,17.1,11.6,16.2,18.7"/>
		<path class="st2" d="M401.2,423.1c0,0-0.1,0-0.3-0.2c-0.2-0.1-0.5-0.3-0.8-0.5c-0.8-0.5-1.8-1.1-3.2-2c-2.8-1.8-6.7-4.3-11.6-7.4
			c-9.7-6.3-23.2-14.9-37.9-24.7c-3.7-2.4-7.2-5-10.6-7.3c-3.4-2.4-6.7-4.8-9.4-7.5c-2.8-2.7-5-5.7-6.2-8.9
			c-1.3-3.2-1.6-6.4-1.6-9.3c0-5.9,1.7-10.4,3.2-13.3c0.8-1.4,1.5-2.5,2-3.1c0.3-0.3,0.5-0.6,0.6-0.7c0.1-0.2,0.2-0.2,0.2-0.2
			c0,0-0.1,0.1-0.2,0.3c-0.1,0.2-0.3,0.5-0.6,0.8c-0.5,0.7-1.2,1.7-1.9,3.2c-1.4,2.9-3,7.4-3,13.2c0,2.9,0.4,6,1.7,9.2
			c1.2,3.1,3.4,6.1,6.2,8.7c2.7,2.7,6,5,9.4,7.4c3.5,2.3,6.9,4.9,10.6,7.3c14.7,9.8,28.1,18.5,37.8,24.8c4.8,3.2,8.7,5.7,11.5,7.5
			c1.3,0.9,2.4,1.6,3.1,2.1c0.3,0.2,0.6,0.4,0.8,0.5C401.1,423.1,401.2,423.1,401.2,423.1z"/>
		<path class="st2" d="M403.8,376.7c0,0-0.2-0.1-0.5-0.3c-0.4-0.3-0.8-0.6-1.4-1.1c-1.2-1-2.9-2.4-4.9-4.1c-4.2-3.6-9.8-8.4-16-13.7
			c-6.1-5.6-12.2-9.8-16.7-12.7c-2.2-1.5-4.1-2.6-5.4-3.5c-0.6-0.4-1.1-0.7-1.5-0.9c-0.3-0.2-0.5-0.3-0.5-0.4c0,0,0.2,0.1,0.5,0.3
			c0.3,0.2,0.9,0.5,1.5,0.8c1.3,0.7,3.2,1.9,5.5,3.3c4.6,2.9,10.8,7.1,16.9,12.6c6.2,5.4,11.8,10.2,15.9,13.8c2,1.7,3.6,3.2,4.8,4.2
			c0.5,0.5,0.9,0.9,1.3,1.2C403.7,376.5,403.8,376.7,403.8,376.7z"/>
		<path class="st2" d="M313.4,441.2c-0.1,0.1-2.6-3.5-5.4-7.9c-2.9-4.5-5.1-8.2-4.9-8.3c0.1-0.1,2.6,3.5,5.4,7.9
			C311.3,437.4,313.5,441.1,313.4,441.2z"/>
		<path class="st2" d="M318.1,436.1c-0.1,0.1-3.2-2.2-6.8-5.2c-3.7-3-6.5-5.5-6.4-5.6c0.1-0.1,3.2,2.2,6.8,5.2
			C315.3,433.4,318.2,435.9,318.1,436.1z"/>
		<path class="st2" d="M415.2,418c0,0.2-3.3,1.1-7.4,2.4c-4.1,1.3-7.4,2.5-7.4,2.3c0-0.1,0.8-0.5,2.1-1c1.3-0.5,3.1-1.2,5.2-1.9
			c2.1-0.7,3.9-1.2,5.3-1.5C414.3,418.1,415.2,417.9,415.2,418z"/>
		<path class="st2" d="M417,427.4c0,0.2-3.2,0.3-7.1,0.5c-3.9,0.2-7.1,0.6-7.1,0.4c0-0.2,3.1-0.7,7-1
			C413.8,427.1,417,427.3,417,427.4z"/>
		<path class="st11" d="M223.7,504.2c11.6-12,24.6-18.5,41.3-19.9c-3.9-6.1-10.9-18-14.8-24.1c-20.9,0.1-37.1,11.9-48.1,29.4
			C209.8,495.1,216,498.7,223.7,504.2z"/>
		<path class="st2" d="M223.7,504.2c0,0-0.1-0.1-0.4-0.2c-0.3-0.2-0.7-0.4-1.1-0.8c-1-0.7-2.5-1.7-4.3-2.9
			c-3.8-2.5-9.4-5.9-15.9-10.6l-0.2-0.1l0.1-0.2c1.9-3,4.1-6.1,6.7-9.3c2.7-3.1,5.8-6.2,9.4-9c3.6-2.8,7.7-5.3,12.3-7.3
			c4.6-1.9,9.6-3.2,14.8-3.7c0.8-0.1,1.7-0.2,2.5-0.2c0.8,0,1.7-0.1,2.5-0.1l0.2,0l0.1,0.1c5.4,8.5,10.2,16.8,14.8,24.1l0.2,0.4
			l-0.4,0c-6.9,0.6-13.1,2.1-18.4,4.2c-5.3,2.1-9.6,4.7-12.9,7.1c-3.4,2.4-5.8,4.6-7.4,6.1c-0.8,0.8-1.4,1.3-1.9,1.8
			c-0.2,0.2-0.3,0.3-0.5,0.4C223.8,504.2,223.7,504.2,223.7,504.2c0,0,0.1-0.1,0.2-0.2c0.1-0.1,0.3-0.3,0.5-0.5c0.4-0.4,1-1,1.8-1.8
			c1.6-1.5,4-3.8,7.4-6.2c3.3-2.4,7.6-5.1,13-7.2c5.3-2.2,11.6-3.7,18.5-4.3l-0.2,0.4c-4.7-7.3-9.5-15.6-14.8-24.1l0.2,0.1
			c-0.8,0-1.6,0.1-2.5,0.1c-0.8,0-1.6,0.1-2.5,0.2c-5.2,0.5-10.1,1.8-14.7,3.7c-4.5,1.9-8.6,4.4-12.2,7.2c-3.6,2.8-6.7,5.9-9.4,8.9
			c-2.6,3.1-4.8,6.2-6.8,9.2l-0.1-0.3c6.5,4.7,12.1,8.2,15.8,10.7c1.9,1.3,3.3,2.3,4.3,3c0.4,0.3,0.8,0.6,1.1,0.8
			C223.6,504.1,223.7,504.2,223.7,504.2z"/>
		<path class="st2" d="M211.6,485c0.1-0.1,3.5,2.3,7.5,5.4c4.1,3.1,7.3,5.7,7.2,5.8c-0.1,0.1-3.5-2.3-7.5-5.4
			C214.8,487.8,211.5,485.2,211.6,485z"/>
		<path class="st2" d="M215.9,479.6c0.1-0.1,3.3,2.6,7,6c3.8,3.4,6.7,6.3,6.6,6.4c-0.1,0.1-3.3-2.6-7-6
			C218.8,482.6,215.8,479.7,215.9,479.6z"/>
		<path class="st2" d="M222.3,474.6c0.1-0.1,0.8,0.7,1.9,1.9c1.1,1.2,2.7,2.9,4.4,4.7c1.7,1.8,3.3,3.5,4.4,4.8
			c1.1,1.3,1.6,2.1,1.6,2.2c-0.1,0.1-0.8-0.7-1.9-1.9c-1.3-1.4-2.8-2.9-4.5-4.7c-1.7-1.8-3.3-3.6-4.3-4.8
			C222.8,475.4,222.2,474.6,222.3,474.6z"/>
		<path class="st2" d="M240,486.2c-0.1,0-0.8-0.7-1.8-2c-1.1-1.3-2.4-3.1-3.8-5.2c-1.4-2.1-2.6-4.1-3.4-5.5
			c-0.8-1.4-1.3-2.3-1.2-2.4c0.2-0.1,2.4,3.3,5.1,7.5c1.4,2.1,2.7,3.9,3.7,5.3C239.4,485.3,240,486.1,240,486.2z"/>
		<path class="st2" d="M245,484.1c-0.1,0-0.7-0.7-1.5-1.9c-0.9-1.2-2-3-3.1-5c-1.1-2-2-3.9-2.7-5.3c-0.6-1.4-0.9-2.3-0.8-2.3
			c0.2-0.1,1.8,3.3,4,7.3C243.1,480.9,245.1,484,245,484.1z"/>
		<path class="st2" d="M251.7,481.9c-0.1,0-0.7-0.7-1.6-2c-0.9-1.3-2.1-3-3.3-5.1c-1.2-2-2.3-3.9-3-5.2c-0.7-1.4-1.1-2.2-1-2.3
			c0.1,0,0.6,0.8,1.4,2.1c0.9,1.5,2,3.2,3.1,5.1c1.2,1.9,2.2,3.6,3.1,5.1C251.3,481,251.8,481.9,251.7,481.9z"/>
		<path class="st8" d="M315.5,363c-18.2,0.4-33.3-4.5-47.3-16.1c-1.6,7.8-5.4,22.3-7,30.1c16.3,15.9,37.9,19.2,59.9,14
			C319.3,380.7,317.2,373.2,315.5,363z"/>
		<path class="st2" d="M315.5,363c0,0,0,0.2,0.1,0.5c0.1,0.4,0.2,0.8,0.3,1.5c0.3,1.3,0.6,3.2,1.1,5.6c1,4.8,2.7,11.7,4.3,20.4
			l0,0.2l-0.2,0c-3.8,0.9-7.9,1.6-12.3,2c-4.5,0.4-9.3,0.4-14.2-0.2c-5-0.6-10.1-1.8-15.1-3.8c-5-2-9.9-4.9-14.4-8.5
			c-0.7-0.5-1.4-1.2-2.1-1.8c-0.7-0.6-1.3-1.2-2-1.8l-0.1-0.1l0-0.2c2.4-10.8,5-20.9,7-30.1l0.1-0.4l0.3,0.3
			c5.8,4.8,11.8,8.5,17.5,10.8c5.7,2.5,11,3.7,15.5,4.4c4.4,0.7,8,0.9,10.4,1c1.2,0,2.1,0,2.8,0.1c0.3,0,0.5,0,0.7,0
			C315.4,363,315.5,363,315.5,363c0,0-0.1,0-0.3,0c-0.2,0-0.4,0-0.7,0c-0.6,0-1.6,0.1-2.8,0c-2.4,0-6-0.2-10.5-0.8
			c-4.5-0.7-9.8-1.9-15.6-4.3c-5.8-2.4-11.8-6-17.7-10.8l0.4-0.1c-2,9.2-4.6,19.4-7,30.1l-0.1-0.3c0.7,0.6,1.3,1.2,2,1.8
			c0.7,0.6,1.3,1.2,2.1,1.8c4.4,3.6,9.2,6.4,14.2,8.4c5,2,10.1,3.2,15,3.8c4.9,0.6,9.7,0.6,14.1,0.2c4.4-0.4,8.5-1.1,12.3-2
			l-0.2,0.2c-1.5-8.7-3.2-15.6-4.1-20.5c-0.5-2.4-0.8-4.3-1-5.6c-0.1-0.6-0.2-1.1-0.2-1.5C315.5,363.2,315.5,363,315.5,363z"/>
		<path class="st2" d="M310.1,387.1c-0.2,0-0.9-4.4-1.7-9.9c-0.8-5.5-1.3-10-1.1-10c0.2,0,0.9,4.4,1.7,9.9
			C309.8,382.6,310.3,387.1,310.1,387.1z"/>
		<path class="st2" d="M302.7,388.1c-0.2,0-0.5-4.5-0.8-10.1c-0.3-5.6-0.4-10.1-0.2-10.1c0.2,0,0.5,4.5,0.8,10.1
			C302.7,383.5,302.8,388.1,302.7,388.1z"/>
		<path class="st2" d="M293.8,387.1c-0.1,0,0-1.1,0-2.9c0.1-1.8,0.1-4.3,0.2-7c0-2.8,0.1-5.3,0.3-7.1c0.2-1.8,0.3-2.9,0.4-2.9
			c0.1,0,0,1.1,0,2.9c0,2-0.1,4.4-0.1,7c0,2.8-0.2,5.3-0.4,7.1C294.1,386,293.9,387.1,293.8,387.1z"/>
		<path class="st2" d="M289,364.5c0.1,0,0.1,1.1-0.1,2.9c-0.2,1.8-0.5,4.3-1,7c-0.5,2.7-1.1,5.1-1.5,6.9c-0.4,1.7-0.7,2.8-0.8,2.8
			c-0.1,0,0.1-1.1,0.4-2.9c0.4-2,0.9-4.3,1.4-6.9c0.5-2.7,0.9-5.1,1.2-6.9S288.9,364.5,289,364.5z"/>
		<path class="st2" d="M283.5,362.3c0.1,0,0,1-0.3,2.7c-0.3,1.6-0.8,3.9-1.4,6.3c-0.7,2.4-1.4,4.6-2,6.1c-0.6,1.5-1,2.5-1.1,2.4
			c-0.1,0,0.2-1,0.7-2.6c0.5-1.6,1.1-3.8,1.8-6.2c0.7-2.4,1.2-4.6,1.6-6.2C283.2,363.3,283.4,362.3,283.5,362.3z"/>
		<path class="st2" d="M276.6,358.9c0.1,0,0,1-0.3,2.7c-0.3,1.7-0.7,3.9-1.3,6.4c-0.6,2.5-1.2,4.7-1.7,6.4c-0.5,1.6-0.9,2.6-0.9,2.6
			c-0.1,0,0.1-1,0.5-2.7c0.4-1.8,1-4,1.5-6.4c0.6-2.4,1.1-4.5,1.5-6.4C276.3,359.9,276.6,358.9,276.6,358.9z"/>
		<path class="st12" d="M344.1,457.9c-9.9,13.7-21.9,22.2-38.4,26.1c4.8,5.5,13.6,16.4,18.4,22c20.9-3.2,35.4-17.4,43.8-36.6
			C359.4,464.9,352.7,462.3,344.1,457.9z"/>
		<path class="st2" d="M344.1,457.9c0,0,0.1,0.1,0.4,0.2c0.3,0.1,0.7,0.3,1.3,0.6c1.1,0.5,2.7,1.3,4.8,2.3c4.1,2,10.2,4.5,17.5,8.2
			l0.2,0.1l-0.1,0.2c-1.5,3.3-3.2,6.8-5.4,10.3c-2.2,3.5-4.9,7.1-8.1,10.5c-3.2,3.4-7,6.5-11.3,9.1c-4.3,2.6-9.2,4.6-14.3,5.9
			c-0.8,0.2-1.6,0.4-2.5,0.5c-0.8,0.2-1.7,0.3-2.5,0.5l-0.2,0l-0.1-0.1c-6.7-7.8-12.7-15.4-18.4-22l-0.3-0.3l0.4-0.1
			c6.8-1.6,12.9-4,17.8-6.9c5-2.8,8.9-6.1,11.9-9c3-2.9,5.1-5.4,6.5-7.2c0.7-0.9,1.2-1.6,1.6-2c0.2-0.2,0.3-0.4,0.4-0.5
			C344.1,457.9,344.1,457.9,344.1,457.9c0,0,0,0.1-0.1,0.2c-0.1,0.1-0.2,0.3-0.4,0.5c-0.3,0.5-0.8,1.2-1.5,2.1
			c-1.4,1.8-3.5,4.4-6.5,7.3c-3,2.9-6.9,6.2-11.9,9.1c-5,3-11.1,5.4-17.9,7.1l0.1-0.4c5.8,6.6,11.8,14.2,18.5,22l-0.3-0.1
			c0.8-0.2,1.6-0.3,2.4-0.5c0.8-0.1,1.6-0.3,2.4-0.5c5.1-1.3,9.9-3.3,14.2-5.9c4.3-2.6,8-5.7,11.2-9c3.2-3.3,5.8-6.9,8-10.3
			c2.2-3.5,3.9-7,5.4-10.2l0.1,0.3c-7.3-3.8-13.3-6.4-17.5-8.4c-2.1-1-3.6-1.8-4.7-2.4c-0.5-0.3-0.9-0.5-1.2-0.6
			C344.2,458,344.1,457.9,344.1,457.9z"/>
		<path class="st2" d="M359,475.3c-0.1,0.1-3.8-1.8-8.3-4.3c-4.5-2.5-8.1-4.6-8.1-4.8c0.1-0.1,3.8,1.8,8.3,4.3
			C355.5,473,359.1,475.2,359,475.3z"/>
		<path class="st2" d="M355.6,481.4c-0.1,0.1-3.6-2.1-7.9-5c-4.3-2.9-7.7-5.3-7.6-5.5c0.1-0.1,3.6,2.1,7.9,5
			C352.2,478.8,355.7,481.2,355.6,481.4z"/>
		<path class="st2" d="M349.9,487.4c-0.1,0.1-0.9-0.6-2.2-1.6c-1.3-1-3.1-2.5-5.1-4.1c-2-1.6-3.8-3-5.1-4.2c-1.3-1.1-2-1.9-1.9-1.9
			c0.1-0.1,0.9,0.6,2.2,1.6c1.5,1.2,3.2,2.5,5.2,4c2,1.6,3.8,3.1,5,4.2C349.3,486.6,350,487.3,349.9,487.4z"/>
		<path class="st2" d="M330.5,478.3c0-0.1,0.9,0.6,2.1,1.7c1.3,1.1,2.9,2.7,4.6,4.6c1.7,1.9,3.2,3.7,4.2,5c1,1.3,1.7,2.1,1.6,2.2
			c-0.1,0.1-2.9-3-6.3-6.8c-1.7-1.9-3.3-3.5-4.5-4.7C331.2,479.2,330.4,478.4,330.5,478.3z"/>
		<path class="st2" d="M325.8,481.2c0.1-0.1,0.8,0.6,1.8,1.7c1,1.1,2.4,2.7,3.9,4.6c1.4,1.9,2.6,3.6,3.5,4.9
			c0.8,1.3,1.3,2.1,1.2,2.2c-0.1,0.1-2.3-3-5.1-6.7C328.2,484.2,325.6,481.3,325.8,481.2z"/>
		<path class="st2" d="M319.4,484.4c0.1-0.1,0.8,0.6,1.8,1.7c1.1,1.1,2.5,2.7,4.1,4.6c1.5,1.8,2.9,3.6,3.8,4.8
			c0.9,1.3,1.4,2.1,1.4,2.1c-0.1,0-0.7-0.7-1.7-1.9c-1.1-1.4-2.4-2.9-3.9-4.7c-1.5-1.7-2.8-3.3-3.9-4.7
			C319.9,485.2,319.3,484.4,319.4,484.4z"/>
		<path class="st8" d="M461.2,458.4c13.8-9.7,28-13.7,44.8-12c-2.7-6.8-7.4-20-10.2-26.8c-20.8-3.8-39.1,4.8-53.4,20.1
			C449.1,446.8,454.6,451.5,461.2,458.4z"/>
		<path class="st2" d="M461.2,458.4c0,0-0.1-0.1-0.3-0.3c-0.2-0.2-0.6-0.6-1-1c-0.9-0.9-2.1-2.1-3.8-3.7c-3.3-3.2-8.2-7.6-13.8-13.5
			l-0.1-0.1l0.1-0.1c2.4-2.6,5.2-5.3,8.4-8c3.2-2.6,6.9-5.1,11-7.2s8.7-3.9,13.6-4.9c4.9-1,10.2-1.4,15.4-0.9c0.8,0,1.7,0.2,2.5,0.3
			c0.8,0.1,1.7,0.2,2.5,0.4l0.2,0l0.1,0.2c3.8,9.5,6.9,18.7,10.1,26.8l0.2,0.4l-0.4,0c-7-0.7-13.5-0.4-19.1,0.7
			c-5.7,1.1-10.4,2.8-14.2,4.6c-3.8,1.7-6.6,3.5-8.5,4.6c-0.9,0.6-1.7,1.1-2.2,1.4c-0.2,0.1-0.4,0.3-0.6,0.3
			C461.3,458.4,461.2,458.5,461.2,458.4c0,0,0.1-0.1,0.2-0.1c0.1-0.1,0.3-0.2,0.5-0.4c0.5-0.3,1.2-0.8,2.1-1.5
			c1.9-1.2,4.7-3,8.5-4.8c3.8-1.8,8.5-3.6,14.2-4.7c5.7-1.2,12.2-1.5,19.2-0.8l-0.3,0.4c-3.3-8.1-6.4-17.3-10.2-26.8l0.2,0.2
			c-0.8-0.1-1.6-0.2-2.5-0.4c-0.8-0.1-1.7-0.2-2.5-0.3c-5.2-0.5-10.4-0.2-15.3,0.9c-4.9,1-9.4,2.7-13.5,4.8c-4.1,2.1-7.7,4.6-11,7.1
			c-3.2,2.6-6,5.3-8.4,7.9v-0.3c5.6,5.9,10.5,10.4,13.7,13.7c1.6,1.6,2.9,2.9,3.7,3.8c0.4,0.4,0.7,0.8,0.9,1
			C461.1,458.3,461.2,458.4,461.2,458.4z"/>
		<path class="st2" d="M452.9,437.1c0.1-0.1,3,2.9,6.5,6.8c3.5,3.8,6.2,7,6,7.1c-0.1,0.1-3-2.9-6.5-6.8
			C455.4,440.4,452.7,437.2,452.9,437.1z"/>
		<path class="st2" d="M458.1,432.5c0.1-0.1,2.7,3.2,5.8,7.3c3.1,4.1,5.5,7.6,5.4,7.6c-0.1,0.1-2.7-3.2-5.8-7.3
			C460.4,436,458,432.6,458.1,432.5z"/>
		<path class="st2" d="M465.4,428.7c0.1,0,0.6,0.8,1.5,2.3s2.1,3.4,3.5,5.5c1.4,2.1,2.6,4.1,3.4,5.6c0.8,1.5,1.2,2.4,1.2,2.5
			c-0.1,0-0.6-0.8-1.5-2.2c-1-1.6-2.2-3.4-3.6-5.5c-1.4-2.1-2.6-4.1-3.4-5.6C465.8,429.7,465.4,428.7,465.4,428.7z"/>
		<path class="st2" d="M480.8,443.6c-0.1,0-0.6-0.8-1.5-2.3c-0.8-1.5-1.8-3.5-2.8-5.9c-1-2.3-1.8-4.5-2.3-6.1
			c-0.6-1.6-0.9-2.6-0.8-2.6c0.2-0.1,1.7,3.8,3.7,8.4c1,2.3,1.9,4.4,2.7,5.9C480.4,442.6,480.9,443.6,480.8,443.6z"/>
		<path class="st2" d="M486.2,442.5c-0.1,0-0.5-0.8-1.1-2.2c-0.6-1.4-1.4-3.4-2.1-5.6c-0.7-2.2-1.3-4.3-1.6-5.8
			c-0.3-1.5-0.5-2.4-0.4-2.4c0.2,0,1.1,3.6,2.6,8C484.9,438.9,486.3,442.4,486.2,442.5z"/>
		<path class="st2" d="M493.3,441.6c-0.1,0-0.5-0.8-1.2-2.2c-0.6-1.4-1.5-3.4-2.3-5.7c-0.8-2.2-1.5-4.3-2-5.8
			c-0.4-1.5-0.7-2.4-0.6-2.5c0.1,0,0.4,0.9,1,2.3c0.6,1.7,1.3,3.6,2.1,5.7c0.8,2.1,1.5,4,2.2,5.7C493,440.6,493.3,441.5,493.3,441.6
			z"/>
		<path class="st8" d="M344.4,441.5c5.9,4.4,14,4.5,21,2.1c6.9-2.3,12.9-6.8,18.8-11c5.9-4.3,12.1-8.6,19.1-10.5l-16.4-32.9
			c0,0-15.8,6.2-26.3,18.1c-8.5,9.6-27.9,5.3-27.9,5.3L344.4,441.5z"/>
		<path class="st2" d="M344.4,441.5c0,0-0.1-0.2-0.2-0.5c-0.2-0.4-0.4-0.8-0.6-1.5c-0.6-1.3-1.4-3.3-2.4-5.7c-2.1-5-5-12.3-8.7-21.2
			l-0.1-0.4l0.4,0.1c3.9,0.8,8.3,1.1,13,0.8c2.3-0.2,4.7-0.6,7-1.3c2.3-0.7,4.6-1.9,6.5-3.7c0.9-0.9,1.8-1.8,2.7-2.8
			c0.9-1,1.9-1.9,2.9-2.8c2-1.8,4.2-3.5,6.5-5.2c4.7-3.2,9.8-6.2,15.3-8.5l0.2-0.1l0.1,0.2c0.7,1.4,1.4,2.8,2.1,4.3
			c5,10.1,9.9,19.8,14.3,28.7l0.1,0.3l-0.3,0.1c-4.6,1.3-8.7,3.5-12.4,5.9c-3.7,2.4-7.1,4.9-10.3,7.2c-3.3,2.3-6.4,4.4-9.5,5.9
			c-3.1,1.6-6.2,2.7-9,3.3c-2.9,0.6-5.5,0.7-7.8,0.5c-2.3-0.2-4.2-0.7-5.7-1.3c-1.5-0.6-2.5-1.2-3.2-1.7c-0.3-0.2-0.6-0.4-0.8-0.5
			C344.4,441.5,344.4,441.5,344.4,441.5c0.1-0.1,1.3,1.1,4.3,2.2c1.5,0.5,3.4,1,5.6,1.2c2.3,0.2,4.9,0.1,7.7-0.6
			c2.8-0.6,5.8-1.7,8.9-3.3c3.1-1.6,6.2-3.7,9.4-6c3.2-2.3,6.6-4.9,10.3-7.3c3.7-2.4,7.9-4.6,12.5-6l-0.2,0.4
			c-4.4-8.9-9.3-18.5-14.3-28.6c-0.7-1.5-1.5-2.9-2.1-4.3l0.4,0.1c-5.5,2.3-10.6,5.2-15.2,8.4c-2.3,1.6-4.5,3.3-6.5,5.1
			c-1,0.9-2,1.8-2.9,2.8c-0.9,1-1.8,1.9-2.8,2.8c-2,1.8-4.3,3-6.7,3.7c-2.4,0.7-4.8,1.1-7.2,1.3c-4.7,0.3-9.1-0.1-13.1-0.9l0.2-0.3
			c3.6,8.9,6.5,16.2,8.5,21.2c1,2.5,1.7,4.4,2.3,5.8c0.2,0.6,0.4,1.1,0.6,1.5C344.3,441.3,344.4,441.5,344.4,441.5z"/>
		<path class="st2" d="M354.3,439.4c-0.1,0.1-2.3-4.7-4.9-10.6c-2.5-5.9-4.5-10.7-4.3-10.8c0.1-0.1,2.3,4.7,4.9,10.6
			C352.5,434.5,354.4,439.3,354.3,439.4z"/>
		<path class="st2" d="M361.4,438.6c-0.1,0.1-2.6-4.4-5.5-10c-2.9-5.6-5.1-10.2-5-10.3c0.1-0.1,2.6,4.4,5.5,10
			C359.3,433.9,361.5,438.5,361.4,438.6z"/>
		<path class="st2" d="M366.7,436.5c-0.1,0-0.6-1.1-1.6-2.9c-0.9-1.8-2.2-4.3-3.6-7c-1.5-2.7-2.8-5.2-3.8-6.9
			c-1-1.8-1.6-2.9-1.6-2.9c0.1,0,0.8,1,1.9,2.7c1.1,1.7,2.5,4.1,4,6.9c1.5,2.7,2.7,5.3,3.5,7.1C366.3,435.3,366.8,436.4,366.7,436.5
			z"/>
		<path class="st2" d="M372.2,431.7c-0.1,0-0.7-1-1.8-2.6c-1.1-1.8-2.5-4-4.1-6.4c-1.6-2.4-3-4.5-4.2-6.3c-1.1-1.6-1.7-2.6-1.7-2.7
			c0.1,0,0.8,0.9,2,2.4c1.2,1.6,2.7,3.7,4.3,6.2c1.6,2.5,3,4.8,3.9,6.5C371.8,430.6,372.3,431.7,372.2,431.7z"/>
		<path class="st2" d="M377.5,427.8c-0.1,0-0.8-0.9-2.1-2.4c-1.2-1.6-2.8-3.8-4.5-6.2c-1.7-2.5-3.2-4.8-4.2-6.5
			c-1-1.7-1.6-2.8-1.5-2.8c0.1,0,0.8,0.9,1.9,2.6c1.2,1.8,2.7,4,4.3,6.3c1.6,2.4,3.1,4.5,4.4,6.3
			C376.9,426.7,377.6,427.7,377.5,427.8z"/>
		<path class="st2" d="M381.9,423.8c-0.1,0-0.9-0.9-2.1-2.4c-1.2-1.6-2.8-3.8-4.5-6.2c-1.7-2.5-3.2-4.8-4.2-6.5
			c-1-1.7-1.6-2.8-1.5-2.8c0.1,0,0.8,0.9,1.9,2.6c1.2,1.8,2.7,4,4.3,6.3c1.6,2.4,3.1,4.5,4.4,6.3C381.3,422.7,382,423.7,381.9,423.8
			z"/>
		<path class="st2" d="M386.8,420.4c-0.1,0.1-3-3.8-6.5-8.7c-3.5-4.9-6.1-8.9-6-9c0.1-0.1,3,3.8,6.5,8.7
			C384.2,416.3,386.9,420.3,386.8,420.4z"/>
		<path class="st2" d="M390.9,418.8c-0.1,0-0.7-1.1-1.7-3c-1-2-2.3-4.6-3.7-7.4c-1.4-2.9-2.8-5.4-3.9-7.2c-1.1-1.8-1.8-2.9-1.7-2.9
			c0.1,0,0.9,0.9,2.1,2.7c1.2,1.8,2.6,4.3,4,7.2c1.4,2.9,2.7,5.5,3.5,7.5C390.5,417.6,391,418.8,390.9,418.8z"/>
		<path class="st8" d="M170.3,408c5.9,4.4,14,4.5,21,2.1c6.9-2.3,12.9-6.8,18.8-11c5.9-4.3,12.1-8.6,19.1-10.5l-16.4-32.9
			c0,0-15.8,6.2-26.3,18.1c-8.5,9.6-27.9,5.3-27.9,5.3L170.3,408z"/>
		<path class="st2" d="M170.3,408c0,0-0.1-0.2-0.2-0.5c-0.2-0.4-0.4-0.8-0.6-1.5c-0.6-1.3-1.4-3.3-2.4-5.7c-2.1-5-5-12.3-8.7-21.2
			l-0.1-0.4l0.4,0.1c3.9,0.8,8.3,1.1,13,0.8c2.3-0.2,4.7-0.6,7-1.3c2.3-0.7,4.6-1.9,6.5-3.7c0.9-0.9,1.8-1.8,2.7-2.8
			c0.9-1,1.9-1.9,2.9-2.8c2-1.8,4.2-3.5,6.5-5.2c4.7-3.2,9.8-6.2,15.3-8.5l0.2-0.1l0.1,0.2c0.7,1.4,1.4,2.8,2.1,4.3
			c5,10.1,9.9,19.8,14.3,28.7l0.1,0.3l-0.3,0.1c-4.6,1.3-8.7,3.5-12.4,5.9c-3.7,2.4-7.1,4.9-10.3,7.2s-6.4,4.4-9.5,5.9
			c-3.1,1.6-6.2,2.7-9,3.3c-2.9,0.6-5.5,0.7-7.8,0.5c-2.3-0.2-4.2-0.7-5.7-1.3c-1.5-0.6-2.5-1.2-3.2-1.7c-0.3-0.2-0.6-0.4-0.8-0.5
			C170.3,408,170.2,408,170.3,408c0.1-0.1,1.3,1.1,4.3,2.2c1.5,0.5,3.4,1,5.6,1.2c2.3,0.2,4.9,0.1,7.7-0.6c2.8-0.6,5.8-1.7,8.9-3.3
			c3.1-1.6,6.2-3.7,9.4-6c3.2-2.3,6.6-4.9,10.3-7.3c3.7-2.4,7.9-4.6,12.5-6l-0.2,0.4c-4.4-8.9-9.3-18.5-14.3-28.6
			c-0.7-1.5-1.5-2.9-2.1-4.3l0.4,0.1c-5.5,2.3-10.6,5.2-15.2,8.4c-2.3,1.6-4.5,3.3-6.5,5.1c-1,0.9-2,1.8-2.9,2.8
			c-0.9,1-1.8,1.9-2.8,2.8c-2,1.8-4.3,3-6.7,3.7c-2.4,0.7-4.8,1.1-7.2,1.3c-4.7,0.3-9.1-0.1-13.1-0.9l0.2-0.3
			c3.6,8.9,6.5,16.2,8.5,21.2c1,2.5,1.7,4.4,2.3,5.8c0.2,0.6,0.4,1.1,0.6,1.5C170.2,407.8,170.3,408,170.3,408z"/>
		<path class="st2" d="M180.2,405.9c-0.1,0.1-2.3-4.7-4.9-10.6c-2.5-5.9-4.5-10.7-4.3-10.8c0.1-0.1,2.3,4.7,4.9,10.6
			C178.4,401,180.3,405.8,180.2,405.9z"/>
		<path class="st2" d="M187.3,405.1c-0.1,0.1-2.6-4.4-5.5-10c-2.9-5.6-5.1-10.2-5-10.3c0.1-0.1,2.6,4.4,5.5,10
			C185.2,400.4,187.4,405,187.3,405.1z"/>
		<path class="st2" d="M192.6,403c-0.1,0-0.6-1.1-1.6-2.9c-0.9-1.8-2.2-4.3-3.6-7c-1.5-2.7-2.8-5.2-3.8-6.9c-1-1.8-1.6-2.9-1.6-2.9
			c0.1,0,0.8,1,1.9,2.7c1.1,1.7,2.5,4.1,4,6.9c1.5,2.7,2.7,5.3,3.5,7.1C192.2,401.8,192.7,403,192.6,403z"/>
		<path class="st2" d="M198.1,398.3c-0.1,0-0.7-1-1.8-2.6c-1.1-1.8-2.5-4-4.1-6.4c-1.6-2.4-3-4.5-4.2-6.3c-1.1-1.6-1.7-2.6-1.7-2.7
			c0.1,0,0.8,0.9,2,2.4c1.2,1.6,2.7,3.7,4.3,6.2c1.6,2.5,3,4.8,3.9,6.5C197.6,397.1,198.2,398.2,198.1,398.3z"/>
		<path class="st2" d="M203.4,394.3c-0.1,0-0.9-0.9-2.1-2.4c-1.2-1.6-2.8-3.8-4.5-6.2c-1.7-2.5-3.2-4.8-4.2-6.5s-1.6-2.8-1.5-2.8
			c0.1,0,0.8,0.9,1.9,2.6c1.2,1.8,2.7,4,4.3,6.3c1.6,2.4,3.1,4.5,4.4,6.3C202.8,393.3,203.5,394.3,203.4,394.3z"/>
		<path class="st2" d="M207.8,390.3c-0.1,0-0.8-0.9-2.1-2.4c-1.2-1.6-2.8-3.8-4.5-6.2c-1.7-2.5-3.2-4.8-4.2-6.5s-1.6-2.8-1.5-2.8
			c0.1,0,0.8,0.9,1.9,2.6c1.2,1.8,2.7,4,4.3,6.3c1.6,2.4,3.1,4.5,4.4,6.3C207.2,389.2,207.9,390.2,207.8,390.3z"/>
		<path class="st2" d="M212.7,386.9c-0.1,0.1-3-3.8-6.5-8.7c-3.5-4.9-6.1-8.9-6-9c0.1-0.1,3,3.8,6.5,8.7
			C210.1,382.8,212.8,386.9,212.7,386.9z"/>
		<path class="st2" d="M216.8,385.4c-0.1,0-0.7-1.1-1.7-3c-1-2-2.3-4.6-3.7-7.4c-1.4-2.9-2.8-5.4-3.9-7.2c-1.1-1.8-1.8-2.9-1.7-2.9
			c0.1,0,0.9,0.9,2.1,2.7c1.2,1.8,2.6,4.3,4,7.2c1.4,2.9,2.7,5.5,3.5,7.5C216.3,384.1,216.9,385.3,216.8,385.4z"/>
	</g>
</g>
</svg>
