<?xml version="1.0" encoding="utf-8"?>
<!-- Generator: Adobe Illustrator 25.2.0, SVG Export Plug-In . SVG Version: 6.00 Build 0)  -->
<svg version="1.1" id="Layer_1" xmlns="http://www.w3.org/2000/svg" xmlns:xlink="http://www.w3.org/1999/xlink" x="0px" y="0px"
	 viewBox="0 0 628 578" style="enable-background:new 0 0 628 578;" xml:space="preserve">
<style type="text/css">
	.st0{clip-path:url(#SVGID_2_);}
	.st1{fill:#F6F8FB;}
	.st2{fill:#EBEBEB;}
	.st3{fill:#FAFAFA;}
	.st4{fill:#E0E0E0;}
	.st5{fill:#F7911D;}
	.st6{fill:#2C47B7;}
	.st7{fill:#FFFFFF;}
	.st8{fill:#2E2E2E;}
	.st9{fill:#F5F5F5;}
	.st10{fill:#455A64;}
	.st11{fill:#1835B2;}
	.st12{opacity:0.4;}
	.st13{fill:#3958FA;}
	.st14{fill:none;stroke:#020202;stroke-width:0.25;stroke-miterlimit:10;}
	.st15{fill:none;stroke:#000000;stroke-width:0.25;stroke-miterlimit:10;}
	.st16{fill:#FFFFFF;stroke:#000000;stroke-width:0.25;stroke-miterlimit:10;}
	.st17{fill:#FFFFFF;stroke:#000000;stroke-width:0.5;stroke-miterlimit:10;}
</style>
<g>
	<defs>
		<rect id="SVGID_1_" width="628" height="578"/>
	</defs>
	<clipPath id="SVGID_2_">
		<use xlink:href="#SVGID_1_"  style="overflow:visible;"/>
	</clipPath>
	<g class="st0">
		<g>
			<path class="st1" d="M384.4,90.7c-6.4-4-13-7.8-19.9-11.1C284.3,41.7,133.1,72.8,97,169.1c-8.6,23-5.3,44.1-7.6,66.8
				c-5.2,51.6-39.4,97.4-50.2,148c-8.4,39.3,12.2,74.6,39.4,99.6c29.6,27.2,64.5,39.3,110.9,39c52-0.3,94.7-27.7,137.2-56.7
				c19.1-13,38.8-26.4,60.5-35.4c27.1-11.2,56.1-17.7,83.6-27.3c28.7-10,57.3-22.9,80.3-42.1c73.8-61.6,45.8-170.9-16.2-211.4
				c-21.9-14.4-50.2-20-77-26.6C428.9,116,408.2,105.4,384.4,90.7z"/>
		</g>
		<path class="st2" d="M212.7,432.9l-1.4,1.5L168,486l95.9,0.1l26.4-52.9L212.7,432.9z"/>
		<path class="st3" d="M194.2,435.3l-1.4,1.6l-48.2,53.3l93.5,0.1l33.8-54.7L194.2,435.3z"/>
		<path class="st4" d="M194.2,435.3c0,0,0.1,0,0.3,0c0.2,0,0.6,0,1.1,0c0.9,0,2.3,0,4.1,0c3.6,0,9,0,15.8,0c13.6,0,33,0.1,56.3,0.1
			h0.4l-0.2,0.3c-9.9,16.1-21.4,34.8-33.7,54.7l-0.1,0.1H238c-4.1,0-8.4,0-12.8,0c-29.7,0-57.4-0.1-80.7-0.1h-0.5l0.3-0.3
			c15-16.5,27.4-30.2,36.1-39.8c4.3-4.8,7.8-8.5,10.1-11.1c1.2-1.3,2.1-2.2,2.7-2.9C193.9,435.6,194.2,435.3,194.2,435.3
			s-0.3,0.4-0.9,1c-0.6,0.7-1.5,1.7-2.6,2.9c-2.3,2.6-5.7,6.4-10,11.2c-8.7,9.6-21.1,23.4-36,39.9l-0.1-0.3c23.3,0,51,0,80.7,0
			c4.4,0,8.7,0,12.8,0l-0.2,0.1c12.3-19.9,23.8-38.5,33.8-54.7l0.2,0.3c-23.3-0.1-42.6-0.2-56.2-0.3c-6.8,0-12.1-0.1-15.8-0.1
			c-1.8,0-3.2,0-4.2,0c-0.5,0-0.8,0-1.1,0C194.3,435.3,194.2,435.3,194.2,435.3z"/>
		<path class="st4" d="M229.8,480.4c0,0-0.2,0-0.7,0c-0.5,0-1.1,0-1.9,0c-1.7,0-4.1,0-6.9,0c-5.9,0-14-0.1-22.9-0.1
			c-8.9-0.1-17-0.2-22.9-0.3c-2.9-0.1-5.3-0.1-6.9-0.1c-0.8,0-1.4,0-1.9-0.1c-0.4,0-0.7,0-0.7-0.1c0,0,0.2,0,0.7,0
			c0.5,0,1.1,0,1.9,0c1.7,0,4.1,0,6.9,0c5.9,0,14,0.1,22.9,0.1c8.9,0.1,17,0.2,22.9,0.3c2.9,0.1,5.3,0.1,6.9,0.1
			c0.8,0,1.4,0,1.9,0.1C229.6,480.3,229.8,480.4,229.8,480.4z"/>
		<path class="st4" d="M232.6,474.7c0,0-0.2,0-0.6,0c-0.5,0-1.1,0-1.8,0c-1.7,0-4,0-6.8,0c-5.8,0-13.7-0.1-22.4-0.1
			c-8.7-0.1-16.6-0.2-22.4-0.3c-2.8-0.1-5.1-0.1-6.8-0.1c-0.8,0-1.4,0-1.8-0.1c-0.4,0-0.6,0-0.6-0.1c0,0,0.2,0,0.6,0
			c0.5,0,1.1,0,1.8,0c1.7,0,4,0,6.8,0c5.8,0,13.7,0.1,22.4,0.1c8.7,0.1,16.6,0.2,22.4,0.3c2.8,0.1,5.1,0.1,6.8,0.1
			c0.8,0,1.4,0,1.8,0.1C232.4,474.6,232.6,474.7,232.6,474.7z"/>
		<path class="st4" d="M236.8,468.9c0,0-0.2,0-0.6,0c-0.5,0-1.1,0-1.8,0c-1.6,0-3.9,0-6.7,0c-5.7,0-13.4-0.1-21.9-0.1
			c-8.5-0.1-16.3-0.2-22-0.3c-2.8-0.1-5-0.1-6.7-0.1c-0.7,0-1.3,0-1.8-0.1c-0.4,0-0.6,0-0.6-0.1c0,0,0.2,0,0.6,0c0.5,0,1.1,0,1.8,0
			c1.6,0,3.9,0,6.7,0c5.7,0,13.4,0.1,22,0.1c8.6,0.1,16.3,0.2,21.9,0.3c2.8,0.1,5,0.1,6.7,0.1c0.7,0,1.3,0,1.8,0.1
			C236.6,468.9,236.8,468.9,236.8,468.9z"/>
		<path class="st4" d="M241.6,463.6c0,0-0.2,0-0.6,0c-0.5,0-1,0-1.8,0c-1.6,0-3.8,0-6.5,0c-5.6,0-13.1-0.1-21.5-0.1
			c-8.4-0.1-15.9-0.2-21.5-0.3c-2.7-0.1-4.9-0.1-6.5-0.1c-0.7,0-1.3,0-1.8-0.1c-0.4,0-0.6,0-0.6-0.1c0,0,0.2,0,0.6,0
			c0.5,0,1,0,1.8,0c1.6,0,3.8,0,6.5,0c5.6,0,13.1,0.1,21.5,0.1c8.4,0.1,15.9,0.2,21.5,0.3c2.7,0.1,4.9,0.1,6.5,0.1
			c0.7,0,1.3,0,1.8,0.1C241.4,463.5,241.6,463.5,241.6,463.6z"/>
		<path class="st4" d="M245.2,457.9c0,0-0.2,0-0.6,0c-0.5,0-1,0-1.8,0c-1.6,0-3.8,0-6.5,0c-5.6,0-13.1-0.1-21.5-0.1
			c-8.4-0.1-15.9-0.2-21.5-0.3c-2.7-0.1-4.9-0.1-6.5-0.1c-0.7,0-1.3,0-1.8-0.1c-0.4,0-0.6,0-0.6-0.1c0,0,0.2,0,0.6,0
			c0.5,0,1,0,1.8,0c1.6,0,3.8,0,6.5,0c5.6,0,13.1,0.1,21.5,0.1c8.4,0.1,15.9,0.2,21.5,0.3c2.7,0.1,4.9,0.1,6.5,0.1
			c0.7,0,1.3,0,1.8,0.1C244.9,457.9,245.2,457.9,245.2,457.9z"/>
		<path class="st4" d="M250.4,452.4c0,0-0.2,0-0.6,0c-0.5,0-1,0-1.8,0c-1.6,0-3.8,0-6.5,0c-5.6,0-13.1-0.1-21.5-0.1
			c-8.4-0.1-15.9-0.2-21.5-0.3c-2.7-0.1-4.9-0.1-6.5-0.1c-0.7,0-1.3,0-1.8-0.1c-0.4,0-0.6,0-0.6-0.1c0,0,0.2,0,0.6,0
			c0.5,0,1,0,1.8,0c1.6,0,3.8,0,6.5,0c5.6,0,13.1,0.1,21.5,0.1c8.4,0.1,15.9,0.2,21.5,0.3c2.7,0.1,4.9,0.1,6.5,0.1
			c0.7,0,1.3,0,1.8,0.1C250.2,452.3,250.4,452.3,250.4,452.4z"/>
		<path class="st4" d="M254.3,446.9c0,0-0.2,0-0.6,0c-0.5,0-1,0-1.8,0c-1.6,0-3.8,0-6.5,0c-5.6-0.1-13.1-0.1-21.5-0.2
			c-8.4-0.1-15.9-0.3-21.5-0.4c-2.7-0.1-4.9-0.1-6.5-0.2c-0.7,0-1.3-0.1-1.8-0.1c-0.4,0-0.6,0-0.6-0.1c0,0,0.2,0,0.6,0
			c0.5,0,1,0,1.8,0c1.6,0,3.8,0,6.5,0c5.6,0.1,13.1,0.1,21.5,0.2c8.4,0.1,15.9,0.3,21.5,0.4c2.7,0.1,4.9,0.1,6.5,0.2
			c0.7,0,1.3,0.1,1.8,0.1C254.1,446.9,254.3,446.9,254.3,446.9z"/>
		<path class="st4" d="M260.2,441.7c0,0-0.2,0-0.6,0c-0.5,0-1,0-1.8,0c-1.6,0-3.8,0-6.5,0c-5.6-0.1-13.1-0.1-21.5-0.2
			c-8.4-0.1-15.9-0.3-21.5-0.4c-2.7-0.1-4.9-0.1-6.5-0.2c-0.7,0-1.3-0.1-1.8-0.1c-0.4,0-0.6,0-0.6-0.1c0,0,0.2,0,0.6,0
			c0.5,0,1,0,1.8,0c1.6,0,3.8,0,6.5,0c5.6,0.1,13.1,0.1,21.5,0.2c8.4,0.1,15.9,0.3,21.5,0.4c2.7,0.1,4.9,0.1,6.5,0.2
			c0.7,0,1.3,0.1,1.8,0.1C260,441.7,260.2,441.7,260.2,441.7z"/>
		<path class="st5" d="M338.8,243.5c0-6.5,3.9-10.6,9.5-10.6c5.5,0,9.4,4.1,9.4,10.6c0,6.5-3.9,10.6-9.4,10.6
			C342.7,254.1,338.8,249.9,338.8,243.5z M352.2,243.5c0-4.1-1.6-6.1-4-6.1c-2.3,0-4,2-4,6.1s1.6,6.1,4,6.1
			C350.7,249.6,352.2,247.6,352.2,243.5z M370.9,233.3h6.5l-26,38.5H345L370.9,233.3z M364.7,261.6c0-6.5,3.9-10.6,9.4-10.6
			c5.5,0,9.5,4.1,9.5,10.6c0,6.5-3.9,10.6-9.5,10.6C368.6,272.2,364.7,268.1,364.7,261.6z M378,261.6c0-4.1-1.6-6.1-4-6.1
			c-2.3,0-4,2-4,6.1c0,4.1,1.6,6.1,4,6.1C376.5,267.7,378,265.7,378,261.6z"/>
		<path class="st5" d="M442.7,131.4c3.5,23-12.4,44.5-35.5,48c-23.1,3.5-44.6-12.4-48-35.4c-3.5-23,12.4-44.5,35.5-47.9
			C417.7,92.5,439.2,108.3,442.7,131.4z"/>
		<path class="st5" d="M432.7,132.8c2.6,17.5-9.5,33.9-27,36.5c-17.6,2.7-34-9.4-36.6-26.9s9.5-33.9,27-36.5
			C413.7,103.3,430.1,115.3,432.7,132.8z"/>
		<path class="st6" d="M432.6,131.9c-0.2,0-0.5-1.3-1.4-3.7c-0.9-2.3-2.4-5.7-5.1-9.2c-1.4-1.7-3.1-3.5-5.1-5.1
			c-2-1.6-4.4-3.1-7.1-4.3c-1.3-0.6-2.7-1.1-4.2-1.5c-1.5-0.4-3-0.8-4.6-0.9c-1.6-0.2-3.2-0.3-4.8-0.3c-1.6,0-3.3,0.2-4.9,0.5
			c-1.6,0.3-3.3,0.7-4.8,1.3c-1.5,0.5-3,1.2-4.4,1.9c-1.4,0.7-2.7,1.6-3.9,2.5c-1.2,0.9-2.3,1.9-3.4,2.9c-2.1,2-3.7,4.3-5.1,6.5
			c-1.3,2.2-2.3,4.5-2.9,6.6c-1.3,4.2-1.5,7.9-1.5,10.4c0,2.5,0.2,3.9,0,4c-0.1,0-0.6-1.3-0.9-3.9c-0.3-2.6-0.4-6.4,0.8-11
			c0.6-2.3,1.5-4.7,2.8-7.1c1.3-2.4,3.1-4.9,5.2-7.1c1.1-1.1,2.3-2.2,3.6-3.2c1.3-1,2.7-1.9,4.2-2.7c1.5-0.8,3.1-1.5,4.7-2.1
			c1.7-0.6,3.4-1,5.2-1.4c1.8-0.3,3.6-0.5,5.3-0.5c1.8,0,3.5,0.1,5.2,0.3c1.7,0.2,3.3,0.6,4.9,1.1c1.6,0.5,3.1,1.1,4.5,1.7
			c2.8,1.3,5.3,3,7.4,4.8c2.1,1.8,3.8,3.8,5.2,5.7c2.7,3.8,4,7.5,4.7,10C432.7,130.4,432.7,131.8,432.6,131.9z"/>
		<path class="st7" d="M407.4,156.1l0.9,5.5l-4.9,0.8l-0.9-5.4c-4.9,0.5-9.9-0.2-12.9-1.9l1.7-6.5c2.8,1.4,6.6,2.2,10.2,1.9
			l-1.4-8.2c-5.7-0.4-12.1-1.2-13.3-8.3c-0.9-5.2,2.2-10.4,9.8-12.5l-0.9-5.5l4.9-0.8l0.9,5.4c3.7-0.3,7.5,0.1,10.5,1.4l-1.5,6.5
			c-2.8-1-5.5-1.4-8-1.3l1.4,8.4c5.7,0.4,12,1.2,13.2,8.2C418,148.8,415,153.9,407.4,156.1z M398.8,135.1l-1.2-7
			c-2.5,1-3.3,2.6-3,4.3C394.9,134.1,396.5,134.7,398.8,135.1z M409.3,145.6c-0.3-1.7-1.9-2.4-4.1-2.8l1.1,6.8
			C408.7,148.6,409.5,147.2,409.3,145.6z"/>
		<path class="st5" d="M524.1,365.4c-6.4,17.5-25.7,26.5-43.3,20.2c-17.5-6.4-26.6-25.7-20.3-43.2c6.4-17.5,25.7-26.5,43.3-20.2
			C521.4,328.6,530.5,347.9,524.1,365.4z"/>
		<path class="st5" d="M516.6,362.7c-4.8,13.3-19.6,20.2-33,15.4c-13.4-4.9-20.3-19.6-15.4-33c4.8-13.3,19.6-20.2,33-15.4
			C514.5,334.6,521.4,349.3,516.6,362.7z"/>
		<path class="st6" d="M516.8,361.9c-0.1,0,0.1-1.2,0.4-3.1c0.3-2,0.5-4.9-0.1-8.4c-0.3-1.8-0.8-3.6-1.6-5.6
			c-0.8-1.9-1.9-3.9-3.3-5.7c-0.7-0.9-1.5-1.8-2.4-2.7c-0.9-0.8-1.8-1.7-2.8-2.4c-1-0.7-2.1-1.4-3.3-2c-1.2-0.6-2.4-1.1-3.7-1.5
			c-1.3-0.4-2.6-0.7-3.9-0.9c-1.3-0.2-2.6-0.3-3.9-0.3c-1.3,0-2.5,0.1-3.7,0.3c-1.2,0.2-2.4,0.4-3.5,0.8c-2.2,0.6-4.3,1.6-6.1,2.7
			c-1.8,1.1-3.3,2.3-4.6,3.5c-2.6,2.5-4.1,5-5.1,6.7c-0.9,1.8-1.4,2.8-1.5,2.8c-0.1,0,0.1-1.2,0.8-3.1c0.8-1.9,2.2-4.7,4.8-7.4
			c1.3-1.4,2.9-2.7,4.7-3.9c1.9-1.2,4-2.3,6.4-3c1.2-0.4,2.4-0.7,3.7-0.9c1.3-0.2,2.6-0.3,4-0.3c1.4,0,2.8,0.1,4.2,0.3
			c1.4,0.2,2.8,0.6,4.2,1c1.4,0.5,2.7,1,4,1.7c1.3,0.6,2.4,1.4,3.5,2.2c1.1,0.8,2.1,1.7,3,2.6c0.9,0.9,1.8,1.9,2.5,2.9
			c1.5,2,2.6,4.1,3.4,6.2c0.8,2.1,1.2,4.1,1.5,6c0.5,3.7,0,6.8-0.5,8.8C517.5,360.9,516.9,362,516.8,361.9z"/>
		<path class="st7" d="M489.8,369.3l-1.5,4.2l-3.8-1.3l1.4-4.1c-3.7-1.5-6.9-4-8.4-6.3l3.7-3.9c1.4,2.1,3.8,4,6.4,5.2l2.2-6.3
			c-3.9-2.5-8.1-5.5-6.2-10.9c1.4-4,5.5-6.4,11.7-5l1.5-4.2l3.8,1.3l-1.4,4.1c2.8,1.2,5.3,2.9,6.9,5l-3.5,4c-1.5-1.8-3.3-3.1-5.1-4
			l-2.2,6.4c3.9,2.4,8,5.4,6.1,10.8C500.1,368.2,496,370.7,489.8,369.3z M491.9,351.3l1.9-5.4c-2.2-0.2-3.3,0.6-3.8,1.8
			C489.5,349.1,490.4,350.2,491.9,351.3z M495.2,362.7c0.5-1.3-0.4-2.4-1.8-3.6l-1.8,5.2C493.6,364.6,494.8,363.9,495.2,362.7z"/>
		<path class="st8" d="M519.9,423.8c0,0.1-87.8,0.2-196,0.2c-108.3,0-196-0.1-196-0.2s87.7-0.2,196-0.2
			C432.2,423.5,519.9,423.6,519.9,423.8z"/>
		<path class="st9" d="M500.6,483l-82.2,2.7l-63.7-59.1h79.9L500.6,483z"/>
		<path class="st9" d="M471.1,491.8l-82.2,2.7l-63.7-59.1h79.9L471.1,491.8z"/>
		<path class="st4" d="M485,486l-82.2,2.7l-63.7-59.1h79.9L485,486z"/>
		<path class="st9" d="M408.7,426.6h-79.9l63.7,59.1l84.8-2.7L408.7,426.6z"/>
		<path class="st8" d="M408.7,426.6c0,0,0.1,0.1,0.3,0.2c0.2,0.2,0.5,0.4,0.9,0.8c0.8,0.7,2.1,1.7,3.7,3c3.2,2.6,8,6.5,14,11.4
			c12.1,9.9,29.3,23.9,49.8,40.8l0.4,0.4l-0.6,0c-23.8,0.8-51.7,1.7-81.3,2.7c-1.2,0-2.3,0.1-3.5,0.1h-0.1l-0.1-0.1
			c-23.5-21.8-45.3-42.1-63.7-59.1l-0.4-0.4h0.5c24,0,44,0.1,58,0.1c7,0,12.4,0,16.2,0.1c1.9,0,3.3,0,4.2,0
			C408.2,426.6,408.7,426.6,408.7,426.6s-0.5,0-1.5,0c-1,0-2.4,0-4.3,0c-3.7,0-9.2,0-16.2,0.1c-14,0-33.9,0.1-57.9,0.1l0.1-0.4
			c18.4,17.1,40.3,37.3,63.7,59.1l-0.2-0.1c1.1,0,2.3-0.1,3.5-0.1c29.6-0.9,57.5-1.8,81.3-2.6l-0.1,0.4
			c-20.5-16.9-37.6-31-49.7-40.9c-6-5-10.7-8.9-14-11.5c-1.6-1.3-2.8-2.4-3.7-3.1c-0.4-0.3-0.7-0.6-0.9-0.8
			C408.8,426.7,408.7,426.6,408.7,426.6z"/>
		<path class="st8" d="M437.4,460.7c0,0.1-12.7,0.6-28.4,1.1c-15.7,0.5-28.5,0.8-28.5,0.7s12.7-0.6,28.4-1.1
			C424.6,460.8,437.4,460.5,437.4,460.7z"/>
		<path class="st8" d="M444.2,465.7c0,0.1-12.9,0.6-28.9,1.1c-16,0.5-28.9,0.8-28.9,0.6s12.9-0.6,28.9-1.1
			C431.2,465.9,444.2,465.6,444.2,465.7z"/>
		<path class="st8" d="M451.3,470.8c0,0.1-13,0.7-29.1,1.2c-16.1,0.5-29.1,0.8-29.1,0.7c0-0.1,13-0.7,29.1-1.2
			C438.3,471,451.3,470.6,451.3,470.8z"/>
		<path class="st8" d="M433.4,456.1c0,0.1-13.1,0.7-29.3,1.2c-16.2,0.5-29.3,0.8-29.3,0.7c0-0.1,13.1-0.7,29.3-1.2
			C420.3,456.3,433.4,456,433.4,456.1z"/>
		<path class="st8" d="M406.4,437.2c0,0.1-12.2,0.5-27.2,0.8c-15,0.3-27.2,0.4-27.2,0.3s12.2-0.5,27.2-0.8
			C394.2,437.2,406.4,437.1,406.4,437.2z"/>
		<path class="st8" d="M413.2,442.2c0,0.1-12.5,0.5-28,0.8c-15.5,0.3-28,0.4-28,0.3c0-0.1,12.5-0.5,28-0.8
			C400.6,442.2,413.1,442.1,413.2,442.2z"/>
		<path class="st8" d="M419.9,447.3c0,0.1-13.2,0.5-29.4,0.8c-16.2,0.3-29.4,0.5-29.4,0.3c0-0.1,13.1-0.5,29.4-0.8
			C406.8,447.3,419.9,447.2,419.9,447.3z"/>
		<path class="st8" d="M426.7,452.3c0,0.1-13.2,0.5-29.4,0.8c-16.2,0.3-29.4,0.5-29.4,0.3c0-0.1,13.1-0.5,29.4-0.8
			C413.6,452.4,426.7,452.2,426.7,452.3z"/>
		<path class="st8" d="M402.4,432.6c0,0-0.2,0-0.6,0.1c-0.4,0-1,0-1.6,0.1c-1.5,0-3.5,0.1-6,0.2c-5.1,0.1-12.1,0.2-19.8,0.4
			c-7.7,0.1-14.7,0.2-19.8,0.2c-2.5,0-4.5,0-6,0c-0.7,0-1.2,0-1.6,0c-0.4,0-0.6,0-0.6,0c0,0,0.2,0,0.6-0.1c0.4,0,1,0,1.6-0.1
			c1.5,0,3.5-0.1,6-0.2c5.1-0.1,12.1-0.2,19.8-0.4c7.7-0.1,14.7-0.2,19.8-0.2c2.5,0,4.5,0,6,0c0.7,0,1.2,0,1.6,0
			C402.2,432.6,402.4,432.6,402.4,432.6z"/>
		<path class="st8" d="M376.8,447l-20.9-19.2l72.5-2.9l21.3,11.8L376.8,447z"/>
		<path class="st8" d="M364.3,430.5l4.1,3.5l0-2.5l-4.3-3.2L364.3,430.5z"/>
		<path class="st5" d="M368.3,431.7l5.9-0.2l-4.7-3.4l-5.4,0.2L368.3,431.7z"/>
		<path class="st8" d="M368.3,431.7l0.1,2.3l5.7-0.4l0.1-2.2L368.3,431.7z"/>
		<path class="st8" d="M374.2,431.5c-0.1,0.1-2.2-1.3-4.7-3c-0.1-0.1-0.2-0.1-0.3-0.2l0.1,0c-2.9,0.1-5.3,0.1-5.3,0
			c0-0.1,2.3-0.3,5.3-0.5h0.1l0.1,0c0.1,0.1,0.2,0.1,0.3,0.2C372.3,429.9,374.3,431.4,374.2,431.5z"/>
		<path class="st10" d="M368.4,434c-0.1,0-0.2-0.5-0.3-1.2c0-0.6,0.1-1.2,0.2-1.2c0.1,0,0.2,0.5,0.3,1.2
			C368.6,433.5,368.5,434,368.4,434z"/>
		<path class="st8" d="M374.2,430.4l4.1,3.5l0-2.5l-4.3-3.2L374.2,430.4z"/>
		<path class="st4" d="M378.2,431.5l5.9-0.2l-4.7-3.4l-5.4,0.2L378.2,431.5z"/>
		<path class="st8" d="M378.2,431.5l0.1,2.3l5.7-0.4l0.1-2.2L378.2,431.5z"/>
		<path class="st8" d="M384,431.3c-0.1,0.1-2.2-1.3-4.7-3c-0.1-0.1-0.2-0.1-0.3-0.2l0.1,0c-2.9,0.1-5.3,0.1-5.3,0
			c0-0.1,2.3-0.3,5.3-0.5h0.1l0.1,0c0.1,0.1,0.2,0.1,0.3,0.2C382.1,429.7,384.1,431.2,384,431.3z"/>
		<path class="st10" d="M378.2,433.9c-0.1,0-0.2-0.5-0.3-1.2c0-0.6,0.1-1.2,0.2-1.2c0.1,0,0.2,0.5,0.3,1.2
			C378.4,433.3,378.3,433.9,378.2,433.9z"/>
		<path class="st8" d="M383.6,430.2l4.1,3.5l0-2.5l-4.3-3.2L383.6,430.2z"/>
		<path class="st10" d="M387.6,431.4l5.9-0.2l-4.7-3.4l-5.4,0.2L387.6,431.4z"/>
		<path class="st8" d="M387.6,431.4l0.1,2.3l5.7-0.4l0.1-2.2L387.6,431.4z"/>
		<path class="st8" d="M393.5,431.2c-0.1,0.1-2.2-1.3-4.7-3c-0.1-0.1-0.2-0.1-0.3-0.2l0.1,0c-2.9,0.1-5.3,0.1-5.3,0
			c0-0.1,2.3-0.3,5.3-0.5h0.1l0.1,0c0.1,0.1,0.2,0.1,0.3,0.2C391.5,429.5,393.5,431.1,393.5,431.2z"/>
		<path class="st10" d="M387.6,433.7c-0.1,0-0.2-0.5-0.3-1.2c0-0.6,0.1-1.2,0.2-1.2c0.1,0,0.2,0.5,0.3,1.2
			C387.8,433.2,387.8,433.7,387.6,433.7z"/>
		<path class="st8" d="M393.4,430l4.1,3.5l0-2.5l-4.3-3.2L393.4,430z"/>
		<path class="st10" d="M397.4,431.1l5.9-0.2l-4.7-3.4l-5.4,0.2L397.4,431.1z"/>
		<path class="st8" d="M397.4,431.1l0.1,2.3l5.7-0.4l0.1-2.2L397.4,431.1z"/>
		<path class="st8" d="M403.3,430.9c-0.1,0.1-2.2-1.3-4.7-3c-0.1-0.1-0.2-0.1-0.3-0.2l0.1,0c-2.9,0.1-5.3,0.1-5.3,0
			c0-0.1,2.3-0.3,5.3-0.5h0.1l0.1,0c0.1,0.1,0.2,0.1,0.3,0.2C401.3,429.3,403.3,430.8,403.3,430.9z"/>
		<path class="st10" d="M397.4,433.4c-0.1,0-0.2-0.5-0.3-1.2c0-0.6,0.1-1.2,0.2-1.2c0.1,0,0.2,0.5,0.3,1.2
			C397.7,432.9,397.6,433.4,397.4,433.4z"/>
		<path class="st8" d="M403.3,429.7l4.1,3.5l0-2.5l-4.3-3.2L403.3,429.7z"/>
		<path class="st10" d="M407.3,430.9l5.9-0.2l-4.7-3.4l-5.4,0.2L407.3,430.9z"/>
		<path class="st8" d="M407.3,430.9l0.1,2.3l5.7-0.4l0.1-2.2L407.3,430.9z"/>
		<path class="st8" d="M413.2,430.7c-0.1,0.1-2.2-1.3-4.7-3c-0.1-0.1-0.2-0.1-0.3-0.2l0.1,0c-2.9,0.1-5.3,0.1-5.3,0
			c0-0.1,2.3-0.3,5.3-0.5h0.1l0.1,0c0.1,0.1,0.2,0.1,0.3,0.2C411.3,429,413.3,430.6,413.2,430.7z"/>
		<path class="st10" d="M407.4,433.2c-0.1,0-0.2-0.5-0.3-1.2c0-0.6,0.1-1.2,0.2-1.2c0.1,0,0.2,0.5,0.3,1.2
			C407.6,432.7,407.5,433.2,407.4,433.2z"/>
		<path class="st8" d="M412.8,429.3l4.1,3.5l0-2.5l-4.3-3.2L412.8,429.3z"/>
		<path class="st10" d="M416.8,430.4l5.9-0.2l-4.7-3.4l-5.4,0.2L416.8,430.4z"/>
		<path class="st8" d="M416.8,430.4l0.1,2.3l5.7-0.4l0.1-2.2L416.8,430.4z"/>
		<path class="st8" d="M422.7,430.2c-0.1,0.1-2.2-1.3-4.7-3c-0.1-0.1-0.2-0.1-0.3-0.2l0.1,0c-2.9,0.1-5.3,0.1-5.3,0
			c0-0.1,2.3-0.3,5.3-0.5h0.1l0.1,0c0.1,0.1,0.2,0.1,0.3,0.2C420.8,428.6,422.8,430.1,422.7,430.2z"/>
		<path class="st10" d="M416.9,432.8c-0.1,0-0.2-0.5-0.3-1.2c0-0.6,0.1-1.2,0.2-1.2c0.1,0,0.2,0.5,0.3,1.2
			C417.1,432.2,417,432.8,416.9,432.8z"/>
		<path class="st8" d="M422.1,428.7l4.1,3.5l0-2.5l-4.3-3.2L422.1,428.7z"/>
		<path class="st10" d="M426.1,429.9l5.9-0.2l-4.7-3.4l-5.4,0.2L426.1,429.9z"/>
		<path class="st8" d="M426.1,429.9l0.1,2.3l5.7-0.4l0.1-2.2L426.1,429.9z"/>
		<path class="st8" d="M432,429.7c-0.1,0.1-2.2-1.3-4.7-3c-0.1-0.1-0.2-0.1-0.3-0.2l0.1,0c-2.9,0.1-5.3,0.1-5.3,0
			c0-0.1,2.3-0.3,5.3-0.5h0.1l0.1,0c0.1,0.1,0.2,0.1,0.3,0.2C430.1,428,432.1,429.6,432,429.7z"/>
		<path class="st10" d="M426.1,432.2c-0.1,0-0.3-0.5-0.3-1.2c0-0.6,0.1-1.2,0.2-1.2c0.1,0,0.2,0.5,0.3,1.2
			C426.4,431.7,426.3,432.2,426.1,432.2z"/>
		<path class="st8" d="M370.9,437.1l4.1,3.5l0-2.5l-4.3-3.2L370.9,437.1z"/>
		<path class="st10" d="M374.9,438.3l5.9-0.2l-4.7-3.4l-5.4,0.2L374.9,438.3z"/>
		<path class="st8" d="M374.9,438.3l0.1,2.3l5.7-0.4l0.1-2.2L374.9,438.3z"/>
		<path class="st8" d="M380.8,438.1c-0.1,0.1-2.2-1.3-4.7-3c-0.1-0.1-0.2-0.1-0.3-0.2l0.1,0c-2.9,0.1-5.3,0.1-5.3,0
			c0-0.1,2.3-0.3,5.3-0.5h0.1l0.1,0c0.1,0.1,0.2,0.1,0.3,0.2C378.9,436.4,380.9,438,380.8,438.1z"/>
		<path class="st10" d="M374.9,440.6c-0.1,0-0.2-0.5-0.3-1.2c0-0.6,0.1-1.2,0.2-1.2c0.1,0,0.2,0.5,0.3,1.2
			C375.2,440.1,375.1,440.6,374.9,440.6z"/>
		<path class="st8" d="M380.7,436.9l4.1,3.5l0-2.5l-4.3-3.2L380.7,436.9z"/>
		<path class="st10" d="M384.7,438.1l5.9-0.2l-4.7-3.4l-5.4,0.2L384.7,438.1z"/>
		<path class="st8" d="M384.7,438.1l0.1,2.3l5.7-0.4l0.1-2.2L384.7,438.1z"/>
		<path class="st8" d="M390.6,437.9c-0.1,0.1-2.2-1.3-4.7-3c-0.1-0.1-0.2-0.1-0.3-0.2l0.1,0c-2.9,0.1-5.3,0.1-5.3,0
			c0-0.1,2.3-0.3,5.3-0.5h0.1l0.1,0c0.1,0.1,0.2,0.1,0.3,0.2C388.7,436.2,390.7,437.8,390.6,437.9z"/>
		<path class="st10" d="M384.8,440.4c-0.1,0-0.2-0.5-0.3-1.2c0-0.6,0.1-1.2,0.2-1.2c0.1,0,0.2,0.5,0.3,1.2
			C385,439.9,384.9,440.4,384.8,440.4z"/>
		<path class="st8" d="M390.1,436.8l4.1,3.5l0-2.5l-4.3-3.2L390.1,436.8z"/>
		<path class="st10" d="M394.1,438l5.9-0.2l-4.7-3.4l-5.4,0.2L394.1,438z"/>
		<path class="st8" d="M394.1,438l0.1,2.3l5.7-0.4l0.1-2.2L394.1,438z"/>
		<path class="st8" d="M400,437.8c-0.1,0.1-2.2-1.3-4.7-3c-0.1-0.1-0.2-0.1-0.3-0.2l0.1,0c-2.9,0.1-5.3,0.1-5.3,0
			c0-0.1,2.3-0.3,5.3-0.5h0.1l0.1,0c0.1,0.1,0.2,0.1,0.3,0.2C398.1,436.1,400.1,437.6,400,437.8z"/>
		<path class="st10" d="M394.2,440.3c-0.1,0-0.2-0.5-0.3-1.2c0-0.6,0.1-1.2,0.2-1.2c0.1,0,0.2,0.5,0.3,1.2
			C394.4,439.8,394.3,440.3,394.2,440.3z"/>
		<path class="st8" d="M399.9,436.5l4.1,3.5l0-2.5l-4.3-3.2L399.9,436.5z"/>
		<path class="st10" d="M403.9,437.7l5.9-0.2l-4.7-3.4l-5.4,0.2L403.9,437.7z"/>
		<path class="st8" d="M403.9,437.7l0.1,2.3l5.7-0.4l0.1-2.2L403.9,437.7z"/>
		<path class="st8" d="M409.8,437.5c-0.1,0.1-2.2-1.3-4.7-3c-0.1-0.1-0.2-0.1-0.3-0.2l0.1,0c-2.9,0.1-5.3,0.1-5.3,0
			c0-0.1,2.3-0.3,5.3-0.5h0.1l0.1,0c0.1,0.1,0.2,0.1,0.3,0.2C407.9,435.8,409.9,437.4,409.8,437.5z"/>
		<path class="st10" d="M404,440c-0.1,0-0.3-0.5-0.3-1.2c0-0.6,0.1-1.2,0.2-1.2c0.1,0,0.2,0.5,0.3,1.2
			C404.2,439.5,404.1,440,404,440z"/>
		<path class="st8" d="M409.9,436.3l4.1,3.5l0-2.5l-4.3-3.2L409.9,436.3z"/>
		<path class="st10" d="M413.9,437.4l5.9-0.2l-4.7-3.4l-5.4,0.2L413.9,437.4z"/>
		<path class="st8" d="M413.9,437.4l0.1,2.3l5.7-0.4l0.1-2.2L413.9,437.4z"/>
		<path class="st8" d="M419.8,437.2c-0.1,0.1-2.2-1.3-4.7-3c-0.1-0.1-0.2-0.1-0.3-0.2l0.1,0c-2.9,0.1-5.3,0.1-5.3,0
			c0-0.1,2.3-0.3,5.3-0.5h0.1l0.1,0c0.1,0.1,0.2,0.1,0.3,0.2C417.8,435.6,419.8,437.1,419.8,437.2z"/>
		<path class="st10" d="M413.9,439.8c-0.1,0-0.2-0.5-0.3-1.2c0-0.6,0.1-1.2,0.2-1.2c0.1,0,0.2,0.5,0.3,1.2
			C414.2,439.2,414.1,439.8,413.9,439.8z"/>
		<path class="st8" d="M419.4,435.8l4.1,3.5l0-2.5l-4.3-3.2L419.4,435.8z"/>
		<path class="st10" d="M423.4,437l5.9-0.2l-4.7-3.4l-5.4,0.2L423.4,437z"/>
		<path class="st8" d="M423.4,437l0.1,2.3l5.7-0.4l0.1-2.2L423.4,437z"/>
		<path class="st8" d="M429.3,436.8c-0.1,0.1-2.2-1.3-4.7-3c-0.1-0.1-0.2-0.1-0.3-0.2l0.1,0c-2.9,0.1-5.3,0.1-5.3,0
			c0-0.1,2.3-0.3,5.3-0.5h0.1l0.1,0c0.1,0.1,0.2,0.1,0.3,0.2C427.3,435.1,429.3,436.7,429.3,436.8z"/>
		<path class="st10" d="M423.4,439.3c-0.1,0-0.2-0.5-0.3-1.2c0-0.6,0.1-1.2,0.2-1.2c0.1,0,0.2,0.5,0.3,1.2
			C423.6,438.8,423.5,439.3,423.4,439.3z"/>
		<path class="st8" d="M428.6,435.3l4.1,3.5l0-2.5l-4.3-3.2L428.6,435.3z"/>
		<path class="st10" d="M432.7,436.4l5.9-0.2l-4.7-3.4l-5.4,0.2L432.7,436.4z"/>
		<path class="st8" d="M432.7,436.4l0.1,2.3l5.7-0.4l0.1-2.2L432.7,436.4z"/>
		<path class="st8" d="M438.5,436.3c-0.1,0.1-2.2-1.3-4.7-3c-0.1-0.1-0.2-0.1-0.3-0.2l0.1,0c-2.9,0.1-5.3,0.1-5.3,0
			c0-0.1,2.3-0.3,5.3-0.5h0.1l0.1,0c0.1,0.1,0.2,0.1,0.3,0.2C436.6,434.6,438.6,436.1,438.5,436.3z"/>
		<path class="st10" d="M432.7,438.8c-0.1,0-0.2-0.5-0.3-1.2c0-0.6,0.1-1.2,0.2-1.2c0.1,0,0.2,0.5,0.3,1.2
			C432.9,438.3,432.8,438.8,432.7,438.8z"/>
		<path class="st8" d="M470.1,431.5l-82.3,4.5l-10.9,10.3l-21-18.5v5.4l21.8,20.9l12-11.7l81.7-4.9L470.1,431.5z"/>
		<path class="st8" d="M377.7,454.1l74.3-4.3l19.4-12.2l-83.6,3.3L377.7,454.1z"/>
		<path class="st7" d="M471.4,437.5c0,0-0.1,0-0.2,0c-0.2,0-0.4,0-0.7,0.1c-0.7,0.1-1.6,0.1-2.9,0.2c-2.5,0.2-6.1,0.4-10.5,0.7
			c-8.9,0.6-21.2,1.3-34.8,2.1c-12.5,0.7-23.9,1.4-32.5,1.9l0.1,0c-3.7,3.6-6.7,6.5-8.9,8.5c-1,1-1.9,1.8-2.4,2.3
			c-0.3,0.2-0.5,0.4-0.6,0.6c-0.1,0.1-0.2,0.2-0.2,0.2c0,0,0.1-0.1,0.2-0.2c0.2-0.2,0.4-0.4,0.6-0.6c0.6-0.6,1.4-1.4,2.4-2.4
			c2.1-2.1,5.1-5,8.7-8.6l0,0h0.1c8.6-0.5,20-1.2,32.4-2c13.6-0.8,25.9-1.5,34.8-2c4.4-0.2,8-0.4,10.5-0.6c1.2-0.1,2.2-0.1,2.9-0.1
			c0.3,0,0.6,0,0.7,0C471.3,437.5,471.4,437.5,471.4,437.5z"/>
		<path class="st7" d="M389.7,442.4c-0.1,0-0.6-1.4-1.2-3.1c-0.5-1.8-0.8-3.2-0.7-3.3c0.1,0,0.6,1.4,1.2,3.1
			C389.5,440.9,389.8,442.4,389.7,442.4z"/>
		<path class="st10" d="M480.5,305l-73.8-14.1c-2.3-0.4-3.7-2.6-3.3-4.9l23.8-124.1c0.6-3.2,3.7-5.3,6.9-4.7l70.4,13.5
			c3.2,0.6,5.3,3.7,4.7,6.9l-23.8,124.1C485,304,482.8,305.5,480.5,305z"/>
		<g>
			<path class="st8" d="M480.5,305l-73.8-14.1c-2.3-0.4-3.7-2.6-3.3-4.9l23.8-124.1c0.6-3.2,3.7-5.3,6.9-4.7l70.4,13.5
				c3.2,0.6,5.3,3.7,4.7,6.9l-23.8,124.1C484.9,304,482.7,305.4,480.5,305z"/>
		</g>
		<path class="st8" d="M474.1,303.8l-73.8-14.1c-2.3-0.4-3.7-2.6-3.3-4.9l23.8-124.1c0.6-3.2,3.7-5.3,6.9-4.7l70.4,13.5
			c3.2,0.6,5.3,3.7,4.7,6.9L479,300.5C478.5,302.7,476.3,304.2,474.1,303.8z"/>
		<path class="st10" d="M436.3,278l-23.3-4.5c-1.2-0.2-2-1.4-1.8-2.6l1.5-7.8c0.2-1.2,1.4-2,2.6-1.8l23.3,4.5c1.2,0.2,2,1.4,1.8,2.6
			l-1.5,7.8C438.7,277.4,437.5,278.2,436.3,278z"/>
		<g>
			<path class="st8" d="M436.3,278l-23.3-4.5c-1.2-0.2-2-1.4-1.8-2.6l1.5-7.8c0.2-1.2,1.4-2,2.6-1.8l23.3,4.5c1.2,0.2,2,1.4,1.8,2.6
				l-1.5,7.8C438.7,277.4,437.5,278.2,436.3,278z"/>
		</g>
		<path class="st3" d="M425.7,169.4l-5.3,27.5l70.1,13.4l5.3-27.5L425.7,169.4z"/>
		<path class="st8" d="M490.5,210.3c0,0,0-0.2,0.1-0.5c0.1-0.3,0.1-0.8,0.3-1.4c0.2-1.3,0.6-3.1,1-5.5c0.9-4.7,2.2-11.6,3.8-20.1
			l0.1,0.1c-17.7-3.4-42.6-8.1-70.1-13.4h0l0.1-0.1c-1.8,9.6-3.6,18.9-5.3,27.5l-0.1-0.1c20.3,3.9,37.8,7.3,50.2,9.7
			c6.2,1.2,11.2,2.2,14.6,2.8c1.7,0.3,3,0.6,3.9,0.8c0.4,0.1,0.8,0.2,1,0.2C490.4,210.3,490.5,210.3,490.5,210.3s-0.1,0-0.3-0.1
			c-0.2,0-0.6-0.1-1-0.2c-0.9-0.2-2.2-0.4-3.9-0.7c-3.4-0.6-8.4-1.6-14.6-2.8c-12.5-2.4-30-5.7-50.3-9.6l-0.1,0l0-0.1
			c1.6-8.6,3.4-17.9,5.3-27.5l0-0.1l0.1,0h0c27.6,5.3,52.5,10.1,70.1,13.5l0.1,0l0,0.1c-1.7,8.5-3,15.4-3.9,20.2
			c-0.5,2.4-0.8,4.2-1.1,5.4c-0.1,0.6-0.2,1.1-0.3,1.4C490.6,210.2,490.5,210.3,490.5,210.3z"/>
		<path class="st10" d="M430,222.5l-8.2-1.6c-1-0.2-1.7-1.2-1.5-2.2l1.6-8.2c0.2-1,1.2-1.7,2.2-1.5l8.2,1.6c1,0.2,1.7,1.2,1.5,2.2
			l-1.6,8.2C432,222,431,222.7,430,222.5z"/>
		<g>
			<path class="st8" d="M430,222.5l-8.2-1.6c-1-0.2-1.7-1.2-1.5-2.2l1.6-8.2c0.2-1,1.2-1.7,2.2-1.5l8.2,1.6c1,0.2,1.7,1.2,1.5,2.2
				l-1.6,8.2C432,222,431,222.7,430,222.5z"/>
		</g>
		<path class="st8" d="M428.2,222.1l-8.2-1.6c-1-0.2-1.7-1.2-1.5-2.2l1.6-8.2c0.2-1,1.2-1.7,2.2-1.5l8.2,1.6c1,0.2,1.7,1.2,1.5,2.2
			l-1.6,8.2C430.2,221.6,429.2,222.3,428.2,222.1z"/>
		<path class="st7" d="M426.5,213l-0.9,5l-1.2-0.2l0.8-4l-1-0.2l0.2-0.9L426.5,213z"/>
		<path class="st10" d="M446.6,225.6l-8.2-1.6c-1-0.2-1.7-1.2-1.5-2.2l1.6-8.2c0.2-1,1.2-1.7,2.2-1.5l8.2,1.6c1,0.2,1.7,1.2,1.5,2.2
			l-1.6,8.2C448.7,225.2,447.7,225.8,446.6,225.6z"/>
		<g>
			<path class="st8" d="M446.6,225.6l-8.2-1.6c-1-0.2-1.7-1.2-1.5-2.2l1.6-8.2c0.2-1,1.2-1.7,2.2-1.5l8.2,1.6c1,0.2,1.7,1.2,1.5,2.2
				l-1.6,8.2C448.7,225.2,447.7,225.8,446.6,225.6z"/>
		</g>
		<path class="st8" d="M444.8,225.3l-8.2-1.6c-1-0.2-1.7-1.2-1.5-2.2l1.6-8.2c0.2-1,1.2-1.7,2.2-1.5l8.2,1.6c1,0.2,1.7,1.2,1.5,2.2
			l-1.6,8.2C446.8,224.8,445.8,225.5,444.8,225.3z"/>
		<path class="st7" d="M444.2,220.6l-0.2,0.9l-3.7-0.7l0.1-0.7l2.3-1.4c0.5-0.3,0.6-0.6,0.7-0.8c0.1-0.4-0.1-0.7-0.7-0.8
			c-0.4-0.1-0.8,0-1.1,0.3l-0.7-0.7c0.5-0.5,1.3-0.7,2.1-0.5c1.1,0.2,1.7,0.9,1.6,1.8c-0.1,0.5-0.3,0.9-1.1,1.4l-1.3,0.9
			L444.2,220.6z"/>
		<path class="st10" d="M463.8,228.9l-8.2-1.6c-1-0.2-1.7-1.2-1.5-2.2l1.6-8.2c0.2-1,1.2-1.7,2.2-1.5l8.2,1.6c1,0.2,1.7,1.2,1.5,2.2
			l-1.6,8.2C465.9,228.5,464.9,229.1,463.8,228.9z"/>
		<g>
			<path class="st8" d="M463.8,228.9l-8.2-1.6c-1-0.2-1.7-1.2-1.5-2.2l1.6-8.2c0.2-1,1.2-1.7,2.2-1.5l8.2,1.6c1,0.2,1.7,1.2,1.5,2.2
				l-1.6,8.2C465.9,228.5,464.9,229.1,463.8,228.9z"/>
		</g>
		<path class="st8" d="M462,228.6l-8.2-1.6c-1-0.2-1.7-1.2-1.5-2.2l1.6-8.2c0.2-1,1.2-1.7,2.2-1.5l8.2,1.6c1,0.2,1.7,1.2,1.5,2.2
			l-1.6,8.2C464,228.1,463,228.8,462,228.6z"/>
		<path class="st7" d="M461.5,223.3c-0.2,0.8-0.9,1.5-2.4,1.2c-0.7-0.1-1.4-0.5-1.8-0.9l0.6-0.8c0.3,0.4,0.8,0.6,1.3,0.7
			c0.6,0.1,1-0.1,1.1-0.5c0.1-0.4-0.2-0.7-0.8-0.8l-0.5-0.1l0.1-0.8l1.2-1l-2.1-0.4l0.2-0.9l3.5,0.7l-0.1,0.7l-1.4,1.1
			C461.3,221.9,461.6,222.5,461.5,223.3z"/>
		<path class="st10" d="M481.1,232.2l-8.2-1.6c-1-0.2-1.7-1.2-1.5-2.2l1.6-8.2c0.2-1,1.2-1.7,2.2-1.5l8.2,1.6c1,0.2,1.7,1.2,1.5,2.2
			l-1.6,8.2C483.1,231.8,482.1,232.4,481.1,232.2z"/>
		<g>
			<path class="st8" d="M481.1,232.2l-8.2-1.6c-1-0.2-1.7-1.2-1.5-2.2l1.6-8.2c0.2-1,1.2-1.7,2.2-1.5l8.2,1.6c1,0.2,1.7,1.2,1.5,2.2
				l-1.6,8.2C483.1,231.8,482.1,232.4,481.1,232.2z"/>
		</g>
		<path class="st8" d="M479.3,231.9l-8.2-1.6c-1-0.2-1.7-1.2-1.5-2.2l1.6-8.2c0.2-1,1.2-1.7,2.2-1.5l8.2,1.6c1,0.2,1.7,1.2,1.5,2.2
			l-1.6,8.2C481.3,231.4,480.3,232.1,479.3,231.9z"/>
		<path class="st7" d="M473.7,224.2l-0.1,0.5l5.3,1l0.1-0.5L473.7,224.2z"/>
		<path class="st7" d="M477.6,222.8c-0.1,0.5-0.6,0.8-1,0.7c-0.5-0.1-0.8-0.6-0.7-1c0.1-0.5,0.6-0.8,1-0.7
			C477.4,221.9,477.7,222.3,477.6,222.8z"/>
		<path class="st7" d="M476.7,227.4c-0.1,0.5-0.6,0.8-1,0.7c-0.5-0.1-0.8-0.6-0.7-1s0.6-0.8,1-0.7
			C476.5,226.5,476.8,227,476.7,227.4z"/>
		<g>
			<path class="st8" d="M427.3,240l-9.4-1.8c-0.7-0.1-1.1-0.8-1-1.5l1.8-9.4c0.1-0.7,0.8-1.1,1.5-1l9.4,1.8c0.7,0.2,1.2,0.8,1,1.5
				l-1.8,9.4C428.6,239.7,428,240.2,427.3,240z"/>
		</g>
		<path class="st8" d="M424.8,239.6l-8.2-1.6c-1-0.2-1.7-1.2-1.5-2.2l1.6-8.2c0.2-1,1.2-1.7,2.2-1.5l8.2,1.6c1,0.2,1.7,1.2,1.5,2.2
			l-1.6,8.2C426.9,239.1,425.9,239.8,424.8,239.6z"/>
		<path class="st7" d="M423.9,234.7l-0.8-0.2l-0.2,1l-1.1-0.2l0.2-1l-2.7-0.5l0.1-0.8l2.9-2.7l1.2,0.2l-2.7,2.6l1.3,0.3l0.2-0.9
			l1.1,0.2l-0.2,0.9l0.8,0.2L423.9,234.7z"/>
		<path class="st10" d="M443.3,243.1l-8.2-1.6c-1-0.2-1.7-1.2-1.5-2.2l1.6-8.2c0.2-1,1.2-1.7,2.2-1.5l8.2,1.6c1,0.2,1.7,1.2,1.5,2.2
			l-1.6,8.2C445.3,242.6,444.3,243.3,443.3,243.1z"/>
		<g>
			<path class="st8" d="M443.3,243.1l-8.2-1.6c-1-0.2-1.7-1.2-1.5-2.2l1.6-8.2c0.2-1,1.2-1.7,2.2-1.5l8.2,1.6c1,0.2,1.7,1.2,1.5,2.2
				l-1.6,8.2C445.3,242.6,444.3,243.3,443.3,243.1z"/>
		</g>
		<path class="st8" d="M441.4,242.8l-8.2-1.6c-1-0.2-1.7-1.2-1.5-2.2l1.6-8.2c0.2-1,1.2-1.7,2.2-1.5l8.2,1.6c1,0.2,1.7,1.2,1.5,2.2
			l-1.6,8.2C443.5,242.3,442.5,242.9,441.4,242.8z"/>
		<path class="st7" d="M440.4,237.3c-0.2,0.9-1,1.5-2.4,1.3c-0.7-0.1-1.4-0.5-1.8-0.9l0.6-0.8c0.3,0.4,0.8,0.6,1.3,0.7
			c0.6,0.1,1-0.1,1.1-0.5c0.1-0.4-0.1-0.7-1-0.9l-1.3-0.2l0.8-2.7l3,0.6l-0.2,0.9l-2.1-0.4l-0.3,0.9l0.4,0.1
			C440.1,235.6,440.6,236.4,440.4,237.3z"/>
		<path class="st10" d="M460.5,246.4l-8.2-1.6c-1-0.2-1.7-1.2-1.5-2.2l1.6-8.2c0.2-1,1.2-1.7,2.2-1.5l8.2,1.6c1,0.2,1.7,1.2,1.5,2.2
			l-1.6,8.2C462.5,245.9,461.5,246.6,460.5,246.4z"/>
		<g>
			<path class="st8" d="M460.5,246.4l-8.2-1.6c-1-0.2-1.7-1.2-1.5-2.2l1.6-8.2c0.2-1,1.2-1.7,2.2-1.5l8.2,1.6c1,0.2,1.7,1.2,1.5,2.2
				l-1.6,8.2C462.5,245.9,461.5,246.6,460.5,246.4z"/>
		</g>
		<path class="st8" d="M458.7,246.1l-8.2-1.6c-1-0.2-1.7-1.2-1.5-2.2l1.6-8.2c0.2-1,1.2-1.7,2.2-1.5l8.2,1.6c1,0.2,1.7,1.2,1.5,2.2
			l-1.6,8.2C460.7,245.6,459.7,246.2,458.7,246.1z"/>
		<path class="st7" d="M458,240.6c-0.2,1-1.1,1.5-2.2,1.3c-1.4-0.3-2.1-1.3-1.8-2.9c0.3-1.7,1.5-2.5,3.1-2.2c0.5,0.1,1,0.3,1.3,0.6
			l-0.6,0.8c-0.2-0.2-0.6-0.4-0.9-0.4c-0.8-0.2-1.5,0.2-1.7,1.2c0.4-0.2,0.8-0.3,1.3-0.2C457.5,238.9,458.2,239.7,458,240.6z
			 M456.9,240.5c0.1-0.5-0.2-0.8-0.7-0.9c-0.5-0.1-0.9,0.1-1,0.6c-0.1,0.4,0.2,0.8,0.7,0.9C456.4,241.1,456.8,240.9,456.9,240.5z"/>
		<path class="st10" d="M477.7,249.7l-8.2-1.6c-1-0.2-1.7-1.2-1.5-2.2l1.6-8.2c0.2-1,1.2-1.7,2.2-1.5l8.2,1.6c1,0.2,1.7,1.2,1.5,2.2
			l-1.6,8.2C479.8,249.2,478.8,249.9,477.7,249.7z"/>
		<g>
			<path class="st8" d="M477.7,249.7l-8.2-1.6c-1-0.2-1.7-1.2-1.5-2.2l1.6-8.2c0.2-1,1.2-1.7,2.2-1.5l8.2,1.6c1,0.2,1.7,1.2,1.5,2.2
				l-1.6,8.2C479.8,249.2,478.8,249.9,477.7,249.7z"/>
		</g>
		<path class="st8" d="M475.9,249.3l-8.2-1.6c-1-0.2-1.7-1.2-1.5-2.2l1.6-8.2c0.2-1,1.2-1.7,2.2-1.5l8.2,1.6c1,0.2,1.7,1.2,1.5,2.2
			l-1.6,8.2C477.9,248.9,476.9,249.5,475.9,249.3z"/>
		<path class="st7" d="M475.1,240.9l-4.5,3l0.3,0.4l4.5-3L475.1,240.9z"/>
		<path class="st7" d="M471.7,240.2l-0.4,0.3l3,4.5l0.4-0.3L471.7,240.2z"/>
		<path class="st10" d="M423.3,257.2l-8.2-1.6c-1-0.2-1.7-1.2-1.5-2.2l1.6-8.2c0.2-1,1.2-1.7,2.2-1.5l8.2,1.6c1,0.2,1.7,1.2,1.5,2.2
			l-1.6,8.2C425.4,256.8,424.4,257.4,423.3,257.2z"/>
		<g>
			<path class="st8" d="M423.3,257.2l-8.2-1.6c-1-0.2-1.7-1.2-1.5-2.2l1.6-8.2c0.2-1,1.2-1.7,2.2-1.5l8.2,1.6c1,0.2,1.7,1.2,1.5,2.2
				l-1.6,8.2C425.4,256.8,424.4,257.4,423.3,257.2z"/>
		</g>
		<path class="st8" d="M421.5,256.9l-8.2-1.6c-1-0.2-1.7-1.2-1.5-2.2l1.6-8.2c0.2-1,1.2-1.7,2.2-1.5l8.2,1.6c1,0.2,1.7,1.2,1.5,2.2
			l-1.6,8.2C423.5,256.4,422.5,257.1,421.5,256.9z"/>
		<path class="st7" d="M420.7,247.9l-0.1,0.7l-2.7,3.9l-1.3-0.2l2.6-3.7l-1.6-0.3l-0.2,0.8l-1-0.2l0.3-1.7L420.7,247.9z"/>
		<path class="st10" d="M440,260.4l-8.2-1.6c-1-0.2-1.7-1.2-1.5-2.2l1.6-8.2c0.2-1,1.2-1.7,2.2-1.5l8.2,1.6c1,0.2,1.7,1.2,1.5,2.2
			l-1.6,8.2C442,259.9,441,260.6,440,260.4z"/>
		<g>
			<path class="st8" d="M440,260.4l-8.2-1.6c-1-0.2-1.7-1.2-1.5-2.2l1.6-8.2c0.2-1,1.2-1.7,2.2-1.5l8.2,1.6c1,0.2,1.7,1.2,1.5,2.2
				l-1.6,8.2C442,259.9,441,260.6,440,260.4z"/>
		</g>
		<path class="st8" d="M438.1,260.1l-8.2-1.6c-1-0.2-1.7-1.2-1.5-2.2l1.6-8.2c0.2-1,1.2-1.7,2.2-1.5l8.2,1.6c1,0.2,1.7,1.2,1.5,2.2
			l-1.6,8.2C440.2,259.6,439.2,260.3,438.1,260.1z"/>
		<path class="st7" d="M437.5,254.8c-0.2,0.9-1.1,1.4-2.4,1.1c-1.3-0.2-2-1-1.8-1.9c0.1-0.5,0.5-0.9,1-1c-0.3-0.3-0.5-0.7-0.4-1.1
			c0.2-0.9,1.1-1.3,2.2-1.1c1.1,0.2,1.8,0.9,1.6,1.8c-0.1,0.5-0.4,0.8-0.8,0.9C437.4,253.8,437.6,254.3,437.5,254.8z M436.3,254.5
			c0.1-0.4-0.2-0.8-0.8-0.9c-0.6-0.1-1,0.1-1.1,0.5s0.2,0.8,0.8,0.9C435.8,255.2,436.2,255,436.3,254.5z M435,252.1
			c-0.1,0.4,0.2,0.7,0.7,0.8c0.5,0.1,0.8-0.1,0.9-0.5c0.1-0.4-0.2-0.7-0.7-0.8C435.5,251.5,435.1,251.7,435,252.1z"/>
		<path class="st10" d="M457.2,263.7l-8.2-1.6c-1-0.2-1.7-1.2-1.5-2.2l1.6-8.2c0.2-1,1.2-1.7,2.2-1.5l8.2,1.6c1,0.2,1.7,1.2,1.5,2.2
			l-1.6,8.2C459.2,263.2,458.2,263.9,457.2,263.7z"/>
		<g>
			<path class="st8" d="M457.2,263.7l-8.2-1.6c-1-0.2-1.7-1.2-1.5-2.2l1.6-8.2c0.2-1,1.2-1.7,2.2-1.5l8.2,1.6c1,0.2,1.7,1.2,1.5,2.2
				l-1.6,8.2C459.2,263.2,458.2,263.9,457.2,263.7z"/>
		</g>
		<path class="st8" d="M455.4,263.4l-8.2-1.6c-1-0.2-1.7-1.2-1.5-2.2l1.6-8.2c0.2-1,1.2-1.7,2.2-1.5l8.2,1.6c1,0.2,1.7,1.2,1.5,2.2
			l-1.6,8.2C457.4,262.9,456.4,263.6,455.4,263.4z"/>
		<path class="st7" d="M454.7,256.9c-0.3,1.7-1.5,2.5-3,2.2c-0.5-0.1-1-0.3-1.3-0.6l0.6-0.8c0.2,0.2,0.5,0.4,0.9,0.4
			c0.8,0.2,1.5-0.2,1.7-1.2c-0.4,0.2-0.8,0.3-1.3,0.2c-1-0.2-1.6-0.9-1.4-1.9c0.2-1,1.1-1.5,2.2-1.3
			C454.4,254.3,455,255.3,454.7,256.9z M453.6,255.8c0.1-0.4-0.2-0.8-0.7-0.9c-0.5-0.1-0.9,0.1-1,0.6c-0.1,0.5,0.2,0.8,0.7,0.9
			C453.1,256.5,453.5,256.2,453.6,255.8z"/>
		<path class="st10" d="M474.4,267l-8.2-1.6c-1-0.2-1.7-1.2-1.5-2.2l1.6-8.2c0.2-1,1.2-1.7,2.2-1.5l8.2,1.6c1,0.2,1.7,1.2,1.5,2.2
			l-1.6,8.2C476.5,266.5,475.5,267.2,474.4,267z"/>
		<g>
			<path class="st8" d="M474.4,267l-8.2-1.6c-1-0.2-1.7-1.2-1.5-2.2l1.6-8.2c0.2-1,1.2-1.7,2.2-1.5l8.2,1.6c1,0.2,1.7,1.2,1.5,2.2
				l-1.6,8.2C476.5,266.5,475.5,267.2,474.4,267z"/>
		</g>
		<path class="st8" d="M472.6,266.7l-8.2-1.6c-1-0.2-1.7-1.2-1.5-2.2l1.6-8.2c0.2-1,1.2-1.7,2.2-1.5l8.2,1.6c1,0.2,1.7,1.2,1.5,2.2
			l-1.6,8.2C474.6,266.2,473.6,266.9,472.6,266.7z"/>
		<path class="st7" d="M467,259.2l-0.1,0.5l5.3,1l0.1-0.5L467,259.2z"/>
		<path class="st10" d="M453.8,281.2l-8.2-1.6c-1-0.2-1.7-1.2-1.5-2.2l1.6-8.2c0.2-1,1.2-1.7,2.2-1.5l8.2,1.6c1,0.2,1.7,1.2,1.5,2.2
			l-1.6,8.2C455.9,280.7,454.9,281.4,453.8,281.2z"/>
		<g>
			<path class="st8" d="M453.8,281.2l-8.2-1.6c-1-0.2-1.7-1.2-1.5-2.2l1.6-8.2c0.2-1,1.2-1.7,2.2-1.5l8.2,1.6c1,0.2,1.7,1.2,1.5,2.2
				l-1.6,8.2C455.9,280.7,454.9,281.4,453.8,281.2z"/>
		</g>
		<path class="st8" d="M452,280.8l-8.2-1.6c-1-0.2-1.7-1.2-1.5-2.2l1.6-8.2c0.2-1,1.2-1.7,2.2-1.5l8.2,1.6c1,0.2,1.7,1.2,1.5,2.2
			l-1.6,8.2C454.1,280.3,453,281,452,280.8z"/>
		<path class="st11" d="M471.1,284.5l-8.2-1.6c-1-0.2-1.7-1.2-1.5-2.2l1.6-8.2c0.2-1,1.2-1.7,2.2-1.5l8.2,1.6c1,0.2,1.7,1.2,1.5,2.2
			l-1.6,8.2C473.1,284,472.1,284.7,471.1,284.5z"/>
		<g class="st12">
			<path class="st13" d="M471.1,284.5l-8.2-1.6c-1-0.2-1.7-1.2-1.5-2.2l1.6-8.2c0.2-1,1.2-1.7,2.2-1.5l8.2,1.6
				c1,0.2,1.7,1.2,1.5,2.2l-1.6,8.2C473.1,284,472.1,284.7,471.1,284.5z"/>
		</g>
		<path class="st5" d="M469.2,284.1l-8.2-1.6c-1-0.2-1.7-1.2-1.5-2.2l1.6-8.2c0.2-1,1.2-1.7,2.2-1.5l8.2,1.6c1,0.2,1.7,1.2,1.5,2.2
			l-1.6,8.2C471.3,283.6,470.3,284.3,469.2,284.1z"/>
		<path class="st7" d="M463.8,276l-0.1,0.5l5.3,1l0.1-0.5L463.8,276z"/>
		<path class="st7" d="M463.4,278l-0.1,0.5l5.3,1l0.1-0.5L463.4,278z"/>
		<path class="st8" d="M434,277.5l-24.2-4.6c-1.3-0.2-2.1-1.4-1.8-2.7l1.5-7.7c0.2-1.3,1.4-2.1,2.7-1.8l24.2,4.6
			c1.3,0.2,2.1,1.4,1.8,2.7l-1.5,7.7C436.4,277,435.2,277.8,434,277.5z"/>
		<path class="st7" d="M422,268.7c0.3-1.6,1.4-2.4,2.6-2.2c1.2,0.2,2,1.3,1.6,3c-0.3,1.6-1.4,2.4-2.6,2.2
			C422.4,271.4,421.7,270.3,422,268.7z M425.1,269.3c0.2-1.1-0.1-1.7-0.7-1.8c-0.6-0.1-1.1,0.3-1.3,1.4c-0.2,1.1,0.1,1.7,0.7,1.8
			C424.4,270.8,424.9,270.4,425.1,269.3z"/>
		<path class="st7" d="M449.4,271.4l-1.1,5.3l0.5,0.1l1.1-5.3L449.4,271.4z"/>
		<path class="st7" d="M446.4,273.3l-0.1,0.5l5.3,1l0.1-0.5L446.4,273.3z"/>
		<path class="st8" d="M451.3,188.7l-1.4,7.4l-0.4-0.1l1.4-7.1l-1.9-0.4l0.1-0.3L451.3,188.7z"/>
		<path class="st8" d="M456.7,197.1l-0.1,0.3l-5-1l0-0.3l3.8-2.6c1.1-0.7,1.4-1.2,1.5-1.8c0.2-1-0.4-1.8-1.7-2c-1-0.2-1.8,0-2.4,0.5
			l-0.2-0.3c0.7-0.5,1.6-0.7,2.7-0.5c1.4,0.3,2.2,1.2,2,2.4c-0.1,0.7-0.5,1.3-1.6,2.1l-3.5,2.4L456.7,197.1z"/>
		<path class="st8" d="M462.8,196.5c-0.2,1.2-1.3,1.9-2.9,1.6c-1.1-0.2-2-0.8-2.4-1.5l0.2-0.2c0.3,0.6,1.1,1.2,2.2,1.4
			c1.4,0.3,2.3-0.3,2.5-1.4c0.2-1.1-0.4-1.9-2-2.2l-0.4-0.1l0-0.3l2.9-2.6l-4.1-0.8l0.1-0.3l4.6,0.9l0,0.3l-2.9,2.6
			C462.3,194.2,463,195.2,462.8,196.5z"/>
		<path class="st8" d="M470.1,197.8l-1.6-0.3l-0.4,2.1l-0.3-0.1l0.4-2.1l-4.3-0.8l0-0.3l5.1-4.2l0.4,0.1l-5,4.2l3.8,0.7l0.4-1.9
			l0.4,0.1l-0.4,1.9l1.6,0.3L470.1,197.8z"/>
		<path class="st8" d="M471.5,199.9c0,0.1-0.1,0.2-0.1,0.4l-0.7,1.3l-0.3-0.1l0.6-1.4c-0.2-0.1-0.3-0.2-0.2-0.4
			c0-0.2,0.2-0.3,0.4-0.3C471.4,199.6,471.5,199.8,471.5,199.9z"/>
		<path class="st8" d="M479,199.5l-1.6-0.3l-0.4,2.1l-0.3-0.1l0.4-2.1l-4.3-0.8l0-0.3l5.1-4.2l0.4,0.1l-5,4.2l3.8,0.7l0.4-1.9
			l0.4,0.1l-0.4,1.9l1.6,0.3L479,199.5z"/>
		<path class="st8" d="M484.5,200.6c-0.2,1.2-1.3,2-2.9,1.7c-1.1-0.2-2-0.8-2.4-1.5l0.2-0.2c0.3,0.6,1.1,1.2,2.2,1.4
			c1.5,0.3,2.3-0.3,2.5-1.4c0.2-1.1-0.3-2-2.5-2.4l-1.4-0.3l1.1-3.4l3.8,0.7l-0.1,0.3l-3.5-0.7l-0.9,2.8l1.1,0.2
			C484.1,198.3,484.8,199.3,484.5,200.6z"/>
		<path class="st5" d="M122,406.1H56v6.1H122V406.1z"/>
		<path class="st8" d="M122,406.1H56v6.1H122V406.1z"/>
		<path class="st5" d="M117,230H61v176.1h56V230z"/>
		<path class="st5" d="M117,230H61v176.1h56V230z"/>
		<path class="st8" d="M66.8,401.2c-0.5,0-0.9-0.4-0.9-0.9V240.5c0-0.5,0.4-0.9,0.9-0.9s0.9,0.4,0.9,0.9v159.8
			C67.7,400.8,67.3,401.2,66.8,401.2z"/>
		<path class="st8" d="M71.7,401.2c-0.5,0-0.9-0.4-0.9-0.9V240.5c0-0.5,0.4-0.9,0.9-0.9c0.5,0,0.9,0.4,0.9,0.9v159.8
			C72.7,400.8,72.2,401.2,71.7,401.2z"/>
		<path class="st8" d="M76.7,401.2c-0.5,0-0.9-0.4-0.9-0.9V240.5c0-0.5,0.4-0.9,0.9-0.9s0.9,0.4,0.9,0.9v159.8
			C77.6,400.8,77.2,401.2,76.7,401.2z"/>
		<path class="st8" d="M81.6,401.2c-0.5,0-0.9-0.4-0.9-0.9V240.5c0-0.5,0.4-0.9,0.9-0.9s0.9,0.4,0.9,0.9v159.8
			C82.5,400.8,82.1,401.2,81.6,401.2z"/>
		<path class="st8" d="M86.5,401.2c-0.5,0-0.9-0.4-0.9-0.9V240.5c0-0.5,0.4-0.9,0.9-0.9c0.5,0,0.9,0.4,0.9,0.9v159.8
			C87.5,400.8,87,401.2,86.5,401.2z"/>
		<path class="st8" d="M91.5,401.2c-0.5,0-0.9-0.4-0.9-0.9V240.5c0-0.5,0.4-0.9,0.9-0.9s0.9,0.4,0.9,0.9v159.8
			C92.4,400.8,92,401.2,91.5,401.2z"/>
		<path class="st8" d="M96.4,401.2c-0.5,0-0.9-0.4-0.9-0.9V240.5c0-0.5,0.4-0.9,0.9-0.9c0.5,0,0.9,0.4,0.9,0.9v159.8
			C97.3,400.8,96.9,401.2,96.4,401.2z"/>
		<path class="st8" d="M101.3,401.2c-0.5,0-0.9-0.4-0.9-0.9V240.5c0-0.5,0.4-0.9,0.9-0.9c0.5,0,0.9,0.4,0.9,0.9v159.8
			C102.2,400.8,101.8,401.2,101.3,401.2z"/>
		<path class="st8" d="M106.3,401.2c-0.5,0-0.9-0.4-0.9-0.9V240.5c0-0.5,0.4-0.9,0.9-0.9c0.5,0,0.9,0.4,0.9,0.9v159.8
			C107.2,400.8,106.8,401.2,106.3,401.2z"/>
		<path class="st8" d="M111.2,401.2c-0.5,0-0.9-0.4-0.9-0.9V240.5c0-0.5,0.4-0.9,0.9-0.9c0.5,0,0.9,0.4,0.9,0.9v159.8
			C112.1,400.8,111.7,401.2,111.2,401.2z"/>
		<path class="st8" d="M117,230v7.3l-56-1.6V230H117z"/>
		<path class="st5" d="M126,412.2H52v10.9H126V412.2z"/>
		<path class="st5" d="M132.1,230.8c0,5.9-4.2,11-11.3,11c-10.6,0-11.2-10.9-11.2-10.9H68.4c0,0-0.6,10.9-11.1,10.9
			c-7.2,0-11.3-5.1-11.3-11c0-5.2,3.7-12.5,14.4-12.5c8.1,0,28.7,0,28.7,0s20.6,0,28.7,0C128.4,218.3,132.1,225.6,132.1,230.8z"/>
		<path class="st8" d="M68.4,230.9c-0.4-5.2-5.3-7.1-8.6-6.5c-4.8,0.9-7.5,6.4-5,9.8c1.9,2.6,5.4,1.7,6-0.6c0.8-3.2-2.4-4.8-1.2-6.7
			c1.2-1.9,4.2-1.6,6.1-0.3C67.7,228,68.4,230.9,68.4,230.9z"/>
		<path class="st8" d="M109.6,230.9c0.4-5.2,5.3-7.1,8.6-6.5c4.8,0.9,7.5,6.4,5,9.8c-1.9,2.6-5.4,1.7-6-0.6
			c-0.8-3.2,2.4-4.8,1.2-6.7c-1.2-1.9-4.2-1.6-6.1-0.3C110.3,228,109.6,230.9,109.6,230.9z"/>
		<path class="st8" d="M63.3,163.7c0,4.9-5.8,9.4-12.7,9.4c-6.8,0-12.7-4.4-12.7-9.4H63.3z"/>
		<path class="st8" d="M60.9,162.6c-1.9-4.4-3.7-8.8-5.4-13.2c-0.9-2.2-1.8-4.4-2.6-6.6l-2.6-6.6H51l-2.6,6.6
			c-0.9,2.2-1.7,4.4-2.6,6.6c-1.8,4.4-3.6,8.8-5.4,13.2c1.5-4.5,3.2-9,4.8-13.4c0.8-2.2,1.7-4.5,2.5-6.7l2.5-6.7l0.4-1l0.4,1
			l2.5,6.7c0.8,2.2,1.7,4.4,2.5,6.7C57.7,153.6,59.3,158,60.9,162.6z"/>
		<path class="st5" d="M64,162H37.3v1.7H64V162z"/>
		<path class="st8" d="M140,179.2c0,4.9-5.8,9.4-12.7,9.4c-6.8,0-12.7-4.4-12.7-9.4H140z"/>
		<path class="st8" d="M137.6,178c-1.9-4.4-3.7-8.8-5.4-13.2c-0.9-2.2-1.8-4.4-2.6-6.6l-2.6-6.7h0.8l-2.6,6.7
			c-0.9,2.2-1.7,4.4-2.6,6.6c-1.8,4.4-3.6,8.8-5.4,13.2c1.5-4.5,3.2-9,4.8-13.4c0.8-2.2,1.7-4.5,2.5-6.7l2.5-6.7l0.4-1l0.4,1
			l2.5,6.7c0.8,2.2,1.7,4.4,2.5,6.7C134.4,169,136,173.5,137.6,178z"/>
		<path class="st5" d="M140.7,177.5H114v1.7h26.8V177.5z"/>
		<path class="st8" d="M126.8,151.9c-2.1-0.2-3.3-1.6-5.6-2.9c-3.4-1.8-16.5-4.9-22.3-5.6c-2.3-0.3-7.4,0.8-10.8,0.1
			c-3.4-0.7-7.7-3.6-9.9-4.3c-5.6-1.6-18.9-3.8-22.7-3.4c-2.6,0.3-4.2,1.1-6.3,0.5c-3.3-0.9-2.8-5.8,1.5-4.9c4.3,0.9,5.4,1.9,11,3
			c2.4,0.5,17.3,1.7,21.4,2.5c4.1,0.8,6,1.8,6,1.8s2.1-0.2,6.2,0.6c4.1,0.8,18.3,5.4,20.7,5.9c5.6,1.2,7,0.6,11.3,1.5
			C131.6,147.6,130.3,152.3,126.8,151.9z"/>
		<path class="st8" d="M115.6,209h-54v9.3h54V209z"/>
		<path class="st8" d="M112.8,206.7H64.4v2.3h48.4V206.7z"/>
		<path class="st8" d="M92,206.7h-6.7c0,0-1.4-5.8-1.1-15.2c0.3-9.4,3.1-50.2,3.1-50.2h2.6c0,0,2.8,40.7,3.1,50.2
			C93.4,200.9,92,206.7,92,206.7z"/>
		<path class="st8" d="M90.7,135.1c0,3.4-0.9,4.4-0.9,4.4h-2.5c0,0-0.9-0.9-0.9-4.4c0-3.4,1.6-14.2,1.6-14.2h0.9
			C89.1,120.9,90.7,131.7,90.7,135.1z"/>
		<path class="st5" d="M91.8,140.9c0,1.8-1.4,3.2-3.2,3.2c-1.8,0-3.2-1.4-3.2-3.2c0-1.8,1.4-3.2,3.2-3.2
			C90.4,137.7,91.8,139.1,91.8,140.9z"/>
		<path class="st5" d="M88.6,123.4c1.4,0,2.6-1.1,2.6-2.6s-1.1-2.6-2.6-2.6s-2.6,1.1-2.6,2.6S87.2,123.4,88.6,123.4z"/>
		<path class="st5" d="M177.6,368.9l6.6,54.6h126.2v-15.2c2-18.7,4.9-25.6,6.9-53.7l6.6-71.8l-44.4-12.4l-10.6-13.2v0h-49.4
			l-9.4,10.6L166,278"/>
		<path class="st14" d="M177.6,368.9l6.6,54.6h126.2v-15.2c2-18.7,4.9-25.6,6.9-53.7l6.6-71.8l-44.4-12.4l-10.6-13.2v0h-49.4
			l-9.4,10.6L166,278"/>
		<path class="st8" d="M251.2,312.9l-34.4-40.8l42.7,119l5.8-36.5l5.4-71.9L251.2,312.9z"/>
		<path class="st8" d="M259.9,396c-0.1-0.2-0.3-0.6-0.6-1c-0.5-0.9-1.2-2.2-2.2-3.8c-1.9-3.3-4.6-8.1-7.9-14
			c-6.7-11.8-15.8-28.1-25.9-46.1c-5-8.9-9.7-17.4-14-25.1l-0.1-0.2l0.1-0.1c2.1-1.8,4.2-3.5,6.1-5.2l0,0.3c-3.1-1.8-6-3.6-8.7-5.2
			l-0.1-0.1l0-0.1c1-8.5,1.9-15.4,2.4-20.3c0.3-2.4,0.5-4.2,0.7-5.5c0.1-0.6,0.1-1.1,0.2-1.4c0-0.3,0.1-0.5,0.1-0.5s0,0.2,0,0.5
			c0,0.4-0.1,0.8-0.1,1.5c-0.1,1.3-0.3,3.2-0.6,5.6c-0.5,4.8-1.3,11.8-2.3,20.3l-0.1-0.2c2.7,1.6,5.6,3.3,8.7,5.1l0.2,0.1l-0.2,0.2
			c-2,1.7-4,3.4-6.1,5.2l0-0.3c4.3,7.7,9.1,16.2,14.1,25.1c10.1,18,19.2,34.4,25.8,46.2c3.3,5.9,5.9,10.7,7.8,14
			c0.9,1.6,1.6,2.9,2.1,3.8C259.6,395.4,259.8,395.7,259.9,396c0.2,0.2,0.2,0.3,0.2,0.3S260,396.2,259.9,396z"/>
		<path class="st8" d="M260.2,395.9c0.1-0.2,0.2-0.6,0.3-1c0.2-0.9,0.6-2.2,1.1-3.9c1-3.4,2.3-8.3,4-14.3c1.7-6,3.8-13.2,6-21.2
			c2-8,4-17,6.1-26.3c2.8-12.8,5.4-24.8,7.5-35l0.1,0.2c-2-0.7-4-1.4-5.8-2.1l-0.4-0.1l0.4-0.2c2.6-1.3,4.9-2.6,7.1-3.7l-0.1,0.2
			c-2.2-5.6-3.9-10.1-5.1-13.3c-0.6-1.5-1-2.8-1.4-3.6c-0.1-0.4-0.3-0.7-0.3-0.9c-0.1-0.2-0.1-0.3-0.1-0.3c0,0,0.1,0.1,0.1,0.3
			c0.1,0.2,0.2,0.5,0.4,0.9c0.3,0.8,0.8,2,1.4,3.6c1.2,3.1,3,7.6,5.3,13.2l0.1,0.1l-0.1,0.1c-2.2,1.2-4.5,2.4-7.1,3.7l0-0.3
			c1.9,0.7,3.8,1.3,5.8,2l0.2,0.1l0,0.2c-2.1,10.2-4.7,22.2-7.5,35c-2.1,9.3-4,18.3-6.1,26.3c-2.2,8-4.3,15.2-6.1,21.2
			c-1.8,6-3.2,10.9-4.2,14.3c-0.5,1.7-0.9,3-1.2,3.9C260.4,395.4,260.3,395.7,260.2,395.9c0,0.2-0.1,0.4-0.1,0.4
			C260.1,396.3,260.1,396.2,260.2,395.9z"/>
		<path class="st5" d="M315.2,368.3l13.5,41.8c1.6,5.3,4.8,10,9.2,13.4h32.1c0,0,27.4-14.9,31.2-22.1c3.7-7.2-12.8-27.8-12.8-27.8
			l-22.5,6.6c0,0-20.3-54.8-25.3-70.7c-5.8-18.6-14.4-25.2-16.7-26.7c-0.4-0.3-0.7-0.2-0.7-0.2"/>
		<path class="st14" d="M315.2,368.3l13.5,41.8c1.6,5.3,4.8,10,9.2,13.4h32.1c0,0,27.4-14.9,31.2-22.1c3.7-7.2-12.8-27.8-12.8-27.8
			l-22.5,6.6c0,0-20.3-54.8-25.3-70.7c-5.8-18.6-14.4-25.2-16.7-26.7c-0.4-0.3-0.7-0.2-0.7-0.2"/>
		<path class="st5" d="M175.9,355.9l-30.5,33.8l17,3.6l-4.8,30l-38.3,0.2h-15.5c0,0-11.1-5.1-5.5-31c3.7-17.3,48.5-90.2,54.1-100.1
			c5.6-10,14.1-14.5,14.1-14.5"/>
		<path class="st15" d="M175.9,355.9l-30.5,33.8l17,3.6l-4.8,30l-38.3,0.2h-15.5c0,0-11.1-5.1-5.5-31c3.7-17.3,48.5-90.2,54.1-100.1
			c5.6-10,14.1-14.5,14.1-14.5"/>
		<path class="st8" d="M317.8,340.6c-1.3,15.3-2.4,27.7-2.6,27.7c-0.1,0,0.8-12.4,2.1-27.7c1.3-15.3,2.4-27.7,2.6-27.7
			C320,312.9,319.1,325.3,317.8,340.6z"/>
		<path class="st8" d="M173.2,333.5c2.3,19.1,4.5,35.5,4.4,35.6c-0.1,0-2.5-16.4-4.8-35.5c-2.3-19.1-4.1-34.5-3.9-34.5
			C168.9,299,170.9,314.5,173.2,333.5z"/>
		<path class="st8" d="M156.6,423c-0.3-0.3-0.7-0.9-1.2-1.6c-1-1.4-2.2-3.7-3.1-6.7c-0.5-1.5-0.9-3.2-1.1-5
			c-0.3-1.8-0.5-3.8-0.3-5.9c0.2-2.1,0.9-4.2,2.2-6.1c1.3-1.9,2.9-3.6,5-4.9c0.1-0.1,0.3-0.2,0.4-0.3l0,0.4c-9-2.7-17.5-4-23.6-4.5
			c-3.1-0.3-5.5-0.5-7.3-0.6c-0.8-0.1-1.5-0.1-2-0.1c-0.5,0-0.7-0.1-0.7-0.1c0,0,0.2,0,0.7,0c0.5,0,1.1,0,2,0
			c1.7,0.1,4.2,0.2,7.3,0.4c6.1,0.5,14.6,1.8,23.7,4.4l0.6,0.2l-0.5,0.3c-0.1,0.1-0.3,0.2-0.4,0.2c-2,1.2-3.6,2.9-4.9,4.8
			c-1.2,1.8-1.9,3.9-2.1,5.9c-0.2,2,0,4,0.2,5.8c0.2,1.8,0.6,3.5,1.1,5c0.9,3,2,5.2,3,6.7C156,422.1,156.4,422.6,156.6,423
			c0.4,0.3,0.5,0.5,0.5,0.5C157.1,423.5,157,423.4,156.6,423z"/>
		<path class="st8" d="M259.7,409.7c0-7.6,0.1-13.8,0.2-13.8s0.2,6.2,0.2,13.8c0,7.6-0.1,13.8-0.2,13.8S259.7,417.4,259.7,409.7z"/>
		<path class="st8" d="M188.1,361.8c0-0.4,0-1,0-1.8c0-1.6,0-4-0.1-6.9v-0.1h0.1c8.6,0,22.5-0.1,38.2-0.1c0.1,0.1-0.2-0.2,0.2,0.2v0
			v0v0v0v0.1v0.1v0.3v0.6v1.2c0,0.8,0,1.6,0,2.4c0,1.6,0,3.1,0,4.6v0.2h-0.2c-10.9,0-20.5-0.1-27.3-0.1c-3.4,0-6.1,0-8-0.1
			c-0.9,0-1.6,0-2.1,0c-0.5,0-0.7,0-0.7,0c0,0,0.1,0,0.2,0c0.2,0,0.3,0,0.6,0c0.5,0,1.3,0,2.2,0c1.9,0,4.7,0,8.1-0.1
			c6.8,0,16.3-0.1,27.2-0.1l-0.2,0.2c0-1.5,0-3,0-4.6c0-0.8,0-1.6,0-2.4v-1.2v-0.6v-0.3v-0.1v-0.1v0v0v0v0c0.5,0.5,0.1,0.1,0.2,0.2
			c-15.7,0-29.6-0.1-38.2-0.1l0.1-0.1c0,2.9-0.1,5.2-0.1,6.8C188.1,360.7,188.1,361.3,188.1,361.8c0,0.4,0,0.6,0,0.6
			C188.1,362.4,188.1,362.2,188.1,361.8z"/>
		<path class="st8" d="M322.2,296.8c1.4-6.6,2.7-11.9,2.8-11.9c0.1,0-0.9,5.4-2.3,12c-1.4,6.6-2.7,11.9-2.8,11.9
			C319.7,308.8,320.8,303.4,322.2,296.8z"/>
		<g>
			<path class="st8" d="M209.4,305.9l6.1-5.2l-8.7-5.2l4.5,5.7l-7.9,7.6l54.5,83.6L209.4,305.9z"/>
		</g>
		<g>
			<path class="st8" d="M330.7,395.3v4.8l61.9-0.2v-4.6H330.7z"/>
		</g>
		<path class="st8" d="M299.5,230.2c2,1.5,4,3.1,6,4.6c-5.5,5.2-13.3,7.9-20.8,7.5c2.5,3.3,3.3,7.8,2.1,11.7
			c-4.8-0.5-9.2-3.1-12.6-6.5c-3.4-3.4-6-7.5-8.4-11.6c-8.3-14.2-15.3-29.6-17.4-46c-2.1-16.4,1.1-33.9,11.2-46.9l28,16.2
			c10.8,7.4,17,21,15.4,34c-0.5,4.5-1.9,9.1-0.4,13.4c1.3,3.9,5.1,6.8,9.2,7c1.8,0.1,3.8-0.1,5,1.2c1.6,1.6,0.4,4.6-1.6,5.6
			c-2,1-4.4,0.7-6.6,0.4c1.9,2.7,5.3,4.3,8.6,3.8C312.5,229,305.9,231.1,299.5,230.2z"/>
		<path class="st16" d="M209.2,179.2l8.4,94.2l34.6,47.8l17.9-37.3c-0.2-7.5-0.8-30.7-0.8-30.6c0,0,19.5-3.9,22.8-29.6
			c1.6-12.8,0.4-30.7-1.2-47.8c-1.4-15.3-12.2-33.8-27.4-31.7l-35.1,10c-11.3,3.2-18.6,13-19.1,24.7
			C209.3,179.5,209.2,178.8,209.2,179.2z"/>
		<path class="st8" d="M280.7,194.2c-1.8,0.2-3.2,1.7-3.1,3.4c0.1,1.7,1.7,3,3.5,2.9c1.8-0.2,3.2-1.7,3.1-3.4
			C284.1,195.4,282.5,194.1,280.7,194.2z"/>
		<path class="st8" d="M286,184.3c-1.1-0.8-3-1.5-5.2-1.5c-2.2,0.1-4.1,0.9-5.1,1.8c-1.1,0.9-1.5,1.6-1.3,1.8
			c0.4,0.4,2.9-1.5,6.5-1.5c3.5-0.1,6.1,1.6,6.5,1.2C287.6,185.8,287.2,185.1,286,184.3z"/>
		<path class="st8" d="M250.8,194.2c-1.8,0.2-3.2,1.7-3.1,3.4c0.1,1.7,1.7,3,3.5,2.9c1.8-0.2,3.2-1.7,3.1-3.4
			C254.2,195.4,252.6,194.1,250.8,194.2z"/>
		<path class="st8" d="M252.5,185.2c-1.1-0.8-3-1.5-5.2-1.5c-2.2,0.1-4.1,0.9-5.1,1.8c-1.1,0.9-1.5,1.6-1.3,1.8
			c0.4,0.4,2.9-1.5,6.5-1.5c3.5-0.1,6.1,1.6,6.5,1.2C254,186.8,253.6,186,252.5,185.2z"/>
		<path class="st8" d="M271.5,214.2c0.4,0,0.9-0.1,1.5-0.3c0.6-0.2,1.2-0.7,1.4-1.4c0.4-1.4-0.2-2.5-0.6-3.5
			c-0.9-2.2-1.8-4.4-2.8-6.8c-4-9.7-7.6-17.4-7.9-17.2c-0.4,0.2,2.5,8.1,6.5,17.8c1,2.4,2,4.6,2.9,6.8c0.5,1,0.9,2,0.7,2.7
			c-0.1,0.6-1,0.8-1.9,0.9c-3.5,0.6-5.7,1-5.7,1.2C265.7,214.6,267.9,214.5,271.5,214.2z"/>
		<path class="st8" d="M269.3,253.2l0.2,6c-25.5,3.2-34.4-14.1-34.4-14.1C252.5,254.8,269.3,253.2,269.3,253.2z"/>
		<path class="st8" d="M250.2,173.8c-1.5-0.6-3.8-0.9-6.3-0.5c-2.5,0.3-4.6,1.3-5.9,2.3c-1.3,1-1.9,1.9-1.6,2.3c0.6,0.8,3.9-0.5,8-1
			c4.1-0.6,7.7-0.3,8-1.3C252.5,175.1,251.7,174.4,250.2,173.8z"/>
		<path class="st8" d="M284.7,173.2c-1-0.8-2.8-1.5-4.8-1.5c-2,0-3.8,0.7-4.8,1.5c-1.1,0.8-1.4,1.6-1.2,2c0.6,0.8,3,0.1,6,0.1
			c2.9,0,5.4,0.7,6-0.1C286.2,174.9,285.8,174,284.7,173.2z"/>
		<path class="st7" d="M255.3,226.5c2,0.8,4.5,0.2,5.9-1.4l0.1-0.3c0.5-1.5,0.4-3.2-0.3-4.6c-0.7-1.4-2.2-2.4-3.8-2.5
			c-2.1-0.2-4.3,1.5-4.7,3.6C252,223.4,253.3,225.7,255.3,226.5z"/>
		<path class="st8" d="M261.4,225.8c-1.5,0-3.6-0.6-5.3-2.4c-1.7-1.8-2.4-4-2.4-5.6c-0.1-1.6,0.3-2.5,0.5-2.5c0.5,0,0.4,3.8,3.2,6.7
			c2.8,2.8,6.3,2.6,6.3,3.1C263.7,225.4,262.9,225.8,261.4,225.8z"/>
		<path class="st8" d="M229.3,145.7l-1.5,0.1c6.3,7.9,16.3,12.7,26.4,12.7c6,0,12.5-1.6,17.7,1.5c5,3,6.8,9.2,10.9,13.3
			c2.8,2.8,6.5,4.5,9.2,7.4c2.9,3,4.3,7.1,5.7,11c0.7-2.4,0.8-4.8,0.4-7.3c2.8,6.1,1.7,13.4,0.4,20.1c7.4-5.3,8.7-16.1,6.2-24.8
			c-2.4-8.8-7.8-16.4-11.5-24.6c-3-6.7-5.9-15.4-12.4-18.7c-4.8-2.4-8.1-1.8-12.1-2.6c-4-0.8-8.3-4.9-8.3-4.9
			c-5.5-5-10.5-6.4-18.8-5c-7.3,1.3-16.6,7.8-20.6,14.1C223.9,141.4,226.6,143.8,229.3,145.7z"/>
		<path class="st8" d="M185.4,223.4c1-1.8,1.9-3.5,2.9-5.3c0.5,7.3,3.6,14.4,8.6,19.6c0.4-1.8,0.7-3.7,1.1-5.5
			c2.7,5.5,7,10.2,12.3,13.3l6.2,17.3c9.9-30.2-10.1-33.5,12-86.2c2.7-2.6,4.7-5.9,6.1-9.3c1.5-3.5,2.4-7.2,3.3-11
			c0.9-1.9,1.9-3.8,2.9-5.8l-2.4-2.2l-0.2-10c-4.1-1.6-8.5-2-12.9-1.5l-0.9-0.8c-12.8-0.7-21,11.4-25.4,20.7
			c-3.3,6.9-4.3,14.7-6.7,21.9c-2.5,7.5-6.6,14.3-8.9,21.9C181.2,208.3,180.9,217,185.4,223.4z"/>
		<path class="st16" d="M221.7,221.6c0,0.5-16.3,4.1-16.6-12.1c-0.3-16.7,15.6-11.5,16-10.7C221.1,198.8,221.7,221.1,221.7,221.6z"
			/>
		<path class="st8" d="M216,216.3c-0.5,0.4-1.4,0.8-2.6,0.5c-2.4-0.6-4.1-3.7-4.3-6.9c-0.1-1.7,0.3-3.3,0.9-4.6
			c0.6-1.3,1.7-2.5,2.9-2.6c0.6-0.1,1.2,0.1,1.6,0.4c0.4,0.3,0.6,0.7,0.7,1c0.1,0.7-0.2,1-0.2,0.9c-0.1,0,0-0.4-0.2-0.8
			c-0.2-0.5-0.8-1-1.7-0.7c-0.9,0.2-1.6,1-2.1,2.2c-0.5,1.2-0.8,2.6-0.7,4.1c0.1,2.9,1.6,5.6,3.4,6.2c0.9,0.3,1.7,0.1,2.1-0.1
			c0.5-0.2,0.7-0.5,0.8-0.4C216.6,215.6,216.5,215.9,216,216.3z"/>
		<path class="st7" d="M215.6,218.7c1.5,0.6,2.3,2.5,1.8,4c-0.5,1.5-2.4,2.5-3.9,2c-1.6-0.4-2.6-2.2-2.2-3.8c0.3-1.6,2-2.7,3.6-2.5"
			/>
		<path class="st8" d="M216.3,219c0.4,0.3,1,0.8,1.3,1.7c0.3,0.9,0.3,2.2-0.5,3.2c-0.8,1-2.3,1.6-3.7,1.2c-1.5-0.4-2.4-1.8-2.5-3
			c-0.2-1.3,0.5-2.4,1.2-3c0.7-0.6,1.5-0.8,2-0.8c0.5,0,0.8,0.1,0.8,0.2c0,0.1-1.2-0.1-2.4,1c-0.6,0.5-1.1,1.5-0.9,2.5
			c0.2,1,0.9,2.1,2,2.4c1.1,0.3,2.3-0.2,3-1c0.7-0.8,0.8-1.8,0.6-2.6c-0.5-1.6-1.6-2-1.5-2.1C215.6,218.6,215.9,218.7,216.3,219z"/>
		<path class="st7" d="M238.7,151.1c-0.8-2.1-2.3-5-4.7-7.6c-2.3-2.6-4.9-4.5-6.9-5.6c-2-1.1-3.4-1.5-3.4-1.4
			c-0.2,0.3,5.1,2.5,9.5,7.7c4.5,5.1,6,10.6,6.4,10.5C239.7,154.7,239.5,153.3,238.7,151.1z"/>
		<path class="st17" d="M373.5,376.1c0-0.6,8.7-11.3,8.7-11.3v-4.6c2.1-10.6,33.5-25.4,42.8-30.5c5.6-3.1,11,0.4,6,5.6
			c-1.9,1.9-12.4,9-12.4,9s5.3-2.1,8.1,2.8c2.8,4.9-6.8,8.9-6.8,8.9l0.1,1.3c3.1,4.9-0.7,9.4-0.7,9.4c3.2,7.2-4.7,11.1-8.9,15.1
			c-4.3,4-12.8,4-12.8,4L385.4,400C374.2,393.4,373.5,376.7,373.5,376.1z"/>
		<path class="st7" d="M366.1,291.2c0,0-24.5,38.6-24.2,39.4c0.1,0.4-12.8,35.1-12.8,35.1l-7,29.6h75l2.2-26c0,0,48-77.4,47.6-76.9
			L366.1,291.2z"/>
		<path class="st8" d="M445.4,292.4c-1,0-2.4,0-4.2,0c-3.7,0-9.2-0.1-16.2-0.2c-14.1-0.2-34.3-0.4-58.8-0.8l0.2-0.1
			c-6.4,10.1-13.5,21.2-20.7,33.2c-0.9,1.5-1.8,3-2.7,4.6c-0.2,0.4-0.4,0.8-0.6,1.2c0,0.1-0.1,0.2-0.1,0.3l0,0c0,0,0,0,0,0
			c0,0-0.1,0-0.1,0c-0.1,0,0.3-0.1,0.1,0v0.1c0,0.1,0,0.1,0,0.2l0,0.1l-0.2,0.7c-0.3,0.9-0.6,1.7-0.9,2.6c-1.2,3.4-2.5,6.8-3.7,10.3
			c-2.6,7-5.2,14.1-7.9,21.4l0,0c-2.1,9-4.3,18.4-6.6,27.9c-0.1,0.5-0.2,1.1-0.4,1.6l-0.2-0.3c26.7,0,52,0,75,0l-0.2,0.2
			c0.8-9.1,1.5-17.8,2.2-26v0l0,0c28.7-46.1,46.9-75.4,47.8-76.8c0,0-0.1,0.1-0.2,0.4c-0.1,0.2-0.4,0.6-0.6,1.1
			c-0.6,0.9-1.4,2.3-2.5,4.1c-2.2,3.6-5.5,8.9-9.6,15.6c-8.3,13.5-20.2,32.7-34.5,55.9l0-0.1c-0.7,8.2-1.4,16.9-2.2,26l0,0.2H397
			c-22.9,0-48.3,0-75,0h-0.3l0.1-0.3c0.1-0.5,0.2-1.1,0.4-1.6c2.3-9.6,4.5-19,6.6-27.9v0l0,0c2.7-7.3,5.3-14.4,7.9-21.4
			c1.3-3.5,2.5-6.9,3.8-10.3c0.3-0.9,0.6-1.7,0.9-2.6l0.2-0.6l0-0.1c0,0,0,0,0,0c0,0,0,0,0-0.1c0-0.1,0-0.1,0-0.2
			c0-0.1,0.1-0.2,0.1-0.3c0.2-0.4,0.4-0.8,0.6-1.2c0.9-1.5,1.8-3.1,2.7-4.6c7.3-12,14.4-23.1,20.8-33.2l0.1-0.1h0.1
			c24.5,0.4,44.7,0.7,58.8,0.9c7,0.1,12.5,0.2,16.3,0.3C443,292.3,444.4,292.4,445.4,292.4c0.9,0,1.5,0,1.5,0
			S446.3,292.4,445.4,292.4z"/>
		<path class="st8" d="M349.2,332.5c0.5,0,1.1-0.1,1.9-0.1c1.7-0.1,4.1-0.2,7-0.3c6-0.2,14.2-0.5,23.3-0.6
			c9.1-0.1,17.3-0.1,23.3,0.2c3,0.1,5.4,0.3,7,0.5c0.8,0.1,1.4,0.2,1.9,0.2c0.4,0,0.7,0.1,0.7,0.1c0,0-0.2,0-0.7,0
			c-0.5,0-1.1-0.1-1.9-0.1c-1.7-0.1-4.1-0.2-7-0.3c-5.9-0.2-14.2-0.2-23.3-0.1c-9.1,0.1-17.3,0.4-23.3,0.5c-2.9,0.1-5.3,0.1-7,0.1
			c-0.8,0-1.4,0-1.9,0c-0.4,0-0.7,0-0.7,0C348.5,332.5,348.7,332.5,349.2,332.5z"/>
		<path class="st8" d="M362.9,363.9c13.1-1.6,23.7-2.7,23.7-2.6c0,0.1-10.6,1.5-23.6,3.1c-13.1,1.6-23.7,2.7-23.7,2.6
			C339.3,366.9,349.9,365.5,362.9,363.9z"/>
		<path class="st7" d="M407.3,361l-16.1,3.9c-1.6,0.9-2.2,3.9-1,5.2c1,1.1,2.6,1.2,4.1,1.3c4.7,0.3,9.4,0.6,14,0.9"/>
		<path class="st8" d="M406.1,361.3c-0.9,0.2-2,0.5-3.4,0.9c-2.9,0.7-6.9,1.7-11.5,2.8l0.1,0c-1,0.6-1.5,1.9-1.5,3.2
			c0,0.7,0.2,1.3,0.7,1.7c0.5,0.5,1.1,0.7,1.7,0.9c1.2,0.3,2.6,0.3,3.8,0.4c2.4,0.2,4.6,0.3,6.5,0.5c1.8,0.1,3.3,0.3,4.4,0.4
			c1,0.1,1.6,0.2,1.6,0.2c0,0-0.6,0-1.6,0c-1.1-0.1-2.6-0.1-4.4-0.2c-1.9-0.1-4.1-0.2-6.5-0.4c-1.2-0.1-2.5-0.1-3.9-0.4
			c-0.7-0.2-1.4-0.5-1.9-1c-0.6-0.5-0.8-1.3-0.8-2.1c0-0.7,0.1-1.4,0.4-2c0.3-0.6,0.7-1.2,1.3-1.5l0,0l0,0c4.5-1.1,8.5-2,11.5-2.7
			c1.4-0.3,2.5-0.6,3.4-0.7c0.8-0.2,1.2-0.2,1.2-0.2C407.3,361,406.8,361.1,406.1,361.3z"/>
		<path class="st7" d="M414.3,365.4c-2.3-1.2-7.9-1.8-11.9-1.2c-4,0.6-7.9,1.1-11.9,0.7c-0.7-0.1-1.4-0.2-2-0.5
			c-0.6-0.4-0.8-1-0.9-1.7c-0.2-1.4,0.3-2.6,1.8-3.2c4.1-1.5,8.2-2.7,12.5-3.5"/>
		<path class="st8" d="M412.6,364.9c-1.1-0.3-2.7-0.6-4.8-0.7c-1-0.1-2.1-0.1-3.3,0c-1.2,0-2.4,0.2-3.8,0.4
			c-2.7,0.4-5.7,0.7-8.8,0.6c-0.8,0-1.5-0.1-2.3-0.2c-0.4-0.1-0.8-0.2-1.1-0.4c-0.4-0.2-0.7-0.5-0.8-0.9c-0.4-0.7-0.4-1.5-0.3-2.3
			c0.1-0.8,0.6-1.4,1.2-1.8c0.6-0.4,1.3-0.6,1.9-0.8c0.6-0.2,1.2-0.4,1.8-0.6c1.1-0.4,2.2-0.7,3.2-1c2-0.5,3.6-0.9,4.7-1.1
			c0.6-0.1,1-0.2,1.3-0.2c0.3,0,0.5-0.1,0.5,0c0,0-0.6,0.2-1.7,0.4c-1.1,0.3-2.7,0.7-4.7,1.2c-1,0.3-2,0.6-3.2,1
			c-0.6,0.2-1.2,0.4-1.8,0.6c-0.6,0.2-1.3,0.4-1.8,0.8c-1.1,0.7-1.3,2.3-0.7,3.5c0.3,0.6,0.9,0.9,1.6,1c0.7,0.1,1.5,0.2,2.3,0.2
			c3.1,0.1,6-0.2,8.7-0.6c1.3-0.2,2.6-0.4,3.8-0.4c1.2,0,2.3,0,3.4,0.1c2.1,0.2,3.7,0.5,4.8,0.8c0.5,0.2,1,0.4,1.2,0.5
			c0.3,0.1,0.4,0.2,0.4,0.2C414.3,365.5,413.7,365.2,412.6,364.9z"/>
		<path class="st7" d="M419.7,355.5c-4,1.5-8,2.8-12.2,3.9c-1.5,0.4-3.1,0.7-4.4-0.1c-1.6-1.1-1.7-3.5-0.7-5.1s2.7-2.6,4.4-3.6
			c3.7-2.1,7.4-4.1,11.1-6.2"/>
		<path class="st8" d="M419.3,355.7c-0.2,0.1-0.6,0.3-1.1,0.5c-1,0.4-2.4,0.9-4.2,1.5c-1.8,0.6-3.9,1.2-6.3,1.9
			c-1.2,0.3-2.6,0.7-4,0.2c-0.7-0.2-1.3-0.7-1.7-1.4c-0.4-0.7-0.5-1.4-0.5-2.2c0-0.7,0.2-1.5,0.6-2.1c0.4-0.6,0.8-1.2,1.3-1.6
			c1-0.9,2.2-1.6,3.3-2.2c2.2-1.2,4.1-2.2,5.8-3.2c1.6-0.9,2.9-1.6,3.9-2.1c0.9-0.5,1.4-0.7,1.5-0.7c0,0-0.5,0.3-1.4,0.9
			c-1,0.6-2.3,1.3-3.8,2.2c-1.6,0.9-3.6,2-5.7,3.2c-1.1,0.6-2.2,1.2-3.2,2.1c-1,0.9-1.7,2.1-1.8,3.4c0,0.7,0.1,1.4,0.4,1.9
			c0.3,0.6,0.8,1,1.4,1.2c1.2,0.4,2.5,0.1,3.7-0.2c2.4-0.6,4.5-1.2,6.3-1.8c1.8-0.5,3.2-1,4.2-1.4c1-0.3,1.5-0.5,1.6-0.5
			C419.7,355.5,419.6,355.5,419.3,355.7z"/>
		<path class="st16" d="M157.7,393.3l20.9,5l3.3,13.4l-4.7,6.2l-16.7,1.6l-5.3,1.5C150.7,411.6,148.1,400.1,157.7,393.3z"/>
		<path class="st7" d="M191.1,388.6l4,9.7c2.2,2.5,6.1-2.6,9-1.5c1,0.4,1.7,4.6,2.4,6.3s1.3,3.6,2.6,4.9c1.4,1.3,3.8,1.8,5.1,0.4
			c0.7-0.7,1.2-1.8,1.1-2.8c-0.3-4-0.5-7.5-1-11.8c-0.3-2.6-2.2-5.1-4.6-6.1c-1.6-0.6-4.2-0.6-5.9-0.5
			C197.6,387.9,197.3,388,191.1,388.6z"/>
		<path class="st8" d="M203.5,387.3c-0.2,0-0.4,0.1-0.7,0.1c-0.6,0.1-1.4,0.2-2.5,0.3c-2.2,0.2-5.3,0.6-9.2,1l0.1-0.2
			c1.2,2.8,2.5,6.1,4,9.7l0-0.1c0.4,0.4,0.9,0.7,1.5,0.6c0.6-0.1,1.2-0.3,1.8-0.6c1.2-0.5,2.4-1.3,3.8-1.7l0.6-0.1
			c0.2,0,0.4,0,0.6,0c0.2,0,0.4,0.1,0.6,0.1c0.1,0,0.2,0.1,0.3,0.1c0.1,0.1,0.2,0.1,0.2,0.2c0.5,0.7,0.7,1.4,0.9,2.1
			c0.4,1.4,0.7,2.9,1.2,4.3c0.5,1.3,0.9,2.6,1.7,3.7c0.7,1.1,1.8,1.9,3,2.1c0.6,0.1,1.2,0.1,1.8-0.1c0.5-0.2,1-0.6,1.3-1.1
			c0.3-0.5,0.5-1.1,0.6-1.6c0-0.6-0.1-1.2-0.1-1.8c-0.2-2.4-0.3-4.6-0.5-6.8c-0.1-1.1-0.2-2.1-0.3-3c-0.1-1-0.3-1.9-0.7-2.7
			c-0.7-1.6-1.9-2.8-3.1-3.5c-1.2-0.7-2.5-0.8-3.5-0.9c-1-0.1-1.8-0.1-2.3,0c-0.5,0-0.8,0-0.8,0c0,0,0.1,0,0.2-0.1
			c0.1,0,0.3,0,0.6-0.1c0.5,0,1.3-0.1,2.3,0c1,0.1,2.3,0.2,3.6,0.9c1.3,0.7,2.5,1.9,3.3,3.6c0.4,0.8,0.6,1.8,0.7,2.8
			c0.1,1,0.2,2,0.3,3.1c0.2,2.1,0.4,4.4,0.5,6.8c0,0.6,0.1,1.2,0.1,1.8c0,0.7-0.3,1.3-0.6,1.9c-0.3,0.5-0.8,1.1-1.5,1.3
			c-0.6,0.3-1.4,0.3-2,0.2c-0.7-0.1-1.3-0.4-1.9-0.8c-0.6-0.4-1-0.9-1.4-1.5c-0.8-1.2-1.2-2.5-1.7-3.8c-0.5-1.4-0.8-2.9-1.2-4.3
			c-0.2-0.7-0.4-1.4-0.8-1.9c-0.1-0.1-0.2-0.2-0.3-0.2c-0.2,0-0.3-0.1-0.5-0.1H203l-0.5,0.1c-1.3,0.3-2.5,1.1-3.7,1.6
			c-0.6,0.3-1.3,0.5-2,0.6c-0.7,0.1-1.5-0.2-1.9-0.7l0,0l0,0c-1.5-3.6-2.8-6.9-3.9-9.7l-0.1-0.2l0.2,0c3.9-0.4,7-0.7,9.2-0.9
			c1.1-0.1,1.9-0.2,2.5-0.2C203.1,387.3,203.3,387.3,203.5,387.3c0.1-0.1,0.2-0.1,0.2,0S203.7,387.3,203.5,387.3z"/>
		<path class="st16" d="M163.8,393.3l-0.3-0.3c-1-1-2.4-1.6-3.8-1.5c-6.6,0.3-6.5,8.5-4.9,11.3c1.7,3.1,4.6,10.7,7.8,12.2
			c3.2,1.5,6.5,2.5,8.1-0.8c1.6-3.3-5.4-6.9-5.4-6.9l-1.3-4.6l3.6,1.9c0,0,7.7,14.6,9.8,19.2c2.1,4.6,5.1,5.3,7.4,3.5
			c2.3-1.8-4-21.4-4-21.4l3.4,7.4c0,0,3.5,9.7,7,14.3c2.8,3.8,6.7,1.4,7.3-0.6c0.2-0.6,0.2-1.3,0.1-1.9l-5.6-19.6
			c0,0,8.4,14,10.9,16.6c2.4,2.4,6.7-0.6,5.6-3c-0.9-2.1-11.6-33.6-16.7-35.2c-6.1-1.9-8.4,2.7-8.4,2.7s-3.4-2.7-6.1-2.1
			c-3.7,0.9-4.7,5.5-4.7,5.5c-2.8-2-4.9-1.4-4.9-1.4C164.9,389.2,163.8,393.2,163.8,393.3z"/>
		<path class="st8" d="M166.9,389.2c-1,0.6-2.3,1.9-3,4.1l0,0.1l-0.1-0.1c-0.8-0.8-1.9-1.6-3.3-1.8c-1.4-0.1-3.1,0.2-4.3,1.4
			c-1.3,1.1-2,3-2.1,4.9c-0.1,1,0,2,0.2,3c0.1,0.5,0.3,1,0.5,1.5c0.2,0.5,0.5,1,0.7,1.5c1,2,2,4.2,3.2,6.3c0.6,1.1,1.3,2.1,2.1,3.1
			c0.4,0.5,0.9,0.9,1.4,1.3c0.5,0.3,1.2,0.6,1.8,0.8c1.2,0.5,2.6,0.9,3.9,0.8c1.3-0.1,2.5-1.2,2.8-2.5c0.1-0.7-0.1-1.3-0.4-2
			c-0.4-0.6-0.9-1.2-1.4-1.7c-1.1-1-2.3-1.9-3.7-2.6l-0.1,0l0-0.1c-0.4-1.4-0.9-3-1.3-4.6l-0.1-0.5l0.4,0.2c1.1,0.6,2.4,1.3,3.6,1.9
			l0.1,0l0,0.1c1.8,3.5,3.7,7.1,5.7,10.9c0.9,1.9,1.9,3.8,2.9,5.7c1,1.9,1.7,4.1,3.3,5.6c0.8,0.8,1.8,1.3,2.8,1.2
			c0.5,0,1.1-0.2,1.5-0.4c0.2-0.1,0.5-0.3,0.7-0.4c0.1-0.1,0.2-0.4,0.3-0.6c0.2-1,0.1-2.2-0.1-3.3c-0.2-1.1-0.4-2.3-0.6-3.4
			c-1-4.6-2.3-9.1-3.8-13.7l0.4-0.2c1.1,2.3,2.2,4.9,3.4,7.4v0v0c0.8,2.1,1.7,4.3,2.7,6.4c0.7,1.6,1.5,3.2,2.3,4.7
			c0.4,0.8,0.9,1.5,1.3,2.2c0.5,0.7,0.9,1.4,1.6,1.9c0.6,0.5,1.4,0.8,2.2,0.9c0.8,0,1.6-0.2,2.3-0.7c0.7-0.4,1.2-1.1,1.4-1.8
			c0.1-0.4,0.1-0.8,0.1-1.2c0-0.4-0.2-0.8-0.3-1.2c-1.8-6.5-3.6-12.8-5.4-18.9l-0.5-1.6l0.9,1.5c2.1,3.5,4.2,7,6.4,10.3
			c1.1,1.6,2.1,3.3,3.3,4.8c0.6,0.7,1.1,1.6,1.9,2c0.8,0.4,1.7,0.3,2.6,0c0.8-0.3,1.5-1,1.9-1.7c0.2-0.4,0.2-0.8,0.2-1.2
			c-0.1-0.4-0.3-0.8-0.4-1.3c-0.6-1.7-1.2-3.4-1.8-5c-1.2-3.3-2.4-6.5-3.6-9.5c-1.2-3-2.4-5.9-3.6-8.7c-1.2-2.7-2.5-5.3-3.9-7.6
			c-0.7-1.1-1.5-2.3-2.4-3c-0.2-0.2-0.5-0.3-0.8-0.4c-0.3-0.1-0.6-0.2-0.9-0.2c-0.6-0.1-1.2-0.2-1.8-0.2c-2.4-0.1-4.5,1.3-5.5,3.1
			l-0.1,0.1l-0.1-0.1c-1.3-1-2.6-1.7-3.9-2c-0.7-0.2-1.3-0.2-1.9-0.1c-0.6,0.1-1.2,0.4-1.7,0.7c-1,0.6-1.6,1.5-2.1,2.3
			c-0.5,0.8-0.8,1.7-1,2.4l0,0.1l-0.1-0.1c-1.4-1.1-2.7-1.4-3.6-1.5c-0.4,0-0.7,0-0.9,0c-0.2,0-0.3,0-0.3,0s0.4-0.2,1.3-0.1
			c0.8,0.1,2.2,0.4,3.6,1.5l-0.1,0c0.2-0.8,0.5-1.6,1-2.5c0.5-0.8,1.2-1.8,2.2-2.4c0.5-0.4,1.1-0.6,1.7-0.7c0.7-0.1,1.4-0.1,2,0.1
			c1.4,0.3,2.7,1.1,4,2l-0.2,0c1-1.9,3.2-3.3,5.7-3.2c0.6,0,1.2,0.1,1.9,0.2c0.3,0.1,0.6,0.2,0.9,0.2c0.3,0.1,0.6,0.2,0.9,0.5
			c1,0.8,1.8,2,2.5,3.1c1.5,2.3,2.7,4.9,4,7.6c1.3,2.7,2.5,5.6,3.7,8.7c1.2,3,2.4,6.2,3.6,9.5c0.6,1.7,1.2,3.3,1.9,5
			c0.2,0.4,0.3,0.8,0.5,1.3c0.1,0.5,0,1-0.2,1.5c-0.4,0.9-1.2,1.6-2.1,1.9c-0.9,0.4-2,0.5-2.9,0c-0.9-0.5-1.5-1.3-2.1-2.1
			c-1.2-1.6-2.2-3.2-3.3-4.8c-2.1-3.3-4.3-6.8-6.4-10.3l0.4-0.2c1.7,6.1,3.5,12.4,5.4,18.9c0.1,0.4,0.3,0.8,0.3,1.3
			c0,0.5,0,0.9-0.1,1.3c-0.2,0.9-0.9,1.6-1.6,2.1c-0.7,0.5-1.6,0.8-2.6,0.8c-0.9,0-1.8-0.4-2.5-1c-0.7-0.6-1.2-1.3-1.7-2
			c-0.5-0.7-0.9-1.5-1.4-2.3c-0.8-1.5-1.6-3.1-2.3-4.7c-1-2.2-1.9-4.4-2.7-6.5l0,0c-1.2-2.5-2.3-5.1-3.4-7.4l0.4-0.2
			c1.5,4.6,2.8,9.2,3.8,13.8c0.2,1.1,0.5,2.3,0.6,3.4c0.1,1.2,0.3,2.3,0.1,3.5c-0.1,0.3-0.2,0.6-0.4,0.9c-0.2,0.2-0.5,0.4-0.8,0.5
			c-0.5,0.3-1.1,0.5-1.7,0.5c-1.2,0-2.4-0.6-3.2-1.4c-0.8-0.8-1.4-1.8-1.9-2.8c-0.5-1-1-2-1.4-3c-1-1.9-1.9-3.9-2.9-5.7
			c-1.9-3.7-3.8-7.4-5.6-10.9l0.1,0.1c-1.3-0.7-2.5-1.3-3.6-1.9l0.3-0.2c0.5,1.6,0.9,3.2,1.3,4.6l-0.1-0.1c1.4,0.8,2.6,1.6,3.8,2.7
			c0.5,0.5,1.1,1.1,1.5,1.8c0.4,0.7,0.6,1.5,0.4,2.2c-0.1,0.2-0.1,0.4-0.2,0.6l-0.3,0.5c-0.2,0.3-0.4,0.6-0.7,0.9
			c-0.5,0.5-1.3,0.8-2,0.9c-1.5,0.1-2.8-0.3-4.1-0.8c-0.6-0.3-1.2-0.5-1.8-0.9c-0.6-0.4-1-0.9-1.5-1.4c-0.8-1-1.5-2.1-2.1-3.2
			c-1.2-2.2-2.1-4.3-3.1-6.3c-0.2-0.5-0.5-1-0.7-1.5c-0.2-0.5-0.4-1-0.5-1.6c-0.2-1-0.3-2.1-0.2-3.1c0.1-2,0.8-3.9,2.2-5.1
			c1.3-1.2,3.1-1.5,4.5-1.4c1.5,0.2,2.6,1,3.4,1.9l-0.1,0C164.4,391,165.8,389.6,166.9,389.2c0.2-0.2,0.5-0.3,0.7-0.4
			c0.2-0.1,0.4-0.1,0.5-0.2c0.3-0.1,0.4-0.1,0.4-0.1C168.6,388.6,167.9,388.6,166.9,389.2z"/>
		<path class="st8" d="M177.8,398c0.4,1.1,0.9,2.6,1.5,4.2c1.3,3.3,2.3,6,2.1,6c-0.1,0-0.4-0.6-0.8-1.7c-0.5-1.1-1.1-2.5-1.7-4.2
			c-1.3-3.3-1.9-6.1-1.8-6.1C177.2,396.3,177.5,397,177.8,398z"/>
		<path class="st8" d="M189,395.9c0.5,1,1.2,2.5,1.8,4.1c0.7,1.6,1.2,3.1,1.6,4.2c0.4,1.1,0.6,1.8,0.5,1.8c-0.1,0.1-1.3-2.6-2.5-5.8
			c-1.3-3.2-2.5-5.8-2.3-5.9C188.1,394.3,188.5,394.9,189,395.9z"/>
	</g>
</g>
</svg>
