<?xml version="1.0" encoding="utf-8"?>
<!-- Generator: Adobe Illustrator 25.2.0, SVG Export Plug-In . SVG Version: 6.00 Build 0)  -->
<svg version="1.1" id="Layer_1" xmlns="http://www.w3.org/2000/svg" xmlns:xlink="http://www.w3.org/1999/xlink" x="0px" y="0px"
	 viewBox="0 0 641 641" style="enable-background:new 0 0 641 641;" xml:space="preserve">
<style type="text/css">
	.st0{clip-path:url(#SVGID_2_);}
	.st1{fill:#F6F8FB;}
	.st2{fill:#2E2E2E;}
	.st3{fill:#FFFFFF;}
	.st4{fill:#F7911D;}
	.st5{fill:#FFBE9D;}
	.st6{fill:#FFFFFF;stroke:#000000;stroke-width:0.25;stroke-miterlimit:10;}
	.st7{fill:#EBEBEB;}
	.st8{fill:none;stroke:#000000;stroke-width:0.25;stroke-miterlimit:10;}
</style>
<g>
	<defs>
		<rect id="SVGID_1_" width="641" height="641"/>
	</defs>
	<clipPath id="SVGID_2_">
		<use xlink:href="#SVGID_1_"  style="overflow:visible;"/>
	</clipPath>
	<g class="st0">
		<g>
			<path class="st1" d="M569.5,147.4l-3.3-5.3c-27.5-44.8-77.4-71.9-129.9-68.6c-6.8,0.4-13.5,1.3-20.1,2.7
				c-47.8,10.1-89.3,45.8-106.5,91.4c-10.1,26.9-13,57.8-32.2,79.1c-25,27.7-67.5,28.6-104.8,27.5c-37.3-1.2-79.8-0.2-104.7,27.7
				c-15.6,17.4-20.6,42.3-19.3,65.6c3.3,61.9,26.3,116.4,81.8,143.8c55.5,27.5,141.5,30.8,202.3,18.7
				c85.1-16.9,166-63.5,214.7-135.3C596.1,322.9,608.4,225,569.5,147.4z"/>
		</g>
		<path class="st2" d="M604.8,566.5H446.1V415.7c0-10.7,8.7-19.4,19.4-19.4h119.9c10.7,0,19.4,8.7,19.4,19.4L604.8,566.5
			L604.8,566.5z"/>
		<path class="st3" d="M591.4,397.2c0.2,0,0.3,37.9,0.3,84.6c0,46.7-0.2,84.6-0.3,84.6c-0.2,0-0.3-37.9-0.3-84.6
			S591.3,397.2,591.4,397.2z"/>
		<path class="st2" d="M513.3,211.5c14.5,20.7,23,45.7,24.1,70.9c0.7,17.1-1.6,35.2,6.5,50.3c11.6,21.6,36.7,20.8,44.4,44.1
			c3.3,10.1-2.8,32.4-4.5,42.9c-1.9,12,5.4,22,3.5,33.9c-1.7,11-9.9,18.8-19.8,23.9c-8.8,4.5-16.9,4.7-26,0.9
			c-17.4-7.2-31.8-14.8-44.2-28.9c-17.4-19.9-22.6-47.4-25.6-73.6c-6.6-57.8-5.2-116.6,3.9-174"/>
		<path class="st3" d="M550.4,480.8c0,0,0.2-0.1,0.6-0.1c0.4-0.1,0.9-0.2,1.6-0.4c1.4-0.4,3.5-1.1,6-2.4c2.5-1.3,5.4-3.3,7.9-6.4
			c1.3-1.5,2.4-3.4,3.1-5.5c0.7-2.1,0.9-4.6,1.1-7.1c0.2-5-0.5-10.5-1.7-16.3c-1.1-5.8-2.6-12-3-18.7c-0.2-3.3,0-6.8,0.7-10.3
			c0.7-3.5,2-6.8,3.3-10.2c1.3-3.4,2.7-6.8,3.7-10.4c0.9-3.6,1.5-7.4,0.9-11.2c-0.6-3.8-2.1-7.3-4.2-10.4c-2.1-3.1-4.6-5.8-7.3-8.2
			c-5.3-4.9-11-9-15.9-13.6c-9.9-9.1-16.5-19.5-20.7-28.6c-2.1-4.6-3.7-8.9-4.8-12.8c-0.6-1.9-1-3.8-1.4-5.4
			c-0.3-1.7-0.6-3.2-0.9-4.6c-0.4-2.8-0.7-5-0.8-6.5c-0.1-0.7-0.1-1.3-0.1-1.7c0-0.4,0-0.6,0-0.6s0,0.2,0.1,0.6
			c0.1,0.4,0.1,1,0.2,1.7c0.1,1.5,0.5,3.6,0.9,6.4c0.3,1.4,0.6,2.9,1,4.6c0.5,1.7,0.8,3.5,1.4,5.4c1.1,3.8,2.7,8.1,4.8,12.7
			c4.2,9.1,10.9,19.4,20.7,28.4c4.9,4.5,10.6,8.6,16,13.6c2.7,2.5,5.3,5.2,7.4,8.3c2.1,3.1,3.7,6.8,4.3,10.6
			c0.7,3.9,0.1,7.8-0.9,11.4c-1,3.6-2.4,7.1-3.7,10.5c-1.3,3.4-2.5,6.7-3.2,10.1c-0.7,3.4-0.9,6.8-0.7,10.1
			c0.3,6.6,1.8,12.8,2.9,18.7c1.1,5.8,1.9,11.4,1.6,16.5c-0.2,2.5-0.5,4.9-1.2,7.2c-0.7,2.2-1.9,4.1-3.2,5.6c-2.6,3.1-5.6,5-8.1,6.3
			c-2.5,1.3-4.6,2-6.1,2.3C551.2,480.8,550.4,480.8,550.4,480.8z"/>
		<path class="st4" d="M311.7,526.6l61.5-29.2c0,0,24-116.3,28.5-125.1c4.5-8.7,23.5-16.3,23.5-16.3L422,513.6l-5.6,36.3l-86.8,8.2
			L311.7,526.6z"/>
		<path class="st5" d="M259.2,554.2c-0.3,0-2.1,1.1-0.6,3.8c1.4,2.7,11.8,11.6,14.9,8.5s-1.6-6.9-1.6-6.9L259.2,554.2z"/>
		<path class="st6" d="M272.3,559.7c0,0,12.6,1.6,17.4,3.4c5.3,2,11.7,0.6,16-2.3c4.3-2.9,6.8-5.6,6.8-5.6l16.1-0.3
			c0,0,7.7-8,3.1-19.9c-0.8-2.1-1.7-3.7-3.7-6.3c-1.9-2.1-4.9-3.7-10.1-4.6l-19.1,4.1c0,0-29.5-2.1-34.8,0.4c0,0-6.6,3.9-8.6,5.6
			c-0.8,0.6-3.1,8.1,1.7,12c0,0-4.2,3.3-1.9,6.3l1.1,1.3c0,0-2.8,3.6-1.4,5.2c1.4,1.6,14.1,9,18.6,7.2
			C278.1,564.7,274.3,560.5,272.3,559.7z"/>
		<path class="st2" d="M260.3,539.8c0,0,0.6,0.2,1.6,0.6c1,0.4,2.4,0.9,4.3,1.5c0.9,0.3,1.9,0.6,3,0.9s2.3,0.5,3.5,0.9
			c1.2,0.4,2.5,1,3.5,2.1c0.9,1.1,1.5,2.7,0.9,4.2c-0.3,0.8-0.9,1.3-1.6,1.7c-0.7,0.3-1.4,0.5-2.1,0.6c-1.4,0.1-2.7,0-4-0.2
			c-2.5-0.4-4.7-1.1-6.5-1.7c-1.8-0.6-3.2-1.2-4.2-1.7c-1-0.4-1.5-0.7-1.5-0.7c0,0,0.6,0.2,1.6,0.5c1,0.4,2.4,0.9,4.3,1.5
			c1.8,0.6,4,1.2,6.5,1.6c1.2,0.2,2.6,0.3,3.9,0.2c0.7-0.1,1.3-0.2,1.9-0.5c0.6-0.3,1.1-0.8,1.3-1.4c0.5-1.3,0-2.7-0.8-3.7
			c-0.8-1-2.1-1.6-3.2-2c-1.2-0.4-2.4-0.6-3.4-1c-1.1-0.3-2.1-0.6-3-0.9c-1.8-0.6-3.2-1.2-4.2-1.7
			C260.8,540.1,260.3,539.9,260.3,539.8z"/>
		<path class="st2" d="M261.5,530.7c0,0,0.6,0.2,1.6,0.6c1,0.4,2.4,0.9,4.2,1.5c1.8,0.6,4,1.3,6.4,1.8c1.2,0.3,2.6,0.6,3.7,1.5
			c0.6,0.5,1,1.2,1.1,1.9c0.1,0.8,0,1.5-0.3,2.2c-0.6,1.4-2,2.4-3.3,2.8c-1.3,0.5-2.7,0.5-4,0.3c-2.6-0.4-4.6-1.3-6.4-1.9
			c-1.7-0.6-3.2-1.1-4.3-1.5c-1-0.4-1.6-0.6-1.5-0.6c0,0,0.6,0.1,1.6,0.4c1.1,0.3,2.6,0.8,4.3,1.3c1.8,0.5,3.9,1.4,6.4,1.7
			c1.2,0.2,2.5,0.1,3.8-0.3c1.2-0.4,2.4-1.3,3-2.5c0.6-1.2,0.4-2.8-0.6-3.6c-1-0.8-2.3-1.1-3.5-1.4c-2.4-0.6-4.6-1.3-6.4-1.9
			c-1.8-0.7-3.2-1.3-4.2-1.7C262,531.1,261.4,530.8,261.5,530.7z"/>
		<path class="st2" d="M267.5,533.3c-0.2,0-0.2-1.2-0.6-2.5c-0.3-1.4-0.8-2.4-0.6-2.5c0.1-0.1,0.8,0.9,1.2,2.4
			C267.8,532.1,267.7,533.3,267.5,533.3z"/>
		<path class="st3" d="M311.9,533.7l-11.2-4.3c0,0-31.1-14.5-31.7-13.7c-0.5,0.8-2.2,0.7-1.8,4.5c0.4,3.8,18.5,11.4,19.1,12.8
			c0.6,1.3-0.4,8,6.3,12.7c6.7,4.8,11.5,4.9,11.5,4.9"/>
		<path class="st2" d="M304.1,550.5c0,0-0.1,0-0.3,0c-0.2,0-0.4,0-0.8-0.1c-0.7-0.1-1.7-0.3-2.9-0.7c-1.2-0.4-2.7-1-4.3-1.9
			c-1.6-0.9-3.4-2-5.2-3.6c-1.7-1.6-3.1-3.9-3.8-6.6c-0.4-1.3-0.5-2.8-0.7-4.2c0-0.2-0.1-0.3-0.1-0.5c0-0.1-0.2-0.2-0.3-0.3
			c-0.3-0.2-0.6-0.4-0.9-0.6c-0.6-0.4-1.3-0.7-2-1.1c-2.7-1.4-5.6-2.9-8.5-4.6c-1.4-0.8-2.9-1.7-4.3-2.7c-0.7-0.5-1.4-1.1-2-1.7
			c-0.3-0.3-0.6-0.7-0.9-1.1c-0.1-0.2-0.2-0.4-0.3-0.7c-0.1-0.3,0-0.5-0.1-0.7c0-0.9,0-1.9,0.5-2.7c0.2-0.4,0.6-0.7,1-1
			c0.2-0.1,0.3-0.2,0.4-0.4c0,0,0,0,0.1-0.1c0.1-0.1,0.2-0.1,0.2-0.1c0.1,0,0.1,0,0.2,0c0.1,0,0.2,0.1,0.3,0.1
			c1.7,0.5,3.2,1.2,4.8,1.8c3.1,1.3,6,2.6,8.8,3.9c5.6,2.5,10.6,4.8,14.8,6.8c1.1,0.5,2.1,1,3,1.4c1,0.4,1.9,0.7,2.7,1.1
			c1.7,0.7,3.2,1.3,4.4,1.7c1.2,0.5,2.1,0.8,2.8,1.1c0.3,0.1,0.5,0.2,0.7,0.3c0.2,0.1,0.2,0.1,0.2,0.1c0,0-0.1,0-0.3-0.1
			c-0.2-0.1-0.4-0.2-0.7-0.3c-0.7-0.2-1.6-0.6-2.8-1c-1.2-0.5-2.7-1-4.4-1.7c-0.9-0.3-1.8-0.7-2.8-1c-1-0.4-2-0.9-3-1.4
			c-4.2-1.9-9.3-4.2-14.8-6.7c-2.8-1.2-5.7-2.5-8.8-3.8c-1.5-0.6-3.1-1.3-4.7-1.8c-0.1,0-0.2-0.1-0.3-0.1c0,0-0.1,0-0.1,0
			c0,0,0,0,0,0c0-0.1,0-0.1,0-0.1c0,0,0,0,0,0c0.4,0.2,0.1,0.1,0.2,0.1l0,0c-0.2,0.2-0.4,0.4-0.5,0.5c-0.4,0.3-0.7,0.5-0.8,0.8
			c-0.4,0.7-0.4,1.6-0.4,2.4c0,0.5,0.1,0.8,0.3,1.2c0.2,0.3,0.5,0.7,0.8,1c0.6,0.6,1.3,1.1,2,1.6c1.4,1,2.8,1.9,4.3,2.7
			c2.9,1.7,5.7,3.1,8.4,4.6c0.7,0.4,1.3,0.7,2,1.1c0.3,0.2,0.6,0.4,0.9,0.6c0.1,0.1,0.3,0.3,0.4,0.5c0.1,0.2,0.1,0.4,0.1,0.6
			c0.2,1.5,0.3,2.8,0.6,4.2c0.7,2.6,2,4.8,3.7,6.4c1.7,1.6,3.5,2.7,5.1,3.6c1.6,0.9,3.1,1.5,4.3,2c1.2,0.4,2.2,0.7,2.9,0.8
			c0.3,0.1,0.6,0.1,0.8,0.1C304,550.5,304.1,550.5,304.1,550.5z"/>
		<path class="st2" d="M269.8,552c0,0,0.4,0.1,1.2,0.3c0.7,0.3,1.8,0.8,2.9,1.7c0.6,0.4,1.2,1,1.7,1.6c0.5,0.7,1,1.6,0.9,2.6
			c-0.1,1.1-1.1,1.9-2.1,2.2c-1.1,0.4-2.2,0.2-3.3-0.1c-4.2-1.3-7.8-2.8-10.3-4.1c-1.3-0.7-2.2-1.3-2.9-1.7c-0.7-0.4-1-0.7-1-0.7
			c0,0,0.4,0.2,1.1,0.6c0.7,0.4,1.7,0.9,3,1.6c2.5,1.2,6.2,2.7,10.3,4c1,0.3,2.1,0.4,3,0.1c0.9-0.3,1.6-1,1.8-1.8
			c0.1-0.8-0.3-1.7-0.8-2.3c-0.5-0.6-1.1-1.2-1.6-1.6C271.5,552.5,269.7,552.1,269.8,552z"/>
		<g>
			<path class="st2" d="M416,550c-10.1-34-19-77.8-29-111.7c-3.7,31.4,0.9,72.8,6.7,103.9c0.7,3.6,1,7.2,3.8,9.6L416,550z"/>
		</g>
		<path class="st2" d="M399.5,526.6c-0.1,0-0.6-2.2-1.9-5.6c-0.7-1.7-1.7-3.7-2.9-5.7c-1.3-2-2.9-4.2-4.7-6.2
			c-1.9-2-3.9-3.8-5.9-5.2c-2-1.4-3.8-2.5-5.5-3.3c-3.3-1.6-5.5-2.2-5.4-2.3c0,0,0.6,0.1,1.6,0.4c0.5,0.1,1.1,0.3,1.8,0.6
			c0.7,0.3,1.5,0.5,2.3,0.9c1.7,0.7,3.6,1.8,5.6,3.2c2,1.4,4.1,3.2,6,5.2c1.9,2.1,3.5,4.3,4.8,6.4c1.2,2.1,2.2,4.1,2.8,5.9
			c0.4,0.9,0.6,1.7,0.8,2.4c0.2,0.7,0.4,1.3,0.5,1.8C399.4,526.1,399.5,526.6,399.5,526.6z"/>
		<path class="st4" d="M418.7,354.5c0,0-32.2,72-32.2,85.2c0,13.2,24.2,105,24.2,105c-0.2,3.6-1.2,21.9-1.2,21.9l135.4,0.5l2.1-29.1
			l-10.6-27.7l10.6-78.4c0,0,7.1-45.5,7.7-58.2c0.8-15.9-53.2-34.4-51.7-36.6l-9.3-12.5L440.2,368l-10.6-30.5L417,349.4L418.7,354.5
			z"/>
		<path class="st4" d="M507.3,373.6c-14.7,24.8-41.5,70-41.5,70l-48,54.8c0,0-3.1,27.8,3.1,36.4c6.3,8.5,17.1,14.4,17.1,14.4
			s12.7,0,28.8-13.5c16.1-13.5,60.6-69.2,60.6-69.2l15.3-18.4c0,0,18.2-44.7,14.8-67.5c-1.3-8.8-5.1-12.4-10-16.4
			C534.9,354,515.5,359.8,507.3,373.6z"/>
		<path class="st2" d="M548.3,432.5c0,0-0.1,0.2-0.2,0.5c-0.2,0.4-0.4,0.8-0.7,1.5c-0.6,1.3-1.6,3.1-2.9,5.5
			c-2.7,4.7-6.8,11.4-12.2,19.5c-2.7,4-5.7,8.4-9,13c-3.3,4.7-7.1,9.4-10.2,15c-3.2,5.5-5.9,11.7-9.3,17.8
			c-3.4,6.1-7.4,12.2-12.2,17.8c-4.8,5.7-10.2,10.6-16.2,14.3c-5.9,3.8-12.4,6.2-18.7,7.3c-6.4,1.1-12.6,0.7-18.2-0.8
			c-2.8-0.7-5.3-1.8-7.7-3.1c-2.3-1.3-4.5-2.7-6.3-4.3c-1.9-1.6-3.5-3.3-4.8-5.1c-1.3-1.7-2.3-3.6-3.2-5.3c-1.6-3.6-2.2-6.8-2.6-9.5
			c-0.3-2.7-0.3-4.8-0.2-6.2c0-0.7,0.1-1.2,0.1-1.6c0-0.4,0-0.6,0.1-0.6s0,0.2,0,0.6c0,0.4,0,0.9,0,1.6c0,1.4,0,3.5,0.3,6.2
			c0.4,2.7,1.1,5.9,2.7,9.4c0.8,1.7,1.8,3.5,3.2,5.2c1.3,1.7,2.9,3.4,4.7,4.9c1.8,1.6,3.9,3,6.3,4.2c2.3,1.2,4.8,2.3,7.6,3
			c5.5,1.5,11.6,1.8,17.9,0.7c6.3-1.1,12.6-3.5,18.5-7.2c5.9-3.7,11.3-8.6,16-14.2c4.8-5.6,8.8-11.7,12.2-17.7
			c3.4-6.1,6.1-12.2,9.4-17.8c3.1-5.6,7-10.4,10.3-15c3.3-4.6,6.4-9,9.1-13c5.4-8,9.6-14.7,12.3-19.3c1.4-2.3,2.4-4.2,3.1-5.4
			c0.3-0.6,0.6-1.1,0.8-1.4C548.2,432.7,548.3,432.5,548.3,432.5z"/>
		<path class="st2" d="M415.4,495.9c0.1,0.1-0.7,0.5-1.6,1.5c-0.9,1-1.9,2.6-2.1,4.6c-0.2,2,0.5,3.8,1.2,4.9
			c0.7,1.1,1.3,1.7,1.3,1.8c0,0.1-0.8-0.4-1.7-1.5c-0.8-1.1-1.6-3-1.4-5.2c0.2-2.2,1.3-3.9,2.4-4.8
			C414.5,496.1,415.4,495.9,415.4,495.9z"/>
		<path class="st2" d="M424.3,510.5c0,0,0.3,0,0.8,0.2c0.2,0.1,0.5,0.2,0.9,0.2c0.4,0.1,0.8,0.1,1.2,0.2c1.9,0.3,4.7,0.3,7.9-0.7
			c3.2-1,6.8-3,10.2-6c3.4-3,6.4-6.9,9.6-11.1c3.2-4.2,6.3-8.1,9.8-11c1.7-1.5,3.4-2.8,4.9-4.2c1.4-1.4,2.6-2.9,3.2-4.4
			c1.2-3.2,0.4-6.1-0.7-7.6c-1.2-1.5-2.4-1.6-2.3-1.7c0,0,0.3,0,0.7,0.2c0.5,0.2,1.1,0.6,1.8,1.4c1.3,1.5,2.2,4.5,1,7.9
			c-0.7,1.6-1.8,3.2-3.3,4.6c-1.4,1.4-3.2,2.8-4.9,4.2c-3.4,2.9-6.6,6.8-9.7,10.9c-3.2,4.2-6.2,8.1-9.7,11.2c-3.4,3-7.2,5-10.5,6
			c-3.3,1-6.2,0.9-8.1,0.5c-0.5-0.1-0.9-0.2-1.2-0.3c-0.4-0.1-0.7-0.2-0.9-0.3C424.5,510.6,424.3,510.5,424.3,510.5z"/>
		<path class="st2" d="M513.9,366c0,0-0.2,0.3-0.5,0.8c-0.4,0.5-1,1.2-1.6,2.1c-1.5,1.8-3.5,4.5-5.9,7.9
			c-4.9,6.8-11.1,16.5-17.1,27.8c-6,11.2-11.1,21.7-14.9,29.1c-1.9,3.7-3.5,6.7-4.6,8.8c-0.5,1-1,1.8-1.3,2.4
			c-0.3,0.5-0.5,0.8-0.5,0.8c0,0,0.1-0.3,0.4-0.9c0.3-0.6,0.7-1.4,1.2-2.4c1.1-2.2,2.6-5.2,4.4-8.9c3.7-7.5,8.7-17.9,14.7-29.2
			c6-11.3,12.3-21,17.3-27.7c2.5-3.4,4.6-6,6.1-7.8c0.7-0.9,1.3-1.5,1.7-2.1C513.6,366.2,513.8,366,513.9,366z"/>
		<g>
			<path class="st2" d="M413.8,508.2c6.3,3.4,13.1,3,20.1,1.7c7-1.4,13.4-5.2,17.9-10.7c-1.2,6.1-3.8,12.1-8.3,16.4
				c-4.4,4.3-10.9,6.9-17,5.7C420.5,520.2,414.3,514.4,413.8,508.2z"/>
		</g>
		<g>
			<path class="st2" d="M472.9,471.2c3.9,6,5.3,13.6,3.8,20.7c5.3-8.1,6.5-18.4,5.1-27.9c-1.4-9.6-5.3-18.6-9.7-27.3
				c0,0-4.8,8.1-4.8,9c-0.2,4.7,1.5,13.4,2.4,18c2.4,2.3,3.6,5.8,2.9,9.1"/>
		</g>
		<g>
			<path class="st2" d="M435,541.8c12.7,9.9,31.6,10.4,45.6,2.2c13.4-7.9,21.7-22,29.4-35.5c11.9-20.9,26.4-46.9,34.9-69.4
				c0,0-23.8,32.4-30.9,46.4c-5.4,10.6-9.6,17.5-16.2,27.3c-13.4,19.7-37.6,31.5-61.4,29.9"/>
		</g>
		<path class="st2" d="M409.4,566.7c0,0,0-0.1,0-0.4c0-0.3,0-0.7,0-1.2c0-1.1,0.1-2.6,0.2-4.4c0.2-3.9,0.4-9.4,0.7-15.9l0,0.1
			c-2.3-7.7-5-17-7.8-27.1c-3.7-13.4-6.8-25.5-8.9-34.3c-1.1-4.4-1.9-8-2.4-10.5c-0.2-1.2-0.4-2.2-0.6-2.9c-0.1-0.7-0.2-1-0.2-1
			c0,0,0.1,0.3,0.3,1c0.2,0.7,0.4,1.7,0.7,2.8c0.6,2.5,1.5,6.1,2.6,10.4c2.2,8.8,5.4,20.9,9.1,34.3c2.8,10.1,5.4,19.4,7.7,27.1
			l0,0.1v0c-0.4,6.6-0.7,12-1,15.9c-0.1,1.9-0.2,3.3-0.3,4.4c0,0.5-0.1,0.8-0.1,1.2C409.5,566.5,409.5,566.7,409.4,566.7z"/>
		<path class="st2" d="M544.9,363.4c0,0.1-1.4-0.4-3.6-0.9c-2.2-0.6-5.3-1.1-8.8-1.2c-3.5-0.1-6.6,0.3-8.9,0.7
			c-2.3,0.4-3.6,0.8-3.7,0.7c0,0,0.3-0.2,0.9-0.4c0.6-0.2,1.5-0.5,2.6-0.8c2.3-0.6,5.5-1,9-0.9c3.6,0.1,6.7,0.8,8.9,1.4
			c1.1,0.3,2,0.7,2.6,0.9C544.6,363.2,544.9,363.3,544.9,363.4z"/>
		<path class="st2" d="M502,339.8c0,0-0.1,0.2-0.3,0.7c-0.3,0.5-0.7,1.1-1.1,1.8c-1,1.6-2.4,3.9-4.2,6.6
			c-3.6,5.6-8.8,13.1-14.9,21.2c-4.9,6.5-9.7,12.3-13.6,16.9l-0.3,0.3l-0.2-0.4c-1.9-4.1-3.4-7.5-4.5-9.9c-0.5-1.1-0.9-2.1-1.2-2.8
			c-0.3-0.6-0.4-1-0.4-1s0.2,0.3,0.5,0.9c0.3,0.7,0.8,1.6,1.3,2.7c1.2,2.4,2.8,5.8,4.7,9.8l-0.4-0.1c3.8-4.6,8.6-10.5,13.5-16.9
			c6.1-8.1,11.4-15.6,15.1-21c1.8-2.7,3.3-4.9,4.4-6.5c0.5-0.7,0.9-1.3,1.2-1.8C501.8,339.9,502,339.7,502,339.8z"/>
		<path class="st2" d="M533.2,546.5c-0.2,0,0.4-6.7,1.3-14.9c0.9-8.2,1.8-14.8,2-14.8c0.2,0-0.4,6.7-1.3,14.9
			C534.2,539.9,533.3,546.5,533.2,546.5z"/>
		<path class="st2" d="M440.4,544.7c0.2,0,0.9,5,1.5,11.2c0.7,6.2,1.1,11.2,0.9,11.2c-0.2,0-0.9-5-1.5-11.2
			C440.6,549.8,440.2,544.7,440.4,544.7z"/>
		<path class="st3" d="M508.8,398.3c-0.2-1.1-1.6-1.6-2.5-1l-0.1,0.1c-0.8,0.7-0.5,2.3,0.5,2.6C507.8,400.4,509,399.4,508.8,398.3z"
			/>
		<path class="st3" d="M495.5,365.7c-0.2-1.1-1.6-1.6-2.5-1l-0.1,0.1c-0.8,0.7-0.5,2.3,0.5,2.6C494.4,367.8,495.6,366.8,495.5,365.7
			z"/>
		<path class="st3" d="M464.8,392c-0.2-1.1-1.6-1.6-2.5-1l-0.1,0.1c-0.8,0.7-0.5,2.3,0.5,2.6C463.8,394,465,393,464.8,392z"/>
		<path class="st3" d="M431.6,378.8c-0.2-1.1-1.6-1.6-2.5-1l-0.1,0.1c-0.8,0.7-0.5,2.3,0.5,2.6C430.6,380.9,431.8,379.8,431.6,378.8
			z"/>
		<path class="st3" d="M425.8,365.8c-0.2-1.1-1.6-1.6-2.5-1l-0.1,0.1c-0.8,0.7-0.5,2.3,0.5,2.6C424.7,367.9,425.9,366.9,425.8,365.8
			z"/>
		<path class="st3" d="M428.3,350.8c-0.2-1.1-1.6-1.6-2.5-1l-0.1,0.1c-0.8,0.7-0.5,2.3,0.5,2.6C427.3,352.9,428.5,351.8,428.3,350.8
			z"/>
		<path class="st3" d="M409.9,371.4c-0.2-1.1-1.6-1.6-2.5-1l-0.1,0.1c-0.8,0.7-0.5,2.3,0.5,2.6C408.9,373.5,410.1,372.5,409.9,371.4
			z"/>
		<path class="st3" d="M452.5,377.4c-0.2-1.1-1.6-1.6-2.5-1l-0.1,0.1c-0.8,0.7-0.5,2.3,0.5,2.6C451.4,379.4,452.7,378.4,452.5,377.4
			z"/>
		<path class="st3" d="M416.5,404.1c-0.2-1.1-1.6-1.6-2.5-1l-0.1,0.1c-0.8,0.7-0.5,2.3,0.5,2.6C415.4,406.2,416.6,405.2,416.5,404.1
			z"/>
		<path class="st3" d="M383.5,481.1c-0.2-1.1-1.6-1.6-2.5-1l-0.1,0.1c-0.8,0.7-0.5,2.3,0.5,2.6C382.4,483.1,383.7,482.1,383.5,481.1
			z"/>
		<path class="st3" d="M395.3,436.7c-0.2-1.1-1.6-1.6-2.5-1l-0.1,0.1c-0.8,0.7-0.5,2.3,0.5,2.6S395.4,437.8,395.3,436.7z"/>
		<path class="st3" d="M482,358.8c-0.2-1.1-1.6-1.6-2.5-1l-0.1,0.1c-0.8,0.7-0.5,2.3,0.5,2.6C480.9,360.8,482.1,359.8,482,358.8z"/>
		<path class="st3" d="M523.4,447.1c-0.2-1.1-1.6-1.6-2.5-1l-0.1,0.1c-0.8,0.7-0.5,2.3,0.5,2.6C522.3,449.2,523.5,448.2,523.4,447.1
			z"/>
		<path class="st3" d="M539.5,371.1c-0.2-1.1-1.6-1.6-2.5-1l-0.1,0.1c-0.8,0.7-0.5,2.3,0.5,2.6C538.4,373.2,539.7,372.2,539.5,371.1
			z"/>
		<path class="st3" d="M533.2,420.9c-0.2-1.1-1.6-1.6-2.5-1l-0.1,0.1c-0.8,0.7-0.5,2.3,0.5,2.6C532.1,423,533.3,422,533.2,420.9z"/>
		<path class="st3" d="M497,456.9c-0.2-1.1-1.6-1.6-2.5-1l-0.1,0.1c-0.8,0.7-0.5,2.3,0.5,2.6C495.9,458.9,497.2,457.9,497,456.9z"/>
		<path class="st3" d="M498.5,426.9c-0.2-1.1-1.6-1.6-2.5-1l-0.1,0.1c-0.8,0.7-0.5,2.3,0.5,2.6C497.5,429,498.7,428,498.5,426.9z"/>
		<path class="st3" d="M520.3,371.4c-0.2-1.1-1.6-1.6-2.5-1l-0.1,0.1c-0.8,0.7-0.5,2.3,0.5,2.6C519.3,373.4,520.5,372.4,520.3,371.4
			z"/>
		<path class="st3" d="M491,342.4c-0.2-1.1-1.6-1.6-2.5-1l-0.1,0.1c-0.8,0.7-0.5,2.3,0.5,2.6C489.9,344.4,491.1,343.4,491,342.4z"/>
		<path class="st3" d="M489.9,389.1c-0.2-1.1-1.6-1.6-2.5-1l-0.1,0.1c-0.8,0.7-0.5,2.3,0.5,2.6C488.9,391.2,490.1,390.2,489.9,389.1
			z"/>
		<path class="st3" d="M452.4,531.7c-0.2-1.1-1.6-1.6-2.5-1l-0.1,0.1c-0.8,0.7-0.5,2.3,0.5,2.6C451.4,533.8,452.6,532.8,452.4,531.7
			z"/>
		<path class="st3" d="M409.4,508.3c-0.2-1.1-1.6-1.6-2.5-1l-0.1,0.1c-0.8,0.7-0.5,2.3,0.5,2.6C408.3,510.3,409.6,509.3,409.4,508.3
			z"/>
		<path class="st3" d="M374.6,519.8c-0.2-1.1-1.6-1.6-2.5-1l-0.1,0.1c-0.8,0.7-0.5,2.3,0.5,2.6C373.6,521.8,374.8,520.8,374.6,519.8
			z"/>
		<path class="st3" d="M370.9,539.6c-0.2-1.1-1.6-1.6-2.5-1l-0.1,0.1c-0.8,0.7-0.5,2.3,0.5,2.6C369.8,541.6,371.1,540.6,370.9,539.6
			z"/>
		<path class="st3" d="M403.5,546.2c-0.2-1.1-1.6-1.6-2.5-1l-0.1,0.1c-0.8,0.7-0.5,2.3,0.5,2.6C402.5,548.3,403.7,547.3,403.5,546.2
			z"/>
		<path class="st3" d="M392.6,501.9c-0.2-1.1-1.6-1.6-2.5-1l-0.1,0.1c-0.8,0.7-0.5,2.3,0.5,2.6C391.5,503.9,392.8,502.9,392.6,501.9
			z"/>
		<path class="st3" d="M432.6,513.1c-0.2-1.1-1.6-1.6-2.5-1l-0.1,0.1c-0.8,0.7-0.5,2.3,0.5,2.6S432.8,514.2,432.6,513.1z"/>
		<path class="st3" d="M527.7,501.8c-0.2-1.1-1.6-1.6-2.5-1l-0.1,0.1c-0.8,0.7-0.5,2.3,0.5,2.6C526.6,503.9,527.9,502.8,527.7,501.8
			z"/>
		<path class="st3" d="M468.9,558.2c-0.2-1.1-1.6-1.6-2.5-1l-0.1,0.1c-0.8,0.7-0.5,2.3,0.5,2.6S469,559.2,468.9,558.2z"/>
		<path class="st3" d="M493.9,526.8c-0.2-1.1-1.6-1.6-2.5-1l-0.1,0.1c-0.8,0.7-0.5,2.3,0.5,2.6C492.9,528.8,494.1,527.8,493.9,526.8
			z"/>
		<path class="st3" d="M508.9,552.3c-0.2-1.1-1.6-1.6-2.5-1l-0.1,0.1c-0.8,0.7-0.5,2.3,0.5,2.6C507.8,554.4,509,553.4,508.9,552.3z"
			/>
		<path class="st3" d="M467.4,418.6c-0.2-1.1-1.6-1.6-2.5-1l-0.1,0.1c-0.8,0.7-0.5,2.3,0.5,2.6C466.3,420.7,467.5,419.7,467.4,418.6
			z"/>
		<path class="st3" d="M501.1,483.8c-0.2-1.1-1.6-1.6-2.5-1l-0.1,0.1c-0.8,0.7-0.5,2.3,0.5,2.6C500.1,485.9,501.3,484.9,501.1,483.8
			z"/>
		<path class="st3" d="M490.2,508.5c-0.2-1.1-1.6-1.6-2.5-1l-0.1,0.1c-0.8,0.7-0.5,2.3,0.5,2.6C489.1,510.5,490.4,509.5,490.2,508.5
			z"/>
		<path class="st3" d="M526.2,528.3c-0.2-1.1-1.6-1.6-2.5-1l-0.1,0.1c-0.8,0.7-0.5,2.3,0.5,2.6C525.1,530.4,526.3,529.4,526.2,528.3
			z"/>
		<path class="st3" d="M427.7,556.9c-0.2-1.1-1.6-1.6-2.5-1l-0.1,0.1c-0.8,0.7-0.5,2.3,0.5,2.6C426.6,559,427.9,558,427.7,556.9z"/>
		<path class="st3" d="M345.7,549.4c-0.2-1.1-1.6-1.6-2.5-1l-0.1,0.1c-0.8,0.7-0.5,2.3,0.5,2.6C344.6,551.5,345.8,550.5,345.7,549.4
			z"/>
		<path class="st3" d="M417.9,536c-0.2-1.1-1.6-1.6-2.5-1l-0.1,0.1c-0.8,0.7-0.5,2.3,0.5,2.6S418.1,537,417.9,536z"/>
		<path class="st3" d="M348.7,521.3c-0.2-1.1-1.6-1.6-2.5-1l-0.1,0.1c-0.8,0.7-0.5,2.3,0.5,2.6C347.6,523.4,348.9,522.4,348.7,521.3
			z"/>
		<path class="st3" d="M464.3,474.8c-0.2-1.1-1.6-1.6-2.5-1l-0.1,0.1c-0.8,0.7-0.5,2.3,0.5,2.6C463.3,476.8,464.5,475.8,464.3,474.8
			z"/>
		<path class="st3" d="M440.1,404.1c-0.2-1.1-1.6-1.6-2.5-1l-0.1,0.1c-0.8,0.7-0.5,2.3,0.5,2.6C439.1,406.2,440.3,405.2,440.1,404.1
			z"/>
		<path class="st3" d="M434.1,465.4c-0.2-1.1-1.6-1.6-2.5-1l-0.1,0.1c-0.8,0.7-0.5,2.3,0.5,2.6C433,467.5,434.3,466.4,434.1,465.4z"
			/>
		<path class="st3" d="M424.2,445.4c-0.2-1.1-1.6-1.6-2.5-1l-0.1,0.1c-0.8,0.7-0.5,2.3,0.5,2.6C423.2,447.5,424.4,446.5,424.2,445.4
			z"/>
		<path class="st3" d="M467.8,508.2c-0.2-1.1-1.6-1.6-2.5-1l-0.1,0.1c-0.8,0.7-0.5,2.3,0.5,2.6C466.7,510.3,468,509.3,467.8,508.2z"
			/>
		<path class="st3" d="M437.1,495.9c-0.2-1.1-1.6-1.6-2.5-1l-0.1,0.1c-0.8,0.7-0.5,2.3,0.5,2.6C436,498,437.3,496.9,437.1,495.9z"/>
		<path class="st3" d="M450.2,428.3c-0.2-1.1-1.6-1.6-2.5-1l-0.1,0.1c-0.8,0.7-0.5,2.3,0.5,2.6C449.2,430.3,450.4,429.3,450.2,428.3
			z"/>
		<path class="st3" d="M403.5,476.1c-0.2-1.1-1.6-1.6-2.5-1l-0.1,0.1c-0.8,0.7-0.5,2.3,0.5,2.6C402.5,478.2,403.7,477.2,403.5,476.1
			z"/>
		<path class="st3" d="M475.6,454.2c-0.2-1.1-1.6-1.6-2.5-1l-0.1,0.1c-0.8,0.7-0.5,2.3,0.5,2.6C474.6,456.2,475.8,455.2,475.6,454.2
			z"/>
		<path class="st3" d="M542.5,396.8c-0.2-1.1-1.6-1.6-2.5-1l-0.1,0.1c-0.8,0.7-0.5,2.3,0.5,2.6C541.5,398.9,542.7,397.8,542.5,396.8
			z"/>
		<path class="st3" d="M515.4,353.3c-0.2-1.1-1.6-1.6-2.5-1l-0.1,0.1c-0.8,0.7-0.5,2.3,0.5,2.6C514.3,355.4,515.5,354.4,515.4,353.3
			z"/>
		<path class="st3" d="M462.7,358.8c-0.2-1.1-1.6-1.6-2.5-1l-0.1,0.1c-0.8,0.7-0.5,2.3,0.5,2.6C461.7,360.8,462.9,359.8,462.7,358.8
			z"/>
		<path class="st2" d="M409,202.8c-10.1,6.4-14.1,19.9-12.2,27.8c1,4,2.8,8.1,2,12.1c-0.7,3.5-3.2,6.3-5.1,9.3
			c-6.3,10.1-5.2,24.2,2.6,33.2c7.8,9,21.6,12.1,32.5,7.4"/>
		<path class="st2" d="M403,255.4c-24.6-54,33.9-81.2,65.7-72.2c30,8.5,42.7,23.4,47.7,43.4c4.9,20.1,4.7,41.8-3.2,60.9
			c-3.9,9.4-10.8,19-21,20.2"/>
		<path class="st3" d="M431.8,387.3c-0.4-25.8-0.7-61.3-0.7-61.1c0,0-22.2-3.7-26.8-32.6c-2.3-14.4-1.6-38-0.3-57.3
			c1.1-17.4,12.6-38.7,29.9-36.8l54,13.7c5.3,0.6,9.2,5,9.1,10.3l-3.5,111.8"/>
		<path class="st2" d="M413.6,253.9c-0.1,1.9,1.5,3.6,3.5,3.8c2,0.1,3.8-1.3,3.8-3.3c0.1-1.9-1.5-3.6-3.5-3.8
			C415.4,250.5,413.7,252,413.6,253.9z"/>
		<path class="st2" d="M452,253.9c-0.1,1.9,1.5,3.6,3.5,3.8c2,0.1,3.8-1.3,3.8-3.3c0.1-1.9-1.5-3.6-3.5-3.8
			C453.8,250.5,452.1,252,452,253.9z"/>
		<path class="st2" d="M409.6,247.2c0.4,0.5,3.3-1.5,7.3-1.3c4,0.1,6.8,2.2,7.3,1.8c0.2-0.2-0.2-1.1-1.5-2.1c-1.2-1-3.3-1.9-5.8-2
			c-2.5-0.1-4.6,0.8-5.8,1.7C409.9,246.1,409.4,247,409.6,247.2z"/>
		<path class="st2" d="M447.5,248.1c0.5,0.5,3.3-1.6,7.3-1.6c4-0.1,6.9,2,7.4,1.5c0.2-0.2-0.3-1.1-1.5-2c-1.3-0.9-3.4-1.8-5.9-1.8
			c-2.5,0-4.6,0.9-5.8,1.9C447.7,247.1,447.3,247.9,447.5,248.1z"/>
		<path class="st2" d="M433.9,278.9c0-0.2-2.5-0.7-6.5-1.2c-1-0.1-2-0.3-2.2-1c-0.2-0.7,0.2-1.8,0.7-3c1-2.5,2-5.1,3-7.8
			c4.2-11.1,7.2-20.2,6.8-20.3c-0.4-0.2-4.2,8.7-8.4,19.7c-1,2.7-2,5.3-2.9,7.8c-0.4,1.2-1.1,2.5-0.5,4c0.3,0.8,1,1.3,1.7,1.5
			c0.7,0.2,1.2,0.2,1.7,0.2C431.3,279.1,433.8,279.1,433.9,278.9z"/>
		<path class="st2" d="M431.1,326.2c0,0,19.5,1.3,38.8-10.3c0,0-9.8,20.1-38.8,17.4V326.2z"/>
		<path class="st2" d="M446.6,242.5c0.4,1.1,4.4,0.6,9.1,1.1c4.7,0.5,8.5,1.8,9.1,0.9c0.3-0.5-0.4-1.5-1.9-2.5
			c-1.5-1.1-3.9-2.1-6.7-2.4c-2.8-0.3-5.4,0.1-7.1,0.8C447.3,241.1,446.4,242,446.6,242.5z"/>
		<path class="st2" d="M410.5,237.1c0.7,0.9,3.5,0,6.8-0.1c3.3-0.2,6.1,0.6,6.8-0.3c0.3-0.5-0.2-1.4-1.4-2.2
			c-1.2-0.9-3.2-1.6-5.5-1.5c-2.3,0.1-4.2,0.9-5.4,1.8C410.6,235.8,410.2,236.7,410.5,237.1z"/>
		<path class="st3" d="M492,261.5c0.4-0.2,15.5-6.9,15.7,10.5c0.2,17.3-17.3,13.9-17.3,13.4C490.4,284.9,492,261.5,492,261.5z"/>
		<path class="st2" d="M495.6,278.8c0.1-0.1,0.3,0.2,0.8,0.4c0.5,0.2,1.4,0.4,2.3,0c1.8-0.7,3.3-3.6,3.4-6.7c0-1.6-0.3-3.1-0.9-4.3
			c-0.5-1.3-1.4-2.1-2.3-2.3c-0.9-0.2-1.6,0.4-1.8,0.8c-0.2,0.5-0.1,0.8-0.2,0.9c-0.1,0-0.4-0.3-0.2-1c0.1-0.3,0.3-0.8,0.7-1.1
			c0.4-0.3,1-0.5,1.7-0.5c1.3,0.1,2.6,1.3,3.2,2.7c0.7,1.4,1.1,3.1,1.1,4.8c-0.1,3.5-1.8,6.8-4.3,7.5c-1.2,0.3-2.2,0-2.8-0.4
			C495.7,279.2,495.6,278.8,495.6,278.8z"/>
		<path class="st2" d="M428.1,190.9c-9.6,5-13.6,24.7-9.6,34.8c4,10.1,14.7,15,25.3,17.3c10.6,2.3,21,2.6,31.4-0.3
			c0.7,7,4.9,14.3,11.8,16.1c9,2.5,18.1-5.8,20.1-15c2-9.1-1-18.6-4-27.4"/>
		<path class="st2" d="M504.6,253.7c0,0.1-0.4,0.5-1.3,1.3c-0.9,0.8-2.2,1.8-4,3c-1.8,1.2-4,2.5-6.7,3.3c-2.7,0.8-6,1.1-9.2-0.1
			c-3.2-1.2-5.5-3.6-7-6c-1.5-2.5-2.2-5-2.5-7.1c-0.3-2.1-0.3-3.8-0.3-5c0.1-1.2,0.2-1.8,0.2-1.8c0.2,0,0,2.6,0.7,6.7
			c0.4,2,1.1,4.4,2.6,6.7c1.4,2.3,3.6,4.5,6.5,5.6c2.9,1.1,6,0.9,8.6,0.2c2.6-0.7,4.8-1.9,6.6-3
			C502.4,255.2,504.5,253.6,504.6,253.7z"/>
		<path class="st7" d="M435,290c0.6,1.5,1.2,3,2.2,4.2c1,1.2,2.4,2.2,4,2.3c1.7,0.1,3.3-0.9,4.3-2.3c0.9-1.4,1.3-3.2,1.2-4.8
			c-0.1-1.5-0.8-3.3-2.3-3.5c-0.6-0.1-1.3,0.2-1.8,0.4c-2.7,1.1-5.3,2.2-8,3.2"/>
		<path class="st2" d="M438.2,296.6c0-0.2,1.8,0.5,4.3-0.5c1.2-0.5,2.5-1.4,3.2-2.9c0.7-1.5,0.9-3.5,0.1-5.2
			c-0.2-0.4-0.4-0.8-0.7-1.2c-0.3-0.3-0.3-0.3-0.6-0.3c-0.3,0.1-0.8,0.3-1.3,0.5c-0.4,0.2-0.9,0.4-1.3,0.5c-1.7,0.7-3.3,1.3-4.6,1.8
			c-2.6,1-4.3,1.5-4.3,1.3c-0.1-0.2,1.4-1,3.9-2.2c1.3-0.6,2.8-1.3,4.4-2.1c0.4-0.2,0.8-0.4,1.3-0.6c0.5-0.2,0.8-0.4,1.5-0.6
			c0.3-0.1,0.8-0.1,1.2,0c0.4,0.2,0.7,0.5,0.9,0.7c0.4,0.5,0.7,1,0.9,1.5c0.9,2.2,0.7,4.6-0.2,6.4c-1,1.8-2.6,2.8-4.1,3.3
			c-1.4,0.4-2.7,0.3-3.4,0.1C438.6,297,438.2,296.7,438.2,296.6z"/>
		<path class="st6" d="M511.5,249.6c-1.8-0.1-16.1,1.7-15,28.3c1.1,24.9,18.5,19.4,24.1,10C525.8,279.1,528.9,250.9,511.5,249.6z"/>
		<path class="st3" d="M510.6,249.7l-1.4-34h6.1l1.5,35.5l-1-0.5l-1.4-34.3h-4.3l1.4,33.3L510.6,249.7z"/>
		<path class="st6" d="M508.1,216.4c0,0-4.2-17.5-22-26.2c-8.6-4.2-15.1-6.3-21.4-7.9c0,0,10.4-2.5,27.2,5
			c7.7,3.4,14.7,7.8,19.8,14.5c3.2,4.2,4.6,12.5,4.6,14.6L508.1,216.4L508.1,216.4z"/>
		<path class="st3" d="M465.3,428.5c0,0,0.1-0.1,0.3-0.3c0.2-0.2,0.6-0.6,1-1c0.8-0.9,2.1-2.2,3.5-4.1c1.4-1.9,3-4.3,4.7-7.2
			c1.7-2.9,3.4-6.3,5.3-10.2c3.8-7.7,8.2-16.9,12.7-27.6c2.3-5.3,4.6-11,6.9-16.9c0.6-1.5,1.1-3,1.7-4.5c0.6-1.5,1.2-3.1,2.1-4.5
			c0.9-1.5,2.2-2.7,3.7-3.5c0.8-0.4,1.7-0.7,2.6-0.7c0.5,0,1,0.2,1.4,0.5c0.4,0.3,0.7,0.7,0.9,1.2l0,0.1l0,0.1
			c-0.1,0.6-0.3,1.2-0.7,1.7c-0.4,0.5-1,0.9-1.6,1.1c-1.3,0.3-2.5-0.1-3.6-0.7c-2.3-1-3.7-3.7-3.2-6.2c0.2-1.3,1-2.4,2.1-3.1
			c1.1-0.7,2.3-1.1,3.6-1c1.3,0.1,2.7,0.6,3.4,1.9c0.4,0.6,0.3,1.5-0.1,2.1c-0.4,0.6-1,0.9-1.6,1.2c-2.2,0.9-4.8,0.1-6.1-1.7
			c-0.7-0.9-1-2.1-0.8-3.2c0.1-1.1,0.6-2.2,1.3-3c0.7-0.8,1.7-1.4,2.9-1.6c1.1-0.1,2.3,0.2,3.1,1.1c0.4,0.4,0.6,1,0.6,1.6
			c0,0.6-0.3,1.2-0.7,1.6c-0.9,0.8-2,1.1-3.1,0.8c-1.1-0.2-2-1.1-2.5-2c-0.5-0.9-0.8-1.9-0.9-3c-0.3-2-0.2-4.1,0.7-6
			c0.5-0.9,1.2-1.7,2.2-2.2c1-0.4,2.1-0.3,3.1,0.1c0.9,0.4,1.8,1.2,1.9,2.4c0.1,1.1-0.7,2.1-1.6,2.5c-0.9,0.4-2.1,0.5-2.9,0
			c-0.9-0.5-1.5-1.3-1.8-2.2c-0.3-0.9-0.3-1.9-0.2-2.8c0.1-0.9,0.3-1.8,0.6-2.7c0.3-0.9,0.8-1.7,1.6-2.3c0.7-0.6,1.5-1,2.4-1.2
			c0.4-0.1,0.9-0.2,1.4,0c0.5,0.2,0.8,0.4,1.2,0.7c0.3,0.3,0.6,0.7,0.8,1.1c0.2,0.4,0.2,0.9,0,1.4c-0.4,1-1.5,1.3-2.3,1.3
			c-0.9,0-1.7-0.3-2.4-0.8c-1.4-1-2.3-2.5-2.6-4c-0.3-1.6-0.2-3.2,0.5-4.6c0.4-0.7,0.8-1.3,1.4-1.8c0.6-0.5,1.3-0.8,2.1-0.9
			c0.7-0.1,1.5-0.1,2.2,0.3c0.7,0.4,1.1,1.1,1.2,1.8c0.1,1.5-1.1,2.7-2.4,3.1c-1.4,0.4-2.7-0.4-3.5-1.3c-0.8-0.9-1.2-2.1-1.3-3.3
			c-0.1-2.3,0.8-4.3,1.3-6.1c0.5-1.8,1-3.5,1.4-5.1c0.9-3,1.5-5.3,2-7c0.2-0.8,0.4-1.4,0.5-1.8c0.1-0.4,0.2-0.6,0.2-0.6
			s0,0.2-0.1,0.6c-0.1,0.4-0.3,1.1-0.5,1.8c-0.4,1.6-1.1,4-1.9,7c-0.4,1.5-0.9,3.2-1.4,5.1c-0.4,1.9-1.3,3.8-1.2,6
			c0.1,1.1,0.5,2.2,1.2,3.1c0.7,0.8,1.9,1.5,3.1,1.2c1.1-0.3,2.2-1.4,2.1-2.6c0-0.6-0.4-1.2-0.9-1.4c-0.5-0.3-1.2-0.3-1.9-0.2
			c-0.7,0.1-1.3,0.4-1.8,0.8c-0.5,0.4-1,1-1.3,1.6c-0.6,1.3-0.8,2.8-0.5,4.2c0.3,1.4,1.1,2.8,2.4,3.7c0.6,0.4,1.3,0.7,2.1,0.7
			c0.7,0,1.5-0.3,1.8-0.9c0.3-0.6-0.2-1.4-0.7-1.9c-0.3-0.3-0.6-0.5-0.9-0.6c-0.3-0.1-0.7-0.1-1.1,0c-1.6,0.4-3.1,1.5-3.6,3.1
			c-0.3,0.8-0.4,1.7-0.6,2.5c-0.1,0.9-0.1,1.7,0.2,2.5c0.3,0.8,0.8,1.5,1.5,1.9c0.7,0.4,1.6,0.4,2.4,0c0.8-0.3,1.3-1.1,1.3-1.9
			c0-0.8-0.7-1.5-1.5-1.8c-0.8-0.3-1.8-0.4-2.6-0.1c-0.8,0.3-1.4,1.1-1.8,1.9c-0.8,1.7-0.9,3.7-0.6,5.6c0.1,0.9,0.4,1.9,0.9,2.7
			c0.5,0.8,1.2,1.5,2.1,1.7c0.9,0.2,1.9-0.1,2.6-0.7c0.7-0.6,0.7-1.7,0.1-2.3c-0.6-0.7-1.6-1-2.6-0.9c-0.9,0.1-1.8,0.6-2.5,1.4
			c-1.3,1.4-1.7,3.8-0.5,5.4c1.2,1.6,3.5,2.3,5.4,1.5c0.5-0.2,1-0.5,1.3-1c0.3-0.4,0.3-0.9,0.1-1.4c-0.5-0.9-1.7-1.4-2.8-1.5
			c-2.3-0.2-4.6,1.4-5,3.6c-0.4,2.2,0.7,4.6,2.8,5.5c1,0.5,2.1,0.8,3.1,0.6c1-0.2,1.6-1.2,1.8-2.2l0,0.2c-0.3-0.7-0.9-1.2-1.7-1.3
			c-0.8,0-1.6,0.2-2.3,0.6c-1.5,0.7-2.6,1.9-3.5,3.3c-0.9,1.4-1.4,2.9-2,4.4c-0.6,1.5-1.2,3-1.7,4.5c-2.3,6-4.6,11.6-6.9,16.9
			c-4.6,10.6-9,19.9-12.8,27.6c-1.9,3.8-3.7,7.2-5.4,10.2c-1.7,2.9-3.3,5.3-4.8,7.2C467.3,426.9,465.3,428.5,465.3,428.5z"/>
		<path class="st3" d="M527,237.2c-0.1,0,0.1-1.8-1.2-4.7c-1.2-2.9-4.1-6.8-9.2-9.2c-2.5-1.2-5.6-1.9-8.9-2.2
			c-3.3-0.2-6.9,0.1-10.5,0.8c-7.3,1.3-15.1,4.5-23.7,5.8c-4.3,0.6-8.6,0.5-12.7,0c-4.1-0.6-7.9-1.7-11.4-3.1
			c-7-2.9-12.6-6.9-16.6-11c-4-4.1-6.6-7.9-8.1-10.8c-0.4-0.7-0.7-1.3-0.9-1.9c-0.2-0.6-0.4-1-0.6-1.4c-0.2-0.4-0.3-0.6-0.4-0.9
			c-0.1-0.2-0.1-0.3-0.1-0.3c0,0,0.1,0.1,0.2,0.3c0.1,0.2,0.3,0.5,0.4,0.8c0.2,0.4,0.4,0.8,0.7,1.4c0.3,0.6,0.6,1.2,1,1.8
			c1.5,2.8,4.1,6.6,8.2,10.6c4,4,9.6,7.9,16.5,10.7c3.5,1.3,7.2,2.5,11.3,3c4,0.5,8.2,0.6,12.5,0c8.5-1.3,16.3-4.4,23.7-5.8
			c3.7-0.7,7.3-1,10.7-0.8c3.4,0.2,6.4,1,9,2.3c5.2,2.6,8.1,6.6,9.2,9.5c0.6,1.5,0.8,2.7,0.9,3.6c0,0.4,0,0.7,0,0.9
			C527,237.1,527,237.2,527,237.2z"/>
		<path class="st3" d="M507.7,209.5c0,0-0.3,0.1-0.9,0.2c-0.6,0.1-1.5,0.2-2.6,0.4c-2.3,0.4-5.6,1.1-9.6,2.1c-4,1-8.8,2.2-14.3,2.8
			c-5.5,0.6-11.6,0.5-17.9-0.4c-6.3-0.9-12.2-2.6-17.3-4.6c-5.1-2.1-9.5-4.4-13-6.7c-1.7-1.2-3.3-2.2-4.6-3.3
			c-1.3-1.1-2.4-1.9-3.3-2.7c-0.8-0.8-1.5-1.4-1.9-1.8c-0.4-0.4-0.7-0.7-0.7-0.7s0.3,0.2,0.7,0.6c0.5,0.4,1.2,1,2,1.7
			c0.9,0.8,2,1.6,3.3,2.6c1.3,1,2.9,2,4.6,3.2c6.9,4.4,17.5,9.3,30.1,11.1c6.2,0.9,12.3,1,17.7,0.4c5.4-0.5,10.2-1.7,14.3-2.6
			c4-0.9,7.3-1.6,9.7-1.9c1.2-0.2,2.1-0.3,2.7-0.3C507.3,209.5,507.7,209.5,507.7,209.5z"/>
		<path class="st2" d="M509.6,295.4c0,0-0.2,0-0.5-0.1c-0.3-0.1-0.8-0.3-1.3-0.7c-1.1-0.7-2.6-2-3.8-4c-1.2-2-2-4.7-2.3-7.8
			c-0.3-3.1-0.3-6.4,0-9.9c0.3-3.5,0.9-6.8,1.6-9.8c0.7-3,1.6-5.6,2.9-7.6c1.2-2,2.7-3.3,3.8-4c0.6-0.3,1-0.6,1.3-0.7
			c0.3-0.1,0.5-0.2,0.5-0.1c0,0.1-0.7,0.3-1.7,1c-1,0.7-2.4,2-3.5,4c-1.1,2-2,4.6-2.7,7.5c-0.7,2.9-1.3,6.2-1.6,9.7
			c-0.3,3.5-0.3,6.8,0,9.8c0.3,3,1,5.7,2.1,7.6c1.1,2,2.5,3.3,3.5,4C508.9,295.1,509.6,295.4,509.6,295.4z"/>
		<path class="st6" d="M453.4,299.1l-13.2,2.6c-2,0.4-3.9-0.9-4.3-2.9l-0.1-0.5c-0.4-2,0.9-3.9,2.9-4.3l13.2-2.6
			c2-0.4,3.9,0.9,4.3,2.9l0.1,0.5C456.7,296.8,455.4,298.7,453.4,299.1z"/>
		<path class="st6" d="M455.8,293l59.5-18.7c1.5-0.5,3.1,0.4,3.6,1.9c0.5,1.6-0.4,3.2-2,3.6l-60.6,16.4L455.8,293z"/>
		<path class="st2" d="M399.9,238.5c2.1,7.3-5.3,13.6-8,20.7c-2.5,6.9-0.4,14.6,2.7,21.3c3.1,6.7,7.2,13,8.8,20.2
			c3.9,17.7-12.1,36.8-9,54.6c1.1,6.5,3.7,13.3,6,19.5c2.3,6.2,2.1,11.9,0,18.1c-3.5,10.2-9.3,15.1-13.5,25
			c-2.1,5.1-1.9,10.8-1.8,16.3c0.1,5.5,0.1,11.3-2.4,16.2c-2.5,4.9-8.1,8.8-13.4,7.3c5.6,6.6,15.9,8.5,23.5,4.5
			c7-3.7,10.9-11.3,14.3-18.5c16.3-34.9,24.9-37.8,24.4-76.3c0-2.5-0.5-41-0.5-41s-6.1-1.6-9.6-4.1c-18.2-12.5-18.8-34.9-18.7-52.2"
			/>
		<path class="st3" d="M436.6,355.7l-0.4,14c0,0-11.2,57-14.5,88.6c-3.3,31.7-3.9,40-3.9,40s8,12.5,24.8-8.7
			c16.8-21.2,19.7-24.6,26.4-24.9c0,0-8.2-89-7.8-92.4c0.3-2.5,1.8-4.8,2.6-5.8c0.3-0.3,0.4-0.5,0.4-0.5"/>
		<path class="st8" d="M436.6,355.7l-0.4,14c0,0-11.2,57-14.5,88.6c-3.3,31.7-3.9,40-3.9,40s8,12.5,24.8-8.7
			c16.8-21.2,19.7-24.6,26.4-24.9c0,0-8.2-89-7.8-92.4c0.3-2.5,1.8-4.8,2.6-5.8c0.3-0.3,0.4-0.5,0.4-0.5"/>
		<path class="st3" d="M458.2,322.4c0,0-18.2,24.2-19.7,27.6c-1.5,3.3-2.2,5.2-2.2,5.2l27.9,10.8l27.2-29.8l10.1-26.4l-3-31.3
			c0,0-6-0.4-7.1,4.8c-1.1,5.2-0.7,10.1-0.7,10.1l-8.3-6.7l-13.4-4.1c0,0-3.2,5.2,2.1,7.8c5.2,2.6,6.7,2.6,6.7,2.6l4.7,8.2l-2.1,9.2
			l-9.5-8.9c-1.9-1.8-4.8-2-6.9-0.4l-6.1,4.5l-5.8-2.6l-11.2,9.8l-4.5,4.1c0,0,3,5.6,8.9,3c6-2.6,6-2.6,6-2.6L458.2,322.4z"/>
		<path class="st2" d="M436.5,360.2c0,0,0-0.3,0-0.8s0-1.3,0-2.3c0.1-1,0.3-2.2,0.7-3.7c0.4-1.4,0.9-3.1,2-4.7
			c4.2-6.4,10.8-15.3,18.9-26.4l0.1,0.3c-2.2-1.6-4.6-3.4-7.1-5.2l0.3,0c-1.2,0.5-2.4,1.1-3.7,1.6c-1.3,0.5-2.5,1.2-3.9,1.5
			c-1.4,0.3-3,0.2-4.4-0.5c-1.4-0.7-2.5-1.8-3.3-3.1l-0.1-0.2l0.2-0.2c4.8-4.5,10.1-9.1,15.6-13.9l0.2-0.1l0.2,0.1
			c1.5,0.9,3.2,1.9,5,2.9l-0.3,0c1.9-1.3,3.8-2.5,5.8-3.8c1-0.6,1.9-1.3,3-1.9c1.2-0.6,2.7-0.5,3.7,0.3c3.7,3.1,7.5,6.3,11.3,9.6
			l-0.5,0.2c0.6-2.8,1.3-5.7,1.9-8.8l0,0.2c-1.5-2.6-3.1-5.4-4.7-8.2l0.3,0.2c-0.9-0.1-1.6-0.4-2.3-0.6c-0.7-0.3-1.5-0.6-2.2-0.9
			c-0.7-0.3-1.4-0.7-2.2-1c-0.4-0.2-0.7-0.4-1.1-0.6c-0.3-0.3-0.7-0.5-1-0.8c-0.9-0.9-1.4-2.2-1.3-3.4c0-1.2,0.4-2.4,1-3.5l0.1-0.2
			l0.3,0.1c4.5,1.4,9,2.8,13.4,4.1l0.1,0l0.1,0c2.8,2.3,5.6,4.5,8.3,6.7l-0.5,0.3c-0.2-3.4,0.1-6.7,0.7-9.9c0.3-1.6,1.3-3.3,2.7-4.1
			c1.4-0.9,3.1-1.2,4.7-1.2h0.3l0,0.3c1.1,11.1,2,21.6,2.9,31.3v0.1l0,0.1c-3.7,9.7-7.1,18.6-10.1,26.4l0,0l0,0
			c-8.9,9.7-16.1,17.6-21.1,23c-2.5,2.7-4.4,4.8-5.7,6.2c-0.6,0.7-1.1,1.2-1.5,1.6c-0.3,0.4-0.5,0.5-0.5,0.5s0.2-0.2,0.5-0.6
			c0.3-0.4,0.8-0.9,1.4-1.6c1.3-1.4,3.2-3.6,5.6-6.3c4.9-5.4,12.1-13.3,21-23.1l-0.1,0.1c3-7.8,6.3-16.7,10-26.5l0,0.1
			c-0.9-9.7-1.9-20.2-3-31.3l0.3,0.3c-1.5,0-3.1,0.3-4.4,1.1c-1.3,0.8-2.2,2.2-2.4,3.7c-0.6,3.1-0.9,6.4-0.7,9.7l0,0.7l-0.6-0.5
			c-2.7-2.2-5.5-4.4-8.3-6.7l0.1,0.1c-4.4-1.3-8.9-2.7-13.4-4.1l0.4-0.1c-0.5,0.9-0.9,2.1-0.9,3.2c-0.1,1.1,0.4,2.2,1.1,3
			c0.2,0.3,0.6,0.5,0.9,0.7c0.3,0.2,0.7,0.4,1,0.6c0.7,0.4,1.4,0.7,2.2,1c1.4,0.6,2.9,1.3,4.2,1.5l0.2,0l0.1,0.1
			c1.6,2.8,3.2,5.6,4.7,8.2l0.1,0.1l0,0.1c-0.7,3-1.3,6-2,8.8l-0.1,0.5l-0.4-0.3c-3.8-3.2-7.6-6.4-11.3-9.5
			c-0.9-0.7-2.1-0.8-3.1-0.3c-1,0.6-2,1.3-2.9,1.9c-2,1.3-3.9,2.6-5.8,3.8l-0.2,0.1l-0.2-0.1c-1.7-1-3.4-2-4.9-2.9l0.4,0
			c-5.5,4.9-10.8,9.4-15.7,13.9l0.1-0.3c0.7,1.2,1.8,2.3,3,2.9c1.2,0.7,2.7,0.8,4,0.5c1.3-0.3,2.6-1,3.8-1.5
			c1.3-0.6,2.5-1.1,3.7-1.6l0.1-0.1l0.1,0.1c2.5,1.8,4.9,3.6,7.1,5.2l0.2,0.1l-0.1,0.2c-8.2,11.1-14.9,19.9-19.1,26.3
			c-1.1,1.6-1.6,3.2-2,4.6c-0.4,1.4-0.6,2.6-0.8,3.6c-0.1,1,0,1.8-0.1,2.3C436.5,359.9,436.5,360.2,436.5,360.2z"/>
		<path class="st2" d="M470.8,328.1c-0.1,0,0.4-2,0.6-5.2c0.1-1.6,0-3.5-0.9-5.4c-0.8-1.9-2.5-3.5-4.4-5c-3.9-3-7.6-5.4-10.3-7
			c-1.3-0.8-2.4-1.4-3.3-1.9c-0.8-0.4-1.2-0.7-1.2-0.8c0,0,0.5,0.1,1.3,0.5c0.8,0.4,2,1,3.4,1.7c2.8,1.6,6.6,3.9,10.5,6.9
			c1.9,1.5,3.7,3.2,4.6,5.3c0.9,2,0.9,4.1,0.8,5.7c-0.1,1.6-0.4,2.9-0.6,3.8C471,327.6,470.9,328.1,470.8,328.1z"/>
		<path class="st2" d="M490.4,316.4c-0.1,0,0.2-1.3,0.5-3.3c0.3-2.1,0.6-4.9,0.6-8.1c0-3.2-0.4-6-0.7-8.1c-0.3-2.1-0.6-3.3-0.5-3.3
			c0.1,0,0.5,1.2,1,3.3c0.5,2.1,0.9,4.9,0.9,8.2c0,3.2-0.3,6.1-0.8,8.2C490.9,315.2,490.5,316.4,490.4,316.4z"/>
		<path class="st4" d="M365.9,221.4l-13.4-23.6c5.9-9.6,9.3-20.9,9.3-33c0-34.8-28.2-63-63-63c-34.8,0-63,28.2-63,63
			c0,34.8,28.2,63,63,63c14.5,0,27.9-4.9,38.6-13.2l0,0L365.9,221.4z"/>
		<path class="st3" d="M365.9,221.4c-1.2-0.3-10.3-2.4-28.5-6.6l-0.3-0.1l0.2-0.2l0,0l0.2,0.2c-3.6,2.8-7.9,5.5-13,7.8
			c-5.1,2.2-10.9,4.1-17.3,4.9c-3.2,0.4-6.5,0.7-10,0.5c-1.7-0.1-3.5-0.1-5.2-0.3c-1.7-0.3-3.5-0.5-5.3-0.8
			c-7.1-1.4-14.4-4.1-21.2-8.3c-6.8-4.2-13.1-9.9-18.1-16.9c-5-7-8.9-15.3-10.6-24.3c-1.8-9-1.6-18.7,0.7-28
			c2.4-9.3,6.8-18.4,13.5-25.9l2.6-2.8c0.8-0.9,1.9-1.7,2.8-2.6c1-0.8,1.8-1.8,2.9-2.5c1-0.8,2-1.5,3-2.3c1-0.8,2.1-1.4,3.1-2.1
			c1.1-0.7,2.1-1.3,3.2-1.9c1.1-0.5,2.2-1.1,3.3-1.6c1.1-0.5,2.2-1.1,3.4-1.5c9.1-3.6,18.9-5,28.2-4.3c9.3,0.7,18.3,3.3,25.9,7.7
			c7.7,4.3,14.2,10,19.2,16.4c5,6.4,8.6,13.4,10.7,20.4c2.2,7,2.8,14,2.7,20.5c-0.2,6.5-1.4,12.4-3.1,17.7c-1.7,5.2-4,9.8-6.3,13.6
			v-0.2C361.1,213,365.3,220.5,365.9,221.4c-0.6-1-4.8-8.4-13.5-23.5l-0.1-0.1l0.1-0.1c2.3-3.8,4.5-8.3,6.2-13.5
			c1.7-5.2,2.8-11.1,3-17.6c0-6.4-0.6-13.3-2.8-20.3c-2.2-6.9-5.7-13.9-10.7-20.2c-5-6.3-11.4-11.9-19-16.2
			c-7.6-4.3-16.4-6.9-25.7-7.6c-9.2-0.7-18.9,0.7-27.9,4.3c-1.2,0.4-2.2,1-3.3,1.5c-1.1,0.5-2.2,1.1-3.3,1.6
			c-1.1,0.6-2.1,1.3-3.2,1.9c-1.1,0.6-2.1,1.3-3.1,2.1c-1,0.7-2,1.5-3,2.2c-1,0.7-1.9,1.7-2.8,2.5c-0.9,0.9-1.9,1.6-2.7,2.6
			l-2.5,2.8c-6.6,7.4-11,16.4-13.4,25.6c-2.3,9.2-2.5,18.8-0.8,27.7c1.8,8.9,5.5,17.2,10.5,24.1c5,6.9,11.2,12.6,17.9,16.8
			c6.7,4.2,13.9,6.9,21,8.3c1.8,0.3,3.5,0.6,5.3,0.8c1.7,0.2,3.5,0.2,5.2,0.3c3.4,0.2,6.7-0.1,9.9-0.5c6.4-0.8,12.1-2.6,17.2-4.8
			c5-2.2,9.3-4.9,12.9-7.7l1-0.8l-0.8,1l0,0l-0.1-0.3C355.6,219,364.7,221.2,365.9,221.4z"/>
		<path class="st3" d="M285.2,164.9c0,2.8-2.3,5.1-5.1,5.1c-2.8,0-5.1-2.3-5.1-5.1c0-2.8,2.3-5.1,5.1-5.1
			C282.9,159.8,285.2,162.1,285.2,164.9z"/>
		<path class="st3" d="M305.7,164.9c0,2.8-2.3,5.1-5.1,5.1c-2.8,0-5.1-2.3-5.1-5.1c0-2.8,2.3-5.1,5.1-5.1
			C303.4,159.8,305.7,162.1,305.7,164.9z"/>
		<path class="st3" d="M326.1,162.3c1.4,2.4,0.6,5.6-1.9,7c-2.4,1.4-5.6,0.6-7-1.9c-1.4-2.4-0.6-5.6,1.9-7
			C321.6,159.1,324.7,159.9,326.1,162.3z"/>
		<path class="st2" d="M618,566.8c0,0.2-130.3,0.3-291.1,0.3c-160.8,0-291.1-0.2-291.1-0.3c0-0.2,130.3-0.3,291.1-0.3
			C487.6,566.5,618,566.6,618,566.8z"/>
		<path class="st2" d="M453.3,567.1c0,0,8.7-14.8,27.4-15.5s28.1,15.5,28.1,15.5H453.3z"/>
		<path class="st3" d="M489.1,566.7c-0.1,0-0.2-1.1-0.6-2.8c-0.4-1.7-1.2-4-2.7-6.2c-1.5-2.2-3.3-3.8-4.8-4.8
			c-1.4-1-2.4-1.4-2.4-1.5c0-0.1,1.1,0.2,2.7,1.1c1.6,0.9,3.6,2.5,5.1,4.8c1.6,2.3,2.3,4.7,2.6,6.5
			C489.4,565.6,489.2,566.7,489.1,566.7z"/>
		<path class="st2" d="M441.7,566.5v-0.1c-0.1-3.9-3.3-7.1-7.2-7.1H275.1c-4,0-7.2,3.2-7.2,7.2H441.7z"/>
		<path class="st2" d="M136.5,287.2c0,3.4,2.5,203.6,2.5,203.6l148.7,35.8H300l-7.8-279.5H281L136.5,287.2z"/>
		<path class="st2" d="M167.9,482.4l-46.1,84.5H164c-7.5-0.8,66.7,0,66.7,0L164,549.2l20.9-47.4l-1.8-19.4H167.9z"/>
		<path class="st2" d="M169,498l-5-157.4l45.3-4.3l5.6,168.1l-16.2,0.8L169,498z"/>
		<path class="st3" d="M221.2,510.5c0,0,0-0.2,0-0.7c0-0.5,0-1.2,0-2.2c0-1.9,0-4.7-0.1-8.4c0-7.3-0.1-17.9-0.1-31.3
			c0-26.8-0.1-64.4-0.1-108.1l0.3,0.3c-16.8,0-34.8,0-53.4,0l0.3-0.3c0,2.3,0,4.8,0,7.3c0,42.6,0,82.2-0.1,115.2v0.1l0,0.1
			c-13.9,25.4-25.4,46.5-33.4,61.3c-4,7.3-7.2,13.1-9.4,17.1c-1.1,1.9-1.9,3.4-2.5,4.5c-0.6,1-0.9,1.5-0.9,1.5s0.3-0.5,0.8-1.6
			c0.6-1,1.4-2.6,2.4-4.5c2.1-4,5.3-9.8,9.2-17.1c8-14.8,19.4-35.9,33.2-61.4l0,0.1c0-33,0-72.7-0.1-115.2c0-2.5,0-5,0-7.3v-0.3h0.3
			c18.6,0,36.7,0,53.4,0h0.3v0.3c-0.1,43.7-0.1,81.3-0.1,108.1c0,13.4-0.1,24-0.1,31.3c0,3.6,0,6.4-0.1,8.4c0,0.9,0,1.7,0,2.2
			C221.2,510.3,221.2,510.5,221.2,510.5z"/>
		<path class="st3" d="M184.8,501.8c0.2,0.1-6.2,14.9-14.3,33.1c-8.1,18.2-14.8,32.9-14.9,32.8c-0.2-0.1,6.2-14.9,14.3-33.1
			C178,516.4,184.7,501.7,184.8,501.8z"/>
		<path class="st3" d="M287.7,526.6c0,0,0-0.2,0-0.7c0-0.5,0-1.2,0-2.1c0-1.9-0.1-4.6-0.1-8.1c-0.1-7.1-0.2-17.3-0.5-29.9
			c-0.5-25.2-1.6-60.1-3-98.5c-1.4-38.5-2.5-73.3-2.8-98.6c-0.2-12.6-0.3-22.8-0.2-29.9c0-3.5,0-6.2,0-8.1c0-0.9,0-1.6,0-2.1
			c0-0.5,0-0.7,0-0.7s0,0.2,0,0.7c0,0.5,0,1.2,0,2.1c0,1.9,0.1,4.6,0.1,8.1c0.1,7.1,0.2,17.3,0.5,29.9c0.5,25.2,1.6,60.1,3,98.6
			c1.4,38.5,2.5,73.3,2.8,98.5c0.2,12.6,0.3,22.8,0.2,29.9c0,3.5,0,6.2,0,8.1c0,0.9,0,1.6,0,2.1
			C287.7,526.3,287.7,526.6,287.7,526.6z"/>
		<path class="st3" d="M213.1,358.7c0.2,0,0.3,33.5,0.3,74.8c0,41.3-0.2,74.8-0.3,74.8c-0.2,0-0.3-33.5-0.3-74.8
			C212.7,392.2,212.9,358.7,213.1,358.7z"/>
		<path class="st2" d="M132.9,553.7c0,0-0.2-0.3-0.6-0.9c-0.2-0.3-0.4-0.7-0.7-1.1c-0.3-0.4-0.6-0.9-0.9-1.6
			c-1.4-2.4-3-6.1-4.1-10.8c-1.1-4.8-1.5-10.7-0.8-17.1c0.7-6.4,2.5-13.4,5.6-20.3c1.6-3.4,3.6-6.5,5.8-9.2c0.5-0.7,1.1-1.4,1.7-2
			c0.6-0.6,1.2-1.3,1.7-1.9c1.2-1.2,2.4-2.4,3.7-3.4c2.4-2.1,5-3.8,7.4-5.4c1.3-0.7,2.4-1.4,3.7-2c1.2-0.6,2.3-1.2,3.5-1.6
			c4.5-1.8,8.4-2.7,11.2-3c1.4-0.2,2.4-0.1,3.1-0.2c0.7,0,1.1,0,1.1,0c0,0-0.4,0.1-1.1,0.1c-0.7,0.1-1.8,0.1-3.1,0.3
			c-2.7,0.3-6.6,1.3-11,3.2c-1.1,0.4-2.2,1.1-3.4,1.6c-1.2,0.6-2.4,1.3-3.6,2c-2.4,1.6-4.9,3.3-7.3,5.4c-1.3,1-2.4,2.2-3.6,3.4
			c-0.6,0.6-1.1,1.2-1.7,1.9c-0.6,0.6-1.1,1.3-1.7,2c-2.2,2.7-4.2,5.8-5.7,9.1c-3.1,6.7-4.8,13.7-5.6,20c-0.7,6.4-0.4,12.2,0.6,17
			c1,4.7,2.5,8.4,3.8,10.8c0.3,0.6,0.6,1.1,0.9,1.6c0.3,0.4,0.5,0.8,0.7,1.1C132.8,553.3,133,553.7,132.9,553.7z"/>
	</g>
</g>
</svg>
