<?xml version="1.0" encoding="utf-8"?>
<!-- Generator: Adobe Illustrator 25.2.0, SVG Export Plug-In . SVG Version: 6.00 Build 0)  -->
<svg version="1.1" id="Layer_1" xmlns="http://www.w3.org/2000/svg" xmlns:xlink="http://www.w3.org/1999/xlink" x="0px" y="0px"
	 viewBox="0 0 721 670" style="enable-background:new 0 0 721 670;" xml:space="preserve">
<style type="text/css">
	.st0{clip-path:url(#SVGID_2_);}
	.st1{fill:#F6F8FB;}
	.st2{fill:#EBEBEB;}
	.st3{fill:#FFFFFF;}
	.st4{fill:#2E2E2E;}
	.st5{fill:#6F983F;}
	.st6{fill:#FFFFFF;stroke:#000000;stroke-width:0.75;stroke-miterlimit:10;}
	.st7{fill:#FFFFFF;stroke:#000000;stroke-width:0.25;stroke-miterlimit:10;}
	.st8{fill:#455A64;}
	.st9{fill:none;stroke:#000000;stroke-width:0.25;stroke-miterlimit:10;}
</style>
<g>
	<g>
		<defs>
			<rect id="SVGID_1_" width="721" height="670"/>
		</defs>
		<clipPath id="SVGID_2_">
			<use xlink:href="#SVGID_1_"  style="overflow:visible;"/>
		</clipPath>
		<g class="st0">
			<g>
				<path class="st1" d="M411.6,96.4c-7.5-3.6-15.1-7-23-9.8c-92.1-32.2-253.9,19-282.3,128.5c-6.8,26.1-0.7,48.8-0.6,73.9
					c0.2,57.1-31.9,111-38,167.7c-4.7,43.9,21.8,80.2,54.5,104.4c35.5,26.4,75,35.6,125.7,30c56.8-6.3,100.4-41.1,143.5-77.7
					c19.4-16.4,39.4-33.4,62.1-45.6c28.4-15.3,59.3-25.7,88.3-39.4c30.2-14.2,60-31.6,83-55.3c73.6-75.8,30.5-192.2-41.9-229.4
					c-25.6-13.2-57.1-16.1-87.2-20.3C463.2,119,439.3,109.8,411.6,96.4z"/>
			</g>
			<path class="st2" d="M311.2,117.2c-6.3-3-13.3-3.3-17.8-2.6c-4.2,0.6-10.2,2.2-15.3,6.2c-3.2,2.5-5.5,5.6-7,9.1
				c-1.7,4.3-2.3,9.3-1.6,14.9c0.1,0.9,0.5,1.6,1.2,2.1s1.5,0.7,2.4,0.6l10.9-1.7c1.5-0.2,2.7-1.6,2.7-3.1c0-3.5,1.1-9.6,9.3-11
				c6.2-1.1,9.5,3.1,10.6,4.9c1.8,3,2,6.8,0.6,10.2c-2.2,5.2-7.4,6.8-10.4,7.2c-3.4,0.5-5.7,3.7-5.2,7l1.8,11.8
				c0.3,1.7,1.9,2.9,3.6,2.6l10.7-1.6c1.7-0.3,2.9-1.9,2.6-3.6l-0.4-2.5c0-0.1,0-0.1,0.1-0.1c2.3-1.2,6.6-4,10.2-8.8
				c4.6-6.2,6.2-13.5,5-21.8C323.5,125.4,316.6,119.8,311.2,117.2z"/>
			<path class="st2" d="M303.4,177.6l-0.9,0.1c-4.5,0.7-7.5,4.9-6.8,9.3c0.7,4.5,4.9,7.5,9.3,6.8l0.9-0.1c4.5-0.7,7.5-4.9,6.8-9.3
				C312.1,180,307.9,177,303.4,177.6z"/>
			<path class="st2" d="M562.2,296.4c-4.6-5.5-10.9-8.8-15.4-10c-4.1-1.2-10.4-2.3-16.8-0.7c-4,1-7.5,2.8-10.4,5.5
				c-3.4,3.2-6.1,7.7-7.8,13.2c-0.3,0.8-0.2,1.7,0.2,2.5s1.1,1.3,2,1.6l10.9,3.1c1.5,0.4,3.2-0.3,3.8-1.8c1.5-3.3,5.1-8.4,13.3-6.2
				c6.2,1.7,7.5,6.9,7.8,9.1c0.4,3.5-1,7.2-3.8,9.7c-4.3,3.9-9.8,3.1-12.7,2.3c-3.4-1-6.9,1-7.8,4.3l-3.4,11.7
				c-0.5,1.7,0.5,3.5,2.2,4l10.6,3c1.7,0.5,3.5-0.5,4-2.2l0.7-2.5c0-0.1,0.1-0.1,0.1-0.1c2.6-0.2,7.9-0.8,13.2-3.8
				c6.9-3.8,11.5-9.9,13.9-18.1C570.2,309.2,566.2,301.1,562.2,296.4z"/>
			<path class="st2" d="M529.3,349.2l-0.9-0.3c-4.4-1.3-9.1,1.3-10.3,5.7c-1.3,4.4,1.3,9.1,5.7,10.3l0.9,0.3
				c4.4,1.3,9.1-1.3,10.3-5.7C536.3,355.1,533.7,350.5,529.3,349.2z"/>
			<path class="st2" d="M203.6,392.1c-5.3-4-11.7-5.6-16-5.8c-4-0.2-9.9,0.1-15.3,2.9c-3.4,1.7-6.2,4.1-8.2,7.2
				c-2.4,3.6-3.9,8.2-4.3,13.6c-0.1,0.8,0.2,1.6,0.7,2.2s1.3,1,2.1,1l10.4,0.5c1.5,0.1,2.8-1,3.1-2.4c0.6-3.3,2.9-8.7,10.7-8.4
				c6,0.2,8.2,4.6,8.9,6.5c1.1,3.1,0.6,6.7-1.3,9.6c-3,4.4-8.2,4.9-11,4.8c-3.2-0.1-6,2.3-6.1,5.5l-0.6,11.2c-0.1,1.6,1.2,3,2.8,3.1
				l10.2,0.5c1.6,0.1,3-1.2,3.1-2.8l0.1-2.4c0-0.1,0-0.1,0.1-0.1c2.4-0.7,6.9-2.4,11.1-6.2c5.4-4.9,8.3-11.3,8.7-19.2
				C213.6,402,208.2,395.5,203.6,392.1z"/>
			<path class="st2" d="M185,446.7h-0.9c-4.3-0.2-7.9,3.1-8.1,7.3c-0.2,4.3,3.1,7.9,7.3,8.1h0.9c4.3,0.2,7.9-3.1,8.1-7.3
				C192.6,450.5,189.3,446.9,185,446.7z"/>
			<path class="st3" d="M193.6,262.4c18.6-7.2,27.8-28.1,20.6-46.6c-7.2-18.6-28.1-27.8-46.6-20.6c-18.6,7.2-27.8,28.1-20.6,46.6
				C154.2,260.4,175.1,269.6,193.6,262.4z"/>
			<path class="st4" d="M216.6,228.8c0,0,0-0.2-0.1-0.6c0-0.4-0.1-1-0.1-1.7c0-0.4,0-0.8-0.1-1.3c0-0.5-0.1-1-0.2-1.5
				c-0.1-0.5-0.2-1.1-0.3-1.8c-0.1-0.6-0.3-1.3-0.5-2c-0.6-2.8-1.9-6.1-4-9.6s-5.1-7.1-9.1-10.2c-0.5-0.4-1-0.8-1.6-1.2
				c-0.5-0.4-1.1-0.7-1.7-1c-0.6-0.3-1.1-0.7-1.7-1c-0.6-0.3-1.2-0.6-1.9-0.9c-0.3-0.1-0.6-0.3-1-0.4c-0.3-0.1-0.7-0.2-1-0.4
				c-0.7-0.2-1.3-0.5-2-0.7s-1.4-0.4-2.1-0.6c-0.7-0.2-1.4-0.4-2.2-0.5c-1.5-0.2-3-0.5-4.5-0.5c-0.8,0-1.6-0.1-2.3-0.1
				c-0.8,0-1.6,0.1-2.4,0.1c-0.4,0-0.8,0-1.2,0.1l-1.2,0.2c-0.8,0.1-1.6,0.2-2.4,0.4c-1.6,0.4-3.2,0.8-4.8,1.4
				c-1.6,0.5-3.1,1.3-4.7,2.1c-0.8,0.4-1.5,0.9-2.2,1.3c-0.4,0.2-0.8,0.4-1.1,0.7l-1.1,0.8c-1.5,1-2.7,2.2-4.1,3.5
				c-0.6,0.7-1.2,1.3-1.8,2L153,206l-0.4,0.5l-0.8,1.1l-0.8,1.1l-0.7,1.2l-0.7,1.2l-0.4,0.6l-0.3,0.6c-0.4,0.8-0.8,1.7-1.2,2.5
				c-0.3,0.9-0.6,1.8-1,2.7c-1.2,3.6-1.8,7.4-1.8,11.3c0.1,3.9,0.7,7.7,1.8,11.3c0.3,0.9,0.6,1.8,1,2.7s0.8,1.7,1.2,2.5l0.3,0.6
				l0.4,0.6l0.7,1.2l0.7,1.2l0.8,1.1l0.8,1.1l0.4,0.5l0.5,0.5c0.6,0.7,1.2,1.3,1.8,2c1.3,1.2,2.6,2.5,4.1,3.5l1.1,0.8
				c0.3,0.3,0.7,0.5,1.1,0.7c0.7,0.4,1.5,0.9,2.2,1.3c1.6,0.8,3.1,1.5,4.7,2.1c1.6,0.6,3.2,1,4.8,1.4c0.8,0.2,1.6,0.3,2.4,0.4
				l1.2,0.2c0.4,0.1,0.8,0,1.2,0.1c0.8,0,1.6,0.1,2.4,0.1c0.8,0,1.6-0.1,2.3-0.1c1.6,0,3.1-0.3,4.5-0.5c0.7-0.1,1.5-0.3,2.2-0.5
				s1.4-0.3,2.1-0.6c0.7-0.2,1.4-0.5,2-0.7c0.3-0.1,0.7-0.2,1-0.4c0.3-0.1,0.6-0.3,1-0.4c0.6-0.3,1.2-0.6,1.9-0.9
				c0.6-0.3,1.2-0.7,1.7-1c0.6-0.3,1.1-0.7,1.7-1c0.5-0.4,1-0.8,1.6-1.2c4.1-3.1,7.1-6.7,9.1-10.2c2.1-3.5,3.4-6.8,4-9.6
				c0.2-0.7,0.4-1.3,0.5-2c0.1-0.6,0.2-1.2,0.3-1.8c0.1-0.5,0.2-1,0.2-1.5s0.1-0.9,0.1-1.3c0-0.7,0.1-1.3,0.1-1.7
				C216.6,229,216.6,228.8,216.6,228.8s0,0.2,0,0.6c0,0.4,0,1-0.1,1.7c0,0.4,0,0.8-0.1,1.3c0,0.5-0.1,1-0.2,1.5
				c-0.1,0.5-0.2,1.1-0.3,1.8c-0.1,0.6-0.3,1.3-0.4,2c-0.6,2.8-1.9,6.1-3.9,9.6c-2.1,3.5-5.1,7.2-9.2,10.3c-0.5,0.4-1,0.8-1.6,1.2
				c-0.5,0.4-1.1,0.7-1.7,1.1c-0.6,0.3-1.1,0.7-1.8,1c-0.6,0.3-1.2,0.6-1.9,0.9c-0.3,0.2-0.6,0.3-1,0.5c-0.3,0.1-0.7,0.2-1,0.4
				c-0.7,0.2-1.4,0.5-2,0.8c-0.7,0.2-1.4,0.4-2.1,0.6c-0.7,0.2-1.4,0.4-2.2,0.5c-1.5,0.2-3,0.5-4.6,0.5c-0.8,0-1.6,0.1-2.4,0.1
				c-0.8,0-1.6-0.1-2.4-0.1c-0.4,0-0.8,0-1.2-0.1l-1.2-0.2c-0.8-0.1-1.6-0.2-2.4-0.4c-1.6-0.4-3.3-0.8-4.8-1.4
				c-1.6-0.5-3.2-1.3-4.7-2.1c-0.8-0.4-1.5-0.9-2.3-1.3c-0.4-0.2-0.8-0.4-1.1-0.7l-1.1-0.8c-1.5-1-2.8-2.3-4.1-3.5
				c-0.6-0.7-1.2-1.4-1.8-2l-0.5-0.5l-0.4-0.5l-0.8-1.1l-0.8-1.1l-0.7-1.2l-0.7-1.2l-0.4-0.6l-0.3-0.6c-0.4-0.9-0.8-1.7-1.2-2.6
				c-0.3-0.9-0.7-1.8-1-2.7c-1.2-3.6-1.8-7.5-1.9-11.4c0.1-3.9,0.7-7.8,1.9-11.4c0.3-0.9,0.7-1.8,1-2.7c0.4-0.9,0.8-1.7,1.2-2.6
				l0.3-0.6l0.4-0.6l0.7-1.2l0.7-1.2l0.8-1.1l0.8-1.1l0.4-0.5l0.5-0.5c0.6-0.7,1.2-1.4,1.8-2c1.4-1.2,2.6-2.5,4.1-3.5l1.1-0.8
				c0.4-0.3,0.8-0.5,1.1-0.7c0.8-0.4,1.5-0.9,2.3-1.3c1.6-0.8,3.1-1.6,4.7-2.1c1.6-0.7,3.2-1,4.8-1.4c0.8-0.2,1.6-0.3,2.4-0.4
				l1.2-0.2c0.4-0.1,0.8,0,1.2-0.1c0.8,0,1.6-0.1,2.4-0.1c0.8,0,1.6,0.1,2.4,0.1c1.6,0,3.1,0.3,4.6,0.5c0.8,0.1,1.5,0.3,2.2,0.5
				s1.4,0.3,2.1,0.6c0.7,0.3,1.4,0.5,2,0.8c0.3,0.1,0.7,0.2,1,0.4s0.6,0.3,1,0.5c0.6,0.3,1.3,0.6,1.9,0.9c0.6,0.3,1.2,0.7,1.8,1
				c0.6,0.4,1.2,0.7,1.7,1.1c0.5,0.4,1.1,0.8,1.6,1.2c4.1,3.1,7.1,6.8,9.2,10.3c2,3.5,3.3,6.8,3.9,9.6c0.2,0.7,0.4,1.3,0.4,2
				c0.1,0.6,0.2,1.2,0.3,1.8c0.1,0.5,0.2,1.1,0.2,1.5c0,0.5,0,0.9,0.1,1.3C216.5,227.8,216.5,228.4,216.6,228.8
				C216.7,228.6,216.6,228.8,216.6,228.8z"/>
			<path class="st3" d="M218.3,262.5c0,3-2.5,5.5-5.5,5.5s-5.5-2.5-5.5-5.5s2.5-5.5,5.5-5.5S218.3,259.5,218.3,262.5z"/>
			<path class="st4" d="M218.3,262.5c0,0,0-0.5-0.3-1.3c-0.2-0.8-0.8-2-2-2.9s-3.1-1.4-5-0.7c-0.9,0.3-1.8,1-2.4,1.8
				c-0.6,0.9-1,2-1,3.1s0.4,2.2,1,3.1s1.5,1.5,2.4,1.8c1.9,0.7,3.8,0.2,5-0.7c1.2-0.9,1.8-2.1,2-2.9
				C218.3,263,218.2,262.5,218.3,262.5c0,0,0,0.1,0,0.4c0,0.2,0,0.6-0.1,1c-0.2,0.9-0.7,2.1-2,3.1c-1.2,1-3.3,1.6-5.4,0.9
				c-1-0.4-2-1-2.7-2c-0.7-0.9-1.1-2.1-1.1-3.4c0-1.2,0.4-2.5,1.1-3.4c0.7-1,1.7-1.6,2.7-2c2-0.7,4.1-0.1,5.4,0.9
				c1.3,1,1.8,2.3,2,3.1c0.1,0.4,0.1,0.8,0.1,1C218.3,262.4,218.3,262.5,218.3,262.5z"/>
			<path class="st3" d="M526.1,203.4c14.8-14.8,14.8-38.8,0-53.6s-38.8-14.8-53.6,0c-14.8,14.8-14.8,38.8,0,53.6
				C487.3,218.2,511.3,218.2,526.1,203.4z"/>
			<path class="st4" d="M537.2,176.6c0,0,0-0.2-0.1-0.6c0-0.4-0.1-1-0.1-1.8c0-0.4,0-0.8-0.1-1.3s-0.2-1-0.2-1.6
				c-0.1-0.6-0.2-1.2-0.3-1.8c-0.1-0.7-0.3-1.3-0.5-2.1c-0.7-2.9-2-6.4-4.2-10.1c-2.2-3.6-5.3-7.5-9.6-10.7
				c-0.5-0.4-1.1-0.8-1.6-1.2c-0.6-0.4-1.2-0.7-1.8-1.1c-0.6-0.3-1.2-0.8-1.8-1.1s-1.3-0.6-2-0.9c-0.3-0.2-0.7-0.3-1-0.5
				c-0.3-0.1-0.7-0.3-1-0.4c-0.7-0.3-1.4-0.5-2.1-0.8c-0.7-0.2-1.5-0.4-2.2-0.6c-0.8-0.2-1.5-0.4-2.3-0.5c-1.6-0.2-3.1-0.5-4.8-0.5
				c-0.8,0-1.6-0.1-2.4-0.1s-1.7,0.1-2.5,0.1c-0.4,0-0.8,0-1.3,0.1l-1.3,0.2c-0.8,0.1-1.7,0.2-2.5,0.4c-1.7,0.4-3.4,0.8-5,1.5
				c-1.7,0.5-3.3,1.4-4.9,2.2c-0.8,0.4-1.6,0.9-2.4,1.4c-0.4,0.2-0.8,0.5-1.2,0.7l-1.1,0.8c-1.5,1.1-2.9,2.4-4.3,3.6
				c-0.6,0.7-1.3,1.4-1.9,2.1l-0.5,0.5l-0.4,0.6l-0.9,1.2l-0.9,1.2l-0.8,1.2l-0.8,1.2l-0.4,0.6l-0.3,0.7c-0.4,0.9-0.9,1.8-1.3,2.7
				c-0.3,0.9-0.7,1.9-1,2.8c-1.2,3.8-1.9,7.8-1.9,11.9c0.1,4.1,0.7,8.1,1.9,11.9c0.3,0.9,0.7,1.9,1,2.8c0.4,0.9,0.9,1.8,1.3,2.7
				l0.3,0.7l0.4,0.6l0.8,1.2l0.8,1.2l0.9,1.2l0.9,1.2l0.4,0.6l0.5,0.5c0.6,0.7,1.3,1.4,1.9,2.1c1.4,1.3,2.7,2.6,4.3,3.6l1.1,0.8
				c0.4,0.3,0.8,0.5,1.2,0.7c0.8,0.5,1.5,1,2.4,1.4c1.6,0.8,3.2,1.6,4.9,2.2c1.6,0.7,3.4,1,5,1.5c0.8,0.2,1.7,0.3,2.5,0.4l1.3,0.2
				c0.4,0.1,0.8,0.1,1.3,0.1c0.8,0,1.7,0.1,2.5,0.1s1.6-0.1,2.5-0.1c1.6,0,3.2-0.3,4.8-0.5c0.8-0.1,1.5-0.3,2.3-0.5
				c0.7-0.2,1.5-0.4,2.2-0.6c0.7-0.3,1.4-0.5,2.1-0.8c0.3-0.1,0.7-0.3,1-0.4c0.3-0.2,0.7-0.3,1-0.5c0.7-0.3,1.3-0.6,2-0.9
				c0.6-0.3,1.2-0.7,1.8-1.1c0.6-0.4,1.2-0.7,1.8-1.1c0.5-0.4,1.1-0.8,1.6-1.2c4.3-3.2,7.4-7.1,9.6-10.7c2.2-3.7,3.5-7.1,4.2-10.1
				c0.2-0.7,0.4-1.4,0.5-2.1c0.1-0.7,0.2-1.3,0.3-1.8c0.1-0.6,0.2-1.1,0.2-1.6s0.1-0.9,0.1-1.3c0-0.8,0.1-1.4,0.1-1.8
				C537.1,176.9,537.2,176.6,537.2,176.6s0,0.2,0,0.6c0,0.4,0,1-0.1,1.8c0,0.4,0,0.8-0.1,1.3c0,0.5-0.1,1-0.2,1.6
				c-0.1,0.6-0.2,1.2-0.3,1.9s-0.3,1.3-0.5,2.1c-0.6,2.9-2,6.4-4.1,10.1c-2.2,3.7-5.3,7.5-9.6,10.8c-0.5,0.4-1.1,0.8-1.6,1.2
				c-0.6,0.4-1.2,0.7-1.8,1.1c-0.6,0.3-1.2,0.8-1.9,1.1c-0.6,0.3-1.3,0.6-2,1c-0.3,0.2-0.7,0.3-1,0.5c-0.3,0.1-0.7,0.3-1.1,0.4
				c-0.7,0.3-1.4,0.5-2.1,0.8c-0.7,0.2-1.5,0.4-2.2,0.6c-0.8,0.2-1.5,0.4-2.3,0.5c-1.6,0.2-3.2,0.6-4.8,0.6c-0.8,0-1.6,0.1-2.5,0.1
				c-0.8,0-1.7-0.1-2.5-0.1c-0.4,0-0.9,0-1.3-0.1l-1.3-0.2c-0.9-0.1-1.7-0.2-2.6-0.4c-1.7-0.4-3.4-0.8-5.1-1.5
				c-1.7-0.5-3.3-1.4-5-2.2c-0.8-0.4-1.6-0.9-2.4-1.4c-0.4-0.2-0.8-0.5-1.2-0.7l-1.1-0.8c-1.6-1.1-2.9-2.4-4.3-3.7
				c-0.6-0.7-1.3-1.4-1.9-2.1l-0.5-0.5l-0.4-0.6l-0.9-1.2l-0.9-1.2l-0.8-1.3l-0.8-1.3l-0.4-0.6l-0.3-0.7c-0.4-0.9-0.9-1.8-1.3-2.7
				c-0.3-0.9-0.7-1.9-1-2.8c-1.2-3.8-1.9-7.9-2-12c0.1-4.1,0.7-8.2,2-12c0.3-0.9,0.7-1.9,1-2.8c0.4-0.9,0.9-1.8,1.3-2.7l0.3-0.7
				l0.4-0.6l0.8-1.3l0.8-1.3l0.9-1.2l0.9-1.2l0.4-0.6l0.5-0.5c0.6-0.7,1.3-1.4,1.9-2.1c1.4-1.3,2.8-2.6,4.3-3.7l1.1-0.8
				c0.4-0.3,0.8-0.5,1.2-0.7c0.8-0.5,1.6-1,2.4-1.4c1.7-0.8,3.3-1.6,5-2.2c1.7-0.7,3.4-1,5.1-1.5c0.9-0.2,1.7-0.3,2.6-0.4l1.3-0.2
				c0.4-0.1,0.8-0.1,1.3-0.1c0.9,0,1.7-0.1,2.5-0.1s1.7,0.1,2.5,0.1c1.6,0,3.2,0.3,4.8,0.6c0.8,0.1,1.5,0.4,2.3,0.5
				c0.7,0.2,1.5,0.4,2.2,0.6c0.7,0.3,1.4,0.5,2.1,0.8c0.4,0.1,0.7,0.3,1.1,0.4c0.3,0.2,0.7,0.3,1,0.5c0.7,0.3,1.3,0.6,2,1
				c0.7,0.3,1.2,0.7,1.9,1.1c0.6,0.4,1.2,0.7,1.8,1.1c0.5,0.4,1.1,0.8,1.6,1.2c4.3,3.3,7.5,7.1,9.6,10.8s3.5,7.2,4.1,10.1
				c0.2,0.7,0.4,1.4,0.5,2.1c0.1,0.7,0.2,1.3,0.3,1.9c0.1,0.6,0.2,1.1,0.2,1.6s0,0.9,0.1,1.3c0,0.8,0.1,1.4,0.1,1.8
				C537.2,176.4,537.2,176.6,537.2,176.6z"/>
			<path class="st5" d="M485.8,170.2h7.2c0,0,0-6,6.3-6.2c3.3-0.1,4.9,2.1,5.6,3.7c0.8,1.9,0.6,4.1-0.5,5.8c-1.2,2-3.9,3.8-8.7,3
				v10.6h7.1v-3.8c0,0,10-2.6,10-13.6c0-10.5-9.4-13-13.5-13C496.2,156.7,485.7,157.5,485.8,170.2z"/>
			<path class="st5" d="M502.9,189.8h-7.2v6.7h7.2V189.8z"/>
			<path class="st3" d="M464.1,209.3c0,3.2-2.6,5.8-5.8,5.8c-3.2,0-5.8-2.6-5.8-5.8s2.6-5.8,5.8-5.8S464.1,206.1,464.1,209.3z"/>
			<path class="st4" d="M464.1,209.3c-0.1,0,0-0.5-0.3-1.4c-0.2-0.9-0.8-2.1-2.1-3.1c-1.3-1-3.3-1.5-5.3-0.8c-1,0.4-1.9,1-2.6,1.9
				s-1.1,2.1-1.1,3.3s0.4,2.4,1.1,3.3c0.7,0.9,1.6,1.6,2.6,1.9c2,0.7,4,0.2,5.3-0.8s1.9-2.2,2.1-3.1
				C464,209.8,464,209.3,464.1,209.3c0,0,0,0.1,0,0.4c0,0.2,0,0.6-0.1,1.1c-0.2,0.9-0.8,2.2-2.1,3.3c-1.3,1.1-3.5,1.7-5.6,0.9
				c-1.1-0.4-2.1-1.1-2.8-2.1c-0.7-1-1.2-2.2-1.2-3.6c0-1.3,0.4-2.6,1.2-3.6c0.7-1,1.7-1.7,2.8-2.1c2.2-0.8,4.4-0.1,5.6,0.9
				c1.3,1.1,1.9,2.4,2.1,3.3c0.1,0.5,0.1,0.8,0.1,1.1C464.1,209.2,464.1,209.3,464.1,209.3z"/>
			<path class="st4" d="M423.9,140.6c4.4,0.4,8.8-2.9,9.6-7.3c0.8-4.3-2-9.1-6.3-10.3c2.7-2.9,3.2-7.5,1.4-10.9
				c-1.9-3.4-6.1-5.4-9.9-4.7c-0.3-3.8-2.6-7.5-6.1-9.2c-3.4-1.8-7.8-1.6-11,0.5c-4.3-3.5-11.2-3.5-15.5,0.1
				c-3.8-0.6-7.8,1.5-9.5,4.9s-0.9,7.9,1.9,10.5"/>
			<path class="st6" d="M384.5,107.6h2c19.9-0.5,36.8,14.4,38.8,34.2c1.9,18.4,3.8,38.8,3.9,48.7c0.2,20.5-20.2,24.1-20.2,24.1
				l2.3,24.6l-49.7-0.4l-6.5-89.1C352.8,128.4,363.2,109.4,384.5,107.6z"/>
			<path class="st4" d="M409,214.6c0,0-14.3,1.1-28.2-7.3c0,0,8.3,14.9,28.7,12.6L409,214.6z"/>
			<path class="st4" d="M419,164c0.1,1.5-1.1,2.9-2.8,3c-1.6,0.1-3-1-3.1-2.6c-0.1-1.5,1.1-2.9,2.8-3
				C417.6,161.3,418.9,162.5,419,164z"/>
			<path class="st4" d="M421.1,151.9c-0.4,0.4-2.6-1.2-5.8-1.1c-3.1,0-5.4,1.7-5.8,1.3c-0.2-0.2,0.2-0.9,1.2-1.6
				c1-0.8,2.6-1.5,4.6-1.5s3.6,0.6,4.6,1.4C420.9,151.1,421.3,151.7,421.1,151.9z"/>
			<path class="st4" d="M391.9,164c0.1,1.5-1.1,2.9-2.8,3c-1.6,0.1-3-1-3.1-2.6c-0.1-1.5,1.1-2.9,2.8-3
				C390.5,161.3,391.8,162.5,391.9,164z"/>
			<path class="st4" d="M390.2,153.2c-0.4,0.4-2.6-1.2-5.8-1.1c-3.1,0-5.4,1.7-5.8,1.3c-0.2-0.2,0.2-0.9,1.2-1.6
				c1-0.8,2.6-1.5,4.6-1.5s3.6,0.6,4.6,1.4C390,152.4,390.4,153,390.2,153.2z"/>
			<path class="st4" d="M402.2,176.3c0-0.2,1.9-0.6,5.1-1c0.8-0.1,1.6-0.3,1.7-0.8c0.2-0.6-0.2-1.4-0.6-2.4c-0.8-1.9-1.6-4-2.5-6.1
				c-3.5-8.6-6.1-15.7-5.7-15.9c0.3-0.1,3.5,6.7,7,15.4c0.8,2.1,1.7,4.2,2.4,6.1c0.3,0.9,0.9,1.9,0.5,3.1c-0.2,0.6-0.8,1.1-1.3,1.2
				c-0.5,0.2-1,0.2-1.4,0.2C404.2,176.4,402.2,176.5,402.2,176.3z"/>
			<path class="st4" d="M390.9,146.7c-0.4,0.8-3.1,0-6.4,0c-3.3-0.1-6.1,0.6-6.4-0.2c-0.1-0.4,0.4-1.1,1.6-1.8s3-1.2,5-1.2
				s3.7,0.6,4.8,1.4C390.5,145.6,391.1,146.3,390.9,146.7z"/>
			<path class="st4" d="M421,138.9c-0.6,0.7-3.3,0-6.4,0.1c-3.1-0.1-5.8,0.6-6.4-0.1c-0.3-0.4,0.1-1.1,1.3-1.8
				c1.1-0.7,3-1.3,5.2-1.3c2.1,0,4,0.6,5.1,1.3C420.9,137.8,421.2,138.6,421,138.9z"/>
			<path class="st4" d="M423.1,132.4c0,0-5.7-12.7-12-15.5c-7.6-3.4-10.6,4.8-17.8,3c-7.2-1.8-14.4-5.1-21.6,0.5
				c-7.8,6.2-4,10.4-4.3,19.5c-1.1,36.9-7.6,47.5-9.9,30.2c-0.3-1.9-5.6-3.3-6.5-11.3c-1.3-10.4-1.9-23,0.2-30.5
				c1.8-6.3,5.3-10.7,11.5-15.6c9.9-7.7,23.7-8.2,33.1-7.5C405.2,106,423.6,116.4,423.1,132.4z"/>
			<path class="st6" d="M358.9,169.5c-0.2-3.2-3-5.6-6.1-5.2c-3.8,0.4-8,2.7-7.6,10.6c0.8,14,14.7,10.3,14.7,9.9
				C359.8,184.5,359.3,175.3,358.9,169.5z"/>
			<path class="st4" d="M356.5,179.7c-0.1,0-0.2,0.2-0.6,0.4s-1.1,0.4-1.8,0.1c-1.5-0.5-2.9-2.7-3.1-5.3c-0.1-1.3,0.1-2.5,0.5-3.5
				c0.4-1.1,1-1.8,1.7-2s1.3,0.2,1.5,0.6c0.2,0.4,0.1,0.7,0.2,0.7c0,0,0.3-0.2,0.1-0.8c-0.1-0.3-0.3-0.6-0.6-0.9
				c-0.3-0.3-0.9-0.4-1.4-0.3c-1.1,0.1-2,1.2-2.4,2.3c-0.5,1.1-0.7,2.5-0.6,4c0.2,2.8,1.8,5.4,3.9,5.8c1,0.2,1.8-0.1,2.2-0.5
				C356.5,180.1,356.5,179.7,356.5,179.7z"/>
			<path class="st4" d="M358.5,142.4c1.8,1.2,3.8,2.4,6,2.6c2.2,0.2,4.7-1.2,5-3.3c0.1-1-0.1-2.1,0.5-2.9c0.7-0.9,2.2-0.7,3.3-0.6
				c4.1,0.3,8.7-4.3,9.7-8.3c1.1,1.5,3.4,1.9,4.9,0.9s2.1-1.6,3.3-3.1c1.2-1.4,2.9-2.7,4.7-2.5c1,0.1,2,0.7,3.1,0.6
				c1.8-0.2,2.7-2.4,2.9-4.2c0.2-1.8,0.4-4,1.9-5c1.4-1,3.3-0.5,5-0.3s3.9-0.2,4.3-1.9c0.2-0.9-0.2-1.8-0.7-2.5
				c-2.3-3.4-7-4.8-10.8-3.2c-1.5-4.6-5.9-8.1-10.7-8.5c-4.8-0.4-9.7,2.3-11.9,6.6c-3-2.6-7.3-3.6-11.2-2.7c-3.9,1-7.2,3.9-8.6,7.7
				c-3.4-0.8-7.3,0.6-9.4,3.4s-2.3,6.9-0.5,10c-2.5,1.5-4.6,4.1-4.6,6.9c0,2.9,2.9,5.7,5.7,4.9c-1.1,2.3-0.1,5.3,2.1,6.5
				s5.3,0.4,6.6-1.7"/>
			<path class="st3" d="M402.8,112.9c0,0,0,0.1,0,0.3c0,0.2,0,0.4-0.1,0.8c-0.1,0.6-0.3,1.6-1,2.7c-0.6,1.1-1.6,2.4-3,3.4
				s-3.4,1.8-5.7,1.8l0.2-0.3c0.5,1.2,0.4,2.6-0.2,3.9c-0.5,1.3-1.4,2.4-2.3,3.5c-0.5,0.5-0.9,1.2-1.5,1.6c-0.6,0.5-1.4,0.8-2.2,0.9
				c-1.6,0.2-3.4-0.2-4.5-1.5l0.5-0.2c-0.3,2.8-1.8,5.6-4.3,7.4c-1.3,1-2.9,1.6-4.6,1.6c-1.6,0-3.1-0.4-4.6-0.9l0.4-0.2
				c-0.7,1.8-1.8,3.3-3.2,4.4c-1.4,1.1-3.2,1.8-4.8,1.4c-3.3-0.6-5.6-3.3-6.1-5.9l0.3,0.1c-1.6,0.9-3.4,1.1-4.8,0.8
				c-1.4-0.2-2.6-0.8-3.4-1.4c-0.8-0.6-1.3-1.2-1.6-1.7c-0.3-0.5-0.4-0.7-0.4-0.7c0.1-0.1,0.5,1.1,2.1,2.2c0.8,0.5,1.9,1.1,3.3,1.3
				s3,0,4.5-0.9l0.3-0.2l0.1,0.3c0.5,2.4,2.7,4.9,5.8,5.5c1.5,0.3,3.1-0.3,4.4-1.4c1.3-1.1,2.4-2.5,3-4.2l0.1-0.3l0.3,0.1
				c1.4,0.5,2.9,0.9,4.4,0.9s3-0.6,4.2-1.5c2.3-1.7,3.8-4.3,4.1-7l0.1-0.7l0.4,0.5c1,1.1,2.6,1.5,4,1.3c0.7-0.1,1.4-0.3,1.9-0.8
				c0.5-0.4,1-1,1.4-1.5c0.9-1.1,1.8-2.2,2.3-3.3c0.5-1.2,0.6-2.4,0.2-3.5l-0.1-0.3h0.3c2.1,0.1,4.1-0.6,5.5-1.6s2.4-2.2,3-3.2
				C402.8,114.3,402.7,112.8,402.8,112.9z"/>
			<path class="st7" d="M302.1,236.9c0,0-52.6,18.5-67.8,26.2c-11.9,6-19.4,27.7-1.1,36.7c13.6,6.7,87.5-6.1,87.5-6.1L302.1,236.9z"
				/>
			<path class="st5" d="M462.7,421.2L329,416.1l-4.8,45.5L320.5,567l63-46c0-0.4,12.1-19.1,12.1-19.1l3.9-1l-0.4,6.6l64-43.5
				c2.4-1.5,5.3-1.6,5.4-5C469.4,431.9,462.7,421.2,462.7,421.2z"/>
			<path class="st4" d="M390.8,473.6c0,0.1,0.7,0.4,2,1s3.3,1.4,6,1.8c1.3,0.2,2.8,0.2,4.4-0.2c1.5-0.3,3.2-1.1,4.5-2.4
				s2.1-3.1,2.6-5s0.7-3.8,1-5.8c1.2-7.9,1.9-15.1,2.3-20.3c0.2-2.6,0.3-4.7,0.3-6.2s0-2.3,0-2.3c-0.1,0-0.2,0.8-0.4,2.2
				c-0.2,1.7-0.4,3.7-0.7,6.1c-0.6,5.2-1.4,12.3-2.6,20.2c-0.6,3.9-1,7.8-3.3,10.3c-2.3,2.4-5.6,2.7-8.1,2.5c-2.5-0.3-4.5-1-5.9-1.5
				C391.6,473.7,390.8,473.5,390.8,473.6z"/>
			<path class="st8" d="M403.6,436.2c0,0-0.3-0.2-1-0.2s-1.7,0.2-2.6,1c-0.9,0.7-1.9,2-1.8,3.8c0,1.7,1.4,3.4,3.2,4
				c1.8,0.6,3.9,0.1,4.9-1.3s1-3,0.7-4.1c-0.3-1.2-1-2-1.5-2.3c-0.5-0.4-0.9-0.4-0.9-0.4c-0.1,0.1,1.4,0.7,1.8,2.9
				c0.2,1,0.1,2.4-0.8,3.4c-0.8,1-2.4,1.4-3.9,0.9s-2.6-1.7-2.6-3c-0.1-1.3,0.6-2.5,1.4-3.2C402,435.9,403.6,436.3,403.6,436.2z"/>
			<path class="st8" d="M329.1,458.9c0,0.1,0.6,0.1,1.6,0.2c1.1,0.1,2.6,0,4.5-0.1c3.8-0.3,8.9-1.5,14.2-3.9c5.2-2.5,9.4-5.8,12-8.5
				c1.3-1.3,2.3-2.5,2.9-3.4s1-1.3,0.9-1.4s-1.6,1.7-4.3,4.2c-2.7,2.5-6.9,5.6-12,8.1c-5.1,2.4-10.1,3.6-13.8,4.1
				C331.4,458.8,329.1,458.7,329.1,458.9z"/>
			<path class="st5" d="M465.4,413.8c-2.6-6-2.1-6.5-2.1-6.5l-7.4-65.1l-7.1-63.3l-5.8-46.8l-33.4-7.2c0,0-3.8,10.7-20,11
				c-18.6,0.4-29.3-16.3-29.3-16.3l-53.5,11.5l20.1,138l2.4,37.2c0,0-4,6-4,12.5c0,6.4-0.3,10.7-0.3,10.7
				c49.6,13.6,98.9,25.5,144.2,12.2C469.2,441.7,468.1,419.7,465.4,413.8z"/>
			<path class="st5" d="M430.7,229.6c0,0,19.3,2.1,26.1,9.4c6.8,7.3,28.7,43.2,28.7,43.2l-31.8,43.4L439,305.5L430.7,229.6z"/>
			<path class="st4" d="M445.5,252.1c0.3,0,3.3,23.8,6.8,53.3s6.1,53.4,5.8,53.4c-0.3,0-3.3-23.9-6.8-53.3S445.2,252.1,445.5,252.1z
				"/>
			<path class="st5" d="M306.7,231.1l-42.8,19l15.5,43.3l41.3,6.5L306.7,231.1z"/>
			<path class="st4" d="M312.6,259.8c0.3,0,2.3,16.9,4.6,37.8c2.2,20.9,3.8,37.9,3.5,37.9s-2.3-16.9-4.6-37.8
				C313.9,276.8,312.3,259.9,312.6,259.8z"/>
			<g>
				<path class="st4" d="M323.2,479.6c23.3-8.4,36.1-24.8,46.5-42.3s11.9-42.1,5.2-61.3c0,0-48,46.5-48.4,47.5
					C326.2,424.6,323.2,479.6,323.2,479.6z"/>
			</g>
			<g>
				<path class="st4" d="M388.6,235.3c-0.6,4.7,2.1,9.3,5.3,12.8c3.2,3.5,7.1,6.3,10.1,10.1c3.4,4.3,5.3,9.4,7.2,14.5
					c3.9,10.6,7.8,21.3,11.7,31.9c3.4,9.2,6.8,18.4,12.1,26.6c5.3,8.2,12.9,15.3,22.2,18.3l-7-59.9L413,229.7L388.6,235.3z"/>
			</g>
			<path class="st3" d="M427.1,235.8c0-0.8,0.6-28.5-1.3-31.5s-3.3-5.8-3.7-8.7c0,0,1-1.6-0.8-2.7c-1.8-1-4.8,1.5-4.8,5.9
				c-0.1,4.5,0.4,12.1,0.4,12.1s-20.5-11.6-26.1-11.9c-5.6-0.3-14-1.4-14.5,1.4c-0.4,2.7-0.1,3.4,2.9,4.4c2.9,1,7.6,1.7,12.2,3.3
				c4.6,1.5,6.7,2.6,6.7,2.6s-10.5-3.1-12.8,0s-2,5.9-0.5,7.3c0,0-3.1,1.3-2.8,4.7c0.3,3.4,1.8,4.3,1.8,4.3s-3.1,2.3-1.6,5.3
				s4.9,1.1,8.2,4.5c3.3,3.4,11.3,11.2,14.5,13c3.1,1.7,10.3,2.5,10.3,2.5L427.1,235.8z"/>
			<path class="st4" d="M427.1,235.8c0,0-0.1,0.1-0.2,0.3s-0.3,0.5-0.6,0.8c-0.5,0.7-1.3,1.8-2.3,3.2c-2,2.8-5,6.9-8.8,12.1
				l-0.1,0.1H415c-1.4-0.1-2.9-0.4-4.4-0.6c-1.5-0.3-3.1-0.6-4.7-1.2c-0.8-0.3-1.6-0.7-2.3-1.2c-0.7-0.5-1.4-1.1-2.1-1.6
				c-1.4-1.2-2.8-2.4-4.2-3.7c-1.4-1.3-2.8-2.7-4.3-4.1c-0.7-0.7-1.5-1.4-2.2-2.2s-1.4-1.5-2.4-2c-0.9-0.5-1.9-0.8-3-1
				c-1-0.2-2.3-0.5-3.1-1.5c-0.8-0.9-1.1-2.2-0.8-3.4c0.3-1.2,1-2.2,2-3v0.4c-0.8-0.6-1.2-1.4-1.5-2.2s-0.4-1.7-0.5-2.7
				c0-0.9,0.2-1.9,0.8-2.7c0.5-0.8,1.3-1.4,2.2-1.8l-0.1,0.4c-1.3-1.3-1.5-3.4-0.9-5.1c0.3-0.9,0.7-1.7,1.2-2.4c0.2-0.4,0.6-0.8,1-1
				s0.9-0.4,1.3-0.5c1.8-0.4,3.6-0.2,5.4,0c1.8,0.3,3.6,0.6,5.4,1.1l-0.2,0.5c-2.7-1.2-5.6-2.3-8.6-3.2s-6.1-1.5-9.2-2.4
				c-1.1-0.3-2.2-0.7-3.2-1.3c-0.5-0.3-0.9-0.9-1-1.6c-0.1-0.6,0-1.2,0.1-1.8c0-0.3,0.1-0.6,0.3-0.9c0.2-0.3,0.4-0.5,0.7-0.7
				c0.5-0.3,1.1-0.5,1.7-0.6c1.1-0.2,2.3-0.2,3.4-0.3c2.2,0,4.5,0.2,6.6,0.3c1.1,0.1,2.2,0.1,3.3,0.3c0.5,0.1,1.1,0.3,1.6,0.4
				l1.5,0.5c4,1.5,7.8,3.4,11.4,5.2c3.6,1.9,7.1,3.7,10.5,5.6l-0.4,0.2c-0.2-4.4-0.5-8.6-0.4-12.7c0.2-2,0.9-4.1,2.6-5.3
				c0.4-0.3,0.9-0.5,1.4-0.5s1.1,0.2,1.4,0.5c0.4,0.3,0.7,0.8,0.8,1.3c0.1,0.5,0,1-0.3,1.5v-0.1c0.4,3.1,2,5.8,3.4,8.2
				c0.2,0.3,0.4,0.6,0.5,1c0.1,0.3,0.2,0.7,0.3,1c0.1,0.7,0.2,1.4,0.3,2c0.1,1.3,0.2,2.7,0.3,3.9c0.2,5,0.2,9.4,0.2,13
				s-0.1,6.3-0.1,8.2c0,0.9,0,1.6-0.1,2.1C427.1,235.6,427.1,235.8,427.1,235.8s0-0.2,0-0.7s0-1.2,0-2.1c0-1.9,0-4.7,0-8.2
				c0-3.6-0.1-7.9-0.3-12.9c-0.1-1.3-0.2-2.6-0.3-3.9c-0.1-0.7-0.2-1.3-0.3-2c-0.1-0.7-0.3-1.3-0.7-1.9c-1.5-2.4-3-5.1-3.5-8.3v-0.1
				v-0.1c0.2-0.3,0.3-0.8,0.2-1.2c-0.1-0.4-0.3-0.8-0.7-1c-0.7-0.6-1.6-0.5-2.4,0c-1.5,1.1-2.3,3-2.4,5c-0.1,4,0.2,8.2,0.4,12.6v0.4
				l-0.4-0.2c-3.3-1.9-6.8-3.7-10.5-5.6c-3.6-1.8-7.4-3.7-11.4-5.2l-1.5-0.5c-0.5-0.1-1-0.3-1.5-0.4c-1-0.2-2.1-0.2-3.2-0.3
				c-2.2-0.1-4.4-0.3-6.6-0.3c-1.1,0-2.2,0-3.3,0.2c-1,0.2-2.2,0.6-2.2,1.7c-0.1,0.5-0.1,1.1-0.1,1.6c0.1,0.5,0.4,0.9,0.8,1.2
				c0.9,0.6,2,0.9,3.1,1.3c3.1,0.9,6.2,1.5,9.2,2.3c3,0.9,5.9,1.9,8.6,3.2l-0.2,0.5c-1.8-0.5-3.5-0.9-5.3-1.1
				c-1.8-0.2-3.6-0.4-5.3,0c-0.8,0.2-1.6,0.5-2,1.3c-0.5,0.7-0.9,1.5-1.2,2.2c-0.6,1.6-0.4,3.4,0.8,4.6l0.3,0.3l-0.3,0.2
				c-0.8,0.4-1.5,1-2,1.7s-0.7,1.6-0.7,2.4c0,0.8,0.2,1.7,0.4,2.5c0.3,0.8,0.7,1.6,1.3,2l0.3,0.2l-0.3,0.2c-0.8,0.7-1.5,1.6-1.8,2.7
				c-0.3,1,0,2.2,0.7,3c0.6,0.8,1.8,1.1,2.8,1.3c1.1,0.2,2.2,0.5,3.1,1.1c1,0.5,1.7,1.3,2.5,2.1c0.7,0.7,1.5,1.5,2.2,2.2
				c1.4,1.4,2.9,2.8,4.3,4.1s2.8,2.6,4.2,3.7c1.4,1.1,2.7,2.3,4.3,2.8c1.6,0.6,3.1,1,4.6,1.3s3,0.5,4.4,0.7l-0.1,0.1
				c3.8-5.1,6.8-9.2,8.9-12c1-1.4,1.8-2.4,2.4-3.2c0.3-0.3,0.5-0.6,0.6-0.8C427,235.9,427.1,235.8,427.1,235.8z"/>
			<path class="st3" d="M408.4,250.8c6.1,13,38.8,86,51.8,94.4c14.3,9.3,25,15.2,32.6,1.9c7.7-13.2,9.6-29.3,0.6-46.5
				c-2-3.9-6.7-12.1-8.9-17l-14.6,5.3c0,0-41.5-56-42.8-56"/>
			<path class="st9" d="M408.4,250.8c6.1,13,38.8,86,51.8,94.4c14.3,9.3,25,15.2,32.6,1.9c7.7-13.2,9.6-29.3,0.6-46.5
				c-2-3.9-6.7-12.1-8.9-17l-14.6,5.3c0,0-41.5-56-42.8-56"/>
			<path class="st4" d="M488.7,314.1c0,0-0.3-0.4-0.7-1.1c-0.4-0.7-1-1.7-1.8-3c-1.5-2.5-3.8-5.9-6.5-9.5s-5.4-6.6-7.3-8.9
				c-0.9-1.1-1.7-1.9-2.3-2.6c-0.5-0.6-0.8-1-0.8-1s0.4,0.3,1,0.9s1.4,1.4,2.4,2.5c2,2.2,4.7,5.2,7.5,8.8c2.8,3.6,5,7,6.4,9.6
				c0.7,1.3,1.3,2.4,1.6,3.1C488.5,313.6,488.7,314,488.7,314.1z"/>
			<path class="st4" d="M404.4,189.3c-0.4,0.3-1.9-1.3-4.4-2.2c-2.4-0.9-4.6-0.7-4.7-1.1c0-0.2,0.5-0.6,1.5-0.7
				c1-0.2,2.4-0.1,3.8,0.4s2.6,1.4,3.2,2.2C404.4,188.6,404.5,189.2,404.4,189.3z"/>
			<path class="st4" d="M441.8,413.4c0,0-0.2,0.1-0.5,0.3c-0.3,0.2-0.9,0.5-1.5,0.7c-1.4,0.6-3.4,1.3-6,1.6c-2.6,0.4-5.8,0.4-9.3,0
				s-7.2-1.3-11.1-2.5c-7.7-2.4-14.5-4.9-19.4-6.9c-2.4-1-4.4-1.9-5.7-2.5c-0.6-0.3-1.1-0.5-1.5-0.7c-0.3-0.2-0.5-0.3-0.5-0.3
				s0.2,0,0.6,0.2s0.9,0.4,1.6,0.6c1.4,0.6,3.4,1.4,5.8,2.3c4.9,1.9,11.7,4.4,19.4,6.8c3.8,1.2,7.6,2,11,2.5s6.6,0.5,9.2,0.2
				s4.6-0.9,6-1.4C441,413.7,441.8,413.4,441.8,413.4z"/>
			<path class="st4" d="M340.5,306.6c-18.7-12.6-40.9-17.1-55.5-17.1c-13.6,0-33.7,2.1-51.9,12.4c-11.3,6.4-20.3,15.1-26.8,25.8
				c-7.7,12.8-11.8,28.6-12.4,47c-0.1,2.8,0.9,5.4,2.9,7.4c1.9,2,4.5,3.1,7.3,3.1h35.8c5,0,9.4-3.8,10.1-8.8
				c1.6-11.2,8.3-30.1,35-30.6c20.4-0.3,28.8,14.4,31.5,20.8c4.3,10.4,3.2,22.7-3,32.9c-9.5,15.7-27,18.1-36.6,18.1
				c-11,0-20,9-20,20v38.5c0,5.6,4.6,10.2,10.2,10.2H302c5.6,0,10.2-4.6,10.2-10.2V468c0-0.2,0.1-0.4,0.3-0.4
				c7.9-2.8,23.2-9.4,37-23.2c17.6-17.5,26.6-40.1,26.6-67.1C376.1,338.7,356.7,317.5,340.5,306.6z"/>
			<path class="st4" d="M286.3,496.1h-3.1c-14.6,0-26.4,11.8-26.5,26.4c0,14.6,11.8,26.4,26.4,26.5h3.1c14.6,0,26.4-11.8,26.5-26.4
				C312.7,507.9,300.8,496.1,286.3,496.1z"/>
			<path class="st4" d="M374.7,352.7c-0.5-3.9-1.5-7.7-2.9-11.3c-7-17.4-23.4-29.3-42-31.4l-89.9-10.2c9.8,10,22.5,12,36.1,15.5
				c13.5,3.5,28.1,8.8,41.8,11.7c4.4,0.9,8.9,2.1,12.3,5c3.3,2.8,5.2,7,6.9,11c2.6,5.9,5.2,11.9,7.8,17.8c3,6.8,6.9,14.5,14.9,14.9
				c3.2,0.2,6.4-1,8.8-3.1C374.3,367.5,375.5,359.8,374.7,352.7z"/>
			<path class="st3" d="M373.4,328.6c-0.7-1.2-14.4-17.9-21.2-24.4c-4.4-4.2-11-7.1-15.1-8.6c0,0-68.4-24.7-73.2-27.1L233.2,300
				c10.7,3,83.4,20.5,101.3,24.4c3.1,3.7,6.3,6.7,6.3,6.7l5.2,12.2c0,0,0.6,4.5,0.2,9.2c-0.4,4.8,3.5,2.9,3.5,2.9s-0.2,3,0.1,7.3
				v0.1c0.3,3.2,4.9,3.6,5.8,0.5l3.5-11c0,0-0.5,10.1-0.6,15.6c0,1,0.1,1.8,0.5,2.5c1.4,3,5.8,2.4,6.5-0.8l4.1-17.5l-1.3-10.7
				l3.5,9.8c0,0,1,5.2,0.8,12.6c-0.1,2.9,0.9,4.2,2.1,4.6c2,0.7,4.2-0.9,4.4-3l1.3-16.2C380.3,349.2,374.1,329.8,373.4,328.6z"/>
			<path class="st4" d="M259.5,267.2c0-0.1,2,0.2,5,1c3.1,0.8,7.2,2.3,11.7,4.1c4.5,1.8,8.5,3.5,11.4,4.7s4.7,2,4.6,2.2
				c0,0.1-1.9-0.4-4.9-1.5s-7-2.7-11.5-4.5s-8.5-3.3-11.5-4.3C261.3,267.9,259.5,267.3,259.5,267.2z"/>
			<circle class="st4" cx="169.2" cy="228.5" r="2.5"/>
			<circle class="st4" cx="180.2" cy="228.5" r="2.5"/>
			<circle class="st4" cx="191.2" cy="228.5" r="2.5"/>
		</g>
	</g>
</g>
</svg>
