<?xml version="1.0" encoding="utf-8"?>
<!-- Generator: Adobe Illustrator 25.2.0, SVG Export Plug-In . SVG Version: 6.00 Build 0)  -->
<svg version="1.1" id="Layer_1" xmlns="http://www.w3.org/2000/svg" xmlns:xlink="http://www.w3.org/1999/xlink" x="0px" y="0px"
	 viewBox="0 0 765 587" style="enable-background:new 0 0 765 587;" xml:space="preserve">
<style type="text/css">
	.st0{clip-path:url(#SVGID_2_);}
	.st1{fill:#F6F8FB;}
	.st2{fill:#FFFFFF;}
	.st3{fill:#2E2E2E;}
	.st4{fill:#E0E0E0;}
	.st5{fill:#FFFFFF;stroke:#000000;stroke-width:1.1285;stroke-miterlimit:10;}
	.st6{fill:#6F983F;}
	.st7{fill:none;stroke:#000000;stroke-width:1.1285;stroke-miterlimit:10;}
</style>
<g>
	<g>
		<defs>
			<rect id="SVGID_1_" width="765" height="587"/>
		</defs>
		<clipPath id="SVGID_2_">
			<use xlink:href="#SVGID_1_"  style="overflow:visible;"/>
		</clipPath>
		<g class="st0">
			<g>
				<path class="st1" d="M120.1,460.5l3.3,5.4c27.1,44,75.4,71.1,127.1,69.4c8.2-0.3,16.4-1.3,24.4-2.9
					c48.3-10.2,90.2-46.2,107.6-92.3c10.2-27.1,13.1-58.3,32.5-79.9c25.3-28,68.2-28.9,105.9-27.7c37.7,1.2,80.7,0.2,105.8-27.9
					c15.8-17.6,20.8-42.7,19.5-66.2c-3.4-62.5-47.5-118.3-103.6-146c-56.1-27.8-122.1-30.2-183.5-18
					c-86,17.1-167.8,64.1-216.9,136.6C93.2,283.4,80.7,382.2,120.1,460.5z"/>
				<path class="st2" d="M626,170.4H191.8v322.2H626V170.4z"/>
				<path class="st3" d="M626,492.6c0-3.4-0.2-127.1-0.4-322.2l0.4,0.4c-122.2,0-272.3,0.1-434.1,0.1l0,0l0.5-0.5
					c0,115.7,0,225.4,0,322.2l-0.4-0.4C448.9,492.4,622,492.6,626,492.6c-4,0-177.1,0.2-434.2,0.4h-0.4v-0.4c0-96.8,0-206.4,0-322.2
					v-0.5h0.5l0,0c161.9,0,311.9,0.1,434.1,0.1h0.4v0.4C626.2,365.5,626,489.2,626,492.6z"/>
				<path class="st4" d="M626,218.2c0,0.3-97,0.5-216.6,0.5s-216.6-0.2-216.6-0.5s97-0.5,216.6-0.5S626,217.9,626,218.2z"/>
				<path class="st4" d="M218.2,194.1c0,3.6-2.9,6.5-6.5,6.5s-6.5-2.9-6.5-6.5s2.9-6.5,6.5-6.5S218.2,190.5,218.2,194.1z"/>
				<path class="st4" d="M237.9,194.1c0,3.6-2.9,6.5-6.5,6.5s-6.5-2.9-6.5-6.5s2.9-6.5,6.5-6.5S237.9,190.5,237.9,194.1z"/>
				<path class="st4" d="M257.6,194.1c0,3.6-2.9,6.5-6.5,6.5s-6.5-2.9-6.5-6.5s2.9-6.5,6.5-6.5C254.7,187.6,257.6,190.5,257.6,194.1
					z"/>
				<path class="st3" d="M426,146.4c-2-4.3-6.8-7-11.5-6.3c-5.2-4.5-13.6-4.8-19.1-0.6c-4-2.6-9.3-3-13.6-0.9
					c-4.3,2-7.3,6.4-7.8,11.2c-4.7-1-9.9,1.3-12.3,5.5s-1.9,9.8,1.3,13.4c-5.2,1.4-8.9,7.1-8,12.5s6.2,9.6,11.6,9.2l56.7-31.1
					C426.8,156.1,428,150.7,426,146.4z"/>
				<path class="st5" d="M365,191.8c3.2-24.3,24.5-42.1,49-40.8l2.4,0.1c26.2,2.8,38.4,26.6,34.8,52.7l-8.1,87.1l-0.4,4.2l-61.1,9.1
					l1.2-22.2c0,0-25-5.2-24.1-30.4C359,239.4,362,214.4,365,191.8z"/>
				<path class="st3" d="M382.4,281.9c0,0,16.1,1.8,33.5-8c0,0-8.7,17.7-33.7,14.2L382.4,281.9z"/>
				<path class="st3" d="M370.4,216.3c-0.2,1.9,1.3,3.6,3.3,3.8s3.7-1.2,3.9-3.1c0.2-1.9-1.3-3.6-3.3-3.8
					C372.3,213.1,370.6,214.4,370.4,216.3z"/>
				<path class="st3" d="M369.8,204.4c0.4,0.5,3.3-1.4,7.1-1.2c3.9,0.1,6.6,2.3,7.1,1.8c0.2-0.2-0.2-1.1-1.4-2c-1.2-1-3.2-1.9-5.6-2
					s-4.5,0.7-5.7,1.5C370,203.4,369.6,204.2,369.8,204.4z"/>
				<path class="st3" d="M404.6,218.6c-0.2,1.9,1.3,3.6,3.3,3.8s3.7-1.2,3.9-3.1c0.2-1.9-1.3-3.6-3.3-3.8
					C406.5,215.4,404.8,216.7,404.6,218.6z"/>
				<path class="st3" d="M407.8,207c0.4,0.5,3.3-1.4,7.1-1.2c3.9,0.2,6.6,2.3,7.1,1.8c0.2-0.2-0.2-1.1-1.4-2c-1.2-1-3.2-1.9-5.6-2
					s-4.5,0.7-5.7,1.5C408.1,206,407.6,206.8,407.8,207z"/>
				<path class="st3" d="M392.3,235c0-0.2-2.4-0.8-6.2-1.5c-1-0.2-1.9-0.4-2-1.1c-0.2-0.7,0.3-1.8,0.8-2.9c1.1-2.3,2.1-4.8,3.3-7.4
					c4.6-10.5,8-19.2,7.6-19.4s-4.5,8.2-9.1,18.7c-1.1,2.6-2.2,5.1-3.2,7.4c-0.4,1.1-1.1,2.4-0.7,3.9c0.2,0.7,0.9,1.3,1.6,1.5
					c0.6,0.2,1.2,0.3,1.7,0.3C389.9,235.1,392.3,235.3,392.3,235z"/>
				<path class="st3" d="M403.6,238.3c-0.6-0.1-0.8,4.1-4.6,6.9c-3.7,2.8-8.2,2.1-8.3,2.7c-0.1,0.3,1,0.9,2.8,1
					c1.9,0.2,4.6-0.3,6.9-2s3.3-4.1,3.6-5.8C404.3,239.3,403.9,238.3,403.6,238.3z"/>
				<path class="st3" d="M407.6,191.8c0.3,1.1,4.2,0.8,8.7,1.5s8.1,2.2,8.8,1.3c0.3-0.4-0.3-1.5-1.7-2.5c-1.4-1.1-3.7-2.2-6.4-2.6
					c-2.7-0.4-5.2-0.1-6.9,0.5C408.3,190.5,407.4,191.3,407.6,191.8z"/>
				<path class="st3" d="M373.1,191.1c-1.2,0.8-1.6,1.7-1.3,2.2c0.6,0.9,3.3,0.1,6.6,0.2c3.2,0,5.9,0.9,6.6,0
					c0.3-0.4-0.1-1.3-1.2-2.2"/>
				<path class="st3" d="M368,180.4c0,0,7.4-15.4,15.2-18.8c9.4-4,12.9,6.3,21.8,4.3s17.9-5.9,26.6,1.4c9.5,7.9,4.6,12.9,4.6,24.1
					c0.2,45.4,7.9,58.7,11.3,37.4c0.4-2.3,7-3.9,8.4-13.7c1.9-12.7,3.1-28.3,0.7-37.5c-2-7.8-6.1-13.3-13.7-19.5
					c-11.9-9.8-28.9-10.9-40.5-10.3C390.8,148.4,367.9,160.6,368,180.4z"/>
				<path class="st5" d="M445.9,228.1c0.4-3.9,3.9-6.8,7.7-6.2c4.7,0.7,9.8,3.6,9,13.3c-1.4,17.2-18.4,12.2-18.4,11.7
					C444.2,246.6,445.3,235.3,445.9,228.1z"/>
				<path class="st3" d="M448.5,240.7c0.1,0,0.3,0.2,0.8,0.5s1.3,0.5,2.2,0.2c1.9-0.5,3.6-3.3,4-6.4c0.2-1.6,0-3.1-0.5-4.4
					c-0.4-1.3-1.2-2.2-2.1-2.5s-1.6,0.2-1.8,0.7c-0.3,0.5-0.2,0.8-0.3,0.8c0,0-0.3-0.3-0.2-1c0.1-0.3,0.3-0.7,0.8-1
					c0.4-0.3,1.1-0.4,1.7-0.3c1.3,0.2,2.4,1.5,2.9,2.9c0.6,1.4,0.8,3.1,0.6,4.9c-0.4,3.5-2.4,6.6-5,7.1c-1.2,0.2-2.2-0.2-2.7-0.7
					C448.5,241.2,448.4,240.8,448.5,240.7z"/>
				<path class="st3" d="M447.2,194.7c-2.3,1.4-4.8,2.9-7.5,3s-5.7-1.6-6-4.3c-0.1-1.2,0.2-2.6-0.5-3.6c-0.9-1.2-2.6-0.9-4.1-0.8
					c-5,0.3-10-3.5-11-8.5c-1.4,1.8-4.4,1.6-6.2,0.3c-1.9-1.3-3-3.4-4.4-5.2s-3.5-3.5-5.8-3.3c-1.3,0.1-2.5,0.8-3.8,0.6
					c-2.3-0.3-3.2-3-3.5-5.3c-0.2-2.3-0.4-4.9-2.2-6.2c-1.7-1.2-4.1-0.7-6.2-0.5s-4.8-0.4-5.2-2.5c-0.2-1.1,0.3-2.2,0.9-3.1
					c2.9-4.1,8.8-5.7,13.4-3.6c2-5.6,7.5-9.8,13.5-10.1c5.9-0.3,11.9,3.2,14.5,8.5c3.8-3.1,9.2-4.2,13.9-2.9
					c4.7,1.3,8.7,5.1,10.4,9.7c4.2-0.9,8.9,1,11.4,4.5c2.5,3.6,2.6,8.6,0.3,12.3c3,1.9,5.5,5.1,5.4,8.7c-0.1,3.6-3.8,6.9-7.2,5.8
					c1.3,2.8-0.1,6.6-2.8,8c-2.8,1.4-6.6,0.3-8.1-2.4"/>
				<path class="st2" d="M458.6,188.6c0.1,0,0.2,1.5-1.2,3.3c-0.7,0.9-2,1.7-3.6,1.9s-3.5-0.3-4.8-1.7l0.7-0.1
					c-0.9,1.4-2.1,2.9-3.7,4.1c-1,0.8-2.1,1.4-3.2,1.8c-1.2,0.4-2.4,0.4-3.5,0.2c-2.2-0.4-4-1.6-4.8-3.1c-0.9-1.4-1.1-2.8-1.2-3.7
					s-0.1-1.4-0.1-1.4c0.1,0,0.2,0.5,0.4,1.3c0.2,0.8,0.6,2.1,1.4,3.4c1.5,2.6,6.8,4.1,10.3,0.8c1.4-1.1,2.6-2.5,3.5-3.9l0.3-0.5
					l0.4,0.4c1.1,1.2,2.7,1.6,4.1,1.5s2.5-0.8,3.2-1.5C458.4,189.9,458.5,188.5,458.6,188.6z"/>
				<path class="st2" d="M428,147.6c0,0.1-0.5,0.1-1.2,0.4c-0.8,0.3-1.9,0.9-2.8,2.1l-0.2,0.3l-0.2-0.3c-1.5-2.2-4.1-5.1-8-7.2
					c-2-1-4.2-1.7-6.7-1.8s-5.1,0.4-7.4,1.7c-1.8,1-3.4,2.3-4.6,3.9c-1.1,1.6-1.9,3.3-2.2,5.1l-0.1,0.5l-0.5-0.2
					c-2.6-0.8-5.2-0.5-7.2,0.5s-3.3,2.6-4.1,4c-1.5,3-1.2,5.1-1.3,5.1c0,0-0.2-0.5-0.1-1.4c0-0.9,0.2-2.3,1-3.9
					c0.7-1.5,2.1-3.3,4.3-4.4c2.1-1.1,5-1.6,7.8-0.7l-0.6,0.4c0.3-1.9,1.1-3.9,2.3-5.6c1.3-1.7,2.9-3.1,4.9-4.2
					c2.5-1.4,5.3-2,7.9-1.8s5,0.9,7.1,2c4.1,2.2,6.6,5.3,8.1,7.6h-0.4c1-1.3,2.3-1.9,3.1-2.1C427.5,147.5,428,147.6,428,147.6z"/>
				<path class="st3" d="M409.4,241.1c-0.3,0-0.3-1.8-1.7-3.4c-1.3-1.6-3.1-1.9-3.1-2.2c0-0.1,0.5-0.2,1.3-0.1
					c0.8,0.2,1.8,0.7,2.6,1.6c0.8,0.9,1.2,2,1.2,2.8C409.7,240.6,409.5,241.1,409.4,241.1z"/>
				<path class="st3" d="M411.2,236.4c-0.2,0.1-0.8-0.5-1.7-0.9c-0.9-0.5-1.7-0.6-1.8-0.9c-0.1-0.3,1.1-0.6,2.2,0
					C411.1,235.2,411.4,236.3,411.2,236.4z"/>
				<path class="st3" d="M429.8,277.7c0-0.1,0.3-0.1,0.5-0.4s0.4-0.9,0.1-1.5c-0.2-0.7-1-1.3-1.5-2.4c-0.2-0.5-0.3-1.4,0.1-2
					s0.9-1,1.2-1.4c1.4-1.7-2.4-3-1.9-5.2c0.1-0.9,0.6-1.5,1-1.8s0.7-0.3,0.7-0.2c0.1,0.1-1,0.6-1,2.1c0,0.7,0.4,1.4,1.2,2.1
					c0.4,0.4,0.8,0.8,1.1,1.5c0.3,0.6,0.1,1.6-0.3,2.2c-0.4,0.5-0.9,0.9-1.1,1.3s-0.2,0.8-0.1,1.2c0.3,0.9,1,1.6,1.3,2.5
					s-0.1,1.7-0.5,2C430.1,277.9,429.7,277.8,429.8,277.7z"/>
				<path class="st3" d="M435.1,277.2c-0.1,0-0.1-0.3-0.2-0.6c-0.1-0.4-0.4-0.9-0.9-1.5c-0.2-0.3-0.5-0.7-0.7-1.1
					c-0.2-0.5-0.4-1.1-0.2-1.7c0.4-1.2,1.4-2,1.9-2.8c0.6-0.9,0.1-1.6-0.6-2.4c-0.3-0.4-0.7-0.8-0.9-1.3c-0.2-0.5-0.2-1-0.2-1.4
					c0.2-1.8,1.5-2.3,1.5-2.1c0.1,0.1-0.8,0.7-0.8,2.2c0,0.7,0.3,1.4,1.1,2.1c0.3,0.4,0.8,0.8,1,1.5c0.3,0.7,0.1,1.5-0.3,2.1
					c-0.7,1.1-1.6,1.8-1.9,2.6c-0.3,0.7,0.2,1.5,0.6,2.2s0.7,1.3,0.7,1.8C435.3,276.9,435.2,277.2,435.1,277.2z"/>
				<path class="st6" d="M477.5,416.3l22.9,22l-7.4-42.1l46.4-14.7c0,0,12.3,57.8,14.5,71.5c3.9,24.5-0.9,59.4-23.8,61.9
					c-24.8,2.7-43.5-21.8-55.4-37.8c-9.2-12.3-23.9-33.8-23.9-33.8L477.5,416.3z"/>
				<path class="st6" d="M300.6,378.8c-7.5,23.5-17.9,27-22,94.2c-0.8,13.1,2,30.6,14.5,34.8c13.8,4.7,35-3.9,41.6-15.2v-46.3
					L300.6,378.8z"/>
				<path class="st3" d="M331.4,476.9c-0.2,0.1-1.5-4.7-4.6-9.9c-3-5.2-6.5-8.7-6.3-8.9c0.1-0.1,1,0.7,2.4,2.2s3.1,3.6,4.6,6.3
					c1.5,2.6,2.6,5.2,3.2,7.1C331.3,475.7,331.5,476.9,331.4,476.9z"/>
				<path class="st6" d="M289.4,405.8c0.4-1.4,23.3-63.7,30.6-77.4c8.7-16.3,27.1-23.5,38.6-24.3c11.4-0.7,133.6,9,133.6,9
					s34.2,8.6,41.1,39.5c8.7,38.8,15.7,77.1,15.7,77.1L487.7,443l-7.2-18.1l-115.1,25.7l-28-41.6L289.4,405.8z"/>
				<path class="st6" d="M500.2,316.8l-47.7-21l-5.3-20.6l-55.7,26.3l-11.7-12.9l-4.9,14.5l-12.2,4l-24,47.3l-4.4,109.7l0.4,28.5
					l164.6,1.1l-1.3-46.6L500.2,316.8z"/>
				<path class="st6" d="M447.2,275.2c0,0-6.2,1.8-22.2,10.3c-15.7,8.4-33.5,16-33.5,16l1.4,25.1l59.3-29.7"/>
				<path class="st6" d="M379.8,288.6l11.7,12.9l-6.2,26.9l-10.4-24.3"/>
				<g>
					<path class="st3" d="M391.2,304.3c-0.5,0.4-3.8,31.1-3.8,31.1l59.4-35.9l-54.1,27.1L391.2,304.3z"/>
				</g>
				<path class="st2" d="M391.8,493c0,0-1.2-45.5-0.1-74.1c0.9-23.5-2.8-83.4-2.8-83.4l-7.7-1.3c0,0-14.5,58.2-19.9,129.6
					c-2.2,28.9-2.2,28.9-2.2,28.9"/>
				<path class="st7" d="M391.8,493c0,0-1.2-45.5-0.1-74.1c0.9-23.5-2.8-83.4-2.8-83.4l-7.7-1.3c0,0-14.5,58.2-19.9,129.6
					c-2.2,28.9-2.2,28.9-2.2,28.9"/>
				<path class="st3" d="M486.1,372.2c0.1,0,0.2,0.9,0.5,2.4c0.3,1.7,0.7,4,1.2,6.7c1,5.8,2.3,13.5,3.8,22
					c1.5,8.6,2.8,16.4,3.6,22.1c0.4,2.8,0.7,5.1,0.9,6.7c0.2,1.6,0.3,2.5,0.2,2.5c-0.1,0-0.2-0.9-0.5-2.4c-0.3-1.7-0.7-4-1.2-6.7
					c-1-5.8-2.4-13.5-3.9-22c-1.5-8.6-2.7-16.4-3.5-22.1c-0.4-2.7-0.7-5-0.9-6.7C486.2,373.1,486.1,372.2,486.1,372.2z"/>
				<path class="st3" d="M503.8,320.4c0.1,0.1-1.6,1.4-4,3.9s-5.4,6.2-7.9,10.8c-2.5,4.6-3.9,9.2-4.7,12.6c-0.7,3.4-0.9,5.5-1.1,5.5
					c-0.1,0-0.1-0.5,0-1.5c0-1,0.2-2.4,0.5-4.1c0.6-3.4,2-8.1,4.5-12.9c2.5-4.7,5.7-8.5,8.2-10.9c1.3-1.2,2.4-2.1,3.1-2.7
					C503.3,320.7,503.7,320.4,503.8,320.4z"/>
				<path class="st5" d="M391.6,313.5l-5.3-2.1l-5,8.6l-0.9,14.2l7.1,1.1l5.3-8.7L391.6,313.5z"/>
				<path class="st3" d="M334.2,355.7c0.2,0,0.4,30.7,0.4,68.5s-0.2,68.5-0.4,68.5c-0.2,0-0.4-30.6-0.4-68.5
					C333.8,386.3,334,355.7,334.2,355.7z"/>
				<path class="st3" d="M392,301.3c0.1,0.1-1.1,2-3,5.1s-4.4,7.6-6.7,12.6c-0.2,0.4-0.4,0.8-0.6,1.2l-0.4,0.8l-0.4-0.8
					c-2.3-4.8-3.9-9.3-5-12.5c-0.5-1.6-0.9-3-1.1-3.9s-0.3-1.4-0.3-1.5c0.1,0,0.7,2,1.9,5.2c1.2,3.2,2.9,7.6,5.2,12.4h-0.7
					c0.2-0.4,0.4-0.8,0.6-1.2c2.4-5.1,5-9.5,7-12.6c1-1.5,1.9-2.8,2.5-3.6C391.6,301.7,392,301.3,392,301.3z"/>
				<path class="st3" d="M452.5,295.8c0,0-0.3,0.2-0.8,0.5c-0.6,0.3-1.4,0.7-2.4,1.3c-2.2,1.1-5.2,2.7-8.9,4.6
					c-7.5,3.9-17.7,9.4-29,15.5c-6.9,3.7-13.4,7.1-19.1,9.9l-0.5,0.3v-0.6c-0.1-7.4-0.1-13.6-0.2-18.1c0-2.1,0-3.8,0-5.1
					c0-1.2,0-1.8,0.1-1.8c0,0,0.1,0.6,0.1,1.8c0,1.3,0.1,3,0.2,5.1c0.1,4.5,0.3,10.7,0.5,18.1L392,327c5.7-2.9,12.2-6.3,19.1-10
					c11.3-6.1,21.6-11.5,29.2-15.3c3.8-1.9,6.8-3.4,9-4.4c1-0.5,1.8-0.8,2.5-1.1C452.2,295.9,452.5,295.7,452.5,295.8z"/>
				<path class="st3" d="M341.4,315.1c0.1,0.1-0.8,1.6-2,4.3c-1.2,2.7-2.6,6.5-3.4,10.9s-0.9,8.5-0.7,11.4c0.2,2.9,0.5,4.7,0.3,4.8
					c-0.1,0-0.2-0.4-0.4-1.2c-0.2-0.8-0.4-2-0.5-3.5c-0.3-3-0.3-7.1,0.5-11.6s2.3-8.4,3.7-11c0.7-1.3,1.3-2.4,1.8-3.1
					C341.1,315.5,341.4,315.1,341.4,315.1z"/>
				<path class="st3" d="M386.2,336.3c-0.1,0.2-1.5-0.4-3-1.4s-2.7-1.9-2.6-2.1s1.5,0.4,3,1.4C385.2,335.2,386.3,336.1,386.2,336.3z
					"/>
				<path class="st3" d="M388.7,332.8c-0.2,0.1-1.8-3.1-3.6-7.2c-1.8-4.1-3.1-7.4-2.8-7.5c0.2-0.1,1.8,3.1,3.6,7.2
					C387.7,329.4,388.9,332.8,388.7,332.8z"/>
				<g>
					<path class="st3" d="M422.3,458.3c-0.3-1.3-0.7-2.7-1.8-3.5c-2-1.3-4.4,0.4-6.5,1.6c-5.3,3.2-11.9,3.1-18.1,2.8
						c-18.6-0.8-37.2-2.2-55.6-5.3c-9-1.5-18.1-3.5-26.1-7.8c-8.1-4.3-15.1-11.2-17.6-20l-4.3-2.3c3.3,7.1,3,27.2,4.2,35
						s4.6,13.3,12.1,15.7c3,1,6.2,0.8,9.4,0.7c30.6-1.5,61.6-0.1,92.2-1.7c4.4-0.2,9.4-0.8,11.8-4.5
						C423.9,465.9,423.1,461.8,422.3,458.3z"/>
				</g>
				<path class="st3" d="M537.4,475.7c0,0-0.1-0.1-0.2-0.4c-0.1-0.3-0.3-0.6-0.6-1.1c-0.2-0.5-0.5-1.1-0.9-1.8
					c-0.4-0.7-0.9-1.4-1.5-2.3c-2.3-3.4-6.3-7.8-11.9-12.9c-5.5-5.1-12.6-10.8-20.5-17.4c-3.9-3.3-8.1-6.8-12.3-10.6
					c-4.2-3.9-8.5-8-12.3-12.8h0.6c-7.4,7.8-15.5,16.2-23.9,24.9c-1.1,1.1-2.2,2.3-3.2,3.3v-0.5c9,13.2,17.2,25.9,25.8,36.6
					c4.3,5.4,8.7,10.2,13,14.5s8.5,8.2,12.6,11.2c8.2,6.2,16.5,8.9,22.3,8.7c0.7,0,1.4,0,2,0c0.6-0.1,1.2-0.1,1.8-0.2
					c0.5-0.1,1.1-0.1,1.5-0.2c0.5-0.1,0.9-0.2,1.2-0.3c0.7-0.2,1.3-0.3,1.7-0.4c0.4-0.1,0.6-0.1,0.6-0.1s-0.2,0.1-0.6,0.2
					c-0.4,0.1-1,0.3-1.7,0.4c-0.4,0.1-0.8,0.2-1.2,0.3c-0.5,0.1-1,0.1-1.5,0.2c-0.6,0.1-1.1,0.2-1.8,0.2c-0.6,0-1.3,0-2,0
					c-5.8,0.2-14.3-2.4-22.6-8.6c-4.2-3.1-8.4-6.9-12.8-11.2c-4.3-4.3-8.8-9.1-13.1-14.5c-8.7-10.7-16.9-23.5-25.9-36.6l-0.2-0.3
					l0.2-0.2c1-1.1,2.1-2.2,3.2-3.3c8.4-8.7,16.4-17.1,23.9-24.9l0.3-0.3l0.3,0.4c3.8,4.8,8.1,8.9,12.2,12.8
					c4.2,3.9,8.3,7.3,12.2,10.7c7.9,6.6,14.9,12.4,20.4,17.5s9.5,9.7,11.8,13.1c0.5,0.9,1,1.6,1.5,2.3c0.3,0.7,0.6,1.3,0.8,1.8
					s0.4,0.8,0.5,1.1C537.4,475.6,537.4,475.7,537.4,475.7z"/>
				<g>
					<path class="st3" d="M456.4,452l-2.6-0.8c2.2,12.9,9.3,31.1,15.7,42.5h18.6C481,484.9,456.4,452,456.4,452z"/>
				</g>
				<path class="st5" d="M473.9,419.9l-37.7-41.1l-22.6-4.3l-25.6,3.2c0,0-1.1,4.1,3.2,6.2l-9.5,0.5c0,0-1.9,4.9,3.5,7l-6.8,1.2
					c0,0,3,6.9,10.6,5.6c7.6-1.4,20-1.4,20-1.4l13.3,7.3l-19.8-0.8l-14.3,2.7c0,0-1.9,3.7,1.4,4.5c3.2,0.9,15.7,0,15.7,0l17.9,5.7
					c0,0,7,9.9,9.4,12.6s14.1,7.7,14.1,7.7l5.7,5.1L473.9,419.9z"/>
				<path class="st3" d="M381.7,384.5c0,0.2,2.8,0.1,7.4-0.3c4.5-0.4,10.8-0.9,17.7-1.7c2.3-0.3,4.5-0.5,6.6-0.7h-0.3
					c5.1,1.4,9.6,2.6,12.8,3.4c3.2,0.8,5.1,1.2,5.1,1s-1.8-0.9-4.9-1.9s-7.5-2.4-12.6-3.9h-0.1h-0.1c-2.1,0.2-4.3,0.4-6.6,0.7
					c-6.9,0.7-13.1,1.5-17.6,2.1C384.5,383.8,381.7,384.3,381.7,384.5z"/>
				<path class="st3" d="M380.1,392.5c0,0.2,2.6,0,6.7-0.5s9.7-1.2,16-2.1c2.2-0.3,4.2-0.6,6.2-0.9h-0.4c8.9,3.5,15.5,5.8,15.6,5.5
					s-6.2-3.2-15.1-6.8l-0.2-0.1h-0.2c-2,0.3-4,0.6-6.2,0.9c-6.2,0.9-11.8,1.8-15.9,2.5C382.6,391.7,380.1,392.3,380.1,392.5z"/>
				<path class="st3" d="M284.2,386.1l19.1,72.1c1.1,4,4.7,6.7,8.8,6.7L411,463c5.6-0.1,9.8-5.3,8.6-10.8L405.1,383
					c-0.9-4.2-4.5-7.1-8.8-7.1H292C286.7,375.9,282.9,380.9,284.2,386.1z"/>
				<path class="st2" d="M348.9,405c2.7,1.3,3.9,4.3,2.7,6.7c-1.2,2.4-4.3,3.2-7,1.9c-2.7-1.3-3.9-4.3-2.7-6.7
					C343,404.5,346.2,403.7,348.9,405z"/>
				<path class="st2" d="M277,401.9c-1.9-2.1-1.8-5.6,0-7.9c1.7-2.3,4.7-3.4,7.5-3.6c2.9-0.1,5.7,0.7,8.4,1.7
					c3.3,1.3,6.5,2.9,9.5,4.7c2.1,1.3,4.3,3.1,4.7,5.5c0.4,2.5-2.3,5.3-4.4,4c2.8,1.2,5.7,4.2,6.1,7.3c0.5,3.1-1.2,4.8-4.2,5.7
					c2.3,0.9,3.8,3.8,2.7,6c-1.1,2.4-4.3,3-6.8,2.1c-2.4-0.9-4.2-3-5.9-4.9c1.7,3,2.3,6.5,1.7,9.9c-6.7-2.3-11.8-8.6-12.7-15.6
					c-3.3-2.5-4.4-7.4-2.4-11c-2.7-0.8-5.7-4.9-5.5-7.8"/>
				<path class="st7" d="M277,401.9c-1.9-2.1-1.8-5.6,0-7.9c1.7-2.3,4.7-3.4,7.5-3.6c2.9-0.1,5.7,0.7,8.4,1.7
					c3.3,1.3,6.5,2.9,9.5,4.7c2.1,1.3,4.3,3.1,4.7,5.5c0.4,2.5-2.3,5.3-4.4,4c2.8,1.2,5.7,4.2,6.1,7.3c0.5,3.1-1.2,4.8-4.2,5.7
					c2.3,0.9,3.8,3.8,2.7,6c-1.1,2.4-4.3,3-6.8,2.1c-2.4-0.9-4.2-3-5.9-4.9c1.7,3,2.3,6.5,1.7,9.9c-6.7-2.3-11.8-8.6-12.7-15.6
					c-3.3-2.5-4.4-7.4-2.4-11c-2.7-0.8-5.7-4.9-5.5-7.8"/>
				<path class="st3" d="M304.5,419.4c-0.1,0.1-1.1-0.8-2.9-2.2c-1.8-1.3-4.3-3.2-7.6-3.9c-1.6-0.3-3.2-0.3-4.6,0s-2.5,1-3.4,1.7
					c-1.7,1.4-2.1,2.8-2.2,2.8c0,0,0-0.4,0.3-1c0.2-0.6,0.8-1.4,1.6-2.2c0.9-0.8,2.1-1.5,3.6-2c1.5-0.4,3.2-0.4,5-0.1
					c3.5,0.8,6.1,2.8,7.8,4.2C303.7,418.3,304.6,419.4,304.5,419.4z"/>
				<path class="st3" d="M303.8,406.7c0,0.1-1.4-0.4-3.5-1.5c-1.1-0.5-2.3-1.1-3.7-1.6c-1.4-0.5-3.1-0.9-4.8-1.2
					c-1.7-0.3-3.4-0.3-4.9,0s-2.7,0.9-3.6,1.6c-1.8,1.4-2.2,2.9-2.4,2.8c0,0,0-0.4,0.3-1s0.8-1.5,1.8-2.2c0.9-0.8,2.2-1.5,3.8-1.8
					c1.6-0.3,3.3-0.3,5.1,0c1.8,0.3,3.4,0.8,4.9,1.3c1.5,0.6,2.7,1.2,3.7,1.8C302.6,405.9,303.8,406.6,303.8,406.7z"/>
			</g>
			<g>
				<path class="st6" d="M261.8,244.6l-24.1-0.5c-4.6-8.9-11.7-16.7-21-22.2c-26.6-15.9-61.1-7.2-77,19.4s-7.2,61.1,19.4,77
					s61.1,7.2,77-19.4c6.6-11.1,9-23.6,7.5-35.5l0,0L261.8,244.6z"/>
				<path class="st6" d="M261.8,244.6c-0.9,0.9-6.6,6.9-18.1,18.8l-0.2,0.2l-0.1-0.2l0,0l0.3-0.1c0.5,4,0.6,8.6,0,13.5
					s-1.9,10.2-4.1,15.5c-1.1,2.6-2.5,5.3-4.2,7.9c-0.9,1.3-1.7,2.6-2.6,3.9c-1,1.2-2,2.5-3.1,3.7c-4.3,4.8-9.8,9.2-16.1,12.4
					c-6.3,3.3-13.6,5.5-21.3,6.1c-7.7,0.7-15.8-0.2-23.5-3s-15-7.3-21.1-13.4c-6-6.1-11-13.7-13.7-22.2l-1-3.3
					c-0.3-1.1-0.5-2.2-0.7-3.3c-0.2-1.1-0.5-2.2-0.6-3.3l-0.4-3.3c-0.2-1.1-0.2-2.2-0.2-3.3c0-1.1,0-2.2,0-3.3
					c0.1-1.1,0.2-2.2,0.3-3.3c0.1-1.1,0.1-2.2,0.4-3.3c1.4-8.7,4.8-16.8,9.6-23.6s10.9-12.4,17.7-16.3c6.8-3.9,14.1-6.3,21.3-7.2
					s14.2-0.4,20.6,1.1c6.4,1.6,12,4.3,16.9,7.3c4.9,3.1,8.9,6.7,12.1,10.5c3.2,3.7,5.7,7.5,7.5,11l-0.1-0.1
					C253.1,244.4,260.6,244.6,261.8,244.6c-1.2,0-8.7-0.1-24.1-0.4h-0.1v-0.1c-1.8-3.5-4.3-7.2-7.5-10.9s-7.2-7.2-12.1-10.3
					c-4.9-2.9-10.5-5.6-16.8-7.2c-6.3-1.5-13.3-2-20.4-1.1c-7.1,0.9-14.4,3.3-21.1,7.1c-6.7,3.9-12.8,9.4-17.5,16.2
					s-8.1,14.8-9.5,23.3c-0.2,1.1-0.3,2.2-0.4,3.2c-0.1,1.1-0.2,2.2-0.3,3.3c0,1.1,0,2.2,0,3.3c0,1.1,0,2.2,0.2,3.3l0.3,3.3
					c0.1,1.1,0.4,2.2,0.6,3.3c0.2,1.1,0.4,2.2,0.7,3.3l1,3.2c2.6,8.4,7.5,15.9,13.5,21.9s13.2,10.5,20.9,13.2
					c7.6,2.7,15.7,3.6,23.2,3c7.6-0.6,14.8-2.8,21-6c6.3-3.2,11.6-7.5,16-12.3c1-1.2,2-2.5,3-3.7c0.9-1.3,1.7-2.6,2.6-3.8
					c1.7-2.5,3-5.2,4.2-7.8c2.3-5.2,3.5-10.5,4.2-15.3c0.6-4.9,0.5-9.4,0-13.4l-0.2-1.3l0.5,1.2l0,0l-0.3-0.1
					C255.1,251.4,260.9,245.5,261.8,244.6z"/>
				<path class="st3" d="M171.2,268.6c0,3.1-2.6,5.7-5.7,5.7c-3.1,0-5.7-2.5-5.7-5.7c0-3.1,2.6-5.7,5.7-5.7
					C168.6,262.9,171.2,265.5,171.2,268.6z"/>
				<path class="st3" d="M194,268.6c0,3.1-2.6,5.7-5.7,5.7c-3.1,0-5.7-2.5-5.7-5.7c0-3.1,2.6-5.7,5.7-5.7
					C191.5,262.9,194,265.5,194,268.6z"/>
				<path class="st3" d="M216.8,265.8c1.6,2.7,0.6,6.2-2.1,7.8c-2.7,1.6-6.2,0.6-7.8-2.1s-0.6-6.2,2.1-7.8
					C211.7,262.1,215.2,263.1,216.8,265.8z"/>
			</g>
		</g>
	</g>
</g>
</svg>
