<?xml version="1.0" encoding="utf-8"?>
<!-- Generator: Adobe Illustrator 25.2.0, SVG Export Plug-In . SVG Version: 6.00 Build 0)  -->
<svg version="1.1" id="Layer_1" xmlns="http://www.w3.org/2000/svg" xmlns:xlink="http://www.w3.org/1999/xlink" x="0px" y="0px"
	 viewBox="0 0 622 664" style="enable-background:new 0 0 622 664;" xml:space="preserve">
<style type="text/css">
	.st0{fill:#F6F9FC;}
	.st1{fill:#2E2E2E;}
	.st2{fill:url(#SVGID_1_);}
	.st3{fill:#FFFFFF;stroke:#000000;stroke-width:1.13;stroke-linecap:round;stroke-linejoin:round;}
	.st4{fill:none;stroke:#000000;stroke-width:1.13;stroke-linecap:round;stroke-linejoin:round;}
	.st5{fill:#6F983F;}
	.st6{fill:none;stroke:#FFFFFF;stroke-width:1.13;stroke-linecap:round;stroke-linejoin:round;}
	.st7{fill:#FFFFFF;stroke:#000000;stroke-width:1.24;stroke-linecap:round;stroke-linejoin:round;}
	.st8{fill:none;stroke:#000000;stroke-width:0.62;stroke-linecap:round;stroke-linejoin:round;}
	.st9{fill:#FFFFFF;stroke:#000000;stroke-width:0.62;stroke-linecap:round;stroke-linejoin:round;}
	.st10{fill:#FFFFFF;}
</style>
<g>
	<path class="st0" d="M252.2,462.6c4.5,2.3,9.1,4.4,14,6.2c55.9,20.4,155.1-9.8,173.2-76.5c4.3-15.9,0.8-29.9,0.9-45.2
		c0.3-34.9,20.3-67.6,24.4-102.2c3.2-26.8-12.8-49.2-32.5-64.2c-21.5-16.4-45.5-22.3-76.5-19.2c-34.7,3.5-61.6,24.4-88.1,46.5
		c-12,9.9-24.3,20.1-38.2,27.4c-17.4,9.2-36.4,15.3-54.2,23.5c-18.5,8.5-36.9,18.9-51,33.2c-45.5,45.8-20,117.2,23.9,140.5
		c15.5,8.2,34.7,10.3,53.1,13C220.9,448.4,235.4,454.2,252.2,462.6L252.2,462.6z"/>
	<path class="st1" d="M560.7,183.5l-20-104.1c-1.2-6.4-5.3-12-11.1-15c-5.8-3.1-12.6-3.4-18.6-0.8l-100.7,43.1
		c-11,4.7-16.1,17.4-11.4,28.4s17.4,16.1,28.4,11.4l43.3-18.5l-144,239.3L220,375.4c-6.5,0.5-12.4,3.9-16.1,9.2L56.7,577.7
		c-6.9,9.8-4.5,23.3,5.3,30.2c4.5,3.1,9.7,4.3,14.7,3.8c6-0.6,11.7-3.8,15.5-9.1l141.2-184.8l107.6-8.1c7-0.6,13.3-4.4,16.9-10.4
		L509.6,147l8.6,44.7c2.1,11.1,12.4,18.6,23.5,17.4c0.6-0.1,1.2-0.2,1.8-0.3C555.2,206.6,562.9,195.3,560.7,183.5L560.7,183.5z"/>
	
		<linearGradient id="SVGID_1_" gradientUnits="userSpaceOnUse" x1="35.1962" y1="770.3859" x2="582.1155" y2="712.9382" gradientTransform="matrix(1 0 0 1 0 -414)">
		<stop  offset="5.347593e-03" style="stop-color:#6F983F"/>
		<stop  offset="1" style="stop-color:#2E2E2E"/>
	</linearGradient>
	<path class="st2" d="M568.9,173.8l-20-104.1c-1.2-6.4-5.3-12-11.1-15c-5.8-3.1-12.6-3.4-18.7-0.8L418.5,97
		c-11,4.7-16.1,17.4-11.4,28.4s17.4,16.1,28.4,11.4l43.3-18.5l-144,239.3l-106.6,8.1c-6.5,0.5-12.4,3.9-16.1,9.2L63,570
		c-6.9,9.8-4.5,23.3,5.3,30.2c4.4,3.1,9.7,4.3,14.7,3.8c6-0.6,11.7-3.8,15.5-9.1l143.1-186.8l107.6-8.1c7-0.6,13.3-4.4,16.9-10.4
		l151.8-252.3l8.6,44.7c2.1,11.1,12.4,18.6,23.5,17.4c0.6-0.1,1.2-0.2,1.8-0.3C563.4,196.9,571.1,185.6,568.9,173.8L568.9,173.8z"/>
	<path class="st1" d="M288.6,311.1l-20,1l-8.4-1.7c0,0-21.5-20.3-39.2-30.6c-17.8-10.2-52.8-28.8-55.3-24.3
		c-2.5,4.5,14.6,104.7,14.6,104.7s-5.8,3.9-6.6,5.9s-24.5,78.4-24.5,78.4s-5.7-1-6.4,1c-0.8,2-3.4,11.2-3.4,11.2l-16.7,0.1
		c0,0-12-1.7-18.7-3.3c-6.7-1.6-4.6,3.4-2.7,5.5s23.8,18.1,23.8,18.1l13.6,7.7c0,0,5.3,0.7,6.4-1.7c1.1-2.4,12.4-18.7,12.4-18.7
		s3.3-3,4.7-4.8s3.1-8.2,3.1-8.2l29.3-45.1l16-22.4L313.3,373c0,0,5.6-3.2,7.4-10.3l1.9-7.1L288.6,311.1z M199.2,353.6l1.3-44.1
		l32.2,32.6L199.2,353.6L199.2,353.6z"/>
	<path class="st3" d="M403.5,202.6l-21.3,13.8l-4.5,13.1l27.8-3.2c0,0,5.3-15.6,5.1-20.1C410.4,201.6,403.5,202.6,403.5,202.6
		L403.5,202.6z"/>
	<path class="st3" d="M397.3,217.1c0,0-2.2-8.9-1.1-10.4c1.2-1.4,16-12.8,19.2-13.2c3.2-0.3,11.9,1.4,12.4,2.3
		c0.4,0.9,1.4,4.1,1.5,5.4c0.1,1.3-8.8,10.1-9.9,11.9S397.3,217.1,397.3,217.1z"/>
	<path class="st3" d="M369.6,243.5l12.2-1.8c0,0,14.1-23.9,17.1-28.2c3.1-4.3,11.6-13.6,21.9-16.1c10.2-2.5,12.2,2.4,12.4,4.3
		c0.2,1.8-8.1,21-11.7,31.2s-7.6,16.5-8.5,18.9s-10.9,25.2-12.8,29.4c-1.9,4.2-14.2,15.5-15.9,18.1c-1.6,2.5-13.8,26.5-22.1,34.6
		c-8.3,8.1-23,16.7-23,16.7s-6.6,5.9-10.6,8.4c-3.9,2.5-8.6,2.6-10.3,2c-1.7-0.5-15.5-9.8-23.6-20.4s-9.9-27.5-9.6-29.1
		c0.3-1.7,4-4.6,5.1-5s12.6-4.6,12.6-4.6l8.7-7.9c0,0,0.3-3.8,1.1-5c0.8-1.3,17.6-24.1,17.6-24.1l6.3-9.1l16.4-6.2L369.6,243.5
		L369.6,243.5z"/>
	<path class="st4" d="M325.6,319.1c5.4-0.5,12-1.7,20.2-4"/>
	<path class="st4" d="M307.6,317.9c0,0,4.4,2,14.6,1.5"/>
	<path class="st4" d="M323,328.3c1.3,0.2,2.6,0.2,3.9,0.2"/>
	<path class="st4" d="M304.6,322.4c0,0,7.3,3.8,15.3,5.4"/>
	<path class="st4" d="M347.8,297.7c-7.1,2.7-20.9,7.9-27.7,10.2"/>
	<path class="st4" d="M352.3,296c0,0-0.7,0.3-2,0.8"/>
	<path class="st4" d="M368.7,266.5c-0.7,1.3-1.2,2.5-1.7,3.5"/>
	<path class="st4" d="M381.8,241.7c0,0-7.1,13.1-11.8,22.2"/>
	<path class="st4" d="M379.6,243.8c0,0-11.8,9.9-16.5,16.3"/>
	<path class="st3" d="M347,195.1c0,0-12,8.5-11.8,10.1l0.4,3.5c0,0-7.1,6.1-9.7,8s3.1,5.5,3.1,5.5l-5.3,18.1c0,0,2.5,3.5,4.1,3.5
		c1.6,0.1,10.2-0.6,10.2-0.6l3.9,7.8l29.4-9.4l-1.9-4.7c0,0,11.5-6.4,16-10.3c4.5-4,6-18.2,1.2-26.3s-9-12.4-13.2-14
		c-4.1-1.7-13.4-0.7-13.4-0.7s6-7.7-0.5-7.2s-8.7,6.1-8.7,6.1s-4.8-5.8-7.8-0.8C340,188.6,347,195.1,347,195.1z"/>
	<path class="st1" d="M338,243.3l6.9-0.9l-3.9,6L338,243.3z"/>
	<path class="st4" d="M339.6,206.9c0,0,4.7-2.1,6.9,3"/>
	<path class="st4" d="M340.9,210.7l-2.7,3.1c0,0,0.8,0.9,4.6,1.6"/>
	<path class="st4" d="M332.6,225.4c0,0,2.1,2.3,8.3-0.9"/>
	<path class="st1" d="M373.3,186.3c-4.1-1.7-13.4-0.7-13.4-0.7s6-7.7-0.5-7.2s-8.7,6.1-8.7,6.1s-4.8-5.8-7.8-0.8s4,11.5,4,11.5
		s2.2,0.9,5.1,1.6s8.3,0.8,9.1,2.1c0.8,1.3-8.7,6.1-7.6,8.1s3.9,7.8,3.9,7.8s-3.6,5.5-2.9,6.1c0.8,0.6,2.8,2.5,3.5,2.4
		s5.6-4.1,6.3-4.2c0.7-0.1,4.2-0.2,4.3,4.9c0.1,5.1-5.7,8.1-8.4,8.8l-2.7,0.8c0,0,3.3,2.2,4.3,3.5c1.1,1.3,7.5-0.1,7.5-0.1
		s11.5-6.4,16-10.3c4.5-4,6-18.2,1.2-26.3C381.7,192.2,377.5,187.9,373.3,186.3L373.3,186.3z"/>
	<path class="st5" d="M333.3,271.7c0,0-1.5,36.7-1.5,41.3c0,4.7,2.5,28,2.5,28l10.2,8l7.2-11.5l-9.8-31.2l-7-35.5L333.3,271.7
		L333.3,271.7z"/>
	<path class="st5" d="M334.8,259.6l-1.5,12.1l17.4-14L334.8,259.6z"/>
	<path class="st3" d="M369.4,237l-33.8,14.1l2.6,14l36-22.3L369.4,237z"/>
	<path class="st3" d="M336.4,254l-7.7,0.3l9.7,8.1L336.4,254z"/>
	<path class="st3" d="M328.7,254.4l1.6,10.4l4.6-5.2L328.7,254.4z"/>
	<path class="st6" d="M198.2,306.1c0,0-14.2-20.1-20.7-29"/>
	<path class="st6" d="M174.7,282.7l9.2,6.2"/>
	<path class="st6" d="M160.1,423c0,0,26.4-19.9,42.8-32.4"/>
	<path class="st6" d="M183.7,398.5c0,0,14.8-8.8,18.3-12.8"/>
	<path class="st7" d="M236.4,266.5l-28.2,15.9l39.8,47.2l16.6-24.4L236.4,266.5z"/>
	<path class="st5" d="M236.5,270.9l-23.6,13l34.3,40.8l13.5-20.4L236.5,270.9z"/>
	<path class="st7" d="M264.5,305.2l45.6-12.6l-2.5,25.3l-59.7,11.7L264.5,305.2z"/>
	<path class="st8" d="M290.7,302.9l0.6-2.4l-4.5,1.2l-0.8,2.4L290.7,302.9z"/>
	<path class="st9" d="M263.6,320l4.8-1.1l1.2-2.4l-4.5,1L263.6,320z"/>
	<path class="st8" d="M291.6,303.8l-0.7,2.7l4.1-1l0.7-2.7L291.6,303.8z"/>
	<path class="st8" d="M295,309.7l5.2-1.2l0.8-3.4l-5.2,1.3L295,309.7z"/>
	<path class="st9" d="M277.3,311l-4.2,1.1l-1.5,3l4.6-1L277.3,311z"/>
	<path class="st9" d="M279.4,305.8l0.9-2.4l-3.3,0.9l-1.2,2.4L279.4,305.8z"/>
	<path class="st9" d="M275.7,315.2l-4.7,1.1l-1.2,2.4l5-1.1L275.7,315.2z"/>
	<path class="st9" d="M271.7,312.4l-4,1l-1.8,2.9l4.3-1L271.7,312.4z"/>
	<path class="st8" d="M296,301.5l0.6-2.5l-4,1.1l-0.6,2.5L296,301.5z"/>
	<path class="st9" d="M256.2,322.8l-2,2.8l5.3-1.2l1.7-2.8L256.2,322.8z"/>
	<path class="st9" d="M282,317l-0.8,2.7l5.4-1.2l0.7-2.7L282,317z"/>
	<path class="st9" d="M269.1,319.9l-1.4,2.8l5.5-1.2l1.1-2.7L269.1,319.9z"/>
	<path class="st8" d="M287.8,318.2l4.1-0.9l0.7-2.7l-4.1,0.9L287.8,318.2z"/>
	<path class="st8" d="M296.2,305.1l5.2-1.3l0.6-2.7l-5.1,1.3L296.2,305.1z"/>
	<path class="st9" d="M283.6,308.3l0.8-2.6l-4.3,1.1l-1.1,2.7L283.6,308.3z"/>
	<path class="st9" d="M268.7,309.7l-4.2,1.1l-1.9,2.8l4.4-1.1L268.7,309.7z"/>
	<path class="st9" d="M284.9,304.4l0.8-2.4l-4,1.1l-1,2.4L284.9,304.4z"/>
	<path class="st9" d="M268.5,312.1l3.8-1l1.4-2.7l-3.5,0.9L268.5,312.1z"/>
	<path class="st8" d="M293.5,311.1l-4.1,0.9l-0.6,2.3l4.1-0.9L293.5,311.1z"/>
	<path class="st8" d="M300,309.6l-5.3,1.2l-0.6,2.3l5.3-1.2L300,309.6z"/>
	<path class="st8" d="M294.7,306.6l-4.1,1l-0.8,3.2l4.1-0.9L294.7,306.6z"/>
	<path class="st9" d="M273.8,310.8l4.1-1l1.1-2.7l-3.7,1L273.8,310.8z"/>
	<path class="st9" d="M262.8,321.3l-1.7,2.8l5.3-1.2l1.4-2.8L262.8,321.3z"/>
	<path class="st8" d="M297.2,301.2l5.1-1.3l0.6-2.6l-5.1,1.4L297.2,301.2z"/>
	<path class="st8" d="M293.8,314.3l-0.7,2.7l5.4-1.2l0.6-2.7L293.8,314.3z"/>
	<path class="st9" d="M269.6,308.4l1.5-2.4l-3.8,1l-1.7,2.5L269.6,308.4z"/>
	<path class="st9" d="M275.5,318.5l-1.1,2.7l5.5-1.2l0.8-2.7L275.5,318.5z"/>
	<path class="st9" d="M283.3,309.5l-4.6,1.2l-1.2,3l4.9-1.1L283.3,309.5z"/>
	<path class="st8" d="M288.3,312.3l-5.1,1.2l-0.7,2.3l5.2-1.2L288.3,312.3z"/>
	<path class="st9" d="M263.6,317.9l-4.8,1.1l-1.7,2.5l5-1.1L263.6,317.9z"/>
	<path class="st8" d="M289.4,308l-4.9,1.2l-1,3.1l5-1.2L289.4,308z"/>
	<path class="st9" d="M281.9,313.8l-5,1.1l-0.9,2.3l5.2-1.2L281.9,313.8z"/>
	<path class="st8" d="M290.4,304.1l-4.7,1.2l-0.8,2.7l4.8-1.2L290.4,304.1z"/>
	<path class="st9" d="M266.2,313.8l-4.5,1.1l-2,2.8l4.7-1.1L266.2,313.8z"/>
	<path class="st9" d="M274.4,307.1l1.2-2.4l-3,0.8l-1.5,2.5L274.4,307.1z"/>
	<path class="st5" d="M248.5,241.3c11.5-1.4,19.6-12.1,18.2-23.9c-1.4-11.8-11.8-20.2-23.3-18.9c-11.5,1.4-19.6,12.1-18.2,23.9
		C226.6,234.2,237.1,242.7,248.5,241.3z"/>
	<path class="st10" d="M247,217.9c-1.9-0.6-3.2-1-4-1.7c-0.1-0.1-0.2-0.1-0.2-0.2c-0.6-0.6-1-1.2-1.1-2.1c-0.2-1.6,0.7-3.6,3.7-3.9
		c2.5-0.3,4.2,0.4,5.1,0.8l0.6-2.8c-1.2-0.5-2.9-1-5.2-0.8l-0.4-3.9l-0.5,0.1l-1.9,0.2l0.3,2l0.2,2c-3.5,1-5.5,3.8-5.1,7.1
		c0.1,0.8,0.3,1.4,0.6,2c0,0.1,0.1,0.2,0.1,0.3c1.1,1.9,3.4,3,6.5,3.9c3,0.9,4.7,2,4.9,4.2c0.3,2.3-1.4,4.1-4.1,4.5
		c-2.2,0.3-4.3-0.3-5.8-1.1l-0.6,2.7v0.1c1.5,0.8,3.9,1.3,6.1,1l0.5,4l2.4-0.3l-0.5-4.2c1.1-0.3,2.1-0.8,2.8-1.5
		c1.9-1.5,2.7-3.8,2.5-6.1C253.4,220.9,251.1,219.1,247,217.9L247,217.9z"/>
	<path class="st5" d="M302,256.4c5.6-0.7,9.6-5.9,8.9-11.6c-0.7-5.8-5.8-9.9-11.4-9.2s-9.6,5.9-8.9,11.6
		C291.3,252.9,296.4,257.1,302,256.4z"/>
	<path class="st10" d="M301.2,245c-0.9-0.3-1.5-0.5-2-0.8l-0.1-0.1c-0.3-0.3-0.5-0.6-0.5-1c-0.1-0.8,0.4-1.7,1.8-1.9
		c1.2-0.1,2,0.2,2.5,0.4l0.3-1.3c-0.6-0.3-1.4-0.5-2.5-0.4l-0.2-1.9h-0.3l-0.9,0.1l0.1,1l0.1,1c-1.7,0.5-2.7,1.9-2.5,3.5
		c0,0.4,0.1,0.7,0.3,1c0,0,0,0.1,0.1,0.1c0.5,0.9,1.7,1.5,3.2,1.9s2.3,1,2.4,2.1s-0.7,2-2,2.2c-1.1,0.1-2.1-0.1-2.8-0.5l-0.3,1.3
		v0.1c0.7,0.4,1.9,0.6,3,0.5l0.2,2l1.2-0.1l-0.2-2c0.5-0.2,1-0.4,1.4-0.7c0.9-0.7,1.3-1.9,1.2-3C304.4,246.4,303.3,245.5,301.2,245
		L301.2,245z"/>
	<path class="st5" d="M276.6,289.2c4-0.5,6.8-4.2,6.4-8.3c-0.5-4.1-4.1-7.1-8.1-6.6s-6.8,4.2-6.4,8.3
		C269,286.8,272.6,289.7,276.6,289.2z"/>
	<path class="st10" d="M276.1,281c-0.6-0.2-1.1-0.4-1.4-0.6c0,0-0.1,0-0.1-0.1c-0.2-0.2-0.3-0.4-0.4-0.7c-0.1-0.6,0.2-1.3,1.3-1.4
		c0.9-0.1,1.5,0.1,1.8,0.3l0.2-1c-0.4-0.2-1-0.3-1.8-0.3l-0.2-1.4h-0.2l-0.7,0.1l0.1,0.7l0.1,0.7c-1.2,0.4-1.9,1.3-1.8,2.5
		c0,0.3,0.1,0.5,0.2,0.7v0.1c0.4,0.7,1.2,1.1,2.3,1.4c1.1,0.3,1.6,0.7,1.7,1.5s-0.5,1.4-1.5,1.6c-0.8,0.1-1.5-0.1-2-0.4l-0.2,0.9
		l0,0c0.5,0.3,1.4,0.4,2.1,0.4l0.2,1.4l0.9-0.1l-0.2-1.5c0.4-0.1,0.7-0.3,1-0.5c0.7-0.5,1-1.3,0.9-2.1
		C278.3,282.1,277.5,281.5,276.1,281L276.1,281z"/>
</g>
</svg>
