<?xml version="1.0" encoding="utf-8"?>
<!-- Generator: Adobe Illustrator 25.2.0, SVG Export Plug-In . SVG Version: 6.00 Build 0)  -->
<svg version="1.1" id="Layer_1" xmlns="http://www.w3.org/2000/svg" xmlns:xlink="http://www.w3.org/1999/xlink" x="0px" y="0px"
	 viewBox="0 0 725 472" style="enable-background:new 0 0 725 472;" xml:space="preserve">
<style type="text/css">
	.st0{fill:#F6F9FC;}
	.st1{fill:#6F983F;}
	.st2{fill:#DCE3EE;stroke:#DCE3EE;stroke-width:0.92;stroke-miterlimit:10;}
	.st3{fill:#2E2E2E;}
	.st4{fill:#6FCF2B;}
	.st5{fill:#FFFFFF;}
</style>
<g>
	<path class="st0" d="M599.6,385.8c-19,5.5-74.9-6-94.1-6.9l-347.7,7.9c-81.4-16.7-149-111.1-44.2-153.2
		c52.8-21.2-43.6-94.1,65.8-121.6c77.4-19.4,118.1,30.9,265.5-5.6c138.4-34.2,183.9,24.3,154.7,82.8c-32.6,65.1,20.9,52.6,43.4,77.9
		C676.3,304.5,677.4,363.5,599.6,385.8z"/>
	<path class="st1" d="M365.4,411.1c141.2,0,255.7-9.1,255.7-20.4s-114.5-20.4-255.7-20.4s-255.7,9.1-255.7,20.4
		C109.7,402,224.2,411.1,365.4,411.1z"/>
	<path class="st1" d="M277.8,284.3c0,0,2.5-110.6-171.5-83.7C106.3,200.6,196.7,370.9,277.8,284.3z"/>
	<path class="st1" d="M106,200.5l169.9,70C269.9,241.9,241.4,179.6,106,200.5z"/>
	<path class="st2" d="M268.9,267.9c0.1,0,0.1-0.1,0.1-0.2c0.1-0.2,0-0.4-0.2-0.4l-162.7-67.1c-0.2-0.1-0.3,0-0.4,0.2s0,0.4,0.2,0.4
		l162.7,67.1C268.7,267.9,268.8,267.9,268.9,267.9z"/>
	<path class="st2" d="M191.1,235.8c0.1-0.1,0.2-0.2,0.1-0.4c-0.1-0.2-0.2-0.2-0.4-0.2l-45,19.1c-0.1,0.1-0.2,0.3-0.2,0.4
		c0.1,0.2,0.2,0.2,0.4,0.2L191.1,235.8L191.1,235.8z"/>
	<path class="st2" d="M226,250.2C226,250.2,226,250.1,226,250.2c0.2-0.1,0.2-0.4,0.1-0.5l-30.8-39.2c-0.1-0.1-0.3-0.2-0.4,0
		c-0.1,0.1-0.1,0.3,0,0.5l30.8,39.2C225.7,250.2,225.8,250.2,226,250.2z"/>
	<path class="st1" d="M308.8,304.1c0,0-43.1-113.2-208.1-1.4C100.7,302.7,262.4,431.2,308.8,304.1z"/>
	<path class="st1" d="M100.3,302.7l200.9-11.6C283.3,265,228.7,215.8,100.3,302.7z"/>
	<path class="st2" d="M293,291.8c0-0.1,0.1-0.1,0.1-0.2c0-0.2-0.2-0.3-0.3-0.3l-192.4,11.2c-0.2,0-0.3,0.2-0.3,0.4
		c0,0.2,0.2,0.3,0.3,0.3L292.8,292C292.8,291.9,292.9,291.9,293,291.8L293,291.8z"/>
	<path class="st2" d="M201,297.1c0.1-0.1,0.1-0.3,0-0.5c-0.1-0.1-0.3-0.1-0.5,0l-37.7,41.2c-0.1,0.1-0.1,0.4,0,0.5s0.3,0.1,0.5,0
		L201,297.1C201,297.2,201,297.1,201,297.1z"/>
	<path class="st2" d="M242.2,294.7L242.2,294.7c0.1-0.2,0-0.5-0.1-0.5l-47.3-24.7c-0.2-0.1-0.4,0-0.4,0.2c-0.1,0.2,0,0.4,0.2,0.5
		l47.3,24.7C242,294.9,242.1,294.9,242.2,294.7z"/>
	<path class="st1" d="M441.3,258.2c0,0-22.2-99.2,139.6-111.8C580.9,146.4,530,319.1,441.3,258.2z"/>
	<path class="st1" d="M581.2,146.2l-140.6,99.2C440.7,218.3,455.3,156,581.2,146.2z"/>
	<path class="st2" d="M446.4,241.5c-0.1,0-0.1-0.1-0.2-0.1c-0.1-0.1,0-0.3,0.1-0.4L581,146c0.1-0.1,0.3-0.1,0.4,0.1
		c0.1,0.1,0,0.3-0.1,0.4l-134.7,95C446.5,241.5,446.4,241.5,446.4,241.5z"/>
	<path class="st2" d="M510.7,196.1c-0.1,0-0.2-0.2-0.2-0.3c0-0.2,0.2-0.3,0.3-0.2l44.1,7.7c0.1,0,0.3,0.2,0.2,0.3
		c0,0.2-0.2,0.3-0.3,0.2L510.7,196.1C510.8,196.1,510.8,196.1,510.7,196.1z"/>
	<path class="st2" d="M481.9,216.4L481.9,216.4c-0.2-0.1-0.2-0.3-0.2-0.4l20.7-41.9c0.1-0.1,0.2-0.2,0.4-0.1
		c0.1,0.1,0.2,0.3,0.1,0.4l-20.7,41.9C482.2,216.4,482,216.5,481.9,216.4z"/>
	<path class="st1" d="M451.1,281.7c0,0,51.4-98.8,191.6,24.3C642.7,306,480.5,404.3,451.1,281.7z"/>
	<path class="st1" d="M643.1,306.1l-183.6-35.4C478.7,248.8,534,210.3,643.1,306.1z"/>
	<path class="st2" d="M467,272.3c0-0.1,0-0.1,0-0.2c0-0.2,0.2-0.3,0.4-0.3l175.8,33.9c0.2,0,0.3,0.2,0.2,0.4c0,0.2-0.2,0.3-0.4,0.3
		l-175.8-33.9C467.1,272.5,467,272.4,467,272.3z"/>
	<path class="st2" d="M551,288.5c-0.1-0.1,0-0.3,0.1-0.4s0.3-0.1,0.4,0.1l30.4,42.5c0.1,0.1,0.1,0.4-0.1,0.5
		c-0.1,0.1-0.3,0.1-0.4-0.1L551,288.5C551.1,288.6,551,288.5,551,288.5L551,288.5z"/>
	<path class="st2" d="M513.4,281.3C513.4,281.3,513.3,281.2,513.4,281.3c-0.1-0.2,0-0.4,0.2-0.5l46.1-16.9c0.2-0.1,0.3,0,0.4,0.2
		c0.1,0.2,0,0.4-0.2,0.4l-46.1,16.9C513.6,281.5,513.4,281.4,513.4,281.3z"/>
	<path class="st3" d="M384.4,328h-45.9v47.5h45.9V328z"/>
	<path class="st3" d="M239.6,145.9h247.2c2.4,0,4.4,2,4.4,4.4v176.9c0,2.4-2,4.4-4.4,4.4H239.6c-2.4,0-4.4-2-4.4-4.4V150.3
		C235.2,147.9,237.2,145.9,239.6,145.9z"/>
	<path class="st4" d="M557.1,360.2c-3.5,0.8-15-2.8-15.2-3.9s9.1-9.2,12.6-9.9c3.5-0.8,6.9,1.7,7.6,5.5
		C562.9,355.7,560.6,359.4,557.1,360.2z"/>
	<path class="st4" d="M526.6,360.2c1.3,3.6-0.1,16.5-1.1,16.9s-9.8-8.3-11.1-11.9s0.4-7.7,3.8-9.1S525.3,356.5,526.6,360.2z"/>
	<path class="st4" d="M538,388.3c-3.6,0.5-14.8-4-14.9-5.1c-0.1-1.1,9.7-8.4,13.3-8.9s6.8,2.3,7.2,6.1
		C544.1,384.3,541.6,387.8,538,388.3L538,388.3z"/>
	<path class="st4" d="M518.8,395.2c0.2,0,0.3,0.1,0.4,0.1c0.1-0.3,0.2-0.6,0.3-1c0.7-2.5,1.9-6.5,3.7-11c0.1-0.4,0.3-0.7,0.4-1.1
		c3.7-8.8,9.6-19.5,18.4-25.7c0.1,0,0.1-0.1,0.2-0.1L542,356l-0.1,0.1c-7.1,4.9-12.3,12.7-16,20.1c-0.2,0.3-0.3,0.6-0.4,0.9
		c-3.4,7-5.5,13.7-6.4,17.2C519,394.6,518.9,394.9,518.8,395.2L518.8,395.2z"/>
	<path class="st4" d="M515.1,394.5c0-0.3,0-0.7,0-1c-0.3-8.9,0.2-17.4,1.2-25.3c0.5-4.3,1.2-8.3,2-12.1c2.2-11.2,5.2-20.2,7.3-25.9
		c1.2-3.1,2.1-5.3,2.5-6.3c0.1-0.2,0.2-0.4,0.2-0.5s0-0.1,0-0.1l0,0h0.1h0.1l0.2,0.1h0.1l0,0c0,0,0,0,0,0.1s0,0.1-0.1,0.2
		c0,0.1-0.1,0.2-0.1,0.3c-0.4,1-1.4,3.2-2.6,6.6c-2.1,5.7-4.9,14.5-7.1,25.3c-0.8,4-1.5,8.3-2.1,12.8c-0.9,7.7-1.4,16.1-1.1,24.8
		c0,0.3,0,0.7,0,1H515.1L515.1,394.5z"/>
	<path class="st5" d="M533.8,321.2c-1,1-5.2,2.5-5.5,2.2s1.1-4.9,2.1-5.9s2.5-1,3.4,0C534.7,318.6,534.7,320.2,533.8,321.2
		L533.8,321.2z"/>
	<path class="st5" d="M527.7,317c0.7,1.2,1.1,6,0.8,6.3c-0.3,0.2-4.2-2.2-4.9-3.4c-0.7-1.2-0.4-2.8,0.7-3.6
		C525.4,315.4,527,315.8,527.7,317z"/>
	<path class="st5" d="M522.6,321.7c1.3-0.3,5.6,1,5.7,1.5c0.1,0.4-3.4,3.4-4.7,3.7c-1.3,0.3-2.6-0.6-2.9-2.1
		C520.4,323.4,521.3,322,522.6,321.7L522.6,321.7z"/>
	<path class="st5" d="M525.1,328.2c0.2-1.4,2.9-5.3,3.3-5.2c0.4,0.1,1.7,4.7,1.5,6.1s-1.5,2.4-2.8,2.2
		C525.8,331,524.9,329.6,525.1,328.2z"/>
	<path class="st5" d="M531.7,328.4c-1.1-0.8-3.4-4.9-3.2-5.3s4.6,0,5.8,0.8c1.1,0.8,1.5,2.4,0.8,3.6
		C534.4,328.8,532.9,329.2,531.7,328.4L531.7,328.4z"/>
	<path class="st4" d="M529.3,323.1c0-0.5-0.4-0.8-0.9-0.8c-0.4,0-0.8,0.5-0.7,0.9c0,0.5,0.4,0.8,0.9,0.8
		C529,324,529.3,323.5,529.3,323.1z"/>
	<path class="st4" d="M477.1,367.6c2.4,0.5,10.4-1.9,10.6-2.7c0.1-0.8-6.3-6.4-8.8-6.9c-2.4-0.5-4.8,1.2-5.3,3.8
		C473,364.5,474.6,367.1,477.1,367.6L477.1,367.6z"/>
	<path class="st4" d="M498.3,367.6c-0.9,2.5,0.1,11.5,0.8,11.7c0.7,0.3,6.8-5.8,7.7-8.3c0.9-2.5-0.3-5.4-2.6-6.3
		C501.8,363.8,499.2,365,498.3,367.6z"/>
	<path class="st4" d="M490.4,387.1c2.5,0.3,10.3-2.8,10.3-3.6c0.1-0.8-6.8-5.8-9.2-6.2c-2.5-0.3-4.7,1.6-5,4.3
		C486.1,384.3,487.9,386.8,490.4,387.1L490.4,387.1z"/>
	<path class="st4" d="M503.7,392c-0.1,0-0.2,0.1-0.3,0.1c0-0.2-0.1-0.4-0.2-0.7c-0.5-1.7-1.3-4.5-2.6-7.7c-0.1-0.3-0.2-0.5-0.3-0.8
		c-2.5-6.1-6.7-13.5-12.8-17.8l-0.1-0.1l0.2-0.3c0,0,0,0,0.1,0.1c4.9,3.4,8.5,8.8,11.1,14c0.1,0.2,0.2,0.4,0.3,0.6
		c2.4,4.9,3.8,9.5,4.5,11.9C503.6,391.5,503.6,391.7,503.7,392L503.7,392z"/>
	<path class="st4" d="M506.2,391.4c0-0.2,0-0.5,0-0.7c0.2-6.2-0.1-12.1-0.8-17.5c-0.4-3-0.8-5.8-1.4-8.4c-1.6-7.8-3.6-14-5.1-18
		c-0.8-2.2-1.4-3.7-1.8-4.4c-0.1-0.2-0.1-0.3-0.2-0.4v-0.1l0,0l0,0h-0.1l-0.1,0.1l0,0l0,0l0,0c0,0,0,0.1,0.1,0.1
		c0,0.1,0.1,0.1,0.1,0.2c0.3,0.7,1,2.3,1.8,4.6c1.5,3.9,3.4,10.1,5,17.6c0.6,2.8,1.1,5.8,1.5,8.9c0.7,5.4,1,11.2,0.8,17.2
		c0,0.2,0,0.5,0,0.7L506.2,391.4L506.2,391.4z"/>
	<path class="st5" d="M493.3,340.5c0.7,0.7,3.6,1.7,3.8,1.5c0.2-0.2-0.8-3.4-1.4-4.1c-0.7-0.7-1.7-0.7-2.4,0
		C492.6,338.7,492.6,339.8,493.3,340.5L493.3,340.5z"/>
	<path class="st5" d="M497.5,337.6c-0.5,0.8-0.8,4.2-0.6,4.4c0.2,0.2,2.9-1.5,3.4-2.4c0.5-0.8,0.3-2-0.5-2.5
		C499.1,336.5,498,336.7,497.5,337.6z"/>
	<path class="st5" d="M501.1,340.8c-0.9-0.2-3.9,0.7-3.9,1s2.4,2.4,3.3,2.6s1.8-0.4,2-1.4C502.6,342,502,341,501.1,340.8
		L501.1,340.8z"/>
	<path class="st5" d="M499.3,345.4c-0.2-1-2-3.7-2.3-3.6s-1.2,3.2-1.1,4.2c0.2,1,1,1.7,1.9,1.5C498.8,347.3,499.4,346.4,499.3,345.4
		L499.3,345.4z"/>
	<path class="st5" d="M494.7,345.5c0.8-0.5,2.4-3.4,2.3-3.7s-3.2,0-4,0.5s-1,1.7-0.6,2.5C492.9,345.8,493.9,346,494.7,345.5z"/>
	<path class="st4" d="M496.4,341.8c0-0.3,0.3-0.6,0.6-0.5c0.3,0,0.5,0.3,0.5,0.7c0,0.3-0.3,0.6-0.6,0.5
		C496.6,342.4,496.4,342.1,496.4,341.8z"/>
	<path class="st5" d="M483.5,155.4H242.8v165.5h240.8V155.4H483.5z"/>
	<path class="st4" d="M444.3,302.2c-6.6-9.5-10.6-15.5-12-17.5c-1.9-2.7-5.5-10.7-9.5-19.6c-5.5-12.1-11.8-25.8-15.7-30.4
		c-1.6-1.8-4.6-3.4-8.1-4.7c-2.9-1.1-10.4,11.8-38.8,8.6c0,0,12.3,8.3,12.8,9.7c0.9,2.5,1.5,4.4,1.7,5.2c0,0.2,0.1,0.3,0.1,0.3
		c0,0.3-0.1,0.7-0.1,1c-0.1,1.3-0.2,2.5-0.3,3.6v0.1c-0.1,0.6-0.1,1.1-0.1,1.6c0,0.1,0,0.2,0,0.3c-0.2,2.2-0.3,3.9-0.4,4.9
		c0,0.1,0,0.2,0,0.2c0,0.5-0.1,0.8-0.1,0.8s-2.7-0.7-5,0.4c-0.7,0.3-1.4,0.9-2,1.6c-0.1,0.2-0.3,0.4-0.4,0.7
		c-0.1,0.2-0.5,1.3-1.1,2.7v0.1c-1.6,4.3-2,11.5-1.1,12.2c0,0,1.1,1.7,1.5,2.2c1.4,1.5,6,6.6,18,10.6c1.3,0.4,2.5,1.1,3.8,1.6
		c9.7,3.7,8.3,4.8,14.7,11.2c0.1,0.1,0.4,0.5,0.7,1.2c0.9,1.8,2.5,5.3,4.7,9.9h49.9C452.1,313.6,447.8,307.4,444.3,302.2
		L444.3,302.2z"/>
	<path class="st4" d="M406.4,279.2c1,0.3,1.7,0.3,1.7,0.3v-0.4c0,0-2.7,0.1-5.7-2.5c-2.8-2.4-6.4-7.5-7.8-18.7l-0.4,0.1
		c0.8,6.2,2.8,14.6,8,19C403.8,278.3,405.3,278.9,406.4,279.2z"/>
	<path class="st4" d="M388.2,201.3c1.2,0.3,2.9-1.6,2.9-1.6c-0.8-2.5-1.6-5.1-2.5-7.6c-0.8,0.3-1.8,0.9-2.1,2
		C386,196,386.9,201,388.2,201.3L388.2,201.3z"/>
	<path class="st1" d="M465.3,320.8c-9.8-15-18.9-28.4-19.9-27.9s-1.9,1-2.7,1.6c-1.3,0.9-2.5,1.9-3.6,2.9c-6.9,6.5-9.4,15-21.2,16.8
		c-5.8,0.9-10.3,2.7-13.3,5.2c-0.2,0.2-0.4,0.3-0.6,0.5c-0.3,0.3-0.6,0.6-0.8,0.8L465.3,320.8L465.3,320.8z"/>
	<path class="st3" d="M380.1,287.7c5,0.6,9.5-2.8,10-7.6l7.5-71.4c0.5-4.8-3.1-9.3-8.2-9.9c-5-0.6-9.5,2.8-10,7.6l-7.5,71.4
		C371.5,282.7,375.1,287.1,380.1,287.7z"/>
	<path class="st4" d="M318.9,93.8L424,181.2l6.3,14.2l-11.7,11.9L285,215.9L318.9,93.8z"/>
	<path class="st1" d="M348.9,167.8c8-31.6,0.9-60.8-15.9-65c-16.8-4.3-37,17.9-45,49.6c-8,31.6-0.9,60.8,15.9,65
		C320.7,221.6,340.9,199.4,348.9,167.8z"/>
	<path class="st3" d="M424.1,181.3l18.7,10.3c0,0,3.6,0.3,1.1,11.2c-2.5,10.8-6,6.3-25.2,4.7C418.6,207.4,431.6,196.5,424.1,181.3
		L424.1,181.3z"/>
	<path class="st1" d="M306.1,217.7l-23-1.9l32.3-124.2l22.1,12.9l-8.9,72.9L306.1,217.7z"/>
	<path class="st1" d="M327.4,161c8.9-34.4,2.4-65.8-14.4-70.1c-16.8-4.3-37.6,20-46.5,54.4s-2.4,65.8,14.4,70.1
		C297.7,219.7,318.5,195.4,327.4,161z"/>
	<path class="st3" d="M322.5,159.7c7.8-30.3,2.5-58-12-61.7s-32.6,17.8-40.4,48.2c-7.8,30.3-2.5,58,12,61.7
		C296.6,211.6,314.7,190,322.5,159.7z"/>
	<path class="st4" d="M308.9,136.7l-27.4,3.9l-3.6,18.4l24.2,17.2c2.5,2.2,6,1.9,8.2-0.8c5.1-6.3,12.3-19,4.8-35
		C313.9,137.8,311.4,136.3,308.9,136.7z"/>
	<path class="st1" d="M276.2,149.4c-0.9,5.3,0.1,10,2.2,10.5s4.5-3.5,5.3-8.8c0.9-5.3-0.1-10-2.2-10.5
		C279.4,140.2,277.1,144.1,276.2,149.4z"/>
	<path class="st4" d="M351.2,254.5l-0.2-2.1c-0.5-4,4.5-6.8,11.1-7.4l16.2-1.3c6.8-0.6,10.5,0.8,11.9,4.8c0.2,0.7,0.4,1.7,0.3,2.5
		c-0.2,4.1-2.9,6.9-9.7,7.5l-16.9,1.5C357.3,260.6,351.7,258.5,351.2,254.5L351.2,254.5z"/>
	<path class="st4" d="M354,269.1l-0.3-2.1c-0.6-3.7,4.1-6.6,10.5-7.4l16.7-2.1c6.5-0.8,11.4,0.5,12.7,4.2c0.2,0.7,0.3,1.5,0.3,2.3
		c-0.2,3.9-4.4,6.5-10.9,7.4l-16.7,2.1C359.9,274.4,354.5,272.9,354,269.1z"/>
	<path class="st4" d="M357.6,279.6V278c0.1-3.1,4.2-5.3,9.4-5.8l10.6-0.5c4.1-0.2,9.4,0,9.8,4.1c0.5,4.9-6.6,6.9-9,7l-11.6,1
		C361.6,284.3,357.6,282.7,357.6,279.6L357.6,279.6z"/>
	<path class="st4" d="M388.3,250c-0.3-3.2-2.7-3.9-5.2-3.6l-3.2,0.4c-1.2,0.1-2.1,1.1-1.9,2.2l0.6,3.9c0.2,1.2,1.4,2.1,2.8,1.9
		l3.7-0.4C387.2,254.1,388.5,251.5,388.3,250L388.3,250z"/>
	<path class="st4" d="M354.5,241.3c0-0.4-0.3-2.7-0.3-2.7c-0.2-3.4,4-5.2,9.2-5.3l11.7-0.3c5.4-0.1,8.7-0.2,9.9,3.2
		c0.3,0.9,0.4,2.8,0.2,3.8c-0.6,4.3-4.6,4.7-10,4.8l-11,1.1C359,246,354.9,244.7,354.5,241.3L354.5,241.3z"/>
	<path class="st4" d="M391.7,263.9v-0.3c0-2.3-1.8-4-4-3.8l-2.9,0.3c-1,0.1-1.9,1.1-1.9,2.2v3.8c0,1.2,1,2.1,2.1,2l3.3-0.4
		C390.1,267.6,391.7,265.8,391.7,263.9L391.7,263.9z"/>
	<path class="st4" d="M385.2,276.1L385.2,276.1c0.1,1.9-1,3.6-2.5,3.7l-2.6,0.3c-0.7,0.1-1.4-0.6-1.4-1.5l-0.2-2.9
		c-0.1-1,0.5-1.9,1.3-1.9l2.9-0.3C383.9,273.4,385.1,274.5,385.2,276.1L385.2,276.1z"/>
	<path class="st4" d="M384.3,238.8l-0.1-0.6c-0.2-2-2-3.5-3.9-3.4l-2.3,0.1c-0.9,0-1.7,0.8-1.6,1.8l0.3,3.6c0.1,1,1,1.9,2.1,1.8
		l2.6-0.1C383.2,241.9,384.5,240.4,384.3,238.8L384.3,238.8z"/>
	<path class="st4" d="M361.6,260.2L361.6,260.2l24.1-2.6c0.1,0,0.1-0.1,0.1-0.1c0-0.1-0.1-0.1-0.1-0.1l-24,2.6
		c-0.1,0-0.1,0.1-0.1,0.1C361.5,260.1,361.6,260.2,361.6,260.2L361.6,260.2z"/>
	<path class="st4" d="M359.5,245.6L359.5,245.6l23.3-1.8c0.1,0,0.1-0.1,0.1-0.1c0-0.1-0.1-0.1-0.1-0.1l-23.3,1.8
		c-0.1,0-0.1,0.1-0.1,0.1S359.5,245.5,359.5,245.6L359.5,245.6z"/>
	<path class="st4" d="M361.2,273.8L361.2,273.8l19.6-1.9c0.1,0,0.1-0.1,0.1-0.1c0-0.1-0.1-0.1-0.1-0.1l-19.6,1.9
		c-0.1,0-0.1,0.1-0.1,0.1C361.1,273.8,361.1,273.8,361.2,273.8z"/>
	<path class="st4" d="M418.8,256.7c0,0-13.9-46.4-36.2-39.5c-3,0.9-8.4,0.2-14.2-0.8c-2.4-0.4-4.9-0.8-7.3-1.2
		c-0.3-0.1-0.7-0.1-1-0.2c-4.2-0.6-4.4,14,14.4,15.2c4.4,0.3,15.8,2.8,20.4,14.4C397.9,252.1,413.8,267.8,418.8,256.7L418.8,256.7z"
		/>
	<path class="st1" d="M241.2,345.5c9.7-0.1,17.5-8.4,17.4-18.4s-8.1-18-17.9-17.9c-9.7,0.1-17.5,8.4-17.4,18.4
		C223.5,337.6,231.5,345.6,241.2,345.5z"/>
	<path class="st5" d="M242,325.8c-1.5-0.6-2.6-1.2-3.2-1.8c-0.1,0-0.1-0.1-0.2-0.2c-0.5-0.5-0.7-1.1-0.7-1.9c0-1.4,0.9-2.9,3.4-3
		c2.1,0,3.5,0.7,4.2,1.1l0.8-2.3c-0.9-0.6-2.3-1.1-4.3-1.1v-3.3h-0.4H240v1.7v1.7c-3,0.5-4.9,2.7-4.9,5.5c0,0.6,0.1,1.2,0.3,1.7
		c0,0.1,0.1,0.2,0.1,0.2c0.8,1.7,2.6,2.8,5.1,3.8c2.4,1,3.8,2.1,3.8,4s-1.5,3.3-3.9,3.4c-1.8,0-3.6-0.6-4.8-1.4l-0.7,2.2v0.1
		c1.2,0.8,3.2,1.4,5.1,1.4l0.1,3.4h2.1l-0.1-3.5c1-0.2,1.8-0.5,2.5-1c1.8-1.1,2.6-2.9,2.6-4.9C247.1,328.9,245.4,327.2,242,325.8
		L242,325.8z"/>
	<path class="st1" d="M184,137.5c11.9-0.2,21.4-10.2,21.2-22.5c-0.2-12.2-10-22-21.8-21.8c-11.9,0.2-21.4,10.2-21.2,22.5
		S172.1,137.6,184,137.5z"/>
	<path class="st5" d="M184.9,113.3c-1.8-0.8-3.1-1.4-3.9-2.2c-0.1-0.1-0.1-0.1-0.2-0.2c-0.6-0.6-0.9-1.3-0.9-2.3
		c0-1.7,1.1-3.6,4.2-3.6c2.6,0,4.3,0.9,5.1,1.3l1-2.8c-1.2-0.7-2.8-1.3-5.2-1.4v-4h-0.5h-2v2.1v2.1c-3.7,0.7-6,3.3-6,6.7
		c0,0.8,0.1,1.5,0.4,2.1c0,0.1,0.1,0.2,0.1,0.3c0.9,2.1,3.2,3.5,6.2,4.7s4.6,2.6,4.6,4.9c0,2.4-1.9,4.1-4.7,4.1
		c-2.2,0-4.4-0.7-5.8-1.7l-0.9,2.7v0.1c1.4,1,3.9,1.7,6.2,1.7l0.1,4.2h2.5L185,128c1.2-0.2,2.2-0.6,3.1-1.2c2.1-1.4,3.2-3.6,3.2-5.9
		C191.2,117.1,189,115,184.9,113.3L184.9,113.3z"/>
	<path class="st1" d="M531.1,132c19.2-0.3,34.5-16.5,34.3-36.2C565,76,549.2,60.2,530,60.5S495.5,77,495.7,96.7
		C496.1,116.5,511.9,132.3,531.1,132z"/>
	<path class="st5" d="M532.5,93.1c-3-1.2-5.1-2.3-6.4-3.5c-0.1-0.1-0.2-0.2-0.3-0.3c-1-1-1.4-2.2-1.5-3.7c0-2.7,1.8-5.8,6.8-5.9
		c4.2-0.1,6.9,1.4,8.2,2.2l1.5-4.5c-1.9-1.1-4.6-2.1-8.5-2.2l-0.1-6.5h-0.9l-3.2,0.1l0.1,3.4v3.4c-6,1.1-9.7,5.3-9.6,10.9
		c0,1.3,0.2,2.4,0.6,3.4c0,0.2,0.1,0.3,0.2,0.5c1.5,3.4,5.1,5.6,10.1,7.5c4.8,1.9,7.4,4.2,7.4,7.8c0.1,3.8-3,6.6-7.6,6.7
		c-3.6,0.1-7-1.2-9.4-2.7l-1.4,4.4l-0.1,0.2c2.3,1.6,6.2,2.8,10,2.8l0.1,6.8l4.1-0.1l-0.1-7c1.9-0.3,3.6-1,5-1.9
		c3.5-2.2,5.2-5.8,5.2-9.6C542.7,99.2,539.3,95.8,532.5,93.1L532.5,93.1z"/>
</g>
</svg>
