<?xml version="1.0" encoding="utf-8"?>
<!-- Generator: Adobe Illustrator 25.2.0, SVG Export Plug-In . SVG Version: 6.00 Build 0)  -->
<svg version="1.1" id="Layer_1" xmlns="http://www.w3.org/2000/svg" xmlns:xlink="http://www.w3.org/1999/xlink" x="0px" y="0px"
	 viewBox="0 0 1299 372" style="enable-background:new 0 0 1299 372;" xml:space="preserve">
<style type="text/css">
	.st0{fill:none;stroke:url(#SVGID_1_);stroke-width:5;stroke-miterlimit:10;}
	.st1{fill:#E9E9E9;}
</style>
<linearGradient id="SVGID_1_" gradientUnits="userSpaceOnUse" x1="20.4322" y1="184.9935" x2="399.7597" y2="184.9935" gradientTransform="matrix(1 0 0 -1 0 374)">
	<stop  offset="0" style="stop-color:#F7911D"/>
	<stop  offset="1" style="stop-color:#2E2E2E"/>
</linearGradient>
<path class="st0" d="M1250.3,361H40.5c-9.7,0-17.6-9.3-17.6-20.8V46.5 M1277,330.2V37.8c0-11.5-7.9-20.8-17.6-20.8H48.8"/>
<path class="st1" d="M0,33.1V22.6c0-2.9,0.6-5.7,1.7-8.6c1.2-2.9,2.6-5.6,4.4-8s3.6-4.4,5.4-6l10,5.1c-1.5,2.5-2.7,5.2-3.5,8
	c-0.8,2.8-1.2,6-1.2,9.5v10.5H0z M21.9,33.1V22.6c0-2.9,0.6-5.7,1.8-8.6c1.2-2.9,2.6-5.6,4.4-8c1.8-2.5,3.6-4.4,5.4-6l10,5.1
	c-1.5,2.5-2.7,5.2-3.5,8c-0.8,2.8-1.2,6-1.2,9.5v10.5H21.9L21.9,33.1z"/>
<path class="st1" d="M1298.4,338v10.5c0,2.9-0.6,5.7-1.7,8.6c-1.2,2.9-2.6,5.6-4.4,8c-1.8,2.5-3.6,4.4-5.4,6l-10-5.1
	c1.5-2.5,2.7-5.2,3.5-8c0.8-2.8,1.2-6,1.2-9.5V338H1298.4L1298.4,338z M1276.5,338v10.5c0,2.9-0.6,5.7-1.8,8.6
	c-1.2,2.9-2.6,5.6-4.4,8c-1.8,2.5-3.6,4.4-5.4,6l-10-5.1c1.5-2.5,2.7-5.2,3.5-8c0.8-2.8,1.2-6,1.2-9.5V338H1276.5L1276.5,338z"/>
</svg>
