<?xml version="1.0" encoding="utf-8"?>
<!-- Generator: Adobe Illustrator 25.2.0, SVG Export Plug-In . SVG Version: 6.00 Build 0)  -->
<svg version="1.1" id="Layer_1" xmlns="http://www.w3.org/2000/svg" xmlns:xlink="http://www.w3.org/1999/xlink" x="0px" y="0px"
	 viewBox="0 0 612 603" style="enable-background:new 0 0 612 603;" xml:space="preserve">
<style type="text/css">
	.st0{clip-path:url(#SVGID_2_);}
	.st1{fill:#6F983F;}
	.st2{fill:#DCE3EE;}
	.st3{fill:#2E2E2E;}
	.st4{fill:#FFFFFF;stroke:#000000;stroke-width:0.75;stroke-miterlimit:10;}
	.st5{fill:#FFFFFF;}
	.st6{fill:#E1E1E1;}
	.st7{fill:#FFFFFF;stroke:#000000;stroke-width:1.12;stroke-miterlimit:10;}
	.st8{fill:#5C5C5C;}
	.st9{fill:#00B3C7;}
</style>
<g>
	<g>
		<defs>
			<rect id="SVGID_1_" width="612" height="603"/>
		</defs>
		<clipPath id="SVGID_2_">
			<use xlink:href="#SVGID_1_"  style="overflow:visible;"/>
		</clipPath>
		<g class="st0">
			<path class="st1" d="M11.6,193.5l47.1,20l-12.6,6.3l-34.8,17.1L0,242.5L11.6,193.5z"/>
			<path class="st1" d="M204.8,470.7l30.8-11.7l-58.4-115.2l-31,24.3l-46.1-93.9l-29.7,17.5l-41.1-86.4l-17.5,6.1l49.6,116.1
				l33.8-25.8L137.7,406l31.1-29.8L204.8,470.7z"/>
			<path class="st2" d="M516.8,565.7c-11-21.4-34.2-36-58.3-36.6c14.6-16.2,17.5-41.1,9.1-61.2s-27-35-47.8-41.5s-43.6-4.9-64.3,1.7
				c2.4-15.7-13.3-31.4-29-28.9c6.1-4.2,8.2-13.4,4.6-19.9c-3.7-6.5-12.6-9.4-19.4-6.3l0.9-115h-68.4l0.9,115
				c-6.8-3.1-15.7-0.2-19.4,6.3s-1.6,15.6,4.6,19.9c-15.7-2.4-31.4,13.2-29,28.9c-20.7-6.7-43.5-8.2-64.3-1.7s-39.3,21.4-47.8,41.5
				c-8.4,20.1-5.5,45.1,9.1,61.2C74.2,529.7,51,544.3,40,565.7c-6.4,12.4-7,30.8,5.4,37.3h466C523.8,596.5,523.2,578.1,516.8,565.7
				L516.8,565.7z"/>
			<path class="st3" d="M45.4,603c0,0-0.6-0.3-1.7-1c-1.1-0.7-2.6-1.9-4.1-3.9s-2.9-4.9-3.6-8.6c-0.7-3.6-0.7-8,0.1-12.8
				s2.8-10,6-15c3.1-5.1,7.2-10.2,12.4-14.9s11.5-9,18.9-12.2c0.9-0.4,1.9-0.8,2.8-1.2c1-0.3,1.9-0.7,2.9-1c1-0.4,2-0.7,3-0.9
				c1-0.3,2-0.6,3.1-0.8c4.2-1,8.5-1.5,13-1.7l-0.2,0.4c-4.3-4.8-7.7-10.5-10.2-17c-2.4-6.5-3.6-13.6-3.7-20.9
				c0.1-7.4,1.3-15,4.2-22.2c1.4-3.6,3.2-7.2,5.3-10.6c2.1-3.4,4.6-6.7,7.4-9.7c11-12.2,26.8-21.4,44.6-24.9
				c8.9-1.8,18.2-2.3,27.5-1.6c9.4,0.7,18.8,2.6,28.1,5.6l-0.4,0.4c-0.6-3.7-0.1-7.6,1.2-11.2s3.5-7,6.2-9.9
				c2.8-2.9,6.1-5.2,9.9-6.7c3.8-1.5,8-2.1,12.1-1.5l-0.2,0.6c-5.9-4.1-8.4-12.9-4.9-19.8s12.8-10.2,20.1-6.9l-0.5,0.3
				c-0.3-36.6-0.6-75.3-0.9-115V258h0.4c10.9,0,22.5,0,34.2,0c11.5,0,22.9,0,34.2,0h0.4v0.4c-0.3,39.7-0.6,78.2-0.9,115l-0.5-0.3
				c7.2-3.2,16.3-0.1,19.9,6.7c3.6,6.8,1.4,15.8-4.8,20.1l-0.2-0.6c4-0.6,8.2,0,11.9,1.4c3.7,1.5,7.1,3.8,9.9,6.6
				c2.8,2.8,5,6.2,6.3,9.8c1.4,3.7,1.8,7.6,1.3,11.5l-0.4-0.4c9.3-3,18.7-4.8,28.1-5.6c9.4-0.7,18.7-0.2,27.5,1.6
				c17.8,3.5,33.5,12.6,44.5,24.8c2.8,3,5.2,6.3,7.4,9.7c2.2,3.4,3.9,7,5.4,10.6s2.4,7.4,3.2,11.1c0.7,3.7,1,7.5,1,11.2
				c0,7.4-1.3,14.5-3.6,21c-2.4,6.5-5.9,12.3-10.2,17l-0.2-0.4c4.5,0.2,8.9,0.7,13,1.7c1,0.2,2.1,0.6,3.1,0.8c1,0.3,2,0.6,3,0.9
				c1,0.3,2,0.7,2.9,1c0.9,0.4,1.9,0.8,2.8,1.2c7.4,3.2,13.7,7.5,18.9,12.2c5.2,4.7,9.4,9.8,12.4,14.9c3.1,5.1,5.1,10.3,5.9,15.1
				c0.9,4.8,0.9,9.2,0.1,12.8c-0.7,3.7-2.1,6.6-3.6,8.6c-1.6,2-3.1,3.2-4.1,3.9c-1.1,0.7-1.7,1-1.7,1s0.5-0.4,1.6-1
				c1.1-0.7,2.5-2,4.1-3.9c1.5-2,2.8-4.9,3.5-8.5s0.7-8-0.2-12.7c-0.9-4.8-2.8-9.9-6-14.9c-3.1-5.1-7.2-10.2-12.4-14.8
				c-5.2-4.6-11.5-9-18.9-12.1c-0.9-0.4-1.8-0.8-2.8-1.2c-1-0.3-1.9-0.7-2.9-1c-1-0.4-2-0.7-3-0.9c-1-0.3-2-0.6-3.1-0.8
				c-4.1-0.9-8.5-1.5-13-1.7h-0.5l0.3-0.4c4.2-4.7,7.7-10.5,10.1-16.9c2.3-6.4,3.6-13.5,3.6-20.8c0-3.7-0.4-7.4-1-11.1
				c-0.8-3.7-1.7-7.4-3.2-11c-1.4-3.6-3.2-7.1-5.3-10.5c-2.1-3.4-4.5-6.6-7.3-9.6c-11-12.1-26.6-21.2-44.2-24.6
				c-8.8-1.8-18-2.2-27.4-1.6c-9.3,0.7-18.7,2.6-27.9,5.6l-0.5,0.2l0.1-0.5c0.6-3.7,0.1-7.6-1.2-11.1c-1.3-3.6-3.5-6.9-6.2-9.6
				c-2.7-2.8-6-5-9.6-6.4s-7.7-2-11.6-1.4l-1.5,0.2l1.2-0.8c5.9-4.1,8-12.8,4.5-19.2c-3.5-6.4-12.3-9.4-19.1-6.4l-0.5,0.2V373
				c0.3-36.8,0.6-75.4,0.9-115l0.4,0.4c-11.3,0-22.7,0-34.2,0c-11.7,0-23.3,0-34.2,0l0.4-0.4c0.3,39.8,0.6,78.4,0.9,115v0.5
				l-0.5-0.2c-6.9-3.1-15.9,0.1-19.2,6.6s-1,15.1,4.7,19l1.2,0.8l-1.5-0.2c-4-0.6-8,0-11.7,1.4c-3.7,1.5-7,3.8-9.7,6.5
				c-5.4,5.5-8.4,13.3-7.2,20.6l0.1,0.5l-0.5-0.2c-9.2-3-18.6-4.8-28-5.6c-9.3-0.7-18.6-0.2-27.4,1.6c-17.7,3.4-33.3,12.5-44.3,24.7
				c-2.8,3-5.2,6.3-7.3,9.6c-2.1,3.4-3.9,6.9-5.3,10.5c-2.9,7.2-4.1,14.8-4.2,22.1c0,7.3,1.3,14.4,3.6,20.8
				c2.4,6.4,5.8,12.1,10,16.8l0.3,0.4h-0.5c-4.5,0.2-8.8,0.7-12.9,1.7c-1,0.2-2,0.5-3.1,0.8c-1,0.3-2,0.5-3,0.9
				c-1,0.3-1.9,0.7-2.9,1c-0.9,0.4-1.9,0.8-2.8,1.2c-7.4,3.1-13.6,7.5-18.8,12.1c-5.2,4.7-9.3,9.7-12.4,14.8s-5.1,10.2-6,14.9
				c-0.9,4.8-0.9,9.1-0.2,12.7c0.7,3.6,2,6.5,3.5,8.5s3,3.2,4.1,4C44.8,602.6,45.4,603,45.4,603L45.4,603z"/>
			<path class="st1" d="M189.6,100.3L275.8,0l82.8,100.3h-32.3v163.5H226V100.4L189.6,100.3z"/>
			<path class="st1" d="M603.9,245.2l-61,18.7l14.8,9.3l41,25.5l13.2,8.2L603.9,245.2z"/>
			<path class="st1" d="M328.6,562.6l-36.8-18.4L379,409.5l35.4,33.9l69.3-110l34.6,25.3l62.1-101.3l20.9,9.8l-76.4,136.9L486.2,368
				l-66.1,123.2l-34.8-40.7L328.6,562.6z"/>
			<g>
				<path class="st3" d="M359.6,545.8c-8.4-5.5-19.2-6.1-29-4.2c-3.3,0.6-6.9,1.5-9.7-0.2c-2.8-1.7-3.8-5.2-4.9-8.3
					c-5.8-15.8-21.5-26.6-38.1-29.4s-29.9-1.4-45,6.1c-9,4.5-18.3,10.8-26.1,22.5c-2.3,3.4-6.3,10.2-6.3,10.2c-3,2.2-7,2.4-10.7,3
					c-15.2,2.5-28.3,14.8-31.7,29.9l211-3.4C372.8,562.7,367.9,551.3,359.6,545.8L359.6,545.8z"/>
			</g>
			<path class="st2" d="M146.3,589.1c6.6-23.3,32.6-39.4,56.4-34.8c5-25.4,29.4-45.6,55.3-45.8c25.9-0.2,50.6,19.6,56,44.9
				c14.3-3.3,29.7-5.7,43.4-0.4c13.7,5.4,24.1,21.4,18.5,34.9"/>
			<path class="st3" d="M376,588c0,0,0-0.1,0.1-0.4c0.1-0.3,0.2-0.7,0.4-1.2c0.2-0.5,0.4-1.1,0.5-1.9c0.1-0.8,0.4-1.7,0.4-2.7
				c0.4-4.1-0.6-10.4-5.1-16.7c-2.2-3.1-5.2-6.2-9-8.8s-8.6-4.3-13.8-5.3c-5.2-0.9-10.9-1.1-16.8-0.5c-5.9,0.5-12.1,1.7-18.4,3.2
				l-0.3,0.1l-0.1-0.3c-2.3-10-7.7-20.2-16.1-28.2s-19.5-14.1-31.9-15.9c-7.7-1.1-15.5-0.5-22.7,1.8c-7.2,2.2-13.7,5.8-19.2,10.2
				s-10.2,9.6-13.7,15.3c-3.5,5.6-5.8,11.7-7,17.6l-0.1,0.3l-0.3-0.1c-5.3-1-10.6-0.9-15.4-0.2c-2.4,0.3-4.8,1-7,1.6
				c-1.1,0.4-2.2,0.8-3.3,1.1s-2.1,0.9-3.1,1.3c-2,0.8-3.8,2-5.6,2.9c-0.9,0.6-1.7,1.1-2.5,1.7c-0.4,0.3-0.8,0.5-1.2,0.8
				s-0.8,0.6-1.1,0.9c-0.7,0.6-1.5,1.2-2.2,1.7c-0.7,0.6-1.3,1.2-2,1.8c-0.6,0.6-1.3,1.2-1.8,1.8s-1.1,1.2-1.6,1.8
				c-4.1,4.8-6.4,9.2-7.7,12.3c-0.7,1.5-1,2.8-1.3,3.6s-0.5,1.2-0.5,1.2s0.5-1.7,1.6-4.9c1.3-3.1,3.5-7.6,7.6-12.5
				c0.5-0.6,1-1.2,1.6-1.8s1.2-1.2,1.8-1.8s1.2-1.3,2-1.8c0.7-0.6,1.4-1.2,2.2-1.8c0.4-0.3,0.7-0.6,1.1-0.9c0.4-0.3,0.8-0.6,1.2-0.8
				c0.8-0.6,1.7-1.1,2.5-1.7c1.8-1,3.6-2.2,5.7-3c1-0.4,2-1,3.1-1.3c1.1-0.4,2.2-0.8,3.3-1.2c2.3-0.6,4.6-1.3,7.1-1.6
				c4.9-0.8,10.2-0.9,15.6,0.2l-0.4,0.2c1.2-6,3.6-12.1,7.1-17.8s8.2-11,13.8-15.5s12.2-8.1,19.5-10.4c7.2-2.3,15.2-2.9,23-1.9
				c12.6,1.8,23.9,8,32.3,16.1c8.5,8.1,14,18.4,16.3,28.6l-0.4-0.2c6.4-1.4,12.5-2.6,18.5-3.2c6-0.5,11.7-0.4,17,0.6
				c5.2,1,10.1,2.8,13.9,5.4c3.9,2.6,6.9,5.7,9.1,8.9c4.5,6.4,5.4,12.9,5,17c0,1-0.3,1.9-0.4,2.7s-0.4,1.4-0.6,1.9s-0.3,0.9-0.4,1.1
				C376,587.9,375.9,588.1,376,588L376,588z"/>
			<path class="st4" d="M471.2,33.7c0,0,6.1-14,6.4-16.2s-0.3-7.1-1.9-8.4s-3.6-1.6-5-0.7c0,0-0.2-3.1-3.3-3.7c-3.1-0.6-3,2.3-3,2.3
				s0.1-2.1-2.1-2.7c-1.1-0.3-2.4,0.4-2.4,0.4s-3-2.7-5-1c-2,1.6,0.3,27.2,0.3,27.2L471.2,33.7z"/>
			<path class="st5" d="M454.8,28c0,0-5.5-9.4-5.4-11.9s3.1-8.3,4.8-9.1c1.7-0.7,8.4-2.2,8.4-2.2s2.7,2.6-1.3,5.1l-4.7,2.6
				c0,0,7.5,2.5,7.3,10.1"/>
			<path class="st3" d="M463.8,22.6c-0.1,0,0-1.4-0.7-3.5c-0.4-1.1-1.1-2.3-2.2-3.4s-2.6-2.2-4.5-2.9l-0.6-0.2l0.6-0.3
				c1.5-0.8,3.1-1.8,4.8-2.7c0.8-0.5,1.5-1.2,1.8-2s0-1.8-0.7-2.5l0.3,0.1c-1.2,0.3-2.4,0.6-3.6,0.9c-1,0.2-1.9,0.5-2.8,0.7
				c-0.5,0.1-0.9,0.3-1.4,0.4c-0.2,0.1-0.4,0.1-0.6,0.2s-0.3,0.2-0.5,0.3c-1.2,1.2-2.1,2.9-2.9,4.4c-0.4,0.8-0.7,1.5-0.9,2.3
				c-0.2,0.8-0.4,1.5-0.3,2.2c0.3,1.4,0.9,2.7,1.4,3.9c1.1,2.4,2,4.2,2.7,5.5c0.7,1.3,1,2,1,2s-0.5-0.6-1.2-1.9s-1.8-3.1-2.9-5.4
				c-0.5-1.2-1.2-2.5-1.5-4c-0.2-0.9,0.1-1.7,0.3-2.5c0.2-0.8,0.5-1.6,0.9-2.4c0.7-1.6,1.6-3.2,3-4.6c0.2-0.2,0.4-0.3,0.7-0.5
				c0.2-0.1,0.5-0.2,0.7-0.3c0.5-0.2,0.9-0.3,1.4-0.4c0.9-0.3,1.9-0.5,2.9-0.7c1.2-0.3,2.5-0.6,3.6-0.9h0.2l0.1,0.1
				c0.8,0.8,1.3,2.1,0.8,3.3c-0.4,1.1-1.3,1.8-2.1,2.4c-1.7,0.9-3.3,1.8-4.8,2.7l-0.1-0.6c1.9,0.8,3.5,1.9,4.6,3.1s1.8,2.5,2.2,3.7
				c0.2,0.6,0.3,1.1,0.3,1.5c0.1,0.5,0.1,0.8,0.1,1.2C463.9,22.3,463.9,22.7,463.8,22.6L463.8,22.6z"/>
			<path class="st5" d="M463.8,7.2c-0.8,2.7-1,5.6-0.8,8.4c0.1,1,0.2,2,0.9,2.7c0.6,0.7,1.6,0.9,2.5,0.7c0.9-0.2,1.7-0.7,2.3-1.3"/>
			<path class="st3" d="M468.8,17.6c0.1,0-0.4,1-2,1.5c-0.8,0.2-1.9,0.3-2.8-0.4c-1-0.7-1.2-2-1.3-3.2c-0.4-4.7,1-8.4,1.2-8.3
				c0.2,0-0.8,3.7-0.4,8.3c0.1,1.1,0.3,2.2,1,2.7s1.6,0.6,2.3,0.5C468,18.3,468.7,17.5,468.8,17.6L468.8,17.6z"/>
			<path class="st5" d="M457.8,12.2c-0.5,1.2-0.3,1.8-0.2,3.1c0.1,1.3,0.9,2.7,2.1,3c1.1,0.3,2.4-1.2,3.1-2.6"/>
			<path class="st3" d="M462.8,15.6c0.1,0,0,0.7-0.7,1.6c-0.3,0.4-0.7,0.9-1.5,1.3c-0.3,0.2-0.9,0.2-1.3,0.1s-0.8-0.4-1.1-0.7
				c-0.6-0.6-0.9-1.4-1-2.2c-0.1-0.7-0.1-1.3-0.1-1.8c0.1-1.1,0.5-1.7,0.6-1.6c0.1,0-0.1,0.7-0.1,1.6c0.1,0.6,0.1,1.2,0.2,1.7
				c0.1,0.6,0.4,1.3,0.9,1.7c0.2,0.2,0.5,0.4,0.8,0.5s0.5,0.1,0.8,0c0.5-0.2,1-0.6,1.3-1C462.4,16.1,462.7,15.6,462.8,15.6
				L462.8,15.6z"/>
			<path class="st5" d="M471.2,8.5c-1.5,1.7-2.7,3.7-3.2,5.9c-0.3,1.1-0.4,2.5,0.5,3.3s2.4,0.5,3.5-0.1c1.6-1,2.7-2.7,3.1-4.5"/>
			<path class="st3" d="M475,13.1c0.1,0,0.1,1.2-0.9,2.8c-0.5,0.8-1.3,1.6-2.4,2.2c-0.6,0.3-1.2,0.5-1.9,0.5c-0.7,0-1.5-0.3-2-1
				c-0.4-0.7-0.5-1.5-0.4-2.1c0.1-0.7,0.3-1.3,0.5-1.9c0.4-1.1,0.9-2.1,1.4-2.9c1-1.5,1.9-2.2,1.9-2.2c0.1,0.1-0.7,0.9-1.5,2.4
				c-0.4,0.8-0.9,1.7-1.2,2.8c-0.2,0.6-0.3,1.1-0.4,1.7c-0.1,0.6,0,1.2,0.3,1.7c0.6,1,2.1,0.8,3,0.3c1-0.5,1.7-1.2,2.2-1.9
				C474.7,14.2,474.9,13,475,13.1L475,13.1z"/>
			<path class="st1" d="M395.4,123.7c0,0,7.6-8.2,10.6-10s22.7-25.3,24.8-31.5c2.1-6.2,21.4-56.5,21-55.8
				c-0.3,0.6,24.5,5.2,24.5,5.2S457.8,89.5,455.5,96c-4.1,11.8-24.3,35.8-35.8,50.2c-4.9,6.1-11.7,25.7-11.7,25.7L395.4,123.7
				L395.4,123.7z"/>
			<path class="st3" d="M413.5,154.4c-0.1,0-0.4-1.7-0.7-4.5c-0.3-2.8-0.6-6.6-0.7-10.9c-0.1-4.3,0.1-8.1,0.3-10.9
				c0.2-2.8,0.5-4.5,0.6-4.5s0,1.7-0.1,4.5s-0.2,6.6-0.1,10.9c0.1,4.3,0.3,8.1,0.5,10.9C413.4,152.7,413.6,154.4,413.5,154.4
				L413.5,154.4z"/>
			<path class="st3" d="M288.7,445.7L278,467.4l-1.4,5.3c0,0,7.1,32.2,2.7,35.4L247.7,457l8.2-5.1l10.1-21.7L288.7,445.7
				L288.7,445.7z"/>
			<path class="st3" d="M247.7,457l4-2.3l28.9,49.8c0,0,0.5,2.9-1.2,3.5L247.7,457L247.7,457z"/>
			<path class="st3" d="M277.4,473.4c-0.2,0.1-1.1-1-2.6-1.8s-2.9-0.8-3-1.1c-0.1-0.3,1.5-0.8,3.4,0.2
				C277,471.6,277.7,473.3,277.4,473.4z"/>
			<path class="st3" d="M278.6,480.1c-0.2,0.2-1.3-0.6-2.8-0.9s-2.7,0.2-2.9-0.1c-0.2-0.2,1.1-1.2,3-0.9
				C277.9,478.5,278.9,479.9,278.6,480.1z"/>
			<path class="st3" d="M274.5,486.9c-0.2-0.2,0.8-1.3,2.5-1.4c1.7-0.2,2.9,0.7,2.8,0.9c-0.1,0.3-1.3-0.1-2.7,0.1
				C275.7,486.6,274.6,487.1,274.5,486.9L274.5,486.9z"/>
			<path class="st3" d="M397.2,286.3c-1,2.5-54.5,84.2-65.4,93.3c-11,9.1-48.4,83.6-48.4,83.6s-30.6-14.8-31.3-13.2
				s21.4-52.6,34.6-74.9c13.2-22.3,19.4-30.9,19.4-30.9l26.3-70c0,0,0.5-23,3.9-32s13.3-16.8,13.3-16.8L397.2,286.3L397.2,286.3z"/>
			<path class="st3" d="M349,385.1l-28.4,2c0,0-7.3,31.1-12.5,32l-6.2-57.9l44.1-5.1L349,385.1L349,385.1z"/>
			<path class="st6" d="M321.1,368.9c-0.4-1.1-1.7-1.7-2.7-1.4c-1,0.4-1.7,1.7-1.3,2.8c0.4,1.1,1.9,1.9,2.9,1.4s1.6-2.1,1-3.1"/>
			<path class="st3" d="M301.9,361.2l4.5-0.3l4.3,55.7c0,0-0.8,2.7-2.5,2.6L301.9,361.2L301.9,361.2z"/>
			<path class="st3" d="M321,388c-0.3,0-0.5-1.4-1.6-2.7c-1-1.3-2.2-1.9-2.1-2.2c0-0.3,1.7,0,2.9,1.6
				C321.4,386.3,321.3,388.1,321,388z"/>
			<path class="st3" d="M319.3,394.4c-0.3,0.1-0.8-1.1-2.1-1.9c-1.2-0.9-2.5-1-2.5-1.3c-0.1-0.3,1.5-0.6,3,0.4
				C319.2,392.7,319.5,394.3,319.3,394.4z"/>
			<path class="st3" d="M312.8,398.6c-0.1-0.2,1.2-0.8,2.8-0.2c1.5,0.6,2.3,1.8,2.1,2c-0.2,0.2-1.1-0.6-2.4-1
				C314,398.8,312.8,398.8,312.8,398.6L312.8,398.6z"/>
			<path class="st3" d="M327.4,386.8c-0.3-0.1,0-1.4-0.3-3c-0.2-1.6-0.9-2.8-0.7-3c0.2-0.2,1.3,0.9,1.6,2.8
				C328.4,385.5,327.7,386.9,327.4,386.8L327.4,386.8z"/>
			<path class="st3" d="M324.2,264.9c0,0-0.1,27.2,12.3,36.4c12.4,9.2,55.3,43.8,55.3,43.8l-68.5,11.7l5.1,31.7
				c0,0,92.5-9.3,103.8-13.1c11.3-3.8,19.5-22.9,10.6-36.2c-4.4-6.7-50.5-72.1-50.5-72.1l-1.4-17.6l-58,3.7L324.2,264.9L324.2,264.9
				z"/>
			<path class="st3" d="M328.4,388.5c0,0-0.1-0.2-0.1-0.6c-0.1-0.4-0.2-1-0.3-1.6c-0.3-1.5-0.6-3.6-1.1-6.3
				c-0.9-5.5-2.2-13.4-3.9-23.2v-0.3h0.3c16.5-2.8,38.4-6.6,62.5-10.8c2-0.3,4.1-0.7,5.9-1l-0.2,0.6c-9.6-8-18.8-15.5-27.2-22.2
				c-4.2-3.4-8.2-6.5-11.9-9.5c-3.7-2.9-7.3-5.6-10.3-8.4c-6-5.5-9.9-10.8-12.2-14.6c-1.2-1.9-2-3.5-2.5-4.5c-0.3-0.5-0.4-1-0.5-1.2
				c-0.1-0.3-0.2-0.4-0.1-0.4c0,0,0.1,0.1,0.2,0.4s0.3,0.7,0.6,1.2c0.5,1,1.4,2.6,2.6,4.5c2.4,3.8,6.4,9,12.3,14.4
				c3,2.7,6.5,5.3,10.3,8.3c3.8,2.9,7.8,6.1,12,9.4c8.4,6.7,17.6,14.2,27.3,22.2l0.6,0.5l-0.8,0.1c-1.9,0.3-3.9,0.7-5.9,1
				c-24.1,4.1-46.1,7.8-62.6,10.6l0.2-0.3c1.5,9.8,2.8,17.7,3.6,23.2c0.4,2.7,0.7,4.8,1,6.3c0.1,0.7,0.2,1.2,0.2,1.7
				C328.4,388.3,328.4,388.5,328.4,388.5L328.4,388.5z"/>
			<path class="st3" d="M410.2,347.1c-0.1,0.2-4.1-1-9.2-1.5c-5.1-0.6-9.3-0.2-9.3-0.5c0-0.1,1-0.3,2.7-0.4s4-0.1,6.6,0.1
				c2.6,0.3,4.9,0.8,6.5,1.2C409.3,346.6,410.2,347,410.2,347.1L410.2,347.1z"/>
			<path class="st3" d="M367.9,36.3c0.8-2.5,3.3-4.4,5.9-4.4c2.6-2.9,7.2-3.7,10.6-1.7c2-1.8,5-2.3,7.5-1.5s4.6,3.1,5.1,5.7
				c2.5-0.9,5.6,0,7.3,2.2c1.7,2.1,1.8,5.4,0.3,7.6c3,0.4,5.5,3.4,5.4,6.4c-0.1,3.1-2.8,5.8-5.8,6l-33.8-13.3
				C368.2,41.8,367.2,38.9,367.9,36.3L367.9,36.3z"/>
			<path class="st7" d="M405.2,57.3C401.7,44,388.5,35.6,375,38l-1.3,0.2C359.3,41.7,357.2,56,361,70.3l11.1,53.8l26.7,15.8
				l3.2-11.8v-19.2c0,0,13.5-4.7,11.2-18.8C412,83.5,408.5,69.7,405.2,57.3L405.2,57.3z"/>
			<path class="st3" d="M402.1,109c0,0-9.7,2.4-20.1-1.9c0,0,6.4,9.9,20,6.1L402.1,109L402.1,109z"/>
			<path class="st3" d="M403.5,70.5c0.2,1-0.5,2.1-1.6,2.4s-2.1-0.4-2.4-1.4c-0.2-1,0.5-2.1,1.5-2.4
				C402.2,68.8,403.3,69.5,403.5,70.5L403.5,70.5z"/>
			<path class="st3" d="M403.8,65.4c-0.2,0.3-1.9-0.5-4.1-0.1c-2.1,0.4-3.5,1.8-3.8,1.5c-0.1-0.1,0-0.6,0.6-1.2s1.6-1.3,3-1.5
				c1.3-0.2,2.5,0.1,3.3,0.4C403.6,64.8,403.9,65.3,403.8,65.4z"/>
			<path class="st3" d="M384.8,74.7c0.2,1-0.5,2.1-1.5,2.4c-1.1,0.3-2.1-0.4-2.4-1.4c-0.2-1,0.5-2.1,1.5-2.4
				C383.5,73,384.6,73.7,384.8,74.7L384.8,74.7z"/>
			<path class="st3" d="M383.2,68.8c-0.2,0.3-1.9-0.5-4-0.1s-3.5,1.8-3.8,1.5c-0.1-0.1,0-0.6,0.6-1.2s1.6-1.3,3-1.5
				c1.3-0.2,2.5,0.1,3.3,0.4C383,68.3,383.3,68.7,383.2,68.8L383.2,68.8z"/>
			<path class="st3" d="M393.2,83.5c0-0.1,1.3-0.6,3.4-1.3c0.5-0.2,1-0.4,1.1-0.7c0.1-0.4-0.3-1-0.7-1.6c-0.8-1.2-1.5-2.5-2.4-3.9
				c-3.3-5.6-5.8-10.2-5.6-10.3c0.2-0.1,3.1,4.3,6.4,9.8c0.8,1.4,1.6,2.7,2.3,3.9c0.3,0.6,0.8,1.2,0.7,2.1c-0.1,0.4-0.4,0.8-0.8,1
				c-0.3,0.2-0.6,0.2-0.9,0.3C394.5,83.4,393.2,83.6,393.2,83.5L393.2,83.5z"/>
			<path class="st3" d="M387.1,86.1c0.3-0.1,0.8,2.3,3.1,3.6c2.3,1.3,4.7,0.6,4.8,0.9c0.1,0.1-0.5,0.6-1.5,0.8c-1,0.2-2.6,0.2-4-0.6
				c-1.4-0.8-2.2-2.1-2.4-3C386.8,86.8,387,86.1,387.1,86.1z"/>
			<path class="st3" d="M382.1,62.7c-0.2,0.6-2.1,0.4-4.3,0.9c-2.2,0.4-4,1.2-4.3,0.7c-0.1-0.2,0.1-0.8,0.8-1.4
				c0.7-0.6,1.8-1.2,3.2-1.5c1.3-0.2,2.6-0.1,3.4,0.3C381.8,62,382.2,62.4,382.1,62.7L382.1,62.7z"/>
			<path class="st3" d="M402.2,59.6c-0.2,0.6-1.8,0.5-3.6,0.9c-1.8,0.4-3.1,1.2-3.6,0.8c-0.2-0.2-0.1-0.7,0.4-1.4
				c0.5-0.6,1.5-1.3,2.7-1.6s2.4-0.1,3.1,0.2C402,58.9,402.3,59.3,402.2,59.6L402.2,59.6z"/>
			<path class="st3" d="M402.7,51.1c0,0-5.3-8.1-9.9-9.4c-5.5-1.6-6.7,4.5-11.8,4c-5.1-0.5-10.4-2-14.7,2.7
				c-4.7,5.1-1.6,7.5-0.8,13.8c3.2,25.4-0.1,33.4-3.5,21.8c-0.4-1.3-4.2-1.7-5.7-7.1c-2-7-3.8-15.6-3.2-20.9
				c0.6-4.5,2.4-7.9,6.2-11.9c5.9-6.4,15.3-8.2,21.8-8.7C387.7,34.9,401.3,40,402.7,51.1L402.7,51.1z"/>
			<path class="st7" d="M364.6,83.2c-0.5-2.1-2.6-3.5-4.8-2.9c-2.6,0.7-5.2,2.7-4,8.1c2,9.5,11.1,5.5,11.1,5.2
				C366.9,93.4,365.5,87.1,364.6,83.2z"/>
			<path class="st3" d="M364.1,90.4c0,0-0.1,0.1-0.4,0.3c-0.2,0.2-0.7,0.4-1.2,0.3c-1.1-0.2-2.3-1.6-2.7-3.3c-0.2-0.9-0.2-1.7,0-2.5
				c0.1-0.8,0.5-1.3,1-1.5s0.9,0,1.1,0.2s0.2,0.4,0.2,0.4s0.2-0.2,0-0.6c-0.1-0.2-0.2-0.4-0.5-0.5s-0.6-0.2-1,0
				c-0.7,0.2-1.2,1-1.4,1.8c-0.2,0.8-0.2,1.8,0,2.8c0.5,1.9,1.8,3.5,3.3,3.6c0.7,0,1.2-0.3,1.5-0.6
				C364.1,90.7,364.1,90.5,364.1,90.4L364.1,90.4z"/>
			<path class="st3" d="M359.7,64.9c1.4,0.6,2.9,1.3,4.4,1.1c1.5-0.1,3.1-1.3,3-2.8c0-0.7-0.3-1.4,0-2c0.4-0.7,1.4-0.7,2.2-0.7
				c2.8-0.2,5.3-2.7,5.5-5.5c0.9,0.9,2.5,0.6,3.5-0.3c0.9-0.9,1.4-2.1,2.1-3.3c0.7-1.1,1.7-2.2,3-2.2c0.7,0,1.5,0.3,2.2,0.1
				c1.2-0.3,1.6-1.9,1.5-3.2c0-1.3-0.2-2.8,0.8-3.6c0.9-0.8,2.2-0.7,3.4-0.7c1.2,0,2.6-0.6,2.7-1.8c0-0.6-0.3-1.2-0.7-1.7
				c-1.9-2.1-5.3-2.5-7.7-1c-1.5-3-4.9-4.9-8.2-4.7c-3.3,0.2-6.4,2.7-7.4,5.8c-2.4-1.5-5.4-1.7-8-0.6c-2.5,1.1-4.5,3.5-5.1,6.2
				c-2.4-0.2-4.9,1.2-6,3.4s-0.8,5,0.7,6.9c-1.5,1.3-2.7,3.3-2.4,5.3c0.3,2,2.6,3.6,4.4,2.7c-0.5,1.7,0.5,3.7,2.2,4.3
				c1.6,0.6,3.7-0.3,4.3-1.9"/>
			<path class="st3" d="M352.9,62.3c0,0,0,0.8,0.9,1.7c0.5,0.4,1.2,0.8,2.1,0.8s1.9-0.4,2.6-1.3h-0.4c0.6,0.7,1.4,1.5,2.3,2
				c0.6,0.4,1.2,0.7,1.9,0.8c0.7,0.1,1.4,0,2-0.2c1.2-0.4,2.1-1.2,2.5-2.1s0.4-1.6,0.4-2.1s0-0.8-0.1-0.8c0,0-0.1,0.3-0.1,0.8
				c-0.1,0.5-0.2,1.2-0.5,2c-0.7,1.5-3.5,2.8-5.7,1.2c-0.9-0.5-1.6-1.2-2.2-1.9l-0.2-0.3l-0.2,0.3c-0.5,0.7-1.4,1.1-2.2,1.2
				c-0.8,0-1.4-0.3-1.9-0.6C353.1,63,353,62.3,352.9,62.3L352.9,62.3z"/>
			<path class="st3" d="M366.9,37.1c0,0,0.3,0,0.7,0.1c0.4,0.1,1.1,0.4,1.7,1l0.1,0.2l0.1-0.2c0.7-1.4,1.9-3.2,3.9-4.6
				c1-0.7,2.2-1.3,3.6-1.5c1.4-0.3,2.9-0.1,4.2,0.4c1.1,0.4,2.1,1.1,2.8,1.9c0.8,0.8,1.3,1.7,1.6,2.7l0.1,0.3l0.3-0.1
				c1.4-0.7,2.9-0.6,4.1-0.2c1.2,0.4,2.1,1.2,2.6,1.9c1.1,1.5,1,2.8,1.1,2.7c0,0,0.1-0.3,0-0.8s-0.3-1.3-0.8-2.1s-1.4-1.7-2.7-2.2
				c-1.3-0.5-2.9-0.5-4.4,0.2l0.4,0.2c-0.3-1.1-0.9-2.1-1.7-2.9c-0.8-0.9-1.9-1.5-3-2c-1.5-0.6-3.1-0.7-4.5-0.4
				c-1.5,0.3-2.7,0.9-3.8,1.6c-2.1,1.5-3.3,3.4-3.9,4.9h0.2c-0.7-0.7-1.4-0.9-1.9-1C367.2,37.1,366.9,37.1,366.9,37.1L366.9,37.1z"
				/>
			<path class="st7" d="M382.8,269.8c1.3,0.1,5.9,1.7,11.8-9.2c5.9-10.9,11.6-51.2,11.6-51.2L382.8,269.8L382.8,269.8z"/>
			<path class="st7" d="M408.3,193.8l0.7-39l-7.8-29.9c0,0-5.5-8.6-11.5-13c-7.1-5.2-13-6.4-13-6.4l-9-2.2l-1,7.4l26.1,29.9
				L408.3,193.8L408.3,193.8z"/>
			<path class="st1" d="M366.3,105.7c0,0,22,2.2,32.4,28.1c5.6,13.9,9,51.3,9.6,57.1c0.7,5.8-1.5,19.2-5.5,37.3
				c-0.8,3.5-3.6,12.7-11.2,35.1c-8.2,23.9-14.7,41.5-14.7,41.5l-68.7-26.6l34.2-59.9c0,0-1.8-18.4-1.7-20.2
				c0.7-13.7-2-21.4,2.5-47.8c1.4-7.9,4.1-15.4,8.2-22.3c4.3-7.3,7.5-9.4,14.9-14.9L366.3,105.7L366.3,105.7z"/>
			<path class="st1" d="M374.2,269.6l1.8-14.5l-32.7-13.3l-6,13.8L374.2,269.6z"/>
			<path class="st3" d="M374.2,269.6c0,0-0.3-0.1-0.7-0.3c-0.5-0.2-1.2-0.5-2.1-0.8c-1.9-0.7-4.5-1.8-7.7-3
				c-6.6-2.5-15.7-6-26.2-10.1l0.2,0.5c1.6-3.7,3.3-7.7,5.1-11.7c0.3-0.7,0.6-1.4,0.9-2.1l-0.5,0.2c12.9,5.2,24.4,9.8,32.8,13.2
				l-0.2-0.3c-0.5,4.4-0.9,8-1.2,10.5c-0.1,1.2-0.2,2.2-0.3,2.9C374.2,269.2,374.2,269.6,374.2,269.6s0.1-0.3,0.2-0.9
				c0.1-0.7,0.2-1.7,0.4-2.8c0.4-2.6,0.9-6.2,1.5-10.7V255l-0.2-0.1c-8.3-3.4-19.9-8.1-32.7-13.4l-0.3-0.1l-0.1,0.3
				c-0.3,0.7-0.6,1.4-0.9,2.1c-1.8,4.1-3.5,8-5.1,11.7l-0.1,0.4l0.4,0.1c10.7,3.9,19.9,7.4,26.6,9.8c3.2,1.2,5.8,2.1,7.7,2.8
				c0.8,0.3,1.5,0.5,2,0.7C374,269.6,374.2,269.7,374.2,269.6L374.2,269.6z"/>
			<path class="st3" d="M401.3,233c0,0,0,0.1-0.1,0.4c-0.1,0.3-0.2,0.6-0.3,1.1c-0.3,1-0.8,2.4-1.3,4.1c-1.2,3.6-2.9,8.8-5.1,15.2
				c-4.4,12.9-10.4,30.5-17,50c-0.1,0.4-0.2,0.7-0.4,1.1l-0.1,0.4l-0.4-0.1c-19-7.4-36.1-14-48.6-18.9c-6.2-2.4-11.1-4.4-14.6-5.8
				c-1.7-0.7-3-1.2-4-1.6c-0.4-0.2-0.8-0.3-1-0.4s-0.3-0.2-0.3-0.2s0.1,0,0.4,0.1s0.6,0.2,1,0.4c1,0.4,2.3,0.9,4,1.5
				c3.5,1.3,8.5,3.2,14.7,5.6c12.5,4.8,29.6,11.4,48.6,18.7l-0.5,0.2c0.1-0.3,0.2-0.7,0.4-1.1c6.7-19.5,12.8-37.1,17.2-50
				c2.2-6.3,4-11.5,5.3-15.1c0.6-1.7,1.1-3.1,1.5-4.1c0.2-0.4,0.3-0.8,0.4-1.1C401.3,233.1,401.3,233,401.3,233z"/>
			<path class="st8" d="M300.4,309.5c0,0,8.1-26.4,15-28.2c6.9-1.8,16-2.1,17.7,2.4c1.6,4.5,2.9,11.1,2.6,17.7s-2.7,16.4-2.7,16.4
				l-7.1-2.2c0,0,5.5-26.8,4.1-31.2c-1.4-4.4-13.1-3.3-15.3,1.2c-2.1,4.6-8.9,25.6-8.9,25.6L300.4,309.5z"/>
			<path class="st8" d="M268,342.8c2.5-11.1,8.2-35.4,10.8-46.1c0.7-2.9,3.6-4.8,6.5-4.2l66.2,13.1c3,0.6,4.9,3.4,4.4,6.4l-7.5,46
				c-0.5,3.1-3.5,5.2-6.5,4.6l-69.5-13C269.3,348.9,267.3,345.9,268,342.8L268,342.8z"/>
			<path class="st3" d="M349.1,322.5c0,0,0,0.2-0.1,0.5c-0.1,0.4-0.2,0.8-0.3,1.5c-0.3,1.3-0.6,3.2-1.1,5.7c-1,5-2.4,12.2-4.2,21.1
				c-0.1,0.6-0.2,1.1-0.3,1.7c-0.1,0.6-0.3,1.2-0.7,1.7c-0.4,0.5-1,0.8-1.6,1s-1.3,0-1.9-0.1c-2.4-0.5-5-1-7.6-1.5
				c-5.2-1-10.8-2.1-16.7-3.2c-5.9-1.1-12.1-2.3-18.5-3.6c-3.2-0.6-6.5-1.3-9.8-1.9c-1.7-0.3-3.3-0.6-5-1l-1.3-0.2
				c-0.4-0.1-0.9-0.1-1.3-0.3c-0.9-0.4-1.5-1.2-1.8-2.1c-0.1-0.4-0.1-0.8-0.1-1.2c0.1-0.4,0.1-0.7,0.2-1.1c0.2-0.7,0.3-1.4,0.5-2.2
				c0.3-1.4,0.6-2.9,0.9-4.3c0.6-2.8,1.2-5.6,1.8-8.4c1.2-5.5,2.3-10.8,3.4-15.9l0.1-0.2l0.2,0.1c18.8,4.8,35.1,8.3,46.6,10.5
				c5.8,1.1,10.4,2,13.5,2.6c1.6,0.3,2.8,0.5,3.6,0.7c0.4,0.1,0.7,0.1,0.9,0.2C349,322.5,349.1,322.5,349.1,322.5s-0.1,0-0.3,0
				c-0.2,0-0.5-0.1-0.9-0.1c-0.8-0.1-2-0.3-3.6-0.6c-3.2-0.5-7.8-1.3-13.5-2.4c-11.6-2.2-27.9-5.6-46.7-10.3l0.3-0.2
				c-1.1,5.1-2.2,10.4-3.4,15.9c-0.6,2.8-1.2,5.6-1.8,8.4c-0.3,1.4-0.6,2.9-0.9,4.3c-0.2,0.7-0.3,1.4-0.5,2.2
				c-0.2,0.7-0.4,1.4-0.2,2.1c0.2,0.8,0.7,1.4,1.5,1.7c0.3,0.2,0.8,0.2,1.2,0.3l1.3,0.2c1.7,0.3,3.3,0.7,5,1
				c3.3,0.6,6.6,1.3,9.8,1.9c6.4,1.2,12.6,2.5,18.5,3.6c5.9,1.2,11.5,2.3,16.7,3.3c2.6,0.5,5.1,1,7.6,1.5c0.6,0.1,1.2,0.2,1.7,0.1
				c0.6-0.1,1-0.4,1.4-0.9c0.4-0.4,0.6-0.9,0.7-1.5s0.2-1.1,0.3-1.7c1.8-8.8,3.3-16,4.3-21c0.5-2.5,0.9-4.4,1.2-5.7
				c0.1-0.6,0.2-1.1,0.3-1.5C349,322.7,349.1,322.5,349.1,322.5L349.1,322.5z"/>
			<path class="st3" d="M324.4,348.2c0,0,0.4,0.1,1.2,0.1c0.8,0,2-0.2,3.2-1s2.3-2.4,2.5-4.5c0.4-2.1,0.9-4.4,1.4-7.1
				c0.3-1.3,0.5-2.7,0.8-4.1c0.4-1.4,0.3-2.9-0.4-4.3c-0.7-1.3-2-2.4-3.5-2.8c-1.6-0.4-3.3-0.7-5-1c-6.9-1.4-14.5-2.9-22.5-4.5
				c-1.9-0.4-4,0.3-5.2,1.7c-0.6,0.7-1.1,1.6-1.3,2.5c-0.2,1-0.4,1.9-0.6,2.8c-0.4,1.9-0.8,3.7-1.1,5.5c-0.2,0.9-0.4,1.8-0.5,2.7
				c-0.2,0.9-0.4,1.8-0.5,2.6c-0.1,1.7,0.6,3.4,1.8,4.4c0.6,0.5,1.3,0.9,2,1.2c0.7,0.2,1.5,0.3,2.3,0.5c3.1,0.6,5.9,1.2,8.5,1.8
				c5.2,1.1,9.4,2,12.4,2.6c1.4,0.3,2.6,0.6,3.4,0.7c0.4,0.1,0.6,0.1,0.9,0.2C324.3,348.2,324.4,348.2,324.4,348.2s-0.1,0-0.3,0
				c-0.2,0-0.5-0.1-0.9-0.2c-0.8-0.1-1.9-0.4-3.4-0.6c-3-0.6-7.2-1.4-12.4-2.4c-2.6-0.5-5.5-1.1-8.5-1.7c-0.8-0.2-1.5-0.3-2.4-0.5
				c-0.8-0.3-1.6-0.7-2.2-1.3c-1.3-1.2-2.1-2.9-2-4.8c0.1-0.9,0.3-1.8,0.5-2.7c0.2-0.9,0.4-1.8,0.5-2.7c0.4-1.8,0.7-3.7,1.1-5.5
				c0.2-0.9,0.4-1.9,0.6-2.9s0.7-1.9,1.4-2.7c1.4-1.6,3.6-2.3,5.7-1.9c8,1.6,15.6,3.1,22.5,4.5c1.7,0.4,3.4,0.7,5.1,1
				c1.7,0.4,3.1,1.6,3.8,3.1c0.8,1.4,0.8,3.1,0.4,4.5c-0.3,1.4-0.6,2.8-0.8,4.1c-0.5,2.6-1,5-1.5,7c-0.1,0.5-0.2,1-0.4,1.5
				c-0.2,0.5-0.4,0.9-0.6,1.3c-0.5,0.8-1.1,1.4-1.7,1.8c-1.3,0.8-2.5,1-3.3,1C324.8,348.4,324.4,348.2,324.4,348.2L324.4,348.2z"/>
			<g>
				<path class="st3" d="M278.5,343.6c18.5,9.7,39.9,13.9,60.6,11.8L278.5,343.6z"/>
			</g>
			<path class="st9" d="M320.1,329.8l-7.8-1.6c-1.2-0.2-2-1.4-1.8-2.7c0.2-1.2,1.4-2,2.7-1.8l7.8,1.6c1.2,0.2,2,1.4,1.8,2.7
				C322.5,329.2,321.3,330,320.1,329.8z"/>
			<path class="st7" d="M332.5,275.4c0,0,2,3.1,2.5,5s0.2,9.4,0.2,9.4s-1.6,0.8-3-3.6c-1.3-4.4-1.5-6.5-1.5-6.5L332.5,275.4
				L332.5,275.4z"/>
			<path class="st7" d="M332.3,289.4l0.3-13.8l-5.3-10.2l-16.9-0.3l-0.6,16.8c0,0,2.5,7.2,3.7,8.5c1.2,1.4,3.6,0.4,3.6,0.4
				c1.3,2,4.8,1.3,4.8,1.3c1.7,2,4.4,0.1,4.4,0.1s2.4,2.2,3.4,2c0.4,0,0.8-0.3,1.1-0.7C331.8,292.3,332.3,290.8,332.3,289.4
				L332.3,289.4z"/>
			<path class="st3" d="M315.7,287.1c0.2-0.1,0.6,0.7,0.9,1.7s0.5,1.8,0.3,1.8c-0.2,0.1-0.6-0.7-0.9-1.7
				C315.7,288,315.5,287.1,315.7,287.1z"/>
			<path class="st3" d="M320.1,286.9c0.2,0,0.5,1.2,0.9,2.6s0.8,2.6,0.7,2.6c-0.1,0.1-0.8-1-1.2-2.5
				C320,288.1,319.9,286.9,320.1,286.9L320.1,286.9z"/>
			<path class="st3" d="M325.1,287.3c0.2,0,0.3,1.1,0.6,2.3c0.2,1.3,0.5,2.3,0.3,2.4c-0.1,0.1-0.7-0.9-0.9-2.3
				C324.8,288.4,324.9,287.3,325.1,287.3L325.1,287.3z"/>
			<path class="st3" d="M332.4,279.9c0.2,0,0.3,2.4,0.2,5.3c0,2.9-0.2,5.2-0.4,5.2c-0.2,0-0.3-2.4-0.2-5.3
				C332.1,282.2,332.3,279.9,332.4,279.9z"/>
			<path class="st3" d="M315.5,284.3c0.1,0.1-0.1,0.3-0.4,0.4c-0.3,0.2-0.8,0.3-1.3,0.2c-0.5-0.1-0.9-0.4-1.1-0.7
				c-0.2-0.3-0.2-0.5-0.1-0.6s0.6,0.5,1.4,0.7C314.7,284.5,315.4,284.2,315.5,284.3L315.5,284.3z"/>
			<path class="st3" d="M320.6,285.1c0,0.1-0.1,0.3-0.4,0.4c-0.3,0.2-0.9,0.3-1.4,0.1s-1-0.4-1.3-0.7c-0.2-0.3-0.3-0.5-0.2-0.6
				c0.1-0.1,0.7,0.5,1.6,0.7C319.7,285.3,320.5,285,320.6,285.1L320.6,285.1z"/>
			<path class="st3" d="M330.4,284.1c0.1-0.1,0.4,0.4,0,1c-0.4,0.5-1.2,0.9-2.1,1s-1.7-0.2-2.2-0.5s-0.7-0.6-0.6-0.7
				s1.2,0.7,2.8,0.6c0.8-0.1,1.5-0.4,1.8-0.7C330.4,284.5,330.3,284.1,330.4,284.1L330.4,284.1z"/>
			<path class="st1" d="M383,154c-6.7,6.9-47.9,47.4-47.9,47.4s-2.4,65.4-3.6,65.7s-24.9-1.7-24.9-1.7s-3.3-69.4-0.6-77.3
				c2.8-7.9,38.1-54.2,38.9-55.1c0.8-1,4.8-8,18.3-11.5c15.8-4.1,22.5,3.5,25.1,11.3c2.3,6.7-2.1,17.1-4.2,19.9
				C383.8,153.2,383.4,153.6,383,154L383,154z"/>
			<path class="st3" d="M383,154c0,0,0.2-0.3,0.6-0.8s1-1.3,1.5-2.4c1.1-2.2,2.6-5.7,3.4-10.4c0.3-2.3,0.5-5.1-0.5-7.8
				s-2.5-5.6-5-7.8c-1.2-1.2-2.7-2.1-4.4-2.8c-1.6-0.7-3.5-1.1-5.4-1.3c-3.8-0.3-7.9,0.4-12,1.6s-8.2,3.1-11.8,6
				c-1.8,1.5-3.3,3.2-4.7,5.3c-1.5,1.9-3,3.9-4.5,5.9c-6.1,8.1-12.5,16.7-19.1,25.9c-3.3,4.6-6.6,9.3-9.9,14.3
				c-1.6,2.5-3.3,5-4.6,7.7c-0.1,0.3-0.3,0.7-0.4,1l-0.2,1.1c-0.2,0.7-0.3,1.5-0.3,2.2l-0.2,2.3l-0.1,2.3
				c-0.4,12.3-0.1,25.1,0.3,38.1c0.3,10.6,0.7,21,1.2,31.1l-0.3-0.3c4.3,0.3,8.6,0.7,12.7,1c2.1,0.2,4.2,0.3,6.2,0.4
				c1,0.1,2.1,0.1,3.1,0.2l1.5,0.1h0.8h0.3c0,0,0.2-0.1,0,0.1c-0.1,0.1,0,0,0,0c0.4-1.9,0.5-4,0.7-6c0.1-2,0.3-4,0.4-6
				c0.2-3.9,0.4-7.8,0.6-11.6c0.8-15.2,1.3-29.3,1.8-41.9v-0.1l0.1-0.1c14.8-14.5,26.8-26.4,35.1-34.6c4.2-4.1,7.4-7.2,9.6-9.4
				c1.1-1.1,1.9-1.9,2.5-2.4C382.7,154.3,383.1,154,383,154c0,0-0.3,0.3-0.8,0.9c-0.6,0.6-1.4,1.4-2.5,2.5c-2.2,2.2-5.4,5.4-9.5,9.5
				c-8.3,8.2-20.2,20.1-34.9,34.7l0.1-0.2c-0.4,12.5-1,26.6-1.7,41.9c-0.2,3.8-0.4,7.7-0.6,11.6c-0.1,2-0.3,4-0.4,6
				c-0.2,2-0.2,4-0.7,6.1c-0.1,0.1,0,0.1-0.1,0.3c-0.1,0.1-0.3,0.2-0.3,0.1h-0.1h-0.4h-0.8l-1.5-0.1c-1-0.1-2.1-0.1-3.1-0.2
				c-2.1-0.1-4.2-0.3-6.3-0.4c-4.2-0.3-8.5-0.7-12.8-1h-0.3v-0.3c-0.5-10.1-0.9-20.5-1.2-31.1c-0.4-13.1-0.7-25.8-0.2-38.2l0.1-2.3
				l0.2-2.3c0.1-0.8,0.1-1.5,0.3-2.3l0.2-1.2c0.1-0.4,0.3-0.7,0.5-1.1c1.3-2.8,3-5.3,4.6-7.8c3.3-5,6.6-9.7,9.9-14.3
				c6.6-9.2,13.1-17.8,19.1-25.9c1.5-2,3-4,4.5-5.9c0.7-0.9,1.4-2,2.2-2.9c0.8-0.9,1.7-1.7,2.6-2.5c3.7-3,7.9-4.9,12-6.1
				s8.2-1.9,12.1-1.6c1.9,0.2,3.8,0.6,5.5,1.3c1.7,0.7,3.2,1.7,4.5,2.9c2.5,2.4,4.1,5.3,5,8c1,2.8,0.8,5.6,0.5,8
				c-0.8,4.8-2.3,8.2-3.5,10.4c-0.6,1.1-1.2,1.9-1.6,2.4C383.3,153.8,383.1,154.1,383,154L383,154z"/>
			<path class="st3" d="M406.5,184c0,0-0.1-0.3-0.3-0.8c-0.2-0.6-0.4-1.3-0.7-2.3c-0.6-2.1-1.4-4.9-2.4-8.5
				c-2-7.3-4.8-17.2-7.9-28.4v-0.2l0.1-0.1c0.8-1.2,1.6-2.5,2.4-3.8l0.6-1l0.3,0.6c-1.6-0.2-3.1-0.3-4.6-0.4h-0.2l-0.1-0.2
				c-0.9-2.7-1.8-5.3-2.9-7.7s-2.2-4.7-3.6-6.6s-3.4-3-5.2-4.1c-1.8-1-3.6-1.9-5.2-2.7c-3.3-1.5-5.9-2.6-7.8-3.4
				c-0.9-0.4-1.6-0.7-2.1-0.9c-0.5-0.2-0.7-0.3-0.7-0.3s0.3,0.1,0.8,0.2c0.5,0.2,1.2,0.4,2.2,0.8c1.9,0.7,4.6,1.7,7.9,3.2
				c1.6,0.8,3.4,1.6,5.3,2.6c1.8,1.1,3.9,2.2,5.5,4.2c1.5,2,2.6,4.3,3.7,6.7c1.1,2.4,2,5,2.9,7.7l-0.3-0.3c1.5,0.1,3,0.3,4.6,0.4
				l0.6,0.1l-0.3,0.5l-0.6,1c-0.8,1.3-1.7,2.6-2.4,3.8v-0.3c3,11.2,5.7,21.2,7.6,28.5c0.9,3.5,1.7,6.4,2.2,8.5
				c0.2,0.9,0.4,1.7,0.6,2.3C406.4,183.7,406.5,184,406.5,184L406.5,184z"/>
			<path class="st5" d="M401.6,142.3c-8.1,4.8-14.7,4.7-28.2,3.6c-9.4-0.8-17.6-3.5-27-3.8c-13.5-0.4-23.7,3.7-36,9.3l-9.1,10.8
				l17.1,5.2c0,0,16.4-9.3,37.4-8.2s40.6-4.6,47.6-9.9l2.4-6.6l-0.9-3.4L402,139L401.6,142.3L401.6,142.3z"/>
			<path class="st3" d="M401.6,142.3c0,0,0-0.3,0-0.9c0-0.6,0.1-1.4,0.2-2.5v-0.1h0.1c0.8,0.1,1.8,0.1,2.9,0.2h0.1v0.1
				c0.3,1,0.6,2.2,0.9,3.4l0,0l0,0c-0.7,1.9-1.5,4.2-2.3,6.6v0.1l0,0c-1.8,1.4-4.1,2.6-6.6,3.7c-2.5,1.1-5.3,2-8.3,2.9
				c-6,1.7-12.8,2.9-20.4,3.4c-3.8,0.2-7.7,0.3-11.7,0.1s-8.2-0.1-12.4,0.4c-4.2,0.5-8.5,1.4-12.8,2.7s-8.6,2.9-12.7,5.1l-0.1,0.1
				h-0.1c-3.2-1-6.6-2-10-3c-2.4-0.7-4.7-1.4-7.1-2.1l-0.5-0.2l0.4-0.4c3.1-3.7,6.1-7.2,9.1-10.7l0.1-0.1h0.1
				c6.1-2.8,12.1-5.3,18.1-7s12-2.4,17.7-2.3c5.7,0.1,11,1.2,15.9,2.1c4.9,0.9,9.4,1.6,13.6,1.9c4.2,0.3,7.9,0.6,11.2,0.5
				c3.3-0.1,6.1-0.6,8.3-1.2c2.2-0.7,3.8-1.4,4.9-2c0.5-0.3,0.9-0.5,1.2-0.6C401.5,142.4,401.7,142.3,401.6,142.3
				c0,0-0.1,0.1-0.4,0.3s-0.7,0.4-1.2,0.7c-1.1,0.6-2.7,1.4-4.9,2.1c-2.2,0.7-5,1.2-8.4,1.3c-3.3,0.1-7.1-0.1-11.3-0.4
				c-4.2-0.3-8.8-0.9-13.7-1.8c-4.9-0.9-10.1-1.9-15.8-2c-5.6-0.1-11.6,0.6-17.5,2.3c-6,1.7-11.9,4.3-18,7l0.1-0.1
				c-3,3.5-6,7.1-9.1,10.8l-0.2-0.6c2.3,0.7,4.7,1.4,7.1,2.1c3.4,1,6.8,2.1,10,3H318c4.2-2.2,8.5-3.8,12.8-5.1s8.7-2.2,12.9-2.7
				c4.3-0.5,8.5-0.5,12.5-0.4c4,0.2,7.9,0.1,11.7-0.1c7.5-0.5,14.3-1.7,20.3-3.3c3-0.8,5.7-1.8,8.2-2.8s4.7-2.2,6.6-3.5l-0.1,0.1
				c0.9-2.5,1.7-4.7,2.4-6.6v0.1c-0.3-1.3-0.6-2.4-0.9-3.5l0.1,0.1c-1.1-0.1-2.1-0.2-2.9-0.3l0.1-0.1c-0.1,1.1-0.2,1.9-0.3,2.5
				C401.7,142,401.7,142.3,401.6,142.3L401.6,142.3z"/>
			<path class="st3" d="M374.1,224.9c-0.1,0.2-6.2-1.8-13.8-4.5c-7.5-2.7-13.6-5-13.5-5.2s6.2,1.8,13.8,4.5
				C368.2,222.4,374.2,224.7,374.1,224.9z"/>
			<path class="st5" d="M66,507.7c31.7-0.4,57-27.2,56.6-59.8c-0.5-32.6-26.5-58.6-58.2-58.2S7.3,417,7.8,449.6
				C8.2,482.1,34.3,508.2,66,507.7z"/>
			<path class="st1" d="M68.5,443.5c-4.9-2-8.4-3.8-10.5-5.7c-0.2-0.2-0.4-0.3-0.6-0.6c-1.6-1.7-2.4-3.6-2.4-6.1
				c-0.1-4.4,3-9.6,11.2-9.7c6.9-0.1,11.3,2.3,13.6,3.6l2.5-7.4c-3.1-1.8-7.5-3.5-14-3.7l-0.1-10.7h-1.4l-5.3,0.1l0.1,5.6l0.1,5.6
				c-9.8,1.8-16.1,8.8-15.9,18c0,2.1,0.4,4,1,5.6c0.1,0.3,0.2,0.5,0.3,0.8c2.5,5.6,8.4,9.2,16.6,12.4c8,3.2,12.2,6.9,12.3,12.9
				c0.1,6.3-5,10.9-12.6,11c-6,0.1-11.6-1.9-15.5-4.5l-2.4,7.2l-0.1,0.3c3.8,2.7,10.3,4.6,16.5,4.6l0.2,11.2l6.7-0.1l-0.2-11.5
				c3.2-0.6,5.9-1.7,8.2-3.1c5.7-3.6,8.6-9.6,8.5-15.8C85.2,453.6,79.6,448,68.5,443.5L68.5,443.5z"/>
			<path class="st5" d="M142.9,262c24.7-0.3,44.4-21.2,44-46.6s-20.7-45.6-45.3-45.3c-24.7,0.3-44.4,21.2-44,46.6
				S118.3,262.3,142.9,262z"/>
			<path class="st1" d="M144.9,212c-3.8-1.6-6.5-2.9-8.2-4.5c-0.2-0.1-0.3-0.3-0.4-0.4c-1.2-1.3-1.8-2.8-1.9-4.7
				c0-3.4,2.3-7.4,8.7-7.5c5.4-0.1,8.8,1.8,10.6,2.8l2-5.7c-2.4-1.4-5.9-2.8-10.9-2.8l-0.1-8.3h-1.1l-4.1,0.1l0.1,4.3v4.3
				c-7.7,1.4-12.5,6.8-12.4,14c0,1.6,0.3,3.1,0.8,4.4c0,0.2,0.1,0.4,0.2,0.6c1.9,4.4,6.5,7.2,13,9.7c6.2,2.5,9.5,5.3,9.6,10.1
				c0.1,4.9-3.9,8.5-9.8,8.6c-4.6,0.1-9-1.5-12.1-3.5l-1.8,5.6l-0.1,0.2c3,2.1,8,3.6,12.8,3.6l0.1,8.7l5.3-0.1l-0.1-9
				c2.5-0.4,4.6-1.3,6.4-2.5c4.4-2.8,6.7-7.4,6.6-12.3C157.9,219.9,153.5,215.5,144.9,212L144.9,212z"/>
			<path class="st5" d="M484.2,308.2c19.5-0.3,35.1-16.7,34.8-36.8c-0.3-20-16.3-36.1-35.8-35.8s-35.1,16.7-34.8,36.8
				C448.6,292.4,464.7,308.4,484.2,308.2z"/>
			<path class="st1" d="M485.7,268.6c-3-1.3-5.1-2.3-6.5-3.5c-0.1-0.1-0.2-0.2-0.3-0.3c-1-1.1-1.5-2.2-1.5-3.7
				c0-2.7,1.8-5.9,6.9-5.9c4.3-0.1,7,1.4,8.4,2.2l1.6-4.5c-1.9-1.1-4.6-2.2-8.6-2.2l-0.1-6.6h-0.9l-3.2,0.1l0.1,3.4v3.4
				c-6.1,1.1-9.9,5.4-9.8,11c0,1.3,0.2,2.4,0.6,3.5c0,0.2,0.1,0.3,0.2,0.5c1.5,3.5,5.2,5.7,10.2,7.7c4.9,2,7.5,4.2,7.6,8
				c0.1,3.9-3.1,6.7-7.8,6.8c-3.7,0.1-7.1-1.2-9.5-2.8l-1.5,4.4l-0.1,0.2c2.4,1.7,6.3,2.8,10.1,2.8l0.1,6.9l4.1-0.1l-0.1-7.1
				c1.9-0.3,3.6-1,5-1.9c3.5-2.2,5.3-5.9,5.2-9.7C496,274.9,492.5,271.4,485.7,268.6L485.7,268.6z"/>
			<path class="st5" d="M512.6,493.3c12-0.2,21.6-10.3,21.4-22.7c-0.2-12.4-10.1-22.2-22.1-22.1c-12,0.2-21.6,10.3-21.4,22.7
				S500.6,493.5,512.6,493.3z"/>
			<path class="st1" d="M513.6,468.9c-1.9-0.8-3.2-1.4-4-2.2c-0.1-0.1-0.1-0.1-0.2-0.2c-0.6-0.7-0.9-1.4-0.9-2.3
				c0-1.7,1.1-3.6,4.3-3.7c2.6,0,4.3,0.9,5.2,1.4l1-2.8c-1.2-0.7-2.9-1.3-5.3-1.4v-4.1H513h-2v2.1v2.1c-3.7,0.7-6.1,3.3-6,6.8
				c0,0.8,0.1,1.5,0.4,2.1c0,0.1,0.1,0.2,0.1,0.3c0.9,2.1,3.2,3.5,6.3,4.7c3,1.2,4.6,2.6,4.7,4.9c0,2.4-1.9,4.1-4.8,4.2
				c-2.3,0-4.4-0.7-5.9-1.7l-0.9,2.7v0.1c1.4,1,3.9,1.7,6.3,1.7l0.1,4.2h2.6l-0.1-4.4c1.2-0.2,2.2-0.6,3.1-1.2
				c2.2-1.4,3.2-3.6,3.2-6C520,472.8,517.8,470.6,513.6,468.9z"/>
		</g>
	</g>
</g>
</svg>
