<?xml version="1.0" encoding="utf-8"?>
<!-- Generator: Adobe Illustrator 25.2.0, SVG Export Plug-In . SVG Version: 6.00 Build 0)  -->
<svg version="1.1" id="Layer_1" xmlns="http://www.w3.org/2000/svg" xmlns:xlink="http://www.w3.org/1999/xlink" x="0px" y="0px"
	 viewBox="0 0 98 110" style="enable-background:new 0 0 98 110;" xml:space="preserve">
<style type="text/css">
	.st0{fill:url(#SVGID_1_);}
</style>
<linearGradient id="SVGID_1_" gradientUnits="userSpaceOnUse" x1="-8.2692" y1="1040.7701" x2="74.0584" y2="1021.0436" gradientTransform="matrix(1 0 0 1 0 -968)">
	<stop  offset="0" style="stop-color:#6F983F"/>
	<stop  offset="1" style="stop-color:#2E2E2E"/>
</linearGradient>
<path class="st0" d="M23.5,25.6c0,1.1,0.9,2,2,2s2-0.9,2-2H23.5z M51,72.7c0-1.1-0.9-2-2-2s-2,0.9-2,2H51z M47,84.4c0,1.1,0.9,2,2,2
	s2-0.9,2-2H47z M13.8,51.1h70.5v-4H13.8V51.1z M94,60.9v35.3h4V60.9H94z M84.2,106H13.8v4h70.5v-4H84.2z M4,96.2V60.9H0v35.3H4z
	 M13.8,106c-5.4,0-9.8-4.4-9.8-9.8H0c0,7.6,6.2,13.8,13.8,13.8V106z M94,96.2c0,5.4-4.4,9.8-9.8,9.8v4c7.6,0,13.8-6.2,13.8-13.8H94z
	 M84.2,51.1c5.4,0,9.8,4.4,9.8,9.8h4c0-7.6-6.2-13.8-13.8-13.8V51.1z M13.8,47.1C6.2,47.1,0,53.3,0,60.9h4c0-5.4,4.4-9.8,9.8-9.8
	V47.1z M70.5,25.6v23.6h4V25.6H70.5z M49,4c11.9,0,21.5,9.6,21.5,21.6h4C74.5,11.4,63.1,0,49,0V4z M49,0C34.9,0,23.5,11.4,23.5,25.6
	h4C27.5,13.6,37.1,4,49,4V0z M47,72.7v11.8h4V72.7H47z"/>
</svg>
