<?xml version="1.0" encoding="utf-8"?>
<!-- Generator: Adobe Illustrator 25.2.0, SVG Export Plug-In . SVG Version: 6.00 Build 0)  -->
<svg version="1.1" id="Layer_1" xmlns="http://www.w3.org/2000/svg" xmlns:xlink="http://www.w3.org/1999/xlink" x="0px" y="0px"
	 viewBox="0 0 642 524" style="enable-background:new 0 0 642 524;" xml:space="preserve">
<style type="text/css">
	.st0{clip-path:url(#SVGID_2_);}
	.st1{fill:#F6F8FB;}
	.st2{fill:#EBEBEB;}
	.st3{fill:#FAFAFA;}
	.st4{fill:#E0E0E0;}
	.st5{fill:#6F983F;}
	.st6{fill:#2E2E2E;}
	.st7{fill:#FFFFFF;}
	.st8{fill:#F5F5F5;}
	.st9{fill:#455A64;}
	.st10{fill:#1835B2;}
	.st11{fill:#FFFFFF;stroke:#000000;stroke-width:1.125;stroke-miterlimit:10;}
	.st12{fill:#FFFFFF;stroke:#000000;stroke-width:0.5;stroke-miterlimit:10;}
	.st13{fill:#FFFFFF;stroke:#000000;stroke-width:0.25;stroke-miterlimit:10;}
</style>
<g>
	<g>
		<defs>
			<rect id="SVGID_1_" width="642" height="524"/>
		</defs>
		<clipPath id="SVGID_2_">
			<use xlink:href="#SVGID_1_"  style="overflow:visible;"/>
		</clipPath>
		<g class="st0">
			<g>
				<path class="st1" d="M385.6,82.2c-5.8-3.6-11.8-7-18-10c-72.7-34.3-209.7-6.2-242.4,81.1c-7.8,20.8-4.8,40-6.9,60.6
					c-4.7,46.8-35.7,88.3-45.5,134.2c-7.6,35.6,11,67.6,35.7,90.3c26.8,24.7,58.5,35.7,100.5,35.4c47.1-0.3,85.8-25.1,124.3-51.4
					c17.3-11.8,35.2-24,54.8-32.1c24.6-10.1,50.8-16,75.8-24.7c26-9.1,51.9-20.7,72.8-38.2c66.8-55.9,41.5-154.9-14.7-191.7
					c-19.9-13-45.4-18.1-69.8-24.1C425.9,105.1,407.1,95.5,385.6,82.2z"/>
			</g>
			<path class="st2" d="M230,392.4l-1.3,1.4l-39.2,46.7l86.9,0.1l23.9-47.9L230,392.4z"/>
			<path class="st3" d="M213.2,394.6l-1.3,1.4l-43.7,48.3l84.7,0.1l30.6-49.6L213.2,394.6z"/>
			<path class="st4" d="M213.2,394.6c0,0,0.1,0,0.3,0s0.5,0,1,0c0.9,0,2.1,0,3.8,0c3.3,0,8.1,0,14.3,0c12.3,0,29.9,0.1,51,0.1h0.3
				l-0.2,0.3c-9,14.6-19.4,31.5-30.6,49.6l-0.1,0.1h-0.1c-3.7,0-7.6,0-11.6,0c-26.9,0-52-0.1-73.1-0.1h-0.4l0.3-0.3
				c13.5-14.9,24.8-27.4,32.7-36.1c3.9-4.3,7-7.7,9.2-10.1c1.1-1.2,1.9-2,2.4-2.6C212.9,394.9,213.2,394.6,213.2,394.6
				s-0.3,0.3-0.8,0.9s-1.3,1.5-2.4,2.7c-2.1,2.3-5.2,5.8-9.1,10.1c-7.9,8.7-19.1,21.2-32.6,36.2l-0.1-0.3c21.1,0,46.2,0,73.1,0
				c4,0,7.9,0,11.6,0l-0.2,0.1c11.2-18,21.6-34.9,30.6-49.6l0.2,0.3c-21.1-0.1-38.6-0.2-50.9-0.3c-6.2,0-11-0.1-14.3-0.1
				c-1.6,0-2.9,0-3.8,0c-0.4,0-0.7,0-1,0C213.3,394.6,213.2,394.6,213.2,394.6z"/>
			<path class="st4" d="M245.5,435.5c0,0-0.2,0-0.6,0c-0.4,0-1,0-1.7,0c-1.5,0-3.7,0-6.3,0c-5.4,0-12.7-0.1-20.8-0.1
				c-8.1-0.1-15.4-0.2-20.8-0.2c-2.6-0.1-4.8-0.1-6.3-0.1c-0.7,0-1.3,0-1.7-0.1c-0.4,0-0.6,0-0.6-0.1c0,0,0.2,0,0.6,0
				c0.4,0,1,0,1.7,0c1.5,0,3.7,0,6.3,0c5.4,0,12.7,0.1,20.8,0.1c8.1,0.1,15.4,0.2,20.8,0.2c2.6,0,4.8,0.1,6.3,0.1
				c0.7,0,1.3,0,1.7,0.1C245.3,435.5,245.5,435.5,245.5,435.5z"/>
			<path class="st4" d="M248,430.3c0,0-0.2,0-0.6,0c-0.4,0-1,0-1.7,0c-1.5,0-3.6,0-6.1,0c-5.2,0-12.4-0.1-20.3-0.1
				c-7.9-0.1-15-0.2-20.3-0.3c-2.6,0-4.6-0.1-6.1-0.1c-0.7,0-1.2,0-1.7-0.1c-0.4,0-0.6,0-0.6,0s0.2,0,0.6,0c0.4,0,1,0,1.7,0
				c1.5,0,3.6,0,6.1,0c5.2,0,12.4,0.1,20.3,0.1c7.9,0.1,15,0.2,20.3,0.2c2.6,0,4.6,0.1,6.1,0.1c0.7,0,1.2,0,1.7,0.1
				C247.8,430.3,248,430.3,248,430.3z"/>
			<path class="st4" d="M251.8,425.1c0,0-0.2,0-0.6,0c-0.4,0-1,0-1.6,0c-1.5,0-3.5,0-6,0c-5.1,0-12.1-0.1-19.9-0.1
				c-7.7-0.1-14.7-0.2-19.9-0.2c-2.5,0-4.5-0.1-6-0.1c-0.7,0-1.2,0-1.6-0.1c-0.4,0-0.6,0-0.6-0.1c0,0,0.2,0,0.6,0c0.4,0,1,0,1.6,0
				c1.5,0,3.5,0,6,0c5.1,0,12.1,0.1,19.9,0.1c7.7,0.1,14.7,0.2,19.9,0.2c2.5,0.1,4.5,0.1,6,0.1c0.7,0,1.2,0,1.6,0.1
				S251.8,425.1,251.8,425.1z"/>
			<path class="st4" d="M256.1,420.2c0,0-0.2,0-0.6,0c-0.4,0-0.9,0-1.6,0c-1.4,0-3.4,0-5.9,0c-5,0-11.9-0.1-19.5-0.1
				c-7.6-0.1-14.4-0.2-19.5-0.2c-2.5,0-4.5-0.1-5.9-0.1c-0.7,0-1.2,0-1.6-0.1c-0.4,0-0.6,0-0.6,0s0.2,0,0.6,0c0.4,0,0.9,0,1.6,0
				c1.4,0,3.4,0,5.9,0c5,0,11.9,0.1,19.5,0.1c7.6,0.1,14.4,0.2,19.5,0.2c2.5,0,4.5,0.1,5.9,0.1c0.7,0,1.2,0,1.6,0.1
				C255.9,420.2,256.1,420.2,256.1,420.2z"/>
			<path class="st4" d="M259.4,415.2c0,0-0.2,0-0.6,0s-0.9,0-1.6,0c-1.4,0-3.4,0-5.9,0c-5,0-11.9-0.1-19.5-0.1
				c-7.6-0.1-14.4-0.2-19.5-0.2c-2.5,0-4.5-0.1-5.9-0.1c-0.7,0-1.2,0-1.6-0.1c-0.4,0-0.6,0-0.6,0s0.2,0,0.6,0c0.4,0,0.9,0,1.6,0
				c1.4,0,3.4,0,5.9,0c5,0,11.9,0.1,19.5,0.1c7.6,0.1,14.4,0.2,19.5,0.2c2.5,0.1,4.5,0.1,5.9,0.1c0.7,0,1.2,0,1.6,0.1
				C259.2,415.1,259.4,415.1,259.4,415.2z"/>
			<path class="st4" d="M264.1,410.1c0,0-0.2,0-0.6,0s-0.9,0-1.6,0c-1.4,0-3.4,0-5.9,0c-5,0-11.9-0.1-19.5-0.1
				c-7.6-0.1-14.4-0.2-19.5-0.2c-2.5,0-4.5-0.1-5.9-0.1c-0.7,0-1.2,0-1.6-0.1c-0.4,0-0.6,0-0.6,0s0.2,0,0.6,0c0.4,0,0.9,0,1.6,0
				c1.4,0,3.4,0,5.9,0c5,0,11.9,0.1,19.5,0.1c7.6,0.1,14.4,0.2,19.5,0.2c2.5,0,4.5,0.1,5.9,0.1c0.7,0,1.2,0,1.6,0.1
				C263.9,410.1,264.1,410.1,264.1,410.1z"/>
			<path class="st4" d="M267.6,405.2c0,0-0.2,0-0.6,0s-0.9,0-1.6,0c-1.4,0-3.4,0-5.9,0c-5-0.1-11.9-0.1-19.5-0.2s-14.4-0.2-19.5-0.3
				c-2.5-0.1-4.5-0.1-5.9-0.2c-0.7,0-1.2-0.1-1.6-0.1c-0.4,0-0.6,0-0.6,0s0.2,0,0.6,0c0.4,0,0.9,0,1.6,0c1.4,0,3.4,0,5.9,0
				c5,0.1,11.9,0.1,19.5,0.2s14.4,0.2,19.5,0.3c2.5,0.1,4.5,0.1,5.9,0.1c0.7,0,1.2,0.1,1.6,0.1S267.6,405.1,267.6,405.2z"/>
			<path class="st4" d="M273,400.5c0,0-0.2,0-0.6,0s-0.9,0-1.6,0c-1.4,0-3.4,0-5.9,0c-5,0-11.9-0.1-19.5-0.2s-14.4-0.2-19.5-0.3
				c-2.5-0.1-4.5-0.1-5.9-0.2c-0.7,0-1.2,0-1.6-0.1c-0.4,0-0.6,0-0.6-0.1c0,0,0.2,0,0.6,0c0.4,0,0.9,0,1.6,0c1.4,0,3.4,0,5.9,0
				c5,0,11.9,0.1,19.5,0.2s14.4,0.2,19.5,0.3c2.5,0.1,4.5,0.1,5.9,0.1c0.7,0,1.2,0.1,1.6,0.1C272.8,400.4,273,400.4,273,400.5z"/>
			<path class="st5" d="M189,243.8c0-5.9,3.5-9.6,8.6-9.6c5,0,8.5,3.7,8.5,9.6c0,5.9-3.5,9.6-8.5,9.6
				C192.5,253.4,189,249.7,189,243.8z M201.1,243.8c0-3.7-1.4-5.5-3.6-5.5c-2.1,0-3.6,1.8-3.6,5.5s1.5,5.5,3.6,5.5
				C199.7,249.4,201.1,247.6,201.1,243.8z M218,234.6h5.9l-23.5,34.9h-5.9L218,234.6z M212.4,260.3c0-5.9,3.5-9.6,8.5-9.6
				s8.6,3.7,8.6,9.6c0,5.9-3.5,9.6-8.6,9.6C215.9,269.9,212.4,266.2,212.4,260.3z M224.5,260.3c0-3.7-1.4-5.5-3.6-5.5
				c-2.1,0-3.6,1.8-3.6,5.5s1.5,5.5,3.6,5.5C223.1,265.8,224.5,264,224.5,260.3z"/>
			<path class="st5" d="M469.2,107.9c3.1,20.9-11.3,40.3-32.1,43.5c-20.9,3.1-40.4-11.2-43.5-32.1s11.3-40.3,32.1-43.5
				C446.6,72.7,466.1,87,469.2,107.9z"/>
			<path class="st5" d="M460.2,109.2c2.4,15.9-8.6,30.7-24.5,33.1s-30.8-8.5-33.2-24.4c-2.4-15.9,8.6-30.7,24.5-33.1
				S457.8,93.4,460.2,109.2z"/>
			<path class="st6" d="M460.1,108.3c-0.2,0-0.5-1.2-1.3-3.4c-0.8-2.1-2.2-5.2-4.7-8.3c-1.3-1.6-2.8-3.2-4.6-4.7
				c-1.8-1.5-4-2.8-6.4-3.9c-1.2-0.5-2.5-1-3.8-1.4s-2.7-0.7-4.1-0.9c-1.4-0.2-2.9-0.3-4.4-0.2c-1.5,0-3,0.2-4.5,0.5s-3,0.7-4.3,1.2
				c-1.4,0.5-2.7,1.1-4,1.8c-1.3,0.7-2.5,1.4-3.6,2.3c-1.1,0.8-2.1,1.7-3.1,2.6c-1.9,1.9-3.4,3.9-4.6,5.9s-2,4.1-2.7,6
				c-1.2,3.8-1.4,7.2-1.4,9.4c0,2.3,0.2,3.6,0,3.6c-0.1,0-0.6-1.2-0.9-3.5s-0.3-5.8,0.8-9.9c0.5-2.1,1.4-4.3,2.6-6.5
				s2.8-4.4,4.7-6.5c1-1,2.1-2,3.2-2.9c1.2-0.9,2.4-1.8,3.8-2.5s2.8-1.4,4.3-1.9s3.1-1,4.7-1.3s3.2-0.4,4.8-0.5
				c1.6,0,3.2,0.1,4.7,0.3c1.5,0.2,3,0.6,4.4,1s2.8,1,4.1,1.6c2.6,1.2,4.8,2.7,6.7,4.4c1.9,1.6,3.4,3.4,4.7,5.1
				c2.5,3.5,3.6,6.8,4.2,9C460.2,107,460.2,108.3,460.1,108.3z"/>
			<path class="st7" d="M437.2,130.3l0.8,5l-4.5,0.7l-0.8-4.9c-4.5,0.5-9-0.2-11.7-1.7l1.6-5.9c2.5,1.3,5.9,2,9.2,1.7l-1.2-7.5
				c-5.2-0.4-11-1.1-12-7.5c-0.8-4.7,2-9.4,8.9-11.4l-0.8-5l4.5-0.7L432,98c3.4-0.3,6.8,0.1,9.5,1.2l-1.3,5.9
				c-2.5-0.9-4.9-1.3-7.2-1.2l1.3,7.6c5.2,0.3,10.9,1.1,11.9,7.4C446.9,123.7,444.1,128.3,437.2,130.3z M429.5,111.3l-1.1-6.4
				c-2.3,0.9-3,2.4-2.8,3.9C425.9,110.3,427.4,111,429.5,111.3z M439,120.8c-0.3-1.6-1.7-2.2-3.7-2.6l1,6.2
				C438.4,123.5,439.2,122.2,439,120.8z"/>
			<path class="st5" d="M512.1,331.3c-5.8,15.9-23.3,24.1-39.2,18.3c-15.9-5.8-24.1-23.3-18.4-39.2c5.8-15.9,23.3-24.1,39.2-18.3
				C509.7,297.9,517.9,315.4,512.1,331.3z"/>
			<path class="st5" d="M505.3,328.8c-4.4,12.1-17.8,18.3-29.9,13.9s-18.4-17.8-14-29.9s17.8-18.3,29.9-13.9
				S509.7,316.7,505.3,328.8z"/>
			<path class="st6" d="M505.5,328.1c-0.1,0,0.1-1,0.4-2.8c0.2-1.8,0.5-4.5-0.1-7.6c-0.3-1.6-0.7-3.3-1.5-5c-0.7-1.7-1.7-3.5-3-5.2
				c-0.6-0.8-1.4-1.7-2.1-2.4c-0.8-0.8-1.6-1.5-2.6-2.2c-0.9-0.7-1.9-1.3-3-1.8s-2.2-1-3.3-1.4c-1.2-0.4-2.3-0.7-3.5-0.9
				c-1.2-0.2-2.3-0.3-3.5-0.3s-2.3,0.1-3.4,0.2s-2.2,0.4-3.2,0.7c-2,0.6-3.9,1.4-5.5,2.4s-3,2.1-4.2,3.2c-2.3,2.2-3.7,4.5-4.6,6.1
				s-1.3,2.6-1.4,2.5c-0.1,0,0.1-1.1,0.8-2.8c0.7-1.7,2-4.2,4.3-6.7c1.2-1.2,2.6-2.5,4.3-3.6c1.7-1.1,3.6-2.1,5.8-2.7
				c1.1-0.3,2.2-0.6,3.4-0.8c1.2-0.2,2.4-0.3,3.6-0.3s2.5,0.1,3.8,0.3c1.3,0.2,2.5,0.5,3.8,0.9c1.2,0.4,2.4,0.9,3.6,1.5
				c1.1,0.6,2.2,1.3,3.2,2s1.9,1.5,2.7,2.4c0.8,0.8,1.6,1.7,2.3,2.7c1.4,1.8,2.3,3.8,3.1,5.6c0.7,1.9,1.1,3.7,1.3,5.4
				c0.4,3.4,0,6.1-0.5,8C506.1,327.2,505.6,328.1,505.5,328.1z"/>
			<path class="st7" d="M481,334.8l-1.3,3.8l-3.4-1.2l1.3-3.7c-3.3-1.4-6.2-3.6-7.6-5.7l3.3-3.5c1.3,1.9,3.4,3.6,5.8,4.8l2-5.7
				c-3.5-2.2-7.3-5-5.6-9.9c1.3-3.6,5-5.8,10.6-4.6l1.3-3.8l3.4,1.2l-1.3,3.7c2.5,1.1,4.8,2.7,6.2,4.5l-3.2,3.6
				c-1.4-1.6-3-2.8-4.6-3.6l-2,5.8c3.5,2.2,7.2,4.9,5.6,9.8C490.3,333.8,486.7,336,481,334.8z M482.9,318.5l1.7-4.9
				c-2-0.2-3,0.5-3.4,1.7C480.7,316.4,481.5,317.5,482.9,318.5z M485.9,328.8c0.4-1.2-0.4-2.2-1.6-3.2l-1.6,4.7
				C484.5,330.5,485.5,329.9,485.9,328.8z"/>
			<path class="st8" d="M365.9,95.1H176.1v123.7h189.7V95.1H365.9z"/>
			<path class="st2" d="M356.5,88.4H166.8v123.4h189.7V88.4z"/>
			<path class="st6" d="M508.3,384.2c0,0.1-79.5,0.2-177.6,0.2s-177.6-0.1-177.6-0.2s79.5-0.2,177.6-0.2
				C428.8,383.9,508.3,384,508.3,384.2z"/>
			<path class="st8" d="M490.8,437.9l-74.5,2.4l-57.7-53.6H431L490.8,437.9z"/>
			<path class="st8" d="M464.1,445.9l-74.5,2.4l-57.7-53.6h72.4L464.1,445.9z"/>
			<path class="st4" d="M476.6,440.6l-74.5,2.4l-57.7-53.6h72.4L476.6,440.6z"/>
			<path class="st8" d="M407.6,386.7h-72.4l57.7,53.6l76.8-2.5L407.6,386.7z"/>
			<path class="st6" d="M407.6,386.7c0,0,0.1,0.1,0.3,0.2c0.2,0.2,0.5,0.4,0.9,0.7c0.8,0.6,1.9,1.5,3.4,2.7
				c2.9,2.4,7.2,5.9,12.7,10.4c10.9,9,26.5,21.7,45.1,37l0.4,0.3h-0.5c-21.6,0.7-46.9,1.5-73.7,2.4c-1.1,0-2.1,0.1-3.1,0.1H393v-0.1
				c-21.3-19.7-41.1-38.1-57.7-53.6l-0.3-0.3h0.5c21.8,0,39.9,0.1,52.5,0.1c6.3,0,11.3,0,14.6,0.1c1.7,0,3,0,3.8,0
				C407.1,386.7,407.6,386.7,407.6,386.7s-0.5,0-1.3,0c-0.9,0-2.2,0-3.9,0c-3.4,0-8.4,0-14.7,0.1c-12.6,0-30.7,0-52.5,0.1l0.1-0.3
				c16.7,15.5,36.5,33.8,57.8,53.6l-0.2-0.1c1,0,2.1-0.1,3.1-0.1c26.8-0.9,52.1-1.7,73.7-2.4l-0.1,0.3c-18.6-15.3-34.1-28.1-45-37.1
				c-5.4-4.5-9.7-8-12.6-10.5c-1.5-1.2-2.6-2.1-3.3-2.8c-0.4-0.3-0.7-0.6-0.9-0.7C407.7,386.8,407.6,386.7,407.6,386.7z"/>
			<path class="st6" d="M433.5,417.6c0,0.1-11.5,0.6-25.8,1c-14.2,0.4-25.8,0.7-25.8,0.6s11.5-0.6,25.8-1
				C422,417.8,433.5,417.5,433.5,417.6z"/>
			<path class="st6" d="M439.7,422.2c0,0.1-11.7,0.6-26.2,1s-26.2,0.7-26.2,0.6s11.7-0.6,26.2-1
				C427.9,422.4,439.7,422.1,439.7,422.2z"/>
			<path class="st6" d="M446.2,426.8c0,0.1-11.8,0.6-26.4,1.1s-26.4,0.8-26.4,0.6c0-0.1,11.8-0.6,26.4-1.1
				C434.4,427,446.2,426.7,446.2,426.8z"/>
			<path class="st6" d="M430,413.5c0,0.1-11.9,0.6-26.5,1.1c-14.7,0.5-26.5,0.7-26.5,0.6s11.9-0.6,26.5-1.1
				C418.1,413.7,430,413.4,430,413.5z"/>
			<path class="st6" d="M405.4,396.4c0,0.1-11,0.4-24.6,0.7c-13.6,0.3-24.6,0.4-24.6,0.3s11-0.4,24.6-0.7
				C394.4,396.4,405.4,396.2,405.4,396.4z"/>
			<path class="st6" d="M411.6,400.9c0,0.1-11.4,0.4-25.4,0.7c-14,0.3-25.4,0.4-25.4,0.3s11.4-0.4,25.4-0.7
				C400.2,400.9,411.6,400.8,411.6,400.9z"/>
			<path class="st6" d="M417.7,405.5c0,0.1-11.9,0.4-26.6,0.7c-14.7,0.3-26.6,0.4-26.6,0.3s11.9-0.4,26.6-0.7
				C405.8,405.5,417.7,405.4,417.7,405.5z"/>
			<path class="st6" d="M423.9,410.1c0,0.1-11.9,0.4-26.6,0.7c-14.7,0.3-26.6,0.4-26.6,0.3s11.9-0.4,26.6-0.7
				C412,410.1,423.9,410,423.9,410.1z"/>
			<path class="st6" d="M401.9,392.2c0,0-0.2,0-0.5,0.1c-0.4,0-0.9,0-1.5,0.1c-1.3,0-3.2,0.1-5.4,0.1c-4.6,0.1-11,0.2-18,0.3
				c-7,0.1-13.3,0.1-18,0.2c-2.3,0-4.1,0-5.4,0c-0.6,0-1.1,0-1.5,0c-0.3,0-0.5,0-0.5,0s0.2,0,0.5-0.1c0.4,0,0.9,0,1.5-0.1
				c1.3,0,3.2-0.1,5.4-0.1c4.6-0.1,11-0.2,18-0.3c7-0.1,13.3-0.1,18-0.2c2.3,0,4.1,0,5.4,0c0.6,0,1.1,0,1.5,0
				C401.7,392.2,401.9,392.2,401.9,392.2z"/>
			<path class="st9" d="M378.6,405.3l-19-17.4l65.7-2.6l19.3,10.7L378.6,405.3z"/>
			<path class="st6" d="M367.3,390.3l3.7,3.2v-2.3l-3.9-2.9L367.3,390.3z"/>
			<path class="st5" d="M371,391.4l5.3-0.2l-4.3-3.1l-4.9,0.2L371,391.4z"/>
			<path class="st6" d="M371,391.4l0.1,2.1l5.2-0.3l0.1-2L371,391.4z"/>
			<path class="st6" d="M376.3,391.2c-0.1,0.1-2-1.1-4.3-2.8c-0.1-0.1-0.2-0.1-0.2-0.2h0.1c-2.7,0.1-4.8,0.1-4.8,0s2.1-0.3,4.8-0.5
				h0.1h0.1c0.1,0.1,0.2,0.1,0.2,0.2C374.5,389.7,376.4,391.1,376.3,391.2z"/>
			<path class="st9" d="M371,393.5c-0.1,0-0.2-0.5-0.2-1c0-0.6,0.1-1.1,0.2-1.1s0.2,0.5,0.2,1C371.2,393,371.1,393.5,371,393.5z"/>
			<path class="st6" d="M376.2,390.2l3.7,3.2v-2.3l-3.9-2.9L376.2,390.2z"/>
			<path class="st4" d="M379.9,391.2l5.3-0.2l-4.3-3.1l-4.9,0.2L379.9,391.2z"/>
			<path class="st6" d="M379.9,391.2v2.1l5.2-0.3l0.1-2L379.9,391.2z"/>
			<path class="st6" d="M385.2,391c-0.1,0.1-2-1.1-4.3-2.8c-0.1-0.1-0.2-0.1-0.3-0.2h0.1c-2.7,0.1-4.8,0.1-4.8,0s2.1-0.3,4.8-0.5
				h0.1h0.1c0.1,0.1,0.2,0.1,0.3,0.2C383.5,389.5,385.3,390.9,385.2,391z"/>
			<path class="st9" d="M379.9,393.3c-0.1,0-0.2-0.5-0.2-1c0-0.6,0.1-1.1,0.2-1.1s0.2,0.5,0.2,1C380.1,392.8,380,393.3,379.9,393.3z
				"/>
			<path class="st6" d="M384.8,390l3.7,3.2v-2.3l-3.9-2.9L384.8,390z"/>
			<path class="st9" d="M388.4,391.1l5.3-0.2l-4.3-3.1l-4.9,0.2L388.4,391.1z"/>
			<path class="st6" d="M388.4,391.1v2.1l5.2-0.3l0.1-2L388.4,391.1z"/>
			<path class="st6" d="M393.7,390.9c-0.1,0.1-2-1.1-4.3-2.8c-0.1-0.1-0.2-0.1-0.2-0.2h0.1c-2.7,0.1-4.8,0.1-4.8,0s2.1-0.3,4.8-0.5
				h0.1h0.1c0.1,0.1,0.2,0.1,0.2,0.2C392,389.4,393.8,390.8,393.7,390.9z"/>
			<path class="st9" d="M388.4,393.2c-0.1,0-0.2-0.5-0.2-1c0-0.6,0.1-1.1,0.2-1.1s0.2,0.5,0.2,1
				C388.6,392.7,388.6,393.2,388.4,393.2z"/>
			<path class="st6" d="M393.6,389.8l3.7,3.2v-2.3l-3.9-2.9L393.6,389.8z"/>
			<path class="st9" d="M397.3,390.8l5.3-0.2l-4.3-3.1l-4.9,0.2L397.3,390.8z"/>
			<path class="st6" d="M397.3,390.8v2.1l5.2-0.3l0.1-2L397.3,390.8z"/>
			<path class="st6" d="M402.6,390.7c-0.1,0.1-2-1.1-4.3-2.8c-0.1-0.1-0.2-0.1-0.2-0.2h0.1c-2.7,0.1-4.8,0.1-4.8,0s2.1-0.3,4.8-0.5
				h0.1h0.1c0.1,0.1,0.2,0.1,0.2,0.2C400.9,389.2,402.7,390.6,402.6,390.7z"/>
			<path class="st9" d="M397.3,393c-0.1,0-0.2-0.5-0.2-1c0-0.6,0.1-1.1,0.2-1.1s0.2,0.5,0.2,1C397.5,392.5,397.4,393,397.3,393z"/>
			<path class="st6" d="M402.7,389.6l3.7,3.2v-2.3l-3.9-2.9L402.7,389.6z"/>
			<path class="st9" d="M406.3,390.6l5.3-0.2l-4.3-3.1l-4.9,0.2L406.3,390.6z"/>
			<path class="st6" d="M406.3,390.6v2.1l5.2-0.3l0.1-2L406.3,390.6z"/>
			<path class="st6" d="M411.6,390.4c-0.1,0.1-2-1.1-4.3-2.8c-0.1-0.1-0.2-0.1-0.3-0.2h0.1c-2.7,0.1-4.8,0.1-4.8,0s2.1-0.3,4.8-0.5
				h0.1h0.1c0.1,0.1,0.2,0.1,0.3,0.2C409.9,388.9,411.7,390.3,411.6,390.4z"/>
			<path class="st9" d="M406.3,392.7c-0.1,0-0.2-0.5-0.2-1c0-0.6,0.1-1.1,0.2-1.1s0.2,0.5,0.2,1
				C406.5,392.3,406.5,392.7,406.3,392.7z"/>
			<path class="st6" d="M411.3,389.2l3.7,3.2v-2.3l-3.9-2.9L411.3,389.2z"/>
			<path class="st9" d="M414.9,390.2l5.3-0.2l-4.3-3.1l-4.9,0.2L414.9,390.2z"/>
			<path class="st6" d="M414.9,390.2v2.1l5.2-0.3l0.1-2L414.9,390.2z"/>
			<path class="st6" d="M420.2,390c-0.1,0.1-2-1.1-4.3-2.8c-0.1-0.1-0.2-0.1-0.3-0.2h0.1c-2.7,0.1-4.8,0.1-4.8,0s2.1-0.3,4.8-0.5
				h0.1h0.1c0.1,0.1,0.2,0.1,0.3,0.2C418.5,388.5,420.3,389.9,420.2,390z"/>
			<path class="st9" d="M414.9,392.3c-0.1,0-0.2-0.5-0.2-1c0-0.6,0.1-1.1,0.2-1.1s0.2,0.5,0.2,1C415.1,391.8,415,392.3,414.9,392.3z
				"/>
			<path class="st6" d="M419.7,388.7l3.7,3.2v-2.3l-3.9-2.9L419.7,388.7z"/>
			<path class="st9" d="M423.3,389.7l5.3-0.2l-4.3-3.1l-4.9,0.2L423.3,389.7z"/>
			<path class="st6" d="M423.3,389.7l0.1,2.1l5.2-0.3l0.1-2L423.3,389.7z"/>
			<path class="st6" d="M428.6,389.6c-0.1,0.1-2-1.1-4.3-2.8c-0.1-0.1-0.2-0.1-0.3-0.2h0.1c-2.7,0.1-4.8,0.1-4.8,0s2.1-0.3,4.8-0.4
				h0.1h0.1c0.1,0.1,0.2,0.1,0.3,0.2C426.9,388.1,428.7,389.5,428.6,389.6z"/>
			<path class="st9" d="M423.3,391.8c-0.1,0-0.2-0.5-0.2-1c0-0.6,0.1-1.1,0.2-1.1s0.2,0.5,0.2,1
				C423.5,391.4,423.5,391.8,423.3,391.8z"/>
			<path class="st6" d="M373.3,396.3l3.7,3.2v-2.3l-3.9-2.9L373.3,396.3z"/>
			<path class="st9" d="M376.9,397.3l5.3-0.2l-4.3-3.1l-4.9,0.2L376.9,397.3z"/>
			<path class="st6" d="M376.9,397.3l0.1,2.1l5.2-0.3l0.1-2L376.9,397.3z"/>
			<path class="st6" d="M382.2,397.1c-0.1,0.1-2-1.1-4.3-2.8c-0.1-0.1-0.2-0.1-0.2-0.2h0.1c-2.7,0.1-4.8,0.1-4.8,0s2.1-0.3,4.8-0.5
				h0.1h0.1c0.1,0.1,0.2,0.1,0.2,0.2C380.5,395.6,382.3,397,382.2,397.1z"/>
			<path class="st9" d="M376.9,399.4c-0.1,0-0.2-0.5-0.2-1c0-0.6,0.1-1.1,0.2-1.1s0.2,0.5,0.2,1C377.1,399,377.1,399.4,376.9,399.4z
				"/>
			<path class="st6" d="M382.2,396.1l3.7,3.2V397l-3.9-2.9L382.2,396.1z"/>
			<path class="st9" d="M385.8,397.1l5.3-0.2l-4.3-3.1l-4.9,0.2L385.8,397.1z"/>
			<path class="st6" d="M385.8,397.1l0.1,2.1l5.2-0.3l0.1-2L385.8,397.1z"/>
			<path class="st6" d="M391.1,397c-0.1,0.1-2-1.1-4.3-2.8c-0.1-0.1-0.2-0.1-0.3-0.2h0.1c-2.7,0.1-4.8,0.1-4.8,0s2.1-0.3,4.8-0.5
				h0.1h0.1c0.1,0.1,0.2,0.1,0.3,0.2C389.4,395.5,391.2,396.9,391.1,397z"/>
			<path class="st9" d="M385.9,399.3c-0.1,0-0.2-0.5-0.2-1c0-0.6,0.1-1.1,0.2-1.1s0.2,0.5,0.2,1C386.1,398.8,386,399.3,385.9,399.3z
				"/>
			<path class="st6" d="M390.7,396l3.7,3.2v-2.3l-3.9-2.9L390.7,396z"/>
			<path class="st9" d="M394.3,397l5.3-0.2l-4.3-3.1l-4.9,0.2L394.3,397z"/>
			<path class="st6" d="M394.3,397l0.1,2.1l5.2-0.3l0.1-2L394.3,397z"/>
			<path class="st6" d="M399.7,396.9c-0.1,0.1-2-1.1-4.3-2.8c-0.1-0.1-0.2-0.1-0.3-0.2h0.1c-2.7,0.1-4.8,0.1-4.8,0s2.1-0.3,4.8-0.5
				h0.1h0.1c0.1,0.1,0.2,0.1,0.3,0.2C397.9,395.4,399.7,396.8,399.7,396.9z"/>
			<path class="st9" d="M394.4,399.2c-0.1,0-0.2-0.5-0.2-1c0-0.6,0.1-1.1,0.2-1.1s0.2,0.5,0.2,1
				C394.6,398.7,394.5,399.1,394.4,399.2z"/>
			<path class="st6" d="M399.6,395.7l3.7,3.2v-2.3l-3.9-2.9L399.6,395.7z"/>
			<path class="st9" d="M403.2,396.8l5.3-0.2l-4.3-3.1l-4.9,0.2L403.2,396.8z"/>
			<path class="st6" d="M403.2,396.8v2.1l5.2-0.3l0.1-2L403.2,396.8z"/>
			<path class="st6" d="M408.6,396.6c-0.1,0.1-2-1.1-4.3-2.8c-0.1-0.1-0.2-0.1-0.2-0.2h0.1c-2.7,0.1-4.8,0.1-4.8,0s2.1-0.3,4.8-0.5
				h0.1h0.1c0.1,0.1,0.2,0.1,0.2,0.2C406.8,395.1,408.6,396.5,408.6,396.6z"/>
			<path class="st9" d="M403.3,398.9c-0.1,0-0.2-0.5-0.2-1c0-0.6,0.1-1.1,0.2-1.1s0.2,0.5,0.2,1
				C403.5,398.4,403.4,398.9,403.3,398.9z"/>
			<path class="st6" d="M408.6,395.5l3.7,3.2v-2.3l-3.9-2.9L408.6,395.5z"/>
			<path class="st9" d="M412.2,396.6l5.3-0.2l-4.3-3.1l-4.9,0.2L412.2,396.6z"/>
			<path class="st6" d="M412.2,396.6l0.1,2.1l5.2-0.3l0.1-2L412.2,396.6z"/>
			<path class="st6" d="M417.6,396.4c-0.1,0.1-2-1.1-4.3-2.8c-0.1-0.1-0.2-0.1-0.3-0.2h0.1c-2.7,0.1-4.8,0.1-4.8,0s2.1-0.3,4.8-0.5
				h0.1h0.1c0.1,0.1,0.2,0.1,0.3,0.2C415.8,394.9,417.6,396.3,417.6,396.4z"/>
			<path class="st9" d="M412.3,398.7c-0.1,0-0.2-0.5-0.2-1c0-0.6,0.1-1.1,0.2-1.1s0.2,0.5,0.2,1
				C412.5,398.2,412.4,398.7,412.3,398.7z"/>
			<path class="st6" d="M417.2,395.1l3.7,3.2V396l-3.9-2.9L417.2,395.1z"/>
			<path class="st9" d="M420.8,396.2l5.3-0.2l-4.3-3.1l-4.9,0.2L420.8,396.2z"/>
			<path class="st6" d="M420.8,396.2v2.1l5.2-0.3l0.1-2L420.8,396.2z"/>
			<path class="st6" d="M426.2,396c-0.1,0.1-2-1.1-4.3-2.8c-0.1-0.1-0.2-0.1-0.3-0.2h0.1c-2.7,0.1-4.8,0.1-4.8,0s2.1-0.3,4.8-0.5
				h0.1h0.1c0.1,0.1,0.2,0.1,0.3,0.2C424.4,394.5,426.2,395.9,426.2,396z"/>
			<path class="st9" d="M420.9,398.3c-0.1,0-0.2-0.5-0.2-1c0-0.6,0.1-1.1,0.2-1.1s0.2,0.5,0.2,1C421.1,397.8,421,398.3,420.9,398.3z
				"/>
			<path class="st6" d="M425.6,394.6l3.7,3.2v-2.3l-3.9-2.9L425.6,394.6z"/>
			<path class="st9" d="M429.2,395.7l5.3-0.2l-4.3-3.1l-4.9,0.2L429.2,395.7z"/>
			<path class="st6" d="M429.2,395.7v2.1l5.2-0.3l0.1-2L429.2,395.7z"/>
			<path class="st6" d="M434.6,395.5c-0.1,0.1-2-1.1-4.3-2.8c-0.1-0.1-0.2-0.1-0.3-0.2h0.1c-2.7,0.1-4.8,0.1-4.8,0s2.1-0.3,4.8-0.5
				h0.1h0.1c0.1,0.1,0.2,0.1,0.3,0.2C432.8,394,434.6,395.4,434.6,395.5z"/>
			<path class="st9" d="M429.3,397.8c-0.1,0-0.2-0.5-0.2-1c0-0.6,0.1-1.1,0.2-1.1s0.2,0.5,0.2,1
				C429.5,397.3,429.4,397.8,429.3,397.8z"/>
			<path class="st6" d="M463.2,391.2l-74.5,4.1l-9.9,9.4L359.7,388v4.9l19.8,18.9l10.9-10.6l74-4.4L463.2,391.2z"/>
			<path class="st6" d="M379.4,411.7l67.4-3.9l17.5-11.1l-75.8,3L379.4,411.7z"/>
			<path class="st9" d="M464.3,396.7c0,0-0.1,0-0.2,0c-0.2,0-0.4,0-0.7,0.1c-0.6,0.1-1.5,0.1-2.6,0.2c-2.3,0.1-5.5,0.4-9.5,0.6
				c-8.1,0.5-19.2,1.2-31.5,1.9c-11.3,0.7-21.6,1.3-29.4,1.7h0.1c-3.4,3.2-6.1,5.9-8,7.7c-0.9,0.9-1.7,1.6-2.2,2.1
				c-0.2,0.2-0.4,0.4-0.6,0.5c-0.1,0.1-0.2,0.2-0.2,0.2s0-0.1,0.2-0.2c0.1-0.1,0.3-0.3,0.6-0.6c0.5-0.5,1.2-1.2,2.1-2.1
				c1.9-1.9,4.6-4.5,7.9-7.8l0,0h0.1c7.8-0.5,18.1-1.1,29.4-1.8c12.3-0.7,23.4-1.4,31.5-1.8c4-0.2,7.3-0.4,9.6-0.5
				c1.1,0,2-0.1,2.6-0.1c0.3,0,0.5,0,0.7,0C464.2,396.6,464.3,396.7,464.3,396.7z"/>
			<path class="st9" d="M390.3,401.1c-0.1,0-0.6-1.2-1.1-2.8c-0.5-1.6-0.8-2.9-0.6-3c0.1,0,0.6,1.2,1.1,2.8
				C390.2,399.7,390.5,401,390.3,401.1z"/>
			<path class="st9" d="M472.6,276.5l-66.9-12.8c-2-0.4-3.4-2.4-3-4.4l21.5-112.5c0.6-2.9,3.4-4.8,6.3-4.3l63.8,12.2
				c2.9,0.6,4.8,3.4,4.3,6.3L477,273.5C476.6,275.6,474.6,276.9,472.6,276.5z"/>
			<g>
				<path class="st6" d="M472.5,276.5l-66.9-12.8c-2-0.4-3.4-2.4-3-4.4l21.5-112.5c0.6-2.9,3.4-4.8,6.3-4.3l63.8,12.2
					c2.9,0.6,4.8,3.4,4.3,6.3L477,273.5C476.6,275.6,474.6,276.9,472.5,276.5z"/>
			</g>
			<path class="st6" d="M466.8,275.4l-66.9-12.8c-2-0.4-3.4-2.4-3-4.4l21.5-112.5c0.6-2.9,3.4-4.8,6.3-4.3l63.8,12.2
				c2.9,0.6,4.8,3.4,4.3,6.3l-21.5,112.5C470.8,274.4,468.8,275.8,466.8,275.4z"/>
			<path class="st9" d="M432.5,252l-21.1-4c-1.1-0.2-1.8-1.3-1.6-2.4l1.4-7.1c0.2-1.1,1.3-1.8,2.4-1.6l21.1,4
				c1.1,0.2,1.8,1.3,1.6,2.4l-1.4,7.1C434.7,251.5,433.6,252.2,432.5,252z"/>
			<g>
				<path class="st6" d="M432.5,252l-21.1-4c-1.1-0.2-1.8-1.3-1.6-2.4l1.4-7.1c0.2-1.1,1.3-1.8,2.4-1.6l21.1,4
					c1.1,0.2,1.8,1.3,1.6,2.4l-1.4,7.1C434.7,251.5,433.6,252.2,432.5,252z"/>
			</g>
			<path class="st3" d="M422.9,153.6l-4.8,24.9l63.5,12.2l4.8-24.9L422.9,153.6z"/>
			<path class="st6" d="M481.7,190.7c0,0,0-0.1,0.1-0.4c0.1-0.3,0.1-0.7,0.2-1.3c0.2-1.1,0.5-2.8,0.9-5c0.8-4.3,2-10.5,3.4-18.3
				l0.1,0.1c-16-3.1-38.6-7.4-63.5-12.1l0,0l0.1-0.1c-1.7,8.7-3.3,17.1-4.8,24.9l-0.1-0.1c18.4,3.5,34.2,6.6,45.5,8.8
				c5.6,1.1,10.1,2,13.2,2.6c1.5,0.3,2.7,0.5,3.5,0.7c0.4,0.1,0.7,0.1,0.9,0.2C481.6,190.7,481.7,190.7,481.7,190.7s-0.1,0-0.3-0.1
				c-0.2,0-0.5-0.1-0.9-0.2c-0.8-0.2-2-0.4-3.5-0.7c-3.1-0.6-7.6-1.4-13.2-2.5c-11.3-2.2-27.2-5.2-45.6-8.7h-0.1v-0.1
				c1.5-7.8,3.1-16.2,4.8-24.9v-0.1h0.1l0,0c25,4.8,47.5,9.1,63.5,12.2h0.1v0.1c-1.5,7.7-2.7,14-3.5,18.3c-0.4,2.1-0.7,3.8-1,4.9
				c-0.1,0.6-0.2,1-0.2,1.3C481.7,190.5,481.7,190.7,481.7,190.7z"/>
			<path class="st9" d="M426.8,201.7l-7.4-1.4c-0.9-0.2-1.6-1.1-1.4-2l1.4-7.4c0.2-0.9,1.1-1.6,2-1.4l7.4,1.4c0.9,0.2,1.6,1.1,1.4,2
				l-1.4,7.4C428.7,201.2,427.8,201.9,426.8,201.7z"/>
			<g>
				<path class="st6" d="M426.8,201.7l-7.4-1.4c-0.9-0.2-1.6-1.1-1.4-2l1.4-7.4c0.2-0.9,1.1-1.6,2-1.4l7.4,1.4
					c0.9,0.2,1.6,1.1,1.4,2l-1.4,7.4C428.7,201.2,427.8,201.9,426.8,201.7z"/>
			</g>
			<path class="st6" d="M425.2,201.4l-7.4-1.4c-0.9-0.2-1.6-1.1-1.4-2l1.4-7.4c0.2-0.9,1.1-1.6,2-1.4l7.4,1.4c0.9,0.2,1.6,1.1,1.4,2
				l-1.4,7.4C427,200.9,426.1,201.5,425.2,201.4z"/>
			<path class="st7" d="M423.7,193.1l-0.9,4.5l-1-0.2l0.7-3.7l-0.9-0.2l0.2-0.8L423.7,193.1z"/>
			<path class="st9" d="M441.9,204.6l-7.4-1.4c-0.9-0.2-1.6-1.1-1.4-2l1.4-7.4c0.2-0.9,1.1-1.6,2-1.4l7.4,1.4c0.9,0.2,1.6,1.1,1.4,2
				l-1.4,7.4C443.7,204.1,442.8,204.7,441.9,204.6z"/>
			<g>
				<path class="st6" d="M441.9,204.6l-7.4-1.4c-0.9-0.2-1.6-1.1-1.4-2l1.4-7.4c0.2-0.9,1.1-1.6,2-1.4l7.4,1.4
					c0.9,0.2,1.6,1.1,1.4,2l-1.4,7.4C443.7,204.1,442.8,204.7,441.9,204.6z"/>
			</g>
			<path class="st6" d="M440.2,204.2l-7.4-1.4c-0.9-0.2-1.6-1.1-1.4-2l1.4-7.4c0.2-0.9,1.1-1.6,2-1.4l7.4,1.4c0.9,0.2,1.6,1.1,1.4,2
				l-1.4,7.4C442.1,203.8,441.2,204.4,440.2,204.2z"/>
			<path class="st7" d="M439.7,199.9l-0.2,0.9l-3.4-0.7l0.1-0.7l2.1-1.3c0.5-0.3,0.6-0.5,0.6-0.7c0.1-0.4-0.1-0.6-0.6-0.7
				c-0.4-0.1-0.7,0-1,0.3l-0.7-0.6c0.4-0.4,1.1-0.7,1.9-0.5c1,0.2,1.6,0.8,1.4,1.7c-0.1,0.4-0.3,0.8-1,1.3l-1.2,0.8L439.7,199.9z"/>
			<path class="st9" d="M457.5,207.6l-7.4-1.4c-0.9-0.2-1.6-1.1-1.4-2l1.4-7.4c0.2-0.9,1.1-1.6,2-1.4l7.4,1.4c0.9,0.2,1.6,1.1,1.4,2
				l-1.4,7.4C459.4,207.1,458.4,207.7,457.5,207.6z"/>
			<g>
				<path class="st6" d="M457.5,207.6l-7.4-1.4c-0.9-0.2-1.6-1.1-1.4-2l1.4-7.4c0.2-0.9,1.1-1.6,2-1.4l7.4,1.4
					c0.9,0.2,1.6,1.1,1.4,2l-1.4,7.4C459.4,207.1,458.4,207.7,457.5,207.6z"/>
			</g>
			<path class="st6" d="M455.8,207.2l-7.4-1.4c-0.9-0.2-1.6-1.1-1.4-2l1.4-7.4c0.2-0.9,1.1-1.6,2-1.4l7.4,1.4c0.9,0.2,1.6,1.1,1.4,2
				l-1.4,7.4C457.7,206.8,456.8,207.4,455.8,207.2z"/>
			<path class="st7" d="M455.4,202.4c-0.1,0.8-0.9,1.3-2.1,1.1c-0.6-0.1-1.2-0.4-1.6-0.8l0.6-0.7c0.3,0.3,0.7,0.6,1.2,0.7
				c0.5,0.1,0.9-0.1,1-0.4c0.1-0.3-0.1-0.6-0.7-0.7l-0.5-0.1l0.1-0.7l1.1-0.9l-1.9-0.4l0.2-0.8l3.1,0.6l-0.1,0.7l-1.2,1
				C455.2,201.2,455.5,201.7,455.4,202.4z"/>
			<path class="st9" d="M473.1,210.5l-7.4-1.4c-0.9-0.2-1.6-1.1-1.4-2l1.4-7.4c0.2-0.9,1.1-1.6,2-1.4l7.4,1.4c0.9,0.2,1.6,1.1,1.4,2
				l-1.4,7.4C475,210.1,474.1,210.7,473.1,210.5z"/>
			<g>
				<path class="st6" d="M473.1,210.5l-7.4-1.4c-0.9-0.2-1.6-1.1-1.4-2l1.4-7.4c0.2-0.9,1.1-1.6,2-1.4l7.4,1.4
					c0.9,0.2,1.6,1.1,1.4,2l-1.4,7.4C475,210.1,474.1,210.7,473.1,210.5z"/>
			</g>
			<path class="st6" d="M471.5,210.2l-7.4-1.4c-0.9-0.2-1.6-1.1-1.4-2l1.4-7.4c0.2-0.9,1.1-1.6,2-1.4l7.4,1.4c0.9,0.2,1.6,1.1,1.4,2
				l-1.4,7.4C473.3,209.8,472.4,210.4,471.5,210.2z"/>
			<path class="st7" d="M466.4,203.3l-0.1,0.4l4.8,0.9l0.1-0.4L466.4,203.3z"/>
			<path class="st7" d="M470,202c-0.1,0.4-0.5,0.7-0.9,0.6c-0.4-0.1-0.7-0.5-0.6-0.9s0.5-0.7,0.9-0.6
				C469.8,201.1,470.1,201.6,470,202z"/>
			<path class="st7" d="M469.2,206.2c-0.1,0.4-0.5,0.7-0.9,0.6c-0.4-0.1-0.7-0.5-0.6-0.9s0.5-0.7,0.9-0.6
				C469,205.3,469.3,205.8,469.2,206.2z"/>
			<g>
				<path class="st6" d="M424.4,217.6l-8.5-1.6c-0.6-0.1-1-0.7-0.9-1.3l1.6-8.6c0.1-0.6,0.7-1,1.3-0.9l8.5,1.6
					c0.7,0.2,1.1,0.8,0.9,1.3l-1.6,8.6C425.6,217.3,425,217.7,424.4,217.6z"/>
			</g>
			<path class="st6" d="M422.1,217.2l-7.4-1.4c-0.9-0.2-1.6-1.1-1.4-2l1.4-7.4c0.2-0.9,1.1-1.6,2-1.4l7.4,1.4c0.9,0.2,1.6,1.1,1.4,2
				l-1.4,7.4C424,216.8,423.1,217.4,422.1,217.2z"/>
			<path class="st7" d="M421.3,212.7l-0.7-0.1l-0.2,0.9l-1-0.2l0.2-0.9l-2.4-0.5l0.1-0.7l2.7-2.4l1.1,0.2l-2.5,2.3l1.2,0.2l0.2-0.8
				l1,0.2l-0.2,0.8l0.7,0.1L421.3,212.7z"/>
			<path class="st9" d="M438.9,220.4l-7.4-1.4c-0.9-0.2-1.6-1.1-1.4-2l1.4-7.4c0.2-0.9,1.1-1.6,2-1.4l7.4,1.4c0.9,0.2,1.6,1.1,1.4,2
				l-1.4,7.4C440.7,220,439.8,220.6,438.9,220.4z"/>
			<g>
				<path class="st6" d="M438.9,220.4l-7.4-1.4c-0.9-0.2-1.6-1.1-1.4-2l1.4-7.4c0.2-0.9,1.1-1.6,2-1.4l7.4,1.4
					c0.9,0.2,1.6,1.1,1.4,2l-1.4,7.4C440.7,220,439.8,220.6,438.9,220.4z"/>
			</g>
			<path class="st6" d="M437.2,220.1l-7.4-1.4c-0.9-0.2-1.6-1.1-1.4-2l1.4-7.4c0.2-0.9,1.1-1.6,2-1.4l7.4,1.4c0.9,0.2,1.6,1.1,1.4,2
				l-1.4,7.4C439,219.6,438.1,220.2,437.2,220.1z"/>
			<path class="st7" d="M436.3,215.1c-0.2,0.8-0.9,1.4-2.2,1.1c-0.6-0.1-1.2-0.4-1.6-0.8l0.6-0.7c0.3,0.3,0.7,0.6,1.2,0.7
				c0.5,0.1,0.9-0.1,1-0.4c0.1-0.4-0.1-0.6-0.9-0.8l-1.2-0.2l0.7-2.5l2.7,0.5l-0.2,0.8l-1.9-0.4l-0.2,0.8l0.4,0.1
				C436,213.6,436.4,214.3,436.3,215.1z"/>
			<path class="st9" d="M454.5,223.4l-7.4-1.4c-0.9-0.2-1.6-1.1-1.4-2l1.4-7.4c0.2-0.9,1.1-1.6,2-1.4l7.4,1.4c0.9,0.2,1.6,1.1,1.4,2
				l-1.4,7.4C456.3,222.9,455.4,223.6,454.5,223.4z"/>
			<g>
				<path class="st6" d="M454.5,223.4l-7.4-1.4c-0.9-0.2-1.6-1.1-1.4-2l1.4-7.4c0.2-0.9,1.1-1.6,2-1.4l7.4,1.4
					c0.9,0.2,1.6,1.1,1.4,2l-1.4,7.4C456.3,222.9,455.4,223.6,454.5,223.4z"/>
			</g>
			<path class="st6" d="M452.8,223.1l-7.4-1.4c-0.9-0.2-1.6-1.1-1.4-2l1.4-7.4c0.2-0.9,1.1-1.6,2-1.4l7.4,1.4c0.9,0.2,1.6,1.1,1.4,2
				l-1.4,7.4C454.7,222.6,453.7,223.2,452.8,223.1z"/>
			<path class="st7" d="M452.2,218.2c-0.2,0.9-1,1.4-2,1.2c-1.2-0.2-1.9-1.2-1.6-2.6c0.3-1.6,1.4-2.2,2.8-2c0.5,0.1,0.9,0.3,1.2,0.6
				L452,216c-0.2-0.2-0.5-0.3-0.8-0.4c-0.8-0.1-1.3,0.2-1.5,1.1c0.3-0.2,0.7-0.3,1.2-0.2C451.8,216.6,452.4,217.3,452.2,218.2z
				 M451.2,218c0.1-0.4-0.2-0.7-0.6-0.8c-0.5-0.1-0.8,0.1-0.9,0.5s0.2,0.7,0.7,0.8C450.7,218.6,451.1,218.4,451.2,218z"/>
			<path class="st9" d="M470.1,226.4l-7.4-1.4c-0.9-0.2-1.6-1.1-1.4-2l1.4-7.4c0.2-0.9,1.1-1.6,2-1.4l7.4,1.4c0.9,0.2,1.6,1.1,1.4,2
				l-1.4,7.4C471.9,225.9,471,226.6,470.1,226.4z"/>
			<g>
				<path class="st6" d="M470.1,226.4l-7.4-1.4c-0.9-0.2-1.6-1.1-1.4-2l1.4-7.4c0.2-0.9,1.1-1.6,2-1.4l7.4,1.4
					c0.9,0.2,1.6,1.1,1.4,2l-1.4,7.4C471.9,225.9,471,226.6,470.1,226.4z"/>
			</g>
			<path class="st6" d="M468.4,226.1l-7.4-1.4c-0.9-0.2-1.6-1.1-1.4-2l1.4-7.4c0.2-0.9,1.1-1.6,2-1.4l7.4,1.4c0.9,0.2,1.6,1.1,1.4,2
				l-1.4,7.4C470.3,225.6,469.4,226.2,468.4,226.1z"/>
			<path class="st7" d="M467.7,218.4l-4.1,2.7l0.2,0.3l4.1-2.7L467.7,218.4z"/>
			<path class="st7" d="M464.6,217.8l-0.3,0.2l2.8,4.1l0.3-0.2L464.6,217.8z"/>
			<path class="st9" d="M420.8,233.2l-7.4-1.4c-0.9-0.2-1.6-1.1-1.4-2l1.4-7.4c0.2-0.9,1.1-1.6,2-1.4l7.4,1.4c0.9,0.2,1.6,1.1,1.4,2
				l-1.4,7.4C422.7,232.8,421.7,233.4,420.8,233.2z"/>
			<g>
				<path class="st6" d="M420.8,233.2l-7.4-1.4c-0.9-0.2-1.6-1.1-1.4-2l1.4-7.4c0.2-0.9,1.1-1.6,2-1.4l7.4,1.4
					c0.9,0.2,1.6,1.1,1.4,2l-1.4,7.4C422.7,232.8,421.7,233.4,420.8,233.2z"/>
			</g>
			<path class="st6" d="M419.1,232.9l-7.4-1.4c-0.9-0.2-1.6-1.1-1.4-2l1.4-7.4c0.2-0.9,1.1-1.6,2-1.4l7.4,1.4c0.9,0.2,1.6,1.1,1.4,2
				l-1.4,7.4C421,232.4,420.1,233.1,419.1,232.9z"/>
			<path class="st7" d="M418.4,224.8l-0.1,0.7l-2.4,3.5l-1.1-0.2l2.3-3.3l-1.5-0.3l-0.1,0.7l-0.9-0.2l0.3-1.6L418.4,224.8z"/>
			<path class="st9" d="M435.9,236.1l-7.4-1.4c-0.9-0.2-1.6-1.1-1.4-2l1.4-7.4c0.2-0.9,1.1-1.6,2-1.4l7.4,1.4c0.9,0.2,1.6,1.1,1.4,2
				l-1.4,7.4C437.7,235.7,436.8,236.3,435.9,236.1z"/>
			<g>
				<path class="st6" d="M435.9,236.1l-7.4-1.4c-0.9-0.2-1.6-1.1-1.4-2l1.4-7.4c0.2-0.9,1.1-1.6,2-1.4l7.4,1.4
					c0.9,0.2,1.6,1.1,1.4,2l-1.4,7.4C437.7,235.7,436.8,236.3,435.9,236.1z"/>
			</g>
			<path class="st6" d="M434.2,235.8l-7.4-1.4c-0.9-0.2-1.6-1.1-1.4-2l1.4-7.4c0.2-0.9,1.1-1.6,2-1.4l7.4,1.4c0.9,0.2,1.6,1.1,1.4,2
				l-1.4,7.4C436,235.3,435.1,235.9,434.2,235.8z"/>
			<path class="st7" d="M433.6,231c-0.2,0.9-1,1.2-2.2,1c-1.1-0.2-1.8-0.9-1.6-1.7c0.1-0.5,0.4-0.8,0.9-0.9c-0.3-0.3-0.4-0.6-0.3-1
				c0.2-0.8,1-1.2,2-1s1.6,0.8,1.5,1.6c-0.1,0.4-0.3,0.7-0.7,0.8C433.5,230.1,433.7,230.5,433.6,231z M432.6,230.8
				c0.1-0.4-0.2-0.7-0.7-0.8s-0.9,0.1-1,0.5s0.2,0.7,0.7,0.8C432.1,231.3,432.5,231.2,432.6,230.8z M431.4,228.5
				c-0.1,0.3,0.2,0.6,0.6,0.7c0.4,0.1,0.8-0.1,0.8-0.4c0.1-0.4-0.2-0.6-0.6-0.7C431.8,228,431.5,228.2,431.4,228.5z"/>
			<path class="st9" d="M451.5,239.1l-7.4-1.4c-0.9-0.2-1.6-1.1-1.4-2l1.4-7.4c0.2-0.9,1.1-1.6,2-1.4l7.4,1.4c0.9,0.2,1.6,1.1,1.4,2
				l-1.4,7.4C453.3,238.6,452.4,239.3,451.5,239.1z"/>
			<g>
				<path class="st6" d="M451.5,239.1l-7.4-1.4c-0.9-0.2-1.6-1.1-1.4-2l1.4-7.4c0.2-0.9,1.1-1.6,2-1.4l7.4,1.4
					c0.9,0.2,1.6,1.1,1.4,2l-1.4,7.4C453.3,238.6,452.4,239.3,451.5,239.1z"/>
			</g>
			<path class="st6" d="M449.8,238.8l-7.4-1.4c-0.9-0.2-1.6-1.1-1.4-2l1.4-7.4c0.2-0.9,1.1-1.6,2-1.4l7.4,1.4c0.9,0.2,1.6,1.1,1.4,2
				l-1.4,7.4C451.7,238.3,450.7,238.9,449.8,238.8z"/>
			<path class="st7" d="M449.3,232.9c-0.3,1.6-1.4,2.2-2.8,2c-0.5-0.1-0.9-0.3-1.2-0.6l0.5-0.7c0.2,0.2,0.5,0.3,0.8,0.4
				c0.7,0.1,1.3-0.2,1.5-1.1c-0.3,0.2-0.7,0.3-1.2,0.2c-0.9-0.2-1.4-0.9-1.3-1.7c0.2-0.9,1-1.4,2-1.2
				C448.9,230.5,449.5,231.4,449.3,232.9z M448.2,231.9c0.1-0.4-0.2-0.7-0.7-0.8c-0.4-0.1-0.8,0.1-0.9,0.5s0.2,0.7,0.6,0.8
				C447.8,232.5,448.2,232.3,448.2,231.9z"/>
			<path class="st9" d="M467.1,242.1l-7.4-1.4c-0.9-0.2-1.6-1.1-1.4-2l1.4-7.4c0.2-0.9,1.1-1.6,2-1.4l7.4,1.4c0.9,0.2,1.6,1.1,1.4,2
				l-1.4,7.4C468.9,241.6,468,242.2,467.1,242.1z"/>
			<g>
				<path class="st6" d="M467.1,242.1l-7.4-1.4c-0.9-0.2-1.6-1.1-1.4-2l1.4-7.4c0.2-0.9,1.1-1.6,2-1.4l7.4,1.4
					c0.9,0.2,1.6,1.1,1.4,2l-1.4,7.4C468.9,241.6,468,242.2,467.1,242.1z"/>
			</g>
			<path class="st6" d="M465.4,241.8l-7.4-1.4c-0.9-0.2-1.6-1.1-1.4-2l1.4-7.4c0.2-0.9,1.1-1.6,2-1.4l7.4,1.4c0.9,0.2,1.6,1.1,1.4,2
				l-1.4,7.4C467.3,241.3,466.4,241.9,465.4,241.8z"/>
			<path class="st7" d="M460.4,235l-0.1,0.4l4.8,0.9l0.1-0.4L460.4,235z"/>
			<path class="st9" d="M448.4,254.9l-7.4-1.4c-0.9-0.2-1.6-1.1-1.4-2l1.4-7.4c0.2-0.9,1.1-1.6,2-1.4l7.4,1.4c0.9,0.2,1.6,1.1,1.4,2
				l-1.4,7.4C450.3,254.5,449.4,255.1,448.4,254.9z"/>
			<g>
				<path class="st6" d="M448.4,254.9l-7.4-1.4c-0.9-0.2-1.6-1.1-1.4-2l1.4-7.4c0.2-0.9,1.1-1.6,2-1.4l7.4,1.4
					c0.9,0.2,1.6,1.1,1.4,2l-1.4,7.4C450.3,254.5,449.4,255.1,448.4,254.9z"/>
			</g>
			<path class="st6" d="M446.8,254.6l-7.4-1.4c-0.9-0.2-1.6-1.1-1.4-2l1.4-7.4c0.2-0.9,1.1-1.6,2-1.4l7.4,1.4c0.9,0.2,1.6,1.1,1.4,2
				l-1.4,7.4C448.6,254.1,447.7,254.8,446.8,254.6z"/>
			<path class="st10" d="M464.1,257.9l-7.4-1.4c-0.9-0.2-1.6-1.1-1.4-2l1.4-7.4c0.2-0.9,1.1-1.6,2-1.4l7.4,1.4
				c0.9,0.2,1.6,1.1,1.4,2l-1.4,7.4C465.9,257.5,465,258.1,464.1,257.9z"/>
			<g>
				<path class="st6" d="M464.1,257.9l-7.4-1.4c-0.9-0.2-1.6-1.1-1.4-2l1.4-7.4c0.2-0.9,1.1-1.6,2-1.4l7.4,1.4
					c0.9,0.2,1.6,1.1,1.4,2l-1.4,7.4C465.9,257.5,465,258.1,464.1,257.9z"/>
			</g>
			<path class="st5" d="M462.4,257.6l-7.4-1.4c-0.9-0.2-1.6-1.1-1.4-2l1.4-7.4c0.2-0.9,1.1-1.6,2-1.4l7.4,1.4c0.9,0.2,1.6,1.1,1.4,2
				l-1.4,7.4C464.2,257.1,463.3,257.8,462.4,257.6z"/>
			<path class="st7" d="M457.5,250.2l-0.1,0.4l4.8,0.9l0.1-0.4L457.5,250.2z"/>
			<path class="st7" d="M457.1,252l-0.1,0.4l4.8,0.9l0.1-0.4L457.1,252z"/>
			<path class="st6" d="M430.4,251.6l-22-4.2c-1.1-0.2-1.9-1.3-1.7-2.4l1.3-7c0.2-1.1,1.3-1.9,2.4-1.7l22,4.2
				c1.1,0.2,1.9,1.3,1.7,2.4l-1.3,7C432.7,251.1,431.6,251.8,430.4,251.6z"/>
			<path class="st7" d="M419.6,243.6c0.3-1.5,1.3-2.2,2.4-2s1.8,1.2,1.5,2.7s-1.3,2.2-2.4,2C419.9,246,419.3,245,419.6,243.6z
				 M422.4,244.1c0.2-1-0.1-1.5-0.6-1.6s-1,0.3-1.2,1.3s0.1,1.5,0.6,1.6C421.7,245.5,422.2,245.1,422.4,244.1z"/>
			<path class="st7" d="M444.4,246l-1,4.8l0.4,0.1l1-4.8L444.4,246z"/>
			<path class="st7" d="M441.7,247.8l-0.1,0.4l4.8,0.9l0.1-0.4L441.7,247.8z"/>
			<path class="st6" d="M446.1,171.1l-1.3,6.7l-0.3-0.1l1.2-6.4L444,171l0.1-0.3L446.1,171.1z"/>
			<path class="st6" d="M451.1,178.7L451,179l-4.6-0.9v-0.2l3.4-2.4c1-0.7,1.3-1.1,1.4-1.7c0.2-0.9-0.3-1.6-1.5-1.8
				c-0.9-0.2-1.6,0-2.2,0.4l-0.2-0.3c0.6-0.5,1.4-0.7,2.4-0.5c1.3,0.2,2,1.1,1.8,2.2c-0.1,0.6-0.4,1.2-1.5,1.9l-3.1,2.1L451.1,178.7
				z"/>
			<path class="st6" d="M456.5,178.1c-0.2,1.1-1.2,1.8-2.6,1.5c-1-0.2-1.8-0.8-2.2-1.4l0.2-0.2c0.3,0.6,1,1.1,2,1.3
				c1.3,0.3,2.1-0.3,2.3-1.2c0.2-1-0.3-1.7-1.8-2L454,176v-0.2l2.6-2.3l-3.7-0.7l0.1-0.3l4.1,0.8v0.2l-2.6,2.3
				C456.1,176.1,456.7,177,456.5,178.1z"/>
			<path class="st6" d="M463.2,179.3l-1.5-0.3l-0.4,1.9l-0.3-0.1l0.4-1.9l-3.9-0.7V178l4.6-3.8l0.4,0.1L458,178l3.4,0.7l0.3-1.7
				l0.3,0.1l-0.3,1.7l1.5,0.3L463.2,179.3z"/>
			<path class="st6" d="M464.4,181.3c0,0.1-0.1,0.2-0.1,0.3l-0.6,1.2h-0.2l0.6-1.3c-0.2-0.1-0.3-0.2-0.2-0.4c0-0.2,0.2-0.3,0.4-0.3
				C464.4,180.9,464.4,181.1,464.4,181.3z"/>
			<path class="st6" d="M471.2,180.8l-1.5-0.3l-0.4,1.9l-0.3-0.1l0.4-1.9l-3.9-0.7v-0.2l4.6-3.8l0.4,0.1l-4.5,3.8l3.4,0.7l0.3-1.7
				l0.3,0.1l-0.3,1.7L471.2,180.8L471.2,180.8z"/>
			<path class="st6" d="M476.2,181.8c-0.2,1.1-1.1,1.8-2.7,1.5c-1-0.2-1.8-0.7-2.1-1.4l0.2-0.2c0.3,0.6,1,1.1,2,1.3
				c1.3,0.2,2.1-0.3,2.3-1.3c0.2-1-0.3-1.8-2.2-2.1l-1.3-0.2l1-3.1l3.5,0.7l-0.1,0.3l-3.2-0.6l-0.8,2.5l1,0.2
				C475.9,179.8,476.4,180.7,476.2,181.8z"/>
			<path class="st3" d="M340.3,86.3H154.2v124.2h186.1V86.3z"/>
			<path class="st5" d="M219.4,130.7h-30.6V143h30.6V130.7z"/>
			<path class="st5" d="M311.2,130.7h-30.6V143h30.6V130.7z"/>
			<path class="st5" d="M311.2,155.1h-30.6v12.3h30.6V155.1z"/>
			<path class="st5" d="M311.2,167.3h-30.6v12.3h30.6V167.3z"/>
			<path class="st6" d="M250,155.4h-30.6v12.3H250V155.4z"/>
			<path class="st6" d="M280.6,167.8H250v12.3h30.6V167.8z"/>
			<path class="st2" d="M250,192.2h-30.6V205H250V192.2z"/>
			<path class="st5" d="M311.2,192.4h-30.6v12.3h30.6V192.4z"/>
			<path class="st4" d="M334.7,118.7H169.4v12h165.3V118.7z"/>
			<path class="st4" d="M188.8,118.7h-29v86.5h29V118.7z"/>
			<path class="st4" d="M189.2,205.6h-29.8v-87.3h29.8V205.6z M160.2,204.8h28.2v-85.7h-28.2V204.8z"/>
			<path class="st5" d="M340.3,86.3H154.2v14.1h186.1V86.3z"/>
			<path class="st2" d="M188.8,105.5h-28.7v8.1h28.7V105.5z"/>
			<path class="st2" d="M219.8,105.5h-27.6v8.1h27.6V105.5z"/>
			<path class="st2" d="M250.1,105.5h-27.6v8.1h27.6V105.5z"/>
			<path class="st2" d="M280.4,105.5h-27.6v8.1h27.6V105.5z"/>
			<path class="st2" d="M310.7,105.5H283v8.1h27.6v-8.1H310.7z"/>
			<path class="st2" d="M336.1,105.5h-22.7v8.1h22.7V105.5z"/>
			<path class="st6" d="M159.8,205c0,0,0.3,0,0.9,0c0.6,0,1.4,0,2.5,0c2.2,0,5.5,0,9.7,0c8.4,0,20.7,0,36.2-0.1
				c31,0,74.7-0.1,125.7-0.1l-0.2,0.2c0-26.7,0-55.8,0-86.2l0,0l0.2,0.2c-67.6,0-129.1,0-174.9-0.1l0.2-0.2c0,26.6-0.1,48.1-0.1,63
				c0,7.5,0,13.3,0,17.2c0,2,0,3.5,0,4.5C159.8,204.4,159.8,205,159.8,205s0-0.5,0-1.5s0-2.5,0-4.5c0-3.9,0-9.7,0-17.2
				c0-14.9-0.1-36.5-0.1-63.1v-0.2h0.2c45.8,0,107.3,0,174.9-0.1h0.2v0.2l0,0c0,30.4,0,59.6,0,86.2v0.2h-0.2
				c-51.1,0-94.8-0.1-125.8-0.1c-15.5,0-27.8,0-36.2-0.1c-4.2,0-7.4,0-9.6,0c-1.1,0-1.9,0-2.5,0C160.1,205,159.8,205,159.8,205z"/>
			<path class="st6" d="M335,130.7c0,0.1-39.2,0.2-87.5,0.2s-87.5-0.1-87.5-0.2c0-0.1,39.1-0.2,87.5-0.2S335,130.6,335,130.7z"/>
			<path class="st6" d="M335,143c0,0.1-39.2,0.2-87.5,0.2S160,143.1,160,143c0-0.1,39.1-0.2,87.5-0.2S335,142.9,335,143z"/>
			<path class="st6" d="M335,155.3c0,0.1-39.2,0.2-87.5,0.2s-87.5-0.1-87.5-0.2c0-0.1,39.1-0.2,87.5-0.2S335,155.2,335,155.3z"/>
			<path class="st6" d="M335,167.6c0,0.1-39.2,0.2-87.5,0.2s-87.5-0.1-87.5-0.2s39.1-0.2,87.5-0.2C295.9,167.4,335,167.5,335,167.6z
				"/>
			<path class="st6" d="M335,179.9c0,0.1-39.2,0.2-87.5,0.2S160,180,160,179.9c0-0.1,39.1-0.2,87.5-0.2S335,179.8,335,179.9z"/>
			<path class="st6" d="M335,192.2c0,0.1-39.2,0.2-87.5,0.2s-87.5-0.1-87.5-0.2s39.1-0.2,87.5-0.2S335,192.1,335,192.2z"/>
			<path class="st6" d="M188.8,205.2c-0.1,0-0.2-19.3-0.2-43c0-23.8,0.1-43,0.2-43c0.1,0,0.2,19.2,0.2,43S188.9,205.2,188.8,205.2z"
				/>
			<path class="st6" d="M219.4,205c-0.1,0-0.2-19.2-0.2-42.9s0.1-42.9,0.2-42.9c0.1,0,0.2,19.2,0.2,42.9
				C219.6,185.8,219.5,205,219.4,205z"/>
			<path class="st6" d="M250,205.2c-0.1,0-0.2-19.3-0.2-43c0-23.8,0.1-43,0.2-43c0.1,0,0.2,19.2,0.2,43S250.1,205.2,250,205.2z"/>
			<path class="st6" d="M280.6,205.2c-0.1,0-0.2-19.3-0.2-43c0-23.8,0.1-43,0.2-43s0.2,19.2,0.2,43
				C280.8,186,280.7,205.2,280.6,205.2z"/>
			<path class="st6" d="M311.2,205.2c-0.1,0-0.2-19.3-0.2-43c0-23.8,0.1-43,0.2-43s0.2,19.2,0.2,43
				C311.5,186,311.4,205.2,311.2,205.2z"/>
			<path class="st7" d="M165.1,93.4c0,1-0.8,1.8-1.8,1.8s-1.8-0.8-1.8-1.8s0.8-1.8,1.8-1.8C164.3,91.5,165.1,92.3,165.1,93.4z"/>
			<path class="st7" d="M171.1,93.4c0,1-0.8,1.8-1.8,1.8s-1.8-0.8-1.8-1.8s0.8-1.8,1.8-1.8S171.1,92.3,171.1,93.4z"/>
			<path class="st7" d="M177.2,93.4c0,1-0.8,1.8-1.8,1.8s-1.8-0.8-1.8-1.8s0.8-1.8,1.8-1.8S177.2,92.3,177.2,93.4z"/>
			<path class="st6" d="M340.3,210.5c0-1.4-0.1-48.5-0.2-124.2l0.2,0.2c-51.2,0-116,0-186.1,0l0,0l0.2-0.2c0,44.2,0,86.3,0,124.2
				l-0.2-0.2c54.8,0,101.3,0.1,134.1,0.1c16.4,0,29.4,0,38.3,0.1c4.4,0,7.9,0,10.2,0c1.2,0,2,0,2.6,0
				C340,210.5,340.3,210.5,340.3,210.5s-0.3,0-0.9,0s-1.5,0-2.6,0c-2.3,0-5.7,0-10.1,0c-8.9,0-21.9,0-38.3,0.1
				c-32.8,0-79.4,0.1-134.2,0.1H154v-0.2c0-37.9,0-79.9,0-124.2v-0.2h0.2l0,0c70.1,0,134.9,0,186.1,0h0.2v0.2
				C340.4,162,340.3,209.1,340.3,210.5z"/>
			<path class="st5" d="M325.5,233.2l-9.6,12l-40.3,11.2l6,65c1.9,25.5,4.5,31.7,6.3,48.7v13.8h114.3l16-132.1l-39.4-9.1l-8.5-9.7
				L325.5,233.2L325.5,233.2z"/>
			<path class="st7" d="M323.8,256.4l4.9,65.1l5.3,33.1l38.7-107.9l-31.2,37L323.8,256.4z"/>
			<path class="st6" d="M333.4,359.3c0,0,0-0.1,0.2-0.3c0.1-0.2,0.3-0.5,0.5-0.9c0.4-0.8,1.1-2,1.9-3.5c1.7-3,4.1-7.4,7-12.7
				c6-10.7,14.3-25.5,23.4-41.9c4.5-8.1,8.8-15.7,12.8-22.7v0.3c-1.9-1.6-3.8-3.2-5.6-4.7l-0.2-0.2l0.2-0.1c2.8-1.7,5.4-3.2,7.9-4.7
				l-0.1,0.2c-0.9-7.7-1.6-14-2.1-18.4c-0.2-2.2-0.4-3.9-0.5-5c-0.1-0.6-0.1-1-0.1-1.3s0-0.5,0-0.5s0,0.2,0.1,0.4
				c0,0.3,0.1,0.8,0.2,1.3c0.2,1.2,0.4,2.9,0.6,5c0.5,4.4,1.3,10.7,2.2,18.4v0.1l-0.1,0.1c-2.5,1.5-5.1,3-7.9,4.7v-0.3
				c1.8,1.5,3.6,3.1,5.6,4.7l0.1,0.1l-0.1,0.1c-3.9,7-8.2,14.7-12.7,22.7c-9.2,16.3-17.5,31.1-23.5,41.8c-3,5.3-5.5,9.6-7.2,12.7
				c-0.8,1.5-1.5,2.6-2,3.4c-0.2,0.4-0.4,0.7-0.5,0.9C333.5,359.2,333.4,359.3,333.4,359.3z"/>
			<path class="st6" d="M333.4,359.3c0,0,0-0.1-0.1-0.3c-0.1-0.2-0.2-0.5-0.3-0.9c-0.2-0.8-0.6-2-1.1-3.5c-0.9-3.1-2.2-7.5-3.8-12.9
				c-1.6-5.5-3.5-11.9-5.5-19.2c-1.9-7.3-3.6-15.4-5.5-23.8c-2.5-11.6-4.9-22.5-6.8-31.7v-0.2h0.1c1.8-0.6,3.6-1.3,5.3-1.8v0.3
				c-2.3-1.2-4.4-2.4-6.4-3.4l-0.1-0.1l0.1-0.1c2-5.1,3.6-9.1,4.8-12c0.6-1.4,1-2.5,1.3-3.2c0.1-0.4,0.3-0.6,0.4-0.8
				s0.1-0.3,0.1-0.3s0,0.1-0.1,0.3s-0.2,0.5-0.3,0.9c-0.3,0.8-0.7,1.9-1.2,3.3c-1.1,2.9-2.7,7-4.6,12l-0.1-0.2c2,1,4.1,2.1,6.4,3.4
				l0.4,0.2l-0.4,0.1c-1.7,0.6-3.4,1.2-5.3,1.9l0.1-0.2c2,9.2,4.3,20.1,6.8,31.7c1.9,8.5,3.6,16.6,5.5,23.8c2,7.2,3.9,13.8,5.4,19.2
				c1.5,5.5,2.8,9.9,3.6,13c0.4,1.5,0.7,2.7,1,3.5c0.1,0.4,0.2,0.7,0.2,0.9C333.4,359.2,333.4,359.3,333.4,359.3z"/>
			<path class="st5" d="M275.6,256.4c0,0-8.9,4.3-15.1,24.2c-4.5,14.4-23,64.1-23,64.1l-20.4-6c0,0-15,18.7-11.6,25.2
				s28.3,20,28.3,20h29.1c4-3.1,6.9-7.3,8.3-12.1l16.7-56.1L275.6,256.4z"/>
			<path class="st5" d="M418.2,251.9c0,0,7.7,4.1,12.8,13.2s45.7,75.1,49,90.8c5,23.4-5,28.1-5,28.1h-14l-34.7-0.2l-4.4-27.2
				l15.4-3.3l-28.6-31.7l-1.9,3.2l-5.6-45.3L418.2,251.9z"/>
			<path class="st6" d="M279.3,283.7c0.1,0,1.2,11.2,2.3,25.1c1.2,13.9,2,25.1,1.9,25.1s-1.2-11.2-2.3-25.1
				C280,294.9,279.1,283.7,279.3,283.7z"/>
			<path class="st6" d="M416.1,271.1c0.1,0-1.5,14-3.6,31.3s-3.9,31.3-4,31.3s1.5-14,3.6-31.3S416,271.1,416.1,271.1z"/>
			<path class="st6" d="M426.7,384c0,0,0.1-0.2,0.4-0.5c0.2-0.3,0.6-0.8,1-1.5c0.8-1.3,1.9-3.4,2.7-6.1c0.4-1.3,0.8-2.9,1-4.5
				s0.4-3.4,0.2-5.2c-0.2-1.8-0.8-3.7-1.9-5.4c-1.1-1.7-2.6-3.2-4.4-4.3c-0.1-0.1-0.3-0.2-0.4-0.2l-0.5-0.2l0.5-0.2
				c8.2-2.4,15.9-3.6,21.4-4c2.8-0.2,5-0.3,6.6-0.4c0.8,0,1.4,0,1.8,0s0.6,0,0.6,0s-0.2,0-0.6,0.1c-0.5,0-1,0.1-1.8,0.1
				c-1.6,0.1-3.8,0.3-6.6,0.5c-5.5,0.5-13.2,1.7-21.4,4.1v-0.4c0.1,0.1,0.3,0.2,0.4,0.2c1.9,1.2,3.4,2.7,4.5,4.4
				c1.1,1.7,1.8,3.7,2,5.6s0,3.7-0.3,5.3c-0.2,1.7-0.6,3.2-1,4.5c-0.8,2.7-2,4.8-2.8,6.1c-0.4,0.7-0.8,1.1-1.1,1.4
				C426.9,383.8,426.7,384,426.7,384z"/>
			<path class="st6" d="M333.5,384c-0.1,0-0.2-5.6-0.2-12.5s0.1-12.5,0.2-12.5s0.2,5.6,0.2,12.5S333.6,384,333.5,384z"/>
			<path class="st6" d="M398.7,328.5c0,0,0-0.2,0-0.6s0-1,0-1.7c0-1.5,0-3.6-0.1-6.2l0.1,0.1c-7.8,0-20.4,0.1-34.6,0.1
				c0.1-0.1-0.2,0.2,0.2-0.2l0,0l0,0l0,0l0,0v0.1v0.1v0.3v0.5v1.1c0,0.7,0,1.4,0,2.1c0,1.4,0,2.8,0,4.2l-0.2-0.2
				c9.8,0,18.4,0.1,24.6,0.1c3.1,0,5.5,0,7.3,0.1c0.8,0,1.5,0,2,0c0.2,0,0.4,0,0.5,0C398.6,328.5,398.7,328.5,398.7,328.5
				s-0.2,0-0.7,0s-1.1,0-1.9,0c-1.7,0-4.2,0-7.2,0.1c-6.2,0-14.9,0.1-24.8,0.1h-0.2v-0.2c0-1.4,0-2.8,0-4.2c0-0.7,0-1.4,0-2.1v-1.1
				v-0.5v-0.3v-0.1v-0.1l0,0l0,0l0,0l0,0c0.4-0.4,0.1-0.1,0.2-0.2c14.2,0,26.8,0.1,34.6,0.1h0.1v0.1c0,2.7-0.1,4.8-0.1,6.3
				c0,0.7,0,1.2,0,1.6C398.7,328.3,398.7,328.5,398.7,328.5z"/>
			<path class="st6" d="M279.3,279.9c-0.1,0-1.3-4.8-2.5-10.8c-1.3-6-2.2-10.8-2.1-10.9s1.3,4.8,2.5,10.8S279.4,279.9,279.3,279.9z"
				/>
			<g>
				<path class="st6" d="M335.3,355.8l49.4-75.8l-7.1-6.9l4.1-5.2l-7.9,4.7l5.6,4.7L335.3,355.8z"/>
			</g>
			<g>
				<path class="st6" d="M213.4,358.4v4.2l56,0.2v-4.4L213.4,358.4L213.4,358.4z"/>
			</g>
			<path class="st6" d="M281.7,203.6c3,0.4,6.1-1,7.8-3.5c-2,0.3-4.2,0.6-6-0.3c-1.8-0.9-2.8-3.6-1.4-5.1c1.1-1.1,2.9-0.9,4.5-1.1
				c3.7-0.3,7.1-2.9,8.3-6.4c1.3-3.9,0.1-8.1-0.4-12.1c-1.4-11.8,4.2-24.1,14-30.8l25.4-14.7c9.2,11.8,12.1,27.7,10.2,42.5
				s-8.2,28.8-15.8,41.7c-2.2,3.8-4.5,7.5-7.7,10.5c-3.1,3.1-7.1,5.4-11.4,5.9c-1.1-3.6-0.4-7.7,1.9-10.6
				c-6.9,0.4-13.9-2.1-18.9-6.8c1.8-1.4,3.6-2.8,5.4-4.2C291.9,209.5,285.9,207.6,281.7,203.6z"/>
			<path class="st11" d="M379.4,162.2c-0.5-10.6-7.1-19.5-17.3-22.4l-31.8-9.1c-13.8-1.9-23.5,14.9-24.8,28.8
				c-1.5,15.4-2.5,31.7-1.1,43.3c3,23.3,20.6,26.8,20.6,26.8s-0.6,21-0.8,27.8l16.2,33.9l31.4-43.3l7.6-85.4
				C379.5,162.1,379.4,162.7,379.4,162.2z"/>
			<path class="st6" d="M311.6,178.7c-0.1,1.6,1.1,2.9,2.8,3.1c1.6,0.1,3-1,3.1-2.6s-1.1-2.9-2.8-3.1
				C313.1,175.9,311.7,177.1,311.6,178.7z"/>
			<path class="st6" d="M308.7,168.6c0.4,0.4,2.7-1.2,5.9-1.1c3.2,0.1,5.5,1.8,5.9,1.4c0.2-0.2-0.2-0.9-1.2-1.7s-2.7-1.5-4.7-1.6
				s-3.7,0.6-4.7,1.4C308.9,167.8,308.5,168.5,308.7,168.6z"/>
			<path class="st6" d="M338.6,178.7c-0.1,1.6,1.1,2.9,2.8,3.1c1.6,0.1,3-1,3.1-2.6s-1.1-2.9-2.8-3.1
				C340.2,175.9,338.7,177.1,338.6,178.7z"/>
			<path class="st6" d="M339.1,169.5c0.4,0.4,2.7-1.2,5.9-1.1c3.2,0.1,5.5,1.8,5.9,1.4c0.2-0.2-0.2-0.9-1.2-1.7s-2.7-1.5-4.7-1.6
				s-3.7,0.6-4.7,1.4C339.3,168.6,338.9,169.3,339.1,169.5z"/>
			<path class="st6" d="M328.4,194.4c0-0.2-2-0.6-5.2-1.1c-0.8-0.1-1.6-0.3-1.7-0.9c-0.2-0.6,0.2-1.5,0.6-2.4c0.8-2,1.7-4,2.6-6.1
				c3.6-8.8,6.3-16,5.9-16.1c-0.3-0.1-3.6,6.8-7.2,15.6c-0.9,2.2-1.7,4.2-2.5,6.2c-0.3,0.9-0.9,2-0.5,3.2c0.2,0.6,0.8,1.1,1.3,1.2
				c0.5,0.2,1,0.2,1.4,0.2C326.3,194.5,328.3,194.5,328.4,194.4z"/>
			<path class="st6" d="M356,222.2c0,0-8,15.7-31.1,12.8l0.1-5.5C325.1,229.6,340.3,231,356,222.2z"/>
			<path class="st6" d="M340.4,159.2c0.3,0.9,3.5,0.6,7.2,1.1s6.7,1.7,7.3,0.9c0.2-0.4-0.3-1.2-1.5-2.1c-1.2-0.9-3.1-1.7-5.3-2.1
				c-2.2-0.3-4.3,0-5.7,0.5C341,158.1,340.3,158.8,340.4,159.2z"/>
			<path class="st6" d="M310,158.9c0.5,0.7,2.8,0.1,5.4,0.1c2.7-0.1,4.9,0.6,5.4-0.1c0.2-0.4-0.1-1.1-1.1-1.8
				c-0.9-0.7-2.5-1.3-4.4-1.3c-1.8,0-3.4,0.6-4.4,1.3C310.1,157.8,309.8,158.5,310,158.9z"/>
			<path class="st7" d="M340.4,200.6c-0.4-1.9-2.3-3.4-4.2-3.3c-1.4,0.1-2.7,1-3.4,2.3c-0.7,1.3-0.8,2.8-0.3,4.2l0.1,0.3
				c1.3,1.5,3.5,2.1,5.3,1.3C339.6,204.6,340.7,202.5,340.4,200.6z"/>
			<path class="st6" d="M330.1,204.1c0-0.5,3.2-0.2,5.8-2.8c2.5-2.6,2.4-6.1,2.9-6c0.2,0,0.6,0.8,0.5,2.3c-0.1,1.4-0.7,3.5-2.2,5.1
				s-3.5,2.2-4.8,2.2C330.9,204.7,330.1,204.3,330.1,204.1z"/>
			<path class="st6" d="M368.7,125.3c-3.6-5.7-12-11.6-18.7-12.8c-7.5-1.3-12.1,0-17.1,4.5c0,0-3.9,3.7-7.5,4.4
				c-3.6,0.7-6.6,0.1-11,2.3c-5.9,3-8.5,10.9-11.2,16.9c-3.4,7.5-8.2,14.4-10.5,22.3c-2.2,7.9-1,17.7,5.6,22.5
				c-1.1-6.1-2.1-12.8,0.4-18.3c-0.3,2.2-0.2,4.4,0.4,6.6c1.3-3.6,2.6-7.2,5.2-10c2.4-2.6,5.8-4.1,8.3-6.7c3.7-3.7,5.4-9.4,9.9-12.1
				c4.7-2.8,10.6-1.4,16-1.4c9.1,0,18.2-4.3,23.9-11.5l-1.4-0.1C363.7,130.4,366.2,128.2,368.7,125.3z"/>
			<path class="st6" d="M402.8,182c-2.1-6.8-5.7-13.1-8-19.8c-2.2-6.6-3.1-13.6-6.1-19.9c-4-8.4-11.4-19.4-23-18.8l-0.8,0.7
				c-3.9-0.5-8,0-11.7,1.4l-0.2,9l-2.2,2c0.9,1.8,1.8,3.5,2.7,5.2c0.7,3.4,1.6,6.7,3,9.9c1.3,3.1,3.1,6.1,5.6,8.5
				C382,208,364,211,372.9,238.4l5.7-15.7c4.8-2.8,8.8-7,11.2-12.1c0.3,1.7,0.7,3.3,1,5c4.5-4.8,7.4-11.2,7.8-17.8
				c0.9,1.6,1.7,3.2,2.6,4.8C405.2,196.7,404.9,188.8,402.8,182z"/>
			<path class="st11" d="M368.8,180.2c0.3-0.8,14.7-5.5,14.5,9.7c-0.2,14.7-15,11.4-15,11C368.2,200.5,368.8,180.2,368.8,180.2z"/>
			<path class="st6" d="M372.9,195.4c0.1,0,0.2,0.2,0.7,0.4c0.4,0.2,1.1,0.4,1.9,0.1c1.6-0.5,2.9-3,3-5.6c0.1-1.3-0.2-2.6-0.7-3.7
				c-0.4-1.1-1.1-1.9-1.9-2c-0.8-0.2-1.3,0.3-1.5,0.7s-0.1,0.7-0.2,0.7c0,0-0.3-0.2-0.2-0.9c0.1-0.3,0.2-0.6,0.6-0.9
				c0.4-0.3,0.9-0.4,1.4-0.4c1.1,0.1,2.1,1.2,2.6,2.3c0.6,1.2,0.9,2.6,0.8,4.1c-0.1,3-1.7,5.7-3.9,6.3c-1,0.2-1.9-0.1-2.3-0.4
				C372.9,195.7,372.8,195.4,372.9,195.4z"/>
			<path class="st7" d="M374.5,198c1.4-0.2,3,0.8,3.3,2.2s-0.6,3-2,3.4s-3-0.4-3.5-1.8c-0.5-1.4,0.2-3.1,1.6-3.7"/>
			<path class="st6" d="M373.8,198.2c0.1,0.1-1,0.5-1.4,1.9c-0.2,0.7-0.1,1.6,0.5,2.3s1.7,1.2,2.7,0.9s1.7-1.3,1.9-2.2
				c0.2-0.9-0.3-1.8-0.8-2.2c-1.1-1-2.2-0.8-2.2-0.9c0,0,0.2-0.1,0.7-0.1s1.2,0.2,1.8,0.7c0.7,0.5,1.3,1.5,1.1,2.7
				c-0.1,1.1-1,2.3-2.3,2.7s-2.7-0.2-3.4-1.1c-0.8-0.9-0.8-2.1-0.5-2.9c0.3-0.8,0.8-1.3,1.2-1.6
				C373.5,198.2,373.7,198.2,373.8,198.2z"/>
			<path class="st9" d="M352,140.2c0.3,0.1,1.7-4.9,5.8-9.5c4-4.7,8.8-6.7,8.6-7c0-0.1-1.3,0.2-3.1,1.2c-1.8,1-4.2,2.7-6.3,5.1
				c-2.1,2.4-3.5,5-4.2,6.9C352.1,138.9,351.9,140.2,352,140.2z"/>
			<path class="st12" d="M219.8,362.6l-11-12.9c0,0-7.7,0-11.6-3.7c-3.9-3.7-11-7.1-8.1-13.7c0,0-3.5-4.1-0.7-8.5l0.1-1.2
				c0,0-8.7-3.7-6.2-8.1s7.3-2.5,7.3-2.5s-9.5-6.4-11.2-8.2c-4.6-4.7,0.3-7.9,5.4-5c8.4,4.7,36.8,18,38.8,27.7v4.2
				c0,0,7.9,9.7,7.9,10.3C230.6,341.5,230.1,356.6,219.8,362.6z"/>
			<path class="st7" d="M164.2,265.1c-0.4-0.4,43.2,69.7,43.2,69.7l2,23.5h67.9l-6.3-26.8c0,0-11.7-31.5-11.6-31.8
				c0.3-0.7-22-35.7-22-35.7L164.2,265.1z"/>
			<path class="st6" d="M164.2,265.1c0,0,0.5,0,1.3,0c0.9,0,2.2,0,3.9-0.1c3.4-0.1,8.4-0.1,14.7-0.3c12.7-0.2,31-0.5,53.2-0.9h0.1
				l0.1,0.1c5.8,9.2,12.2,19.2,18.8,30.1c0.8,1.4,1.7,2.7,2.4,4.1c0.2,0.4,0.4,0.7,0.6,1.1c0,0.1,0.1,0.2,0.1,0.3c0,0,0,0.1,0,0.2
				s0,0.1,0,0.1l0,0v0.1l0.2,0.6c0.3,0.8,0.5,1.5,0.8,2.3c1.1,3.1,2.3,6.2,3.4,9.4c2.3,6.3,4.7,12.8,7.2,19.4l0,0l0,0
				c1.9,8.1,3.9,16.7,6,25.3c0.1,0.5,0.2,1,0.3,1.5l0.1,0.3h-0.3c-24.2,0-47.2,0-67.9,0H209v-0.2c-0.7-8.2-1.3-16.1-2-23.5v0.1
				c-13-21-23.8-38.4-31.3-50.6c-3.7-6.1-6.7-10.9-8.7-14.2c-1-1.6-1.8-2.9-2.3-3.7c-0.3-0.4-0.4-0.7-0.6-1
				C164.3,265.2,164.2,265.1,164.2,265.1c0.8,1.3,17.3,27.8,43.3,69.6l0,0l0,0c0.6,7.4,1.3,15.3,2,23.5l-0.2-0.2
				c20.8,0,43.7,0,67.9,0l-0.2,0.3c-0.1-0.5-0.2-1-0.3-1.5c-2-8.7-4-17.2-6-25.3l0,0c-2.4-6.6-4.8-13.1-7.2-19.4
				c-1.1-3.2-2.3-6.3-3.4-9.4c-0.3-0.8-0.5-1.5-0.8-2.3l-0.2-0.6v-0.1v-0.1v-0.1c-0.2-0.1,0.2,0.1,0.1,0h-0.1c-0.1,0,0,0,0,0l0,0
				c0-0.1-0.1-0.2-0.1-0.3c-0.2-0.3-0.4-0.7-0.6-1.1c-0.8-1.4-1.6-2.8-2.4-4.1c-6.6-10.9-13-20.9-18.8-30.1l0.2,0.1
				c-22.3,0.3-40.6,0.5-53.3,0.7c-6.4,0.1-11.3,0.1-14.7,0.2c-1.7,0-3,0-3.8,0C164.7,265.1,164.2,265.1,164.2,265.1z"/>
			<path class="st6" d="M253.3,301.5c0,0-0.2,0-0.6,0c-0.4,0-1,0-1.7,0c-1.6,0-3.7-0.1-6.4-0.1c-5.4-0.1-12.8-0.3-21.1-0.5
				c-8.2-0.1-15.7-0.1-21.1,0.1c-2.7,0.1-4.9,0.2-6.4,0.3c-0.7,0-1.3,0.1-1.7,0.1s-0.6,0-0.6,0s0.2,0,0.6-0.1c0.4,0,1-0.1,1.7-0.2
				c1.5-0.1,3.7-0.3,6.4-0.4c5.4-0.3,12.9-0.3,21.1-0.2c8.2,0.1,15.7,0.4,21.1,0.6c2.7,0.1,4.8,0.2,6.4,0.3c0.7,0,1.3,0.1,1.7,0.1
				C253.1,301.4,253.3,301.5,253.3,301.5z"/>
			<path class="st6" d="M261.6,332.7c0,0.1-9.6-0.9-21.5-2.3c-11.8-1.4-21.4-2.7-21.4-2.8c0-0.1,9.6,0.9,21.5,2.3
				C252.1,331.4,261.7,332.6,261.6,332.7z"/>
			<path class="st7" d="M199.1,337.5c4.2-0.3,8.5-0.5,12.7-0.8c1.3-0.1,2.8-0.2,3.7-1.2c1.2-1.2,0.6-3.9-0.9-4.7l-14.6-3.5"/>
			<path class="st6" d="M200.1,327.2c0,0,0.4,0,1.1,0.2c0.8,0.2,1.8,0.4,3.1,0.7c2.7,0.6,6.3,1.5,10.4,2.4l0,0l0,0
				c0.6,0.3,1,0.8,1.2,1.4c0.3,0.6,0.4,1.2,0.4,1.9c0,0.7-0.2,1.4-0.8,1.9c-0.5,0.5-1.1,0.7-1.7,0.9c-1.2,0.3-2.4,0.3-3.5,0.4
				c-2.2,0.1-4.2,0.2-5.9,0.3c-1.6,0.1-3,0.1-4,0.2c-0.9,0-1.5,0-1.5,0s0.5-0.1,1.5-0.2s2.3-0.2,4-0.3c1.7-0.1,3.7-0.3,5.9-0.4
				c1.1-0.1,2.3-0.1,3.4-0.4c0.6-0.1,1.1-0.4,1.5-0.8s0.6-1,0.6-1.6c0-1.1-0.5-2.3-1.4-2.9l0,0c-4.1-1-7.7-1.9-10.4-2.6
				c-1.2-0.3-2.3-0.6-3-0.8C200.5,327.4,200.1,327.3,200.1,327.2z"/>
			<path class="st7" d="M205,322.7c3.9,0.7,7.6,1.8,11.3,3.2c1.4,0.5,1.8,1.6,1.7,2.9c-0.1,0.6-0.3,1.2-0.8,1.6
				c-0.5,0.3-1.2,0.4-1.8,0.5c-3.7,0.4-7.2-0.1-10.8-0.7c-3.6-0.5-8.7,0-10.8,1.1"/>
			<path class="st6" d="M193.7,331.3c0,0,0.1-0.1,0.4-0.2c0.3-0.1,0.6-0.3,1.1-0.4c1-0.3,2.5-0.6,4.3-0.8c0.9-0.1,1.9-0.1,3-0.1
				s2.3,0.2,3.5,0.4c2.4,0.3,5.1,0.6,7.9,0.5c0.7,0,1.4-0.1,2-0.2s1.2-0.4,1.5-0.9c0.5-1.1,0.3-2.6-0.7-3.2
				c-0.5-0.3-1.1-0.5-1.6-0.7s-1.1-0.4-1.6-0.6c-1-0.4-2-0.7-2.9-0.9c-1.8-0.5-3.2-0.9-4.2-1.1s-1.6-0.4-1.6-0.4s0.1,0,0.4,0
				c0.3,0,0.7,0.1,1.2,0.2c1,0.2,2.5,0.5,4.3,1c0.9,0.3,1.9,0.5,2.9,0.9c0.5,0.2,1.1,0.4,1.6,0.6s1.1,0.4,1.7,0.7
				c0.6,0.4,1,1,1.1,1.7s0.1,1.4-0.2,2.1c-0.2,0.3-0.4,0.6-0.8,0.8c-0.3,0.2-0.7,0.3-1,0.4c-0.7,0.1-1.4,0.2-2.1,0.2
				c-2.8,0.1-5.5-0.2-8-0.6c-1.2-0.2-2.4-0.4-3.4-0.4c-1.1-0.1-2.1,0-3,0c-1.8,0.1-3.3,0.4-4.3,0.6
				C194.2,331,193.7,331.3,193.7,331.3z"/>
			<path class="st7" d="M190.4,312.1c3.3,1.9,6.7,3.7,10,5.6c1.5,0.8,3.1,1.8,4,3.2c0.9,1.5,0.8,3.7-0.6,4.7c-1.1,0.7-2.6,0.5-4,0.1
				c-3.7-0.9-7.4-2.1-11-3.5"/>
			<path class="st6" d="M188.8,322.2c0,0,0.5,0.1,1.4,0.4s2.2,0.7,3.8,1.2s3.6,1.1,5.7,1.6c1.1,0.3,2.3,0.5,3.3,0.2
				c0.5-0.2,1-0.6,1.3-1.1s0.4-1.1,0.4-1.7c0-1.2-0.7-2.3-1.6-3.1c-0.9-0.8-1.9-1.4-2.9-1.9c-1.9-1.1-3.7-2.1-5.2-2.9
				c-1.4-0.8-2.6-1.5-3.5-2c-0.8-0.5-1.3-0.8-1.2-0.8c0,0,0.5,0.2,1.3,0.6c0.9,0.5,2.1,1.1,3.5,1.9c1.5,0.8,3.3,1.8,5.2,2.9
				c1,0.5,2,1.1,3,2c0.5,0.4,0.9,0.9,1.2,1.5s0.5,1.2,0.5,1.9c0,0.7-0.1,1.4-0.4,2c-0.3,0.6-0.9,1-1.5,1.2c-1.3,0.4-2.5,0.1-3.6-0.2
				c-2.2-0.6-4.1-1.2-5.7-1.7c-1.6-0.5-2.9-1-3.8-1.4c-0.4-0.2-0.8-0.3-1-0.4C188.9,322.3,188.8,322.3,188.8,322.2z"/>
			<path class="st13" d="M428.5,381.6l-4.8-1.3l-15.1-1.4l-4.2-5.6l2.9-12.1l18.9-4.5C434.9,362.8,432.6,373.1,428.5,381.6z"/>
			<path class="st7" d="M384.5,351.1c-1.5-0.1-3.9-0.2-5.3,0.4c-2.2,0.9-3.9,3.1-4.2,5.5c-0.5,3.9-0.6,7-0.9,10.7
				c-0.1,0.9,0.3,1.9,1,2.6c1.2,1.2,3.4,0.8,4.6-0.4c1.2-1.2,1.8-2.9,2.4-4.5s1.2-5.4,2.1-5.7c2.6-1,6.2,3.6,8.2,1.4l3.6-8.8
				C390.3,351.7,390,351.6,384.5,351.1z"/>
			<path class="st6" d="M384.5,351.1c0,0,0.1,0,0.2,0c0.2,0,0.4,0,0.6,0c0.6,0.1,1.3,0.1,2.3,0.2c2,0.2,4.9,0.5,8.4,0.8h0.2
				l-0.1,0.2c-1,2.6-2.2,5.5-3.6,8.8l0,0l0,0c-0.4,0.5-1.1,0.7-1.7,0.7c-0.6-0.1-1.2-0.3-1.8-0.5c-1.1-0.5-2.2-1.2-3.4-1.5l-0.4-0.1
				h-0.4c-0.1,0-0.3,0.1-0.4,0.1c-0.2,0-0.2,0.1-0.3,0.2c-0.3,0.5-0.6,1.1-0.7,1.7c-0.4,1.3-0.6,2.6-1.1,3.9
				c-0.4,1.2-0.8,2.4-1.5,3.4c-0.4,0.5-0.8,1-1.3,1.4s-1.1,0.6-1.7,0.7s-1.3,0.1-1.8-0.2c-0.6-0.2-1-0.7-1.4-1.2
				c-0.3-0.5-0.5-1.1-0.6-1.7c0-0.6,0.1-1.1,0.1-1.7c0.2-2.2,0.3-4.2,0.5-6.1c0.1-1,0.2-1.9,0.3-2.8c0.1-0.9,0.3-1.8,0.7-2.5
				c0.7-1.5,1.8-2.6,3-3.3c1.2-0.7,2.3-0.7,3.3-0.8c0.9,0,1.6,0,2.1,0c0.2,0,0.4,0,0.5,0.1C384.4,351.1,384.5,351.1,384.5,351.1
				s-0.2,0-0.7,0s-1.2,0-2.1,0c-0.9,0.1-2,0.2-3.1,0.8c-1.1,0.6-2.2,1.7-2.8,3.2c-0.3,0.7-0.5,1.5-0.6,2.4s-0.2,1.8-0.3,2.8
				c-0.2,1.9-0.3,4-0.4,6.1c0,0.5-0.1,1.1-0.1,1.6s0.2,1,0.5,1.5s0.7,0.8,1.2,1s1.1,0.2,1.6,0.1c1.1-0.2,2.1-0.9,2.7-1.9
				c0.7-1,1.1-2.1,1.5-3.3c0.5-1.3,0.7-2.6,1.1-3.9c0.2-0.6,0.4-1.3,0.8-1.9c0.1-0.1,0.1-0.2,0.2-0.2c0.1-0.1,0.2-0.1,0.3-0.1
				c0.2,0,0.3-0.1,0.5-0.1s0.4,0,0.5,0l0.5,0.1c1.3,0.3,2.4,1,3.4,1.5c0.5,0.3,1.1,0.5,1.6,0.5c0.5,0.1,1-0.1,1.4-0.5v0.1
				c1.3-3.2,2.6-6.2,3.6-8.8l0.1,0.2c-3.5-0.4-6.4-0.7-8.4-0.9c-1-0.1-1.7-0.2-2.3-0.3c-0.2,0-0.4-0.1-0.6-0.1
				C384.5,351.1,384.5,351.1,384.5,351.1z"/>
			<path class="st13" d="M416.4,352.2c0,0-1.9-0.6-4.4,1.3c0,0-1-4.2-4.3-5c-2.4-0.6-5.5,1.9-5.5,1.9s-2.1-4.2-7.7-2.4
				c-4.6,1.4-14.3,30-15.1,31.9c-1,2.2,3,4.9,5.1,2.7c2.3-2.3,9.8-15,9.8-15l-5,17.8c-0.1,0.6-0.1,1.2,0,1.8
				c0.5,1.8,4.1,3.9,6.6,0.5c3.1-4.2,6.3-13,6.3-13l3.1-6.7c0,0-5.7,17.8-3.7,19.4c2.1,1.6,4.8,1,6.7-3.2c1.9-4.2,8.9-17.4,8.9-17.4
				l3.3-1.7l-1.2,4.2c0,0-6.3,3.3-4.9,6.3s4.4,2.1,7.3,0.7s5.5-8.3,7.1-11.1c1.4-2.5,1.5-10-4.5-10.2c-1.3-0.1-2.5,0.5-3.4,1.4
				l-0.3,0.3C420.7,356.5,419.7,352.8,416.4,352.2z"/>
			<path class="st6" d="M416.4,352.2c0,0,0.1,0,0.4,0.1c0.1,0,0.3,0.1,0.5,0.1c0.2,0.1,0.4,0.2,0.6,0.3c0.9,0.5,2.2,1.7,2.8,3.8
				h-0.1c0.7-0.8,1.7-1.5,3.1-1.7c1.3-0.1,2.9,0.2,4.1,1.3c1.2,1.1,1.9,2.8,2,4.6c0.1,0.9,0,1.9-0.2,2.8c-0.1,0.5-0.2,1-0.4,1.4
				c-0.2,0.5-0.5,0.9-0.7,1.3c-0.9,1.8-1.7,3.8-2.8,5.7c-0.6,1-1.2,2-1.9,2.9c-0.4,0.5-0.8,0.9-1.3,1.2c-0.5,0.3-1.1,0.6-1.7,0.8
				c-1.1,0.5-2.4,0.9-3.7,0.8c-0.7-0.1-1.3-0.3-1.8-0.8c-0.2-0.2-0.5-0.5-0.6-0.8l-0.2-0.4c-0.1-0.2-0.1-0.3-0.2-0.5
				c-0.2-0.7,0.1-1.4,0.4-2s0.8-1.1,1.3-1.6c1-0.9,2.2-1.7,3.4-2.4l-0.1,0.1c0.4-1.3,0.8-2.7,1.2-4.2l0.3,0.2
				c-1,0.5-2.2,1.1-3.3,1.7l0.1-0.1c-1.6,3.2-3.4,6.5-5.1,9.9c-0.9,1.7-1.7,3.4-2.6,5.2c-0.4,0.9-0.9,1.8-1.3,2.7
				c-0.5,0.9-1,1.8-1.7,2.5s-1.8,1.3-2.9,1.2c-0.6,0-1.1-0.2-1.6-0.5c-0.2-0.1-0.5-0.3-0.7-0.5s-0.3-0.5-0.4-0.8
				c-0.2-1.1-0.1-2.1,0.1-3.2c0.1-1,0.3-2.1,0.6-3.1c0.9-4.1,2.1-8.3,3.4-12.5l0.4,0.2c-1,2.1-2,4.4-3.1,6.7l0,0
				c-0.7,1.9-1.5,3.9-2.4,5.9c-0.7,1.5-1.4,2.9-2.1,4.3c-0.4,0.7-0.8,1.4-1.2,2c-0.5,0.6-0.9,1.3-1.5,1.9c-0.6,0.5-1.4,0.9-2.3,0.9
				c-0.8,0-1.6-0.3-2.3-0.7c-0.7-0.5-1.3-1.1-1.5-1.9c-0.1-0.4-0.1-0.8-0.1-1.2c0-0.4,0.2-0.8,0.3-1.2c1.7-5.9,3.3-11.6,4.9-17.2
				l0.4,0.2c-1.9,3.2-3.9,6.3-5.8,9.3c-1,1.5-2,3-3,4.4c-0.5,0.7-1,1.5-1.9,1.9c-0.8,0.5-1.8,0.4-2.6,0c-0.8-0.3-1.5-1-1.9-1.8
				c-0.2-0.4-0.3-0.9-0.2-1.3c0.1-0.5,0.3-0.8,0.4-1.2c0.6-1.5,1.1-3.1,1.7-4.6c1.1-3,2.2-5.9,3.3-8.6c1.1-2.8,2.2-5.4,3.3-7.9
				c1.1-2.5,2.3-4.8,3.6-6.9c0.7-1,1.4-2.1,2.3-2.8c0.2-0.2,0.5-0.3,0.8-0.4s0.6-0.1,0.8-0.2c0.6-0.1,1.1-0.2,1.7-0.2
				c2.3,0,4.3,1.2,5.2,2.9h-0.2c1.2-0.9,2.4-1.5,3.6-1.8c0.6-0.2,1.3-0.2,1.8-0.1c0.6,0.1,1.1,0.4,1.6,0.7c0.9,0.6,1.5,1.4,2,2.2
				c0.4,0.8,0.7,1.5,0.9,2.2h-0.1c1.3-1,2.5-1.3,3.3-1.3C416,352.1,416.4,352.2,416.4,352.2s-0.1,0-0.3,0c-0.2,0-0.5,0-0.9,0
				c-0.8,0.1-1.9,0.4-3.2,1.4l-0.1,0.1v-0.1c-0.2-0.7-0.5-1.4-0.9-2.2c-0.5-0.7-1-1.6-1.9-2.1c-0.4-0.3-1-0.5-1.5-0.6
				c-0.6-0.1-1.2-0.1-1.8,0.1c-1.2,0.3-2.4,1-3.5,1.8l-0.1,0.1l-0.1-0.1c-0.9-1.6-2.8-2.8-5-2.8c-0.5,0-1.1,0.1-1.6,0.2
				c-0.3,0.1-0.5,0.1-0.8,0.2s-0.5,0.2-0.7,0.4c-0.9,0.7-1.6,1.7-2.2,2.7c-1.3,2.1-2.4,4.4-3.6,6.9c-1.1,2.5-2.2,5.1-3.3,7.9
				c-1.1,2.8-2.2,5.6-3.3,8.6c-0.5,1.5-1.1,3-1.7,4.6c-0.1,0.4-0.3,0.8-0.4,1.1c0,0.4,0,0.8,0.2,1.1c0.3,0.7,1,1.3,1.7,1.6
				c0.7,0.3,1.6,0.4,2.3,0c0.7-0.4,1.2-1.1,1.7-1.8c1-1.4,2-2.9,3-4.4c1.9-3,3.9-6.1,5.8-9.3l0.8-1.3l-0.4,1.5
				c-1.6,5.5-3.2,11.3-4.9,17.2c-0.1,0.4-0.2,0.7-0.3,1.1c0,0.4,0,0.7,0.1,1.1c0.2,0.7,0.7,1.3,1.3,1.7c0.6,0.4,1.3,0.6,2.1,0.6
				c0.7,0,1.4-0.3,2-0.8s1-1.1,1.5-1.8c0.4-0.7,0.8-1.3,1.2-2c0.8-1.4,1.5-2.8,2.1-4.3c0.9-2,1.7-4,2.4-5.8l0,0l0,0
				c1.1-2.3,2.1-4.6,3.1-6.7l0.4,0.2c-1.3,4.2-2.5,8.3-3.4,12.5c-0.2,1-0.4,2.1-0.6,3.1c-0.1,1-0.2,2.1-0.1,3
				c0.1,0.2,0.1,0.5,0.3,0.6c0.2,0.1,0.4,0.3,0.6,0.4c0.4,0.2,0.9,0.4,1.4,0.4c1,0,1.9-0.4,2.6-1.1c1.4-1.4,2-3.3,3-5.1
				c0.9-1.8,1.8-3.5,2.6-5.2c1.8-3.4,3.5-6.7,5.1-9.9v-0.1l0,0c1.2-0.6,2.3-1.2,3.3-1.7l0.4-0.2l-0.1,0.4c-0.4,1.5-0.8,2.9-1.2,4.2
				v0.1h-0.1c-1.2,0.7-2.4,1.4-3.3,2.3c-0.5,0.5-0.9,0.9-1.3,1.5c-0.3,0.6-0.5,1.2-0.4,1.8c0.3,1.2,1.4,2.2,2.6,2.3
				c1.2,0.1,2.4-0.3,3.5-0.7c0.6-0.2,1.1-0.5,1.6-0.8s0.9-0.7,1.3-1.2c0.7-0.9,1.3-1.9,1.9-2.8c1.1-1.9,2-3.9,2.9-5.7
				c0.2-0.5,0.5-0.9,0.7-1.3s0.3-0.9,0.4-1.4c0.2-0.9,0.2-1.8,0.2-2.7c-0.1-1.8-0.7-3.4-1.9-4.5c-1.2-1-2.7-1.3-3.9-1.2
				c-1.3,0.1-2.3,0.8-3,1.6l-0.1,0.1v-0.1c-0.6-2-1.8-3.2-2.8-3.7C416.9,352.3,416.4,352.3,416.4,352.2z"/>
			<path class="st6" d="M408.5,359.3c0.1,0-0.4,2.6-1.6,5.6c-0.6,1.5-1.1,2.8-1.6,3.8c-0.4,1-0.7,1.5-0.8,1.5
				c-0.1,0,0.8-2.5,1.9-5.5c0.6-1.5,1.1-2.8,1.4-3.8C408.3,359.9,408.5,359.2,408.5,359.3z"/>
			<path class="st6" d="M398.7,357.5c0.1,0.1-0.9,2.4-2.1,5.3s-2.2,5.3-2.3,5.3c-0.1,0,0.1-0.6,0.5-1.6c0.3-1,0.8-2.3,1.4-3.8
				s1.2-2.8,1.7-3.7C398.3,358,398.6,357.4,398.7,357.5z"/>
		</g>
	</g>
</g>
</svg>
