<?xml version="1.0" encoding="utf-8"?>
<!-- Generator: Adobe Illustrator 25.2.0, SVG Export Plug-In . SVG Version: 6.00 Build 0)  -->
<svg version="1.1" id="Layer_1" xmlns="http://www.w3.org/2000/svg" xmlns:xlink="http://www.w3.org/1999/xlink" x="0px" y="0px"
	 viewBox="0 0 141 110" style="enable-background:new 0 0 141 110;" xml:space="preserve">
<style type="text/css">
	.st0{fill:url(#SVGID_1_);}
</style>
<linearGradient id="SVGID_1_" gradientUnits="userSpaceOnUse" x1="-9.4253" y1="1050.9114" x2="103.6606" y2="1011.4197" gradientTransform="matrix(1 0 0 1 0 -968)">
	<stop  offset="0" style="stop-color:#6F983F"/>
	<stop  offset="1" style="stop-color:#2E2E2E"/>
</linearGradient>
<path class="st0" d="M47.7,2l1.4-1.4L48.5,0h-0.8V2z M62.9,17.1l-1.4,1.4l0.6,0.6h0.8C62.9,19.1,62.9,17.1,62.9,17.1z M106.6,39.9
	c0,1.1,0.9,2,2,2s2-0.9,2-2H106.6z M4,92.9V17.1H0v75.7h4V92.9z M17.2,4h30.4V0H17.2V4z M46.3,3.4l15.2,15.1l2.8-2.8L49.1,0.6
	L46.3,3.4z M62.9,19.1h30.4v-4H62.9V19.1z M93.3,19.1c7.3,0,13.2,5.9,13.2,13.1h4c0-9.5-7.7-17.1-17.2-17.1V19.1z M4,17.1
	C4,9.9,9.9,4,17.2,4V0C7.7,0,0,7.7,0,17.1H4z M0,92.9c0,9.5,7.7,17.1,17.2,17.1v-4C9.9,106,4,100.1,4,92.9H0z M106.6,32.3v7.6h4
	v-7.6H106.6z M34.4,55c0-7.2,5.9-13.1,13.2-13.1v-4c-9.5,0-17.2,7.7-17.2,17.1H34.4z M47.7,41.9h76.1v-4H47.7V41.9z M123.8,41.9
	c7.3,0,13.2,5.9,13.2,13.1h4c0-9.5-7.7-17.1-17.2-17.1V41.9z M137,55v37.9h4V55H137z M137,92.9c0,7.2-5.9,13.1-13.2,13.1v4
	c9.5,0,17.2-7.7,17.2-17.1H137z M123.8,106H17.2v4h106.6V106z M17.2,110c9.5,0,17.2-7.7,17.2-17.1h-4c0,7.2-5.9,13.1-13.2,13.1V110z
	 M34.4,92.9V55h-4v37.9H34.4z"/>
</svg>
