<svg width="424" height="341" viewBox="0 0 424 341" fill="none" xmlns="http://www.w3.org/2000/svg">
<g filter="url(#filter0_d_1060_794)">
<path d="M14 33C14 22.5066 22.5066 14 33 14H391C401.493 14 410 22.5066 410 33V240H14V33Z" fill="white"/>
<path d="M14 33C14 22.5066 22.5066 14 33 14H391C401.493 14 410 22.5066 410 33V97H14V33Z" fill="#24AD7A"/>
<path d="M410 307.5C410 317.993 401.493 326.5 391 326.5L33 326.5C22.5066 326.5 14 317.993 14 307.5L14 251L410 251L410 307.5Z" fill="white"/>
</g>
<path d="M126.213 279.562L119.152 299H116.267L124.396 277.672H126.257L126.213 279.562ZM132.131 299L125.056 279.562L125.012 277.672H126.872L135.031 299H132.131ZM131.765 291.104V293.419H119.782V291.104H131.765ZM150.576 277.672H153.389V292.101C153.389 293.702 153.032 295.035 152.319 296.1C151.606 297.164 150.659 297.965 149.478 298.502C148.306 299.029 147.031 299.293 145.654 299.293C144.209 299.293 142.9 299.029 141.729 298.502C140.566 297.965 139.644 297.164 138.96 296.1C138.286 295.035 137.949 293.702 137.949 292.101V277.672H140.747V292.101C140.747 293.214 140.952 294.132 141.362 294.854C141.772 295.577 142.344 296.114 143.076 296.466C143.818 296.817 144.678 296.993 145.654 296.993C146.641 296.993 147.5 296.817 148.232 296.466C148.975 296.114 149.551 295.577 149.961 294.854C150.371 294.132 150.576 293.214 150.576 292.101V277.672ZM166.458 277.672V299H163.675V277.672H166.458ZM173.313 277.672V279.986H156.834V277.672H173.313ZM193.238 287.662V289.01C193.238 290.611 193.038 292.047 192.638 293.316C192.237 294.586 191.661 295.665 190.909 296.554C190.157 297.442 189.254 298.121 188.199 298.59C187.154 299.059 185.982 299.293 184.684 299.293C183.424 299.293 182.267 299.059 181.212 298.59C180.167 298.121 179.259 297.442 178.487 296.554C177.726 295.665 177.135 294.586 176.715 293.316C176.295 292.047 176.085 290.611 176.085 289.01V287.662C176.085 286.061 176.29 284.63 176.7 283.37C177.12 282.101 177.711 281.021 178.473 280.133C179.234 279.234 180.138 278.551 181.183 278.082C182.237 277.613 183.395 277.379 184.654 277.379C185.953 277.379 187.125 277.613 188.17 278.082C189.225 278.551 190.128 279.234 190.88 280.133C191.642 281.021 192.223 282.101 192.623 283.37C193.033 284.63 193.238 286.061 193.238 287.662ZM190.44 289.01V287.633C190.44 286.363 190.309 285.24 190.045 284.264C189.791 283.287 189.415 282.467 188.917 281.803C188.419 281.139 187.809 280.636 187.086 280.294C186.373 279.952 185.562 279.781 184.654 279.781C183.775 279.781 182.979 279.952 182.267 280.294C181.563 280.636 180.958 281.139 180.45 281.803C179.952 282.467 179.566 283.287 179.293 284.264C179.02 285.24 178.883 286.363 178.883 287.633V289.01C178.883 290.289 179.02 291.422 179.293 292.408C179.566 293.385 179.957 294.21 180.465 294.884C180.982 295.548 181.593 296.051 182.296 296.393C183.009 296.734 183.805 296.905 184.684 296.905C185.602 296.905 186.417 296.734 187.13 296.393C187.843 296.051 188.443 295.548 188.932 294.884C189.43 294.21 189.806 293.385 190.06 292.408C190.313 291.422 190.44 290.289 190.44 289.01ZM199.115 277.672H201.854L208.842 295.06L215.814 277.672H218.568L209.896 299H207.758L199.115 277.672ZM198.222 277.672H200.639L201.034 290.68V299H198.222V277.672ZM217.03 277.672H219.447V299H216.635V290.68L217.03 277.672ZM241.584 287.662V289.01C241.584 290.611 241.384 292.047 240.983 293.316C240.583 294.586 240.007 295.665 239.255 296.554C238.503 297.442 237.6 298.121 236.545 298.59C235.5 299.059 234.328 299.293 233.029 299.293C231.77 299.293 230.612 299.059 229.558 298.59C228.513 298.121 227.604 297.442 226.833 296.554C226.071 295.665 225.48 294.586 225.061 293.316C224.641 292.047 224.431 290.611 224.431 289.01V287.662C224.431 286.061 224.636 284.63 225.046 283.37C225.466 282.101 226.057 281.021 226.818 280.133C227.58 279.234 228.483 278.551 229.528 278.082C230.583 277.613 231.74 277.379 233 277.379C234.299 277.379 235.471 277.613 236.516 278.082C237.57 278.551 238.474 279.234 239.226 280.133C239.987 281.021 240.568 282.101 240.969 283.37C241.379 284.63 241.584 286.061 241.584 287.662ZM238.786 289.01V287.633C238.786 286.363 238.654 285.24 238.391 284.264C238.137 283.287 237.761 282.467 237.263 281.803C236.765 281.139 236.154 280.636 235.432 280.294C234.719 279.952 233.908 279.781 233 279.781C232.121 279.781 231.325 279.952 230.612 280.294C229.909 280.636 229.304 281.139 228.796 281.803C228.298 282.467 227.912 283.287 227.639 284.264C227.365 285.24 227.229 286.363 227.229 287.633V289.01C227.229 290.289 227.365 291.422 227.639 292.408C227.912 293.385 228.303 294.21 228.811 294.884C229.328 295.548 229.938 296.051 230.642 296.393C231.354 296.734 232.15 296.905 233.029 296.905C233.947 296.905 234.763 296.734 235.476 296.393C236.188 296.051 236.789 295.548 237.277 294.884C237.775 294.21 238.151 293.385 238.405 292.408C238.659 291.422 238.786 290.289 238.786 289.01ZM254.038 277.672V299H251.255V277.672H254.038ZM260.894 277.672V279.986H244.414V277.672H260.894ZM267.84 277.672V299H265.013V277.672H267.84ZM280.616 295.763L286.9 277.672H289.962L282.066 299H279.884L280.616 295.763ZM274.742 277.672L280.968 295.763L281.744 299H279.562L271.681 277.672H274.742ZM307.133 296.7V299H295.839V296.7H307.133ZM296.41 277.672V299H293.583V277.672H296.41ZM305.639 286.842V289.142H295.839V286.842H305.639ZM306.986 277.672V279.986H295.839V277.672H306.986Z" fill="#333333"/>
<path d="M118.589 74.6364V38.2727H120.918V74.6364H118.589ZM124.2 50.6307C124.105 49.589 123.683 48.7794 122.935 48.2017C122.197 47.6146 121.141 47.321 119.768 47.321C118.859 47.321 118.101 47.4394 117.495 47.6761C116.889 47.9129 116.434 48.2396 116.131 48.6562C115.828 49.0634 115.672 49.5322 115.663 50.0625C115.644 50.4981 115.729 50.8816 115.918 51.2131C116.117 51.5445 116.401 51.8381 116.771 52.0938C117.149 52.34 117.604 52.5578 118.134 52.7472C118.665 52.9366 119.261 53.1023 119.924 53.2443L122.424 53.8125C123.863 54.125 125.132 54.5417 126.231 55.0625C127.339 55.5833 128.267 56.2036 129.015 56.9233C129.772 57.643 130.345 58.4716 130.734 59.4091C131.122 60.3466 131.321 61.3977 131.33 62.5625C131.321 64.3996 130.857 65.9763 129.938 67.2926C129.02 68.6089 127.699 69.6174 125.975 70.3182C124.261 71.0189 122.192 71.3693 119.768 71.3693C117.334 71.3693 115.213 71.0047 113.404 70.2756C111.595 69.5464 110.189 68.4384 109.185 66.9517C108.182 65.465 107.665 63.5852 107.637 61.3125H114.37C114.427 62.25 114.678 63.0312 115.123 63.6562C115.568 64.2812 116.179 64.7547 116.955 65.0767C117.741 65.3987 118.65 65.5597 119.683 65.5597C120.629 65.5597 121.434 65.4318 122.097 65.1761C122.77 64.9205 123.286 64.5653 123.646 64.1108C124.005 63.6562 124.19 63.1354 124.2 62.5483C124.19 61.9991 124.02 61.5303 123.688 61.142C123.357 60.7443 122.845 60.4034 122.154 60.1193C121.472 59.8258 120.601 59.5559 119.54 59.3097L116.501 58.5994C113.982 58.0218 111.998 57.089 110.549 55.8011C109.1 54.5038 108.38 52.7519 108.39 50.5455C108.38 48.7462 108.863 47.1695 109.839 45.8153C110.814 44.4612 112.164 43.4053 113.887 42.6477C115.611 41.8902 117.576 41.5114 119.782 41.5114C122.036 41.5114 123.991 41.8949 125.648 42.6619C127.315 43.4195 128.608 44.4848 129.526 45.858C130.445 47.2311 130.914 48.822 130.933 50.6307H124.2ZM135.469 66.1705V60.6875L147.387 41.9091H152.259V49.3523H149.433L142.458 60.4034V60.6307H159.717V66.1705H135.469ZM149.518 71V64.4943L149.66 62.0938V41.9091H156.237V71H149.518ZM175.354 41.5114C176.945 41.5114 178.465 41.7718 179.914 42.2926C181.363 42.804 182.656 43.6231 183.792 44.75C184.928 45.8674 185.823 47.34 186.477 49.1676C187.13 50.9953 187.457 53.2254 187.457 55.858C187.466 58.2822 187.182 60.4555 186.604 62.3778C186.027 64.2907 185.198 65.9195 184.119 67.2642C183.049 68.6089 181.761 69.6364 180.255 70.3466C178.749 71.0473 177.068 71.3977 175.212 71.3977C173.167 71.3977 171.363 71.0047 169.8 70.2188C168.247 69.4233 167.002 68.3532 166.065 67.0085C165.137 65.6638 164.583 64.1581 164.403 62.4915H171.32C171.538 63.4574 171.997 64.1866 172.698 64.679C173.399 65.1619 174.237 65.4034 175.212 65.4034C176.993 65.4034 178.323 64.6316 179.204 63.0881C180.085 61.5445 180.525 59.447 180.525 56.7955H180.354C179.947 57.6667 179.37 58.4148 178.621 59.0398C177.883 59.6648 177.026 60.143 176.05 60.4744C175.075 60.8059 174.048 60.9716 172.968 60.9716C171.226 60.9716 169.687 60.5739 168.352 59.7784C167.026 58.983 165.984 57.8892 165.227 56.4972C164.478 55.1051 164.1 53.5142 164.09 51.7244C164.081 49.7169 164.549 47.946 165.496 46.4119C166.443 44.8684 167.764 43.6657 169.46 42.804C171.155 41.9328 173.12 41.5019 175.354 41.5114ZM175.397 46.9091C174.526 46.9091 173.749 47.1127 173.067 47.5199C172.395 47.9271 171.865 48.4763 171.477 49.1676C171.088 49.8589 170.899 50.6354 170.908 51.4972C170.918 52.3589 171.112 53.1354 171.491 53.8267C171.879 54.518 172.405 55.0672 173.067 55.4744C173.74 55.8816 174.507 56.0852 175.369 56.0852C176.013 56.0852 176.609 55.9669 177.158 55.7301C177.708 55.4934 178.186 55.1667 178.593 54.75C179 54.3239 179.317 53.8314 179.545 53.2727C179.781 52.714 179.895 52.1174 179.886 51.483C179.876 50.6402 179.677 49.8731 179.289 49.1818C178.901 48.4905 178.366 47.9413 177.684 47.5341C177.012 47.1174 176.249 46.9091 175.397 46.9091ZM191.962 66.1705V60.6875L203.879 41.9091H208.751V49.3523H205.925L198.95 60.4034V60.6307H216.209V66.1705H191.962ZM206.01 71V64.4943L206.152 62.0938V41.9091H212.729V71H206.01ZM227.766 67.0227L227.638 68.5994C227.525 69.9062 227.293 71.1799 226.942 72.4205C226.602 73.6705 226.237 74.7926 225.849 75.7869C225.46 76.7813 225.153 77.553 224.925 78.1023H220.55C220.702 77.553 220.906 76.7813 221.161 75.7869C221.426 74.7926 221.673 73.6705 221.9 72.4205C222.127 71.1705 222.255 69.9015 222.283 68.6136L222.312 67.0227H227.766ZM244.825 71.7102C242.287 71.7102 240.099 71.1089 238.262 69.9062C236.425 68.6941 235.009 66.9564 234.015 64.6932C233.021 62.4205 232.528 59.6884 232.538 56.4972C232.547 53.3059 233.044 50.5975 234.029 48.3722C235.023 46.1373 236.434 44.4375 238.262 43.2727C240.099 42.0985 242.287 41.5114 244.825 41.5114C247.362 41.5114 249.55 42.0985 251.387 43.2727C253.234 44.4375 254.654 46.1373 255.648 48.3722C256.643 50.607 257.135 53.3153 257.126 56.4972C257.126 59.6979 256.629 62.4347 255.634 64.7074C254.64 66.9801 253.224 68.7178 251.387 69.9205C249.559 71.1136 247.372 71.7102 244.825 71.7102ZM244.825 65.9574C246.34 65.9574 247.566 65.1856 248.504 63.642C249.441 62.089 249.905 59.7074 249.896 56.4972C249.896 54.3949 249.683 52.6619 249.256 51.2983C248.83 49.9252 248.238 48.9025 247.481 48.2301C246.723 47.5578 245.838 47.2216 244.825 47.2216C243.319 47.2216 242.102 47.9839 241.174 49.5085C240.246 51.0237 239.777 53.3532 239.768 56.4972C239.758 58.6278 239.962 60.3939 240.379 61.7955C240.805 63.197 241.401 64.2434 242.168 64.9347C242.935 65.6165 243.821 65.9574 244.825 65.9574ZM274.184 71.7102C271.646 71.7102 269.459 71.1089 267.621 69.9062C265.784 68.6941 264.369 66.9564 263.374 64.6932C262.38 62.4205 261.888 59.6884 261.897 56.4972C261.906 53.3059 262.404 50.5975 263.388 48.3722C264.383 46.1373 265.794 44.4375 267.621 43.2727C269.459 42.0985 271.646 41.5114 274.184 41.5114C276.722 41.5114 278.909 42.0985 280.746 43.2727C282.593 44.4375 284.013 46.1373 285.008 48.3722C286.002 50.607 286.495 53.3153 286.485 56.4972C286.485 59.6979 285.988 62.4347 284.994 64.7074C283.999 66.9801 282.584 68.7178 280.746 69.9205C278.919 71.1136 276.731 71.7102 274.184 71.7102ZM274.184 65.9574C275.699 65.9574 276.925 65.1856 277.863 63.642C278.8 62.089 279.264 59.7074 279.255 56.4972C279.255 54.3949 279.042 52.6619 278.616 51.2983C278.19 49.9252 277.598 48.9025 276.84 48.2301C276.083 47.5578 275.197 47.2216 274.184 47.2216C272.678 47.2216 271.461 47.9839 270.533 49.5085C269.605 51.0237 269.137 53.3532 269.127 56.4972C269.118 58.6278 269.321 60.3939 269.738 61.7955C270.164 63.197 270.761 64.2434 271.528 64.9347C272.295 65.6165 273.18 65.9574 274.184 65.9574ZM303.543 71.7102C301.005 71.7102 298.818 71.1089 296.981 69.9062C295.144 68.6941 293.728 66.9564 292.734 64.6932C291.739 62.4205 291.247 59.6884 291.256 56.4972C291.266 53.3059 291.763 50.5975 292.748 48.3722C293.742 46.1373 295.153 44.4375 296.981 43.2727C298.818 42.0985 301.005 41.5114 303.543 41.5114C306.081 41.5114 308.269 42.0985 310.106 43.2727C311.952 44.4375 313.373 46.1373 314.367 48.3722C315.362 50.607 315.854 53.3153 315.844 56.4972C315.844 59.6979 315.347 62.4347 314.353 64.7074C313.359 66.9801 311.943 68.7178 310.106 69.9205C308.278 71.1136 306.091 71.7102 303.543 71.7102ZM303.543 65.9574C305.058 65.9574 306.285 65.1856 307.222 63.642C308.16 62.089 308.624 59.7074 308.614 56.4972C308.614 54.3949 308.401 52.6619 307.975 51.2983C307.549 49.9252 306.957 48.9025 306.2 48.2301C305.442 47.5578 304.557 47.2216 303.543 47.2216C302.038 47.2216 300.821 47.9839 299.893 49.5085C298.965 51.0237 298.496 53.3532 298.487 56.4972C298.477 58.6278 298.681 60.3939 299.097 61.7955C299.523 63.197 300.12 64.2434 300.887 64.9347C301.654 65.6165 302.54 65.9574 303.543 65.9574Z" fill="white"/>
<path d="M124.51 207.621C124.54 203.551 124.58 199.481 124.6 195.411C124.6 195.141 124.49 194.841 124.36 194.591C122.31 190.421 120.24 186.261 118.22 182.081C118.02 181.661 118.03 181.111 118.03 180.621C118.02 173.821 118.05 167.021 118 160.211C117.99 158.941 118.33 158.541 119.67 158.541C142.41 158.591 165.15 158.591 187.89 158.571C188.91 158.571 189.97 158.381 190.93 158.051C220.5 147.891 250.05 137.661 279.65 127.591C282.7 126.551 286.05 126.291 289.29 126.011C290.61 125.901 292.04 126.621 293.34 127.141C294.09 127.441 294.33 128.181 293.44 128.711C291.35 129.971 291.21 131.851 291.3 134.071C291.8 146.371 292.17 158.681 292.56 170.981C292.59 171.911 292.76 172.401 293.8 172.541C295.47 172.771 296.75 173.771 297.57 175.201C298.92 177.571 299.37 180.131 298.63 182.811C298.04 184.971 296.69 186.431 294.52 187.161C294.05 187.321 293.64 187.801 293.31 188.221C292.41 189.381 291.74 190.781 290.67 191.751C288.36 193.871 287.01 196.241 287.94 199.401C288.9 202.691 291.18 204.821 294.37 205.911C296.25 206.551 297.43 205.791 298.5 203.281C297.03 204.701 295.75 205.861 293.85 204.921C293.89 204.771 293.9 204.621 293.94 204.611C297.04 204.171 298.62 202.261 299.06 199.271C299.42 196.811 300.38 194.701 302.51 193.271C303.67 192.491 304.9 192.231 306.13 193.041C306.48 193.271 306.75 193.831 306.77 194.261C306.78 194.481 306.22 194.861 305.87 194.971C304.54 195.341 303.93 196.351 303.63 197.531C303.15 199.401 302.91 201.341 302.37 203.191C301.79 205.181 301.22 207.231 300.22 209.021C297.39 214.111 290.83 215.561 286.05 212.191C284.66 211.211 283.49 209.861 282.36 208.561C281.76 207.861 281.23 207.511 280.27 207.511C228.98 207.541 177.7 207.541 126.41 207.541C125.76 207.541 125.12 207.541 124.47 207.541L124.51 207.621ZM289.84 132.031C287.07 134.521 284.6 136.821 282.03 139.001C281.11 139.781 280.02 140.471 278.89 140.871C262.68 146.511 246.46 152.101 230.24 157.701C229.67 157.901 229.09 158.091 228.52 158.291C230.12 158.611 231.63 158.611 233.15 158.611C251.31 158.611 269.47 158.621 287.63 158.561C289.05 158.561 289.36 158.991 289.32 160.311C289.23 163.331 289.25 166.361 289.31 169.391C289.33 170.461 289.17 171.321 288.24 171.981C288.08 172.091 288.26 172.671 288.28 173.041C289.13 172.881 290.02 172.821 290.82 172.521C291.08 172.421 291.23 171.711 291.22 171.281C290.85 159.881 290.46 148.471 290.07 137.071C290.01 135.481 289.93 133.911 289.84 132.031ZM224.09 178.341C224.11 178.341 224.12 178.341 224.14 178.341C224.14 182.611 224.17 186.871 224.12 191.141C224.11 192.181 224.44 192.531 225.47 192.501C227.35 192.441 229.24 192.451 231.12 192.491C231.97 192.511 232.24 192.181 232.23 191.351C232.2 189.271 232.31 187.181 232.24 185.101C232.2 183.831 232.94 183.921 233.77 183.941C234.56 183.961 235.38 183.771 235.33 185.071C235.27 187.001 235.4 188.941 235.33 190.871C235.29 192.051 235.55 192.601 236.88 192.501C238.51 192.381 240.16 192.391 241.79 192.491C243.03 192.561 243.38 192.151 243.38 190.911C243.35 183.271 243.29 175.631 243.48 167.991C243.54 165.491 242.98 163.531 240.92 162.141C240.28 161.711 239.46 161.331 238.7 161.301C235.97 161.201 233.23 161.411 230.52 161.231C228.31 161.081 226.65 161.651 225.23 163.411C224.5 164.311 224.04 165.081 224.06 166.281C224.14 170.301 224.09 174.321 224.09 178.341ZM202.25 176.911C202.27 176.911 202.28 176.911 202.3 176.911C202.3 181.621 202.34 186.331 202.27 191.041C202.25 192.261 202.67 192.571 203.8 192.521C205.48 192.441 207.18 192.401 208.86 192.511C210.16 192.601 210.43 192.051 210.41 190.901C210.36 188.971 210.53 187.031 210.42 185.101C210.34 183.681 211.21 183.971 212.02 183.901C212.98 183.821 213.47 184.031 213.44 185.161C213.38 187.291 213.49 189.421 213.46 191.551C213.45 192.261 213.65 192.511 214.37 192.491C216.4 192.451 218.44 192.431 220.47 192.491C221.44 192.521 221.62 192.071 221.6 191.231C221.56 189.401 221.45 187.541 221.65 185.731C221.88 183.661 221.27 182.031 219.69 180.781C218.66 179.971 218.88 179.421 219.68 178.551C220.48 177.691 221.47 176.611 221.55 175.571C221.78 172.161 221.64 168.731 221.62 165.311C221.61 163.801 219.05 161.271 217.53 161.271C212.87 161.251 208.21 161.291 203.55 161.231C202.47 161.221 202.22 161.611 202.23 162.611C202.27 167.381 202.25 172.141 202.25 176.911ZM265.21 178.721C265.24 178.721 265.27 178.721 265.29 178.721C265.29 175.441 265.04 172.141 265.36 168.901C265.67 165.871 264.45 163.771 262.36 161.941C261.99 161.611 261.43 161.321 260.95 161.311C256.33 161.271 251.72 161.311 247.1 161.281C246.28 161.281 245.96 161.531 245.96 162.381C246 172.061 246.03 181.741 246.03 191.421C246.03 192.331 246.42 192.501 247.19 192.481C248.93 192.451 250.67 192.391 252.4 192.491C253.67 192.561 254.11 192.211 254.1 190.861C254.04 184.161 254.11 177.461 254.08 170.751C254.08 169.701 254.3 169.301 255.46 169.251C256.89 169.191 257.19 169.701 257.18 171.021C257.13 177.721 257.2 184.421 257.18 191.131C257.18 192.161 257.49 192.531 258.54 192.481C260.22 192.401 261.92 192.391 263.6 192.481C264.81 192.551 265.25 192.181 265.23 190.921C265.16 186.861 265.21 182.791 265.21 178.721ZM275.82 192.471C276.91 192.471 278 192.471 279.09 192.471C280.18 192.471 281.27 192.461 282.36 192.461C284.11 192.461 286.84 189.921 286.87 188.161C286.94 184.341 286.96 180.521 286.95 176.701C286.95 175.211 284.4 172.791 282.92 172.791C280.94 172.781 278.95 172.711 276.97 172.801C275.45 172.871 275.77 171.861 275.76 171.031C275.75 170.181 275.49 169.231 277.01 169.291C279.83 169.401 282.67 169.281 285.49 169.341C286.56 169.361 287.01 169.111 286.95 167.951C286.86 166.221 286.86 164.481 286.94 162.741C286.99 161.641 286.64 161.281 285.53 161.291C280.92 161.341 276.3 161.311 271.69 161.321C270.11 161.331 267.59 163.901 267.58 165.511C267.56 169.281 267.55 173.051 267.57 176.821C267.57 177.271 267.76 177.791 268.03 178.151C269.42 179.981 270.99 181.421 273.61 180.871C274.56 180.671 275.59 180.821 276.58 180.841C279.12 180.871 278.71 180.581 278.84 183.061C278.9 184.271 278.47 184.591 277.32 184.561C274.49 184.491 271.66 184.571 268.84 184.511C267.85 184.491 267.55 184.821 267.59 185.791C267.66 187.621 267.66 189.461 267.62 191.301C267.6 192.201 267.91 192.531 268.83 192.511C271.15 192.451 273.48 192.481 275.82 192.471ZM139.96 170.931C139.95 170.931 139.93 170.931 139.92 170.931C139.92 168.251 139.83 165.571 139.96 162.891C140.02 161.521 139.55 161.191 138.28 161.271C136.7 161.371 135.1 161.371 133.52 161.271C132.2 161.181 131.75 161.551 131.78 162.971C131.86 168.331 131.8 173.691 131.77 179.051C131.77 179.461 131.63 180.201 131.48 180.221C130.71 180.341 129.88 180.381 129.14 180.191C128.91 180.131 128.79 179.261 128.79 178.761C128.75 173.451 128.7 168.141 128.76 162.831C128.77 161.551 128.37 161.211 127.16 161.281C125.38 161.381 123.59 161.381 121.8 161.301C120.84 161.261 120.64 161.621 120.64 162.491C120.65 168.151 120.61 173.801 120.62 179.461C120.62 179.891 120.75 180.351 120.93 180.741C122.59 184.351 124.24 187.961 125.98 191.521C126.2 191.961 126.9 192.411 127.4 192.431C129.38 192.531 131.37 192.541 133.35 192.421C133.88 192.391 134.61 191.901 134.85 191.421C135.88 189.381 136.6 187.191 137.72 185.211C139.66 181.751 140.32 178.111 139.99 174.201C139.88 173.121 139.96 172.021 139.96 170.931ZM183.25 176.551C183.26 176.551 183.26 176.551 183.27 176.551C183.27 179.381 183.51 182.231 183.21 185.031C182.89 188.001 184.1 190.071 186.18 191.851C186.56 192.171 187.11 192.461 187.58 192.471C191.25 192.521 194.93 192.471 198.6 192.511C199.56 192.521 199.78 192.121 199.76 191.271C199.73 189.431 199.74 187.601 199.8 185.761C199.83 184.821 199.57 184.431 198.55 184.471C196.67 184.551 194.78 184.441 192.89 184.521C191.71 184.571 191.23 184.151 191.41 182.971C191.46 182.631 191.45 182.271 191.41 181.931C191.31 181.081 191.68 180.801 192.52 180.821C194.5 180.861 196.49 180.761 198.47 180.851C199.56 180.901 199.81 180.521 199.76 179.511C199.68 177.781 199.67 176.031 199.76 174.301C199.83 173.101 199.5 172.601 198.21 172.691C196.68 172.801 195.13 172.711 193.6 172.721C191.32 172.731 191.37 172.731 191.39 170.481C191.4 169.551 191.72 169.301 192.62 169.321C194.45 169.381 196.3 169.251 198.13 169.351C199.39 169.421 199.93 169.141 199.82 167.751C199.69 166.121 199.72 164.471 199.82 162.841C199.9 161.601 199.47 161.211 198.24 161.231C194.72 161.311 191.19 161.281 187.67 161.301C185.88 161.311 183.26 163.901 183.25 165.701C183.24 169.311 183.25 172.931 183.25 176.551ZM142.44 176.501C142.45 179.281 142.62 182.071 142.4 184.831C142.18 187.631 142.9 189.881 145.11 191.591C145.61 191.981 146.27 192.391 146.87 192.401C150.54 192.491 154.21 192.451 157.88 192.501C158.67 192.511 158.93 192.251 158.92 191.481C158.9 189.501 158.91 187.511 158.95 185.531C158.97 184.761 158.68 184.481 157.91 184.501C156.27 184.541 154.64 184.551 153 184.501C150.2 184.411 150.67 185.011 150.54 182.051C150.5 181.041 150.85 180.771 151.81 180.801C153.79 180.861 155.78 180.781 157.76 180.841C158.68 180.871 158.96 180.541 158.94 179.651C158.88 177.671 158.88 175.681 158.92 173.701C158.94 172.901 158.63 172.691 157.87 172.711C155.89 172.761 153.9 172.621 151.92 172.761C150.36 172.871 150.58 171.911 150.56 170.981C150.54 170.061 150.39 169.201 151.85 169.291C153.78 169.411 155.72 169.271 157.65 169.331C158.57 169.361 159.01 169.151 158.97 168.111C158.9 166.231 158.91 164.341 158.97 162.461C159 161.531 158.64 161.271 157.76 161.271C153.99 161.301 150.22 161.261 146.45 161.291C145.05 161.301 142.43 164.081 142.43 165.491C142.43 169.161 142.44 172.831 142.44 176.501ZM167.15 180.891C167.16 180.891 167.18 180.891 167.19 180.891C167.19 184.311 167.23 187.741 167.17 191.161C167.15 192.221 167.52 192.571 168.54 192.511C169.78 192.441 171.02 192.481 172.26 192.491C175.22 192.511 175.22 192.521 175.23 189.501C175.25 183.251 175.29 177.001 175.26 170.751C175.26 169.671 175.53 169.201 176.68 169.311C177.66 169.401 178.66 169.281 179.65 169.341C180.58 169.401 180.85 169.011 180.82 168.131C180.77 166.301 180.75 164.461 180.82 162.631C180.86 161.611 180.56 161.261 179.5 161.271C174.69 161.321 169.88 161.301 165.07 161.281C161.42 161.271 161.42 161.261 161.45 164.941C161.46 166.321 160.99 168.291 161.7 168.931C162.52 169.671 164.4 169.341 165.81 169.291C167 169.251 167.2 169.731 167.18 170.781C167.12 174.141 167.15 177.511 167.15 180.891ZM206.58 158.291C206.6 158.431 206.63 158.571 206.65 158.711C207.67 158.571 208.74 158.601 209.7 158.281C233.56 150.161 257.42 142.011 281.26 133.821C281.87 133.611 282.31 132.891 282.83 132.411C282.71 132.271 282.6 132.141 282.48 132.001C257.18 140.771 231.88 149.531 206.58 158.291ZM289.29 179.041C289.28 181.131 290.63 182.751 292.35 182.711C293.82 182.681 294.87 181.451 294.86 179.771C294.85 177.331 294.06 176.281 292.21 176.261C290.44 176.241 289.3 177.321 289.29 179.041ZM196.46 196.911C197.18 199.401 197.77 201.481 198.4 203.561C198.5 203.881 198.81 204.141 199.02 204.431C199.19 204.151 199.43 203.891 199.52 203.591C200.22 201.211 200.89 198.831 201.55 196.451C201.61 196.231 201.53 195.971 201.52 195.721C201.39 195.701 201.27 195.671 201.14 195.651C200.45 198.031 199.76 200.411 199.07 202.791C198.98 202.771 198.9 202.751 198.81 202.721C198.11 200.341 197.41 197.961 196.71 195.571C196.53 195.571 196.35 195.571 196.16 195.571C195.47 197.971 194.78 200.361 194.09 202.761C194 202.751 193.9 202.731 193.81 202.721C193.12 200.351 192.44 197.981 191.75 195.611C191.56 195.671 191.37 195.731 191.18 195.791C191.92 198.391 192.64 200.991 193.4 203.581C193.49 203.881 193.72 204.141 193.89 204.421C194.1 204.131 194.41 203.871 194.51 203.551C195.16 201.481 195.74 199.401 196.46 196.911ZM242.75 204.561C242.86 204.511 242.97 204.451 243.07 204.401C243.07 201.511 243.07 198.611 243.07 195.721C242.92 195.721 242.77 195.721 242.63 195.711C242.63 198.061 242.63 200.421 242.63 202.771C242.53 202.781 242.43 202.791 242.33 202.801C240.81 200.381 239.3 197.951 237.78 195.531C237.66 195.601 237.55 195.661 237.43 195.731C237.43 198.611 237.43 201.491 237.43 204.381C237.57 204.381 237.7 204.391 237.84 204.391C237.84 202.031 237.84 199.671 237.84 197.321C237.95 197.311 238.05 197.291 238.16 197.281C239.68 199.691 241.21 202.121 242.75 204.561ZM174.95 200.241C174.64 197.931 173.41 196.181 171.56 195.701C170.05 195.311 168.54 195.981 167.64 197.441C166.59 199.141 166.73 201.781 167.96 203.331C169.35 205.081 172 205.241 173.39 203.481C174.12 202.561 174.45 201.331 174.95 200.241ZM266.06 196.131C266.08 196.061 266.09 195.981 266.11 195.911C265.87 195.811 265.64 195.631 265.4 195.621C263.7 195.521 261.99 195.641 261.15 197.381C260.24 199.251 260.2 201.251 261.33 203.071C262.11 204.321 264.95 205.201 266.16 204.361C266.7 203.991 266.67 202.641 266.7 201.721C266.78 199.781 265.91 199.331 264.08 200.291C266.3 200.801 266.32 200.831 266.11 203.121C266.11 203.171 266.13 203.241 266.1 203.271C265.88 203.511 265.67 203.931 265.42 203.961C264.05 204.121 262.63 204.041 261.85 202.711C260.91 201.121 260.91 199.371 261.7 197.711C262.33 196.371 263.57 196.041 264.96 196.131C265.33 196.151 265.69 196.131 266.06 196.131ZM147.51 204.331C147.71 204.331 147.91 204.341 148.11 204.341C148.11 202.571 148.11 200.791 148.11 199.021C148.11 198.231 147.87 197.261 148.23 196.691C148.53 196.231 149.56 196.241 150.27 196.031C150.29 196.031 150.28 195.951 150.29 195.761C148.65 195.761 147.02 195.761 144.98 195.761C146.08 196.181 147.12 196.261 147.39 196.751C147.74 197.411 147.49 198.391 147.5 199.231C147.5 199.581 147.5 199.921 147.5 200.271C147.51 201.641 147.51 202.981 147.51 204.331ZM219.5 195.761C219.33 195.761 219.17 195.761 219 195.761C218.95 198.621 218.96 201.481 218.99 204.341C219.16 204.341 219.33 204.331 219.5 204.331C219.5 201.481 219.5 198.621 219.5 195.761Z" fill="#A1A1A1"/>
<path d="M167.57 200.071C167.56 202.441 168.79 203.991 170.68 204.001C172.61 204.021 174.05 202.351 174.06 200.091C174.06 197.851 172.6 196.131 170.7 196.131C168.84 196.131 167.58 197.721 167.57 200.071Z" fill="white"/>
<path d="M235.32 172.711C235.32 173.201 235.26 173.711 235.33 174.191C235.54 175.571 234.99 175.991 233.63 175.921C232.62 175.871 232.21 175.631 232.28 174.571C232.36 173.241 232.38 171.901 232.28 170.581C232.18 169.271 232.96 169.351 233.85 169.311C234.85 169.271 235.48 169.421 235.33 170.641C235.24 171.321 235.31 172.021 235.32 172.711C235.31 172.711 235.31 172.711 235.32 172.711Z" fill="#A1A1A1"/>
<path d="M213.37 172.681C213.37 173.171 213.3 173.681 213.38 174.161C213.62 175.651 212.95 176.061 211.56 175.921C210.78 175.841 210.4 175.691 210.43 174.811C210.49 173.341 210.48 171.851 210.42 170.381C210.36 169.051 211.28 169.361 212.01 169.321C212.83 169.271 213.49 169.351 213.38 170.461C213.31 171.191 213.37 171.941 213.37 172.681Z" fill="#A1A1A1"/>
<path d="M167.57 200.071C167.58 197.721 168.84 196.131 170.7 196.131C172.6 196.131 174.06 197.851 174.06 200.091C174.06 202.351 172.62 204.021 170.68 204.001C168.79 203.991 167.56 202.441 167.57 200.071Z" fill="#A1A1A1"/>
<defs>
<filter id="filter0_d_1060_794" x="0" y="0" width="424" height="340.5" filterUnits="userSpaceOnUse" color-interpolation-filters="sRGB">
<feFlood flood-opacity="0" result="BackgroundImageFix"/>
<feColorMatrix in="SourceAlpha" type="matrix" values="0 0 0 0 0 0 0 0 0 0 0 0 0 0 0 0 0 0 127 0" result="hardAlpha"/>
<feOffset/>
<feGaussianBlur stdDeviation="7"/>
<feComposite in2="hardAlpha" operator="out"/>
<feColorMatrix type="matrix" values="0 0 0 0 0 0 0 0 0 0 0 0 0 0 0 0 0 0 0.25 0"/>
<feBlend mode="normal" in2="BackgroundImageFix" result="effect1_dropShadow_1060_794"/>
<feBlend mode="normal" in="SourceGraphic" in2="effect1_dropShadow_1060_794" result="shape"/>
</filter>
</defs>
</svg>
