<svg width="424" height="341" viewBox="0 0 424 341" fill="none" xmlns="http://www.w3.org/2000/svg">
<g filter="url(#filter0_d_1060_707)">
<path d="M14 33C14 22.5066 22.5066 14 33 14H391C401.493 14 410 22.5066 410 33V240H14V33Z" fill="white"/>
<path d="M14 33C14 22.5066 22.5066 14 33 14H391C401.493 14 410 22.5066 410 33V97H14V33Z" fill="#24AD7A"/>
<path d="M410 307.5C410 317.993 401.493 326.5 391 326.5L33 326.5C22.5066 326.5 14 317.993 14 307.5L14 251L410 251L410 307.5Z" fill="white"/>
</g>
<path d="M88.1885 277.672H90.9277L97.915 295.06L104.888 277.672H107.642L98.9697 299H96.8311L88.1885 277.672ZM87.2949 277.672H89.7119L90.1074 290.68V299H87.2949V277.672ZM106.104 277.672H108.521V299H105.708V290.68L106.104 277.672ZM122.396 279.562L115.335 299H112.449L120.579 277.672H122.439L122.396 279.562ZM128.313 299L121.238 279.562L121.194 277.672H123.055L131.214 299H128.313ZM127.947 291.104V293.419H115.965V291.104H127.947ZM151.227 277.672V299H148.385L137.647 282.55V299H134.82V277.672H137.647L148.429 294.166V277.672H151.227ZM169.188 277.672H172.001V292.101C172.001 293.702 171.645 295.035 170.932 296.1C170.219 297.164 169.271 297.965 168.09 298.502C166.918 299.029 165.644 299.293 164.267 299.293C162.821 299.293 161.513 299.029 160.341 298.502C159.179 297.965 158.256 297.164 157.572 296.1C156.898 295.035 156.562 293.702 156.562 292.101V277.672H159.359V292.101C159.359 293.214 159.564 294.132 159.975 294.854C160.385 295.577 160.956 296.114 161.688 296.466C162.431 296.817 163.29 296.993 164.267 296.993C165.253 296.993 166.112 296.817 166.845 296.466C167.587 296.114 168.163 295.577 168.573 294.854C168.983 294.132 169.188 293.214 169.188 292.101V277.672ZM180.017 277.672V299H177.189V277.672H180.017ZM188.952 287.267V289.581H179.401V287.267H188.952ZM190.402 277.672V279.986H179.401V277.672H190.402ZM199.927 279.562L192.866 299H189.98L198.11 277.672H199.971L199.927 279.562ZM205.845 299L198.77 279.562L198.726 277.672H200.586L208.745 299H205.845ZM205.479 291.104V293.419H193.496V291.104H205.479ZM225.052 292.218H227.864C227.718 293.565 227.332 294.771 226.707 295.836C226.082 296.9 225.198 297.745 224.056 298.37C222.913 298.985 221.487 299.293 219.778 299.293C218.528 299.293 217.391 299.059 216.365 298.59C215.35 298.121 214.476 297.457 213.743 296.598C213.011 295.729 212.444 294.688 212.044 293.478C211.653 292.257 211.458 290.899 211.458 289.405V287.281C211.458 285.787 211.653 284.435 212.044 283.224C212.444 282.003 213.016 280.958 213.758 280.089C214.51 279.22 215.413 278.551 216.468 278.082C217.522 277.613 218.709 277.379 220.027 277.379C221.639 277.379 223.001 277.682 224.114 278.287C225.228 278.893 226.092 279.732 226.707 280.807C227.332 281.871 227.718 283.106 227.864 284.513H225.052C224.915 283.517 224.661 282.662 224.29 281.949C223.919 281.227 223.392 280.67 222.708 280.279C222.024 279.889 221.131 279.693 220.027 279.693C219.08 279.693 218.245 279.874 217.522 280.235C216.81 280.597 216.209 281.109 215.721 281.773C215.242 282.438 214.881 283.233 214.637 284.161C214.393 285.089 214.271 286.119 214.271 287.252V289.405C214.271 290.45 214.378 291.432 214.593 292.35C214.817 293.268 215.154 294.073 215.604 294.767C216.053 295.46 216.624 296.007 217.317 296.407C218.011 296.798 218.831 296.993 219.778 296.993C220.979 296.993 221.937 296.803 222.649 296.422C223.362 296.041 223.899 295.494 224.261 294.781C224.632 294.068 224.896 293.214 225.052 292.218ZM239.908 277.672V299H237.125V277.672H239.908ZM246.764 277.672V279.986H230.284V277.672H246.764ZM262.88 277.672H265.692V292.101C265.692 293.702 265.336 295.035 264.623 296.1C263.91 297.164 262.963 297.965 261.781 298.502C260.609 299.029 259.335 299.293 257.958 299.293C256.513 299.293 255.204 299.029 254.032 298.502C252.87 297.965 251.947 297.164 251.264 296.1C250.59 295.035 250.253 293.702 250.253 292.101V277.672H253.051V292.101C253.051 293.214 253.256 294.132 253.666 294.854C254.076 295.577 254.647 296.114 255.38 296.466C256.122 296.817 256.981 296.993 257.958 296.993C258.944 296.993 259.804 296.817 260.536 296.466C261.278 296.114 261.854 295.577 262.265 294.854C262.675 294.132 262.88 293.214 262.88 292.101V277.672ZM270.881 277.672H277.941C279.543 277.672 280.896 277.916 281.999 278.404C283.112 278.893 283.957 279.615 284.533 280.572C285.119 281.52 285.412 282.687 285.412 284.073C285.412 285.05 285.212 285.943 284.812 286.754C284.421 287.555 283.854 288.238 283.112 288.805C282.38 289.361 281.501 289.776 280.476 290.05L279.685 290.357H273.049L273.02 288.058H278.029C279.045 288.058 279.89 287.882 280.563 287.53C281.237 287.169 281.745 286.686 282.087 286.08C282.429 285.475 282.6 284.806 282.6 284.073C282.6 283.253 282.438 282.535 282.116 281.92C281.794 281.305 281.286 280.831 280.593 280.499C279.909 280.157 279.025 279.986 277.941 279.986H273.708V299H270.881V277.672ZM283.347 299L278.161 289.332L281.105 289.317L286.364 298.824V299H283.347ZM293.149 277.672V299H290.322V277.672H293.149ZM315.447 277.672V299H312.605L301.868 282.55V299H299.041V277.672H301.868L312.649 294.166V277.672H315.447ZM336.969 288.38V296.188C336.705 296.578 336.285 297.018 335.709 297.506C335.133 297.984 334.337 298.404 333.321 298.766C332.315 299.117 331.017 299.293 329.425 299.293C328.126 299.293 326.93 299.068 325.836 298.619C324.752 298.16 323.81 297.496 323.009 296.627C322.218 295.748 321.603 294.684 321.163 293.434C320.733 292.174 320.519 290.748 320.519 289.156V287.501C320.519 285.909 320.704 284.488 321.075 283.238C321.456 281.988 322.013 280.929 322.745 280.06C323.478 279.181 324.376 278.517 325.44 278.067C326.505 277.608 327.726 277.379 329.103 277.379C330.733 277.379 332.096 277.662 333.189 278.229C334.293 278.785 335.152 279.557 335.768 280.543C336.393 281.529 336.793 282.652 336.969 283.912H334.142C334.015 283.141 333.761 282.438 333.38 281.803C333.009 281.168 332.477 280.66 331.783 280.279C331.09 279.889 330.196 279.693 329.103 279.693C328.116 279.693 327.262 279.874 326.539 280.235C325.816 280.597 325.221 281.114 324.752 281.788C324.283 282.462 323.932 283.277 323.697 284.234C323.473 285.191 323.36 286.271 323.36 287.472V289.156C323.36 290.387 323.502 291.485 323.785 292.452C324.078 293.419 324.493 294.244 325.03 294.928C325.567 295.602 326.207 296.114 326.949 296.466C327.701 296.817 328.531 296.993 329.439 296.993C330.445 296.993 331.261 296.91 331.886 296.744C332.511 296.568 332.999 296.363 333.351 296.129C333.702 295.885 333.971 295.655 334.156 295.44V290.665H329.22V288.38H336.969Z" fill="#333333"/>
<path d="M125.268 74.6364V38.2727H127.598V74.6364H125.268ZM130.879 50.6307C130.785 49.589 130.363 48.7794 129.615 48.2017C128.876 47.6146 127.821 47.321 126.447 47.321C125.538 47.321 124.781 47.4394 124.175 47.6761C123.569 47.9129 123.114 48.2396 122.811 48.6562C122.508 49.0634 122.352 49.5322 122.342 50.0625C122.323 50.4981 122.409 50.8816 122.598 51.2131C122.797 51.5445 123.081 51.8381 123.45 52.0938C123.829 52.34 124.284 52.5578 124.814 52.7472C125.344 52.9366 125.941 53.1023 126.604 53.2443L129.104 53.8125C130.543 54.125 131.812 54.5417 132.911 55.0625C134.018 55.5833 134.946 56.2036 135.695 56.9233C136.452 57.643 137.025 58.4716 137.413 59.4091C137.802 60.3466 138 61.3977 138.01 62.5625C138 64.3996 137.536 65.9763 136.618 67.2926C135.699 68.6089 134.378 69.6174 132.655 70.3182C130.941 71.0189 128.872 71.3693 126.447 71.3693C124.014 71.3693 121.893 71.0047 120.084 70.2756C118.275 69.5464 116.869 68.4384 115.865 66.9517C114.861 65.465 114.345 63.5852 114.317 61.3125H121.05C121.107 62.25 121.357 63.0312 121.803 63.6562C122.248 64.2812 122.858 64.7547 123.635 65.0767C124.421 65.3987 125.33 65.5597 126.362 65.5597C127.309 65.5597 128.114 65.4318 128.777 65.1761C129.449 64.9205 129.965 64.5653 130.325 64.1108C130.685 63.6562 130.87 63.1354 130.879 62.5483C130.87 61.9991 130.699 61.5303 130.368 61.142C130.036 60.7443 129.525 60.4034 128.834 60.1193C128.152 59.8258 127.281 59.5559 126.22 59.3097L123.18 58.5994C120.661 58.0218 118.678 57.089 117.229 55.8011C115.78 54.5038 115.06 52.7519 115.07 50.5455C115.06 48.7462 115.543 47.1695 116.518 45.8153C117.494 44.4612 118.843 43.4053 120.567 42.6477C122.29 41.8902 124.255 41.5114 126.462 41.5114C128.715 41.5114 130.671 41.8949 132.328 42.6619C133.995 43.4195 135.287 44.4848 136.206 45.858C137.125 47.2311 137.593 48.822 137.612 50.6307H130.879ZM154.166 71.3977C152.575 71.3977 151.051 71.142 149.592 70.6307C148.134 70.1098 146.837 69.286 145.7 68.1591C144.564 67.0227 143.669 65.536 143.016 63.6989C142.362 61.8523 142.04 59.6032 142.05 56.9517C142.059 54.5559 142.353 52.4062 142.93 50.5028C143.508 48.59 144.332 46.9659 145.402 45.6307C146.482 44.2955 147.769 43.2775 149.266 42.5767C150.771 41.8665 152.452 41.5114 154.308 41.5114C156.344 41.5114 158.139 41.9091 159.692 42.7045C161.254 43.4905 162.504 44.5511 163.442 45.8864C164.379 47.2121 164.933 48.6894 165.104 50.3182H158.186C157.978 49.3996 157.518 48.7036 156.808 48.2301C156.107 47.7472 155.274 47.5057 154.308 47.5057C152.528 47.5057 151.197 48.2775 150.317 49.821C149.446 51.3646 149 53.429 148.982 56.0142H149.166C149.564 55.143 150.137 54.3949 150.885 53.7699C151.633 53.1449 152.49 52.6667 153.456 52.3352C154.431 51.9943 155.464 51.8239 156.553 51.8239C158.295 51.8239 159.834 52.2263 161.169 53.0312C162.504 53.8362 163.551 54.9394 164.308 56.3409C165.066 57.733 165.44 59.3286 165.43 61.1278C165.44 63.1544 164.966 64.9441 164.01 66.4972C163.054 68.0407 161.728 69.2434 160.033 70.1051C158.347 70.9669 156.392 71.3977 154.166 71.3977ZM154.124 66C154.985 66 155.757 65.7964 156.439 65.3892C157.121 64.982 157.656 64.428 158.044 63.7273C158.432 63.0265 158.622 62.2358 158.612 61.3551C158.622 60.465 158.432 59.6742 158.044 58.983C157.665 58.2917 157.135 57.7424 156.453 57.3352C155.781 56.928 155.009 56.7244 154.138 56.7244C153.503 56.7244 152.911 56.8428 152.362 57.0795C151.813 57.3163 151.335 57.6477 150.928 58.0739C150.53 58.4905 150.217 58.983 149.99 59.5511C149.763 60.1098 149.644 60.7159 149.635 61.3693C149.644 62.2311 149.843 63.0123 150.232 63.7131C150.62 64.4138 151.15 64.9725 151.822 65.3892C152.495 65.7964 153.262 66 154.124 66ZM171.654 71L183.387 47.7614V47.5767H169.665V41.9091H190.66V47.6193L178.884 71H171.654ZM206.298 71.3977C204.034 71.3977 202.013 71.0379 200.232 70.3182C198.461 69.589 197.069 68.6042 196.056 67.3636C195.052 66.1136 194.55 64.7027 194.55 63.1307C194.55 61.928 194.839 60.8248 195.417 59.821C195.995 58.8172 196.776 57.9839 197.761 57.321C198.755 56.6487 199.863 56.2178 201.085 56.0284V55.8011C199.484 55.5076 198.173 54.7642 197.15 53.571C196.137 52.3778 195.63 50.9811 195.63 49.3807C195.63 47.8655 196.089 46.5161 197.008 45.3324C197.936 44.1487 199.2 43.2159 200.8 42.5341C202.41 41.8523 204.243 41.5114 206.298 41.5114C208.353 41.5114 210.18 41.8523 211.781 42.5341C213.39 43.2159 214.655 44.1487 215.573 45.3324C216.501 46.5161 216.965 47.8655 216.965 49.3807C216.965 50.9905 216.449 52.392 215.417 53.5852C214.394 54.7689 213.092 55.5076 211.511 55.8011V56.0284C212.723 56.2178 213.821 56.6487 214.806 57.321C215.8 57.9839 216.586 58.8172 217.164 59.821C217.751 60.8248 218.045 61.928 218.045 63.1307C218.045 64.7027 217.538 66.1136 216.525 67.3636C215.512 68.6042 214.12 69.589 212.349 70.3182C210.587 71.0379 208.57 71.3977 206.298 71.3977ZM206.298 66.4119C207.159 66.4119 207.917 66.2509 208.57 65.929C209.224 65.5975 209.735 65.1383 210.104 64.5511C210.483 63.964 210.673 63.3011 210.673 62.5625C210.673 61.8049 210.483 61.1326 210.104 60.5455C209.726 59.9583 209.205 59.4991 208.542 59.1676C207.888 58.8267 207.14 58.6562 206.298 58.6562C205.464 58.6562 204.716 58.8267 204.053 59.1676C203.39 59.4991 202.87 59.9583 202.491 60.5455C202.112 61.1326 201.923 61.8049 201.923 62.5625C201.923 63.3011 202.107 63.964 202.477 64.5511C202.855 65.1288 203.371 65.5833 204.025 65.9148C204.688 66.2462 205.445 66.4119 206.298 66.4119ZM206.298 53.6989C207.036 53.6989 207.69 53.5473 208.258 53.2443C208.835 52.9413 209.285 52.5199 209.607 51.9801C209.939 51.4403 210.104 50.8295 210.104 50.1477C210.104 49.4659 209.939 48.8646 209.607 48.3438C209.285 47.8229 208.84 47.4157 208.272 47.1222C207.704 46.8191 207.046 46.6676 206.298 46.6676C205.559 46.6676 204.901 46.8191 204.323 47.1222C203.746 47.4157 203.296 47.8229 202.974 48.3438C202.652 48.8646 202.491 49.4659 202.491 50.1477C202.491 50.8295 202.652 51.4403 202.974 51.9801C203.305 52.5104 203.76 52.9318 204.337 53.2443C204.915 53.5473 205.568 53.6989 206.298 53.6989ZM229.29 67.0227L229.162 68.5994C229.048 69.9062 228.816 71.1799 228.466 72.4205C228.125 73.6705 227.76 74.7926 227.372 75.7869C226.984 76.7813 226.676 77.553 226.449 78.1023H222.074C222.225 77.553 222.429 76.7813 222.685 75.7869C222.95 74.7926 223.196 73.6705 223.423 72.4205C223.651 71.1705 223.778 69.9015 223.807 68.6136L223.835 67.0227H229.29ZM245.893 41.5114C247.484 41.5114 249.004 41.7718 250.453 42.2926C251.902 42.804 253.195 43.6231 254.331 44.75C255.467 45.8674 256.362 47.34 257.016 49.1676C257.669 50.9953 257.996 53.2254 257.996 55.858C258.005 58.2822 257.721 60.4555 257.143 62.3778C256.566 64.2907 255.737 65.9195 254.658 67.2642C253.588 68.6089 252.3 69.6364 250.794 70.3466C249.288 71.0473 247.607 71.3977 245.751 71.3977C243.706 71.3977 241.902 71.0047 240.339 70.2188C238.786 69.4233 237.541 68.3532 236.604 67.0085C235.676 65.6638 235.122 64.1581 234.942 62.4915H241.859C242.077 63.4574 242.536 64.1866 243.237 64.679C243.938 65.1619 244.776 65.4034 245.751 65.4034C247.532 65.4034 248.862 64.6316 249.743 63.0881C250.624 61.5445 251.064 59.447 251.064 56.7955H250.893C250.486 57.6667 249.909 58.4148 249.161 59.0398C248.422 59.6648 247.565 60.143 246.589 60.4744C245.614 60.8059 244.587 60.9716 243.507 60.9716C241.765 60.9716 240.226 60.5739 238.891 59.7784C237.565 58.983 236.523 57.8892 235.766 56.4972C235.018 55.1051 234.639 53.5142 234.629 51.7244C234.62 49.7169 235.089 47.946 236.036 46.4119C236.982 44.8684 238.304 43.6657 239.999 42.804C241.694 41.9328 243.659 41.5019 245.893 41.5114ZM245.936 46.9091C245.065 46.9091 244.288 47.1127 243.607 47.5199C242.934 47.9271 242.404 48.4763 242.016 49.1676C241.627 49.8589 241.438 50.6354 241.447 51.4972C241.457 52.3589 241.651 53.1354 242.03 53.8267C242.418 54.518 242.944 55.0672 243.607 55.4744C244.279 55.8816 245.046 56.0852 245.908 56.0852C246.552 56.0852 247.148 55.9669 247.697 55.7301C248.247 55.4934 248.725 55.1667 249.132 54.75C249.539 54.3239 249.857 53.8314 250.084 53.2727C250.321 52.714 250.434 52.1174 250.425 51.483C250.415 50.6402 250.216 49.8731 249.828 49.1818C249.44 48.4905 248.905 47.9413 248.223 47.5341C247.551 47.1174 246.788 46.9091 245.936 46.9091ZM263.31 71L275.043 47.7614V47.5767H261.322V41.9091H282.316V47.6193L270.54 71H263.31ZM297.577 71.3977C295.362 71.3977 293.397 71.0189 291.683 70.2614C289.978 69.4943 288.633 68.4384 287.648 67.0938C286.664 65.7491 286.162 64.2008 286.143 62.4489H293.217C293.245 63.0833 293.449 63.6468 293.827 64.1392C294.206 64.6222 294.722 65.0009 295.376 65.2756C296.029 65.5502 296.772 65.6875 297.606 65.6875C298.439 65.6875 299.173 65.5407 299.808 65.2472C300.451 64.9441 300.953 64.5322 301.313 64.0114C301.673 63.4811 301.848 62.875 301.839 62.1932C301.848 61.5114 301.654 60.9053 301.256 60.375C300.859 59.8447 300.295 59.4328 299.566 59.1392C298.846 58.8456 297.994 58.6989 297.009 58.6989H294.183V53.6989H297.009C297.871 53.6989 298.629 53.5568 299.282 53.2727C299.945 52.9886 300.461 52.5909 300.83 52.0795C301.2 51.5587 301.379 50.9621 301.37 50.2898C301.379 49.6364 301.223 49.0634 300.901 48.571C300.589 48.0691 300.148 47.6809 299.58 47.4062C299.022 47.1316 298.373 46.9943 297.634 46.9943C296.858 46.9943 296.152 47.1316 295.518 47.4062C294.893 47.6809 294.396 48.0691 294.026 48.571C293.657 49.0729 293.463 49.6553 293.444 50.3182H286.725C286.744 48.5852 287.227 47.0606 288.174 45.7443C289.121 44.4186 290.409 43.3816 292.038 42.6335C293.676 41.8854 295.541 41.5114 297.634 41.5114C299.718 41.5114 301.55 41.8759 303.131 42.6051C304.713 43.3343 305.944 44.3286 306.825 45.5881C307.705 46.8381 308.146 48.2538 308.146 49.8352C308.155 51.4735 307.62 52.8229 306.54 53.8835C305.47 54.9441 304.093 55.5975 302.407 55.8438V56.071C304.661 56.3362 306.361 57.0653 307.506 58.2585C308.662 59.4517 309.235 60.9432 309.225 62.733C309.225 64.4186 308.728 65.9148 307.734 67.2216C306.749 68.5189 305.376 69.5417 303.614 70.2898C301.862 71.0284 299.85 71.3977 297.577 71.3977Z" fill="white"/>
<path d="M273.83 168.08H273.54L274.2 168.8L273.83 168.08Z" fill="white"/>
<path d="M155.33 194.3H150.56V201.45H144.6V183.57H150.56V189.53H155.33V183.57H161.29V201.45H155.33V194.3Z" fill="#A1A1A1"/>
<path d="M164.87 183.57H170.83V201.45H164.87V183.57Z" fill="#A1A1A1"/>
<path d="M182.92 202.19C181.58 202.2 180.26 201.98 179 201.53C177.84 201.12 176.78 200.48 175.88 199.65C174.98 198.83 174.27 197.82 173.79 196.69C172.77 194.2 172.77 191.4 173.79 188.91C174.27 187.79 174.97 186.78 175.85 185.94C176.74 185.11 177.79 184.46 178.94 184.03C180.16 183.57 181.45 183.34 182.75 183.36C184.11 183.35 185.45 183.58 186.73 184.04C187.88 184.43 188.93 185.07 189.79 185.91L186.29 190.12C185.93 189.69 185.48 189.33 184.98 189.07C184.4 188.79 183.75 188.66 183.11 188.68C182.62 188.68 182.13 188.79 181.68 188.98C181.23 189.17 180.82 189.46 180.49 189.81C180.12 190.18 179.83 190.62 179.63 191.11C179.4 191.64 179.28 192.22 179.3 192.8C179.25 193.9 179.6 194.98 180.28 195.84C181.08 196.69 182.23 197.13 183.39 197.03C183.65 197.05 183.91 197.05 184.18 197.03C184.44 197.03 184.04 196.84 184.04 196.84V195.48H181.57V190.71H189.91V200.42C189.51 200.72 189.07 200.96 188.6 201.11C188.03 201.33 187.45 201.51 186.86 201.66C186.22 201.82 185.58 201.94 184.93 202.03C184.25 202.14 183.59 202.18 182.92 202.19Z" fill="#A1A1A1"/>
<path d="M204.2 194.3H199.43V201.45H193.47V183.57H199.43V189.53H204.2V183.57H210.16V201.45H204.2V194.3Z" fill="#A1A1A1"/>
<path d="M213.74 183.57H219.7V196.68H225.66V201.45H213.74V183.57V183.57Z" fill="#A1A1A1"/>
<path d="M232.13 183.57H238.52L245.49 201.45H238.6L237.75 199.07H232.59L231.79 201.45H225.08L232.13 183.57ZM235.23 189.89L233.78 194.3H236.68L235.23 189.89Z" fill="#A1A1A1"/>
<path d="M247.12 183.57H253.08L258.19 193.11H258.3L258.05 183.57H263.81V201.45H257.66L252.69 193.11H252.59L252.84 201.45H247.12V183.57V183.57Z" fill="#A1A1A1"/>
<path d="M266.19 201.45V183.57H272.85C274.21 183.57 275.57 183.71 276.9 183.99C278.12 184.24 279.28 184.73 280.31 185.43C281.32 186.12 282.14 187.06 282.69 188.15C283.85 190.81 283.85 193.83 282.69 196.49C282.17 197.56 281.42 198.5 280.48 199.24C279.51 199.98 278.4 200.54 277.23 200.87C275.98 201.22 274.68 201.4 273.38 201.39L266.19 201.45ZM272.15 189.53V196.68H273.2C274.29 196.75 275.37 196.45 276.26 195.82C277.03 195.09 277.42 194.04 277.32 192.98C277.37 192.02 276.98 191.08 276.26 190.44C275.45 189.8 274.43 189.47 273.4 189.52H272.15V189.53Z" fill="#A1A1A1"/>
<path d="M156.53 208.6H160.11V215.75H163.69V219.33H156.54V208.6H156.53Z" fill="#A1A1A1"/>
<path d="M169.64 219.25C168.93 219.27 168.22 219.15 167.55 218.92C166.99 218.72 166.49 218.41 166.06 218C165.67 217.61 165.37 217.14 165.18 216.62C164.98 216.07 164.87 215.49 164.87 214.9V208.61H168.45V214.38C167.75 214.88 167.87 215.26 168.1 215.57C168.67 216.13 169.57 216.13 170.14 215.57C170.38 215.28 170.5 214.9 170.83 214.38V208.61H174.41V214.9C174.41 215.49 174.31 216.07 174.1 216.62C173.91 217.14 173.61 217.61 173.22 218C172.78 218.4 172.27 218.71 171.72 218.92C171.05 219.15 170.34 219.26 169.64 219.25Z" fill="#A1A1A1"/>
<path d="M178.77 213.37L178.94 219.33H175.6V208.6H180.25L182.17 214.56H182.24L183.91 208.6H188.68V219.33H185.27L185.38 213.37H185.28L183.3 219.33H180.8L178.86 213.37H178.77V213.37Z" fill="#A1A1A1"/>
<path d="M197.05 213.75C197.31 213.82 197.56 213.92 197.8 214.05C198.05 214.19 198.27 214.36 198.47 214.56C198.66 214.78 198.82 215.02 198.93 215.29C199.04 215.58 199.1 215.89 199.1 216.2C199.12 216.72 198.99 217.23 198.74 217.68C198.5 218.07 198.17 218.4 197.77 218.65C197.35 218.91 196.89 219.09 196.41 219.19C195.9 219.3 195.37 219.35 194.85 219.34H189.89V208.6H194.38C194.85 208.6 195.32 208.64 195.79 208.7C196.27 208.76 196.73 208.9 197.17 209.09C197.59 209.29 197.96 209.59 198.23 209.97C198.52 210.41 198.67 210.93 198.65 211.46C198.66 211.97 198.51 212.47 198.21 212.89C197.9 213.27 197.48 213.55 197.02 213.71L197.05 213.75ZM193.48 210.99V212.18H194.35C194.55 212.19 194.75 212.14 194.91 212.03C195.06 211.92 195.15 211.73 195.14 211.54C195.15 211.37 195.05 211.21 194.9 211.13C194.71 211.03 194.5 210.98 194.29 210.99H193.48ZM193.48 214.56V215.75H194.79C195.06 216.08 195.29 216.02 195.46 215.89C195.63 215.77 195.73 215.57 195.72 215.37C195.73 215.24 195.68 215.12 195.6 215.02C195.53 214.93 195.44 214.86 195.34 214.82C195.23 214.76 195.11 214.72 194.99 214.7C194.86 214.7 194.73 214.65 194.64 214.56H193.48Z" fill="#A1A1A1"/>
<path d="M200.63 208.6H207.78V210.98H204.2V212.17H207.78V214.55H204.2V215.74H207.78V219.32H200.63V208.6Z" fill="#A1A1A1"/>
<path d="M208.97 208.6H213.74C214.28 208.6 214.81 208.66 215.34 208.75C215.85 208.85 216.33 209.04 216.77 209.31C217.19 209.59 217.54 209.96 217.78 210.39C218.05 210.91 218.18 211.49 218.16 212.07C218.18 212.69 218.01 213.29 217.67 213.81C217.33 214.34 216.83 214.75 216.25 215L219.03 219.35H214.58L212.66 215.77H212.54V219.35H208.96V208.6H208.97ZM212.55 212.18H213.47C213.59 212.84 213.72 212.82 213.85 212.81C213.99 212.79 214.12 212.75 214.24 212.68C214.36 212.62 214.47 212.53 214.55 212.42C214.64 212.29 214.68 212.14 214.67 211.98C214.68 211.83 214.64 211.68 214.57 211.54C214.51 211.44 214.42 211.35 214.31 211.3C214.2 211.24 214.09 211.2 213.96 211.19C213.81 211.2 213.67 211.12 213.6 210.99H212.54V212.18H212.55Z" fill="#A1A1A1"/>
<path d="M226.95 219.12C226.55 219.12 226.15 219.08 225.76 219C225.35 218.93 224.96 218.83 224.57 218.69C224.2 218.55 223.85 218.39 223.51 218.19C223.19 218.01 222.89 217.8 222.62 217.56L224.74 215.26C225.01 215.54 225.32 215.77 225.67 215.94C226.04 216.13 226.45 216.23 226.86 216.24C227.04 216.25 227.23 216.21 227.4 216.14C227.55 216.08 227.65 215.92 227.64 215.76C227.64 215.67 227.61 215.58 227.56 215.51C227.48 215.42 227.39 215.34 227.27 215.3C227.09 215.21 226.9 215.13 226.71 215.06C226.47 214.96 226.17 214.87 225.82 214.75C225.47 214.64 225.13 214.5 224.81 214.33C224.5 214.17 224.21 213.97 223.95 213.73C223.7 213.49 223.5 213.21 223.37 212.9C223.21 212.52 223.13 212.12 223.14 211.71C223.12 211.14 223.26 210.57 223.53 210.07C223.79 209.63 224.14 209.25 224.56 208.96C224.98 208.67 225.46 208.46 225.95 208.34C226.45 208.21 226.97 208.15 227.49 208.15C228.2 208.16 228.91 208.29 229.58 208.54C230.27 208.81 230.91 209.21 231.44 209.73L229.27 211.94C229.05 211.65 228.75 211.42 228.41 211.27C228.12 211.13 227.81 211.05 227.49 211.04C227.28 211.03 227.07 211.07 226.87 211.15C226.72 211.21 226.63 211.35 226.64 211.51C226.64 211.67 226.73 211.81 226.88 211.87C227.13 211.98 227.39 212.08 227.65 212.16L228.84 212.58C229.26 212.73 229.66 212.93 230.03 213.19C230.37 213.43 230.66 213.74 230.88 214.1C231.12 214.51 231.24 214.97 231.23 215.45C231.25 216.54 230.75 217.58 229.87 218.24C229.46 218.55 228.99 218.79 228.5 218.93C227.98 219.04 227.47 219.12 226.95 219.12Z" fill="#A1A1A1"/>
<path d="M235.61 208.6H239.01L242.73 218.14H239.42L238.87 216.95H235.58L235.07 218.14H231.85L235.61 208.6ZM237.26 212L236.39 214.56H238.07L237.26 212Z" fill="#A1A1A1"/>
<path d="M243.54 208.6H247.12V215.75H250.7V219.33H243.55V208.6H243.54Z" fill="#A1A1A1"/>
<path d="M251.88 208.6H259.03V210.98H255.45V212.17H259.03V214.55H255.45V215.74H259.03V219.32H251.88V208.6Z" fill="#A1A1A1"/>
<path d="M264.17 219.12C263.77 219.12 263.37 219.08 262.98 219C262.58 218.93 262.18 218.83 261.79 218.69C261.42 218.55 261.07 218.38 260.73 218.19C260.41 218.01 260.11 217.8 259.84 217.56L261.96 215.26C262.25 215.55 262.58 215.78 262.94 215.96C263.31 216.15 263.72 216.25 264.13 216.26C264.31 216.27 264.49 216.24 264.65 216.16C264.81 216.1 264.91 215.95 264.9 215.78C264.9 215.69 264.87 215.6 264.82 215.53C264.74 215.44 264.64 215.37 264.53 215.32C264.35 215.23 264.16 215.15 263.97 215.08C263.73 214.98 263.43 214.89 263.06 214.77C262.72 214.66 262.38 214.52 262.06 214.35C261.75 214.19 261.46 213.99 261.2 213.75C260.95 213.51 260.75 213.23 260.6 212.92C260.45 212.54 260.37 212.14 260.39 211.73C260.37 211.16 260.51 210.59 260.78 210.09C261.03 209.65 261.38 209.27 261.79 208.98C262.21 208.69 262.69 208.48 263.18 208.36C263.68 208.23 264.2 208.17 264.72 208.17C265.43 208.18 266.14 208.31 266.81 208.56C267.51 208.83 268.14 209.23 268.68 209.75L266.51 211.96C266.28 211.67 265.99 211.45 265.65 211.29C265.36 211.15 265.04 211.07 264.72 211.06C264.51 211.05 264.3 211.09 264.11 211.17C263.96 211.23 263.87 211.37 263.87 211.53C263.87 211.69 263.97 211.83 264.11 211.89C264.37 212 264.63 212.1 264.9 212.18C265.27 212.3 265.66 212.44 266.09 212.6C266.51 212.75 266.91 212.95 267.28 213.21C267.62 213.45 267.91 213.76 268.14 214.12C268.38 214.53 268.49 215 268.47 215.47C268.49 216.04 268.36 216.6 268.1 217.1C267.86 217.56 267.53 217.97 267.12 218.29C266.71 218.6 266.24 218.84 265.75 218.98C265.25 219.09 264.71 219.14 264.17 219.12Z" fill="#A1A1A1"/>
<path d="M178.52 142.6L185.14 149.23L176.23 165.12L212.44 128.93L248.03 164.5H248.3L239.73 149.23L246.35 142.6L267.99 164.21L297.98 193.11H308.62L246.35 130.67L236.24 140.79L212.44 117L188.64 140.79L178.52 130.67L116 193.11H127.66L155.27 165.82L178.52 142.6Z" fill="#A1A1A1"/>
<defs>
<filter id="filter0_d_1060_707" x="0" y="0" width="424" height="340.5" filterUnits="userSpaceOnUse" color-interpolation-filters="sRGB">
<feFlood flood-opacity="0" result="BackgroundImageFix"/>
<feColorMatrix in="SourceAlpha" type="matrix" values="0 0 0 0 0 0 0 0 0 0 0 0 0 0 0 0 0 0 127 0" result="hardAlpha"/>
<feOffset/>
<feGaussianBlur stdDeviation="7"/>
<feComposite in2="hardAlpha" operator="out"/>
<feColorMatrix type="matrix" values="0 0 0 0 0 0 0 0 0 0 0 0 0 0 0 0 0 0 0.25 0"/>
<feBlend mode="normal" in2="BackgroundImageFix" result="effect1_dropShadow_1060_707"/>
<feBlend mode="normal" in="SourceGraphic" in2="effect1_dropShadow_1060_707" result="shape"/>
</filter>
</defs>
</svg>
