<svg width="424" height="341" viewBox="0 0 424 341" fill="none" xmlns="http://www.w3.org/2000/svg">
<g filter="url(#filter0_d_1060_762)">
<path d="M14 33C14 22.5066 22.5066 14 33 14H391C401.493 14 410 22.5066 410 33V240H14V33Z" fill="white"/>
<path d="M14 33C14 22.5066 22.5066 14 33 14H391C401.493 14 410 22.5066 410 33V97H14V33Z" fill="#24AD7A"/>
<path d="M410 307.5C410 317.993 401.493 326.5 391 326.5L33 326.5C22.5066 326.5 14 317.993 14 307.5L14 251L410 251L410 307.5Z" fill="white"/>
<path d="M210.05 119C211.6 119 213.16 119 214.71 119C214.85 119.03 214.99 119.06 215.14 119.08C216.01 119.15 216.89 119.21 217.76 119.29C219.91 119.48 222.03 119.85 224.12 120.35C232.07 122.24 239.19 125.81 245.44 131.08C252.27 136.85 257.29 143.91 260.47 152.28C262.22 156.87 263.26 161.63 263.61 166.53C263.65 167.04 263.71 167.54 263.75 168.05C263.75 169.6 263.75 171.16 263.75 172.71C263.72 172.85 263.69 172.99 263.67 173.14C263.53 174.58 263.43 176.02 263.25 177.46C262.88 180.43 262.2 183.32 261.27 186.16C258.49 194.69 253.79 202.01 247.21 208.11C241.58 213.33 235.1 217.09 227.79 219.4C224.02 220.59 220.16 221.34 216.22 221.61C215.71 221.64 215.21 221.71 214.7 221.75C213.15 221.75 211.59 221.75 210.04 221.75C209.53 221.7 209.03 221.64 208.52 221.61C205.97 221.44 203.45 221.06 200.96 220.49C190.63 218.08 181.85 212.98 174.63 205.22C169.42 199.61 165.67 193.14 163.36 185.85C162.16 182.07 161.41 178.2 161.14 174.24C161.11 173.73 161.04 173.23 161 172.72C161 171.17 161 169.61 161 168.06C161.03 167.91 161.07 167.75 161.08 167.6C161.18 165.25 161.48 162.92 161.93 160.62C162.9 155.63 164.57 150.88 166.97 146.38C170.48 139.79 175.2 134.21 181.11 129.65C185.89 125.96 191.17 123.2 196.93 121.38C200.71 120.18 204.58 119.43 208.54 119.16C209.04 119.11 209.54 119.05 210.05 119ZM212.36 212.68C235.69 212.73 254.68 193.8 254.69 170.37C254.7 146.89 235.45 127.63 211.52 128.07C188.84 128.49 169.65 147.23 170.09 171.24C170.5 193.91 189.03 212.68 212.36 212.68Z" fill="#A1A1A1"/>
<path d="M226.78 173.57C226.46 174.94 226.15 176.3 225.84 177.66C225.32 179.92 224.81 182.18 224.28 184.44C224.13 185.08 224.12 185.08 223.45 185.08C221.39 185.08 219.32 185.08 217.26 185.08C217.25 185.08 217.24 185.08 217.23 185.08C216.42 185.1 216.43 185.1 216.26 184.31C215.46 180.55 214.65 176.79 213.85 173.03C213.36 170.73 212.87 168.42 212.38 166.12C212.36 166 212.31 165.89 212.2 165.77C212.12 166.16 212.03 166.54 211.95 166.93C211.39 169.62 210.82 172.31 210.26 175C209.62 178.08 208.98 181.16 208.34 184.24C208.16 185.12 208.15 185.11 207.26 185.11C205.04 185.11 202.81 185.1 200.59 185.11C200.26 185.11 200.12 185.01 200.05 184.68C199.45 181.97 198.84 179.27 198.23 176.56C198.21 176.46 198.17 176.37 198.06 176.28C197.95 176.68 197.85 177.08 197.73 177.47C196.96 179.96 195.41 181.86 193.29 183.32C191.48 184.57 189.44 185.22 187.28 185.5C185.57 185.73 183.85 185.71 182.14 185.46C180.07 185.16 178.14 184.51 176.43 183.29C174.78 182.12 173.58 180.58 172.69 178.78C172.14 177.66 171.73 176.49 171.42 175.29C171.36 175.05 171.41 174.98 171.65 174.93C173.95 174.45 176.24 173.95 178.54 173.46C178.96 173.37 179.38 173.29 179.81 173.21C180.01 173.71 180.18 174.23 180.43 174.71C181.16 176.16 182.34 177.03 183.95 177.3C185.13 177.49 186.31 177.53 187.47 177.17C188.26 176.93 188.83 176.45 188.95 175.59C189.08 174.59 188.8 173.74 187.86 173.21C186.98 172.71 186.01 172.47 185.03 172.25C182.34 171.62 179.7 170.87 177.29 169.47C175.08 168.19 173.81 166.19 173.27 163.76C172.36 159.67 173.15 155.96 176.06 152.82C177.57 151.19 179.49 150.26 181.64 149.77C183.32 149.38 185.03 149.32 186.73 149.42C188.71 149.54 190.58 150.07 192.3 151.09C192.35 151.12 192.4 151.14 192.55 151.22C192.48 150.88 192.44 150.63 192.38 150.38C192.28 149.91 192.28 149.91 192.78 149.92C193.58 149.93 194.38 149.95 195.18 149.95C196.96 149.95 198.74 149.95 200.51 149.92C200.83 149.92 200.94 150.02 200.99 150.32C201.44 152.58 201.91 154.84 202.37 157.1C202.94 159.87 203.51 162.65 204.09 165.42C204.4 166.91 204.7 168.4 205.01 169.9C205.02 169.95 205.04 170 205.14 170.05C205.22 169.68 205.3 169.32 205.38 168.95C205.75 167.15 206.12 165.34 206.49 163.54C206.91 161.47 207.34 159.4 207.76 157.33C208.1 155.67 208.45 154.02 208.79 152.36C208.93 151.67 209.08 150.98 209.2 150.29C209.25 150.02 209.33 149.88 209.66 149.89C210.65 149.92 211.65 149.93 212.64 149.92C213.8 149.92 214.97 149.91 216.13 149.89C216.4 149.88 216.51 149.98 216.56 150.24C217.17 153.12 217.8 155.99 218.42 158.87C219.21 162.5 219.99 166.14 220.78 169.77C220.8 169.88 220.84 169.98 220.95 170.09C222.37 163.38 223.79 156.67 225.21 149.92C227.52 149.92 229.82 149.92 232.19 149.92C232.01 150.75 231.83 151.55 231.66 152.35C231.68 152.36 231.71 152.38 231.73 152.39C232.04 152.15 232.34 151.89 232.65 151.66C234.23 150.45 236.02 149.75 237.99 149.48C240.34 149.16 242.65 149.35 244.87 150.19C246.86 150.94 248.43 152.25 249.65 153.98C251.16 156.14 252 158.57 252.39 161.16C252.49 161.81 252.55 162.47 252.64 163.12C252.67 163.36 252.57 163.46 252.34 163.47C251.92 163.49 251.5 163.52 251.08 163.55C249.78 163.62 248.49 163.69 247.19 163.77C246.3 163.83 245.42 163.91 244.54 163.97C244.1 164 244.1 163.99 244.1 163.56C244.1 162.4 243.98 161.26 243.61 160.16C243.22 159.02 242.56 158.07 241.44 157.55C240 156.88 238.4 157.41 237.47 158.79C236.75 159.86 236.42 161.08 236.19 162.33C235.84 164.23 235.74 166.16 235.76 168.08C235.79 170.05 235.85 172.02 236.33 173.94C236.55 174.83 236.91 175.66 237.52 176.37C238.98 178.05 241.86 177.85 243.05 175.97C243.65 175.02 243.94 173.96 244.1 172.86C244.15 172.54 244.16 172.22 244.23 171.91C244.25 171.82 244.4 171.68 244.49 171.69C245.28 171.73 246.08 171.8 246.87 171.86C248.7 171.99 250.53 172.13 252.35 172.25C252.55 172.26 252.61 172.34 252.59 172.53C252.21 175.79 251.34 178.86 249.17 181.41C247.37 183.52 245.1 184.88 242.33 185.37C241.13 185.59 239.93 185.65 238.72 185.54C235.4 185.26 232.65 183.85 230.47 181.31C228.57 179.09 227.51 176.5 226.9 173.69C226.89 173.65 226.87 173.61 226.86 173.57C226.86 173.59 226.84 173.59 226.78 173.57ZM194.31 159.15C194.18 159.19 194.13 159.2 194.08 159.22C192.83 159.67 191.57 160.1 190.32 160.56C190.02 160.67 189.9 160.63 189.78 160.32C189.29 159.06 188.5 158.06 187.2 157.55C186 157.08 184.77 157.07 183.54 157.37C182.67 157.59 182.13 158.24 182.05 159.09C181.97 159.99 182.21 160.76 183.09 161.17C183.61 161.41 184.16 161.63 184.71 161.79C186.97 162.45 189.24 163.07 191.5 163.74C193.2 164.24 194.68 165.11 195.82 166.48C195.84 166.51 195.89 166.52 195.98 166.57C195.42 164.07 194.87 161.63 194.31 159.15Z" fill="#A1A1A1"/>
<path d="M194.99 188.56C195.06 189.45 195.13 190.31 195.2 191.17C195.22 191.17 195.25 191.17 195.27 191.18C195.31 190.83 195.35 190.47 195.39 190.12C195.44 189.68 195.5 189.24 195.54 188.8C195.56 188.62 195.63 188.54 195.82 188.55C196.13 188.56 196.43 188.55 196.77 188.55C196.85 189.47 196.92 190.37 197 191.26C197.03 191.26 197.05 191.26 197.08 191.25C197.18 190.36 197.28 189.47 197.38 188.56C197.77 188.56 198.13 188.56 198.52 188.56C198.35 190.06 198.17 191.54 198 193.07C197.55 193.07 197.12 193.08 196.7 193.06C196.63 193.06 196.54 192.92 196.52 192.83C196.41 192.19 196.31 191.55 196.16 190.9C196.09 191.38 196.02 191.86 195.94 192.34C195.8 193.23 195.99 193.06 195.13 193.08C194.89 193.09 194.66 193.08 194.4 193.08C194.22 191.55 194.05 190.08 193.87 188.57C194.26 188.56 194.61 188.56 194.99 188.56Z" fill="#A1A1A1"/>
<path d="M192.89 188.56C192.89 188.86 192.89 189.13 192.89 189.42C192.67 189.44 192.47 189.45 192.23 189.47C192.23 190.66 192.23 191.84 192.23 193.07C191.87 193.07 191.54 193.09 191.21 193.06C191.14 193.05 191.05 192.87 191.05 192.76C191.04 191.79 191.04 190.82 191.04 189.85C191.04 189.73 191.04 189.61 191.04 189.46C190.56 189.46 190.11 189.46 189.64 189.46C189.64 190.65 189.64 191.84 189.64 193.05C189.24 193.05 188.87 193.05 188.47 193.05C188.47 191.86 188.47 190.69 188.47 189.51C188.22 189.46 187.87 189.47 187.8 189.34C187.69 189.14 187.77 188.84 187.77 188.56C189.49 188.56 191.17 188.56 192.89 188.56Z" fill="#A1A1A1"/>
<path d="M230 188.55C230.41 188.55 230.76 188.55 231.15 188.55C231.16 188.69 231.17 188.82 231.17 188.95C231.17 189.92 231.17 190.89 231.17 191.86C231.17 191.95 231.15 192.05 231.18 192.13C231.21 192.23 231.28 192.31 231.33 192.4C231.39 192.3 231.49 192.21 231.49 192.11C231.5 191.3 231.5 190.49 231.5 189.68C231.5 189.32 231.5 188.95 231.5 188.56C231.89 188.56 232.26 188.56 232.62 188.56C232.62 189.84 232.62 191.11 232.62 192.38C232.62 192.4 232.6 192.42 232.6 192.44C232.41 192.96 231.89 193.21 231.15 193.15C230.54 193.1 230.13 192.76 230.04 192.22C230.01 192.04 230 191.86 230 191.68C230 190.66 230 189.62 230 188.55Z" fill="#A1A1A1"/>
<path d="M221.03 193.07C220.74 193.07 220.47 193.09 220.2 193.06C220.12 193.05 220.02 192.91 219.98 192.82C219.8 192.29 219.65 191.75 219.42 191.22C219.42 191.82 219.42 192.42 219.42 193.08C219.14 193.08 218.88 193.1 218.62 193.07C218.55 193.06 218.44 192.93 218.44 192.86C218.43 191.49 218.43 190.12 218.44 188.75C218.44 188.68 218.52 188.56 218.57 188.56C218.81 188.54 219.05 188.53 219.29 188.56C219.36 188.57 219.44 188.71 219.47 188.81C219.65 189.32 219.81 189.84 220.05 190.35C220.05 189.76 220.05 189.17 220.05 188.56C220.4 188.56 220.7 188.56 221.03 188.56C221.03 190.05 221.03 191.53 221.03 193.07Z" fill="#A1A1A1"/>
<path d="M227.01 188.51C227.67 188.54 228.29 188.54 228.91 188.62C229.1 188.64 229.33 188.83 229.43 189C229.67 189.42 229.65 189.9 229.52 190.36C229.47 190.52 229.36 190.66 229.29 190.79C229.7 190.98 229.61 191.51 229.61 192C229.61 192.1 229.61 192.21 229.61 192.31C229.59 193.21 229.79 193.06 228.8 193.08C228.57 193.09 228.51 192.99 228.51 192.77C228.52 192.3 228.52 191.83 228.51 191.37C228.51 191.2 228.5 191.01 228.17 191.06C228.17 191.57 228.17 192.09 228.17 192.61C228.17 193.07 228.17 193.07 227.71 193.08C227.48 193.08 227.26 193.08 227.01 193.08C227.01 191.55 227.01 190.07 227.01 188.51ZM228.2 190.34C228.67 190.22 228.49 189.86 228.5 189.62C228.51 189.38 228.46 189.36 228.2 189.37C228.2 189.68 228.2 189.99 228.2 190.34Z" fill="#A1A1A1"/>
<path d="M245.11 188.55C245.46 188.55 245.74 188.55 246.05 188.55C246.05 190.05 246.05 191.53 246.05 193.07C245.78 193.07 245.51 193.09 245.24 193.06C245.15 193.05 245.04 192.9 245.01 192.79C244.85 192.31 244.71 191.82 244.57 191.33C244.54 191.33 244.5 191.33 244.47 191.33C244.47 191.68 244.48 192.03 244.47 192.38C244.45 193.17 244.62 193.07 243.76 193.07C243.68 193.07 243.6 193.05 243.51 193.04C243.51 191.55 243.51 190.07 243.51 188.54C243.77 188.54 244.04 188.52 244.31 188.55C244.38 188.56 244.47 188.69 244.5 188.78C244.69 189.31 244.86 189.85 245.11 190.39C245.11 189.79 245.11 189.19 245.11 188.55Z" fill="#A1A1A1"/>
<path d="M201.28 191.24C201.28 191.83 201.28 192.42 201.28 193.05C200.96 193.05 200.66 193.05 200.34 193.05C200.34 191.56 200.34 190.07 200.34 188.59C200.39 188.57 200.42 188.56 200.45 188.56C201.24 188.52 201.24 188.53 201.49 189.29C201.6 189.61 201.71 189.94 201.81 190.26C201.82 190.28 201.83 190.29 201.91 190.39C201.91 189.74 201.91 189.16 201.91 188.57C202.27 188.57 202.56 188.57 202.88 188.57C202.88 190.07 202.88 191.55 202.88 193.08C202.61 193.08 202.34 193.1 202.07 193.07C201.98 193.06 201.88 192.93 201.84 192.83C201.67 192.3 201.51 191.77 201.35 191.24C201.34 191.23 201.31 191.23 201.28 191.24Z" fill="#A1A1A1"/>
<path d="M187.56 190.8C187.56 191.15 187.56 191.51 187.56 191.86C187.55 193.06 186.61 193.27 185.86 193.14C185.23 193.03 184.89 192.63 184.87 191.98C184.85 191.21 184.85 190.43 184.87 189.66C184.89 188.95 185.35 188.51 186.06 188.48C186.93 188.44 187.45 188.8 187.52 189.56C187.56 189.98 187.53 190.4 187.53 190.82C187.54 190.8 187.55 190.8 187.56 190.8ZM186.38 190.78C186.38 190.35 186.39 189.92 186.38 189.48C186.38 189.39 186.28 189.31 186.23 189.22C186.17 189.3 186.05 189.38 186.05 189.46C186.04 190.36 186.04 191.25 186.05 192.15C186.05 192.23 186.16 192.31 186.22 192.4C186.27 192.31 186.37 192.23 186.38 192.14C186.39 191.69 186.38 191.24 186.38 190.78Z" fill="#A1A1A1"/>
<path d="M218.04 190.82C218.04 191.21 218.05 191.59 218.04 191.98C218.01 192.69 217.56 193.13 216.85 193.17C215.98 193.21 215.44 192.85 215.39 192.1C215.34 191.26 215.33 190.41 215.38 189.58C215.43 188.76 216.12 188.33 217.02 188.49C217.65 188.6 218.02 189.01 218.04 189.66C218.06 190.04 218.04 190.43 218.04 190.82ZM216.53 190.79C216.53 191.24 216.52 191.7 216.54 192.15C216.54 192.24 216.64 192.32 216.7 192.4C216.76 192.32 216.87 192.24 216.87 192.15C216.88 191.25 216.89 190.36 216.88 189.46C216.88 189.38 216.76 189.3 216.7 189.22C216.65 189.31 216.55 189.39 216.55 189.48C216.52 189.92 216.53 190.35 216.53 190.79Z" fill="#A1A1A1"/>
<path d="M208.3 188.51C208.95 188.54 209.59 188.55 210.22 188.62C210.39 188.64 210.61 188.8 210.7 188.96C210.96 189.41 210.94 189.9 210.79 190.38C210.75 190.52 210.56 190.61 210.43 190.74C210.84 190.91 210.9 191.27 210.89 191.66C210.88 192.11 210.89 192.57 210.89 193.05C210.52 193.05 210.19 193.05 209.81 193.05C209.81 192.48 209.81 191.94 209.81 191.39C209.81 191.19 209.78 190.99 209.46 191.05C209.46 191.71 209.46 192.37 209.46 193.05C209.06 193.05 208.7 193.05 208.32 193.05C208.3 191.55 208.3 190.06 208.3 188.51ZM209.46 189.34C209.46 189.66 209.46 189.97 209.46 190.31C209.9 190.29 209.78 189.97 209.79 189.74C209.8 189.54 209.83 189.29 209.46 189.34Z" fill="#A1A1A1"/>
<path d="M243.06 190.83C243.06 191.17 243.04 191.51 243.06 191.85C243.12 192.73 242.46 193.32 241.38 193.14C240.76 193.03 240.42 192.65 240.4 192.01C240.38 191.25 240.36 190.49 240.4 189.73C240.45 188.77 241.1 188.31 242.05 188.49C242.69 188.61 243.04 189.01 243.05 189.67C243.06 190.06 243.05 190.44 243.06 190.83C243.05 190.83 243.05 190.83 243.06 190.83ZM241.54 190.83C241.54 191.25 241.53 191.67 241.55 192.09C241.56 192.2 241.67 192.3 241.73 192.4C241.79 192.3 241.9 192.21 241.9 192.11C241.91 191.25 241.92 190.38 241.9 189.52C241.9 189.42 241.79 189.32 241.73 189.23C241.67 189.33 241.55 189.44 241.55 189.54C241.53 189.97 241.54 190.4 241.54 190.83Z" fill="#A1A1A1"/>
<path d="M184.52 190.49C184.1 190.49 183.75 190.49 183.35 190.49C183.35 190.17 183.37 189.86 183.34 189.56C183.33 189.44 183.21 189.33 183.14 189.21C183.06 189.33 182.92 189.44 182.92 189.56C182.9 190.39 182.9 191.23 182.92 192.06C182.92 192.17 183.05 192.29 183.12 192.4C183.2 192.29 183.32 192.19 183.34 192.07C183.37 191.82 183.35 191.57 183.35 191.29C183.73 191.29 184.1 191.29 184.54 191.29C184.5 191.67 184.49 192.05 184.41 192.41C184.38 192.57 184.23 192.73 184.1 192.84C183.63 193.24 182.69 193.3 182.22 192.9C182.01 192.73 181.82 192.42 181.81 192.16C181.76 191.25 181.78 190.34 181.78 189.43C181.78 189.37 181.79 189.32 181.81 189.26C181.97 188.71 182.5 188.42 183.27 188.45C183.91 188.48 184.38 188.81 184.47 189.36C184.51 189.73 184.5 190.1 184.52 190.49Z" fill="#A1A1A1"/>
<path d="M214.99 191.29C214.98 191.61 214.98 191.91 214.94 192.2C214.9 192.54 214.72 192.8 214.42 192.96C213.85 193.26 213.28 193.24 212.72 192.95C212.41 192.79 212.27 192.49 212.26 192.16C212.24 191.26 212.25 190.36 212.25 189.46C212.25 189.39 212.27 189.32 212.29 189.26C212.47 188.69 213.08 188.38 213.87 188.47C214.52 188.55 214.92 188.93 214.97 189.53C214.99 189.83 214.97 190.14 214.97 190.48C214.61 190.48 214.25 190.48 213.83 190.48C213.83 190.18 213.85 189.88 213.82 189.58C213.81 189.45 213.68 189.34 213.6 189.22C213.53 189.34 213.4 189.47 213.39 189.59C213.37 190.41 213.37 191.23 213.39 192.05C213.39 192.17 213.51 192.29 213.57 192.4C213.65 192.28 213.78 192.18 213.8 192.05C213.84 191.81 213.81 191.55 213.81 191.28C214.22 191.29 214.57 191.29 214.99 191.29Z" fill="#A1A1A1"/>
<path d="M235.87 190.5C235.45 190.5 235.09 190.5 234.67 190.5C234.67 190.19 234.69 189.89 234.66 189.59C234.65 189.46 234.53 189.35 234.46 189.23C234.39 189.34 234.25 189.45 234.25 189.56C234.23 190.4 234.23 191.25 234.25 192.09C234.25 192.2 234.39 192.31 234.47 192.41C234.54 192.3 234.65 192.19 234.66 192.06C234.69 191.81 234.67 191.56 234.67 191.29C235.08 191.29 235.45 191.29 235.88 191.29C235.84 191.66 235.83 192.03 235.76 192.38C235.73 192.53 235.61 192.69 235.49 192.81C235.01 193.27 234.01 193.3 233.48 192.9C233.17 192.66 233.1 192.31 233.09 191.95C233.07 191.16 233.07 190.38 233.09 189.59C233.1 189.06 233.4 188.65 233.92 188.55C234.3 188.48 234.72 188.5 235.09 188.58C235.51 188.67 235.77 188.99 235.8 189.44C235.83 189.78 235.85 190.12 235.87 190.5Z" fill="#A1A1A1"/>
<path d="M221.42 191.49C221.8 191.49 222.13 191.49 222.5 191.49C222.5 191.71 222.48 191.93 222.51 192.14C222.52 192.24 222.64 192.32 222.71 192.41C222.79 192.33 222.92 192.25 222.93 192.16C222.99 191.83 222.95 191.53 222.62 191.33C222.4 191.2 222.19 191.04 221.97 190.88C221.41 190.48 221.2 189.64 221.49 189.02C221.54 188.92 221.61 188.83 221.7 188.75C222.16 188.34 223.28 188.36 223.71 188.79C224.01 189.09 223.94 189.48 223.94 189.89C223.59 189.89 223.26 189.89 222.87 189.89C222.87 189.75 222.89 189.61 222.86 189.49C222.83 189.39 222.74 189.31 222.67 189.22C222.6 189.31 222.5 189.4 222.48 189.5C222.42 189.77 222.54 189.98 222.78 190.13C223 190.27 223.22 190.41 223.43 190.57C224.02 191.01 224.25 191.93 223.95 192.6C223.94 192.62 223.93 192.64 223.92 192.66C223.54 193.17 223 193.21 222.44 193.15C221.86 193.08 221.53 192.79 221.45 192.27C221.43 192.03 221.44 191.78 221.42 191.49Z" fill="#A1A1A1"/>
<path d="M178.79 191.49C179.15 191.49 179.48 191.49 179.88 191.49C179.88 191.7 179.86 191.91 179.89 192.12C179.9 192.22 180.01 192.31 180.07 192.4C180.16 192.31 180.3 192.23 180.32 192.13C180.37 191.83 180.33 191.54 180.03 191.35C179.81 191.21 179.6 191.05 179.38 190.9C178.78 190.47 178.57 189.75 178.84 189.05C179.02 188.6 179.65 188.35 180.36 188.47C181.14 188.59 181.44 189.05 181.29 189.89C180.96 189.89 180.62 189.89 180.27 189.89C180.26 189.72 180.27 189.57 180.23 189.43C180.21 189.35 180.11 189.29 180.05 189.22C179.98 189.29 179.87 189.34 179.85 189.42C179.78 189.7 179.86 189.93 180.11 190.1C180.38 190.27 180.65 190.44 180.9 190.64C181.4 191.03 181.6 192.09 181.29 192.64C181.23 192.74 181.13 192.84 181.03 192.91C180.55 193.25 179.65 193.25 179.18 192.9C178.71 192.54 178.81 192.01 178.79 191.49Z" fill="#A1A1A1"/>
<path d="M207.96 192.19C207.96 192.49 207.96 192.76 207.96 193.05C207.29 193.05 206.64 193.05 205.97 193.05C205.97 191.56 205.97 190.08 205.97 188.57C206.59 188.57 207.21 188.57 207.89 188.57C207.89 188.8 207.9 189.04 207.88 189.27C207.87 189.33 207.76 189.42 207.69 189.44C207.51 189.49 207.19 189.46 207.16 189.54C207.09 189.76 207.13 190.03 207.13 190.31C207.35 190.32 207.56 190.33 207.81 190.34C207.81 190.61 207.81 190.87 207.81 191.16C207.59 191.17 207.38 191.18 207.14 191.19C207.14 191.52 207.14 191.83 207.14 192.16C207.43 192.17 207.69 192.18 207.96 192.19Z" fill="#A1A1A1"/>
<path d="M203.85 189.47C203.58 189.45 203.38 189.44 203.17 189.43C203.17 189.13 203.17 188.86 203.17 188.57C204.01 188.57 204.84 188.57 205.69 188.57C205.69 188.85 205.69 189.13 205.69 189.43C205.48 189.45 205.28 189.46 205.04 189.48C205.04 190.67 205.04 191.85 205.04 193.08C204.68 193.08 204.35 193.1 204.02 193.07C203.95 193.06 203.86 192.88 203.86 192.78C203.85 191.81 203.85 190.84 203.85 189.87C203.85 189.74 203.85 189.61 203.85 189.47Z" fill="#A1A1A1"/>
<path d="M236.71 193.08C236.71 191.85 236.71 190.67 236.71 189.48C236.47 189.46 236.26 189.45 236.04 189.43C236.04 189.14 236.04 188.87 236.04 188.57C236.87 188.57 237.7 188.57 238.52 188.57C238.71 189.27 238.63 189.4 237.91 189.48C237.9 189.59 237.89 189.71 237.89 189.83C237.89 190.79 237.88 191.75 237.9 192.71C237.91 193.02 237.8 193.11 237.51 193.09C237.26 193.06 237.01 193.08 236.71 193.08Z" fill="#A1A1A1"/>
<path d="M226.72 189.43C226.51 189.44 226.32 189.45 226.08 189.46C226.08 190.65 226.08 191.84 226.08 193.05C225.68 193.05 225.32 193.05 224.91 193.05C224.91 192.79 224.91 192.54 224.91 192.3C224.91 191.45 224.91 190.59 224.91 189.74C224.91 189.55 224.87 189.43 224.65 189.45C224.13 189.49 224.2 189.41 224.2 188.98C224.2 188.85 224.21 188.71 224.22 188.56C225.07 188.56 225.88 188.56 226.73 188.56C226.72 188.84 226.72 189.12 226.72 189.43Z" fill="#A1A1A1"/>
<path d="M198.71 193.08C198.71 191.55 198.71 190.08 198.71 188.58C199.08 188.58 199.45 188.58 199.85 188.58C199.86 188.69 199.87 188.8 199.87 188.91C199.87 190.18 199.86 191.44 199.88 192.71C199.88 193.02 199.78 193.11 199.49 193.09C199.25 193.06 199 193.08 198.71 193.08Z" fill="#A1A1A1"/>
<path d="M239.95 193.05C239.59 193.05 239.23 193.05 238.84 193.05C238.84 191.55 238.84 190.07 238.84 188.56C239.21 188.56 239.57 188.56 239.95 188.56C239.95 190.06 239.95 191.54 239.95 193.05Z" fill="#A1A1A1"/>
</g>
<path d="M111.972 292.218H114.784C114.638 293.565 114.252 294.771 113.627 295.836C113.002 296.9 112.118 297.745 110.976 298.37C109.833 298.985 108.407 299.293 106.698 299.293C105.448 299.293 104.311 299.059 103.285 298.59C102.27 298.121 101.396 297.457 100.663 296.598C99.9307 295.729 99.3643 294.688 98.9639 293.478C98.5732 292.257 98.3779 290.899 98.3779 289.405V287.281C98.3779 285.787 98.5732 284.435 98.9639 283.224C99.3643 282.003 99.9355 280.958 100.678 280.089C101.43 279.22 102.333 278.551 103.388 278.082C104.442 277.613 105.629 277.379 106.947 277.379C108.559 277.379 109.921 277.682 111.034 278.287C112.147 278.893 113.012 279.732 113.627 280.807C114.252 281.871 114.638 283.106 114.784 284.513H111.972C111.835 283.517 111.581 282.662 111.21 281.949C110.839 281.227 110.312 280.67 109.628 280.279C108.944 279.889 108.051 279.693 106.947 279.693C106 279.693 105.165 279.874 104.442 280.235C103.729 280.597 103.129 281.109 102.641 281.773C102.162 282.438 101.801 283.233 101.557 284.161C101.312 285.089 101.19 286.119 101.19 287.252V289.405C101.19 290.45 101.298 291.432 101.513 292.35C101.737 293.268 102.074 294.073 102.523 294.767C102.973 295.46 103.544 296.007 104.237 296.407C104.931 296.798 105.751 296.993 106.698 296.993C107.899 296.993 108.856 296.803 109.569 296.422C110.282 296.041 110.819 295.494 111.181 294.781C111.552 294.068 111.815 293.214 111.972 292.218ZM135.808 287.662V289.01C135.808 290.611 135.607 292.047 135.207 293.316C134.807 294.586 134.23 295.665 133.479 296.554C132.727 297.442 131.823 298.121 130.769 298.59C129.724 299.059 128.552 299.293 127.253 299.293C125.993 299.293 124.836 299.059 123.781 298.59C122.736 298.121 121.828 297.442 121.057 296.554C120.295 295.665 119.704 294.586 119.284 293.316C118.864 292.047 118.654 290.611 118.654 289.01V287.662C118.654 286.061 118.859 284.63 119.27 283.37C119.689 282.101 120.28 281.021 121.042 280.133C121.804 279.234 122.707 278.551 123.752 278.082C124.807 277.613 125.964 277.379 127.224 277.379C128.522 277.379 129.694 277.613 130.739 278.082C131.794 278.551 132.697 279.234 133.449 280.133C134.211 281.021 134.792 282.101 135.192 283.37C135.603 284.63 135.808 286.061 135.808 287.662ZM133.01 289.01V287.633C133.01 286.363 132.878 285.24 132.614 284.264C132.36 283.287 131.984 282.467 131.486 281.803C130.988 281.139 130.378 280.636 129.655 280.294C128.942 279.952 128.132 279.781 127.224 279.781C126.345 279.781 125.549 279.952 124.836 280.294C124.133 280.636 123.527 281.139 123.02 281.803C122.521 282.467 122.136 283.287 121.862 284.264C121.589 285.24 121.452 286.363 121.452 287.633V289.01C121.452 290.289 121.589 291.422 121.862 292.408C122.136 293.385 122.526 294.21 123.034 294.884C123.552 295.548 124.162 296.051 124.865 296.393C125.578 296.734 126.374 296.905 127.253 296.905C128.171 296.905 128.986 296.734 129.699 296.393C130.412 296.051 131.013 295.548 131.501 294.884C131.999 294.21 132.375 293.385 132.629 292.408C132.883 291.422 133.01 290.289 133.01 289.01ZM157.197 277.672V299H154.355L143.618 282.55V299H140.791V277.672H143.618L154.399 294.166V277.672H157.197ZM174.324 293.609C174.324 293.111 174.246 292.672 174.09 292.291C173.943 291.9 173.68 291.549 173.299 291.236C172.928 290.924 172.41 290.626 171.746 290.343C171.092 290.06 170.262 289.771 169.256 289.479C168.201 289.166 167.249 288.819 166.399 288.438C165.55 288.048 164.822 287.604 164.217 287.105C163.611 286.607 163.147 286.036 162.825 285.392C162.503 284.747 162.342 284.01 162.342 283.18C162.342 282.35 162.513 281.583 162.854 280.88C163.196 280.177 163.685 279.566 164.319 279.049C164.964 278.521 165.73 278.111 166.619 277.818C167.508 277.525 168.499 277.379 169.593 277.379C171.194 277.379 172.552 277.687 173.665 278.302C174.788 278.907 175.643 279.703 176.229 280.689C176.814 281.666 177.107 282.711 177.107 283.824H174.295C174.295 283.023 174.124 282.315 173.782 281.7C173.44 281.075 172.923 280.587 172.229 280.235C171.536 279.874 170.657 279.693 169.593 279.693C168.587 279.693 167.757 279.845 167.103 280.147C166.448 280.45 165.96 280.86 165.638 281.378C165.325 281.896 165.169 282.486 165.169 283.15C165.169 283.6 165.262 284.01 165.447 284.381C165.643 284.742 165.94 285.079 166.341 285.392C166.751 285.704 167.269 285.992 167.894 286.256C168.528 286.52 169.285 286.773 170.164 287.018C171.375 287.359 172.42 287.74 173.299 288.16C174.178 288.58 174.9 289.054 175.467 289.581C176.043 290.099 176.468 290.689 176.741 291.354C177.024 292.008 177.166 292.75 177.166 293.58C177.166 294.449 176.99 295.235 176.639 295.938C176.287 296.642 175.784 297.242 175.13 297.74C174.476 298.238 173.689 298.624 172.771 298.897C171.863 299.161 170.848 299.293 169.725 299.293C168.738 299.293 167.767 299.156 166.81 298.883C165.862 298.609 164.998 298.199 164.217 297.652C163.445 297.105 162.825 296.432 162.356 295.631C161.897 294.82 161.668 293.883 161.668 292.818H164.48C164.48 293.551 164.622 294.181 164.905 294.708C165.188 295.226 165.574 295.655 166.062 295.997C166.561 296.339 167.122 296.593 167.747 296.759C168.382 296.915 169.041 296.993 169.725 296.993C170.711 296.993 171.546 296.856 172.229 296.583C172.913 296.31 173.431 295.919 173.782 295.411C174.144 294.903 174.324 294.303 174.324 293.609ZM189.4 277.672V299H186.617V277.672H189.4ZM196.256 277.672V279.986H179.776V277.672H196.256ZM200.17 277.672H207.23C208.832 277.672 210.185 277.916 211.288 278.404C212.401 278.893 213.246 279.615 213.822 280.572C214.408 281.52 214.701 282.687 214.701 284.073C214.701 285.05 214.501 285.943 214.101 286.754C213.71 287.555 213.144 288.238 212.401 288.805C211.669 289.361 210.79 289.776 209.765 290.05L208.974 290.357H202.338L202.309 288.058H207.318C208.334 288.058 209.179 287.882 209.853 287.53C210.526 287.169 211.034 286.686 211.376 286.08C211.718 285.475 211.889 284.806 211.889 284.073C211.889 283.253 211.728 282.535 211.405 281.92C211.083 281.305 210.575 280.831 209.882 280.499C209.198 280.157 208.314 279.986 207.23 279.986H202.997V299H200.17V277.672ZM212.636 299L207.45 289.332L210.395 289.317L215.653 298.824V299H212.636ZM231.608 277.672H234.421V292.101C234.421 293.702 234.064 295.035 233.352 296.1C232.639 297.164 231.691 297.965 230.51 298.502C229.338 299.029 228.063 299.293 226.687 299.293C225.241 299.293 223.933 299.029 222.761 298.502C221.599 297.965 220.676 297.164 219.992 296.1C219.318 295.035 218.981 293.702 218.981 292.101V277.672H221.779V292.101C221.779 293.214 221.984 294.132 222.395 294.854C222.805 295.577 223.376 296.114 224.108 296.466C224.851 296.817 225.71 296.993 226.687 296.993C227.673 296.993 228.532 296.817 229.265 296.466C230.007 296.114 230.583 295.577 230.993 294.854C231.403 294.132 231.608 293.214 231.608 292.101V277.672ZM252.485 292.218H255.298C255.151 293.565 254.766 294.771 254.141 295.836C253.516 296.9 252.632 297.745 251.489 298.37C250.347 298.985 248.921 299.293 247.212 299.293C245.962 299.293 244.824 299.059 243.799 298.59C242.783 298.121 241.909 297.457 241.177 296.598C240.444 295.729 239.878 294.688 239.478 293.478C239.087 292.257 238.892 290.899 238.892 289.405V287.281C238.892 285.787 239.087 284.435 239.478 283.224C239.878 282.003 240.449 280.958 241.191 280.089C241.943 279.22 242.847 278.551 243.901 278.082C244.956 277.613 246.143 277.379 247.461 277.379C249.072 277.379 250.435 277.682 251.548 278.287C252.661 278.893 253.525 279.732 254.141 280.807C254.766 281.871 255.151 283.106 255.298 284.513H252.485C252.349 283.517 252.095 282.662 251.724 281.949C251.353 281.227 250.825 280.67 250.142 280.279C249.458 279.889 248.564 279.693 247.461 279.693C246.514 279.693 245.679 279.874 244.956 280.235C244.243 280.597 243.643 281.109 243.154 281.773C242.676 282.438 242.314 283.233 242.07 284.161C241.826 285.089 241.704 286.119 241.704 287.252V289.405C241.704 290.45 241.812 291.432 242.026 292.35C242.251 293.268 242.588 294.073 243.037 294.767C243.486 295.46 244.058 296.007 244.751 296.407C245.444 296.798 246.265 296.993 247.212 296.993C248.413 296.993 249.37 296.803 250.083 296.422C250.796 296.041 251.333 295.494 251.694 294.781C252.065 294.068 252.329 293.214 252.485 292.218ZM267.342 277.672V299H264.559V277.672H267.342ZM274.197 277.672V279.986H257.718V277.672H274.197ZM281.144 277.672V299H278.316V277.672H281.144ZM303.456 287.662V289.01C303.456 290.611 303.256 292.047 302.855 293.316C302.455 294.586 301.879 295.665 301.127 296.554C300.375 297.442 299.472 298.121 298.417 298.59C297.372 299.059 296.2 299.293 294.901 299.293C293.642 299.293 292.484 299.059 291.43 298.59C290.385 298.121 289.477 297.442 288.705 296.554C287.943 295.665 287.353 294.586 286.933 293.316C286.513 292.047 286.303 290.611 286.303 289.01V287.662C286.303 286.061 286.508 284.63 286.918 283.37C287.338 282.101 287.929 281.021 288.69 280.133C289.452 279.234 290.355 278.551 291.4 278.082C292.455 277.613 293.612 277.379 294.872 277.379C296.171 277.379 297.343 277.613 298.388 278.082C299.442 278.551 300.346 279.234 301.098 280.133C301.859 281.021 302.44 282.101 302.841 283.37C303.251 284.63 303.456 286.061 303.456 287.662ZM300.658 289.01V287.633C300.658 286.363 300.526 285.24 300.263 284.264C300.009 283.287 299.633 282.467 299.135 281.803C298.637 281.139 298.026 280.636 297.304 280.294C296.591 279.952 295.78 279.781 294.872 279.781C293.993 279.781 293.197 279.952 292.484 280.294C291.781 280.636 291.176 281.139 290.668 281.803C290.17 282.467 289.784 283.287 289.511 284.264C289.237 285.24 289.101 286.363 289.101 287.633V289.01C289.101 290.289 289.237 291.422 289.511 292.408C289.784 293.385 290.175 294.21 290.683 294.884C291.2 295.548 291.811 296.051 292.514 296.393C293.227 296.734 294.022 296.905 294.901 296.905C295.819 296.905 296.635 296.734 297.348 296.393C298.061 296.051 298.661 295.548 299.149 294.884C299.647 294.21 300.023 293.385 300.277 292.408C300.531 291.422 300.658 290.289 300.658 289.01ZM324.846 277.672V299H322.004L311.267 282.55V299H308.439V277.672H311.267L322.048 294.166V277.672H324.846Z" fill="#333333"/>
<path d="M105.011 74.6364V38.2727H107.34V74.6364H105.011ZM110.621 50.6307C110.527 49.589 110.105 48.7794 109.357 48.2017C108.619 47.6146 107.563 47.321 106.19 47.321C105.281 47.321 104.523 47.4394 103.917 47.6761C103.311 47.9129 102.856 48.2396 102.553 48.6562C102.25 49.0634 102.094 49.5322 102.085 50.0625C102.066 50.4981 102.151 50.8816 102.34 51.2131C102.539 51.5445 102.823 51.8381 103.192 52.0938C103.571 52.34 104.026 52.5578 104.556 52.7472C105.086 52.9366 105.683 53.1023 106.346 53.2443L108.846 53.8125C110.285 54.125 111.554 54.5417 112.653 55.0625C113.761 55.5833 114.689 56.2036 115.437 56.9233C116.194 57.643 116.767 58.4716 117.156 59.4091C117.544 60.3466 117.743 61.3977 117.752 62.5625C117.743 64.3996 117.279 65.9763 116.36 67.2926C115.442 68.6089 114.121 69.6174 112.397 70.3182C110.683 71.0189 108.614 71.3693 106.19 71.3693C103.756 71.3693 101.635 71.0047 99.826 70.2756C98.0173 69.5464 96.611 68.4384 95.6072 66.9517C94.6035 65.465 94.0874 63.5852 94.0589 61.3125H100.792C100.849 62.25 101.1 63.0312 101.545 63.6562C101.99 64.2812 102.601 64.7547 103.377 65.0767C104.163 65.3987 105.072 65.5597 106.104 65.5597C107.051 65.5597 107.856 65.4318 108.519 65.1761C109.192 64.9205 109.708 64.5653 110.067 64.1108C110.427 63.6562 110.612 63.1354 110.621 62.5483C110.612 61.9991 110.442 61.5303 110.11 61.142C109.779 60.7443 109.267 60.4034 108.576 60.1193C107.894 59.8258 107.023 59.5559 105.962 59.3097L102.923 58.5994C100.404 58.0218 98.4197 57.089 96.9709 55.8011C95.522 54.5038 94.8023 52.7519 94.8118 50.5455C94.8023 48.7462 95.2853 47.1695 96.2607 45.8153C97.236 44.4612 98.5855 43.4053 100.309 42.6477C102.032 41.8902 103.997 41.5114 106.204 41.5114C108.458 41.5114 110.413 41.8949 112.07 42.6619C113.737 43.4195 115.03 44.4848 115.948 45.858C116.867 47.2311 117.335 48.822 117.354 50.6307H110.621ZM135.698 41.9091V71H128.681V48.4716H128.511L122.005 52.4489V46.3693L129.178 41.9091H135.698ZM148.79 67.0227L148.662 68.5994C148.548 69.9062 148.316 71.1799 147.966 72.4205C147.625 73.6705 147.26 74.7926 146.872 75.7869C146.484 76.7813 146.176 77.553 145.949 78.1023H141.574C141.725 77.553 141.929 76.7813 142.185 75.7869C142.45 74.7926 142.696 73.6705 142.923 72.4205C143.151 71.1705 143.278 69.9015 143.307 68.6136L143.335 67.0227H148.79ZM165.273 71.3977C163.057 71.3977 161.092 71.0189 159.378 70.2614C157.673 69.4943 156.329 68.4384 155.344 67.0938C154.359 65.7491 153.857 64.2008 153.838 62.4489H160.912C160.94 63.0833 161.144 63.6468 161.523 64.1392C161.902 64.6222 162.418 65.0009 163.071 65.2756C163.724 65.5502 164.468 65.6875 165.301 65.6875C166.134 65.6875 166.868 65.5407 167.503 65.2472C168.147 64.9441 168.649 64.5322 169.009 64.0114C169.368 63.4811 169.544 62.875 169.534 62.1932C169.544 61.5114 169.349 60.9053 168.952 60.375C168.554 59.8447 167.991 59.4328 167.261 59.1392C166.542 58.8456 165.689 58.6989 164.705 58.6989H161.878V53.6989H164.705C165.566 53.6989 166.324 53.5568 166.977 53.2727C167.64 52.9886 168.156 52.5909 168.526 52.0795C168.895 51.5587 169.075 50.9621 169.065 50.2898C169.075 49.6364 168.919 49.0634 168.597 48.571C168.284 48.0691 167.844 47.6809 167.276 47.4062C166.717 47.1316 166.068 46.9943 165.33 46.9943C164.553 46.9943 163.848 47.1316 163.213 47.4062C162.588 47.6809 162.091 48.0691 161.722 48.571C161.352 49.0729 161.158 49.6553 161.139 50.3182H154.42C154.439 48.5852 154.922 47.0606 155.869 45.7443C156.816 44.4186 158.104 43.3816 159.733 42.6335C161.371 41.8854 163.237 41.5114 165.33 41.5114C167.413 41.5114 169.245 41.8759 170.827 42.6051C172.408 43.3343 173.639 44.3286 174.52 45.5881C175.401 46.8381 175.841 48.2538 175.841 49.8352C175.85 51.4735 175.315 52.8229 174.236 53.8835C173.166 54.9441 171.788 55.5975 170.102 55.8438V56.071C172.356 56.3362 174.056 57.0653 175.202 58.2585C176.357 59.4517 176.93 60.9432 176.92 62.733C176.92 64.4186 176.423 65.9148 175.429 67.2216C174.444 68.5189 173.071 69.5417 171.31 70.2898C169.558 71.0284 167.545 71.3977 165.273 71.3977ZM193.918 71.7102C191.38 71.7102 189.193 71.1089 187.356 69.9062C185.519 68.6941 184.103 66.9564 183.109 64.6932C182.114 62.4205 181.622 59.6884 181.631 56.4972C181.641 53.3059 182.138 50.5975 183.123 48.3722C184.117 46.1373 185.528 44.4375 187.356 43.2727C189.193 42.0985 191.38 41.5114 193.918 41.5114C196.456 41.5114 198.644 42.0985 200.481 43.2727C202.327 44.4375 203.748 46.1373 204.742 48.3722C205.737 50.607 206.229 53.3153 206.219 56.4972C206.219 59.6979 205.722 62.4347 204.728 64.7074C203.734 66.9801 202.318 68.7178 200.481 69.9205C198.653 71.1136 196.466 71.7102 193.918 71.7102ZM193.918 65.9574C195.433 65.9574 196.66 65.1856 197.597 63.642C198.535 62.089 198.999 59.7074 198.989 56.4972C198.989 54.3949 198.776 52.6619 198.35 51.2983C197.924 49.9252 197.332 48.9025 196.575 48.2301C195.817 47.5578 194.932 47.2216 193.918 47.2216C192.413 47.2216 191.196 47.9839 190.268 49.5085C189.34 51.0237 188.871 53.3532 188.862 56.4972C188.852 58.6278 189.056 60.3939 189.472 61.7955C189.898 63.197 190.495 64.2434 191.262 64.9347C192.029 65.6165 192.915 65.9574 193.918 65.9574ZM211.246 71V65.9432L221.857 56.6534C222.653 55.9337 223.33 55.2756 223.888 54.679C224.447 54.0729 224.873 53.4669 225.167 52.8608C225.46 52.2453 225.607 51.5777 225.607 50.858C225.607 50.053 225.432 49.3665 225.082 48.7983C224.731 48.2206 224.248 47.7756 223.633 47.4631C223.017 47.1506 222.312 46.9943 221.516 46.9943C220.711 46.9943 220.006 47.16 219.4 47.4915C218.794 47.8134 218.32 48.2822 217.979 48.8977C217.648 49.5133 217.482 50.2614 217.482 51.142H210.82C210.82 49.1629 211.265 47.4536 212.156 46.0142C213.046 44.5748 214.296 43.4669 215.906 42.6903C217.525 41.9044 219.405 41.5114 221.545 41.5114C223.751 41.5114 225.669 41.8807 227.298 42.6193C228.926 43.358 230.186 44.3902 231.076 45.7159C231.976 47.0322 232.425 48.5616 232.425 50.304C232.425 51.4119 232.203 52.5104 231.758 53.5994C231.313 54.6884 230.513 55.8911 229.357 57.2074C228.211 58.5237 226.583 60.1004 224.471 61.9375L220.991 65.1477V65.3324H232.781V71H211.246ZM244.899 67.0227L244.771 68.5994C244.658 69.9062 244.426 71.1799 244.075 72.4205C243.734 73.6705 243.37 74.7926 242.982 75.7869C242.593 76.7813 242.286 77.553 242.058 78.1023H237.683C237.835 77.553 238.038 76.7813 238.294 75.7869C238.559 74.7926 238.805 73.6705 239.033 72.4205C239.26 71.1705 239.388 69.9015 239.416 68.6136L239.445 67.0227H244.899ZM261.29 71.3977C259.027 71.3977 257.005 71.0379 255.224 70.3182C253.454 69.589 252.062 68.6042 251.048 67.3636C250.045 66.1136 249.543 64.7027 249.543 63.1307C249.543 61.928 249.831 60.8248 250.409 59.821C250.987 58.8172 251.768 57.9839 252.753 57.321C253.747 56.6487 254.855 56.2178 256.077 56.0284V55.8011C254.476 55.5076 253.165 54.7642 252.142 53.571C251.129 52.3778 250.622 50.9811 250.622 49.3807C250.622 47.8655 251.081 46.5161 252 45.3324C252.928 44.1487 254.192 43.2159 255.793 42.5341C257.402 41.8523 259.235 41.5114 261.29 41.5114C263.345 41.5114 265.172 41.8523 266.773 42.5341C268.383 43.2159 269.647 44.1487 270.565 45.3324C271.493 46.5161 271.957 47.8655 271.957 49.3807C271.957 50.9905 271.441 52.392 270.409 53.5852C269.386 54.7689 268.084 55.5076 266.503 55.8011V56.0284C267.715 56.2178 268.813 56.6487 269.798 57.321C270.793 57.9839 271.579 58.8172 272.156 59.821C272.743 60.8248 273.037 61.928 273.037 63.1307C273.037 64.7027 272.53 66.1136 271.517 67.3636C270.504 68.6042 269.112 69.589 267.341 70.3182C265.58 71.0379 263.563 71.3977 261.29 71.3977ZM261.29 66.4119C262.152 66.4119 262.909 66.2509 263.562 65.929C264.216 65.5975 264.727 65.1383 265.097 64.5511C265.475 63.964 265.665 63.3011 265.665 62.5625C265.665 61.8049 265.475 61.1326 265.097 60.5455C264.718 59.9583 264.197 59.4991 263.534 59.1676C262.881 58.8267 262.133 58.6562 261.29 58.6562C260.456 58.6562 259.708 58.8267 259.045 59.1676C258.383 59.4991 257.862 59.9583 257.483 60.5455C257.104 61.1326 256.915 61.8049 256.915 62.5625C256.915 63.3011 257.099 63.964 257.469 64.5511C257.848 65.1288 258.364 65.5833 259.017 65.9148C259.68 66.2462 260.438 66.4119 261.29 66.4119ZM261.29 53.6989C262.028 53.6989 262.682 53.5473 263.25 53.2443C263.828 52.9413 264.277 52.5199 264.599 51.9801C264.931 51.4403 265.097 50.8295 265.097 50.1477C265.097 49.4659 264.931 48.8646 264.599 48.3438C264.277 47.8229 263.832 47.4157 263.264 47.1222C262.696 46.8191 262.038 46.6676 261.29 46.6676C260.551 46.6676 259.893 46.8191 259.315 47.1222C258.738 47.4157 258.288 47.8229 257.966 48.3438C257.644 48.8646 257.483 49.4659 257.483 50.1477C257.483 50.8295 257.644 51.4403 257.966 51.9801C258.297 52.5104 258.752 52.9318 259.33 53.2443C259.907 53.5473 260.561 53.6989 261.29 53.6989ZM289.619 71.3977C288.028 71.3977 286.504 71.142 285.045 70.6307C283.587 70.1098 282.29 69.286 281.153 68.1591C280.017 67.0227 279.122 65.536 278.469 63.6989C277.815 61.8523 277.493 59.6032 277.503 56.9517C277.512 54.5559 277.806 52.4062 278.384 50.5028C278.961 48.59 279.785 46.9659 280.855 45.6307C281.935 44.2955 283.223 43.2775 284.719 42.5767C286.224 41.8665 287.905 41.5114 289.761 41.5114C291.797 41.5114 293.592 41.9091 295.145 42.7045C296.707 43.4905 297.957 44.5511 298.895 45.8864C299.832 47.2121 300.386 48.6894 300.557 50.3182H293.639C293.431 49.3996 292.972 48.7036 292.261 48.2301C291.561 47.7472 290.727 47.5057 289.761 47.5057C287.981 47.5057 286.651 48.2775 285.77 49.821C284.899 51.3646 284.454 53.429 284.435 56.0142H284.619C285.017 55.143 285.59 54.3949 286.338 53.7699C287.086 53.1449 287.943 52.6667 288.909 52.3352C289.884 51.9943 290.917 51.8239 292.006 51.8239C293.748 51.8239 295.287 52.2263 296.622 53.0312C297.957 53.8362 299.004 54.9394 299.761 56.3409C300.519 57.733 300.893 59.3286 300.884 61.1278C300.893 63.1544 300.42 64.9441 299.463 66.4972C298.507 68.0407 297.181 69.2434 295.486 70.1051C293.8 70.9669 291.845 71.3977 289.619 71.3977ZM289.577 66C290.438 66 291.21 65.7964 291.892 65.3892C292.574 64.982 293.109 64.428 293.497 63.7273C293.885 63.0265 294.075 62.2358 294.065 61.3551C294.075 60.465 293.885 59.6742 293.497 58.983C293.118 58.2917 292.588 57.7424 291.906 57.3352C291.234 56.928 290.462 56.7244 289.591 56.7244C288.956 56.7244 288.365 56.8428 287.815 57.0795C287.266 57.3163 286.788 57.6477 286.381 58.0739C285.983 58.4905 285.67 58.983 285.443 59.5511C285.216 60.1098 285.098 60.7159 285.088 61.3693C285.098 62.2311 285.296 63.0123 285.685 63.7131C286.073 64.4138 286.603 64.9725 287.276 65.3892C287.948 65.7964 288.715 66 289.577 66ZM305.516 66.1705V60.6875L317.434 41.9091H322.306V49.3523H319.479L312.505 60.4034V60.6307H329.763V66.1705H305.516ZM319.565 71V64.4943L319.707 62.0938V41.9091H326.283V71H319.565Z" fill="white"/>
<defs>
<filter id="filter0_d_1060_762" x="0" y="0" width="424" height="340.5" filterUnits="userSpaceOnUse" color-interpolation-filters="sRGB">
<feFlood flood-opacity="0" result="BackgroundImageFix"/>
<feColorMatrix in="SourceAlpha" type="matrix" values="0 0 0 0 0 0 0 0 0 0 0 0 0 0 0 0 0 0 127 0" result="hardAlpha"/>
<feOffset/>
<feGaussianBlur stdDeviation="7"/>
<feComposite in2="hardAlpha" operator="out"/>
<feColorMatrix type="matrix" values="0 0 0 0 0 0 0 0 0 0 0 0 0 0 0 0 0 0 0.25 0"/>
<feBlend mode="normal" in2="BackgroundImageFix" result="effect1_dropShadow_1060_762"/>
<feBlend mode="normal" in="SourceGraphic" in2="effect1_dropShadow_1060_762" result="shape"/>
</filter>
</defs>
</svg>
