<?xml version="1.0" encoding="utf-8"?>
<!-- Generator: Adobe Illustrator 25.2.0, SVG Export Plug-In . SVG Version: 6.00 Build 0)  -->
<svg version="1.1" id="Layer_1" xmlns="http://www.w3.org/2000/svg" xmlns:xlink="http://www.w3.org/1999/xlink" x="0px" y="0px"
	 viewBox="0 0 794 577" style="enable-background:new 0 0 794 577;" xml:space="preserve">
<style type="text/css">
	.st0{fill:#F5F7FA;}
	.st1{fill:#F7C183;}
	.st2{opacity:0.4;}
	.st3{fill:#FFFFFF;}
	.st4{opacity:0.5;}
	.st5{fill:#F5F5F5;}
	.st6{fill:#ECECEC;}
	.st7{fill:#E1E1E1;}
	.st8{fill:#FFFFFF;stroke:#231F20;stroke-width:1.125;stroke-miterlimit:10;}
	.st9{fill:#F7911D;}
	.st10{fill:#F7A74D;}
	.st11{fill:#1145BB;}
	.st12{fill:#1A2E35;}
	.st13{opacity:0.3;}
</style>
<g>
	<path class="st0" d="M155.6,404.9l2.3,5.8c18.4,46.9,60.2,81.1,110.1,88.3c7.9,1.1,15.9,1.6,23.9,1.3c48-1.5,94.5-28.9,119.1-70.2
		c14.5-24.3,22.5-53.7,44.9-71.1c29-22.6,70.4-16.1,106.4-8.5s77.4,13.9,106.3-8.7c18.1-14.2,27.2-37.4,30-60.2
		c7.5-60.5-25.3-121.6-74.4-157.8s-112-49.9-173-48.7c-85.4,1.7-172,32.8-231.5,94.1C160.1,230.3,131.3,323.1,155.6,404.9z"/>
</g>
<path class="st1" d="M245.6,279.3c0,0-11.2,1.6-19-9.7c-4.8-7-15.9-19.1-21.7-16.2l-11.3,14.9c0,0,9.7,5.6,15.8,15.3
	c5.9,9.5,22.6,15.1,22.6,15.1L245.6,279.3z"/>
<g class="st2">
	<path class="st3" d="M212,282.2c-3.9-4.7-2-11,2-13.3s10.2,0.9,12.6,4.9c2.3,4,0.9,9.2-3.1,11.5S215,285.8,212,282.2z"/>
</g>
<path class="st1" d="M215.5,280.9l-1.1,1l-0.9-1l1-1c-0.8-1-1.4-2.2-1.5-3.1l1.7-0.6c0.1,0.8,0.5,1.8,1.1,2.5l1.6-1.5
	c-0.7-1.3-1.5-2.8-0.1-4.1c1-1,2.6-1,4.2,0.3l1.1-1l0.9,1l-1,1c0.6,0.8,1.1,1.7,1.3,2.5l-1.6,0.6c-0.2-0.8-0.5-1.4-0.9-1.9l-1.6,1.5
	c0.8,1.3,1.5,2.8,0.1,4.1C218.7,282.2,217.1,282.3,215.5,280.9z M218.9,276l1.4-1.3c-0.6-0.4-1.1-0.3-1.4,0
	C218.5,275,218.6,275.4,218.9,276z M218.1,279.8c0.3-0.3,0.3-0.8,0-1.3l-1.3,1.2C217.3,280.1,217.8,280.1,218.1,279.8z"/>
<g class="st4">
	<path class="st3" d="M196.1,267.9l10.3-13.5h0.2c8.1,1.2,15.2,11.1,20,17.7c0.8,1.1,1.6,2.2,2.3,3.1c4.6,6,12.7,5.8,13.3,5.4
		l0.4,0.4l-10.9,14.8h-0.2c-11.3-2.2-19.3-10.2-22.7-16.5c-3.2-5.8-12.3-11.2-12.4-11.2L196.1,267.9z M206.7,255.1l-9.7,12.7
		c1.6,1,9.3,5.8,12.3,11.3c3.4,6.1,11.2,13.9,22.2,16.1l10.1-13.8c-0.7,0.1-1.4,0-1.7,0c-1.8-0.1-7.8-0.8-11.6-5.8
		c-0.7-0.9-1.5-2-2.3-3.1C221.4,266,214.4,256.3,206.7,255.1z"/>
</g>
<path class="st1" d="M651.9,227.6c3.8,26.3-14.4,50.7-40.8,54.5c-26.4,3.8-50.8-14.4-54.6-40.7s14.4-50.7,40.8-54.5
	C623.6,183.1,648.1,201.3,651.9,227.6z"/>
<path class="st1" d="M640.5,229.2c2.9,20-11,38.6-31.1,41.5c-20.1,2.9-38.7-11-41.6-31c-2.9-20,11-38.6,31.1-41.5
	C619,195.3,637.6,209.2,640.5,229.2z"/>
<path class="st1" d="M640.4,228.1c-0.2,0-0.6-1.5-1.6-4.2s-2.7-6.5-5.8-10.5c-1.6-2-3.5-4-5.8-5.9s-5-3.6-8-5
	c-1.5-0.7-3.1-1.3-4.8-1.8s-3.4-0.9-5.2-1.1c-1.8-0.2-3.6-0.4-5.5-0.3c-1.9,0-3.8,0.2-5.6,0.5c-1.9,0.3-3.7,0.8-5.5,1.4
	c-1.8,0.6-3.4,1.4-5.1,2.2c-1.6,0.8-3.1,1.8-4.5,2.8s-2.7,2.1-3.9,3.3c-2.4,2.3-4.3,4.9-5.8,7.4c-1.5,2.6-2.6,5.1-3.4,7.5
	c-1.6,4.8-1.8,9-1.8,11.9s0.2,4.5,0,4.5s-0.7-1.5-1.1-4.5c-0.3-2.9-0.4-7.3,1-12.5c0.7-2.6,1.8-5.3,3.3-8.1s3.5-5.6,6-8.1
	c1.2-1.3,2.6-2.5,4.1-3.6s3.1-2.2,4.8-3.1c1.7-0.9,3.5-1.8,5.4-2.4c1.9-0.7,3.9-1.2,5.9-1.6c2-0.3,4.1-0.5,6.1-0.6
	c2,0,4,0.1,5.9,0.4c1.9,0.3,3.8,0.7,5.6,1.3c1.8,0.5,3.5,1.2,5.1,2c3.2,1.5,6,3.5,8.4,5.5c2.4,2.1,4.3,4.3,5.9,6.5
	c3.1,4.4,4.6,8.5,5.3,11.4C640.5,226.4,640.5,228.1,640.4,228.1z"/>
<path class="st1" d="M611.4,255.6l1,6.3l-5.6,0.9l-1-6.1c-5.6,0.6-11.3-0.3-14.8-2.3l2-7.4c3.2,1.6,7.5,2.5,11.6,2.3l-1.5-9.4
	c-6.5-0.5-13.8-1.5-15.1-9.6c-1-6,2.6-11.8,11.3-14.2l-1-6.3l5.6-0.9l1,6.1c4.3-0.3,8.6,0.1,12,1.6l-1.7,7.4
	c-3.1-1.2-6.2-1.7-9.1-1.6l1.5,9.6c6.5,0.5,13.7,1.4,15,9.4C623.6,247.3,620.1,253.1,611.4,255.6z M601.8,231.6l-1.3-8
	c-2.9,1.2-3.8,3-3.5,4.8C597.3,230.4,599.2,231.2,601.8,231.6z M613.7,243.6c-0.3-2-2.1-2.8-4.7-3.2l1.2,7.8
	C613,247.1,614,245.4,613.7,243.6z"/>
<path class="st1" d="M484.9,139.1c-13.1,8.3-30.5,4.3-38.8-8.8s-4.4-30.5,8.7-38.8s30.5-4.3,38.8,8.8
	C502,113.4,498,130.8,484.9,139.1z"/>
<path class="st1" d="M481.3,133.4c-10,6.3-23.2,3.3-29.6-6.7c-6.3-10-3.3-23.3,6.7-29.6c10-6.3,23.2-3.3,29.6,6.7
	C494.3,113.9,491.3,127.1,481.3,133.4z"/>
<path class="st1" d="M481.9,133c-0.1-0.1,0.7-0.7,1.9-1.9c1.2-1.2,2.8-3,4.2-5.6c0.7-1.3,1.3-2.8,1.8-4.5c0.4-1.7,0.7-3.5,0.7-5.5
	c0-1,0-2-0.2-3c-0.1-1-0.3-2-0.6-3c-0.3-1-0.7-2-1.1-3c-0.5-1-1-1.9-1.6-2.9c-0.6-0.9-1.3-1.8-2.1-2.6c-0.7-0.8-1.5-1.5-2.4-2.2
	c-0.8-0.7-1.7-1.2-2.6-1.7s-1.8-0.9-2.7-1.3c-1.8-0.7-3.6-1.1-5.3-1.3c-1.7-0.2-3.4-0.2-4.8,0c-3,0.3-5.2,1.2-6.8,1.8
	c-1.5,0.7-2.4,1.2-2.4,1c-0.1-0.1,0.6-0.7,2.1-1.6s3.8-1.9,6.9-2.4c1.5-0.2,3.3-0.3,5.1-0.2c1.8,0.2,3.8,0.6,5.8,1.3
	c1,0.4,2,0.8,2.9,1.3c1,0.5,1.9,1.1,2.8,1.8c0.9,0.7,1.8,1.5,2.6,2.3c0.8,0.9,1.6,1.8,2.2,2.8c0.7,1,1.3,2,1.8,3.1s0.9,2.2,1.2,3.3
	c0.3,1.1,0.5,2.2,0.7,3.3c0.1,1.1,0.2,2.2,0.1,3.2c0,2.1-0.4,4-0.9,5.8s-1.3,3.3-2.1,4.7c-1.6,2.7-3.5,4.5-4.8,5.5
	C482.8,132.7,482,133.1,481.9,133z"/>
<path class="st1" d="M460.4,124.1l-3.1,2l-1.8-2.8l3-2c-1.6-2.9-2.5-6.1-2.3-8.4l4.4-0.7c-0.1,2.1,0.4,4.6,1.5,6.7l4.7-3
	c-1.3-3.6-2.5-7.7,1.5-10.3c3-1.9,6.9-1.4,10.3,2.7l3.1-2l1.8,2.8l-3,2c1.2,2.2,2,4.6,2,6.8l-4.4,0.8c-0.1-2-0.6-3.7-1.3-5.2
	l-4.8,3.1c1.3,3.6,2.5,7.7-1.5,10.2C467.7,128.7,463.8,128.2,460.4,124.1z M470.9,113.3l4-2.6c-1.3-1.3-2.5-1.3-3.4-0.7
	C470.5,110.6,470.5,111.8,470.9,113.3z M467.3,122.5c1-0.6,1-1.8,0.6-3.3l-3.9,2.5C465.3,122.9,466.4,123.1,467.3,122.5z"/>
<path class="st5" d="M635.4,423.5c5.7,14.4-1.4,30.7-15.9,36.4c-14.5,5.7-30.8-1.4-36.5-15.8s1.4-30.7,15.9-36.4
	C613.4,402,629.8,409.1,635.4,423.5z"/>
<path class="st6" d="M629.2,426c4.3,11-1.1,23.4-12.1,27.8c-11,4.3-23.5-1.1-27.8-12c-4.3-11,1.1-23.4,12.1-27.8
	S624.9,415,629.2,426z"/>
<path class="st7" d="M629,425.3c-0.1,0.1-0.5-0.8-1.5-2.2c-0.9-1.4-2.4-3.3-4.7-5.2c-1.2-0.9-2.5-1.8-4.1-2.6
	c-1.6-0.7-3.3-1.4-5.2-1.7c-1-0.2-1.9-0.3-3-0.4c-1,0-2.1,0-3.1,0.1c-1.1,0.1-2.1,0.3-3.2,0.6c-1.1,0.3-2.1,0.6-3.1,1.1
	c-1,0.4-2,1-2.9,1.5c-0.9,0.6-1.8,1.2-2.6,1.9c-0.8,0.7-1.5,1.4-2.2,2.2c-0.7,0.8-1.2,1.6-1.8,2.4c-1,1.6-1.8,3.3-2.3,5
	s-0.8,3.3-0.9,4.7c-0.2,3,0.2,5.4,0.5,7c0.4,1.6,0.7,2.5,0.6,2.6c-0.1,0-0.6-0.8-1.2-2.4c-0.6-1.6-1.2-4.1-1.1-7.2
	c0.1-1.6,0.3-3.3,0.8-5.1c0.5-1.8,1.3-3.6,2.3-5.4c0.5-0.9,1.1-1.8,1.9-2.6c0.7-0.8,1.5-1.7,2.3-2.4c0.9-0.8,1.8-1.5,2.8-2.1
	s2.1-1.2,3.2-1.7c1.1-0.5,2.2-0.9,3.4-1.1c1.1-0.3,2.3-0.5,3.4-0.6c1.1-0.1,2.3-0.1,3.3,0c1.1,0.1,2.2,0.2,3.2,0.5
	c2,0.4,3.9,1.2,5.5,2c1.6,0.9,3,1.9,4.2,2.9c2.3,2.1,3.7,4.2,4.5,5.8C628.8,424.4,629,425.3,629,425.3z"/>
<path class="st7" d="M616.2,444.8l1.4,3.5l-3.1,1.3l-1.4-3.4c-3.1,1.1-6.5,1.3-8.7,0.7l0.1-4.5c2,0.5,4.6,0.4,6.9-0.3l-2.1-5.2
	c-3.8,0.6-8.1,1-9.9-3.4c-1.3-3.3-0.1-7.1,4.5-9.6l-1.4-3.4l3.1-1.3l1.4,3.4c2.4-0.8,4.9-1.1,7-0.7v4.4c-1.9-0.2-3.8-0.1-5.4,0.3
	l2.2,5.2c3.8-0.6,8-1,9.8,3.3C622,438.5,620.8,442.3,616.2,444.8z M607.5,432.5l-1.8-4.4c-1.5,1-1.8,2.2-1.3,3.2
	C604.8,432.4,606,432.6,607.5,432.5z M615.9,437.7c-0.4-1.1-1.6-1.3-3.1-1.2l1.8,4.3C615.9,439.8,616.3,438.7,615.9,437.7z"/>
<path class="st1" d="M245.2,391.2c5.7,14.4-1.4,30.7-15.9,36.4c-14.5,5.7-30.8-1.4-36.5-15.8s1.4-30.7,15.9-36.4
	C223.2,369.7,239.6,376.7,245.2,391.2z"/>
<path class="st1" d="M239,393.6c4.3,11-1.1,23.4-12.1,27.8c-11,4.3-23.5-1.1-27.8-12c-4.3-11,1.1-23.4,12.1-27.8
	S234.7,382.6,239,393.6z"/>
<path class="st1" d="M238.8,393c-0.1,0.1-0.6-0.8-1.5-2.2c-0.9-1.4-2.4-3.3-4.7-5.2c-1.2-0.9-2.5-1.8-4.1-2.6
	c-1.6-0.7-3.3-1.4-5.2-1.7c-1-0.2-1.9-0.3-3-0.4c-1,0-2.1,0-3.1,0.1c-1.1,0.1-2.1,0.3-3.2,0.6c-1.1,0.3-2.1,0.6-3.1,1.1
	s-2,1-2.9,1.5c-0.9,0.6-1.8,1.2-2.6,1.9c-0.8,0.7-1.5,1.4-2.2,2.2c-0.7,0.8-1.2,1.6-1.8,2.4c-1,1.6-1.8,3.3-2.3,5s-0.8,3.3-0.9,4.7
	c-0.2,3,0.2,5.4,0.5,7c0.4,1.6,0.7,2.5,0.6,2.6c-0.1,0-0.6-0.8-1.2-2.4c-0.6-1.6-1.2-4.1-1.1-7.2c0.1-1.6,0.3-3.3,0.8-5.1
	c0.5-1.8,1.3-3.6,2.3-5.4c0.5-0.9,1.1-1.8,1.9-2.6c0.7-0.8,1.5-1.7,2.3-2.4c0.9-0.8,1.8-1.5,2.8-2.1s2.1-1.2,3.2-1.7
	c1.1-0.5,2.2-0.9,3.4-1.1c1.1-0.3,2.3-0.5,3.4-0.6c1.1-0.1,2.3-0.1,3.3,0c1.1,0.1,2.2,0.2,3.2,0.5c2,0.4,3.9,1.2,5.5,2
	c1.6,0.9,3,1.9,4.2,2.9c2.3,2.1,3.7,4.2,4.5,5.8C238.6,392,238.8,393,238.8,393z"/>
<path class="st1" d="M226,412.5l1.4,3.5l-3.1,1.3l-1.4-3.4c-3.1,1.1-6.5,1.3-8.7,0.7l0.2-4.5c2,0.5,4.6,0.4,6.9-0.3l-2.1-5.2
	c-3.8,0.6-8.1,1-9.9-3.4c-1.3-3.3-0.1-7.1,4.5-9.6l-1.4-3.4l3.1-1.3l1.4,3.4c2.4-0.8,4.9-1.1,7-0.7v4.4c-1.9-0.2-3.8-0.1-5.4,0.3
	l2.2,5.2c3.8-0.6,8-1,9.8,3.3C231.8,406.2,230.6,409.9,226,412.5z M217.3,400.1l-1.8-4.4c-1.5,1-1.8,2.2-1.3,3.2
	C214.6,400,215.8,400.3,217.3,400.1z M225.7,405.4c-0.4-1.1-1.6-1.3-3.1-1.2l1.8,4.3C225.7,407.5,226.1,406.4,225.7,405.4z"/>
<path class="st1" d="M325.9,102.1c0,0-11.5,6.1-24.3-3c-7.9-5.6-24.8-14.3-29.9-9l-6.3,20.5c0,0,12.7,2.2,23.1,10.3
	c10.2,8,30.4,7.4,30.4,7.4L325.9,102.1z"/>
<g class="st2">
	<path class="st3" d="M290.8,118.5c-6.1-3.5-6.5-11.1-3.1-15.2s11.4-3.1,15.5,0.4c4.1,3.4,4.6,9.5,1.2,13.6S295.4,121.2,290.8,118.5
		z"/>
</g>
<path class="st1" d="M294.1,115.8l-0.8,1.5l-1.4-0.7l0.7-1.5c-1.3-0.8-2.4-1.8-2.8-2.8l1.6-1.3c0.4,0.8,1.2,1.7,2.2,2.3l1.1-2.3
	c-1.3-1.1-2.8-2.5-1.8-4.4c0.7-1.4,2.4-2.2,4.7-1.3l0.8-1.5l1.4,0.7L299,106c1,0.6,1.8,1.4,2.3,2.2l-1.5,1.3
	c-0.5-0.7-1.1-1.3-1.7-1.7l-1.2,2.3c1.3,1.1,2.7,2.4,1.8,4.4C298,115.9,296.3,116.6,294.1,115.8z M295.7,109.1l1-1.9
	c-0.8-0.2-1.3,0.1-1.5,0.5C294.9,108.1,295.2,108.6,295.7,109.1z M296.4,113.5c0.2-0.5,0-0.9-0.5-1.4L295,114
	C295.7,114.2,296.2,114,296.4,113.5z"/>
<g class="st4">
	<path class="st3" d="M268,109.4l5.8-18.7h0.2c9.2-1.9,20.9,6,28.6,11.2c1.3,0.9,2.6,1.8,3.7,2.5c7.4,4.7,16,1.2,16.5,0.6l0.6,0.3
		l-5.9,20.2h-0.2c-13,2.1-24.9-3.4-31.1-8.8c-5.8-5-17.7-7.2-17.8-7.2L268,109.4z M274.3,91.3l-5.4,17.5c2.1,0.4,12.4,2.6,17.8,7.3
		c6.1,5.2,17.6,10.6,30.3,8.7l5.5-18.9c-0.7,0.3-1.5,0.6-1.8,0.7c-1.9,0.6-8.8,2.2-14.8-1.6c-1.1-0.7-2.4-1.6-3.7-2.5
		C294.6,97.4,283.1,89.6,274.3,91.3z"/>
</g>
<path class="st1" d="M495.7,158.7c0,0-0.9,13-15.5,19c-9,3.7-25.3,13.3-23.5,20.5l14.1,16.2c0,0,8.7-9.6,21-14.1
	c12.2-4.4,22.4-21.8,22.4-21.8L495.7,158.7z"/>
<g class="st2">
	<path class="st3" d="M491,197.1c-6.2,3.3-12.9-0.4-14.5-5.5s3.5-11.3,8.6-12.9c5.1-1.6,10.6,1.2,12.2,6.2
		C498.9,190,495.7,194.6,491,197.1z"/>
</g>
<path class="st6" d="M490.4,192.9l0.9,1.5l-1.3,0.8l-0.9-1.4c-1.3,0.7-2.8,1.1-3.9,0.9l-0.2-2c0.9,0.1,2.1-0.1,3.1-0.6l-1.3-2.2
	c-1.7,0.5-3.6,1-4.7-0.8c-0.8-1.4-0.6-3.2,1.4-4.7l-0.9-1.4l1.3-0.8l0.9,1.4c1-0.5,2.1-0.8,3.1-0.8l0.3,2c-0.9,0-1.7,0.2-2.4,0.5
	l1.3,2.2c1.6-0.5,3.5-1,4.6,0.8C492.6,189.6,492.3,191.4,490.4,192.9z M485.6,187.9l-1.1-1.8c-0.6,0.6-0.6,1.1-0.4,1.5
	C484.4,188.1,484.9,188.1,485.6,187.9z M489.8,189.7c-0.3-0.5-0.8-0.5-1.5-0.3l1.1,1.8C489.9,190.6,490,190.1,489.8,189.7z"/>
<g class="st4">
	<path class="st3" d="M471.1,211.6l-12.7-14.8l0.1-0.2c3.3-8.8,16.2-14.5,24.7-18.2c1.5-0.6,2.9-1.3,4-1.8
		c7.9-3.7,9.5-12.9,9.3-13.7l0.5-0.4l14,15.8l-0.1,0.2c-5.2,12.1-16.2,19.2-24,21.6c-7.3,2.2-15.5,11.2-15.6,11.3L471.1,211.6z
		 M459.1,196.6l12,13.9c1.5-1.6,8.8-9.1,15.6-11.2c7.6-2.3,18.3-9.3,23.5-21l-13.1-14.7c-0.1,0.8-0.3,1.6-0.4,1.9
		c-0.5,2-2.8,8.6-9.3,11.7c-1.2,0.6-2.6,1.2-4.1,1.8C475,182.7,462.4,188.2,459.1,196.6z"/>
</g>
<path class="st1" d="M641.8,129.3c0,0-11.2,1.6-19-9.7c-4.8-7-15.9-19.1-21.7-16.2l-11.3,14.9c0,0,9.7,5.6,15.8,15.3
	c5.9,9.5,22.6,15.1,22.6,15.1L641.8,129.3z"/>
<g class="st2">
	<path class="st3" d="M608.3,132.3c-3.9-4.7-2-11,2-13.3s10.2,0.9,12.6,4.9c2.3,4,0.9,9.2-3.1,11.5
		C615.8,137.7,611.3,135.9,608.3,132.3z"/>
</g>
<path class="st1" d="M611.8,131l-1.1,1l-0.9-1l1-1c-0.8-1-1.4-2.2-1.5-3.1l1.7-0.6c0.1,0.8,0.5,1.8,1.1,2.5l1.6-1.5
	c-0.7-1.3-1.5-2.8-0.1-4.1c1-1,2.6-1,4.2,0.3l1.1-1l0.9,1l-1,1c0.6,0.8,1.1,1.7,1.3,2.5l-1.6,0.6c-0.2-0.8-0.5-1.4-0.9-1.9l-1.6,1.5
	c0.8,1.3,1.5,2.8,0.1,4.1C614.9,132.3,613.4,132.4,611.8,131z M615.1,126.1l1.4-1.3c-0.6-0.4-1.1-0.3-1.4,0
	C614.8,125,614.9,125.5,615.1,126.1z M614.4,129.9c0.3-0.3,0.3-0.8,0-1.3l-1.3,1.2C613.6,130.2,614.1,130.2,614.4,129.9z"/>
<g class="st4">
	<path class="st3" d="M592.4,118l10.3-13.5h0.2c8.1,1.2,15.2,11.1,20,17.7c0.8,1.1,1.6,2.2,2.3,3.1c4.6,6,12.7,5.8,13.3,5.4l0.4,0.4
		L628,145.9h-0.2c-11.3-2.2-19.3-10.2-22.7-16.5c-3.2-5.8-12.3-11.2-12.4-11.2L592.4,118z M602.9,105.1l-9.7,12.7
		c1.6,1,9.3,5.8,12.3,11.3c3.4,6.1,11.2,13.9,22.2,16.1l10.1-13.8c-0.7,0.1-1.4,0-1.7,0c-1.8-0.1-7.8-0.8-11.6-5.8
		c-0.7-0.9-1.5-2-2.3-3.1C617.7,116.1,610.7,106.4,602.9,105.1z"/>
</g>
<path class="st1" d="M291.3,168.6c0,0-0.9,13-15.5,19c-9,3.7-25.3,13.3-23.5,20.5l14.1,16.2c0,0,8.7-9.6,21.1-14.1
	c12.2-4.4,22.4-21.8,22.4-21.8L291.3,168.6z"/>
<g class="st2">
	<path class="st3" d="M286.6,207c-6.2,3.3-12.9-0.4-14.5-5.5s3.5-11.3,8.6-12.9c5.1-1.6,10.6,1.2,12.2,6.2
		C294.5,199.9,291.4,204.5,286.6,207z"/>
</g>
<path class="st1" d="M286,202.8l0.9,1.5l-1.3,0.8l-0.9-1.4c-1.3,0.7-2.8,1-3.9,0.9l-0.2-2c0.9,0.1,2.1-0.1,3.1-0.6l-1.3-2.2
	c-1.7,0.5-3.6,1-4.7-0.8c-0.8-1.4-0.6-3.2,1.4-4.7l-0.9-1.4l1.3-0.8l0.9,1.4c1-0.5,2.1-0.8,3.1-0.8l0.3,2c-0.9,0-1.7,0.2-2.4,0.5
	l1.3,2.2c1.6-0.5,3.5-1,4.6,0.8C288.2,199.5,287.9,201.3,286,202.8z M281.2,197.8l-1.1-1.8c-0.6,0.6-0.6,1.1-0.4,1.5
	C280,198,280.6,198,281.2,197.8z M285.4,199.6c-0.3-0.5-0.8-0.5-1.5-0.3l1.1,1.8C285.6,200.5,285.6,200,285.4,199.6z"/>
<g class="st4">
	<path class="st3" d="M266.7,221.5L254,206.7l0.1-0.2c3.3-8.8,16.2-14.5,24.7-18.2c1.5-0.6,2.9-1.3,4-1.8c7.9-3.7,9.5-12.9,9.3-13.7
		l0.6-0.4l14,15.8l-0.1,0.2c-5.2,12.1-16.2,19.2-24,21.6c-7.3,2.2-15.5,11.2-15.6,11.3L266.7,221.5z M254.8,206.5l12,13.9
		c1.5-1.6,8.8-9.1,15.6-11.2c7.6-2.3,18.3-9.3,23.5-21l-13.1-14.7c-0.1,0.8-0.3,1.6-0.4,1.9c-0.5,2-2.8,8.6-9.3,11.7
		c-1.2,0.6-2.6,1.2-4.1,1.8C270.7,192.6,258,198.1,254.8,206.5z"/>
</g>
<path class="st1" d="M646.7,303.4c0,0-6.4,10.8-12.2,11c-5.9,0.1-14.8-5-14.8-5s-5.4-14.4-1.7-20c0,0,3.7-1.9,7.5,1.5
	c0.7,0.6,1.3,1.3,2,2.3c0.9,1.3,2,2.1,3.1,2.5c4.2,1.5,9.1-2.1,11,1.4c1.1,2,2.3,3.5,3.2,4.6C645.9,302.8,646.7,303.4,646.7,303.4z"
	/>
<path class="st1" d="M555.1,461.4c0,0-15.7-137.5,71.5-147.1c0,0,65.7,15.6,51.5,141.3c-0.4,3.3-3.2,5.8-6.5,5.8L555.1,461.4
	L555.1,461.4z"/>
<path d="M615.6,316.3c0,0,16.3,4.4,21.3,1.8c0,0,0.8-8.2-6.1-7c-4.7,0.8-7.8-1.9-9.5-3C618.7,306.5,614.9,312.9,615.6,316.3z"/>
<path class="st1" d="M629.7,304c-1,0.9-4.2-13.2-4.2-13.2c0.7,0.6,1.3,1.3,2,2.3c0.9,1.3,2,2.1,3.1,2.5
	C630.6,295.9,630.7,303.1,629.7,304z"/>
<path class="st1" d="M644.8,301.5c-0.2,0.2-7.8,5.6-8.8,5.6s5.6-10.2,5.6-10.2C642.6,298.9,643.8,300.5,644.8,301.5z"/>
<path class="st1" d="M608.1,390c0,0,4.3,6.1,8.3,6.2s10.1-2.8,10.1-2.8s3.7-8.2,1.2-11.4c0,0-2.5-1.1-5.1,0.8
	c-0.4,0.3-0.9,0.8-1.3,1.3c-0.6,0.8-1.3,1.2-2.1,1.4c-2.8,0.9-6.2-1.2-7.5,0.8c-0.7,1.1-1.5,2-2.2,2.6
	C608.6,389.7,608.1,390,608.1,390z"/>
<path class="st1" d="M663.4,452.1c-3.4-17.9-13.8-55.6-41.6-55.9c0,0-23,2.6-26.6,32.9c-0.2,1.6,1.7,30.6,1.6,32.3h58.9
	C660.6,461.4,664.3,457,663.4,452.1z"/>
<path d="M629.3,397.3c0,0-11.1,2.5-14.5,1c0,0-0.5-4.6,4.2-4c3.2,0.4,5.3-1.1,6.5-1.7C627.2,391.8,629.8,395.4,629.3,397.3z"/>
<path class="st1" d="M619.7,390.4c0.7,0.5,2.9-7.5,2.9-7.5c-0.4,0.3-0.9,0.8-1.3,1.3c-0.6,0.8-1.3,1.2-2.1,1.4
	C619.1,385.8,619,389.8,619.7,390.4z"/>
<path class="st1" d="M609.4,389c0.2,0.1,5.3,3.2,6,3.2s-3.8-5.8-3.8-5.8C610.9,387.5,610.1,388.4,609.4,389z"/>
<path class="st1" d="M651,442.6c0-10.1-11.6-34.6-15.8-34.6c-2.8,0-8.9,5.7-13.4,6.5s-9.4,0-10.2,4.8c-0.8,4.7-2.3,23.9-0.9,26.6
	C612.2,448.4,648,447.4,651,442.6z"/>
<path class="st8" d="M599.5,445.1h-377v5.4h377.1L599.5,445.1L599.5,445.1z"/>
<path class="st9" d="M603.4,450.6H218.6v5.4h384.8V450.6z"/>
<path class="st8" d="M608.7,456H213.3v5.4h395.4V456z"/>
<path class="st10" d="M583.9,236.9H231.2v208.2h352.6V236.9H583.9z"/>
<path class="st9" d="M607.8,240.9H210.3l202.4-102.5L607.8,240.9z"/>
<path class="st9" d="M270.7,227.2l276.8-0.6l-134.9-70.1L270.7,227.2z"/>
<path class="st8" d="M599.4,240.9H220.7v8.8h378.7V240.9z"/>
<path class="st9" d="M286.1,240.9h-37.3v13.2h37.3V240.9z"/>
<path class="st9" d="M277.8,254.1h-20.6v191h20.6V254.1z"/>
<path class="st9" d="M366.7,240.9h-37.3v13.2h37.3V240.9z"/>
<path class="st9" d="M358.4,254.1h-20.6v191h20.6V254.1z"/>
<path class="st9" d="M493.4,240.9h-37.3v13.2h37.3V240.9z"/>
<path class="st9" d="M485.1,254.1h-20.6v191h20.6V254.1z"/>
<path class="st9" d="M569.3,240.9H532v13.2h37.3V240.9z"/>
<path class="st9" d="M561,254.1h-20.6v191H561V254.1z"/>
<path class="st8" d="M417.1,201c0-0.6-0.1-1.2-0.2-1.7c-0.2-0.5-0.5-0.9-0.8-1.3c-0.4-0.4-0.9-0.8-1.5-1.1s-1.4-0.7-2.3-1
	c-1.6-0.6-3-1.2-4.3-1.8s-2.4-1.3-3.3-2.1s-1.6-1.7-2.1-2.8s-0.7-2.3-0.7-3.8c0-1.3,0.3-2.4,0.7-3.5c0.5-1,1.1-1.9,2-2.7
	c0.8-0.8,1.9-1.4,3-1.8c1.2-0.5,2.5-0.8,3.9-0.9l0.1-4.8l3.9,0.1l-0.1,4.9c1.4,0.2,2.6,0.6,3.7,1.2c1.1,0.6,2.1,1.3,2.8,2.2
	c0.8,0.9,1.4,1.9,1.8,3.1c0.4,1.2,0.6,2.6,0.6,4l-7-0.1c0-1.8-0.4-3.1-1.1-4c-0.8-0.9-1.8-1.4-3.2-1.4c-0.7,0-1.3,0.1-1.9,0.3
	c-0.5,0.2-1,0.5-1.3,0.8s-0.6,0.8-0.8,1.2c-0.2,0.5-0.3,1-0.3,1.5c0,0.6,0.1,1.1,0.2,1.5c0.2,0.4,0.4,0.9,0.8,1.3
	c0.4,0.4,0.9,0.8,1.6,1.1c0.6,0.3,1.4,0.7,2.4,1.1c1.5,0.6,3,1.2,4.2,1.8c1.3,0.6,2.4,1.4,3.3,2.2s1.6,1.8,2.1,2.8
	c0.5,1.1,0.7,2.3,0.7,3.8c0,1.3-0.3,2.5-0.7,3.5c-0.5,1-1.1,1.9-2,2.7c-0.8,0.7-1.9,1.3-3,1.8c-1.2,0.4-2.5,0.7-4,0.8l-0.1,4.5
	l-3.8-0.1l0.1-4.4c-1.3-0.2-2.6-0.5-3.9-0.9c-1.2-0.5-2.3-1.1-3.3-2s-1.7-1.9-2.3-3.2c-0.6-1.3-0.8-2.8-0.8-4.6l7,0.1
	c0,1.1,0.1,1.9,0.4,2.7c0.3,0.7,0.7,1.3,1.2,1.7s1.1,0.7,1.7,0.9s1.3,0.3,1.9,0.3c0.8,0,1.4-0.1,2-0.3s1.1-0.4,1.4-0.8
	c0.4-0.3,0.7-0.7,0.9-1.2C417,202.1,417.1,201.5,417.1,201z"/>
<path class="st8" d="M433.1,445.1h-51.2v-55.9c0-13.3,10.7-24,24-24h4.6c12.5,0,22.6,10.1,22.6,22.6V445.1z"/>
<path class="st8" d="M390.6,324.3h-24.2v-26.4c0-6.3,5.1-11.3,11.3-11.3h2.1c5.9,0,10.7,4.8,10.7,10.7v27H390.6z"/>
<path class="st8" d="M319.9,324.3h-24.2v-26.4c0-6.3,5.1-11.3,11.3-11.3h2.2c5.9,0,10.7,4.8,10.7,10.7V324.3z"/>
<path class="st8" d="M319.9,405.2h-24.2v-26.4c0-6.3,5.1-11.3,11.3-11.3h2.2c5.9,0,10.7,4.8,10.7,10.7V405.2z"/>
<path class="st8" d="M524.8,324.3h-24.2v-26.4c0-6.3,5.1-11.3,11.3-11.3h2.1c5.9,0,10.7,4.8,10.7,10.7v27H524.8z"/>
<path class="st8" d="M524.8,405.2h-24.2v-26.4c0-6.3,5.1-11.3,11.3-11.3h2.1c5.9,0,10.7,4.8,10.7,10.7v27H524.8z"/>
<path class="st8" d="M451.7,324.3h-24.2v-26.4c0-6.3,5.1-11.3,11.3-11.3h2.2c5.9,0,10.7,4.8,10.7,10.7V324.3z"/>
<path class="st9" d="M167.2,365c-4.4,12.1-17.9,18.4-30,14c-12.2-4.4-18.5-17.8-14-30c4.4-12.1,17.9-18.4,30-14
	S171.6,352.9,167.2,365z"/>
<path class="st9" d="M161.9,363.1c-3.4,9.2-13.6,14-22.9,10.6c-9.3-3.4-14.1-13.6-10.7-22.8c3.4-9.2,13.6-14,22.9-10.6
	C160.5,343.6,165.3,353.8,161.9,363.1z"/>
<path class="st11" d="M162.1,362.6c-0.1,0,0.1-0.8,0.3-2.2c0.2-1.4,0.4-3.4-0.1-5.8c-0.2-1.2-0.6-2.5-1.1-3.9
	c-0.6-1.3-1.3-2.7-2.3-4c-0.5-0.6-1-1.3-1.6-1.9s-1.3-1.2-2-1.7s-1.5-1-2.3-1.4s-1.7-0.8-2.5-1.1c-0.9-0.3-1.8-0.5-2.7-0.7
	c-0.9-0.1-1.8-0.2-2.7-0.2s-1.7,0.1-2.6,0.2c-0.8,0.1-1.6,0.3-2.4,0.5c-1.6,0.4-3,1.1-4.2,1.8c-1.2,0.7-2.3,1.6-3.2,2.4
	c-1.8,1.7-2.9,3.4-3.5,4.7c-0.7,1.2-1,2-1.1,1.9c-0.1,0,0-0.8,0.6-2.2c0.5-1.3,1.5-3.2,3.3-5.1c0.9-0.9,2-1.9,3.3-2.7
	c1.3-0.8,2.8-1.6,4.4-2.1c0.8-0.3,1.7-0.5,2.6-0.6c0.9-0.1,1.8-0.2,2.8-0.2c0.9,0,1.9,0.1,2.9,0.2c1,0.2,1.9,0.4,2.9,0.7
	c1,0.3,1.9,0.7,2.7,1.2c0.9,0.4,1.7,1,2.5,1.5c0.8,0.6,1.5,1.2,2.1,1.8c0.6,0.6,1.2,1.3,1.7,2c1,1.4,1.8,2.9,2.3,4.3s0.9,2.8,1,4.1
	c0.3,2.6,0,4.7-0.4,6.1C162.5,361.9,162.2,362.6,162.1,362.6z"/>
<path class="st3" d="M143.4,367.7l-1,2.9l-2.6-0.9l1-2.9c-2.5-1.1-4.8-2.7-5.8-4.4l2.6-2.7c1,1.4,2.6,2.8,4.4,3.6l1.5-4.4
	c-2.7-1.7-5.6-3.8-4.3-7.6c1-2.8,3.8-4.5,8.1-3.5l1-2.9l2.6,0.9l-1,2.9c1.9,0.8,3.6,2,4.8,3.4l-2.4,2.8c-1.1-1.2-2.3-2.1-3.5-2.8
	l-1.6,4.5c2.7,1.7,5.5,3.8,4.3,7.5C150.5,366.9,147.7,368.6,143.4,367.7z M144.8,355.2l1.3-3.7c-1.5-0.2-2.3,0.4-2.6,1.3
	C143.1,353.6,143.8,354.4,144.8,355.2z M147.1,363.1c0.3-0.9-0.3-1.7-1.3-2.5l-1.3,3.6C146,364.4,146.8,363.9,147.1,363.1z"/>
<path class="st9" d="M255.6,434.5h-59.2v10.7h59.2V434.5z"/>
<path class="st12" d="M202.2,445.3c-0.1,0-0.2-2.4-0.2-5.3s0.1-5.3,0.2-5.3c0.1,0,0.2,2.4,0.2,5.3
	C202.5,442.9,202.4,445.3,202.2,445.3z"/>
<path class="st12" d="M199,445.3c-0.1,0-0.2-2.4-0.2-5.3s0.1-5.3,0.2-5.3c0.1,0,0.2,2.4,0.2,5.3S199.1,445.3,199,445.3z"/>
<path class="st12" d="M209.3,445.3c-0.1,0-0.2-2.4-0.2-5.3s0.1-5.3,0.2-5.3s0.2,2.4,0.2,5.3C209.6,442.9,209.5,445.3,209.3,445.3z"
	/>
<path class="st12" d="M206.1,445.3c-0.1,0-0.2-2.4-0.2-5.3s0.1-5.3,0.2-5.3c0.1,0,0.2,2.4,0.2,5.3S206.2,445.3,206.1,445.3z"/>
<path class="st12" d="M216.4,445.3c-0.1,0-0.2-2.4-0.2-5.3s0.1-5.3,0.2-5.3s0.2,2.4,0.2,5.3C216.7,442.9,216.6,445.3,216.4,445.3z"
	/>
<path class="st12" d="M213.2,445.3c-0.1,0-0.2-2.4-0.2-5.3s0.1-5.3,0.2-5.3c0.1,0,0.2,2.4,0.2,5.3
	C213.5,442.9,213.3,445.3,213.2,445.3z"/>
<path class="st12" d="M223.6,445.3c-0.1,0-0.2-2.4-0.2-5.3s0.1-5.3,0.2-5.3c0.1,0,0.2,2.4,0.2,5.3S223.7,445.3,223.6,445.3z"/>
<path class="st12" d="M220.3,445.3c-0.1,0-0.2-2.4-0.2-5.3s0.1-5.3,0.2-5.3c0.1,0,0.2,2.4,0.2,5.3
	C220.6,442.9,220.5,445.3,220.3,445.3z"/>
<path class="st12" d="M230.7,445.3c-0.1,0-0.2-2.4-0.2-5.3s0.1-5.3,0.2-5.3c0.1,0,0.2,2.4,0.2,5.3S230.8,445.3,230.7,445.3z"/>
<path class="st12" d="M227.4,445.3c-0.1,0-0.2-2.4-0.2-5.3s0.1-5.3,0.2-5.3c0.1,0,0.2,2.4,0.2,5.3
	C227.7,442.9,227.6,445.3,227.4,445.3z"/>
<path class="st12" d="M237.8,445.3c-0.1,0-0.2-2.4-0.2-5.3s0.1-5.3,0.2-5.3c0.1,0,0.2,2.4,0.2,5.3S237.9,445.3,237.8,445.3z"/>
<path class="st12" d="M234.6,445.3c-0.1,0-0.2-2.4-0.2-5.3s0.1-5.3,0.2-5.3c0.1,0,0.2,2.4,0.2,5.3S234.7,445.3,234.6,445.3z"/>
<path class="st12" d="M244.9,445.3c-0.1,0-0.2-2.4-0.2-5.3s0.1-5.3,0.2-5.3c0.1,0,0.2,2.4,0.2,5.3
	C245.2,442.9,245,445.3,244.9,445.3z"/>
<path class="st12" d="M241.7,445.3c-0.1,0-0.2-2.4-0.2-5.3s0.1-5.3,0.2-5.3s0.2,2.4,0.2,5.3S241.8,445.3,241.7,445.3z"/>
<path class="st12" d="M252,445.3c-0.1,0-0.2-2.4-0.2-5.3s0.1-5.3,0.2-5.3c0.1,0,0.2,2.4,0.2,5.3C252.3,442.9,252.2,445.3,252,445.3z
	"/>
<path class="st12" d="M248.8,445.3c-0.1,0-0.2-2.4-0.2-5.3s0.1-5.3,0.2-5.3s0.2,2.4,0.2,5.3S248.9,445.3,248.8,445.3z"/>
<path class="st12" d="M255.6,434.5c0,0.1-13.3,0.2-29.8,0.2s-29.8-0.1-29.8-0.2s13.3-0.2,29.8-0.2
	C242.3,434.2,255.6,434.3,255.6,434.5z"/>
<path class="st9" d="M251,445.1h-59.2v10.7H251V445.1z"/>
<path class="st12" d="M197.6,455.9c-0.1,0-0.2-2.4-0.2-5.3s0.1-5.3,0.2-5.3c0.1,0,0.2,2.4,0.2,5.3S197.7,455.9,197.6,455.9z"/>
<path class="st12" d="M194.3,455.9c-0.1,0-0.2-2.4-0.2-5.3s0.1-5.3,0.2-5.3c0.1,0,0.2,2.4,0.2,5.3
	C194.6,453.5,194.5,455.9,194.3,455.9z"/>
<path class="st12" d="M204.7,455.9c-0.1,0-0.2-2.4-0.2-5.3s0.1-5.3,0.2-5.3c0.1,0,0.2,2.4,0.2,5.3S204.8,455.9,204.7,455.9z"/>
<path class="st12" d="M201.5,455.9c-0.1,0-0.2-2.4-0.2-5.3s0.1-5.3,0.2-5.3c0.1,0,0.2,2.4,0.2,5.3S201.6,455.9,201.5,455.9z"/>
<path class="st12" d="M211.8,455.9c-0.1,0-0.2-2.4-0.2-5.3s0.1-5.3,0.2-5.3s0.2,2.4,0.2,5.3C212.1,453.5,211.9,455.9,211.8,455.9z"
	/>
<path class="st12" d="M208.6,455.9c-0.1,0-0.2-2.4-0.2-5.3s0.1-5.3,0.2-5.3c0.1,0,0.2,2.4,0.2,5.3S208.7,455.9,208.6,455.9z"/>
<path class="st12" d="M218.9,455.9c-0.1,0-0.2-2.4-0.2-5.3s0.1-5.3,0.2-5.3s0.2,2.4,0.2,5.3C219.2,453.5,219.1,455.9,218.9,455.9z"
	/>
<path class="st12" d="M215.7,455.9c-0.1,0-0.2-2.4-0.2-5.3s0.1-5.3,0.2-5.3c0.1,0,0.2,2.4,0.2,5.3S215.8,455.9,215.7,455.9z"/>
<path class="st12" d="M226,455.9c-0.1,0-0.2-2.4-0.2-5.3s0.1-5.3,0.2-5.3c0.1,0,0.2,2.4,0.2,5.3C226.3,453.5,226.2,455.9,226,455.9z
	"/>
<path class="st12" d="M222.8,455.9c-0.1,0-0.2-2.4-0.2-5.3s0.1-5.3,0.2-5.3c0.1,0,0.2,2.4,0.2,5.3S222.9,455.9,222.8,455.9z"/>
<path class="st12" d="M233.2,455.9c-0.1,0-0.2-2.4-0.2-5.3s0.1-5.3,0.2-5.3s0.2,2.4,0.2,5.3S233.3,455.9,233.2,455.9z"/>
<path class="st12" d="M229.9,455.9c-0.1,0-0.2-2.4-0.2-5.3s0.1-5.3,0.2-5.3c0.1,0,0.2,2.4,0.2,5.3
	C230.2,453.5,230,455.9,229.9,455.9z"/>
<path class="st12" d="M240.3,455.9c-0.1,0-0.2-2.4-0.2-5.3s0.1-5.3,0.2-5.3c0.1,0,0.2,2.4,0.2,5.3S240.4,455.9,240.3,455.9z"/>
<path class="st12" d="M237,455.9c-0.1,0-0.2-2.4-0.2-5.3s0.1-5.3,0.2-5.3s0.2,2.4,0.2,5.3C237.3,453.5,237.2,455.9,237,455.9z"/>
<path class="st12" d="M247.4,455.9c-0.1,0-0.2-2.4-0.2-5.3s0.1-5.3,0.2-5.3c0.1,0,0.2,2.4,0.2,5.3
	C247.6,453.5,247.5,455.9,247.4,455.9z"/>
<path class="st12" d="M244.1,455.9c-0.1,0-0.2-2.4-0.2-5.3s0.1-5.3,0.2-5.3c0.1,0,0.2,2.4,0.2,5.3
	C244.4,453.5,244.3,455.9,244.1,455.9z"/>
<path class="st12" d="M251,445.1c0,0.1-13.3,0.2-29.7,0.2s-29.7-0.1-29.7-0.2s13.3-0.2,29.7-0.2S251,445,251,445.1z"/>
<path class="st9" d="M247.2,455.9H188v10.7h59.2V455.9z"/>
<path class="st12" d="M193.8,466.7c-0.1,0-0.2-2.4-0.2-5.3s0.1-5.3,0.2-5.3c0.1,0,0.2,2.4,0.2,5.3
	C194,464.4,193.9,466.7,193.8,466.7z"/>
<path class="st12" d="M190.5,466.7c-0.1,0-0.2-2.4-0.2-5.3s0.1-5.3,0.2-5.3c0.1,0,0.2,2.4,0.2,5.3
	C190.8,464.4,190.7,466.7,190.5,466.7z"/>
<path class="st12" d="M200.9,466.7c-0.1,0-0.2-2.4-0.2-5.3s0.1-5.3,0.2-5.3s0.2,2.4,0.2,5.3C201.1,464.4,201,466.7,200.9,466.7z"/>
<path class="st12" d="M197.7,466.7c-0.1,0-0.2-2.4-0.2-5.3s0.1-5.3,0.2-5.3c0.1,0,0.2,2.4,0.2,5.3
	C197.9,464.4,197.8,466.7,197.7,466.7z"/>
<path class="st12" d="M208,466.7c-0.1,0-0.2-2.4-0.2-5.3s0.1-5.3,0.2-5.3c0.1,0,0.2,2.4,0.2,5.3C208.3,464.4,208.1,466.7,208,466.7z
	"/>
<path class="st12" d="M204.8,466.7c-0.1,0-0.2-2.4-0.2-5.3s0.1-5.3,0.2-5.3c0.1,0,0.2,2.4,0.2,5.3
	C205,464.4,204.9,466.7,204.8,466.7z"/>
<path class="st12" d="M215.1,466.7c-0.1,0-0.2-2.4-0.2-5.3s0.1-5.3,0.2-5.3s0.2,2.4,0.2,5.3C215.4,464.4,215.3,466.7,215.1,466.7z"
	/>
<path class="st12" d="M211.9,466.7c-0.1,0-0.2-2.4-0.2-5.3s0.1-5.3,0.2-5.3c0.1,0,0.2,2.4,0.2,5.3
	C212.1,464.4,212,466.7,211.9,466.7z"/>
<path class="st12" d="M222.2,466.7c-0.1,0-0.2-2.4-0.2-5.3s0.1-5.3,0.2-5.3s0.2,2.4,0.2,5.3C222.5,464.4,222.4,466.7,222.2,466.7z"
	/>
<path class="st12" d="M219,466.7c-0.1,0-0.2-2.4-0.2-5.3s0.1-5.3,0.2-5.3c0.1,0,0.2,2.4,0.2,5.3C219.2,464.4,219.1,466.7,219,466.7z
	"/>
<path class="st12" d="M229.3,466.7c-0.1,0-0.2-2.4-0.2-5.3s0.1-5.3,0.2-5.3c0.1,0,0.2,2.4,0.2,5.3
	C229.6,464.4,229.5,466.7,229.3,466.7z"/>
<path class="st12" d="M226.1,466.7c-0.1,0-0.2-2.4-0.2-5.3s0.1-5.3,0.2-5.3s0.2,2.4,0.2,5.3C226.4,464.4,226.2,466.7,226.1,466.7z"
	/>
<path class="st12" d="M236.5,466.7c-0.1,0-0.2-2.4-0.2-5.3s0.1-5.3,0.2-5.3c0.1,0,0.2,2.4,0.2,5.3
	C236.7,464.4,236.6,466.7,236.5,466.7z"/>
<path class="st12" d="M233.2,466.7c-0.1,0-0.2-2.4-0.2-5.3s0.1-5.3,0.2-5.3c0.1,0,0.2,2.4,0.2,5.3
	C233.5,464.4,233.4,466.7,233.2,466.7z"/>
<path class="st12" d="M243.6,466.7c-0.1,0-0.2-2.4-0.2-5.3s0.1-5.3,0.2-5.3c0.1,0,0.2,2.4,0.2,5.3
	C243.8,464.4,243.7,466.7,243.6,466.7z"/>
<path class="st12" d="M240.3,466.7c-0.1,0-0.2-2.4-0.2-5.3s0.1-5.3,0.2-5.3s0.2,2.4,0.2,5.3C240.6,464.4,240.5,466.7,240.3,466.7z"
	/>
<path class="st12" d="M247.2,455.9c0,0.1-13.3,0.2-29.7,0.2s-29.7-0.1-29.7-0.2s13.3-0.2,29.7-0.2
	C233.9,455.7,247.2,455.8,247.2,455.9z"/>
<g class="st13">
	<path d="M199.8,445.2c8.8,2.2,18.3,2.6,27.3,2c9.1-0.6,18.3-1.9,27.4-1.8L199.8,445.2z"/>
</g>
<g class="st13">
	<path d="M188.7,456.1c8.8,2.2,18.3,2.6,27.3,2c9.1-0.6,18.3-1.9,27.4-1.8L188.7,456.1z"/>
</g>
<path class="st3" d="M198.5,435.1c0,0.1-0.3,0.2-0.7,0.2s-0.7-0.1-0.7-0.2s0.3-0.2,0.7-0.2C198.1,434.8,198.5,435,198.5,435.1z"/>
<path class="st3" d="M206.7,435.1c0,0.1-1.5,0.2-3.4,0.2s-3.4-0.1-3.4-0.2s1.5-0.2,3.4-0.2S206.7,435,206.7,435.1z"/>
<path class="st3" d="M216.1,435.1c0,0.1-1.5,0.2-3.4,0.2s-3.4-0.1-3.4-0.2s1.5-0.2,3.4-0.2S216.1,435,216.1,435.1z"/>
<path class="st9" d="M179.1,434.5h-59.2v10.7h59.2V434.5z"/>
<path class="st12" d="M125.7,445.3c-0.1,0-0.2-2.4-0.2-5.3s0.1-5.3,0.2-5.3s0.2,2.4,0.2,5.3C125.9,442.9,125.8,445.3,125.7,445.3z"
	/>
<path class="st12" d="M122.4,445.3c-0.1,0-0.2-2.4-0.2-5.3s0.1-5.3,0.2-5.3s0.2,2.4,0.2,5.3C122.7,442.9,122.6,445.3,122.4,445.3z"
	/>
<path class="st12" d="M132.8,445.3c-0.1,0-0.2-2.4-0.2-5.3s0.1-5.3,0.2-5.3s0.2,2.4,0.2,5.3S132.9,445.3,132.8,445.3z"/>
<path class="st12" d="M129.6,445.3c-0.1,0-0.2-2.4-0.2-5.3s0.1-5.3,0.2-5.3c0.1,0,0.2,2.4,0.2,5.3S129.7,445.3,129.6,445.3z"/>
<path class="st12" d="M139.9,445.3c-0.1,0-0.2-2.4-0.2-5.3s0.1-5.3,0.2-5.3c0.1,0,0.2,2.4,0.2,5.3
	C140.2,442.9,140,445.3,139.9,445.3z"/>
<path class="st12" d="M136.7,445.3c-0.1,0-0.2-2.4-0.2-5.3s0.1-5.3,0.2-5.3s0.2,2.4,0.2,5.3S136.8,445.3,136.7,445.3z"/>
<path class="st12" d="M147,445.3c-0.1,0-0.2-2.4-0.2-5.3s0.1-5.3,0.2-5.3c0.1,0,0.2,2.4,0.2,5.3C147.3,442.9,147.2,445.3,147,445.3z
	"/>
<path class="st12" d="M143.8,445.3c-0.1,0-0.2-2.4-0.2-5.3s0.1-5.3,0.2-5.3c0.1,0,0.2,2.4,0.2,5.3S143.9,445.3,143.8,445.3z"/>
<path class="st12" d="M154.1,445.3c-0.1,0-0.2-2.4-0.2-5.3s0.1-5.3,0.2-5.3c0.1,0,0.2,2.4,0.2,5.3
	C154.4,442.9,154.3,445.3,154.1,445.3z"/>
<path class="st12" d="M150.9,445.3c-0.1,0-0.2-2.4-0.2-5.3s0.1-5.3,0.2-5.3s0.2,2.4,0.2,5.3C151.1,442.9,151,445.3,150.9,445.3z"/>
<path class="st12" d="M161.3,445.3c-0.1,0-0.2-2.4-0.2-5.3s0.1-5.3,0.2-5.3c0.1,0,0.2,2.4,0.2,5.3S161.4,445.3,161.3,445.3z"/>
<path class="st12" d="M158,445.3c-0.1,0-0.2-2.4-0.2-5.3s0.1-5.3,0.2-5.3c0.1,0,0.2,2.4,0.2,5.3C158.3,442.9,158.2,445.3,158,445.3z
	"/>
<path class="st12" d="M168.4,445.3c-0.1,0-0.2-2.4-0.2-5.3s0.1-5.3,0.2-5.3c0.1,0,0.2,2.4,0.2,5.3
	C168.6,442.9,168.5,445.3,168.4,445.3z"/>
<path class="st12" d="M165.1,445.3c-0.1,0-0.2-2.4-0.2-5.3s0.1-5.3,0.2-5.3s0.2,2.4,0.2,5.3C165.4,442.9,165.3,445.3,165.1,445.3z"
	/>
<path class="st12" d="M175.5,445.3c-0.1,0-0.2-2.4-0.2-5.3s0.1-5.3,0.2-5.3c0.1,0,0.2,2.4,0.2,5.3S175.6,445.3,175.5,445.3z"/>
<path class="st12" d="M172.2,445.3c-0.1,0-0.2-2.4-0.2-5.3s0.1-5.3,0.2-5.3c0.1,0,0.2,2.4,0.2,5.3
	C172.5,442.9,172.4,445.3,172.2,445.3z"/>
<path class="st12" d="M179.1,434.5c0,0.1-13.3,0.2-29.8,0.2s-29.8-0.1-29.8-0.2s13.3-0.2,29.8-0.2
	C165.7,434.2,179.1,434.3,179.1,434.5z"/>
<path class="st9" d="M180.7,445.1h-59.2v10.7h59.2V445.1z"/>
<path class="st12" d="M127.3,455.9c-0.1,0-0.2-2.4-0.2-5.3s0.1-5.3,0.2-5.3s0.2,2.4,0.2,5.3S127.4,455.9,127.3,455.9z"/>
<path class="st12" d="M124,455.9c-0.1,0-0.2-2.4-0.2-5.3s0.1-5.3,0.2-5.3s0.2,2.4,0.2,5.3C124.3,453.5,124.2,455.9,124,455.9z"/>
<path class="st12" d="M134.4,455.9c-0.1,0-0.2-2.4-0.2-5.3s0.1-5.3,0.2-5.3c0.1,0,0.2,2.4,0.2,5.3
	C134.6,453.5,134.5,455.9,134.4,455.9z"/>
<path class="st12" d="M131.1,455.9c-0.1,0-0.2-2.4-0.2-5.3s0.1-5.3,0.2-5.3c0.1,0,0.2,2.4,0.2,5.3
	C131.4,453.5,131.3,455.9,131.1,455.9z"/>
<path class="st12" d="M141.5,455.9c-0.1,0-0.2-2.4-0.2-5.3s0.1-5.3,0.2-5.3c0.1,0,0.2,2.4,0.2,5.3S141.6,455.9,141.5,455.9z"/>
<path class="st12" d="M138.3,455.9c-0.1,0-0.2-2.4-0.2-5.3s0.1-5.3,0.2-5.3s0.2,2.4,0.2,5.3S138.4,455.9,138.3,455.9z"/>
<path class="st12" d="M148.6,455.9c-0.1,0-0.2-2.4-0.2-5.3s0.1-5.3,0.2-5.3c0.1,0,0.2,2.4,0.2,5.3
	C148.9,453.5,148.7,455.9,148.6,455.9z"/>
<path class="st12" d="M145.4,455.9c-0.1,0-0.2-2.4-0.2-5.3s0.1-5.3,0.2-5.3s0.2,2.4,0.2,5.3C145.6,453.5,145.5,455.9,145.4,455.9z"
	/>
<path class="st12" d="M155.7,455.9c-0.1,0-0.2-2.4-0.2-5.3s0.1-5.3,0.2-5.3c0.1,0,0.2,2.4,0.2,5.3
	C156,453.5,155.9,455.9,155.7,455.9z"/>
<path class="st12" d="M152.5,455.9c-0.1,0-0.2-2.4-0.2-5.3s0.1-5.3,0.2-5.3c0.1,0,0.2,2.4,0.2,5.3S152.6,455.9,152.5,455.9z"/>
<path class="st12" d="M162.8,455.9c-0.1,0-0.2-2.4-0.2-5.3s0.1-5.3,0.2-5.3c0.1,0,0.2,2.4,0.2,5.3
	C163.1,453.5,163,455.9,162.8,455.9z"/>
<path class="st12" d="M159.6,455.9c-0.1,0-0.2-2.4-0.2-5.3s0.1-5.3,0.2-5.3c0.1,0,0.2,2.4,0.2,5.3S159.7,455.9,159.6,455.9z"/>
<path class="st12" d="M169.9,455.9c-0.1,0-0.2-2.4-0.2-5.3s0.1-5.3,0.2-5.3s0.2,2.4,0.2,5.3C170.2,453.5,170.1,455.9,169.9,455.9z"
	/>
<path class="st12" d="M166.7,455.9c-0.1,0-0.2-2.4-0.2-5.3s0.1-5.3,0.2-5.3c0.1,0,0.2,2.4,0.2,5.3
	C167,453.5,166.8,455.9,166.7,455.9z"/>
<path class="st12" d="M177.1,455.9c-0.1,0-0.2-2.4-0.2-5.3s0.1-5.3,0.2-5.3s0.2,2.4,0.2,5.3S177.2,455.9,177.1,455.9z"/>
<path class="st12" d="M173.8,455.9c-0.1,0-0.2-2.4-0.2-5.3s0.1-5.3,0.2-5.3c0.1,0,0.2,2.4,0.2,5.3
	C174.1,453.5,174,455.9,173.8,455.9z"/>
<path class="st12" d="M180.7,445.1c0,0.1-13.3,0.2-29.7,0.2s-29.7-0.1-29.7-0.2s13.3-0.2,29.7-0.2S180.7,445,180.7,445.1z"/>
<path class="st9" d="M179.3,455.9h-59.2v10.7h59.2V455.9z"/>
<path class="st12" d="M125.9,466.8c-0.1,0-0.2-2.4-0.2-5.3s0.1-5.3,0.2-5.3s0.2,2.4,0.2,5.3S126,466.8,125.9,466.8z"/>
<path class="st12" d="M122.6,466.8c-0.1,0-0.2-2.4-0.2-5.3s0.1-5.3,0.2-5.3s0.2,2.4,0.2,5.3C122.9,464.4,122.8,466.8,122.6,466.8z"
	/>
<path class="st12" d="M133,466.8c-0.1,0-0.2-2.4-0.2-5.3s0.1-5.3,0.2-5.3s0.2,2.4,0.2,5.3S133.1,466.8,133,466.8z"/>
<path class="st12" d="M129.7,466.8c-0.1,0-0.2-2.4-0.2-5.3s0.1-5.3,0.2-5.3c0.1,0,0.2,2.4,0.2,5.3
	C130,464.4,129.9,466.8,129.7,466.8z"/>
<path class="st12" d="M140.1,466.8c-0.1,0-0.2-2.4-0.2-5.3s0.1-5.3,0.2-5.3c0.1,0,0.2,2.4,0.2,5.3S140.2,466.8,140.1,466.8z"/>
<path class="st12" d="M136.8,466.8c-0.1,0-0.2-2.4-0.2-5.3s0.1-5.3,0.2-5.3s0.2,2.4,0.2,5.3C137.1,464.4,137,466.8,136.8,466.8z"/>
<path class="st12" d="M147.2,466.8c-0.1,0-0.2-2.4-0.2-5.3s0.1-5.3,0.2-5.3c0.1,0,0.2,2.4,0.2,5.3S147.3,466.8,147.2,466.8z"/>
<path class="st12" d="M144,466.8c-0.1,0-0.2-2.4-0.2-5.3s0.1-5.3,0.2-5.3s0.2,2.4,0.2,5.3S144.1,466.8,144,466.8z"/>
<path class="st12" d="M154.3,466.8c-0.1,0-0.2-2.4-0.2-5.3s0.1-5.3,0.2-5.3c0.1,0,0.2,2.4,0.2,5.3
	C154.6,464.4,154.4,466.8,154.3,466.8z"/>
<path class="st12" d="M151.1,466.8c-0.1,0-0.2-2.4-0.2-5.3s0.1-5.3,0.2-5.3c0.1,0,0.2,2.4,0.2,5.3S151.2,466.8,151.1,466.8z"/>
<path class="st12" d="M161.4,466.8c-0.1,0-0.2-2.4-0.2-5.3s0.1-5.3,0.2-5.3c0.1,0,0.2,2.4,0.2,5.3
	C161.7,464.4,161.6,466.8,161.4,466.8z"/>
<path class="st12" d="M158.2,466.8c-0.1,0-0.2-2.4-0.2-5.3s0.1-5.3,0.2-5.3c0.1,0,0.2,2.4,0.2,5.3S158.3,466.8,158.2,466.8z"/>
<path class="st12" d="M168.5,466.8c-0.1,0-0.2-2.4-0.2-5.3s0.1-5.3,0.2-5.3c0.1,0,0.2,2.4,0.2,5.3
	C168.8,464.4,168.7,466.8,168.5,466.8z"/>
<path class="st12" d="M165.3,466.8c-0.1,0-0.2-2.4-0.2-5.3s0.1-5.3,0.2-5.3s0.2,2.4,0.2,5.3S165.4,466.8,165.3,466.8z"/>
<path class="st12" d="M175.6,466.8c-0.1,0-0.2-2.4-0.2-5.3s0.1-5.3,0.2-5.3c0.1,0,0.2,2.4,0.2,5.3
	C175.9,464.4,175.8,466.8,175.6,466.8z"/>
<path class="st12" d="M172.4,466.8c-0.1,0-0.2-2.4-0.2-5.3s0.1-5.3,0.2-5.3c0.1,0,0.2,2.4,0.2,5.3
	C172.7,464.4,172.5,466.8,172.4,466.8z"/>
<path class="st12" d="M179.3,455.9c0,0.1-13.3,0.2-29.7,0.2s-29.7-0.1-29.7-0.2s13.3-0.2,29.7-0.2
	C165.9,455.7,179.3,455.8,179.3,455.9z"/>
<g class="st13">
	<path d="M131.9,445.2c8.8,2.2,18.3,2.6,27.3,2c9.1-0.6,18.3-1.9,27.4-1.8L131.9,445.2z"/>
</g>
<g class="st13">
	<path d="M120.8,456.1c8.8,2.2,18.3,2.6,27.3,2c9.1-0.6,18.3-1.9,27.4-1.8L120.8,456.1z"/>
</g>
<path class="st3" d="M130.5,435.1c0,0.1-0.3,0.2-0.7,0.2s-0.7-0.1-0.7-0.2s0.3-0.2,0.7-0.2S130.5,435,130.5,435.1z"/>
<path class="st3" d="M138.8,435.1c0,0.1-1.5,0.2-3.4,0.2s-3.4-0.1-3.4-0.2s1.5-0.2,3.4-0.2C137.2,434.9,138.8,435,138.8,435.1z"/>
<path class="st3" d="M148.2,435.1c0,0.1-1.5,0.2-3.4,0.2s-3.4-0.1-3.4-0.2s1.5-0.2,3.4-0.2C146.6,434.9,148.2,435,148.2,435.1z"/>
<path class="st9" d="M183.5,423.1h-59.2v10.7h59.2V423.1z"/>
<path class="st12" d="M130.1,433.9c-0.1,0-0.2-2.4-0.2-5.3s0.1-5.3,0.2-5.3c0.1,0,0.2,2.4,0.2,5.3S130.2,433.9,130.1,433.9z"/>
<path class="st12" d="M126.8,433.9c-0.1,0-0.2-2.4-0.2-5.3s0.1-5.3,0.2-5.3s0.2,2.4,0.2,5.3C127.1,431.5,127,433.9,126.8,433.9z"/>
<path class="st12" d="M137.2,433.9c-0.1,0-0.2-2.4-0.2-5.3s0.1-5.3,0.2-5.3c0.1,0,0.2,2.4,0.2,5.3S137.3,433.9,137.2,433.9z"/>
<path class="st12" d="M134,433.9c-0.1,0-0.2-2.4-0.2-5.3s0.1-5.3,0.2-5.3c0.1,0,0.2,2.4,0.2,5.3S134.1,433.9,134,433.9z"/>
<path class="st12" d="M144.3,433.9c-0.1,0-0.2-2.4-0.2-5.3s0.1-5.3,0.2-5.3s0.2,2.4,0.2,5.3C144.6,431.5,144.4,433.9,144.3,433.9z"
	/>
<path class="st12" d="M141.1,433.9c-0.1,0-0.2-2.4-0.2-5.3s0.1-5.3,0.2-5.3c0.1,0,0.2,2.4,0.2,5.3S141.2,433.9,141.1,433.9z"/>
<path class="st12" d="M151.4,433.9c-0.1,0-0.2-2.4-0.2-5.3s0.1-5.3,0.2-5.3s0.2,2.4,0.2,5.3C151.7,431.5,151.6,433.9,151.4,433.9z"
	/>
<path class="st12" d="M148.2,433.9c-0.1,0-0.2-2.4-0.2-5.3s0.1-5.3,0.2-5.3c0.1,0,0.2,2.4,0.2,5.3S148.3,433.9,148.2,433.9z"/>
<path class="st12" d="M158.5,433.9c-0.1,0-0.2-2.4-0.2-5.3s0.1-5.3,0.2-5.3c0.1,0,0.2,2.4,0.2,5.3
	C158.8,431.5,158.7,433.9,158.5,433.9z"/>
<path class="st12" d="M155.3,433.9c-0.1,0-0.2-2.4-0.2-5.3s0.1-5.3,0.2-5.3c0.1,0,0.2,2.4,0.2,5.3S155.4,433.9,155.3,433.9z"/>
<path class="st12" d="M165.6,433.9c-0.1,0-0.2-2.4-0.2-5.3s0.1-5.3,0.2-5.3c0.1,0,0.2,2.4,0.2,5.3
	C165.9,431.5,165.8,433.9,165.6,433.9z"/>
<path class="st12" d="M162.4,433.9c-0.1,0-0.2-2.4-0.2-5.3s0.1-5.3,0.2-5.3c0.1,0,0.2,2.4,0.2,5.3
	C162.7,431.5,162.5,433.9,162.4,433.9z"/>
<path class="st12" d="M172.8,433.9c-0.1,0-0.2-2.4-0.2-5.3s0.1-5.3,0.2-5.3s0.2,2.4,0.2,5.3S172.9,433.9,172.8,433.9z"/>
<path class="st12" d="M169.5,433.9c-0.1,0-0.2-2.4-0.2-5.3s0.1-5.3,0.2-5.3c0.1,0,0.2,2.4,0.2,5.3
	C169.8,431.5,169.7,433.9,169.5,433.9z"/>
<path class="st12" d="M179.9,433.9c-0.1,0-0.2-2.4-0.2-5.3s0.1-5.3,0.2-5.3c0.1,0,0.2,2.4,0.2,5.3
	C180.1,431.5,180,433.9,179.9,433.9z"/>
<path class="st12" d="M176.6,433.9c-0.1,0-0.2-2.4-0.2-5.3s0.1-5.3,0.2-5.3s0.2,2.4,0.2,5.3C176.9,431.5,176.8,433.9,176.6,433.9z"
	/>
<path class="st12" d="M183.5,423.1c0,0.1-13.3,0.2-29.8,0.2s-29.8-0.1-29.8-0.2s13.3-0.2,29.8-0.2
	C170.1,422.8,183.5,422.9,183.5,423.1z"/>
<path class="st9" d="M178.6,412h-59.2v10.7h59.2V412z"/>
<path class="st12" d="M125.2,422.8c-0.1,0-0.2-2.4-0.2-5.3s0.1-5.3,0.2-5.3s0.2,2.4,0.2,5.3C125.5,420.4,125.4,422.8,125.2,422.8z"
	/>
<path class="st12" d="M122,422.8c-0.1,0-0.2-2.4-0.2-5.3s0.1-5.3,0.2-5.3s0.2,2.4,0.2,5.3S122.1,422.8,122,422.8z"/>
<path class="st12" d="M132.3,422.8c-0.1,0-0.2-2.4-0.2-5.3s0.1-5.3,0.2-5.3c0.1,0,0.2,2.4,0.2,5.3
	C132.6,420.4,132.5,422.8,132.3,422.8z"/>
<path class="st12" d="M129.1,422.8c-0.1,0-0.2-2.4-0.2-5.3s0.1-5.3,0.2-5.3s0.2,2.4,0.2,5.3S129.2,422.8,129.1,422.8z"/>
<path class="st12" d="M139.4,422.8c-0.1,0-0.2-2.4-0.2-5.3s0.1-5.3,0.2-5.3c0.1,0,0.2,2.4,0.2,5.3
	C139.7,420.4,139.6,422.8,139.4,422.8z"/>
<path class="st12" d="M136.2,422.8c-0.1,0-0.2-2.4-0.2-5.3s0.1-5.3,0.2-5.3c0.1,0,0.2,2.4,0.2,5.3
	C136.5,420.4,136.3,422.8,136.2,422.8z"/>
<path class="st12" d="M146.6,422.8c-0.1,0-0.2-2.4-0.2-5.3s0.1-5.3,0.2-5.3c0.1,0,0.2,2.4,0.2,5.3S146.7,422.8,146.6,422.8z"/>
<path class="st12" d="M143.3,422.8c-0.1,0-0.2-2.4-0.2-5.3s0.1-5.3,0.2-5.3c0.1,0,0.2,2.4,0.2,5.3
	C143.6,420.4,143.5,422.8,143.3,422.8z"/>
<path class="st12" d="M153.7,422.8c-0.1,0-0.2-2.4-0.2-5.3s0.1-5.3,0.2-5.3s0.2,2.4,0.2,5.3S153.8,422.8,153.7,422.8z"/>
<path class="st12" d="M150.4,422.8c-0.1,0-0.2-2.4-0.2-5.3s0.1-5.3,0.2-5.3c0.1,0,0.2,2.4,0.2,5.3
	C150.7,420.4,150.6,422.8,150.4,422.8z"/>
<path class="st12" d="M160.8,422.8c-0.1,0-0.2-2.4-0.2-5.3s0.1-5.3,0.2-5.3c0.1,0,0.2,2.4,0.2,5.3S160.9,422.8,160.8,422.8z"/>
<path class="st12" d="M157.5,422.8c-0.1,0-0.2-2.4-0.2-5.3s0.1-5.3,0.2-5.3c0.1,0,0.2,2.4,0.2,5.3
	C157.8,420.4,157.7,422.8,157.5,422.8z"/>
<path class="st12" d="M167.9,422.8c-0.1,0-0.2-2.4-0.2-5.3s0.1-5.3,0.2-5.3c0.1,0,0.2,2.4,0.2,5.3
	C168.1,420.4,168,422.8,167.9,422.8z"/>
<path class="st12" d="M164.7,422.8c-0.1,0-0.2-2.4-0.2-5.3s0.1-5.3,0.2-5.3c0.1,0,0.2,2.4,0.2,5.3S164.8,422.8,164.7,422.8z"/>
<path class="st12" d="M175,422.8c-0.1,0-0.2-2.4-0.2-5.3s0.1-5.3,0.2-5.3c0.1,0,0.2,2.4,0.2,5.3C175.3,420.4,175.2,422.8,175,422.8z
	"/>
<path class="st12" d="M171.8,422.8c-0.1,0-0.2-2.4-0.2-5.3s0.1-5.3,0.2-5.3c0.1,0,0.2,2.4,0.2,5.3S171.9,422.8,171.8,422.8z"/>
<path class="st12" d="M178.6,412c0,0.1-13.3,0.2-29.8,0.2S119,412.1,119,412s13.3-0.2,29.8-0.2S178.6,411.9,178.6,412z"/>
<path class="st9" d="M182.3,401.1h-59.2v10.7h59.2V401.1z"/>
<path class="st12" d="M128.9,411.9c-0.1,0-0.2-2.4-0.2-5.3s0.1-5.3,0.2-5.3c0.1,0,0.2,2.4,0.2,5.3
	C129.1,409.5,129,411.9,128.9,411.9z"/>
<path class="st12" d="M125.6,411.9c-0.1,0-0.2-2.4-0.2-5.3s0.1-5.3,0.2-5.3s0.2,2.4,0.2,5.3C125.9,409.5,125.8,411.9,125.6,411.9z"
	/>
<path class="st12" d="M136,411.9c-0.1,0-0.2-2.4-0.2-5.3s0.1-5.3,0.2-5.3c0.1,0,0.2,2.4,0.2,5.3S136.1,411.9,136,411.9z"/>
<path class="st12" d="M132.8,411.9c-0.1,0-0.2-2.4-0.2-5.3s0.1-5.3,0.2-5.3c0.1,0,0.2,2.4,0.2,5.3S132.9,411.9,132.8,411.9z"/>
<path class="st12" d="M143.1,411.9c-0.1,0-0.2-2.4-0.2-5.3s0.1-5.3,0.2-5.3c0.1,0,0.2,2.4,0.2,5.3
	C143.4,409.5,143.3,411.9,143.1,411.9z"/>
<path class="st12" d="M139.9,411.9c-0.1,0-0.2-2.4-0.2-5.3s0.1-5.3,0.2-5.3c0.1,0,0.2,2.4,0.2,5.3
	C140.1,409.5,140,411.9,139.9,411.9z"/>
<path class="st12" d="M150.2,411.9c-0.1,0-0.2-2.4-0.2-5.3s0.1-5.3,0.2-5.3s0.2,2.4,0.2,5.3C150.5,409.5,150.4,411.9,150.2,411.9z"
	/>
<path class="st12" d="M147,411.9c-0.1,0-0.2-2.4-0.2-5.3s0.1-5.3,0.2-5.3c0.1,0,0.2,2.4,0.2,5.3S147.1,411.9,147,411.9z"/>
<path class="st12" d="M157.3,411.9c-0.1,0-0.2-2.4-0.2-5.3s0.1-5.3,0.2-5.3c0.1,0,0.2,2.4,0.2,5.3
	C157.6,409.5,157.5,411.9,157.3,411.9z"/>
<path class="st12" d="M154.1,411.9c-0.1,0-0.2-2.4-0.2-5.3s0.1-5.3,0.2-5.3c0.1,0,0.2,2.4,0.2,5.3
	C154.4,409.5,154.2,411.9,154.1,411.9z"/>
<path class="st12" d="M164.5,411.9c-0.1,0-0.2-2.4-0.2-5.3s0.1-5.3,0.2-5.3s0.2,2.4,0.2,5.3S164.6,411.9,164.5,411.9z"/>
<path class="st12" d="M161.2,411.9c-0.1,0-0.2-2.4-0.2-5.3s0.1-5.3,0.2-5.3c0.1,0,0.2,2.4,0.2,5.3
	C161.5,409.5,161.4,411.9,161.2,411.9z"/>
<path class="st12" d="M171.6,411.9c-0.1,0-0.2-2.4-0.2-5.3s0.1-5.3,0.2-5.3c0.1,0,0.2,2.4,0.2,5.3S171.7,411.9,171.6,411.9z"/>
<path class="st12" d="M168.3,411.9c-0.1,0-0.2-2.4-0.2-5.3s0.1-5.3,0.2-5.3c0.1,0,0.2,2.4,0.2,5.3
	C168.6,409.5,168.5,411.9,168.3,411.9z"/>
<path class="st12" d="M178.7,411.9c-0.1,0-0.2-2.4-0.2-5.3s0.1-5.3,0.2-5.3s0.2,2.4,0.2,5.3S178.8,411.9,178.7,411.9z"/>
<path class="st12" d="M175.4,411.9c-0.1,0-0.2-2.4-0.2-5.3s0.1-5.3,0.2-5.3c0.1,0,0.2,2.4,0.2,5.3
	C175.7,409.5,175.6,411.9,175.4,411.9z"/>
<path class="st12" d="M182.3,401.1c0,0.1-13.3,0.2-29.8,0.2s-29.8-0.1-29.8-0.2s13.3-0.2,29.8-0.2
	C168.9,400.8,182.3,401,182.3,401.1z"/>
<path class="st9" d="M182.5,390.5h-59.2v10.7h59.2V390.5z"/>
<path class="st12" d="M129.1,401.3c-0.1,0-0.2-2.4-0.2-5.3s0.1-5.3,0.2-5.3s0.2,2.4,0.2,5.3C129.4,398.9,129.3,401.3,129.1,401.3z"
	/>
<path class="st12" d="M125.9,401.3c-0.1,0-0.2-2.4-0.2-5.3s0.1-5.3,0.2-5.3s0.2,2.4,0.2,5.3S126,401.3,125.9,401.3z"/>
<path class="st12" d="M136.2,401.3c-0.1,0-0.2-2.4-0.2-5.3s0.1-5.3,0.2-5.3c0.1,0,0.2,2.4,0.2,5.3
	C136.5,398.9,136.4,401.3,136.2,401.3z"/>
<path class="st12" d="M133,401.3c-0.1,0-0.2-2.4-0.2-5.3s0.1-5.3,0.2-5.3c0.1,0,0.2,2.4,0.2,5.3C133.3,398.9,133.1,401.3,133,401.3z
	"/>
<path class="st12" d="M143.4,401.3c-0.1,0-0.2-2.4-0.2-5.3s0.1-5.3,0.2-5.3c0.1,0,0.2,2.4,0.2,5.3
	C143.6,398.9,143.5,401.3,143.4,401.3z"/>
<path class="st12" d="M140.1,401.3c-0.1,0-0.2-2.4-0.2-5.3s0.1-5.3,0.2-5.3c0.1,0,0.2,2.4,0.2,5.3
	C140.4,398.9,140.3,401.3,140.1,401.3z"/>
<path class="st12" d="M150.5,401.3c-0.1,0-0.2-2.4-0.2-5.3s0.1-5.3,0.2-5.3c0.1,0,0.2,2.4,0.2,5.3S150.6,401.3,150.5,401.3z"/>
<path class="st12" d="M147.2,401.3c-0.1,0-0.2-2.4-0.2-5.3s0.1-5.3,0.2-5.3c0.1,0,0.2,2.4,0.2,5.3
	C147.5,398.9,147.4,401.3,147.2,401.3z"/>
<path class="st12" d="M157.6,401.3c-0.1,0-0.2-2.4-0.2-5.3s0.1-5.3,0.2-5.3s0.2,2.4,0.2,5.3S157.7,401.3,157.6,401.3z"/>
<path class="st12" d="M154.4,401.3c-0.1,0-0.2-2.4-0.2-5.3s0.1-5.3,0.2-5.3c0.1,0,0.2,2.4,0.2,5.3
	C154.6,398.9,154.5,401.3,154.4,401.3z"/>
<path class="st12" d="M164.7,401.3c-0.1,0-0.2-2.4-0.2-5.3s0.1-5.3,0.2-5.3c0.1,0,0.2,2.4,0.2,5.3
	C165,398.9,164.8,401.3,164.7,401.3z"/>
<path class="st12" d="M161.5,401.3c-0.1,0-0.2-2.4-0.2-5.3s0.1-5.3,0.2-5.3s0.2,2.4,0.2,5.3S161.6,401.3,161.5,401.3z"/>
<path class="st12" d="M171.8,401.3c-0.1,0-0.2-2.4-0.2-5.3s0.1-5.3,0.2-5.3c0.1,0,0.2,2.4,0.2,5.3
	C172.1,398.9,172,401.3,171.8,401.3z"/>
<path class="st12" d="M168.6,401.3c-0.1,0-0.2-2.4-0.2-5.3s0.1-5.3,0.2-5.3s0.2,2.4,0.2,5.3S168.7,401.3,168.6,401.3z"/>
<path class="st12" d="M178.9,401.3c-0.1,0-0.2-2.4-0.2-5.3s0.1-5.3,0.2-5.3c0.1,0,0.2,2.4,0.2,5.3
	C179.2,398.9,179.1,401.3,178.9,401.3z"/>
<path class="st12" d="M175.7,401.3c-0.1,0-0.2-2.4-0.2-5.3s0.1-5.3,0.2-5.3c0.1,0,0.2,2.4,0.2,5.3S175.8,401.3,175.7,401.3z"/>
<path class="st12" d="M182.5,390.5c0,0.1-13.3,0.2-29.8,0.2s-29.8-0.1-29.8-0.2s13.3-0.2,29.8-0.2
	C169.2,390.2,182.5,390.3,182.5,390.5z"/>
<path class="st9" d="M178.6,380.3h-59.2V391h59.2V380.3z"/>
<path class="st12" d="M125.2,391.2c-0.1,0-0.2-2.4-0.2-5.3s0.1-5.3,0.2-5.3s0.2,2.4,0.2,5.3C125.5,388.8,125.4,391.2,125.2,391.2z"
	/>
<path class="st12" d="M122,391.2c-0.1,0-0.2-2.4-0.2-5.3s0.1-5.3,0.2-5.3s0.2,2.4,0.2,5.3C122.2,388.8,122.1,391.2,122,391.2z"/>
<path class="st12" d="M132.3,391.2c-0.1,0-0.2-2.4-0.2-5.3s0.1-5.3,0.2-5.3c0.1,0,0.2,2.4,0.2,5.3
	C132.6,388.8,132.5,391.2,132.3,391.2z"/>
<path class="st12" d="M129.1,391.2c-0.1,0-0.2-2.4-0.2-5.3s0.1-5.3,0.2-5.3s0.2,2.4,0.2,5.3C129.3,388.8,129.2,391.2,129.1,391.2z"
	/>
<path class="st12" d="M139.4,391.2c-0.1,0-0.2-2.4-0.2-5.3s0.1-5.3,0.2-5.3c0.1,0,0.2,2.4,0.2,5.3
	C139.7,388.8,139.6,391.2,139.4,391.2z"/>
<path class="st12" d="M136.2,391.2c-0.1,0-0.2-2.4-0.2-5.3s0.1-5.3,0.2-5.3c0.1,0,0.2,2.4,0.2,5.3
	C136.5,388.8,136.3,391.2,136.2,391.2z"/>
<path class="st12" d="M146.6,391.2c-0.1,0-0.2-2.4-0.2-5.3s0.1-5.3,0.2-5.3c0.1,0,0.2,2.4,0.2,5.3
	C146.8,388.8,146.7,391.2,146.6,391.2z"/>
<path class="st12" d="M143.3,391.2c-0.1,0-0.2-2.4-0.2-5.3s0.1-5.3,0.2-5.3c0.1,0,0.2,2.4,0.2,5.3
	C143.6,388.8,143.5,391.2,143.3,391.2z"/>
<path class="st12" d="M153.7,391.2c-0.1,0-0.2-2.4-0.2-5.3s0.1-5.3,0.2-5.3s0.2,2.4,0.2,5.3C153.9,388.8,153.8,391.2,153.7,391.2z"
	/>
<path class="st12" d="M150.4,391.2c-0.1,0-0.2-2.4-0.2-5.3s0.1-5.3,0.2-5.3c0.1,0,0.2,2.4,0.2,5.3
	C150.7,388.8,150.6,391.2,150.4,391.2z"/>
<path class="st12" d="M160.8,391.2c-0.1,0-0.2-2.4-0.2-5.3s0.1-5.3,0.2-5.3c0.1,0,0.2,2.4,0.2,5.3
	C161,388.8,160.9,391.2,160.8,391.2z"/>
<path class="st12" d="M157.5,391.2c-0.1,0-0.2-2.4-0.2-5.3s0.1-5.3,0.2-5.3c0.1,0,0.2,2.4,0.2,5.3
	C157.8,388.8,157.7,391.2,157.5,391.2z"/>
<path class="st12" d="M167.9,391.2c-0.1,0-0.2-2.4-0.2-5.3s0.1-5.3,0.2-5.3c0.1,0,0.2,2.4,0.2,5.3
	C168.1,388.8,168,391.2,167.9,391.2z"/>
<path class="st12" d="M164.7,391.2c-0.1,0-0.2-2.4-0.2-5.3s0.1-5.3,0.2-5.3c0.1,0,0.2,2.4,0.2,5.3
	C164.9,388.8,164.8,391.2,164.7,391.2z"/>
<path class="st12" d="M175,391.2c-0.1,0-0.2-2.4-0.2-5.3s0.1-5.3,0.2-5.3c0.1,0,0.2,2.4,0.2,5.3C175.3,388.8,175.2,391.2,175,391.2z
	"/>
<path class="st12" d="M171.8,391.2c-0.1,0-0.2-2.4-0.2-5.3s0.1-5.3,0.2-5.3c0.1,0,0.2,2.4,0.2,5.3
	C172,388.8,171.9,391.2,171.8,391.2z"/>
<path class="st12" d="M178.6,380.3c0,0.1-13.3,0.2-29.8,0.2s-29.8-0.1-29.8-0.2s13.3-0.2,29.8-0.2
	C165.3,380.1,178.6,380.2,178.6,380.3z"/>
</svg>
