<?xml version="1.0" encoding="utf-8"?>
<!-- Generator: Adobe Illustrator 25.2.0, SVG Export Plug-In . SVG Version: 6.00 Build 0)  -->
<svg version="1.1" id="Layer_1" xmlns="http://www.w3.org/2000/svg" xmlns:xlink="http://www.w3.org/1999/xlink" x="0px" y="0px"
	 viewBox="0 0 883 131" style="enable-background:new 0 0 883 131;" xml:space="preserve">
<style type="text/css">
	.st0{fill:#333333;}
	.st1{fill:none;stroke:url(#SVGID_1_);stroke-width:4;stroke-linecap:round;stroke-linejoin:round;}
	.st2{fill:none;stroke:url(#SVGID_2_);stroke-width:4;stroke-linecap:round;stroke-linejoin:round;}
	.st3{fill:none;stroke:url(#SVGID_3_);stroke-width:4;stroke-linecap:round;stroke-linejoin:round;}
</style>
<path class="st0" d="M64,98l4.3,3.4l-1.5,1.4l-4.3-3.4L64,98z M68.3,90.9V92c0,1.3-0.2,2.4-0.5,3.4S67,97.3,66.4,98
	s-1.3,1.3-2.2,1.6c-0.8,0.4-1.8,0.6-2.8,0.6s-1.9-0.2-2.8-0.6c-0.8-0.4-1.6-0.9-2.2-1.6c-0.6-0.7-1.1-1.6-1.4-2.6
	c-0.3-1-0.5-2.2-0.5-3.4v-1.1c0-1.3,0.2-2.4,0.5-3.4s0.8-1.9,1.4-2.6c0.6-0.7,1.3-1.3,2.2-1.6c0.8-0.4,1.8-0.6,2.8-0.6
	s2,0.2,2.8,0.6c0.8,0.4,1.6,0.9,2.2,1.6s1.1,1.6,1.4,2.6C68.1,88.5,68.3,89.6,68.3,90.9z M66,92v-1.1c0-1-0.1-1.9-0.3-2.7
	c-0.2-0.8-0.5-1.4-0.9-2c-0.4-0.5-0.9-0.9-1.5-1.2c-0.6-0.3-1.2-0.4-2-0.4c-0.7,0-1.3,0.1-1.9,0.4c-0.6,0.3-1,0.7-1.5,1.2
	c-0.4,0.5-0.7,1.2-0.9,2s-0.3,1.7-0.3,2.7V92c0,1,0.1,1.9,0.3,2.7c0.2,0.8,0.5,1.4,0.9,2c0.4,0.5,0.9,0.9,1.5,1.2
	c0.6,0.3,1.2,0.4,1.9,0.4s1.4-0.1,2-0.4s1.1-0.7,1.4-1.2c0.4-0.5,0.7-1.2,0.9-2C65.9,93.9,66,93,66,92z M79.2,97.1v-9.8h2.2V100
	h-2.1L79.2,97.1z M79.6,94.4h0.9c0,0.8-0.1,1.6-0.3,2.3c-0.2,0.7-0.5,1.3-0.8,1.9c-0.4,0.5-0.9,0.9-1.5,1.2
	c-0.6,0.3-1.4,0.4-2.3,0.4c-0.6,0-1.2-0.1-1.7-0.3c-0.5-0.2-0.9-0.5-1.3-0.8c-0.4-0.4-0.7-0.9-0.9-1.5c-0.2-0.6-0.3-1.3-0.3-2.2
	v-8.2h2.2v8.2c0,0.6,0.1,1,0.2,1.4s0.3,0.7,0.5,0.9c0.2,0.2,0.5,0.4,0.8,0.4c0.3,0.1,0.6,0.1,0.9,0.1c0.9,0,1.7-0.2,2.2-0.5
	c0.5-0.4,0.9-0.8,1.2-1.4C79.5,95.8,79.6,95.1,79.6,94.4z M92.1,97.8v-6.5c0-0.5-0.1-0.9-0.3-1.3c-0.2-0.4-0.5-0.7-0.9-0.9
	c-0.4-0.2-0.9-0.3-1.5-0.3c-0.5,0-1,0.1-1.4,0.3c-0.4,0.2-0.7,0.4-1,0.7c-0.2,0.3-0.3,0.6-0.3,1h-2.2c0-0.5,0.1-0.9,0.4-1.3
	c0.2-0.4,0.6-0.8,1-1.2c0.4-0.4,1-0.7,1.6-0.9c0.6-0.2,1.3-0.3,2.1-0.3c0.9,0,1.7,0.2,2.4,0.5c0.7,0.3,1.3,0.8,1.7,1.4
	c0.4,0.6,0.6,1.4,0.6,2.4v5.9c0,0.4,0,0.9,0.1,1.3c0.1,0.5,0.2,0.9,0.3,1.2v0.2h-2.3c-0.1-0.2-0.2-0.6-0.3-1
	C92.2,98.6,92.1,98.2,92.1,97.8z M92.5,92.3v1.5h-2.2c-0.6,0-1.2,0.1-1.7,0.2s-0.9,0.2-1.2,0.4c-0.3,0.2-0.6,0.4-0.8,0.7
	c-0.2,0.3-0.3,0.6-0.3,1s0.1,0.8,0.3,1.1c0.2,0.3,0.4,0.6,0.8,0.8c0.4,0.2,0.8,0.3,1.3,0.3c0.7,0,1.2-0.1,1.8-0.4
	c0.5-0.3,0.9-0.6,1.2-1c0.3-0.4,0.5-0.8,0.5-1.2l0.9,1c-0.1,0.3-0.2,0.7-0.4,1.1c-0.2,0.4-0.6,0.8-1,1.1c-0.4,0.4-0.9,0.7-1.4,0.9
	c-0.5,0.2-1.2,0.4-1.9,0.4c-0.9,0-1.6-0.2-2.3-0.5c-0.6-0.3-1.1-0.8-1.5-1.3c-0.4-0.6-0.5-1.2-0.5-1.9c0-0.7,0.1-1.3,0.4-1.8
	s0.6-1,1.1-1.3c0.5-0.4,1.1-0.6,1.8-0.8c0.7-0.2,1.5-0.3,2.4-0.3L92.5,92.3L92.5,92.3z M100.1,82v18h-2.2V82H100.1z M105.9,87.3V100
	h-2.2V87.3H105.9z M103.6,84c0-0.4,0.1-0.6,0.3-0.9c0.2-0.2,0.5-0.4,1-0.4c0.4,0,0.7,0.1,0.9,0.4c0.2,0.2,0.3,0.5,0.3,0.9
	c0,0.3-0.1,0.6-0.3,0.9c-0.2,0.2-0.5,0.4-0.9,0.4s-0.7-0.1-1-0.4C103.7,84.6,103.6,84.3,103.6,84z M112.6,100h-2.2V86
	c0-0.9,0.2-1.7,0.5-2.3c0.3-0.6,0.8-1.1,1.4-1.4s1.4-0.5,2.2-0.5c0.2,0,0.5,0,0.8,0s0.5,0.1,0.8,0.1l-0.1,1.8
	c-0.2,0-0.4-0.1-0.6-0.1s-0.4,0-0.6,0c-0.5,0-0.9,0.1-1.2,0.3c-0.3,0.2-0.6,0.4-0.8,0.8c-0.2,0.4-0.3,0.8-0.3,1.3L112.6,100
	L112.6,100z M115.3,87.3V89h-6.9v-1.7H115.3z M121.3,98.7l3.5-11.4h2.3l-5.1,14.6c-0.1,0.3-0.3,0.6-0.5,1s-0.4,0.7-0.7,1
	c-0.3,0.3-0.7,0.6-1.1,0.8c-0.4,0.2-0.9,0.3-1.5,0.3c-0.2,0-0.4,0-0.7-0.1c-0.3,0-0.5-0.1-0.6-0.1V103c0.1,0,0.2,0,0.3,0
	c0.1,0,0.2,0,0.3,0c0.5,0,0.9-0.1,1.3-0.2c0.3-0.1,0.6-0.3,0.9-0.6c0.2-0.3,0.4-0.7,0.6-1.2L121.3,98.7z M118.7,87.3l3.3,9.8
	l0.6,2.3l-1.6,0.8l-4.7-12.9C116.3,87.3,118.7,87.3,118.7,87.3z M131.5,87.3V100h-2.2V87.3H131.5z M129.1,84c0-0.4,0.1-0.6,0.3-0.9
	c0.2-0.2,0.5-0.4,1-0.4c0.4,0,0.7,0.1,0.9,0.4c0.2,0.2,0.3,0.5,0.3,0.9c0,0.3-0.1,0.6-0.3,0.9c-0.2,0.2-0.5,0.4-0.9,0.4
	s-0.7-0.1-1-0.4C129.2,84.6,129.1,84.3,129.1,84z M137.1,90v10h-2.2V87.3h2.1L137.1,90z M136.6,93.2h-0.9c0-0.9,0.1-1.7,0.4-2.4
	c0.2-0.7,0.6-1.4,1.1-1.9s1-1,1.6-1.3s1.3-0.5,2.1-0.5c0.6,0,1.2,0.1,1.7,0.3c0.5,0.2,0.9,0.4,1.3,0.8c0.4,0.4,0.6,0.8,0.8,1.4
	s0.3,1.3,0.3,2.1v8.3h-2.2v-8.3c0-0.7-0.1-1.2-0.3-1.6s-0.5-0.7-0.9-0.9c-0.4-0.2-0.8-0.3-1.4-0.3c-0.5,0-1,0.1-1.5,0.3
	c-0.4,0.2-0.8,0.5-1.1,0.9s-0.6,0.9-0.7,1.4C136.7,92.1,136.6,92.6,136.6,93.2z M156.4,87.3h2v12.4c0,1.1-0.2,2.1-0.7,2.9
	s-1.1,1.4-1.9,1.8c-0.8,0.4-1.7,0.6-2.8,0.6c-0.4,0-1-0.1-1.5-0.2c-0.6-0.1-1.2-0.4-1.7-0.7c-0.6-0.3-1-0.8-1.4-1.3l1.1-1.3
	c0.5,0.6,1.1,1.1,1.7,1.3c0.6,0.2,1.2,0.4,1.7,0.4c0.7,0,1.3-0.1,1.8-0.4s0.9-0.6,1.2-1.1s0.4-1.1,0.4-1.9v-9.7L156.4,87.3z
	 M147.7,93.8v-0.2c0-1,0.1-1.8,0.3-2.6c0.2-0.8,0.6-1.5,1-2.1s1-1,1.6-1.3s1.3-0.5,2.1-0.5s1.5,0.1,2.1,0.4s1.1,0.7,1.5,1.2
	s0.8,1.2,1,1.9c0.2,0.7,0.4,1.6,0.5,2.5v1.1c-0.1,0.9-0.3,1.8-0.5,2.5s-0.6,1.4-1,1.9s-0.9,0.9-1.5,1.2c-0.6,0.3-1.3,0.4-2.1,0.4
	s-1.4-0.2-2.1-0.5c-0.6-0.3-1.1-0.8-1.6-1.3c-0.4-0.6-0.8-1.3-1-2C147.8,95.6,147.7,94.7,147.7,93.8z M149.9,93.6v0.2
	c0,0.6,0.1,1.2,0.2,1.8c0.1,0.6,0.3,1,0.6,1.5c0.3,0.4,0.6,0.8,1,1s0.9,0.4,1.5,0.4c0.7,0,1.3-0.2,1.8-0.5s0.8-0.7,1.1-1.2
	s0.5-1,0.7-1.6v-2.8c-0.1-0.4-0.2-0.8-0.4-1.2c-0.2-0.4-0.4-0.8-0.7-1.1c-0.3-0.3-0.6-0.6-1-0.8c-0.4-0.2-0.9-0.3-1.4-0.3
	c-0.6,0-1.1,0.1-1.5,0.4c-0.4,0.2-0.8,0.6-1,1c-0.3,0.4-0.5,0.9-0.6,1.5C149.9,92.3,149.9,92.9,149.9,93.6z M175.6,104.9V89.8
	l0.2-2.4h2V105L175.6,104.9L175.6,104.9z M167.1,93.8v-0.2c0-1,0.1-1.8,0.3-2.6c0.2-0.8,0.6-1.5,1-2.1s1-1,1.6-1.3s1.3-0.5,2.1-0.5
	s1.5,0.1,2.1,0.4s1.1,0.7,1.5,1.2s0.8,1.2,1,1.9c0.2,0.7,0.4,1.6,0.5,2.5v1.1c-0.1,0.9-0.3,1.8-0.5,2.5s-0.6,1.4-1,1.9
	s-0.9,0.9-1.6,1.2c-0.6,0.3-1.3,0.4-2.1,0.4s-1.5-0.2-2.1-0.5s-1.1-0.8-1.6-1.3c-0.4-0.6-0.8-1.3-1-2
	C167.2,95.6,167.1,94.7,167.1,93.8z M169.3,93.6v0.2c0,0.6,0.1,1.2,0.2,1.8c0.1,0.6,0.3,1,0.6,1.5c0.3,0.4,0.6,0.8,1.1,1
	c0.4,0.2,0.9,0.4,1.5,0.4c0.7,0,1.3-0.2,1.8-0.5s0.9-0.7,1.2-1.2s0.5-1.1,0.7-1.7v-2.8c-0.1-0.4-0.2-0.8-0.4-1.3
	c-0.2-0.4-0.4-0.8-0.7-1.1c-0.3-0.3-0.6-0.6-1.1-0.8c-0.4-0.2-0.9-0.3-1.4-0.3c-0.6,0-1.1,0.1-1.5,0.4c-0.4,0.2-0.8,0.6-1.1,1
	s-0.5,0.9-0.6,1.5C169.3,92.3,169.3,92.9,169.3,93.6z M189,97.1v-9.8h2.2V100h-2.1L189,97.1z M189.4,94.4h0.9c0,0.8-0.1,1.6-0.3,2.3
	c-0.2,0.7-0.5,1.3-0.8,1.9c-0.4,0.5-0.9,0.9-1.5,1.2c-0.6,0.3-1.4,0.4-2.3,0.4c-0.6,0-1.2-0.1-1.7-0.3c-0.5-0.2-0.9-0.5-1.3-0.8
	s-0.7-0.9-0.9-1.5s-0.3-1.3-0.3-2.2v-8.2h2.2v8.2c0,0.6,0.1,1,0.2,1.4c0.1,0.4,0.3,0.7,0.5,0.9c0.2,0.2,0.5,0.4,0.8,0.4
	c0.3,0.1,0.6,0.1,0.9,0.1c0.9,0,1.7-0.2,2.2-0.5c0.5-0.4,0.9-0.8,1.2-1.4C189.3,95.8,189.4,95.1,189.4,94.4z M202,97.8v-6.5
	c0-0.5-0.1-0.9-0.3-1.3s-0.5-0.7-0.9-0.9c-0.4-0.2-0.9-0.3-1.5-0.3c-0.5,0-1,0.1-1.4,0.3c-0.4,0.2-0.7,0.4-1,0.7
	c-0.2,0.3-0.3,0.6-0.3,1h-2.2c0-0.5,0.1-0.9,0.4-1.3c0.2-0.4,0.6-0.8,1-1.2c0.4-0.4,1-0.7,1.6-0.9c0.6-0.2,1.3-0.3,2.1-0.3
	c0.9,0,1.7,0.2,2.4,0.5s1.3,0.8,1.7,1.4s0.6,1.4,0.6,2.4v5.9c0,0.4,0,0.9,0.1,1.3c0.1,0.5,0.2,0.9,0.3,1.2v0.2h-2.3
	c-0.1-0.2-0.2-0.6-0.3-1C202,98.6,202,98.2,202,97.8z M202.4,92.3v1.5h-2.2c-0.6,0-1.2,0.1-1.7,0.2s-0.9,0.2-1.2,0.4
	c-0.3,0.2-0.6,0.4-0.8,0.7c-0.2,0.3-0.3,0.6-0.3,1s0.1,0.8,0.3,1.1c0.2,0.3,0.4,0.6,0.8,0.8c0.4,0.2,0.8,0.3,1.3,0.3
	c0.7,0,1.2-0.1,1.8-0.4c0.5-0.3,0.9-0.6,1.2-1s0.5-0.8,0.5-1.2l0.9,1c-0.1,0.3-0.2,0.7-0.4,1.1s-0.6,0.8-1,1.1
	c-0.4,0.4-0.9,0.7-1.4,0.9c-0.5,0.2-1.2,0.4-1.9,0.4c-0.9,0-1.6-0.2-2.3-0.5c-0.6-0.3-1.1-0.8-1.5-1.3c-0.4-0.6-0.5-1.2-0.5-1.9
	c0-0.7,0.1-1.3,0.4-1.8c0.3-0.5,0.6-1,1.1-1.3c0.5-0.4,1.1-0.6,1.8-0.8s1.5-0.3,2.4-0.3L202.4,92.3L202.4,92.3z M209.7,89.3V100
	h-2.2V87.3h2.1L209.7,89.3z M213.7,87.2v2c-0.2,0-0.4-0.1-0.5-0.1c-0.2,0-0.3,0-0.5,0c-0.5,0-0.9,0.1-1.3,0.2
	c-0.4,0.2-0.7,0.4-1,0.7c-0.3,0.3-0.5,0.6-0.6,1s-0.2,0.8-0.3,1.3l-0.6,0.4c0-0.8,0.1-1.5,0.2-2.2c0.2-0.7,0.4-1.3,0.7-1.8
	s0.7-0.9,1.2-1.2c0.5-0.3,1.1-0.4,1.8-0.4c0.2,0,0.3,0,0.5,0.1C213.5,87.2,213.6,87.2,213.7,87.2z M221.6,87.3V89h-6.9v-1.7H221.6z
	 M217.1,84.2h2.2v12.6c0,0.4,0.1,0.8,0.2,1c0.1,0.2,0.3,0.4,0.5,0.4c0.2,0.1,0.4,0.1,0.7,0.1c0.2,0,0.4,0,0.6,0
	c0.2,0,0.4-0.1,0.5-0.1v1.8c-0.2,0.1-0.4,0.1-0.7,0.2s-0.6,0.1-1,0.1c-0.5,0-1-0.1-1.5-0.3c-0.4-0.2-0.8-0.6-1.1-1.1s-0.4-1.2-0.4-2
	V84.2z M229.4,100.2c-0.9,0-1.7-0.1-2.4-0.4s-1.3-0.7-1.8-1.3c-0.5-0.5-0.9-1.2-1.2-1.9c-0.3-0.8-0.4-1.6-0.4-2.5v-0.5
	c0-1,0.2-1.9,0.5-2.8c0.3-0.8,0.7-1.5,1.2-2.1s1.1-1,1.8-1.3s1.4-0.4,2.1-0.4c0.9,0,1.7,0.2,2.3,0.5c0.7,0.3,1.2,0.8,1.6,1.3
	c0.4,0.6,0.7,1.2,0.9,2s0.3,1.6,0.3,2.5v1h-9.5v-1.8h7.3v-0.2c0-0.6-0.1-1.1-0.4-1.6c-0.2-0.5-0.5-1-0.9-1.3s-1-0.5-1.8-0.5
	c-0.5,0-0.9,0.1-1.4,0.3c-0.4,0.2-0.8,0.5-1.1,0.9s-0.5,0.9-0.7,1.5s-0.2,1.3-0.2,2v0.5c0,0.6,0.1,1.2,0.2,1.7
	c0.2,0.5,0.4,1,0.7,1.4s0.7,0.7,1.2,0.9c0.5,0.2,1,0.3,1.6,0.3c0.8,0,1.4-0.2,1.9-0.5s1-0.7,1.4-1.3l1.3,1c-0.3,0.4-0.6,0.8-1,1.2
	s-0.9,0.7-1.6,0.9C231,100.1,230.2,100.2,229.4,100.2z M239,89.3V100h-2.2V87.3h2.1L239,89.3z M243,87.2v2c-0.2,0-0.4-0.1-0.5-0.1
	c-0.2,0-0.3,0-0.5,0c-0.5,0-0.9,0.1-1.3,0.2c-0.4,0.2-0.7,0.4-1,0.7c-0.3,0.3-0.5,0.6-0.6,1s-0.2,0.8-0.3,1.3l-0.6,0.4
	c0-0.8,0.1-1.5,0.2-2.2c0.2-0.7,0.4-1.3,0.7-1.8s0.7-0.9,1.2-1.2c0.5-0.3,1.1-0.4,1.8-0.4c0.2,0,0.3,0,0.5,0.1
	C242.8,87.2,242.9,87.2,243,87.2z M252.4,96.6c0-0.3-0.1-0.6-0.2-0.9c-0.1-0.3-0.4-0.5-0.8-0.7c-0.4-0.2-1-0.4-1.9-0.6
	c-0.7-0.1-1.3-0.3-1.9-0.5c-0.6-0.2-1-0.4-1.4-0.7c-0.4-0.3-0.7-0.6-0.9-1s-0.3-0.8-0.3-1.4c0-0.5,0.1-1,0.3-1.4s0.5-0.8,0.9-1.2
	c0.4-0.3,0.9-0.6,1.5-0.8c0.6-0.2,1.2-0.3,1.9-0.3c1,0,1.9,0.2,2.6,0.5c0.7,0.4,1.3,0.8,1.7,1.4s0.6,1.3,0.6,2h-2.2
	c0-0.4-0.1-0.7-0.3-1s-0.5-0.6-0.9-0.8c-0.4-0.2-0.9-0.3-1.4-0.3c-0.6,0-1.1,0.1-1.5,0.3c-0.4,0.2-0.6,0.4-0.8,0.7
	c-0.2,0.3-0.2,0.6-0.2,0.9c0,0.2,0,0.4,0.1,0.6s0.2,0.3,0.4,0.5c0.2,0.1,0.5,0.3,0.9,0.4s0.9,0.3,1.5,0.4c1,0.2,1.9,0.5,2.6,0.8
	c0.7,0.3,1.2,0.7,1.5,1.2s0.5,1.1,0.5,1.7s-0.1,1.1-0.4,1.5c-0.2,0.5-0.6,0.9-1,1.2c-0.4,0.3-0.9,0.6-1.5,0.8
	c-0.6,0.2-1.3,0.3-2,0.3c-1.1,0-2.1-0.2-2.8-0.6c-0.8-0.4-1.4-0.9-1.8-1.5c-0.4-0.6-0.6-1.3-0.6-2h2.2c0,0.6,0.2,1.1,0.5,1.4
	s0.7,0.6,1.1,0.7c0.5,0.1,0.9,0.2,1.3,0.2c0.6,0,1.1-0.1,1.5-0.2c0.4-0.2,0.7-0.4,0.9-0.6C252.3,97.3,252.4,97,252.4,96.6z"/>
<linearGradient id="SVGID_1_" gradientUnits="userSpaceOnUse" x1="155.05" y1="950" x2="155.05" y2="1010" gradientTransform="matrix(1 0 0 1 0 -948)">
	<stop  offset="0" style="stop-color:#6F983F"/>
	<stop  offset="1" style="stop-color:#000000"/>
</linearGradient>
<path class="st1" d="M141.7,15.3V2 M168.3,15.3V2 M138.3,28.7h33.3 M131.7,62h46.7c3.7,0,6.7-3,6.7-6.7v-40c0-3.7-3-6.7-6.7-6.7
	h-46.7c-3.7,0-6.7,3-6.7,6.7v40C125,59,128,62,131.7,62z"/>
<path class="st0" d="M711.3,90.3v1.8h-9.2v-1.8H711.3z M702.4,82.9V100h-2.3V82.9H702.4z M713.3,82.9V100H711V82.9H713.3z
	 M716.4,93.8v-0.3c0-0.9,0.1-1.8,0.4-2.5c0.3-0.8,0.6-1.5,1.1-2.1s1.1-1,1.8-1.4c0.7-0.3,1.5-0.5,2.4-0.5s1.7,0.2,2.4,0.5
	s1.3,0.8,1.8,1.4s0.9,1.3,1.2,2.1c0.3,0.8,0.4,1.6,0.4,2.5v0.3c0,0.9-0.1,1.8-0.4,2.5c-0.3,0.8-0.7,1.5-1.2,2.1s-1.1,1-1.8,1.4
	c-0.7,0.3-1.5,0.5-2.4,0.5s-1.7-0.2-2.4-0.5s-1.3-0.8-1.8-1.4s-0.9-1.3-1.1-2.1C716.5,95.6,716.4,94.7,716.4,93.8z M718.6,93.5v0.3
	c0,0.6,0.1,1.2,0.2,1.8c0.1,0.6,0.4,1,0.7,1.5c0.3,0.4,0.7,0.8,1.1,1c0.5,0.2,1,0.4,1.6,0.4s1.1-0.1,1.6-0.4c0.5-0.2,0.8-0.6,1.1-1
	s0.5-0.9,0.7-1.5s0.2-1.2,0.2-1.8v-0.3c0-0.6-0.1-1.2-0.2-1.8c-0.1-0.6-0.4-1.1-0.7-1.5s-0.7-0.8-1.1-1c-0.4-0.2-1-0.4-1.6-0.4
	s-1.1,0.1-1.6,0.4c-0.4,0.2-0.8,0.6-1.1,1s-0.5,0.9-0.7,1.5C718.6,92.3,718.6,92.9,718.6,93.5z M738.4,97.1v-9.8h2.2V100h-2.1
	L738.4,97.1z M738.8,94.4h0.9c0,0.8-0.1,1.6-0.3,2.3c-0.2,0.7-0.5,1.3-0.8,1.9c-0.4,0.5-0.9,0.9-1.5,1.2c-0.6,0.3-1.4,0.4-2.3,0.4
	c-0.6,0-1.2-0.1-1.7-0.3c-0.5-0.2-0.9-0.5-1.3-0.8c-0.4-0.4-0.7-0.9-0.9-1.5s-0.3-1.3-0.3-2.2v-8.2h2.2v8.2c0,0.6,0.1,1,0.2,1.4
	c0.1,0.4,0.3,0.7,0.5,0.9c0.2,0.2,0.5,0.4,0.8,0.4c0.3,0.1,0.6,0.1,0.9,0.1c0.9,0,1.7-0.2,2.2-0.5c0.5-0.4,0.9-0.8,1.2-1.4
	C738.7,95.8,738.8,95.1,738.8,94.4z M746.1,89.3V100h-2.2V87.3h2.1L746.1,89.3z M750,87.2v2c-0.2,0-0.4-0.1-0.5-0.1
	c-0.2,0-0.3,0-0.5,0c-0.5,0-0.9,0.1-1.3,0.2c-0.4,0.2-0.7,0.4-1,0.7s-0.5,0.6-0.6,1s-0.2,0.8-0.3,1.3l-0.6,0.4
	c0-0.8,0.1-1.5,0.2-2.2c0.2-0.7,0.4-1.3,0.7-1.8s0.7-0.9,1.2-1.2c0.5-0.3,1.1-0.4,1.8-0.4c0.2,0,0.3,0,0.5,0.1
	C749.8,87.2,750,87.2,750,87.2z M759.4,96.6c0-0.3-0.1-0.6-0.2-0.9c-0.1-0.3-0.4-0.5-0.8-0.7c-0.4-0.2-1-0.4-1.9-0.6
	c-0.7-0.1-1.3-0.3-1.9-0.5c-0.6-0.2-1-0.4-1.4-0.7c-0.4-0.3-0.7-0.6-0.9-1s-0.3-0.8-0.3-1.4c0-0.5,0.1-1,0.3-1.4s0.5-0.8,0.9-1.2
	c0.4-0.3,0.9-0.6,1.5-0.8c0.6-0.2,1.2-0.3,1.9-0.3c1,0,1.9,0.2,2.6,0.5c0.7,0.4,1.3,0.8,1.7,1.4s0.6,1.3,0.6,2h-2.2
	c0-0.4-0.1-0.7-0.3-1s-0.5-0.6-0.9-0.8c-0.4-0.2-0.9-0.3-1.4-0.3c-0.6,0-1.1,0.1-1.5,0.3c-0.4,0.2-0.6,0.4-0.8,0.7
	c-0.2,0.3-0.2,0.6-0.2,0.9c0,0.2,0,0.4,0.1,0.6s0.2,0.3,0.4,0.5c0.2,0.1,0.5,0.3,0.9,0.4s0.9,0.3,1.5,0.4c1,0.2,1.9,0.5,2.6,0.8
	c0.7,0.3,1.2,0.7,1.5,1.2s0.5,1.1,0.5,1.7s-0.1,1.1-0.4,1.5c-0.2,0.5-0.6,0.9-1,1.2c-0.4,0.3-0.9,0.6-1.5,0.8
	c-0.6,0.2-1.3,0.3-2,0.3c-1.1,0-2.1-0.2-2.8-0.6c-0.8-0.4-1.4-0.9-1.8-1.5c-0.4-0.6-0.6-1.3-0.6-2h2.2c0,0.6,0.2,1.1,0.5,1.4
	s0.7,0.6,1.1,0.7c0.5,0.1,0.9,0.2,1.3,0.2c0.6,0,1.1-0.1,1.5-0.2c0.4-0.2,0.7-0.4,0.9-0.6C759.3,97.3,759.4,97,759.4,96.6z
	 M773.6,97.8l3.3-10.4h1.4l-0.3,2.1l-3.3,10.6h-1.4L773.6,97.8z M771.4,87.3l2.8,10.5l0.2,2.1h-1.5l-3.7-12.7L771.4,87.3L771.4,87.3
	z M781.4,97.8l2.6-10.5h2.2l-3.7,12.7H781L781.4,97.8z M778.6,87.3l3.2,10.3l0.4,2.4h-1.4l-3.4-10.6l-0.3-2.1
	C777.1,87.3,778.6,87.3,778.6,87.3z M787.9,93.8v-0.3c0-0.9,0.1-1.8,0.4-2.5c0.3-0.8,0.6-1.5,1.1-2.1s1.1-1,1.8-1.4
	c0.7-0.3,1.5-0.5,2.4-0.5s1.7,0.2,2.4,0.5s1.3,0.8,1.8,1.4s0.9,1.3,1.2,2.1c0.3,0.8,0.4,1.6,0.4,2.5v0.3c0,0.9-0.1,1.8-0.4,2.5
	c-0.3,0.8-0.7,1.5-1.2,2.1s-1.1,1-1.8,1.4c-0.7,0.3-1.5,0.5-2.4,0.5s-1.7-0.2-2.4-0.5s-1.3-0.8-1.8-1.4s-0.9-1.3-1.1-2.1
	C788,95.6,787.9,94.7,787.9,93.8z M790,93.5v0.3c0,0.6,0.1,1.2,0.2,1.8c0.1,0.6,0.4,1,0.7,1.5c0.3,0.4,0.7,0.8,1.1,1
	c0.5,0.2,1,0.4,1.6,0.4s1.1-0.1,1.6-0.4c0.5-0.2,0.8-0.6,1.1-1s0.5-0.9,0.7-1.5s0.2-1.2,0.2-1.8v-0.3c0-0.6-0.1-1.2-0.2-1.8
	c-0.1-0.6-0.4-1.1-0.7-1.5s-0.7-0.8-1.1-1c-0.4-0.2-1-0.4-1.6-0.4s-1.1,0.1-1.6,0.4c-0.4,0.2-0.8,0.6-1.1,1s-0.5,0.9-0.7,1.5
	C790.1,92.3,790,92.9,790,93.5z M804.3,89.3V100h-2.2V87.3h2.1L804.3,89.3z M808.3,87.2v2c-0.2,0-0.4-0.1-0.5-0.1
	c-0.2,0-0.3,0-0.5,0c-0.5,0-0.9,0.1-1.3,0.2c-0.4,0.2-0.7,0.4-1,0.7c-0.3,0.3-0.5,0.6-0.6,1s-0.2,0.8-0.3,1.3l-0.6,0.4
	c0-0.8,0.1-1.5,0.2-2.2c0.2-0.7,0.4-1.3,0.7-1.8s0.7-0.9,1.2-1.2c0.5-0.3,1.1-0.4,1.8-0.4c0.2,0,0.3,0,0.5,0.1
	C808,87.2,808.2,87.2,808.3,87.2z M812.4,82v18h-2.2V82H812.4z M820.2,87.3l-5.5,5.9l-3.1,3.2l-0.2-2.3l2.2-2.6l3.9-4.2H820.2z
	 M818.2,100l-4.5-6l1.1-1.9l6,8L818.2,100L818.2,100z M827.4,100.2c-0.9,0-1.7-0.1-2.4-0.4s-1.3-0.7-1.8-1.3
	c-0.5-0.5-0.9-1.2-1.2-1.9c-0.3-0.8-0.4-1.6-0.4-2.5v-0.5c0-1,0.2-1.9,0.5-2.8c0.3-0.8,0.7-1.5,1.2-2.1s1.1-1,1.8-1.3
	s1.4-0.4,2.1-0.4c0.9,0,1.7,0.2,2.3,0.5c0.7,0.3,1.2,0.8,1.6,1.3c0.4,0.6,0.7,1.2,0.9,2s0.3,1.6,0.3,2.5v1h-9.5v-1.8h7.3v-0.2
	c0-0.6-0.1-1.1-0.4-1.6c-0.2-0.5-0.5-1-0.9-1.3s-1-0.5-1.8-0.5c-0.5,0-0.9,0.1-1.4,0.3c-0.4,0.2-0.8,0.5-1.1,0.9s-0.5,0.9-0.7,1.5
	s-0.2,1.3-0.2,2v0.5c0,0.6,0.1,1.2,0.2,1.7c0.2,0.5,0.4,1,0.7,1.4s0.7,0.7,1.2,0.9c0.5,0.2,1,0.3,1.6,0.3c0.8,0,1.4-0.2,1.9-0.5
	s1-0.7,1.4-1.3l1.3,1c-0.3,0.4-0.6,0.8-1,1.2s-0.9,0.7-1.6,0.9C829,100.1,828.3,100.2,827.4,100.2z M842.9,97.5V82h2.2v18h-2
	L842.9,97.5z M834.4,93.8v-0.2c0-1,0.1-1.8,0.4-2.6c0.2-0.8,0.6-1.5,1-2.1s1-1,1.6-1.3s1.3-0.5,2.1-0.5s1.5,0.1,2.1,0.4
	s1.1,0.7,1.5,1.2s0.8,1.2,1,1.9c0.2,0.7,0.4,1.6,0.5,2.5v1.1c-0.1,0.9-0.3,1.8-0.5,2.5s-0.6,1.4-1,1.9s-0.9,0.9-1.5,1.2
	c-0.6,0.3-1.3,0.4-2.1,0.4c-0.7,0-1.4-0.2-2-0.5s-1.1-0.8-1.6-1.3c-0.4-0.6-0.8-1.3-1-2C834.5,95.6,834.4,94.7,834.4,93.8z
	 M836.6,93.6v0.2c0,0.6,0.1,1.2,0.2,1.8c0.1,0.6,0.3,1,0.6,1.5c0.3,0.4,0.6,0.8,1,1s0.9,0.4,1.5,0.4c0.7,0,1.3-0.2,1.8-0.5
	s0.8-0.7,1.1-1.2s0.5-1,0.7-1.6v-2.8c-0.1-0.4-0.2-0.8-0.4-1.2c-0.2-0.4-0.4-0.8-0.7-1.1c-0.3-0.3-0.6-0.6-1-0.8
	c-0.4-0.2-0.9-0.3-1.4-0.3c-0.6,0-1.1,0.1-1.5,0.4c-0.4,0.2-0.8,0.6-1,1c-0.3,0.4-0.5,0.9-0.6,1.5C836.6,92.3,836.6,92.9,836.6,93.6
	z"/>
<linearGradient id="SVGID_2_" gradientUnits="userSpaceOnUse" x1="773" y1="950" x2="773" y2="1010" gradientTransform="matrix(1 0 0 1 0 -948)">
	<stop  offset="0" style="stop-color:#6F983F"/>
	<stop  offset="1" style="stop-color:#2E2E2E"/>
</linearGradient>
<path class="st2" d="M773,18.7V32l10,10 M803,32c0,16.6-13.4,30-30,30s-30-13.4-30-30s13.4-30,30-30S803,15.4,803,32z"/>
<path class="st0" d="M371.4,82.9V100h-2.3l-8.6-13.2V100h-2.3V82.9h2.3l8.6,13.2V82.9H371.4z M382.9,97.1v-9.8h2.2V100H383
	L382.9,97.1z M383.3,94.4h0.9c0,0.8-0.1,1.6-0.3,2.3c-0.2,0.7-0.5,1.3-0.8,1.9c-0.4,0.5-0.9,0.9-1.5,1.2c-0.6,0.3-1.4,0.4-2.3,0.4
	c-0.6,0-1.2-0.1-1.7-0.3c-0.5-0.2-0.9-0.5-1.3-0.8s-0.7-0.9-0.9-1.5c-0.2-0.6-0.3-1.3-0.3-2.2v-8.2h2.2v8.2c0,0.6,0.1,1,0.2,1.4
	s0.3,0.7,0.5,0.9c0.2,0.2,0.5,0.4,0.8,0.4c0.3,0.1,0.6,0.1,0.9,0.1c0.9,0,1.7-0.2,2.2-0.5c0.5-0.4,0.9-0.8,1.2-1.4
	C383.2,95.8,383.3,95.1,383.3,94.4z M390.5,89.8V100h-2.2V87.3h2.1L390.5,89.8z M390.1,93.2h-1c0-0.9,0.1-1.7,0.3-2.4
	c0.2-0.7,0.5-1.4,1-1.9s1-1,1.6-1.3s1.4-0.5,2.2-0.5c0.6,0,1.1,0.1,1.6,0.3c0.5,0.2,0.9,0.4,1.3,0.8s0.7,0.8,0.9,1.4s0.3,1.2,0.3,2
	v8.4h-2.2v-8.3c0-0.7-0.1-1.2-0.3-1.6c-0.2-0.4-0.5-0.7-0.9-0.9c-0.4-0.2-0.9-0.3-1.4-0.3c-0.6,0-1.2,0.1-1.6,0.3s-0.8,0.5-1,0.9
	s-0.4,0.9-0.6,1.4C390.1,92.1,390.1,92.6,390.1,93.2z M398.3,92l-1.5,0.4c0-0.7,0.1-1.4,0.3-2c0.2-0.6,0.6-1.2,1-1.7s1-0.9,1.6-1.2
	c0.6-0.3,1.3-0.4,2.1-0.4c0.7,0,1.3,0.1,1.8,0.3c0.5,0.2,1,0.5,1.3,0.8c0.4,0.4,0.6,0.8,0.8,1.4c0.2,0.6,0.3,1.3,0.3,2.1v8.3h-2.2
	v-8.4c0-0.7-0.1-1.3-0.3-1.7c-0.2-0.4-0.5-0.7-0.9-0.8c-0.4-0.2-0.9-0.2-1.4-0.2s-0.9,0.1-1.3,0.2c-0.4,0.2-0.7,0.4-0.9,0.7
	c-0.2,0.3-0.4,0.6-0.6,1C398.3,91.2,398.3,91.6,398.3,92z M409.4,82h2.2v15.5l-0.2,2.5h-2V82z M420.1,93.6v0.2
	c0,0.9-0.1,1.8-0.3,2.6c-0.2,0.8-0.5,1.5-1,2c-0.4,0.6-0.9,1-1.5,1.3s-1.3,0.5-2.1,0.5c-0.8,0-1.5-0.1-2.1-0.4s-1.1-0.7-1.5-1.2
	s-0.7-1.2-1-1.9c-0.2-0.7-0.4-1.6-0.5-2.5v-1.1c0.1-0.9,0.3-1.8,0.5-2.5s0.6-1.4,1-1.9s0.9-0.9,1.5-1.2c0.6-0.3,1.3-0.4,2.1-0.4
	c0.8,0,1.5,0.2,2.1,0.5s1.1,0.7,1.5,1.3c0.4,0.6,0.7,1.3,1,2.1C420,91.7,420.1,92.6,420.1,93.6z M418,93.8v-0.2
	c0-0.6-0.1-1.2-0.2-1.8c-0.1-0.6-0.3-1.1-0.6-1.5c-0.3-0.4-0.6-0.8-1-1s-0.9-0.4-1.6-0.4c-0.5,0-1,0.1-1.4,0.3
	c-0.4,0.2-0.7,0.4-1,0.8c-0.3,0.3-0.5,0.7-0.7,1.1s-0.3,0.8-0.4,1.2v2.8c0.1,0.5,0.3,1.1,0.6,1.6c0.3,0.5,0.7,0.9,1.1,1.2
	c0.5,0.3,1.1,0.5,1.8,0.5c0.6,0,1.1-0.1,1.5-0.4c0.4-0.2,0.8-0.6,1-1c0.3-0.4,0.5-0.9,0.6-1.5S418,94.4,418,93.8z M428.1,100.2
	c-0.9,0-1.7-0.1-2.4-0.4c-0.7-0.3-1.3-0.7-1.8-1.3c-0.5-0.5-0.9-1.2-1.2-1.9c-0.3-0.8-0.4-1.6-0.4-2.5v-0.5c0-1,0.2-1.9,0.5-2.8
	c0.3-0.8,0.7-1.5,1.2-2.1s1.1-1,1.8-1.3c0.7-0.3,1.4-0.4,2.1-0.4c0.9,0,1.7,0.2,2.3,0.5c0.7,0.3,1.2,0.8,1.6,1.3
	c0.4,0.6,0.7,1.2,0.9,2c0.2,0.8,0.3,1.6,0.3,2.5v1h-9.5v-1.8h7.3v-0.2c0-0.6-0.1-1.1-0.4-1.6c-0.2-0.5-0.5-1-0.9-1.3s-1-0.5-1.8-0.5
	c-0.5,0-0.9,0.1-1.4,0.3c-0.4,0.2-0.8,0.5-1.1,0.9c-0.3,0.4-0.5,0.9-0.7,1.5s-0.2,1.3-0.2,2v0.5c0,0.6,0.1,1.2,0.2,1.7
	c0.2,0.5,0.4,1,0.7,1.4c0.3,0.4,0.7,0.7,1.2,0.9c0.5,0.2,1,0.3,1.6,0.3c0.8,0,1.4-0.2,1.9-0.5s1-0.7,1.4-1.3l1.3,1
	c-0.3,0.4-0.6,0.8-1,1.2s-0.9,0.7-1.6,0.9C429.7,100.1,429,100.2,428.1,100.2z M437.8,89.3V100h-2.2V87.3h2.1L437.8,89.3z
	 M441.7,87.2v2c-0.2,0-0.4-0.1-0.5-0.1c-0.2,0-0.3,0-0.5,0c-0.5,0-0.9,0.1-1.3,0.2c-0.4,0.2-0.7,0.4-1,0.7s-0.5,0.6-0.6,1
	s-0.2,0.8-0.3,1.3l-0.6,0.4c0-0.8,0.1-1.5,0.2-2.2c0.2-0.7,0.4-1.3,0.7-1.8c0.3-0.5,0.7-0.9,1.2-1.2c0.5-0.3,1.1-0.4,1.8-0.4
	c0.2,0,0.3,0,0.5,0.1C441.5,87.2,441.7,87.2,441.7,87.2z M449.1,93.8v-0.3c0-0.9,0.1-1.8,0.4-2.5c0.3-0.8,0.6-1.5,1.1-2.1
	s1.1-1,1.8-1.4c0.7-0.3,1.5-0.5,2.4-0.5s1.7,0.2,2.4,0.5c0.7,0.3,1.3,0.8,1.8,1.4s0.9,1.3,1.2,2.1c0.3,0.8,0.4,1.6,0.4,2.5v0.3
	c0,0.9-0.1,1.8-0.4,2.5c-0.3,0.8-0.7,1.5-1.2,2.1s-1.1,1-1.8,1.4c-0.7,0.3-1.5,0.5-2.4,0.5s-1.7-0.2-2.4-0.5
	c-0.7-0.3-1.3-0.8-1.8-1.4s-0.9-1.3-1.1-2.1C449.3,95.6,449.1,94.7,449.1,93.8z M451.3,93.5v0.3c0,0.6,0.1,1.2,0.2,1.8
	c0.1,0.6,0.4,1,0.7,1.5c0.3,0.4,0.7,0.8,1.1,1c0.5,0.2,1,0.4,1.6,0.4s1.1-0.1,1.6-0.4c0.5-0.2,0.8-0.6,1.1-1
	c0.3-0.4,0.5-0.9,0.7-1.5s0.2-1.2,0.2-1.8v-0.3c0-0.6-0.1-1.2-0.2-1.8c-0.1-0.6-0.4-1.1-0.7-1.5c-0.3-0.4-0.7-0.8-1.1-1
	s-1-0.4-1.6-0.4s-1.1,0.1-1.6,0.4c-0.4,0.2-0.8,0.6-1.1,1c-0.3,0.4-0.5,0.9-0.7,1.5C451.4,92.3,451.3,92.9,451.3,93.5z M466.6,100
	h-2.2V86c0-0.9,0.2-1.7,0.5-2.3c0.3-0.6,0.8-1.1,1.4-1.4s1.4-0.5,2.2-0.5c0.2,0,0.5,0,0.8,0s0.5,0.1,0.8,0.1l-0.1,1.8
	c-0.2,0-0.4-0.1-0.6-0.1s-0.4,0-0.6,0c-0.5,0-0.9,0.1-1.2,0.3c-0.3,0.2-0.6,0.4-0.8,0.8s-0.3,0.8-0.3,1.3v14H466.6z M469.3,87.3V89
	h-6.9v-1.7H469.3z M482.9,100.2c-0.9,0-1.7-0.1-2.4-0.4c-0.7-0.3-1.3-0.7-1.8-1.3c-0.5-0.5-0.9-1.2-1.2-1.9
	c-0.3-0.8-0.4-1.6-0.4-2.5v-0.5c0-1,0.2-1.9,0.5-2.8c0.3-0.8,0.7-1.5,1.2-2.1s1.1-1,1.8-1.3c0.7-0.3,1.4-0.4,2.1-0.4
	c0.9,0,1.7,0.2,2.3,0.5c0.7,0.3,1.2,0.8,1.6,1.3c0.4,0.6,0.7,1.2,0.9,2c0.2,0.8,0.3,1.6,0.3,2.5v1h-9.5v-1.8h7.3v-0.2
	c0-0.6-0.1-1.1-0.4-1.6c-0.2-0.5-0.5-1-0.9-1.3s-1-0.5-1.8-0.5c-0.5,0-0.9,0.1-1.4,0.3c-0.4,0.2-0.8,0.5-1.1,0.9
	c-0.3,0.4-0.5,0.9-0.7,1.5s-0.2,1.3-0.2,2v0.5c0,0.6,0.1,1.2,0.2,1.7c0.2,0.5,0.4,1,0.7,1.4c0.3,0.4,0.7,0.7,1.2,0.9
	c0.5,0.2,1,0.3,1.6,0.3c0.8,0,1.4-0.2,1.9-0.5s1-0.7,1.4-1.3l1.3,1c-0.3,0.4-0.6,0.8-1,1.2s-0.9,0.7-1.6,0.9
	C484.5,100.1,483.8,100.2,482.9,100.2z M492.6,89.8V100h-2.2V87.3h2.1L492.6,89.8z M492.1,93.2h-1c0-0.9,0.1-1.7,0.3-2.4
	c0.2-0.7,0.5-1.4,1-1.9s1-1,1.6-1.3s1.4-0.5,2.2-0.5c0.6,0,1.1,0.1,1.6,0.3c0.5,0.2,0.9,0.4,1.3,0.8s0.7,0.8,0.9,1.4s0.3,1.2,0.3,2
	v8.4h-2.2v-8.3c0-0.7-0.1-1.2-0.3-1.6c-0.2-0.4-0.5-0.7-0.9-0.9c-0.4-0.2-0.9-0.3-1.4-0.3c-0.6,0-1.2,0.1-1.6,0.3s-0.8,0.5-1,0.9
	s-0.4,0.9-0.6,1.4C492.2,92.1,492.1,92.6,492.1,93.2z M500.3,92l-1.5,0.4c0-0.7,0.1-1.4,0.3-2c0.2-0.6,0.6-1.2,1-1.7s1-0.9,1.6-1.2
	c0.6-0.3,1.3-0.4,2.1-0.4c0.7,0,1.3,0.1,1.8,0.3c0.5,0.2,1,0.5,1.3,0.8c0.4,0.4,0.6,0.8,0.8,1.4c0.2,0.6,0.3,1.3,0.3,2.1v8.3h-2
	v-8.4c0-0.7-0.1-1.3-0.3-1.7c-0.2-0.4-0.5-0.7-0.9-0.8c-0.4-0.2-0.9-0.2-1.4-0.2s-0.9,0.1-1.3,0.2c-0.4,0.2-0.7,0.4-0.9,0.7
	c-0.2,0.3-0.4,0.6-0.6,1C500.4,91.2,500.3,91.6,500.3,92z M513.6,89.8v15.1h-2.2V87.3h2L513.6,89.8z M522.2,93.6v0.2
	c0,0.9-0.1,1.8-0.3,2.6c-0.2,0.8-0.5,1.5-1,2c-0.4,0.6-0.9,1-1.5,1.3s-1.3,0.5-2.1,0.5s-1.5-0.1-2.1-0.4s-1.1-0.7-1.6-1.2
	c-0.4-0.5-0.8-1.1-1-1.8c-0.2-0.7-0.4-1.5-0.5-2.4v-1.3c0.1-0.9,0.3-1.8,0.5-2.5c0.3-0.7,0.6-1.4,1-1.9s0.9-0.9,1.6-1.2
	c0.6-0.3,1.3-0.4,2.1-0.4s1.5,0.2,2.1,0.5s1.1,0.7,1.6,1.3c0.4,0.6,0.7,1.3,0.9,2.1C522.1,91.7,522.2,92.6,522.2,93.6z M520,93.8
	v-0.2c0-0.6-0.1-1.2-0.2-1.8c-0.1-0.6-0.3-1.1-0.6-1.5s-0.6-0.8-1.1-1c-0.4-0.2-0.9-0.4-1.5-0.4c-0.5,0-1,0.1-1.4,0.3
	c-0.4,0.2-0.7,0.4-1,0.8c-0.3,0.3-0.5,0.7-0.7,1.1s-0.3,0.8-0.4,1.2v3c0.2,0.5,0.4,1.1,0.7,1.5c0.3,0.5,0.7,0.9,1.1,1.2
	c0.5,0.3,1.1,0.4,1.8,0.4c0.6,0,1.1-0.1,1.5-0.4c0.4-0.2,0.8-0.6,1.1-1s0.5-0.9,0.6-1.5C519.9,95,520,94.4,520,93.8z M527.3,82v18
	h-2.2V82H527.3z M530.2,93.8v-0.3c0-0.9,0.1-1.8,0.4-2.5c0.3-0.8,0.6-1.5,1.1-2.1s1.1-1,1.8-1.4c0.7-0.3,1.5-0.5,2.4-0.5
	s1.7,0.2,2.4,0.5s1.3,0.8,1.8,1.4s0.9,1.3,1.2,2.1c0.3,0.8,0.4,1.6,0.4,2.5v0.3c0,0.9-0.1,1.8-0.4,2.5c-0.3,0.8-0.7,1.5-1.2,2.1
	s-1.1,1-1.8,1.4c-0.7,0.3-1.5,0.5-2.4,0.5s-1.7-0.2-2.4-0.5s-1.3-0.8-1.8-1.4s-0.9-1.3-1.1-2.1C530.3,95.6,530.2,94.7,530.2,93.8z
	 M532.4,93.5v0.3c0,0.6,0.1,1.2,0.2,1.8c0.1,0.6,0.4,1,0.7,1.5c0.3,0.4,0.7,0.8,1.1,1c0.5,0.2,1,0.4,1.6,0.4s1.1-0.1,1.6-0.4
	c0.5-0.2,0.8-0.6,1.1-1s0.5-0.9,0.7-1.5s0.2-1.2,0.2-1.8v-0.3c0-0.6-0.1-1.2-0.2-1.8c-0.1-0.6-0.4-1.1-0.7-1.5s-0.7-0.8-1.1-1
	c-0.4-0.2-1-0.4-1.6-0.4s-1.1,0.1-1.6,0.4c-0.4,0.2-0.8,0.6-1.1,1s-0.5,0.9-0.7,1.5C532.4,92.3,532.4,92.9,532.4,93.5z M547.8,98.7
	l3.5-11.4h2.3l-5.1,14.6c-0.1,0.3-0.3,0.6-0.5,1s-0.4,0.7-0.7,1s-0.7,0.6-1.1,0.8c-0.4,0.2-0.9,0.3-1.5,0.3c-0.2,0-0.4,0-0.7-0.1
	c-0.3,0-0.5-0.1-0.6-0.1V103c0.1,0,0.2,0,0.3,0s0.2,0,0.3,0c0.5,0,0.9-0.1,1.3-0.2c0.3-0.1,0.6-0.3,0.9-0.6c0.2-0.3,0.4-0.7,0.6-1.2
	L547.8,98.7z M545.2,87.3l3.3,9.8l0.6,2.3l-1.6,0.8l-4.7-12.9C542.8,87.3,545.2,87.3,545.2,87.3z M560.7,100.2
	c-0.9,0-1.7-0.1-2.4-0.4s-1.3-0.7-1.8-1.3c-0.5-0.5-0.9-1.2-1.2-1.9c-0.3-0.8-0.4-1.6-0.4-2.5v-0.5c0-1,0.2-1.9,0.5-2.8
	c0.3-0.8,0.7-1.5,1.2-2.1s1.1-1,1.8-1.3s1.4-0.4,2.1-0.4c0.9,0,1.7,0.2,2.3,0.5c0.7,0.3,1.2,0.8,1.6,1.3c0.4,0.6,0.7,1.2,0.9,2
	s0.3,1.6,0.3,2.5v1h-9.5v-1.8h7.3v-0.2c0-0.6-0.1-1.1-0.4-1.6c-0.2-0.5-0.5-1-0.9-1.3s-1-0.5-1.8-0.5c-0.5,0-0.9,0.1-1.4,0.3
	c-0.4,0.2-0.8,0.5-1.1,0.9s-0.5,0.9-0.7,1.5s-0.2,1.3-0.2,2v0.5c0,0.6,0.1,1.2,0.2,1.7c0.2,0.5,0.4,1,0.7,1.4s0.7,0.7,1.2,0.9
	c0.5,0.2,1,0.3,1.6,0.3c0.8,0,1.4-0.2,1.9-0.5s1-0.7,1.4-1.3l1.3,1c-0.3,0.4-0.6,0.8-1,1.2c-0.4,0.4-0.9,0.7-1.6,0.9
	C562.3,100.1,561.6,100.2,560.7,100.2z M573.5,100.2c-0.9,0-1.7-0.1-2.4-0.4s-1.3-0.7-1.8-1.3c-0.5-0.5-0.9-1.2-1.2-1.9
	c-0.3-0.8-0.4-1.6-0.4-2.5v-0.5c0-1,0.2-1.9,0.5-2.8c0.3-0.8,0.7-1.5,1.2-2.1s1.1-1,1.8-1.3s1.4-0.4,2.1-0.4c0.9,0,1.7,0.2,2.3,0.5
	c0.7,0.3,1.2,0.8,1.6,1.3c0.4,0.6,0.7,1.2,0.9,2s0.3,1.6,0.3,2.5v1h-9.5v-1.8h7.3v-0.2c0-0.6-0.1-1.1-0.4-1.6
	c-0.2-0.5-0.5-1-0.9-1.3s-1-0.5-1.8-0.5c-0.5,0-0.9,0.1-1.4,0.3c-0.4,0.2-0.8,0.5-1.1,0.9s-0.5,0.9-0.7,1.5s-0.2,1.3-0.2,2v0.5
	c0,0.6,0.1,1.2,0.2,1.7c0.2,0.5,0.4,1,0.7,1.4s0.7,0.7,1.2,0.9c0.5,0.2,1,0.3,1.6,0.3c0.8,0,1.4-0.2,1.9-0.5s1-0.7,1.4-1.3l1.3,1
	c-0.3,0.4-0.6,0.8-1,1.2c-0.4,0.4-0.9,0.7-1.6,0.9C575,100.1,574.3,100.2,573.5,100.2z M588.3,96.6c0-0.3-0.1-0.6-0.2-0.9
	c-0.1-0.3-0.4-0.5-0.8-0.7c-0.4-0.2-1-0.4-1.9-0.6c-0.7-0.1-1.3-0.3-1.9-0.5c-0.6-0.2-1-0.4-1.4-0.7c-0.4-0.3-0.7-0.6-0.9-1
	s-0.3-0.8-0.3-1.4c0-0.5,0.1-1,0.3-1.4s0.5-0.8,0.9-1.2c0.4-0.3,0.9-0.6,1.5-0.8c0.6-0.2,1.2-0.3,1.9-0.3c1,0,1.9,0.2,2.6,0.5
	s1.3,0.8,1.7,1.4s0.6,1.3,0.6,2h-2.2c0-0.4-0.1-0.7-0.3-1s-0.5-0.6-0.9-0.8c-0.4-0.2-0.9-0.3-1.4-0.3c-0.6,0-1.1,0.1-1.5,0.3
	c-0.4,0.2-0.6,0.4-0.8,0.7c-0.2,0.3-0.2,0.6-0.2,0.9c0,0.2,0,0.4,0.1,0.6s0.2,0.3,0.4,0.5c0.2,0.1,0.5,0.3,0.9,0.4s0.9,0.3,1.5,0.4
	c1,0.2,1.9,0.5,2.6,0.8c0.7,0.3,1.2,0.7,1.5,1.2s0.5,1.1,0.5,1.7s-0.1,1.1-0.4,1.5c-0.2,0.5-0.6,0.9-1,1.2c-0.4,0.3-0.9,0.6-1.5,0.8
	c-0.6,0.2-1.3,0.3-2,0.3c-1.1,0-2.1-0.2-2.8-0.6c-0.8-0.4-1.4-0.9-1.8-1.5c-0.4-0.6-0.6-1.3-0.6-2h2.2c0,0.6,0.2,1.1,0.5,1.4
	s0.7,0.6,1.1,0.7c0.5,0.1,0.9,0.2,1.3,0.2c0.6,0,1.1-0.1,1.5-0.2c0.4-0.2,0.7-0.4,0.9-0.6C588.2,97.3,588.3,97,588.3,96.6z"/>
<linearGradient id="SVGID_3_" gradientUnits="userSpaceOnUse" x1="474" y1="950" x2="474" y2="1010" gradientTransform="matrix(1 0 0 1 0 -948)">
	<stop  offset="0" style="stop-color:#6F983F"/>
	<stop  offset="1" style="stop-color:#2E2E2E"/>
</linearGradient>
<path class="st3" d="M492.5,62H511v-7.5c0-6.2-5-11.2-11.1-11.2c-3.5,0-6.7,1.7-8.7,4.3 M492.5,62h-37 M492.5,62v-7.5
	c0-2.5-0.5-4.8-1.3-7 M455.5,62H437v-7.5c0-6.2,5-11.2,11.1-11.2c3.5,0,6.7,1.7,8.7,4.3 M455.5,62v-7.5c0-2.5,0.5-4.8,1.3-7
	 M456.8,47.5c2.7-6.9,9.4-11.8,17.2-11.8s14.5,4.9,17.2,11.8 M485.1,13.2c0,6.2-5,11.2-11.1,11.2s-11.1-5-11.1-11.2S467.9,2,474,2
	S485.1,7,485.1,13.2z M507.3,24.5c0,4.1-3.3,7.5-7.4,7.5s-7.4-3.4-7.4-7.5s3.3-7.5,7.4-7.5S507.3,20.4,507.3,24.5z M455.5,24.5
	c0,4.1-3.3,7.5-7.4,7.5s-7.4-3.4-7.4-7.5s3.3-7.5,7.4-7.5S455.5,20.4,455.5,24.5z"/>
</svg>
