<?xml version="1.0" encoding="utf-8"?>
<!-- Generator: Adobe Illustrator 25.2.0, SVG Export Plug-In . SVG Version: 6.00 Build 0)  -->
<svg version="1.1" id="Layer_1" xmlns="http://www.w3.org/2000/svg" xmlns:xlink="http://www.w3.org/1999/xlink" x="0px" y="0px"
	 viewBox="0 0 1118 157" style="enable-background:new 0 0 1118 157;" xml:space="preserve">
<style type="text/css">
	.st0{fill:#333333;}
	.st1{fill:none;stroke:url(#SVGID_1_);stroke-width:4;stroke-linecap:round;stroke-linejoin:round;}
	.st2{fill:url(#SVGID_2_);stroke:url(#SVGID_3_);stroke-miterlimit:10;}
	.st3{fill:none;stroke:url(#SVGID_4_);stroke-miterlimit:10;}
	.st4{fill:url(#SVGID_5_);stroke:url(#SVGID_6_);stroke-miterlimit:10;}
	.st5{fill:none;stroke:url(#SVGID_7_);stroke-miterlimit:10;}
	.st6{fill:none;stroke:url(#SVGID_8_);stroke-miterlimit:10;}
	.st7{fill:none;stroke:url(#SVGID_9_);stroke-miterlimit:10;}
	.st8{fill:url(#SVGID_10_);stroke:url(#SVGID_11_);stroke-width:1.5;stroke-miterlimit:10;}
	.st9{fill:#6F983F;stroke:url(#SVGID_12_);stroke-miterlimit:10;}
	.st10{fill:url(#SVGID_13_);stroke:url(#SVGID_14_);stroke-width:1.5;stroke-miterlimit:10;}
	.st11{fill:url(#SVGID_15_);stroke:url(#SVGID_16_);stroke-width:1.5;stroke-miterlimit:10;}
	.st12{fill:url(#SVGID_17_);stroke:url(#SVGID_18_);stroke-width:1.5;stroke-miterlimit:10;}
	.st13{fill:none;stroke:url(#SVGID_19_);stroke-width:2;stroke-miterlimit:10;}
</style>
<path class="st0" d="M56.9,101.3h-4.6v-1.8h4.6c0.9,0,1.6-0.1,2.1-0.4s0.9-0.7,1.2-1.2s0.4-1.1,0.4-1.7s-0.1-1.1-0.4-1.7
	C60,94,59.6,93.6,59,93.3c-0.5-0.3-1.3-0.5-2.1-0.5h-4V108h-2.3V90.9h6.3c1.3,0,2.4,0.2,3.3,0.7c0.9,0.4,1.6,1.1,2,1.9
	c0.5,0.8,0.7,1.7,0.7,2.7c0,1.1-0.2,2-0.7,2.8s-1.1,1.4-2,1.8C59.3,101.1,58.2,101.3,56.9,101.3z M72.8,105.8v-6.5
	c0-0.5-0.1-0.9-0.3-1.3c-0.2-0.4-0.5-0.7-0.9-0.9c-0.4-0.2-0.9-0.3-1.5-0.3c-0.5,0-1,0.1-1.4,0.3c-0.4,0.2-0.7,0.4-1,0.7
	c-0.2,0.3-0.3,0.6-0.3,1h-2.2c0-0.5,0.1-0.9,0.4-1.3c0.2-0.4,0.6-0.8,1-1.2c0.4-0.4,1-0.7,1.6-0.9c0.6-0.2,1.3-0.3,2.1-0.3
	c0.9,0,1.7,0.2,2.4,0.5c0.7,0.3,1.3,0.8,1.7,1.4c0.4,0.6,0.6,1.4,0.6,2.4v5.9c0,0.4,0,0.9,0.1,1.3c0.1,0.5,0.2,0.9,0.3,1.2v0.2h-2.3
	c-0.1-0.2-0.2-0.6-0.3-1C72.8,106.6,72.8,106.2,72.8,105.8z M73.2,100.3v1.5H71c-0.6,0-1.2,0.1-1.7,0.2s-0.9,0.2-1.2,0.4
	c-0.3,0.2-0.6,0.4-0.8,0.7c-0.2,0.3-0.3,0.6-0.3,1s0.1,0.8,0.3,1.1c0.2,0.3,0.4,0.6,0.8,0.8c0.4,0.2,0.8,0.3,1.3,0.3
	c0.7,0,1.2-0.1,1.8-0.4s0.9-0.6,1.2-1c0.3-0.4,0.5-0.8,0.5-1.2l0.9,1c-0.1,0.3-0.2,0.7-0.4,1.1c-0.2,0.4-0.6,0.8-1,1.1
	c-0.4,0.4-0.9,0.7-1.4,0.9c-0.5,0.2-1.2,0.4-1.9,0.4c-0.9,0-1.6-0.2-2.3-0.5c-0.6-0.3-1.1-0.8-1.5-1.3c-0.4-0.6-0.5-1.2-0.5-1.9
	c0-0.7,0.1-1.3,0.4-1.8s0.6-1,1.1-1.3c0.5-0.4,1.1-0.6,1.8-0.8c0.7-0.2,1.5-0.3,2.4-0.3L73.2,100.3L73.2,100.3z M80.5,97.3V108h-2.2
	V95.3h2.1L80.5,97.3z M84.5,95.2v2c-0.2,0-0.4-0.1-0.5-0.1c-0.2,0-0.3,0-0.5,0c-0.5,0-0.9,0.1-1.3,0.2c-0.4,0.2-0.7,0.4-1,0.7
	c-0.3,0.3-0.5,0.6-0.6,1s-0.2,0.8-0.3,1.3l-0.6,0.4c0-0.8,0.1-1.5,0.2-2.2c0.2-0.7,0.4-1.3,0.7-1.8c0.3-0.5,0.7-0.9,1.2-1.2
	c0.5-0.3,1.1-0.4,1.8-0.4c0.2,0,0.3,0,0.5,0.1C84.3,95.2,84.4,95.2,84.5,95.2z M92.4,95.3V97h-6.9v-1.7H92.4z M87.9,92.2H90v12.6
	c0,0.4,0.1,0.8,0.2,1s0.3,0.4,0.5,0.4c0.2,0.1,0.4,0.1,0.7,0.1c0.2,0,0.4,0,0.6,0s0.4-0.1,0.5-0.1v1.8c-0.2,0.1-0.4,0.1-0.7,0.2
	c-0.3,0.1-0.6,0.1-1,0.1c-0.5,0-1-0.1-1.5-0.3c-0.4-0.2-0.8-0.6-1.1-1.1c-0.3-0.5-0.4-1.2-0.4-2V92.2H87.9z M97.3,95.3V108h-2.2
	V95.3H97.3z M95,92c0-0.4,0.1-0.6,0.3-0.9c0.2-0.2,0.5-0.4,1-0.4c0.4,0,0.7,0.1,0.9,0.4c0.2,0.2,0.3,0.5,0.3,0.9
	c0,0.3-0.1,0.6-0.3,0.9c-0.2,0.2-0.5,0.4-0.9,0.4s-0.7-0.1-1-0.4C95.1,92.6,95,92.3,95,92z M105.9,106.5c0.5,0,1-0.1,1.4-0.3
	c0.4-0.2,0.8-0.5,1.1-0.9c0.3-0.4,0.4-0.8,0.5-1.3h2.1c0,0.8-0.3,1.4-0.8,2.1c-0.5,0.6-1.1,1.2-1.8,1.6c-0.8,0.4-1.6,0.6-2.5,0.6
	c-1,0-1.8-0.2-2.5-0.5s-1.3-0.8-1.8-1.4s-0.8-1.3-1-2c-0.2-0.8-0.3-1.6-0.3-2.4v-0.5c0-0.9,0.1-1.7,0.3-2.4c0.2-0.8,0.6-1.4,1-2
	c0.5-0.6,1.1-1,1.8-1.4c0.7-0.3,1.5-0.5,2.5-0.5s1.9,0.2,2.6,0.6s1.3,0.9,1.7,1.6c0.4,0.7,0.7,1.5,0.7,2.3h-2.1c0-0.5-0.2-1-0.4-1.4
	c-0.2-0.4-0.6-0.8-1-1c-0.4-0.3-0.9-0.4-1.5-0.4c-0.7,0-1.2,0.1-1.7,0.4c-0.4,0.3-0.8,0.6-1.1,1.1c-0.3,0.4-0.4,0.9-0.6,1.5
	c-0.1,0.5-0.2,1.1-0.2,1.6v0.5c0,0.6,0.1,1.1,0.2,1.6s0.3,1,0.6,1.5c0.3,0.4,0.6,0.8,1.1,1.1C104.6,106.3,105.2,106.5,105.9,106.5z
	 M115.7,95.3V108h-2.2V95.3H115.7z M113.4,92c0-0.4,0.1-0.6,0.3-0.9c0.2-0.2,0.5-0.4,1-0.4c0.4,0,0.7,0.1,0.9,0.4
	c0.2,0.2,0.3,0.5,0.3,0.9c0,0.3-0.1,0.6-0.3,0.9c-0.2,0.2-0.5,0.4-0.9,0.4s-0.7-0.1-1-0.4C113.5,92.6,113.4,92.3,113.4,92z
	 M121.4,97.8v15.1h-2.2V95.3h2L121.4,97.8z M129.9,101.6v0.2c0,0.9-0.1,1.8-0.3,2.6c-0.2,0.8-0.5,1.5-1,2c-0.4,0.6-0.9,1-1.5,1.3
	s-1.3,0.5-2.1,0.5c-0.8,0-1.5-0.1-2.1-0.4s-1.1-0.7-1.6-1.2c-0.4-0.5-0.8-1.1-1-1.8c-0.2-0.7-0.4-1.5-0.5-2.4v-1.3
	c0.1-0.9,0.3-1.8,0.5-2.5c0.3-0.7,0.6-1.4,1-1.9s0.9-0.9,1.6-1.2c0.6-0.3,1.3-0.4,2.1-0.4c0.8,0,1.5,0.2,2.1,0.5s1.1,0.7,1.6,1.3
	c0.4,0.6,0.7,1.3,0.9,2.1C129.8,99.7,129.9,100.6,129.9,101.6z M127.7,101.8v-0.2c0-0.6-0.1-1.2-0.2-1.8c-0.1-0.6-0.3-1.1-0.6-1.5
	c-0.3-0.4-0.6-0.8-1.1-1c-0.4-0.2-0.9-0.4-1.5-0.4c-0.5,0-1,0.1-1.4,0.3c-0.4,0.2-0.7,0.4-1,0.8c-0.3,0.3-0.5,0.7-0.7,1.1
	s-0.3,0.8-0.4,1.2v3c0.2,0.5,0.4,1.1,0.7,1.5c0.3,0.5,0.7,0.9,1.1,1.2c0.5,0.3,1.1,0.4,1.8,0.4c0.6,0,1.1-0.1,1.5-0.4
	c0.4-0.2,0.8-0.6,1.1-1c0.3-0.4,0.5-0.9,0.6-1.5C127.6,103,127.7,102.4,127.7,101.8z M140.1,105.8v-6.5c0-0.5-0.1-0.9-0.3-1.3
	s-0.5-0.7-0.9-0.9c-0.4-0.2-0.9-0.3-1.5-0.3c-0.5,0-1,0.1-1.4,0.3c-0.4,0.2-0.7,0.4-1,0.7c-0.2,0.3-0.3,0.6-0.3,1h-2.2
	c0-0.5,0.1-0.9,0.4-1.3c0.2-0.4,0.6-0.8,1-1.2c0.4-0.4,1-0.7,1.6-0.9c0.6-0.2,1.3-0.3,2.1-0.3c0.9,0,1.7,0.2,2.4,0.5
	s1.3,0.8,1.7,1.4s0.6,1.4,0.6,2.4v5.9c0,0.4,0,0.9,0.1,1.3c0.1,0.5,0.2,0.9,0.3,1.2v0.2h-2.3c-0.1-0.2-0.2-0.6-0.3-1
	C140.2,106.6,140.1,106.2,140.1,105.8z M140.5,100.3v1.5h-2.2c-0.6,0-1.2,0.1-1.7,0.2s-0.9,0.2-1.2,0.4c-0.3,0.2-0.6,0.4-0.8,0.7
	c-0.2,0.3-0.3,0.6-0.3,1s0.1,0.8,0.3,1.1c0.2,0.3,0.5,0.6,0.8,0.8c0.4,0.2,0.8,0.3,1.3,0.3c0.7,0,1.2-0.1,1.8-0.4
	c0.5-0.3,0.9-0.6,1.2-1s0.5-0.8,0.5-1.2l0.9,1c-0.1,0.3-0.2,0.7-0.4,1.1s-0.6,0.8-1,1.1c-0.4,0.4-0.9,0.7-1.4,0.9
	c-0.5,0.2-1.2,0.4-1.9,0.4c-0.9,0-1.6-0.2-2.3-0.5c-0.6-0.3-1.1-0.8-1.5-1.3c-0.4-0.6-0.5-1.2-0.5-1.9c0-0.7,0.1-1.3,0.4-1.8
	c0.3-0.5,0.6-1,1.1-1.3c0.5-0.4,1.1-0.6,1.8-0.8c0.7-0.2,1.5-0.3,2.4-0.3L140.5,100.3L140.5,100.3z M151,95.3V97h-6.9v-1.7H151z
	 M146.5,92.2h2.2v12.6c0,0.4,0.1,0.8,0.2,1c0.1,0.2,0.3,0.4,0.5,0.4c0.2,0.1,0.4,0.1,0.7,0.1c0.2,0,0.4,0,0.6,0
	c0.2,0,0.4-0.1,0.5-0.1v1.8c-0.2,0.1-0.4,0.1-0.7,0.2s-0.6,0.1-1,0.1c-0.5,0-1-0.1-1.5-0.3c-0.4-0.2-0.8-0.6-1.1-1.1s-0.4-1.2-0.4-2
	V92.2z M155.9,95.3V108h-2.2V95.3H155.9z M153.6,92c0-0.4,0.1-0.6,0.3-0.9c0.2-0.2,0.5-0.4,1-0.4c0.4,0,0.7,0.1,0.9,0.4
	c0.2,0.2,0.3,0.5,0.3,0.9c0,0.3-0.1,0.6-0.3,0.9c-0.2,0.2-0.5,0.4-0.9,0.4s-0.7-0.1-1-0.4C153.7,92.6,153.6,92.3,153.6,92z
	 M158.8,101.8v-0.3c0-0.9,0.1-1.8,0.4-2.5c0.3-0.8,0.6-1.5,1.1-2.1s1.1-1,1.8-1.4c0.7-0.3,1.5-0.5,2.4-0.5s1.7,0.2,2.4,0.5
	s1.3,0.8,1.8,1.4s0.9,1.3,1.2,2.1c0.3,0.8,0.4,1.6,0.4,2.5v0.3c0,0.9-0.1,1.8-0.4,2.5c-0.3,0.8-0.7,1.5-1.2,2.1s-1.1,1-1.8,1.4
	c-0.7,0.3-1.5,0.5-2.4,0.5s-1.7-0.2-2.4-0.5s-1.3-0.8-1.8-1.4s-0.9-1.3-1.1-2.1C159,103.6,158.8,102.7,158.8,101.8z M161,101.5v0.3
	c0,0.6,0.1,1.2,0.2,1.8c0.1,0.6,0.4,1,0.7,1.5c0.3,0.4,0.7,0.8,1.1,1c0.5,0.2,1,0.4,1.6,0.4s1.1-0.1,1.6-0.4c0.5-0.2,0.8-0.6,1.1-1
	s0.5-0.9,0.7-1.5s0.2-1.2,0.2-1.8v-0.3c0-0.6-0.1-1.2-0.2-1.8c-0.1-0.6-0.4-1.1-0.7-1.5s-0.7-0.8-1.1-1c-0.4-0.2-1-0.4-1.6-0.4
	s-1.1,0.1-1.6,0.4c-0.4,0.2-0.8,0.6-1.1,1s-0.5,0.9-0.7,1.5C161.1,100.3,161,100.9,161,101.5z M175.3,98v10h-2.2V95.3h2.1L175.3,98z
	 M174.7,101.2h-0.9c0-0.9,0.1-1.7,0.4-2.4c0.2-0.7,0.6-1.4,1.1-1.9s1-1,1.6-1.3s1.3-0.5,2.1-0.5c0.6,0,1.2,0.1,1.7,0.3
	c0.5,0.2,0.9,0.4,1.3,0.8c0.4,0.4,0.6,0.8,0.8,1.4s0.3,1.3,0.3,2.1v8.3h-2.2v-8.3c0-0.7-0.1-1.2-0.3-1.6s-0.5-0.7-0.9-0.9
	c-0.4-0.2-0.8-0.3-1.4-0.3c-0.5,0-1,0.1-1.5,0.3c-0.4,0.2-0.8,0.5-1.1,0.9s-0.6,0.9-0.7,1.4C174.8,100.1,174.7,100.6,174.7,101.2z
	 M194.7,95.3V108h-2.2V95.3H194.7z M192.3,92c0-0.4,0.1-0.6,0.3-0.9c0.2-0.2,0.5-0.4,1-0.4c0.4,0,0.7,0.1,0.9,0.4
	c0.2,0.2,0.3,0.5,0.3,0.9c0,0.3-0.1,0.6-0.3,0.9c-0.2,0.2-0.5,0.4-0.9,0.4s-0.7-0.1-1-0.4C192.4,92.6,192.3,92.3,192.3,92z
	 M200.3,98v10h-2.2V95.3h2.1L200.3,98z M199.8,101.2h-0.9c0-0.9,0.1-1.7,0.4-2.4c0.2-0.7,0.6-1.4,1.1-1.9s1-1,1.6-1.3
	s1.3-0.5,2.1-0.5c0.6,0,1.2,0.1,1.7,0.3c0.5,0.2,0.9,0.4,1.3,0.8c0.4,0.4,0.6,0.8,0.8,1.4s0.3,1.3,0.3,2.1v8.3H206v-8.3
	c0-0.7-0.1-1.2-0.3-1.6s-0.5-0.7-0.9-0.9c-0.4-0.2-0.8-0.3-1.4-0.3c-0.5,0-1,0.1-1.5,0.3c-0.4,0.2-0.8,0.5-1.1,0.9s-0.6,0.9-0.7,1.4
	C199.9,100.1,199.8,100.6,199.8,101.2z M216.8,101.8v-0.3c0-0.9,0.1-1.8,0.4-2.5c0.3-0.8,0.6-1.5,1.1-2.1s1.1-1,1.8-1.4
	c0.7-0.3,1.5-0.5,2.4-0.5s1.7,0.2,2.4,0.5s1.3,0.8,1.8,1.4s0.9,1.3,1.2,2.1c0.3,0.8,0.4,1.6,0.4,2.5v0.3c0,0.9-0.1,1.8-0.4,2.5
	c-0.3,0.8-0.7,1.5-1.2,2.1s-1.1,1-1.8,1.4c-0.7,0.3-1.5,0.5-2.4,0.5s-1.7-0.2-2.4-0.5s-1.3-0.8-1.8-1.4s-0.9-1.3-1.1-2.1
	C216.9,103.6,216.8,102.7,216.8,101.8z M219,101.5v0.3c0,0.6,0.1,1.2,0.2,1.8c0.1,0.6,0.4,1,0.7,1.5c0.3,0.4,0.7,0.8,1.1,1
	c0.5,0.2,1,0.4,1.6,0.4s1.1-0.1,1.6-0.4c0.5-0.2,0.8-0.6,1.1-1s0.5-0.9,0.7-1.5s0.2-1.2,0.2-1.8v-0.3c0-0.6-0.1-1.2-0.2-1.8
	c-0.1-0.6-0.4-1.1-0.7-1.5s-0.7-0.8-1.1-1c-0.4-0.2-1-0.4-1.6-0.4s-1.1,0.1-1.6,0.4c-0.4,0.2-0.8,0.6-1.1,1s-0.5,0.9-0.7,1.5
	C219,100.3,219,100.9,219,101.5z M236.4,95.3V97h-6.9v-1.7H236.4z M231.8,92.2h2.2v12.6c0,0.4,0.1,0.8,0.2,1
	c0.1,0.2,0.3,0.4,0.5,0.4c0.2,0.1,0.4,0.1,0.7,0.1c0.2,0,0.4,0,0.6,0c0.2,0,0.4-0.1,0.5-0.1v1.8c-0.2,0.1-0.4,0.1-0.7,0.2
	s-0.6,0.1-1,0.1c-0.5,0-1-0.1-1.5-0.3c-0.4-0.2-0.8-0.6-1.1-1.1s-0.4-1.2-0.4-2V92.2z M241.1,90v18h-2.2V90H241.1z M240.6,101.2
	h-0.9c0-0.9,0.1-1.7,0.4-2.4c0.2-0.7,0.6-1.4,1.1-1.9s1-1,1.6-1.3s1.3-0.5,2.1-0.5c0.6,0,1.2,0.1,1.7,0.3c0.5,0.2,0.9,0.4,1.3,0.8
	c0.4,0.4,0.6,0.8,0.8,1.4s0.3,1.3,0.3,2.1v8.3h-2.2v-8.3c0-0.7-0.1-1.2-0.3-1.6s-0.5-0.7-0.9-0.9c-0.4-0.2-0.8-0.3-1.4-0.3
	c-0.5,0-1,0.1-1.5,0.3c-0.4,0.2-0.8,0.5-1.1,0.9s-0.6,0.9-0.7,1.4C240.6,100.1,240.6,100.6,240.6,101.2z M257.4,108.2
	c-0.9,0-1.7-0.1-2.4-0.4s-1.3-0.7-1.8-1.3c-0.5-0.5-0.9-1.2-1.2-1.9c-0.3-0.8-0.4-1.6-0.4-2.5v-0.5c0-1,0.2-1.9,0.5-2.8
	c0.3-0.8,0.7-1.5,1.2-2.1s1.1-1,1.8-1.3s1.4-0.4,2.1-0.4c0.9,0,1.7,0.2,2.3,0.5c0.7,0.3,1.2,0.8,1.6,1.3c0.4,0.6,0.7,1.2,0.9,2
	c0.2,0.8,0.3,1.6,0.3,2.5v1h-9.5v-1.8h7.3v-0.2c0-0.6-0.1-1.1-0.4-1.6c-0.2-0.5-0.5-1-0.9-1.3s-1-0.5-1.8-0.5
	c-0.5,0-0.9,0.1-1.4,0.3c-0.4,0.2-0.8,0.5-1.1,0.9s-0.5,0.9-0.7,1.5s-0.2,1.3-0.2,2v0.5c0,0.6,0.1,1.2,0.2,1.7
	c0.2,0.5,0.4,1,0.7,1.4s0.7,0.7,1.2,0.9c0.5,0.2,1,0.3,1.6,0.3c0.8,0,1.4-0.2,1.9-0.5s1-0.7,1.4-1.3l1.3,1c-0.3,0.4-0.6,0.8-1,1.2
	c-0.4,0.4-0.9,0.7-1.6,0.9C258.9,108.1,258.2,108.2,257.4,108.2z M267,97.3V108h-2.2V95.3h2.1L267,97.3z M271,95.2v2
	c-0.2,0-0.4-0.1-0.5-0.1c-0.2,0-0.3,0-0.5,0c-0.5,0-0.9,0.1-1.3,0.2c-0.4,0.2-0.7,0.4-1,0.7c-0.3,0.3-0.5,0.6-0.6,1
	s-0.2,0.8-0.3,1.3l-0.6,0.4c0-0.8,0.1-1.5,0.2-2.2c0.2-0.7,0.4-1.3,0.7-1.8c0.3-0.5,0.7-0.9,1.2-1.2c0.5-0.3,1.1-0.4,1.8-0.4
	c0.2,0,0.3,0,0.5,0.1C270.8,95.2,270.9,95.2,271,95.2z M51.8,132.3h2v12.4c0,1.1-0.2,2.1-0.7,2.9c-0.5,0.8-1.1,1.4-1.9,1.8
	c-0.8,0.4-1.7,0.6-2.8,0.6c-0.4,0-1-0.1-1.5-0.2c-0.6-0.1-1.2-0.4-1.7-0.7c-0.6-0.3-1-0.8-1.4-1.3l1.1-1.3c0.5,0.6,1.1,1.1,1.7,1.3
	c0.6,0.2,1.2,0.4,1.7,0.4c0.7,0,1.3-0.1,1.8-0.4s0.9-0.6,1.2-1.1s0.4-1.1,0.4-1.9v-9.7L51.8,132.3z M43.1,138.8v-0.2
	c0-1,0.1-1.8,0.3-2.6s0.6-1.5,1-2.1s1-1,1.6-1.3s1.3-0.5,2.1-0.5s1.5,0.1,2.1,0.4c0.6,0.3,1.1,0.7,1.5,1.2s0.8,1.2,1,1.9
	s0.4,1.6,0.5,2.5v1.1c-0.1,0.9-0.3,1.8-0.5,2.5s-0.6,1.4-1,1.9s-0.9,0.9-1.5,1.2s-1.3,0.4-2.1,0.4s-1.4-0.2-2.1-0.5
	c-0.6-0.3-1.1-0.8-1.6-1.3c-0.4-0.6-0.8-1.3-1-2C43.2,140.6,43.1,139.7,43.1,138.8z M45.2,138.6v0.2c0,0.6,0.1,1.2,0.2,1.8
	c0.1,0.6,0.3,1,0.6,1.5c0.3,0.4,0.6,0.8,1,1s0.9,0.4,1.5,0.4c0.7,0,1.3-0.2,1.8-0.5s0.8-0.7,1.1-1.2s0.5-1,0.7-1.6v-2.8
	c-0.1-0.4-0.2-0.8-0.4-1.2s-0.4-0.8-0.7-1.1s-0.6-0.6-1-0.8s-0.9-0.3-1.4-0.3c-0.6,0-1.1,0.1-1.5,0.4c-0.4,0.2-0.8,0.6-1,1
	c-0.3,0.4-0.5,0.9-0.6,1.5C45.3,137.3,45.2,137.9,45.2,138.6z M56.5,138.8v-0.3c0-0.9,0.1-1.8,0.4-2.5c0.3-0.8,0.6-1.5,1.1-2.1
	s1.1-1,1.8-1.4c0.7-0.3,1.5-0.5,2.4-0.5s1.7,0.2,2.4,0.5s1.3,0.8,1.8,1.4c0.5,0.6,0.9,1.3,1.2,2.1c0.3,0.8,0.4,1.6,0.4,2.5v0.3
	c0,0.9-0.1,1.8-0.4,2.5c-0.3,0.8-0.7,1.5-1.2,2.1s-1.1,1-1.8,1.4c-0.7,0.3-1.5,0.5-2.4,0.5s-1.7-0.2-2.4-0.5s-1.3-0.8-1.8-1.4
	c-0.5-0.6-0.9-1.3-1.1-2.1C56.6,140.6,56.5,139.7,56.5,138.8z M58.7,138.5v0.3c0,0.6,0.1,1.2,0.2,1.8c0.1,0.6,0.4,1,0.7,1.5
	c0.3,0.4,0.7,0.8,1.1,1c0.5,0.2,1,0.4,1.6,0.4s1.1-0.1,1.6-0.4c0.5-0.2,0.8-0.6,1.1-1s0.5-0.9,0.7-1.5s0.2-1.2,0.2-1.8v-0.3
	c0-0.6-0.1-1.2-0.2-1.8s-0.4-1.1-0.7-1.5c-0.3-0.4-0.7-0.8-1.1-1s-1-0.4-1.6-0.4s-1.1,0.1-1.6,0.4c-0.4,0.2-0.8,0.6-1.1,1
	s-0.5,0.9-0.7,1.5C58.7,137.3,58.7,137.9,58.7,138.5z M74.4,143l3.5-10.7h2.2L75.6,145h-1.5L74.4,143z M71.5,132.3l3.6,10.8l0.2,1.9
	h-1.5l-4.6-12.7H71.5z M87.3,145.2c-0.9,0-1.7-0.1-2.4-0.4c-0.7-0.3-1.3-0.7-1.8-1.3c-0.5-0.5-0.9-1.2-1.2-1.9s-0.4-1.6-0.4-2.5
	v-0.5c0-1,0.2-1.9,0.5-2.8c0.3-0.8,0.7-1.5,1.2-2.1s1.1-1,1.8-1.3c0.7-0.3,1.4-0.4,2.1-0.4c0.9,0,1.7,0.2,2.3,0.5
	c0.7,0.3,1.2,0.8,1.6,1.3c0.4,0.6,0.7,1.2,0.9,2c0.2,0.8,0.3,1.6,0.3,2.5v1h-9.5v-1.8H90v-0.2c0-0.6-0.1-1.1-0.4-1.6
	c-0.2-0.5-0.5-1-0.9-1.3s-1-0.5-1.8-0.5c-0.5,0-0.9,0.1-1.4,0.3c-0.4,0.2-0.8,0.5-1.1,0.9c-0.3,0.4-0.5,0.9-0.7,1.5s-0.2,1.3-0.2,2
	v0.5c0,0.6,0.1,1.2,0.2,1.7c0.2,0.5,0.4,1,0.7,1.4c0.3,0.4,0.7,0.7,1.2,0.9s1,0.3,1.6,0.3c0.8,0,1.4-0.2,1.9-0.5s1-0.7,1.4-1.3
	l1.3,1c-0.3,0.4-0.6,0.8-1,1.2s-0.9,0.7-1.6,0.9C88.9,145.1,88.1,145.2,87.3,145.2z M96.9,134.3V145h-2.2v-12.7h2.1L96.9,134.3z
	 M100.9,132.2v2c-0.2,0-0.4-0.1-0.5-0.1c-0.2,0-0.3,0-0.5,0c-0.5,0-0.9,0.1-1.3,0.2c-0.4,0.2-0.7,0.4-1,0.7s-0.5,0.6-0.6,1
	s-0.2,0.8-0.3,1.3l-0.6,0.4c0-0.8,0.1-1.5,0.2-2.2c0.2-0.7,0.4-1.3,0.7-1.8c0.3-0.5,0.7-0.9,1.2-1.2s1.1-0.4,1.8-0.4
	c0.2,0,0.3,0,0.5,0.1C100.7,132.2,100.8,132.2,100.9,132.2z M105.1,135v10h-2.2v-12.7h2.1L105.1,135z M104.5,138.2h-0.9
	c0-0.9,0.1-1.7,0.4-2.4c0.2-0.7,0.6-1.4,1.1-1.9s1-1,1.6-1.3s1.3-0.5,2.1-0.5c0.6,0,1.2,0.1,1.7,0.3s0.9,0.4,1.3,0.8
	c0.4,0.4,0.6,0.8,0.8,1.4c0.2,0.6,0.3,1.3,0.3,2.1v8.3h-2.2v-8.3c0-0.7-0.1-1.2-0.3-1.6c-0.2-0.4-0.5-0.7-0.9-0.9s-0.8-0.3-1.4-0.3
	c-0.5,0-1,0.1-1.5,0.3c-0.4,0.2-0.8,0.5-1.1,0.9c-0.3,0.4-0.6,0.9-0.7,1.4C104.6,137.1,104.5,137.6,104.5,138.2z M118.3,134.8V145
	h-2.2v-12.7h2.1L118.3,134.8z M117.9,138.2h-1c0-0.9,0.1-1.7,0.3-2.4c0.2-0.7,0.5-1.4,1-1.9c0.4-0.5,1-1,1.6-1.3s1.4-0.5,2.2-0.5
	c0.6,0,1.1,0.1,1.6,0.3s0.9,0.4,1.3,0.8c0.4,0.4,0.7,0.8,0.9,1.4c0.2,0.6,0.3,1.2,0.3,2v8.4h-2.2v-8.3c0-0.7-0.1-1.2-0.3-1.6
	c-0.2-0.4-0.5-0.7-0.9-0.9s-0.9-0.3-1.4-0.3c-0.6,0-1.2,0.1-1.6,0.3s-0.8,0.5-1,0.9c-0.3,0.4-0.4,0.9-0.6,1.4
	C117.9,137.1,117.9,137.6,117.9,138.2z M126.1,137l-1.5,0.4c0-0.7,0.1-1.4,0.3-2c0.2-0.6,0.6-1.2,1-1.7s1-0.9,1.6-1.2
	c0.6-0.3,1.3-0.4,2.1-0.4c0.7,0,1.3,0.1,1.8,0.3s1,0.5,1.3,0.8c0.4,0.4,0.6,0.8,0.8,1.4c0.2,0.6,0.3,1.3,0.3,2.1v8.3h-2.2v-8.4
	c0-0.7-0.1-1.3-0.3-1.7s-0.5-0.7-0.9-0.8c-0.4-0.2-0.9-0.2-1.4-0.2s-0.9,0.1-1.3,0.2c-0.4,0.2-0.7,0.4-0.9,0.7
	c-0.2,0.3-0.4,0.6-0.6,1C126.1,136.2,126.1,136.6,126.1,137z M142.5,145.2c-0.9,0-1.7-0.1-2.4-0.4c-0.7-0.3-1.3-0.7-1.8-1.3
	c-0.5-0.5-0.9-1.2-1.2-1.9c-0.3-0.8-0.4-1.6-0.4-2.5v-0.5c0-1,0.2-1.9,0.5-2.8c0.3-0.8,0.7-1.5,1.2-2.1s1.1-1,1.8-1.3
	s1.4-0.4,2.1-0.4c0.9,0,1.7,0.2,2.3,0.5c0.7,0.3,1.2,0.8,1.6,1.3c0.4,0.6,0.7,1.2,0.9,2s0.3,1.6,0.3,2.5v1h-9.5v-1.8h7.3v-0.2
	c0-0.6-0.1-1.1-0.4-1.6c-0.2-0.5-0.5-1-0.9-1.3s-1-0.5-1.8-0.5c-0.5,0-0.9,0.1-1.4,0.3c-0.4,0.2-0.8,0.5-1.1,0.9s-0.5,0.9-0.7,1.5
	s-0.2,1.3-0.2,2v0.5c0,0.6,0.1,1.2,0.2,1.7c0.2,0.5,0.4,1,0.7,1.4s0.7,0.7,1.2,0.9s1,0.3,1.6,0.3c0.8,0,1.4-0.2,1.9-0.5
	s1-0.7,1.4-1.3l1.3,1c-0.3,0.4-0.6,0.8-1,1.2s-0.9,0.7-1.6,0.9C144,145.1,143.3,145.2,142.5,145.2z M152.1,135v10h-2.2v-12.7h2
	L152.1,135z M151.6,138.2h-0.9c0-0.9,0.1-1.7,0.4-2.4c0.2-0.7,0.6-1.4,1.1-1.9s1-1,1.6-1.3s1.3-0.5,2.1-0.5c0.6,0,1.2,0.1,1.7,0.3
	s0.9,0.4,1.3,0.8c0.4,0.4,0.6,0.8,0.8,1.4c0.2,0.6,0.3,1.3,0.3,2.1v8.3h-2.2v-8.3c0-0.7-0.1-1.2-0.3-1.6c-0.2-0.4-0.5-0.7-0.9-0.9
	s-0.8-0.3-1.4-0.3c-0.5,0-1,0.1-1.5,0.3c-0.4,0.2-0.8,0.5-1.1,0.9s-0.6,0.9-0.7,1.4C151.7,137.1,151.6,137.6,151.6,138.2z
	 M168.5,132.3v1.7h-6.9v-1.7H168.5z M164,129.2h2.2v12.6c0,0.4,0.1,0.8,0.2,1c0.1,0.2,0.3,0.4,0.5,0.4c0.2,0.1,0.4,0.1,0.7,0.1
	c0.2,0,0.4,0,0.6,0c0.2,0,0.4-0.1,0.5-0.1v1.8c-0.2,0.1-0.4,0.1-0.7,0.2c-0.3,0.1-0.6,0.1-1,0.1c-0.5,0-1-0.1-1.5-0.3
	c-0.4-0.2-0.8-0.6-1.1-1.1s-0.4-1.2-0.4-2V129.2z M179.2,134.8v15.1H177v-17.6h2L179.2,134.8z M187.7,138.6v0.2
	c0,0.9-0.1,1.8-0.3,2.6s-0.5,1.5-1,2c-0.4,0.6-0.9,1-1.5,1.3s-1.3,0.5-2.1,0.5s-1.5-0.1-2.1-0.4c-0.6-0.3-1.1-0.7-1.6-1.2
	c-0.4-0.5-0.8-1.1-1-1.8s-0.4-1.5-0.5-2.4v-1.3c0.1-0.9,0.3-1.8,0.5-2.5c0.3-0.7,0.6-1.4,1-1.9s0.9-0.9,1.6-1.2
	c0.6-0.3,1.3-0.4,2.1-0.4s1.5,0.2,2.1,0.5s1.1,0.7,1.6,1.3c0.4,0.6,0.7,1.3,0.9,2.1C187.6,136.7,187.7,137.6,187.7,138.6z
	 M185.5,138.8v-0.2c0-0.6-0.1-1.2-0.2-1.8c-0.1-0.6-0.3-1.1-0.6-1.5s-0.6-0.8-1.1-1c-0.4-0.2-0.9-0.4-1.5-0.4c-0.5,0-1,0.1-1.4,0.3
	s-0.7,0.4-1,0.8c-0.3,0.3-0.5,0.7-0.7,1.1c-0.2,0.4-0.3,0.8-0.4,1.2v3c0.2,0.5,0.4,1.1,0.7,1.5c0.3,0.5,0.7,0.9,1.1,1.2
	c0.5,0.3,1.1,0.4,1.8,0.4c0.6,0,1.1-0.1,1.5-0.4c0.4-0.2,0.8-0.6,1.1-1s0.5-0.9,0.6-1.5C185.5,140,185.5,139.4,185.5,138.8z
	 M192.6,134.3V145h-2.2v-12.7h2.1L192.6,134.3z M196.6,132.2v2c-0.2,0-0.4-0.1-0.5-0.1c-0.2,0-0.3,0-0.5,0c-0.5,0-0.9,0.1-1.3,0.2
	c-0.4,0.2-0.7,0.4-1,0.7s-0.5,0.6-0.6,1s-0.2,0.8-0.3,1.3l-0.6,0.4c0-0.8,0.1-1.5,0.2-2.2c0.2-0.7,0.4-1.3,0.7-1.8s0.7-0.9,1.2-1.2
	s1.1-0.4,1.8-0.4c0.2,0,0.3,0,0.5,0.1C196.4,132.2,196.5,132.2,196.6,132.2z M197.8,138.8v-0.3c0-0.9,0.1-1.8,0.4-2.5
	c0.3-0.8,0.6-1.5,1.1-2.1s1.1-1,1.8-1.4c0.7-0.3,1.5-0.5,2.4-0.5s1.7,0.2,2.4,0.5s1.3,0.8,1.8,1.4c0.5,0.6,0.9,1.3,1.2,2.1
	s0.4,1.6,0.4,2.5v0.3c0,0.9-0.1,1.8-0.4,2.5c-0.3,0.8-0.7,1.5-1.2,2.1s-1.1,1-1.8,1.4c-0.7,0.3-1.5,0.5-2.4,0.5s-1.7-0.2-2.4-0.5
	s-1.3-0.8-1.8-1.4c-0.5-0.6-0.9-1.3-1.1-2.1C197.9,140.6,197.8,139.7,197.8,138.8z M200,138.5v0.3c0,0.6,0.1,1.2,0.2,1.8
	c0.1,0.6,0.4,1,0.7,1.5c0.3,0.4,0.7,0.8,1.1,1c0.5,0.2,1,0.4,1.6,0.4s1.1-0.1,1.6-0.4c0.5-0.2,0.8-0.6,1.1-1s0.5-0.9,0.7-1.5
	s0.2-1.2,0.2-1.8v-0.3c0-0.6-0.1-1.2-0.2-1.8c-0.1-0.6-0.4-1.1-0.7-1.5s-0.7-0.8-1.1-1c-0.4-0.2-1-0.4-1.6-0.4s-1.1,0.1-1.6,0.4
	c-0.4,0.2-0.8,0.6-1.1,1s-0.5,0.9-0.7,1.5S200,137.9,200,138.5z M220.3,132.3h2v12.4c0,1.1-0.2,2.1-0.7,2.9
	c-0.5,0.8-1.1,1.4-1.9,1.8c-0.8,0.4-1.7,0.6-2.8,0.6c-0.4,0-1-0.1-1.5-0.2c-0.6-0.1-1.2-0.4-1.7-0.7c-0.6-0.3-1-0.8-1.4-1.3l1.1-1.3
	c0.5,0.6,1.1,1.1,1.7,1.3c0.6,0.2,1.2,0.4,1.7,0.4c0.7,0,1.3-0.1,1.8-0.4s0.9-0.6,1.2-1.1s0.4-1.1,0.4-1.9v-9.7L220.3,132.3z
	 M211.6,138.8v-0.2c0-1,0.1-1.8,0.3-2.6s0.6-1.5,1-2.1s1-1,1.6-1.3s1.3-0.5,2.1-0.5s1.5,0.1,2.1,0.4c0.6,0.3,1.1,0.7,1.5,1.2
	s0.8,1.2,1,1.9s0.4,1.6,0.5,2.5v1.1c-0.1,0.9-0.3,1.8-0.5,2.5s-0.6,1.4-1,1.9s-0.9,0.9-1.5,1.2s-1.3,0.4-2.1,0.4s-1.4-0.2-2.1-0.5
	c-0.6-0.3-1.1-0.8-1.6-1.3c-0.4-0.6-0.8-1.3-1-2C211.7,140.6,211.6,139.7,211.6,138.8z M213.7,138.6v0.2c0,0.6,0.1,1.2,0.2,1.8
	c0.1,0.6,0.3,1,0.6,1.5c0.3,0.4,0.6,0.8,1,1s0.9,0.4,1.5,0.4c0.7,0,1.3-0.2,1.8-0.5s0.8-0.7,1.1-1.2s0.5-1,0.7-1.6v-2.8
	c-0.1-0.4-0.2-0.8-0.4-1.2s-0.4-0.8-0.7-1.1s-0.6-0.6-1-0.8s-0.9-0.3-1.4-0.3c-0.6,0-1.1,0.1-1.5,0.4c-0.4,0.2-0.8,0.6-1,1
	c-0.3,0.4-0.5,0.9-0.6,1.5C213.8,137.3,213.7,137.9,213.7,138.6z M227.7,134.3V145h-2.2v-12.7h2.1L227.7,134.3z M231.7,132.2v2
	c-0.2,0-0.4-0.1-0.5-0.1c-0.2,0-0.3,0-0.5,0c-0.5,0-0.9,0.1-1.3,0.2c-0.4,0.2-0.7,0.4-1,0.7s-0.5,0.6-0.6,1s-0.2,0.8-0.3,1.3
	l-0.6,0.4c0-0.8,0.1-1.5,0.2-2.2c0.2-0.7,0.4-1.3,0.7-1.8s0.7-0.9,1.2-1.2s1.1-0.4,1.8-0.4c0.2,0,0.3,0,0.5,0.1
	C231.5,132.2,231.6,132.2,231.7,132.2z M240.7,142.8v-6.5c0-0.5-0.1-0.9-0.3-1.3c-0.2-0.4-0.5-0.7-0.9-0.9s-0.9-0.3-1.5-0.3
	c-0.5,0-1,0.1-1.4,0.3s-0.7,0.4-1,0.7c-0.2,0.3-0.3,0.6-0.3,1h-2.2c0-0.5,0.1-0.9,0.4-1.3c0.2-0.4,0.6-0.8,1-1.2s1-0.7,1.6-0.9
	s1.3-0.3,2.1-0.3c0.9,0,1.7,0.2,2.4,0.5s1.3,0.8,1.7,1.4c0.4,0.6,0.6,1.4,0.6,2.4v5.9c0,0.4,0,0.9,0.1,1.3c0.1,0.5,0.2,0.9,0.3,1.2
	v0.2H241c-0.1-0.2-0.2-0.6-0.3-1C240.7,143.6,240.7,143.2,240.7,142.8z M241.1,137.3v1.5h-2.2c-0.6,0-1.2,0.1-1.7,0.2
	c-0.5,0.1-0.9,0.2-1.2,0.4s-0.6,0.4-0.8,0.7s-0.3,0.6-0.3,1s0.1,0.8,0.3,1.1s0.4,0.6,0.8,0.8c0.4,0.2,0.8,0.3,1.3,0.3
	c0.7,0,1.2-0.1,1.8-0.4c0.5-0.3,0.9-0.6,1.2-1s0.5-0.8,0.5-1.2l0.9,1c-0.1,0.3-0.2,0.7-0.4,1.1s-0.6,0.8-1,1.1
	c-0.4,0.4-0.9,0.7-1.4,0.9s-1.2,0.4-1.9,0.4c-0.9,0-1.6-0.2-2.3-0.5c-0.6-0.3-1.1-0.8-1.5-1.3c-0.4-0.6-0.5-1.2-0.5-1.9
	s0.1-1.3,0.4-1.8c0.3-0.5,0.6-1,1.1-1.3c0.5-0.4,1.1-0.6,1.8-0.8s1.5-0.3,2.4-0.3H241.1z M248.4,134.8V145h-2.2v-12.7h2.1
	L248.4,134.8z M248,138.2h-1c0-0.9,0.1-1.7,0.3-2.4s0.5-1.4,1-1.9c0.4-0.5,1-1,1.6-1.3s1.4-0.5,2.2-0.5c0.6,0,1.1,0.1,1.6,0.3
	s0.9,0.4,1.3,0.8c0.4,0.4,0.7,0.8,0.9,1.4c0.2,0.6,0.3,1.2,0.3,2v8.4H254v-8.3c0-0.7-0.1-1.2-0.3-1.6c-0.2-0.4-0.5-0.7-0.9-0.9
	s-0.9-0.3-1.4-0.3c-0.6,0-1.2,0.1-1.6,0.3c-0.4,0.2-0.8,0.5-1,0.9c-0.3,0.4-0.4,0.9-0.6,1.4C248,137.1,248,137.6,248,138.2z
	 M256.2,137l-1.5,0.4c0-0.7,0.1-1.4,0.3-2s0.6-1.2,1-1.7c0.4-0.5,1-0.9,1.6-1.2s1.3-0.4,2.1-0.4c0.7,0,1.3,0.1,1.8,0.3
	s1,0.5,1.3,0.8c0.4,0.4,0.6,0.8,0.8,1.4c0.2,0.6,0.3,1.3,0.3,2.1v8.3h-2.2v-8.4c0-0.7-0.1-1.3-0.3-1.7c-0.2-0.4-0.5-0.7-0.9-0.8
	c-0.4-0.2-0.9-0.2-1.4-0.2s-0.9,0.1-1.3,0.2s-0.7,0.4-0.9,0.7c-0.2,0.3-0.4,0.6-0.6,1C256.2,136.2,256.2,136.6,256.2,137z
	 M274.7,141.6c0-0.3-0.1-0.6-0.2-0.9c-0.1-0.3-0.4-0.5-0.8-0.7s-1-0.4-1.9-0.6c-0.7-0.1-1.3-0.3-1.9-0.5s-1-0.4-1.4-0.7
	s-0.7-0.6-0.9-1c-0.2-0.4-0.3-0.8-0.3-1.4c0-0.5,0.1-1,0.3-1.4c0.2-0.4,0.5-0.8,0.9-1.2c0.4-0.3,0.9-0.6,1.5-0.8s1.2-0.3,1.9-0.3
	c1,0,1.9,0.2,2.6,0.5s1.3,0.8,1.7,1.4c0.4,0.6,0.6,1.3,0.6,2h-2.2c0-0.4-0.1-0.7-0.3-1c-0.2-0.3-0.5-0.6-0.9-0.8s-0.9-0.3-1.4-0.3
	c-0.6,0-1.1,0.1-1.5,0.3s-0.6,0.4-0.8,0.7c-0.2,0.3-0.2,0.6-0.2,0.9c0,0.2,0,0.4,0.1,0.6c0.1,0.2,0.2,0.3,0.4,0.5
	c0.2,0.1,0.5,0.3,0.9,0.4s0.9,0.3,1.5,0.4c1,0.2,1.9,0.5,2.6,0.8s1.2,0.7,1.5,1.2s0.5,1.1,0.5,1.7c0,0.6-0.1,1.1-0.4,1.5
	c-0.2,0.5-0.6,0.9-1,1.2s-0.9,0.6-1.5,0.8s-1.3,0.3-2,0.3c-1.1,0-2.1-0.2-2.8-0.6c-0.8-0.4-1.4-0.9-1.8-1.5s-0.6-1.3-0.6-2h2.2
	c0,0.6,0.2,1.1,0.5,1.4c0.3,0.3,0.7,0.6,1.1,0.7c0.5,0.1,0.9,0.2,1.3,0.2c0.6,0,1.1-0.1,1.5-0.2c0.4-0.2,0.7-0.4,0.9-0.6
	C274.6,142.3,274.7,142,274.7,141.6z"/>
<linearGradient id="SVGID_1_" gradientUnits="userSpaceOnUse" x1="160" y1="926" x2="160" y2="986" gradientTransform="matrix(1 0 0 1 0 -922)">
	<stop  offset="0" style="stop-color:#6F983F"/>
	<stop  offset="1" style="stop-color:#2E2E2E"/>
</linearGradient>
<path class="st1" d="M146.7,40.7v10 M160,40.7v10 M173.3,40.7v10 M130,64h60 M130,27.3h60 M130,17.3L160,4l30,13.3 M133.3,27.3h53.3
	V64h-53.3V27.3z"/>
<path class="st0" d="M968.3,101.8l3.4-11.9h1.6l-0.9,4.6l-3.6,12.4h-1.6L968.3,101.8z M964.8,89.9l2.7,11.7l0.8,5.4h-1.6l-4.1-17.1
	H964.8z M977.7,101.6l2.6-11.7h2.3l-4.1,17.1h-1.6L977.7,101.6z M973.5,89.9l3.3,11.9l1.2,5.2h-1.6l-3.5-12.4l-1-4.6L973.5,89.9
	L973.5,89.9z M991.8,104.8v-6.5c0-0.5-0.1-0.9-0.3-1.3s-0.5-0.7-0.9-0.9c-0.4-0.2-0.9-0.3-1.5-0.3c-0.5,0-1,0.1-1.4,0.3
	c-0.4,0.2-0.7,0.4-1,0.7c-0.2,0.3-0.3,0.6-0.3,1h-2.2c0-0.5,0.1-0.9,0.4-1.3c0.2-0.4,0.6-0.8,1-1.2c0.4-0.4,1-0.7,1.6-0.9
	c0.6-0.2,1.3-0.3,2.1-0.3c0.9,0,1.7,0.2,2.4,0.5s1.3,0.8,1.7,1.4s0.6,1.4,0.6,2.4v5.9c0,0.4,0,0.9,0.1,1.3c0.1,0.5,0.2,0.9,0.3,1.2
	v0.2h-2.3c-0.1-0.2-0.2-0.6-0.3-1C991.9,105.6,991.8,105.2,991.8,104.8z M992.2,99.3v1.5H990c-0.6,0-1.2,0.1-1.7,0.2
	s-0.9,0.2-1.2,0.4s-0.6,0.4-0.8,0.7c-0.2,0.3-0.3,0.6-0.3,1s0.1,0.8,0.3,1.1c0.2,0.3,0.4,0.6,0.8,0.8c0.4,0.2,0.8,0.3,1.3,0.3
	c0.7,0,1.2-0.1,1.8-0.4c0.5-0.3,0.9-0.6,1.2-1s0.5-0.8,0.5-1.2l0.9,1c-0.1,0.3-0.2,0.7-0.4,1.1s-0.6,0.8-1,1.1
	c-0.4,0.4-0.9,0.7-1.4,0.9c-0.5,0.2-1.2,0.4-1.9,0.4c-0.9,0-1.6-0.2-2.3-0.5c-0.6-0.3-1.1-0.8-1.5-1.3c-0.4-0.6-0.5-1.2-0.5-1.9
	c0-0.7,0.1-1.3,0.4-1.8c0.3-0.5,0.6-1,1.1-1.3c0.5-0.4,1.1-0.6,1.8-0.8s1.5-0.3,2.4-0.3L992.2,99.3L992.2,99.3z M1005.6,94.3h2v12.4
	c0,1.1-0.2,2.1-0.7,2.9s-1.1,1.4-1.9,1.8c-0.8,0.4-1.7,0.6-2.8,0.6c-0.4,0-1-0.1-1.5-0.2c-0.6-0.1-1.2-0.4-1.7-0.7
	c-0.6-0.3-1-0.8-1.4-1.3l1.1-1.3c0.5,0.6,1.1,1.1,1.7,1.3c0.6,0.2,1.2,0.4,1.7,0.4c0.7,0,1.3-0.1,1.8-0.4s0.9-0.6,1.2-1.1
	s0.4-1.1,0.4-1.9v-9.7L1005.6,94.3z M996.9,100.8v-0.2c0-1,0.1-1.8,0.3-2.6c0.2-0.8,0.6-1.5,1-2.1s1-1,1.6-1.3s1.3-0.5,2.1-0.5
	s1.5,0.1,2.1,0.4s1.1,0.7,1.5,1.2s0.8,1.2,1,1.9c0.2,0.7,0.4,1.6,0.5,2.5v1.1c-0.1,0.9-0.3,1.8-0.5,2.5s-0.6,1.4-1,1.9
	s-0.9,0.9-1.5,1.2c-0.6,0.3-1.3,0.4-2.1,0.4s-1.4-0.2-2.1-0.5c-0.6-0.3-1.1-0.8-1.6-1.3c-0.4-0.6-0.8-1.3-1-2
	C997,102.6,996.9,101.7,996.9,100.8z M999.1,100.6v0.2c0,0.6,0.1,1.2,0.2,1.8c0.1,0.6,0.3,1,0.6,1.5c0.3,0.4,0.6,0.8,1,1
	s0.9,0.4,1.5,0.4c0.7,0,1.3-0.2,1.8-0.5s0.8-0.7,1.1-1.2s0.5-1,0.7-1.6v-2.8c-0.1-0.4-0.2-0.8-0.4-1.2c-0.2-0.4-0.4-0.8-0.7-1.1
	c-0.3-0.3-0.6-0.6-1-0.8c-0.4-0.2-0.9-0.3-1.4-0.3c-0.6,0-1.1,0.1-1.5,0.4c-0.4,0.2-0.8,0.6-1,1c-0.3,0.4-0.5,0.9-0.6,1.5
	C999.1,99.3,999.1,99.9,999.1,100.6z M1016.1,107.2c-0.9,0-1.7-0.1-2.4-0.4s-1.3-0.7-1.8-1.3c-0.5-0.5-0.9-1.2-1.2-1.9
	c-0.3-0.8-0.4-1.6-0.4-2.5v-0.5c0-1,0.2-1.9,0.5-2.8c0.3-0.8,0.7-1.5,1.2-2.1s1.1-1,1.8-1.3s1.4-0.4,2.1-0.4c0.9,0,1.7,0.2,2.3,0.5
	c0.7,0.3,1.2,0.8,1.6,1.3c0.4,0.6,0.7,1.2,0.9,2s0.3,1.6,0.3,2.5v1h-9.5v-1.8h7.3v-0.2c0-0.6-0.2-1.1-0.4-1.6s-0.5-1-0.9-1.3
	s-1-0.5-1.8-0.5c-0.5,0-1,0.1-1.4,0.3c-0.4,0.2-0.8,0.5-1.1,0.9s-0.5,0.9-0.7,1.5s-0.2,1.3-0.2,2v0.5c0,0.6,0.1,1.2,0.2,1.7
	c0.2,0.5,0.4,1,0.7,1.4s0.7,0.7,1.2,0.9c0.5,0.2,1,0.3,1.6,0.3c0.8,0,1.4-0.2,2-0.5c0.5-0.3,1-0.7,1.4-1.3l1.3,1
	c-0.3,0.4-0.6,0.8-1,1.2c-0.4,0.4-0.9,0.7-1.6,0.9C1017.7,107.1,1017,107.2,1016.1,107.2z M1031,103.6c0-0.3-0.1-0.6-0.2-0.9
	s-0.4-0.5-0.8-0.7s-1-0.4-1.9-0.6c-0.7-0.1-1.3-0.3-1.9-0.5s-1.1-0.4-1.5-0.7c-0.4-0.3-0.7-0.6-0.9-1s-0.3-0.8-0.3-1.4
	c0-0.5,0.1-1,0.3-1.4s0.5-0.8,1-1.2c0.4-0.3,0.9-0.6,1.5-0.8c0.6-0.2,1.2-0.3,1.9-0.3c1,0,1.9,0.2,2.6,0.5c0.7,0.4,1.3,0.8,1.6,1.4
	c0.4,0.6,0.6,1.3,0.6,2h-2.2c0-0.4-0.1-0.7-0.3-1c-0.2-0.3-0.5-0.6-0.9-0.8c-0.4-0.2-0.9-0.3-1.4-0.3c-0.6,0-1.1,0.1-1.5,0.3
	c-0.4,0.2-0.6,0.4-0.8,0.7c-0.2,0.3-0.2,0.6-0.2,0.9c0,0.2,0,0.4,0.1,0.6s0.2,0.3,0.4,0.5c0.2,0.1,0.5,0.3,0.9,0.4s0.9,0.3,1.5,0.4
	c1,0.2,1.9,0.5,2.6,0.8s1.2,0.7,1.5,1.2s0.5,1.1,0.5,1.7s-0.1,1.1-0.3,1.5c-0.2,0.5-0.6,0.9-1,1.2c-0.4,0.3-0.9,0.6-1.5,0.8
	c-0.6,0.2-1.3,0.3-2,0.3c-1.1,0-2.1-0.2-2.8-0.6c-0.8-0.4-1.4-0.9-1.8-1.5c-0.4-0.6-0.6-1.3-0.6-2h2.2c0,0.6,0.2,1.1,0.5,1.4
	s0.7,0.6,1.2,0.7c0.4,0.1,0.9,0.2,1.3,0.2c0.6,0,1.1-0.1,1.5-0.2c0.4-0.2,0.7-0.4,0.9-0.6C1030.9,104.3,1031,104,1031,103.6z
	 M1044.1,96.8v15.1h-2.2V94.3h2L1044.1,96.8z M1052.7,100.6v0.2c0,0.9-0.1,1.8-0.3,2.6c-0.2,0.8-0.5,1.5-1,2c-0.4,0.6-0.9,1-1.5,1.3
	s-1.3,0.5-2.1,0.5c-0.8,0-1.5-0.1-2.1-0.4s-1.1-0.7-1.6-1.2c-0.4-0.5-0.8-1.1-1-1.8c-0.2-0.7-0.4-1.5-0.5-2.4v-1.3
	c0.1-0.9,0.3-1.8,0.5-2.5c0.3-0.7,0.6-1.4,1-1.9s0.9-0.9,1.6-1.2c0.6-0.3,1.3-0.4,2.1-0.4c0.8,0,1.5,0.2,2.1,0.5s1.1,0.7,1.6,1.3
	c0.4,0.6,0.7,1.3,0.9,2.1C1052.6,98.7,1052.7,99.6,1052.7,100.6z M1050.5,100.8v-0.2c0-0.6-0.1-1.2-0.2-1.8
	c-0.1-0.6-0.3-1.1-0.6-1.5c-0.3-0.4-0.6-0.8-1.1-1c-0.4-0.2-0.9-0.4-1.5-0.4c-0.5,0-1,0.1-1.4,0.3c-0.4,0.2-0.7,0.4-1,0.8
	c-0.3,0.3-0.5,0.7-0.7,1.1s-0.3,0.8-0.4,1.2v3c0.1,0.5,0.4,1.1,0.6,1.5c0.3,0.5,0.7,0.9,1.1,1.2c0.5,0.3,1.1,0.4,1.8,0.4
	c0.6,0,1.1-0.1,1.5-0.4c0.4-0.2,0.8-0.6,1.1-1c0.3-0.4,0.5-0.9,0.6-1.5C1050.4,102,1050.5,101.4,1050.5,100.8z M1062.9,104.8v-6.5
	c0-0.5-0.1-0.9-0.3-1.3c-0.2-0.4-0.5-0.7-0.9-0.9c-0.4-0.2-0.9-0.3-1.5-0.3c-0.5,0-1,0.1-1.4,0.3c-0.4,0.2-0.7,0.4-1,0.7
	c-0.2,0.3-0.3,0.6-0.3,1h-2.2c0-0.5,0.1-0.9,0.4-1.3c0.2-0.4,0.6-0.8,1-1.2c0.4-0.4,1-0.7,1.6-0.9c0.6-0.2,1.3-0.3,2.1-0.3
	c0.9,0,1.7,0.2,2.4,0.5c0.7,0.3,1.3,0.8,1.7,1.4c0.4,0.6,0.6,1.4,0.6,2.4v5.9c0,0.4,0,0.9,0.1,1.3c0.1,0.5,0.2,0.9,0.3,1.2v0.2h-2.3
	c-0.1-0.2-0.2-0.6-0.3-1C1062.9,105.6,1062.9,105.2,1062.9,104.8z M1063.3,99.3v1.5h-2.2c-0.6,0-1.2,0.1-1.7,0.2s-0.9,0.2-1.2,0.4
	s-0.6,0.4-0.8,0.7c-0.2,0.3-0.3,0.6-0.3,1s0.1,0.8,0.3,1.1c0.2,0.3,0.4,0.6,0.8,0.8c0.4,0.2,0.8,0.3,1.3,0.3c0.7,0,1.2-0.1,1.8-0.4
	s0.9-0.6,1.2-1c0.3-0.4,0.5-0.8,0.5-1.2l0.9,1c-0.1,0.3-0.2,0.7-0.4,1.1s-0.6,0.8-1,1.1c-0.4,0.4-0.9,0.7-1.4,0.9
	c-0.5,0.2-1.2,0.4-1.9,0.4c-0.9,0-1.6-0.2-2.3-0.5c-0.6-0.3-1.1-0.8-1.5-1.3c-0.3-0.6-0.5-1.2-0.5-1.9c0-0.7,0.1-1.3,0.4-1.8
	s0.7-1,1.2-1.3c0.5-0.4,1.1-0.6,1.8-0.8c0.7-0.2,1.5-0.3,2.3-0.3L1063.3,99.3L1063.3,99.3z M1070.8,94.3V107h-2.2V94.3H1070.8z
	 M1068.5,91c0-0.4,0.1-0.6,0.3-0.9c0.2-0.2,0.5-0.4,1-0.4c0.4,0,0.7,0.1,0.9,0.4c0.2,0.2,0.3,0.5,0.3,0.9c0,0.3-0.1,0.6-0.3,0.9
	c-0.2,0.2-0.5,0.4-0.9,0.4s-0.7-0.1-1-0.4C1068.6,91.6,1068.5,91.3,1068.5,91z M1082.3,104.5V89h2.2v18h-2L1082.3,104.5z
	 M1073.8,100.8v-0.2c0-1,0.1-1.8,0.3-2.6c0.2-0.8,0.6-1.5,1-2.1s1-1,1.6-1.3s1.3-0.5,2.1-0.5c0.8,0,1.5,0.1,2.1,0.4s1.1,0.7,1.5,1.2
	s0.8,1.2,1,1.9c0.2,0.7,0.4,1.6,0.5,2.5v1.1c-0.1,0.9-0.3,1.8-0.5,2.5s-0.6,1.4-1,1.9s-0.9,0.9-1.5,1.2c-0.6,0.3-1.3,0.4-2.1,0.4
	c-0.7,0-1.4-0.2-2-0.5s-1.1-0.8-1.6-1.3c-0.4-0.6-0.8-1.3-1-2C1073.9,102.6,1073.8,101.7,1073.8,100.8z M1076,100.6v0.2
	c0,0.6,0.1,1.2,0.2,1.8s0.3,1,0.6,1.5c0.3,0.4,0.6,0.8,1,1s0.9,0.4,1.5,0.4c0.7,0,1.3-0.2,1.8-0.5s0.9-0.7,1.1-1.2
	c0.3-0.5,0.5-1,0.7-1.6v-2.8c-0.1-0.4-0.2-0.8-0.4-1.2c-0.2-0.4-0.4-0.8-0.7-1.1c-0.3-0.3-0.6-0.6-1-0.8c-0.4-0.2-0.9-0.3-1.4-0.3
	c-0.6,0-1.1,0.1-1.5,0.4c-0.4,0.2-0.8,0.6-1,1c-0.3,0.4-0.5,0.9-0.6,1.5C1076,99.3,1076,99.9,1076,100.6z"/>
<linearGradient id="SVGID_2_" gradientUnits="userSpaceOnUse" x1="1024" y1="927" x2="1024" y2="987" gradientTransform="matrix(1 0 0 1 0 -922)">
	<stop  offset="0" style="stop-color:#6F983F"/>
	<stop  offset="1" style="stop-color:#2E2E2E"/>
</linearGradient>
<linearGradient id="SVGID_3_" gradientUnits="userSpaceOnUse" x1="991.5" y1="35" x2="1056.5" y2="35">
	<stop  offset="5.347593e-03" style="stop-color:#6F983F"/>
	<stop  offset="0.9947" style="stop-color:#2E2E2E"/>
</linearGradient>
<path class="st2" d="M1031.2,26.3c0.7,0.8,2,0.9,2.8,0.2c0.8-0.7,0.9-2,0.2-2.8L1031.2,26.3z M1016.8,43.7c-0.7-0.8-2-0.9-2.8-0.2
	s-0.9,2-0.2,2.8L1016.8,43.7z M1026,18.3c0-1.1-0.9-2-2-2s-2,0.9-2,2H1026z M1022,51.7c0,1.1,0.9,2,2,2s2-0.9,2-2H1022z M1052,35
	c0,15.5-12.5,28-28,28v4c17.7,0,32-14.3,32-32H1052z M1024,63c-15.5,0-28-12.5-28-28h-4c0,17.7,14.3,32,32,32V63z M996,35
	c0-15.5,12.5-28,28-28V3c-17.7,0-32,14.3-32,32H996z M1024,7c15.5,0,28,12.5,28,28h4c0-17.7-14.3-32-32-32V7z M1024,33
	c-2.4,0-4.5-0.7-6-1.6c-1.4-1-2-2.1-2-3.1h-4c0,2.7,1.7,4.9,3.8,6.4c2.2,1.5,5.1,2.3,8.2,2.3V33z M1016,28.3c0-1,0.6-2.1,2-3
	c1.4-1,3.5-1.6,6-1.6v-4c-3.1,0-6,0.8-8.2,2.3c-2.2,1.4-3.8,3.7-3.8,6.4L1016,28.3L1016,28.3z M1024,23.7c3.3,0,5.9,1.2,7.2,2.6
	l3-2.6c-2.2-2.5-6.1-4-10.2-4L1024,23.7L1024,23.7z M1024,37c2.4,0,4.5,0.7,6,1.6c1.5,1,2,2.1,2,3h4c0-2.7-1.7-4.9-3.8-6.4
	c-2.2-1.5-5.1-2.3-8.2-2.3L1024,37L1024,37z M1022,18.3v3.3h4v-3.3H1022z M1022,48.3v3.3h4v-3.3H1022z M1024,46.3
	c-3.3,0-5.9-1.2-7.2-2.6l-3,2.6c2.2,2.5,6.1,4,10.2,4V46.3z M1032,41.7c0,1-0.6,2.1-2,3c-1.4,1-3.5,1.6-6,1.6v4c3.1,0,6-0.8,8.2-2.3
	c2.2-1.4,3.8-3.7,3.8-6.4h-4V41.7z M1022,21.7v26.7h4V21.7H1022z"/>
<path class="st0" d="M399.5,100.3h-4.6v-1.8h4.6c0.9,0,1.6-0.1,2.1-0.4s0.9-0.7,1.2-1.2c0.3-0.5,0.4-1.1,0.4-1.7s-0.1-1.1-0.4-1.7
	c-0.2-0.5-0.6-0.9-1.2-1.2c-0.5-0.3-1.3-0.5-2.1-0.5h-4V107h-2.3V89.9h6.3c1.3,0,2.4,0.2,3.3,0.7c0.9,0.4,1.6,1.1,2,1.9
	c0.5,0.8,0.7,1.7,0.7,2.7c0,1.1-0.2,2-0.7,2.8s-1.1,1.4-2,1.8C401.8,100.1,400.8,100.3,399.5,100.3z M414.6,100.3H410v-1.8h4.6
	c0.9,0,1.6-0.1,2.1-0.4s0.9-0.7,1.2-1.2c0.3-0.5,0.4-1.1,0.4-1.7s-0.1-1.1-0.4-1.7c-0.2-0.5-0.6-0.9-1.2-1.2
	c-0.5-0.3-1.3-0.5-2.1-0.5h-4V107h-2.3V89.9h6.3c1.3,0,2.4,0.2,3.3,0.7s1.6,1.1,2,1.9c0.5,0.8,0.7,1.7,0.7,2.7c0,1.1-0.2,2-0.7,2.8
	s-1.1,1.4-2,1.8C417,100.1,415.9,100.3,414.6,100.3z M429.7,100.3h-4.6v-1.8h4.6c0.9,0,1.6-0.1,2.1-0.4s0.9-0.7,1.2-1.2
	c0.3-0.5,0.4-1.1,0.4-1.7s-0.1-1.1-0.4-1.7c-0.2-0.5-0.6-0.9-1.2-1.2c-0.5-0.3-1.3-0.5-2.1-0.5h-4V107h-2.3V89.9h6.3
	c1.3,0,2.4,0.2,3.3,0.7c0.9,0.4,1.6,1.1,2,1.9c0.5,0.8,0.7,1.7,0.7,2.7c0,1.1-0.2,2-0.7,2.8s-1.1,1.4-2,1.8
	C432.1,100.1,431,100.3,429.7,100.3z M446.6,89v18h-2.2V89H446.6z M449.5,100.8v-0.3c0-0.9,0.1-1.8,0.4-2.5c0.3-0.8,0.6-1.5,1.1-2.1
	s1.1-1,1.8-1.4c0.7-0.3,1.5-0.5,2.4-0.5s1.7,0.2,2.4,0.5c0.7,0.3,1.3,0.8,1.8,1.4s0.9,1.3,1.2,2.1c0.3,0.8,0.4,1.6,0.4,2.5v0.3
	c0,0.9-0.1,1.8-0.4,2.5c-0.3,0.8-0.7,1.5-1.2,2.1s-1.1,1-1.8,1.4c-0.7,0.3-1.5,0.5-2.4,0.5s-1.7-0.2-2.4-0.5
	c-0.7-0.3-1.3-0.8-1.8-1.4s-0.9-1.3-1.1-2.1C449.6,102.6,449.5,101.7,449.5,100.8z M451.6,100.5v0.3c0,0.6,0.1,1.2,0.2,1.8
	c0.1,0.6,0.4,1,0.7,1.5c0.3,0.4,0.7,0.8,1.1,1c0.5,0.2,1,0.4,1.6,0.4s1.1-0.1,1.6-0.4c0.5-0.2,0.8-0.6,1.1-1
	c0.3-0.4,0.5-0.9,0.7-1.5s0.2-1.2,0.2-1.8v-0.3c0-0.6-0.1-1.2-0.2-1.8c-0.1-0.6-0.4-1.1-0.7-1.5c-0.3-0.4-0.7-0.8-1.1-1
	s-1-0.4-1.6-0.4s-1.1,0.1-1.6,0.4c-0.4,0.2-0.8,0.6-1.1,1c-0.3,0.4-0.5,0.9-0.7,1.5C451.7,99.3,451.6,99.9,451.6,100.5z
	 M471.2,104.8v-6.5c0-0.5-0.1-0.9-0.3-1.3c-0.2-0.4-0.5-0.7-0.9-0.9c-0.4-0.2-0.9-0.3-1.5-0.3c-0.5,0-1,0.1-1.4,0.3
	c-0.4,0.2-0.7,0.4-1,0.7c-0.2,0.3-0.3,0.6-0.3,1h-2.2c0-0.5,0.1-0.9,0.4-1.3c0.2-0.4,0.6-0.8,1-1.2c0.4-0.4,1-0.7,1.6-0.9
	c0.6-0.2,1.3-0.3,2.1-0.3c0.9,0,1.7,0.2,2.4,0.5c0.7,0.3,1.3,0.8,1.7,1.4c0.4,0.6,0.6,1.4,0.6,2.4v5.9c0,0.4,0,0.9,0.1,1.3
	c0.1,0.5,0.2,0.9,0.3,1.2v0.2h-2.3c-0.1-0.2-0.2-0.6-0.3-1C471.2,105.6,471.2,105.2,471.2,104.8z M471.6,99.3v1.5h-2.2
	c-0.6,0-1.2,0.1-1.7,0.2s-0.9,0.2-1.2,0.4s-0.6,0.4-0.8,0.7c-0.2,0.3-0.3,0.6-0.3,1s0.1,0.8,0.3,1.1c0.2,0.3,0.4,0.6,0.8,0.8
	c0.4,0.2,0.8,0.3,1.3,0.3c0.7,0,1.2-0.1,1.8-0.4c0.5-0.3,0.9-0.6,1.2-1c0.3-0.4,0.5-0.8,0.5-1.2l0.9,1c-0.1,0.3-0.2,0.7-0.4,1.1
	s-0.6,0.8-1,1.1c-0.4,0.4-0.9,0.7-1.4,0.9c-0.5,0.2-1.2,0.4-1.9,0.4c-0.9,0-1.6-0.2-2.3-0.5c-0.6-0.3-1.1-0.8-1.5-1.3
	c-0.4-0.6-0.5-1.2-0.5-1.9c0-0.7,0.1-1.3,0.4-1.8s0.6-1,1.1-1.3c0.5-0.4,1.1-0.6,1.8-0.8s1.5-0.3,2.4-0.3L471.6,99.3L471.6,99.3z
	 M479,97v10h-2.2V94.3h2.1L479,97z M478.4,100.2h-0.9c0-0.9,0.1-1.7,0.4-2.4c0.2-0.7,0.6-1.4,1.1-1.9s1-1,1.6-1.3s1.3-0.5,2.1-0.5
	c0.6,0,1.2,0.1,1.7,0.3c0.5,0.2,0.9,0.4,1.3,0.8s0.6,0.8,0.8,1.4c0.2,0.6,0.3,1.3,0.3,2.1v8.3h-2.2v-8.3c0-0.7-0.1-1.2-0.3-1.6
	c-0.2-0.4-0.5-0.7-0.9-0.9c-0.4-0.2-0.8-0.3-1.4-0.3c-0.5,0-1,0.1-1.5,0.3c-0.4,0.2-0.8,0.5-1.1,0.9c-0.3,0.4-0.6,0.9-0.7,1.4
	C478.5,99.1,478.4,99.6,478.4,100.2z M497.4,103.6c0-0.3-0.1-0.6-0.2-0.9s-0.4-0.5-0.8-0.7s-1-0.4-1.9-0.6c-0.7-0.1-1.3-0.3-1.9-0.5
	s-1-0.4-1.4-0.7c-0.4-0.3-0.7-0.6-0.9-1c-0.2-0.4-0.3-0.8-0.3-1.4c0-0.5,0.1-1,0.3-1.4c0.2-0.4,0.5-0.8,0.9-1.2
	c0.4-0.3,0.9-0.6,1.5-0.8c0.6-0.2,1.2-0.3,1.9-0.3c1,0,1.9,0.2,2.6,0.5s1.3,0.8,1.7,1.4c0.4,0.6,0.6,1.3,0.6,2h-2.2
	c0-0.4-0.1-0.7-0.3-1c-0.2-0.3-0.5-0.6-0.9-0.8c-0.4-0.2-0.9-0.3-1.4-0.3c-0.6,0-1.1,0.1-1.5,0.3c-0.4,0.2-0.6,0.4-0.8,0.7
	c-0.2,0.3-0.2,0.6-0.2,0.9c0,0.2,0,0.4,0.1,0.6s0.2,0.3,0.4,0.5c0.2,0.1,0.5,0.3,0.9,0.4s0.9,0.3,1.5,0.4c1,0.2,1.9,0.5,2.6,0.8
	s1.2,0.7,1.5,1.2s0.5,1.1,0.5,1.7s-0.1,1.1-0.4,1.5c-0.2,0.5-0.6,0.9-1,1.2c-0.4,0.3-0.9,0.6-1.5,0.8c-0.6,0.2-1.3,0.3-2,0.3
	c-1.1,0-2.1-0.2-2.8-0.6c-0.8-0.4-1.4-0.9-1.8-1.5s-0.6-1.3-0.6-2h2.2c0,0.6,0.2,1.1,0.5,1.4s0.7,0.6,1.1,0.7
	c0.5,0.1,0.9,0.2,1.3,0.2c0.6,0,1.1-0.1,1.5-0.2c0.4-0.2,0.7-0.4,0.9-0.6C497.3,104.3,497.4,104,497.4,103.6z"/>
<linearGradient id="SVGID_4_" gradientUnits="userSpaceOnUse" x1="454.5001" y1="121.5" x2="465.5001" y2="121.5" gradientTransform="matrix(1 0 0 -1 0 158)">
	<stop  offset="0" style="stop-color:#6F983F"/>
	<stop  offset="1" style="stop-color:#2E2E2E"/>
</linearGradient>
<path class="st3" d="M455.7,41.5c0.7,1.1,1.8,1.7,3.3,1.9V45c0,0.6,0.4,1,1,1s1-0.4,1-1v-1.6c0.8-0.1,1.6-0.4,2.3-0.8
	c0.9-0.5,1.5-1.4,1.6-2.4c0.2-1.9-0.9-3.6-2.8-4.1c-0.4-0.1-0.8-0.2-1.2-0.3V32c0.4,0.1,0.7,0.2,1,0.4c0.5,0.3,0.8,0.9,1,1.4
	c0.2,0.4,0.5,0.8,0.9,1c0.5,0.1,1-0.2,1.1-0.7c0.1-0.6-0.1-1.3-0.7-2.2c-0.4-0.5-0.8-0.9-1.3-1.2c-0.6-0.4-1.3-0.6-2-0.7v-2
	c0-0.6-0.4-1-1-1s-1,0.4-1,1v2.1c-0.2,0-0.3,0.1-0.5,0.1c-1.4,0.4-2.7,1.3-3.1,2.8c-0.2,1-0.1,2.2,0.6,3c0.8,0.8,1.9,1.1,2.9,1.4
	v4.1c-0.6-0.2-1.2-0.5-1.5-1s-0.5-1-0.8-1.5c-0.4-0.5-1.2-0.6-1.5,0c-0.2,0.5-0.1,1.1,0.1,1.6C455.4,41,455.5,41.3,455.7,41.5
	L455.7,41.5z M461,37.8c0.2,0.1,0.4,0.1,0.6,0.2c1.2,0.4,1.8,1.8,0.9,2.8c-0.4,0.4-0.9,0.7-1.5,0.8V37.8z M457.5,34.3
	c-0.6-1,0.4-2,1.3-2.3c0.1,0,0.1,0,0.2,0v3.3C458.4,35.1,457.8,34.8,457.5,34.3L457.5,34.3z"/>
<linearGradient id="SVGID_5_" gradientUnits="userSpaceOnUse" x1="460.5" y1="926" x2="460.5" y2="990" gradientTransform="matrix(1 0 0 1 0 -922)">
	<stop  offset="0" style="stop-color:#5514E6"/>
	<stop  offset="1" style="stop-color:#CD29FF"/>
</linearGradient>
<linearGradient id="SVGID_6_" gradientUnits="userSpaceOnUse" x1="444.4999" y1="123.1" x2="476.5001" y2="123.1" gradientTransform="matrix(1 0 0 -1 0 158)">
	<stop  offset="0" style="stop-color:#6F983F"/>
	<stop  offset="1" style="stop-color:#2E2E2E"/>
</linearGradient>
<path class="st4" d="M445,40.5c0.5,6.8,7.1,10.1,13.2,10.4c0.6,0,3.9,0,4.6,0c6.1-0.3,12.7-3.6,13.2-10.4c0.4-5.7-2.4-10.3-5.7-14.6
	c-1.8-2.3-4.1-4.6-5.8-7h-7.9c-1.7,2.4-4,4.7-5.8,7C447.4,30.3,444.6,34.8,445,40.5L445,40.5z M463.5,21c0.9,1.2,4.5,5.3,5.2,6.2
	c3,3.8,5.7,8.1,5.3,13.2c-0.4,5.6-6,8.3-11.3,8.6c-0.7,0-3.7,0-4.3,0h-0.1c-5.4-0.3-10.9-3.1-11.3-8.6c-0.4-5.2,2.4-9.4,5.3-13.2
	c0.7-0.9,4.3-5,5.2-6.2H463.5z"/>
<linearGradient id="SVGID_7_" gradientUnits="userSpaceOnUse" x1="454.5" y1="142" x2="466.5" y2="142" gradientTransform="matrix(1 0 0 -1 0 158)">
	<stop  offset="0" style="stop-color:#6F983F"/>
	<stop  offset="1" style="stop-color:#2E2E2E"/>
</linearGradient>
<path class="st5" d="M456,15c-0.6,0-1,0.4-1,1s0.4,1,1,1h9c0.6,0,1-0.4,1-1s-0.4-1-1-1H456z"/>
<linearGradient id="SVGID_8_" gradientUnits="userSpaceOnUse" x1="453.5" y1="149.4" x2="466.4999" y2="149.4" gradientTransform="matrix(1 0 0 -1 0 158)">
	<stop  offset="0" style="stop-color:#6F983F"/>
	<stop  offset="1" style="stop-color:#2E2E2E"/>
</linearGradient>
<path class="st6" d="M465,4c-1.3,0-1.8,1.4-2.9,1.9c-0.3,0.1-0.7,0.2-1,0.1c-0.6-0.2-0.8-0.9-1.3-1.2c-0.7-0.4-1.2,0.6-1.6,1
	s-1,0.7-1.6,0.4c-0.6-0.2-1.1-0.8-1.7-0.9C454.5,5.2,454,5.5,454,6s0.4,1,0.7,1.4c0,0,1.2,1.6,1.9,5.8h6.5c0.3-2,0.8-3.9,1.7-5.6
	c0.4-0.7,1.5-2,1.2-2.9C465.8,4.1,465.4,4,465,4L465,4z M461.4,11h-3.2c-0.3-1.1-0.5-2.1-0.8-2.8c0.6-0.1,1.3-0.3,2-0.9
	c0.8,0.7,1.9,0.9,2.9,0.6C461.9,8.9,461.6,9.9,461.4,11L461.4,11z"/>
<linearGradient id="SVGID_9_" gradientUnits="userSpaceOnUse" x1="413.5" y1="102" x2="478.5375" y2="102" gradientTransform="matrix(1 0 0 -1 0 158)">
	<stop  offset="0" style="stop-color:#6F983F"/>
	<stop  offset="1" style="stop-color:#2E2E2E"/>
</linearGradient>
<path class="st7" d="M474,53.1c-0.1,0-10.8,2-17.1,3.2c-0.5,0.1-0.9,0.6-0.8,1.2c0.1,0.5,0.6,0.9,1.2,0.8c5.8-1.1,16.8-3.2,17.1-3.2
	c0.6-0.1,1.5,0,1.7,0.6c0.5,1.8-3.2,3.3-5,4c-0.3,0.1-10.3,4.1-13.5,5.1c-4.6,1.5-8.3,1.6-11.6,0.5c-2-0.7-10.8-5.4-13.5-6.1
	c-1.6-0.4-3.1-0.4-4.3,0.2l-2,1.1V50.3l6.1-1.8c0.1,0,5.1-1.6,9.8,1.1c0,0,5.7,3.2,6,3.3c1.2,0.6,3.9,2.1,4.3,3.4
	c0,0.2,0.1,0.5-0.2,0.8c-0.4,0.4-2.3,0.4-8.9-1.9c-0.9-0.3-1.6-0.5-2-0.6c-0.5-0.1-1.1,0.2-1.2,0.7s0.2,1.1,0.7,1.2
	c0.3,0.1,1,0.3,1.8,0.6c5.3,1.8,9.8,3.2,11.2,1.2c0.5-0.8,0.7-1.6,0.5-2.4c-0.6-2.2-3.6-3.9-5.3-4.7c-0.2-0.1-5.9-3.3-5.9-3.3
	c-5.5-3-11.1-1.3-11.4-1.2l-5.5,1.6V48c0-2.2-1.8-4-4-4h-8v23.5h8c2.2,0,4-1.8,4-4v-0.7l2.9-1.6c1-0.4,2.1-0.3,2.9-0.1
	c2.5,0.6,11.2,5.3,13.4,6.1c1.6,0.6,3.3,0.8,5.2,0.8c2.3,0,4.9-0.4,7.7-1.3c3.2-1,13.4-5.1,13.6-5.2c2.5-1,7.2-2.9,6.2-6.4
	C477.4,53.4,475.5,52.9,474,53.1z M424,63.5c0,1.1-0.9,2-2,2h-6V46h6c1.1,0,2,0.9,2,2V63.5L424,63.5z"/>
<linearGradient id="SVGID_10_" gradientUnits="userSpaceOnUse" x1="454.891" y1="36.5" x2="464.9246" y2="36.5">
	<stop  offset="0" style="stop-color:#6F983F"/>
	<stop  offset="1" style="stop-color:#2E2E2E"/>
</linearGradient>
<linearGradient id="SVGID_11_" gradientUnits="userSpaceOnUse" x1="459.9078" y1="926" x2="459.9078" y2="990" gradientTransform="matrix(1 0 0 1 0 -922)">
	<stop  offset="0" style="stop-color:#6F983F"/>
	<stop  offset="1" style="stop-color:#2E2E2E"/>
</linearGradient>
<path class="st8" d="M455.7,41.5c0.7,1.1,1.8,1.7,3.3,1.9V45c0,0.6,0.4,1,1,1s1-0.4,1-1v-1.6c0.8-0.1,1.6-0.4,2.3-0.8
	c0.9-0.5,1.5-1.4,1.6-2.4c0.2-1.9-0.9-3.6-2.8-4.1c-0.4-0.1-0.8-0.2-1.2-0.3V32c0.4,0.1,0.7,0.2,1,0.4c0.5,0.3,0.8,0.9,1,1.4
	c0.2,0.4,0.5,0.8,0.9,1c0.5,0.1,1-0.2,1.1-0.7c0.1-0.6-0.1-1.3-0.7-2.2c-0.4-0.5-0.8-0.9-1.3-1.2c-0.6-0.4-1.3-0.6-2-0.7v-2
	c0-0.6-0.4-1-1-1s-1,0.4-1,1v2.1c-0.2,0-0.3,0.1-0.5,0.1c-1.4,0.4-2.7,1.3-3.1,2.8c-0.2,1-0.1,2.2,0.6,3c0.8,0.8,1.9,1.1,2.9,1.4
	v4.1c-0.6-0.2-1.2-0.5-1.5-1s-0.5-1-0.8-1.5c-0.4-0.5-1.2-0.6-1.5,0c-0.2,0.5-0.1,1.1,0.1,1.6C455.4,41,455.5,41.3,455.7,41.5
	L455.7,41.5z M461,37.8c0.2,0.1,0.4,0.1,0.6,0.2c1.2,0.4,1.8,1.8,0.9,2.8c-0.4,0.4-0.9,0.7-1.5,0.8V37.8z M457.5,34.3
	c-0.6-1,0.4-2,1.3-2.3c0.1,0,0.1,0,0.2,0v3.3C458.4,35.1,457.8,34.8,457.5,34.3L457.5,34.3z"/>
<linearGradient id="SVGID_12_" gradientUnits="userSpaceOnUse" x1="444.4619" y1="34.9" x2="476.5382" y2="34.9">
	<stop  offset="0" style="stop-color:#6F983F"/>
	<stop  offset="1" style="stop-color:#2E2E2E"/>
</linearGradient>
<path class="st9" d="M445,40.5c0.5,6.8,7.1,10.1,13.2,10.4c0.6,0,3.9,0,4.6,0c6.1-0.3,12.7-3.6,13.2-10.4c0.4-5.7-2.4-10.3-5.7-14.6
	c-1.8-2.3-4.1-4.6-5.8-7h-7.9c-1.7,2.4-4,4.7-5.8,7C447.4,30.3,444.6,34.8,445,40.5L445,40.5z M463.5,21c0.9,1.2,4.5,5.3,5.2,6.2
	c3,3.8,5.7,8.1,5.3,13.2c-0.4,5.6-6,8.3-11.3,8.6c-0.7,0-3.7,0-4.3,0h-0.1c-5.4-0.3-10.9-3.1-11.3-8.6c-0.4-5.2,2.4-9.4,5.3-13.2
	c0.7-0.9,4.3-5,5.2-6.2H463.5z"/>
<linearGradient id="SVGID_13_" gradientUnits="userSpaceOnUse" x1="455" y1="16" x2="466" y2="16">
	<stop  offset="0" style="stop-color:#6F983F"/>
	<stop  offset="1" style="stop-color:#2E2E2E"/>
</linearGradient>
<linearGradient id="SVGID_14_" gradientUnits="userSpaceOnUse" x1="460.5" y1="926" x2="460.5" y2="990" gradientTransform="matrix(1 0 0 1 0 -922)">
	<stop  offset="0" style="stop-color:#6F983F"/>
	<stop  offset="1" style="stop-color:#2E2E2E"/>
</linearGradient>
<path class="st10" d="M456,15c-0.6,0-1,0.4-1,1s0.4,1,1,1h9c0.6,0,1-0.4,1-1s-0.4-1-1-1H456z"/>
<linearGradient id="SVGID_15_" gradientUnits="userSpaceOnUse" x1="454" y1="8.6" x2="466.0512" y2="8.6">
	<stop  offset="0" style="stop-color:#6F983F"/>
	<stop  offset="1" style="stop-color:#2E2E2E"/>
</linearGradient>
<linearGradient id="SVGID_16_" gradientUnits="userSpaceOnUse" x1="460.0256" y1="926" x2="460.0256" y2="990" gradientTransform="matrix(1 0 0 1 0 -922)">
	<stop  offset="0" style="stop-color:#6F983F"/>
	<stop  offset="1" style="stop-color:#2E2E2E"/>
</linearGradient>
<path class="st11" d="M465,4c-1.3,0-1.8,1.4-2.9,1.9c-0.3,0.1-0.7,0.2-1,0.1c-0.6-0.2-0.8-0.9-1.3-1.2c-0.7-0.4-1.2,0.6-1.6,1
	s-1,0.7-1.6,0.4c-0.6-0.2-1.1-0.8-1.7-0.9C454.5,5.2,454,5.5,454,6s0.4,1,0.7,1.4c0,0,1.2,1.6,1.9,5.8h6.5c0.3-2,0.8-3.9,1.7-5.6
	c0.4-0.7,1.5-2,1.2-2.9C465.8,4.1,465.4,4,465,4L465,4z M461.4,11h-3.2c-0.3-1.1-0.5-2.1-0.8-2.8c0.6-0.1,1.3-0.3,2-0.9
	c0.8,0.7,1.9,0.9,2.9,0.6C461.9,8.9,461.6,9.9,461.4,11L461.4,11z"/>
<linearGradient id="SVGID_17_" gradientUnits="userSpaceOnUse" x1="414.2" y1="56" x2="478.2375" y2="56">
	<stop  offset="0" style="stop-color:#6F983F"/>
	<stop  offset="1" style="stop-color:#2E2E2E"/>
</linearGradient>
<linearGradient id="SVGID_18_" gradientUnits="userSpaceOnUse" x1="446.2188" y1="926" x2="446.2188" y2="990" gradientTransform="matrix(1 0 0 1 0 -922)">
	<stop  offset="0" style="stop-color:#6F983F"/>
	<stop  offset="1" style="stop-color:#2E2E2E"/>
</linearGradient>
<path class="st12" d="M474,53.1c-0.1,0-10.8,2-17.1,3.2c-0.5,0.1-0.9,0.6-0.8,1.2c0.1,0.5,0.6,0.9,1.2,0.8
	c5.8-1.1,16.8-3.2,17.1-3.2c0.6-0.1,1.5,0,1.7,0.6c0.5,1.8-3.2,3.3-5,4c-0.3,0.1-10.3,4.1-13.5,5.1c-4.6,1.5-8.3,1.6-11.6,0.5
	c-2-0.7-10.8-5.4-13.5-6.1c-1.6-0.4-3.1-0.4-4.3,0.2l-2,1.1V50.3l6.1-1.8c0.1,0,5.1-1.6,9.8,1.1c0,0,5.7,3.2,6,3.3
	c1.2,0.6,3.9,2.1,4.3,3.4c0,0.2,0.1,0.5-0.2,0.8c-0.4,0.4-2.3,0.4-8.9-1.9c-0.9-0.3-1.6-0.5-2-0.6c-0.5-0.1-1.1,0.2-1.2,0.7
	s0.2,1.1,0.7,1.2c0.3,0.1,1,0.3,1.8,0.6c5.3,1.8,9.8,3.2,11.2,1.2c0.5-0.8,0.7-1.6,0.5-2.4c-0.6-2.2-3.6-3.9-5.3-4.7
	c-0.2-0.1-5.9-3.3-5.9-3.3c-5.5-3-11.1-1.3-11.4-1.2l-5.5,1.6V48c0-2.2-1.8-4-4-4h-8v23.5h8c2.2,0,4-1.8,4-4v-0.7l2.9-1.6
	c1-0.4,2.1-0.3,2.9-0.1c2.5,0.6,11.2,5.3,13.4,6.1c1.6,0.6,3.3,0.8,5.2,0.8c2.3,0,4.9-0.4,7.7-1.3c3.2-1,13.4-5.1,13.6-5.2
	c2.5-1,7.2-2.9,6.2-6.4C477.4,53.4,475.5,52.9,474,53.1z M424,63.5c0,1.1-0.9,2-2,2h-6V46h6c1.1,0,2,0.9,2,2V63.5L424,63.5z"/>
<path class="st0" d="M623.5,98.5v6.2c-0.2,0.3-0.5,0.7-1,1.1s-1.1,0.7-1.9,1c-0.8,0.3-1.8,0.4-3.1,0.4c-1,0-2-0.2-2.9-0.5
	c-0.9-0.4-1.6-0.9-2.3-1.6c-0.6-0.7-1.1-1.6-1.5-2.6c-0.3-1-0.5-2.1-0.5-3.4v-1.3c0-1.3,0.1-2.4,0.4-3.4c0.3-1,0.8-1.8,1.3-2.5
	c0.6-0.7,1.3-1.2,2.2-1.6s1.8-0.6,2.9-0.6c1.3,0,2.4,0.2,3.3,0.7c0.9,0.4,1.6,1.1,2.1,1.9s0.8,1.7,1,2.7h-2.3
	c-0.1-0.6-0.3-1.2-0.6-1.7s-0.7-0.9-1.3-1.2c-0.6-0.3-1.3-0.5-2.1-0.5s-1.5,0.1-2.1,0.4s-1.1,0.7-1.4,1.2c-0.4,0.5-0.7,1.2-0.8,2
	c-0.2,0.8-0.3,1.6-0.3,2.6v1.3c0,1,0.1,1.9,0.3,2.6c0.2,0.8,0.6,1.4,1,2c0.4,0.5,0.9,0.9,1.5,1.2c0.6,0.3,1.3,0.4,2,0.4
	c0.8,0,1.5-0.1,2-0.2s0.9-0.3,1.2-0.5s0.5-0.4,0.6-0.6v-3.8h-4v-1.8h6.3V98.5z M629.1,96.3V107h-2.2V94.3h2.1L629.1,96.3z
	 M633.1,94.2v2c-0.2,0-0.4-0.1-0.5-0.1c-0.2,0-0.3,0-0.5,0c-0.5,0-0.9,0.1-1.3,0.2c-0.4,0.2-0.7,0.4-1,0.7c-0.3,0.3-0.5,0.6-0.6,1
	s-0.2,0.8-0.3,1.3l-0.6,0.4c0-0.8,0.1-1.5,0.2-2.2c0.2-0.7,0.4-1.3,0.7-1.8s0.7-0.9,1.2-1.2c0.5-0.3,1.1-0.4,1.8-0.4
	c0.2,0,0.3,0,0.5,0.1C632.8,94.2,633,94.2,633.1,94.2z M634.3,100.8v-0.3c0-0.9,0.1-1.8,0.4-2.5c0.3-0.8,0.6-1.5,1.1-2.1
	s1.1-1,1.8-1.4c0.7-0.3,1.5-0.5,2.4-0.5s1.7,0.2,2.4,0.5s1.3,0.8,1.8,1.4s0.9,1.3,1.2,2.1c0.3,0.8,0.4,1.6,0.4,2.5v0.3
	c0,0.9-0.1,1.8-0.4,2.5c-0.3,0.8-0.7,1.5-1.2,2.1s-1.1,1-1.8,1.4c-0.7,0.3-1.5,0.5-2.4,0.5s-1.7-0.2-2.4-0.5s-1.3-0.8-1.8-1.4
	s-0.9-1.3-1.1-2.1C634.4,102.6,634.3,101.7,634.3,100.8z M636.4,100.5v0.3c0,0.6,0.1,1.2,0.2,1.8c0.1,0.6,0.4,1,0.7,1.5
	c0.3,0.4,0.7,0.8,1.1,1c0.5,0.2,1,0.4,1.6,0.4s1.1-0.1,1.6-0.4c0.5-0.2,0.8-0.6,1.1-1s0.5-0.9,0.7-1.5s0.2-1.2,0.2-1.8v-0.3
	c0-0.6-0.1-1.2-0.2-1.8c-0.1-0.6-0.4-1.1-0.7-1.5s-0.7-0.8-1.1-1c-0.4-0.2-1-0.4-1.6-0.4s-1.1,0.1-1.6,0.4c-0.4,0.2-0.8,0.6-1.1,1
	s-0.5,0.9-0.7,1.5C636.5,99.3,636.4,99.9,636.4,100.5z M656.3,104.1v-9.7h2.2V107h-2.1L656.3,104.1z M656.7,101.4h0.9
	c0,0.8-0.1,1.6-0.3,2.3c-0.2,0.7-0.5,1.3-0.8,1.9c-0.4,0.5-0.9,0.9-1.5,1.2c-0.6,0.3-1.4,0.4-2.3,0.4c-0.6,0-1.2-0.1-1.7-0.3
	c-0.5-0.2-0.9-0.5-1.3-0.8s-0.7-0.9-0.9-1.5s-0.3-1.3-0.3-2.2v-8.2h2.2v8.2c0,0.6,0.1,1,0.2,1.4c0.1,0.4,0.3,0.7,0.5,0.9
	c0.2,0.2,0.5,0.4,0.8,0.4c0.3,0.1,0.6,0.1,0.9,0.1c0.9,0,1.7-0.2,2.2-0.5c0.5-0.4,0.9-0.8,1.2-1.4
	C656.6,102.8,656.7,102.1,656.7,101.4z M663.9,96.8v15.1h-2.2V94.3h2L663.9,96.8z M672.5,100.6v0.2c0,0.9-0.1,1.8-0.3,2.6
	c-0.2,0.8-0.5,1.5-1,2c-0.4,0.6-0.9,1-1.5,1.3s-1.3,0.5-2.1,0.5s-1.5-0.1-2.1-0.4s-1.1-0.7-1.6-1.2c-0.4-0.5-0.8-1.1-1-1.8
	c-0.2-0.7-0.4-1.5-0.5-2.4v-1.3c0.1-0.9,0.3-1.8,0.5-2.5c0.3-0.7,0.6-1.4,1-1.9s0.9-0.9,1.6-1.2c0.6-0.3,1.3-0.4,2.1-0.4
	s1.5,0.2,2.1,0.5s1.1,0.7,1.6,1.3c0.4,0.6,0.7,1.3,0.9,2.1C672.4,98.7,672.5,99.6,672.5,100.6z M670.3,100.8v-0.2
	c0-0.6-0.1-1.2-0.2-1.8c-0.1-0.6-0.3-1.1-0.6-1.5s-0.6-0.8-1.1-1c-0.4-0.2-0.9-0.4-1.5-0.4c-0.5,0-1,0.1-1.4,0.3
	c-0.4,0.2-0.7,0.4-1,0.8c-0.3,0.3-0.5,0.7-0.7,1.1s-0.3,0.8-0.4,1.2v3c0.2,0.5,0.4,1.1,0.7,1.5c0.3,0.5,0.7,0.9,1.1,1.2
	c0.5,0.3,1.1,0.4,1.8,0.4c0.6,0,1.1-0.1,1.5-0.4c0.4-0.2,0.8-0.6,1.1-1s0.5-0.9,0.6-1.5C670.2,102,670.3,101.4,670.3,100.8z
	 M683.4,89v18h-2.2V89H683.4z M682.8,100.2h-0.9c0-0.9,0.1-1.7,0.4-2.4c0.2-0.7,0.6-1.4,1.1-1.9s1-1,1.6-1.3s1.3-0.5,2.1-0.5
	c0.6,0,1.2,0.1,1.7,0.3c0.5,0.2,0.9,0.4,1.3,0.8c0.4,0.4,0.6,0.8,0.8,1.4s0.3,1.3,0.3,2.1v8.3H689v-8.3c0-0.7-0.1-1.2-0.3-1.6
	s-0.5-0.7-0.9-0.9c-0.4-0.2-0.8-0.3-1.4-0.3c-0.5,0-1,0.1-1.5,0.3c-0.4,0.2-0.8,0.5-1.1,0.9s-0.6,0.9-0.7,1.4
	C682.9,99.1,682.8,99.6,682.8,100.2z M699.7,107.2c-0.9,0-1.7-0.1-2.4-0.4s-1.3-0.7-1.8-1.3c-0.5-0.5-0.9-1.2-1.2-1.9
	c-0.3-0.8-0.4-1.6-0.4-2.5v-0.5c0-1,0.2-1.9,0.5-2.8c0.3-0.8,0.7-1.5,1.2-2.1s1.1-1,1.8-1.3s1.4-0.4,2.1-0.4c0.9,0,1.7,0.2,2.3,0.5
	c0.7,0.3,1.2,0.8,1.6,1.3c0.4,0.6,0.7,1.2,0.9,2s0.3,1.6,0.3,2.5v1h-9.5v-1.8h7.3v-0.2c0-0.6-0.1-1.1-0.4-1.6
	c-0.2-0.5-0.5-1-0.9-1.3s-1-0.5-1.8-0.5c-0.5,0-0.9,0.1-1.4,0.3c-0.4,0.2-0.8,0.5-1.1,0.9s-0.5,0.9-0.7,1.5s-0.2,1.3-0.2,2v0.5
	c0,0.6,0.1,1.2,0.2,1.7c0.2,0.5,0.4,1,0.7,1.4s0.7,0.7,1.2,0.9c0.5,0.2,1,0.3,1.6,0.3c0.8,0,1.4-0.2,1.9-0.5s1-0.7,1.4-1.3l1.3,1
	c-0.3,0.4-0.6,0.8-1,1.2s-0.9,0.7-1.6,0.9C701.2,107.1,700.5,107.2,699.7,107.2z M714.6,104.8v-6.5c0-0.5-0.1-0.9-0.3-1.3
	s-0.5-0.7-0.9-0.9c-0.4-0.2-0.9-0.3-1.5-0.3c-0.5,0-1,0.1-1.4,0.3c-0.4,0.2-0.7,0.4-1,0.7c-0.2,0.3-0.3,0.6-0.3,1H707
	c0-0.5,0.1-0.9,0.4-1.3c0.2-0.4,0.6-0.8,1-1.2c0.4-0.4,1-0.7,1.6-0.9c0.6-0.2,1.3-0.3,2.1-0.3c0.9,0,1.7,0.2,2.4,0.5
	s1.3,0.8,1.7,1.4s0.6,1.4,0.6,2.4v5.9c0,0.4,0,0.9,0.1,1.3c0.1,0.5,0.2,0.9,0.3,1.2v0.2H715c-0.1-0.2-0.2-0.6-0.3-1
	C714.6,105.6,714.6,105.2,714.6,104.8z M715,99.3v1.5h-2.2c-0.6,0-1.2,0.1-1.7,0.2s-0.9,0.2-1.2,0.4s-0.6,0.4-0.8,0.7
	c-0.2,0.3-0.3,0.6-0.3,1s0.1,0.8,0.3,1.1c0.2,0.3,0.4,0.6,0.8,0.8c0.4,0.2,0.8,0.3,1.3,0.3c0.7,0,1.2-0.1,1.8-0.4
	c0.5-0.3,0.9-0.6,1.2-1s0.5-0.8,0.5-1.2l0.9,1c-0.1,0.3-0.2,0.7-0.4,1.1s-0.6,0.8-1,1.1c-0.4,0.4-0.9,0.7-1.4,0.9
	c-0.5,0.2-1.2,0.4-1.9,0.4c-0.9,0-1.6-0.2-2.3-0.5c-0.6-0.3-1.1-0.8-1.5-1.3c-0.4-0.6-0.5-1.2-0.5-1.9c0-0.7,0.1-1.3,0.4-1.8
	c0.3-0.5,0.6-1,1.1-1.3c0.5-0.4,1.1-0.6,1.8-0.8s1.5-0.3,2.4-0.3L715,99.3L715,99.3z M722.6,89v18h-2.2V89H722.6z M731.3,94.3V96
	h-6.9v-1.7H731.3z M726.8,91.2h2.2v12.6c0,0.4,0.1,0.8,0.2,1s0.3,0.4,0.5,0.4c0.2,0.1,0.4,0.1,0.7,0.1c0.2,0,0.4,0,0.6,0
	c0.2,0,0.4-0.1,0.5-0.1v1.8c-0.2,0.1-0.4,0.1-0.7,0.2s-0.6,0.1-1,0.1c-0.5,0-1-0.1-1.5-0.3c-0.4-0.2-0.8-0.6-1.1-1.1s-0.4-1.2-0.4-2
	V91.2z M736.1,89v18h-2.2V89H736.1z M735.5,100.2h-0.9c0-0.9,0.1-1.7,0.4-2.4c0.2-0.7,0.6-1.4,1.1-1.9s1-1,1.6-1.3s1.3-0.5,2.1-0.5
	c0.6,0,1.2,0.1,1.7,0.3c0.5,0.2,0.9,0.4,1.3,0.8c0.4,0.4,0.6,0.8,0.8,1.4s0.3,1.3,0.3,2.1v8.3h-2.2v-8.3c0-0.7-0.1-1.2-0.3-1.6
	s-0.5-0.7-0.9-0.9c-0.4-0.2-0.8-0.3-1.4-0.3c-0.5,0-1,0.1-1.5,0.3c-0.4,0.2-0.8,0.5-1.1,0.9s-0.6,0.9-0.7,1.4
	C735.6,99.1,735.5,99.6,735.5,100.2z M755.2,96.8v15.1H753V94.3h2L755.2,96.8z M763.8,100.6v0.2c0,0.9-0.1,1.8-0.3,2.6
	c-0.2,0.8-0.5,1.5-1,2c-0.4,0.6-0.9,1-1.5,1.3s-1.3,0.5-2.1,0.5s-1.5-0.1-2.1-0.4s-1.1-0.7-1.6-1.2c-0.4-0.5-0.8-1.1-1-1.8
	c-0.2-0.7-0.4-1.5-0.5-2.4v-1.3c0.1-0.9,0.3-1.8,0.5-2.5c0.3-0.7,0.6-1.4,1-1.9s0.9-0.9,1.6-1.2c0.6-0.3,1.3-0.4,2.1-0.4
	s1.5,0.2,2.1,0.5s1.1,0.7,1.6,1.3c0.4,0.6,0.7,1.3,1,2.1C763.7,98.7,763.8,99.6,763.8,100.6z M761.6,100.8v-0.2
	c0-0.6-0.1-1.2-0.2-1.8c-0.1-0.6-0.3-1.1-0.6-1.5s-0.6-0.8-1.1-1c-0.4-0.2-0.9-0.4-1.5-0.4c-0.5,0-1,0.1-1.4,0.3
	c-0.4,0.2-0.7,0.4-1,0.8c-0.3,0.3-0.5,0.7-0.7,1.1s-0.3,0.8-0.4,1.2v3c0.2,0.5,0.4,1.1,0.7,1.5c0.3,0.5,0.7,0.9,1.1,1.2
	c0.5,0.3,1.1,0.4,1.8,0.4c0.6,0,1.1-0.1,1.5-0.4c0.4-0.2,0.8-0.6,1.1-1s0.5-0.9,0.6-1.5C761.5,102,761.6,101.4,761.6,100.8z
	 M768.7,96.3V107h-2.2V94.3h2.1L768.7,96.3z M772.7,94.2v2c-0.2,0-0.4-0.1-0.5-0.1c-0.2,0-0.3,0-0.5,0c-0.5,0-0.9,0.1-1.3,0.2
	c-0.4,0.2-0.7,0.4-1,0.7c-0.3,0.3-0.5,0.6-0.6,1s-0.2,0.8-0.3,1.3l-0.6,0.4c0-0.8,0.1-1.5,0.2-2.2c0.2-0.7,0.4-1.3,0.7-1.8
	s0.7-0.9,1.2-1.2c0.5-0.3,1.1-0.4,1.8-0.4c0.2,0,0.3,0,0.5,0.1C772.4,94.2,772.6,94.2,772.7,94.2z M779.7,107.2
	c-0.9,0-1.7-0.1-2.4-0.4s-1.3-0.7-1.8-1.3c-0.5-0.5-0.9-1.2-1.2-1.9c-0.3-0.8-0.4-1.6-0.4-2.5v-0.5c0-1,0.2-1.9,0.5-2.8
	c0.3-0.8,0.7-1.5,1.2-2.1s1.1-1,1.8-1.3s1.4-0.4,2.1-0.4c0.9,0,1.7,0.2,2.3,0.5c0.7,0.3,1.2,0.8,1.6,1.3c0.4,0.6,0.7,1.2,0.9,2
	s0.3,1.6,0.3,2.5v1h-9.5v-1.8h7.3v-0.2c0-0.6-0.1-1.1-0.4-1.6c-0.2-0.5-0.5-1-0.9-1.3s-1-0.5-1.8-0.5c-0.5,0-0.9,0.1-1.4,0.3
	c-0.4,0.2-0.8,0.5-1.1,0.9s-0.5,0.9-0.7,1.5s-0.2,1.3-0.2,2v0.5c0,0.6,0.1,1.2,0.2,1.7c0.2,0.5,0.4,1,0.7,1.4s0.7,0.7,1.2,0.9
	c0.5,0.2,1,0.3,1.6,0.3c0.8,0,1.4-0.2,1.9-0.5s1-0.7,1.4-1.3l1.3,1c-0.3,0.4-0.6,0.8-1,1.2c-0.4,0.4-0.9,0.7-1.6,0.9
	C781.2,107.1,780.5,107.2,779.7,107.2z M789.3,96.8V107h-2.2V94.3h2.1L789.3,96.8z M788.9,100.2h-1c0-0.9,0.1-1.7,0.3-2.4
	c0.2-0.7,0.5-1.4,1-1.9s1-1,1.6-1.3s1.4-0.5,2.2-0.5c0.6,0,1.1,0.1,1.6,0.3c0.5,0.2,0.9,0.4,1.3,0.8s0.7,0.8,0.9,1.4s0.3,1.2,0.3,2
	v8.4h-2.2v-8.3c0-0.7-0.1-1.2-0.3-1.6s-0.5-0.7-0.9-0.9c-0.4-0.2-0.9-0.3-1.4-0.3c-0.6,0-1.2,0.1-1.6,0.3s-0.8,0.5-1,0.9
	s-0.4,0.9-0.6,1.4C788.9,99.1,788.9,99.6,788.9,100.2z M797.1,99l-1.5,0.4c0-0.7,0.1-1.4,0.3-2s0.6-1.2,1-1.7s1-0.9,1.6-1.2
	c0.6-0.3,1.3-0.4,2.1-0.4c0.7,0,1.3,0.1,1.8,0.3c0.5,0.2,1,0.5,1.3,0.8c0.4,0.4,0.6,0.8,0.8,1.4s0.3,1.3,0.3,2.1v8.3h-2.2v-8.4
	c0-0.7-0.1-1.3-0.3-1.7c-0.2-0.4-0.5-0.7-0.9-0.8c-0.4-0.2-0.9-0.2-1.4-0.2s-0.9,0.1-1.3,0.2c-0.4,0.2-0.7,0.4-0.9,0.7
	c-0.2,0.3-0.4,0.6-0.6,1C797.1,98.2,797.1,98.6,797.1,99z M810.6,94.3V107h-2.2V94.3H810.6z M808.2,91c0-0.4,0.1-0.6,0.3-0.9
	c0.2-0.2,0.5-0.4,1-0.4c0.4,0,0.7,0.1,0.9,0.4c0.2,0.2,0.3,0.5,0.3,0.9c0,0.3-0.1,0.6-0.3,0.9c-0.2,0.2-0.5,0.4-0.9,0.4
	s-0.7-0.1-1-0.4C808.3,91.6,808.2,91.3,808.2,91z M821.8,104.1v-9.7h2.2V107h-2.1L821.8,104.1z M822.2,101.4h0.9
	c0,0.8-0.1,1.6-0.3,2.3c-0.2,0.7-0.5,1.3-0.8,1.9c-0.4,0.5-0.9,0.9-1.5,1.2c-0.6,0.3-1.4,0.4-2.3,0.4c-0.6,0-1.2-0.1-1.7-0.3
	c-0.5-0.2-0.9-0.5-1.3-0.8c-0.4-0.4-0.7-0.9-0.9-1.5s-0.3-1.3-0.3-2.2v-8.2h2.2v8.2c0,0.6,0.1,1,0.2,1.4c0.1,0.4,0.3,0.7,0.5,0.9
	c0.2,0.2,0.5,0.4,0.8,0.4c0.3,0.1,0.6,0.1,0.9,0.1c0.9,0,1.7-0.2,2.2-0.5c0.5-0.4,0.9-0.8,1.2-1.4
	C822.1,102.8,822.2,102.1,822.2,101.4z M829.4,96.8V107h-2.2V94.3h2.1L829.4,96.8z M829,100.2h-1c0-0.9,0.1-1.7,0.3-2.4
	c0.2-0.7,0.5-1.4,1-1.9s1-1,1.6-1.3s1.4-0.5,2.2-0.5c0.6,0,1.1,0.1,1.6,0.3c0.5,0.2,0.9,0.4,1.3,0.8c0.4,0.4,0.7,0.8,0.9,1.4
	s0.3,1.2,0.3,2v8.4H835v-8.3c0-0.7-0.1-1.2-0.3-1.6s-0.5-0.7-0.9-0.9c-0.4-0.2-0.9-0.3-1.4-0.3c-0.6,0-1.2,0.1-1.6,0.3
	s-0.8,0.5-1,0.9s-0.4,0.9-0.6,1.4C829,99.1,829,99.6,829,100.2z M837.2,99l-1.5,0.4c0-0.7,0.1-1.4,0.3-2s0.6-1.2,1-1.7
	s1-0.9,1.6-1.2c0.6-0.3,1.3-0.4,2.1-0.4c0.7,0,1.3,0.1,1.8,0.3c0.5,0.2,1,0.5,1.3,0.8c0.4,0.4,0.6,0.8,0.8,1.4s0.3,1.3,0.3,2.1v8.3
	h-2.2v-8.4c0-0.7-0.1-1.3-0.3-1.7c-0.2-0.4-0.5-0.7-0.9-0.8c-0.4-0.2-0.9-0.2-1.4-0.2s-0.9,0.1-1.3,0.2c-0.4,0.2-0.7,0.4-0.9,0.7
	c-0.2,0.3-0.4,0.6-0.6,1C837.3,98.2,837.2,98.6,837.2,99z M855.7,103.6c0-0.3-0.1-0.6-0.2-0.9c-0.1-0.3-0.4-0.5-0.8-0.7
	c-0.4-0.2-1-0.4-1.9-0.6c-0.7-0.1-1.3-0.3-1.9-0.5c-0.6-0.2-1-0.4-1.4-0.7c-0.4-0.3-0.7-0.6-0.9-1s-0.3-0.8-0.3-1.4
	c0-0.5,0.1-1,0.3-1.4s0.5-0.8,0.9-1.2c0.4-0.3,0.9-0.6,1.5-0.8c0.6-0.2,1.2-0.3,1.9-0.3c1,0,1.9,0.2,2.6,0.5
	c0.7,0.4,1.3,0.8,1.7,1.4s0.6,1.3,0.6,2h-2.2c0-0.4-0.1-0.7-0.3-1s-0.5-0.6-0.9-0.8c-0.4-0.2-0.9-0.3-1.4-0.3
	c-0.6,0-1.1,0.1-1.5,0.3c-0.4,0.2-0.6,0.4-0.8,0.7c-0.2,0.3-0.2,0.6-0.2,0.9c0,0.2,0,0.4,0.1,0.6s0.2,0.3,0.4,0.5
	c0.2,0.1,0.5,0.3,0.9,0.4s0.9,0.3,1.5,0.4c1,0.2,1.9,0.5,2.6,0.8c0.7,0.3,1.2,0.7,1.5,1.2s0.5,1.1,0.5,1.7s-0.1,1.1-0.4,1.5
	c-0.2,0.5-0.6,0.9-1,1.2c-0.4,0.3-0.9,0.6-1.5,0.8c-0.6,0.2-1.3,0.3-2,0.3c-1.1,0-2.1-0.2-2.8-0.6c-0.8-0.4-1.4-0.9-1.8-1.5
	c-0.4-0.6-0.6-1.3-0.6-2h2.2c0,0.6,0.2,1.1,0.5,1.4s0.7,0.6,1.1,0.7c0.5,0.1,0.9,0.2,1.3,0.2c0.6,0,1.1-0.1,1.5-0.2
	c0.4-0.2,0.7-0.4,0.9-0.6C855.6,104.3,855.7,104,855.7,103.6z"/>
<linearGradient id="SVGID_19_" gradientUnits="userSpaceOnUse" x1="734.3" y1="923" x2="734.3" y2="986.6952" gradientTransform="matrix(1 0 0 1 0 -922)">
	<stop  offset="5.347593e-03" style="stop-color:#6F983F"/>
	<stop  offset="0.9947" style="stop-color:#2E2E2E"/>
</linearGradient>
<path class="st13" d="M750.8,1.8h-0.2c-5.8,0.1-11.4,2.4-15.6,6.5c-5.1-4.8-9.8-7.2-14-7.2c-5.5,0-10.8,2.2-14.6,6.1
	c-2.9,3-4.9,6.8-5.7,11c0,0.2,0,0.5,0.1,0.7s0.3,0.3,0.6,0.4c0.5,0.1,0.9-0.2,1-0.7c0.7-3.8,2.5-7.3,5.2-10.1
	c3.5-3.7,8.4-5.7,13.4-5.7c3.9,0,8.4,2.4,13.3,7.2c0.2,0.2,0.5,0.3,0.7,0.3c0.3,0,0.5-0.1,0.7-0.3c4-4,9.4-6.3,15-6.4
	c4.4,0,8.6,1.8,11.6,4.9c3.6,3.7,5.6,8.7,5.5,13.8c0,2.6-0.5,5.2-1.5,7.6h-20.2c-0.2,0-0.4,0.1-0.6,0.3l-9.4,10l-9.9-22.6
	c-0.1-0.3-0.4-0.5-0.7-0.5s-0.6,0.2-0.8,0.4l-7.6,12.4h-17.3c-0.5,0-0.8,0.4-0.8,0.9s0.4,0.9,0.8,0.9h17.8c0.3,0,0.6-0.2,0.8-0.4
	l7-11.4L735,42c0.1,0.3,0.3,0.4,0.6,0.5h0.2c0.2,0,0.4-0.1,0.6-0.3l10.2-10.7h19.1c-0.9,1.6-1.9,3.1-3.2,4.4L735,62.6l-22-21.3
	c-0.3-0.3-0.8-0.2-1.1,0.1s-0.3,0.8-0.1,1.1l22.5,21.9c0.3,0.3,0.9,0.3,1.2,0l28.1-27.3c3.9-4,6-9.4,6-15s-2.2-11-6-15
	C760.3,3.7,755.6,1.7,750.8,1.8z"/>
</svg>
